<svg width="287" height="65" viewBox="0 0 287 65" fill="none" xmlns="http://www.w3.org/2000/svg">
<g clip-path="url(#clip0_418_31330)">
<path d="M282.31 12.9102L260.28 0.670233C259.91 0.470233 259.5 0.430233 259.12 0.530233V15.9102L283.21 15.8402C284.59 15.8202 283.52 13.5802 282.31 12.9102Z" fill="#387BED"/>
<path d="M258.15 1.27953L251.31 13.5995C250.72 14.6595 251.5 15.9495 252.71 15.9295L259.13 15.9095V0.519531C258.73 0.619531 258.37 0.879531 258.16 1.26953L258.15 1.27953Z" fill="#316294"/>
<path d="M286.74 44.8896L286.86 19.6896C286.86 19.2696 286.7 18.8896 286.43 18.5996L272.95 26.0096L284.61 47.0896C285.3 48.2896 286.73 46.2696 286.74 44.8896Z" fill="#4C4C4C"/>
<path d="M285.3 18.11L271.21 18.04C270 18.04 269.24 19.34 269.84 20.39L272.95 26.01L286.43 18.6C286.15 18.3 285.75 18.11 285.3 18.11Z" fill="#2C2C2A"/>
<path d="M261.36 63.6203L283.03 50.7503C283.39 50.5303 283.63 50.2003 283.74 49.8203L270.45 42.0703L258.38 62.9203C257.7 64.1203 260.17 64.3203 261.36 63.6203Z" fill="#4C4C4C"/>
<path d="M283.58 48.5998L276.38 36.4798C275.76 35.4398 274.25 35.4598 273.66 36.5098L270.44 42.0698L283.73 49.8198C283.84 49.4198 283.8 48.9798 283.57 48.5998H283.58Z" fill="#2C2C2A"/>
<path d="M232.11 51.1201L254.14 63.3601C254.51 63.5601 254.92 63.6001 255.3 63.5001V48.1201L231.21 48.1901C229.83 48.2101 230.9 50.4501 232.11 51.1201Z" fill="#4C4C4C"/>
<path d="M256.27 62.7498L263.11 50.4298C263.7 49.3698 262.92 48.0798 261.71 48.0998L255.29 48.1198V63.4998C255.69 63.3998 256.05 63.1398 256.26 62.7498H256.27Z" fill="#2C2C2A"/>
<path d="M227.68 19.1303L227.56 44.3303C227.56 44.7503 227.72 45.1303 227.99 45.4203L241.47 38.0103L229.81 16.9303C229.12 15.7303 227.69 17.7503 227.68 19.1303Z" fill="#4C4C4C"/>
<path d="M229.11 45.9098L243.2 45.9798C244.41 45.9798 245.17 44.6798 244.57 43.6298L241.46 38.0098L227.98 45.4198C228.26 45.7198 228.66 45.9098 229.11 45.9098Z" fill="#2C2C2A"/>
<path d="M253.06 0.410447L231.39 13.2804C231.03 13.5004 230.79 13.8304 230.68 14.2104L243.97 21.9604L256.04 1.11045C256.72 -0.0895528 254.25 -0.289553 253.06 0.410447Z" fill="#4C4C4C"/>
<path d="M230.84 15.43L238.04 27.55C238.66 28.59 240.17 28.57 240.76 27.52L243.98 21.96L230.69 14.21C230.58 14.61 230.62 15.05 230.85 15.43H230.84Z" fill="#2C2C2A"/>
<path d="M2.7 40.8205H0L10.95 18.4805H13.96L24.91 40.8205H22.15L19.08 34.5605H5.74L2.7 40.8205ZM12.42 20.8805L6.82 32.3605H18.01L12.42 20.8805Z" fill="white"/>
<path d="M31.0498 18.4797H44.1198C46.1998 18.4797 47.8698 19.0897 49.1198 20.3197C50.4098 21.5497 51.0498 23.1297 51.0498 25.0697C51.0498 27.0097 50.3998 28.6497 49.0898 29.8897C47.8098 31.1397 46.1698 31.7597 44.1798 31.7597H35.3998L36.3298 29.5397H43.7598C45.3598 29.5397 46.5498 29.1397 47.3498 28.3297C48.1398 27.5197 48.5398 26.4297 48.5398 25.0597C48.5398 23.5797 48.0798 22.4897 47.1598 21.7797C46.2698 21.0697 45.2298 20.7197 44.0298 20.7197H33.5698V40.8097H31.0498V18.4697V18.4797Z" fill="white"/>
<path d="M58.7197 18.4805H76.5197V20.7005H61.2397V28.4905H75.5897L74.7097 30.6405H61.2397V38.6205H77.2797V40.8205H58.7197V18.4805Z" fill="white"/>
<path d="M85.5703 18.48H98.1103C100.32 18.48 102.12 19.1 103.52 20.35C104.95 21.6 105.66 23.19 105.66 25.13C105.66 26.83 105.1 28.23 103.99 29.35C102.88 30.46 101.37 31.14 99.4603 31.36L106.59 40.81H103.4L96.5203 31.61H89.9103L90.8403 29.39H98.0503C99.5703 29.39 100.8 29 101.74 28.21C102.68 27.43 103.15 26.39 103.15 25.12C103.15 23.85 102.69 22.8 101.77 21.97C100.88 21.11 99.7403 20.68 98.3403 20.68H88.0903V40.8H85.5703V18.46V18.48Z" fill="white"/>
<path d="M109.81 18.4805H130.74V20.7005H121.53V40.8205H119.01V20.7005H109.81V18.4805Z" fill="white"/>
<path d="M136.56 18.4805H139.08V31.3705C139.08 33.6905 139.78 35.5105 141.19 36.8405C142.59 38.1705 144.52 38.8305 146.97 38.8305C149.42 38.8305 151.36 38.1705 152.81 36.8405C154.26 35.4805 154.98 33.6605 154.98 31.3705V18.4805H157.5V31.8005C157.5 34.6505 156.56 36.9205 154.68 38.6205C152.83 40.2905 150.29 41.1205 147.07 41.1205C143.85 41.1205 141.25 40.2905 139.4 38.6205C137.51 36.9105 136.57 34.6405 136.57 31.8005V18.4805H136.56Z" fill="white"/>
<path d="M167 18.48H179.54C181.75 18.48 183.55 19.1 184.95 20.35C186.38 21.6 187.09 23.19 187.09 25.13C187.09 26.83 186.53 28.23 185.42 29.35C184.31 30.46 182.8 31.14 180.89 31.36L188.02 40.81H184.83L177.95 31.61H171.34L172.27 29.39H179.48C181 29.39 182.23 29 183.17 28.21C184.11 27.43 184.58 26.39 184.58 25.12C184.58 23.85 184.12 22.8 183.2 21.97C182.31 21.11 181.17 20.68 179.77 20.68H169.52V40.8H167V18.46V18.48Z" fill="white"/>
<path d="M195.23 18.4805H213.03V20.7005H197.75V28.4905H212.1L211.22 30.6405H197.75V38.6205H213.79V40.8205H195.23V18.4805Z" fill="white"/>
<path d="M36.1398 49.2197C36.6798 49.6097 37.0498 50.1396 37.2598 50.8196H36.5498C36.3698 50.3596 36.0698 49.9796 35.6498 49.6896C35.2298 49.3996 34.7298 49.2596 34.1598 49.2596C33.6598 49.2596 33.2098 49.3796 32.8098 49.6096C32.4098 49.8396 32.0898 50.1796 31.8598 50.6196C31.6298 51.0596 31.5198 51.5697 31.5198 52.1497C31.5198 52.7297 31.6398 53.2596 31.8698 53.6996C32.0998 54.1396 32.4198 54.4696 32.8298 54.7096C33.2398 54.9396 33.6998 55.0597 34.2298 55.0597C34.6898 55.0597 35.1198 54.9596 35.4998 54.7496C35.8898 54.5396 36.1998 54.2396 36.4398 53.8496C36.6798 53.4596 36.8198 52.9997 36.8598 52.4697H33.9898V51.9496H37.4598V52.5597C37.4098 53.1497 37.2498 53.6797 36.9698 54.1497C36.6898 54.6197 36.2998 54.9896 35.8198 55.2596C35.3398 55.5296 34.7898 55.6696 34.1798 55.6696C33.5298 55.6696 32.9498 55.5197 32.4398 55.2197C31.9298 54.9197 31.5398 54.5097 31.2598 53.9697C30.9798 53.4297 30.8398 52.8297 30.8398 52.1497C30.8398 51.4697 30.9798 50.8597 31.2598 50.3297C31.5398 49.7897 31.9298 49.3797 32.4398 49.0797C32.9498 48.7797 33.5298 48.6396 34.1798 48.6396C34.9598 48.6396 35.6298 48.8296 36.1698 49.2296" fill="white"/>
<path d="M42.9197 55.0504H45.4197V55.6004H42.2197V48.6904H42.9197V55.0504Z" fill="white"/>
<path d="M54.7499 49.0604C55.2599 49.3604 55.6599 49.7804 55.9499 50.3104C56.2399 50.8504 56.3899 51.4504 56.3899 52.1304C56.3899 52.8104 56.2399 53.4204 55.9499 53.9604C55.6599 54.5003 55.2599 54.9204 54.7499 55.2204C54.2399 55.5204 53.6699 55.6703 53.0299 55.6703C52.3899 55.6703 51.8099 55.5204 51.3099 55.2204C50.7999 54.9204 50.3999 54.5003 50.1099 53.9604C49.8199 53.4204 49.6699 52.8104 49.6699 52.1304C49.6699 51.4504 49.8199 50.8404 50.1099 50.3104C50.3999 49.7804 50.7999 49.3604 51.3099 49.0604C51.8199 48.7604 52.3899 48.6104 53.0299 48.6104C53.6699 48.6104 54.2499 48.7604 54.7499 49.0604ZM51.6699 49.6003C51.2699 49.8303 50.9499 50.1704 50.7199 50.6104C50.4899 51.0504 50.3699 51.5604 50.3699 52.1404C50.3699 52.7204 50.4899 53.2303 50.7199 53.6703C50.9499 54.1103 51.2699 54.4404 51.6699 54.6804C52.0699 54.9204 52.5199 55.0303 53.0299 55.0303C53.5399 55.0303 53.9899 54.9104 54.3899 54.6804C54.7899 54.4504 55.1099 54.1103 55.3399 53.6703C55.5699 53.2303 55.6899 52.7204 55.6899 52.1404C55.6899 51.5604 55.5699 51.0504 55.3399 50.6104C55.1099 50.1704 54.7899 49.8403 54.3899 49.6003C53.9899 49.3603 53.5399 49.2504 53.0299 49.2504C52.5199 49.2504 52.0699 49.3703 51.6699 49.6003Z" fill="white"/>
<path d="M65.3802 52.6202C65.6502 52.9302 65.7802 53.3102 65.7802 53.7402C65.7802 54.2902 65.5902 54.7402 65.2102 55.0902C64.8302 55.4302 64.2802 55.6102 63.5602 55.6102H61.1602V48.7002H63.5302C64.2202 48.7002 64.7402 48.8602 65.0902 49.1702C65.4402 49.4802 65.6102 49.9002 65.6102 50.4202C65.6102 50.8702 65.4902 51.2302 65.2502 51.5002C65.0102 51.7702 64.7002 51.9502 64.3202 52.0302C64.7502 52.1202 65.1002 52.3202 65.3702 52.6302M61.8602 51.7802H63.4502C63.9302 51.7802 64.3002 51.6702 64.5502 51.4402C64.8002 51.2202 64.9302 50.9102 64.9302 50.5102C64.9302 50.1102 64.8102 49.8202 64.5602 49.6002C64.3102 49.3802 63.9302 49.2702 63.4102 49.2702H61.8602V51.7802ZM64.6502 54.6502C64.9402 54.4102 65.0802 54.0802 65.0802 53.6602C65.0802 53.2402 64.9302 52.9102 64.6402 52.6702C64.3502 52.4202 63.9402 52.3002 63.4202 52.3002H61.8502V55.0102H63.4402C63.9602 55.0102 64.3602 54.8902 64.6502 54.6502Z" fill="white"/>
<path d="M74.4702 53.9096H71.3202L70.6902 55.5996H69.9502L72.5002 48.8496H73.2702L75.8202 55.5996H75.0802L74.4602 53.9096H74.4702ZM74.2702 53.3596L72.9102 49.6396L71.5302 53.3596H74.2702Z" fill="white"/>
<path d="M81.0103 55.0504H83.5203V55.6004H80.3203V48.6904H81.0103V55.0504Z" fill="white"/>
<path d="M97.7696 55.6004L95.8796 52.7204H94.7596V55.6004H94.0596V48.6904H96.1796C96.9596 48.6904 97.5396 48.8704 97.9196 49.2404C98.2996 49.6104 98.4896 50.1004 98.4896 50.7204C98.4896 51.3004 98.3296 51.7504 98.0096 52.0904C97.6896 52.4304 97.2196 52.6304 96.5996 52.7004L98.5496 55.6004H97.7696ZM94.7596 52.2004H96.1296C97.2396 52.2004 97.7996 51.7204 97.7996 50.7604C97.7996 49.8004 97.2396 49.2904 96.1296 49.2904H94.7596V52.2004Z" fill="white"/>
<path d="M103.86 49.2504V51.8504H106.55V52.3904H103.86V55.0304H106.85V55.6004H103.17V48.6904H106.85V49.2504H103.86Z" fill="white"/>
<path d="M115.56 53.9096H112.41L111.78 55.5996H111.04L113.59 48.8496H114.36L116.91 55.5996H116.17L115.55 53.9096H115.56ZM115.35 53.3596L113.99 49.6396L112.61 53.3596H115.35Z" fill="white"/>
<path d="M122.1 55.0504H124.61V55.6004H121.41V48.6904H122.1V55.0504Z" fill="white"/>
<path d="M135.85 49.2504V51.8504H138.54V52.3904H135.85V55.0304H138.83V55.6004H135.15V48.6904H138.83V49.2504H135.85Z" fill="white"/>
<path d="M147.55 54.7299C147.4 55.0099 147.18 55.2299 146.87 55.4099C146.56 55.5799 146.18 55.6699 145.72 55.6699C145.26 55.6699 144.88 55.5899 144.53 55.4199C144.18 55.2599 143.91 55.0299 143.7 54.7499C143.49 54.4599 143.37 54.1499 143.34 53.7899H144.07C144.1 53.9899 144.17 54.1999 144.29 54.3999C144.41 54.5999 144.59 54.7699 144.83 54.9099C145.06 55.0399 145.35 55.1099 145.68 55.1099C146.12 55.1099 146.45 54.9899 146.68 54.7599C146.91 54.5199 147.03 54.2299 147.03 53.8699C147.03 53.5599 146.95 53.3099 146.8 53.1199C146.65 52.9299 146.46 52.7799 146.23 52.6799C146.01 52.5699 145.7 52.4599 145.31 52.3399C144.88 52.1999 144.53 52.0699 144.27 51.9399C144.01 51.8099 143.78 51.6299 143.6 51.3799C143.42 51.1299 143.33 50.7999 143.33 50.3899C143.33 49.8699 143.51 49.4399 143.88 49.1199C144.25 48.7899 144.75 48.6299 145.39 48.6299C146.03 48.6299 146.56 48.7899 146.94 49.1099C147.32 49.4299 147.55 49.8299 147.62 50.3099H146.89C146.83 50.0199 146.68 49.7599 146.42 49.5299C146.17 49.2999 145.82 49.1899 145.39 49.1899C144.99 49.1899 144.66 49.2999 144.42 49.4999C144.18 49.7099 144.06 49.9999 144.06 50.3699C144.06 50.6599 144.13 50.8999 144.29 51.0799C144.44 51.2599 144.62 51.3999 144.84 51.4999C145.06 51.5999 145.36 51.7099 145.74 51.8299C146.18 51.9699 146.53 52.0999 146.8 52.2299C147.07 52.3599 147.3 52.5599 147.49 52.8199C147.68 53.0799 147.77 53.4299 147.77 53.8599C147.77 54.1699 147.7 54.4699 147.55 54.7499" fill="white"/>
<path d="M156.59 48.6904V49.2504H154.62V55.6004H153.94V49.2504H151.98V48.6904H156.59Z" fill="white"/>
<path d="M165.03 53.9096H161.88L161.25 55.5996H160.51L163.06 48.8496H163.83L166.38 55.5996H165.64L165.02 53.9096H165.03ZM164.82 53.3596L163.46 49.6396L162.08 53.3596H164.82Z" fill="white"/>
<path d="M174.92 48.6904V49.2504H172.95V55.6004H172.27V49.2504H170.31V48.6904H174.92Z" fill="white"/>
<path d="M180.07 49.2504V51.8504H182.76V52.3904H180.07V55.0304H183.06V55.6004H179.37V48.6904H183.06V49.2504H180.07Z" fill="white"/>
</g>
<defs>
<clipPath id="clip0_418_31330">
<rect width="286.86" height="64.02" fill="white"/>
</clipPath>
</defs>
</svg>
