<?xml version="1.0" encoding="UTF-8"?><svg id="Social_media" xmlns="http://www.w3.org/2000/svg" width="91.78" height="99.07" viewBox="0 0 91.78 99.07"><defs><style>.cls-1{fill:#0092ff;}.cls-2{fill:#2b2a2a;}</style></defs><path class="cls-1" d="M84.73,19.97L50.64,1.03c-.57-.32-1.21-.37-1.79-.22v23.8l37.28-.11c2.14-.04.47-3.49-1.39-4.53h0Z"/><path class="cls-1" d="M47.34,1.97l-10.59,19.06c-.91,1.63.29,3.63,2.16,3.6l9.93-.03V.81c-.62.16-1.17.56-1.5,1.16h0Z"/><path class="cls-2" d="M91.59,69.47l.19-39c0-.65-.25-1.24-.67-1.68l-20.86,11.46,18.05,32.62c1.06,1.86,3.29-1.26,3.3-3.4Z"/><path class="cls-2" d="M89.36,28.03l-21.81-.1c-1.87,0-3.04,2.01-2.12,3.63l4.81,8.69,20.86-11.46c-.44-.46-1.06-.75-1.74-.76h0Z"/><path class="cls-2" d="M52.31,98.44l33.53-19.92c.56-.33.93-.86,1.09-1.44l-20.56-11.99-18.68,32.27c-1.04,1.86,2.78,2.17,4.61,1.08h0Z"/><path class="cls-2" d="M86.69,75.2l-11.14-18.75c-.95-1.61-3.29-1.58-4.2.05l-4.98,8.6,20.56,11.99c.17-.61.1-1.29-.25-1.89h0Z"/><path class="cls-2" d="M7.04,79.1l34.09,18.94c.57.32,1.21.37,1.79.22v-23.8l-37.28.11c-2.14.04-.47,3.49,1.39,4.53h0Z"/><path class="cls-2" d="M44.44,97.1l10.59-19.06c.91-1.63-.29-3.63-2.16-3.6l-9.93.03v23.8c.62-.16,1.17-.56,1.5-1.16h0Z"/><path class="cls-2" d="M.19,29.61L0,68.61c0,.65.25,1.24.67,1.68l20.86-11.46L3.48,26.2c-1.06-1.86-3.29,1.26-3.3,3.4Z"/><path class="cls-2" d="M2.41,71.04l21.81.1c1.87,0,3.04-2.01,2.12-3.63l-4.81-8.69L.67,70.29c.44.46,1.06.75,1.74.76h0Z"/><path class="cls-2" d="M39.46.63L5.93,20.55c-.56.33-.93.86-1.09,1.44l20.56,11.99L44.07,1.71c1.04-1.86-2.78-2.17-4.61-1.08h0Z"/><path class="cls-2" d="M5.08,23.87l11.14,18.75c.95,1.61,3.29,1.58,4.2-.05l4.98-8.6L4.83,21.99c-.17.61-.1,1.29.25,1.89h0Z"/></svg>