<?xml version="1.0" encoding="UTF-8"?>
<svg id="Layer_1" xmlns="http://www.w3.org/2000/svg" xmlns:xlink="http://www.w3.org/1999/xlink" version="1.1" viewBox="0 0 282.8 305.3">
  <!-- Generator: Adobe Illustrator 29.3.1, SVG Export Plug-In . SVG Version: 2.1.0 Build 151)  -->
  <defs>
    <style>
      .st0 {
        fill: none;
      }

      .st1 {
        fill: #428bca;
      }

      .st2 {
        font-size: 67px;
      }

      .st2, .st3 {
        font-family: Poppins-Regular, Poppins;
      }

      .st2, .st3, .st4, .st5, .st6, .st7 {
        fill: #fff;
      }

      .st3 {
        font-size: 62px;
      }

      .st5 {
        font-family: Poppins-Light, Poppins;
        font-size: 69px;
        font-weight: 300;
        letter-spacing: 0em;
      }

      .st8 {
        fill: #126298;
      }

      .st9 {
        fill: #1a6498;
      }

      .st10 {
        letter-spacing: 0em;
      }

      .st6 {
        font-size: 136.4px;
      }

      .st6, .st7 {
        font-family: FMBolyarSansPro-200, 'FM Bolyar Sans Pro';
      }

      .st7 {
        font-size: 85px;
      }

      .st11 {
        fill: #15181a;
      }

      .st12 {
        fill: #2d2c2a;
      }

      .st13 {
        letter-spacing: 0em;
      }

      .st14 {
        fill: #448bca;
      }

      .st15 {
        fill: #2b2a2a;
      }

      .st16 {
        fill: #4b4b4b;
      }

      .st17 {
        clip-path: url(#clippath);
      }

      .st18 {
        fill: #4c4c4c;
      }
    </style>
    <clipPath id="clippath">
      <rect class="st0" x="-4598.9" y="-2787.2" width="1764" height="2196"/>
    </clipPath>
  </defs>
  <rect class="st11" x="-4598.9" y="-2785.4" width="1764" height="2192.3"/>
  <g class="st17">
    <path class="st1" d="M-4005.6-2557.8l-189.1-105c-3.2-1.8-6.7-2.1-10-1.2v132l206.7-.6c11.9-.2,2.6-19.4-7.7-25.1"/>
    <path class="st8" d="M-4213-2657.6l-58.7,105.7c-5,9.1,1.6,20.2,12,20l55.1-.2v-132c-3.4.9-6.5,3.1-8.3,6.5"/>
    <path class="st16" d="M-3967.6-2283.3l1-216.3c0-3.6-1.4-6.9-3.7-9.3l-115.7,63.6,100.1,180.9c5.9,10.3,18.2-7,18.3-18.9"/>
    <path class="st15" d="M-3979.9-2513.1l-120.9-.6c-10.4,0-16.9,11.1-11.7,20.1l26.7,48.2,115.7-63.6c-2.4-2.6-5.9-4.2-9.7-4.2"/>
    <path class="st16" d="M-4185.4-2122.7l186-110.5c3.1-1.8,5.2-4.8,6.1-8l-114-66.5-103.6,178.9c-5.8,10.3,15.4,12,25.6,6"/>
    <path class="st15" d="M-3994.7-2251.5l-61.8-104c-5.3-8.9-18.2-8.7-23.3.3l-27.6,47.7,114,66.5c.9-3.4.6-7.2-1.4-10.5"/>
    <path class="st16" d="M-4436.4-2229.9l189.1,105c3.2,1.8,6.7,2.1,10,1.2v-132l-206.7.6c-11.9.2-2.6,19.4,7.7,25.1"/>
    <path class="st15" d="M-4229.1-2130.1l58.7-105.7c5-9.1-1.6-20.2-12-20l-55.1.2v132c3.4-.9,6.5-3.1,8.3-6.5"/>
    <path class="st16" d="M-4474.5-2504.4l-1,216.3c0,3.6,1.4,6.9,3.7,9.3l115.7-63.6-100.1-180.9c-5.9-10.3-18.2,7-18.3,18.9"/>
    <path class="st15" d="M-4462.1-2274.6l120.9.6c10.4,0,16.9-11.1,11.7-20.1l-26.7-48.2-115.7,63.6c2.4,2.6,5.9,4.2,9.7,4.2"/>
    <path class="st16" d="M-4256.7-2665.1l-186,110.5c-3.1,1.8-5.2,4.8-6.1,8l114,66.5,103.6-178.9c5.8-10.3-15.4-12-25.6-6"/>
    <path class="st15" d="M-4447.3-2536.2l61.8,104c5.3,8.9,18.2,8.7,23.3-.3l27.6-47.7-114-66.5c-.9,3.4-.6,7.2,1.4,10.5"/>
  </g>
  <text class="st6" transform="translate(-3859.5 -2350)"><tspan class="st13" x="0" y="0">F</tspan><tspan class="st10" x="112.2" y="0">OR SALE</tspan></text>
  <text class="st7" transform="translate(-4415.2 -1760.6)"><tspan x="0" y="0">Alexander F Brandau IV</tspan></text>
  <text class="st2" transform="translate(-4415.2 -1548.2)"><tspan x="0" y="0">+1 615.601.2024</tspan></text>
  <text class="st2" transform="translate(-4415.2 -1455.9)"><tspan x="0" y="0">Alex@WorkWithAlex.com</tspan></text>
  <g>
    <path class="st4" d="M-3682.4-729.7h-6l-1.2,3.2h-1.4l4.8-13.1h1.5l4.8,13.1h-1.4l-1.2-3.2ZM-3682.8-730.8l-2.6-7.2-2.6,7.2h5.2Z"/>
    <path class="st4" d="M-3674.9-736.4c.7-.5,1.6-.7,2.6-.7s1.8.2,2.5.7c.8.4,1.3,1.1,1.8,1.9.4.8.6,1.7.6,2.8s-.2,2-.6,2.8c-.4.8-1,1.4-1.8,1.9-.8.4-1.6.7-2.5.7s-1.8-.2-2.5-.7c-.7-.5-1.2-1-1.6-1.7v7.2h-1.3v-15.3h1.3v2.3c.3-.7.9-1.3,1.6-1.7ZM-3669.2-734c-.3-.6-.8-1.1-1.4-1.4s-1.2-.5-2-.5-1.4.2-1.9.5c-.6.3-1.1.8-1.4,1.5-.3.6-.5,1.4-.5,2.2s.2,1.6.5,2.2c.3.6.8,1.1,1.4,1.5.6.3,1.2.5,1.9.5s1.4-.2,2-.5c.6-.3,1-.8,1.4-1.5.3-.6.5-1.4.5-2.2s-.2-1.6-.5-2.2Z"/>
    <path class="st4" d="M-3655.6-731.2h-8.6c0,.8.2,1.5.6,2,.3.6.8,1,1.3,1.3s1.2.4,1.8.4,1.6-.2,2.2-.6c.6-.4,1-1,1.2-1.7h1.4c-.3,1-.8,1.8-1.6,2.5-.8.6-1.9,1-3.1,1s-1.8-.2-2.6-.7c-.8-.4-1.4-1.1-1.8-1.9-.4-.8-.7-1.7-.7-2.8s.2-2,.6-2.8,1-1.4,1.8-1.9,1.7-.6,2.6-.6,1.9.2,2.6.6c.7.4,1.3,1,1.7,1.7.4.7.6,1.5.6,2.4s0,.8,0,1ZM-3657.3-734.3c-.3-.5-.8-1-1.3-1.2s-1.2-.4-1.8-.4c-1,0-1.8.3-2.5,1-.7.6-1.1,1.5-1.2,2.7h7.3c0-.8-.1-1.4-.5-2Z"/>
    <path class="st4" d="M-3650.4-736.6c.6-.4,1.3-.5,2.2-.5v1.4h-.4c-1,0-1.7.3-2.3.8-.6.5-.9,1.4-.9,2.6v5.8h-1.3v-10.4h1.3v1.8c.3-.6.7-1.1,1.3-1.5Z"/>
    <path class="st4" d="M-3644.5-735.8v6.4c0,.6.1,1.1.4,1.3.2.2.7.4,1.3.4h1.2v1.1h-1.4c-.9,0-1.6-.2-2.1-.7-.5-.4-.7-1.2-.7-2.2v-6.4h-1.4v-1.1h1.4v-2.6h1.3v2.6h2.9v1.1h-2.9Z"/>
    <path class="st4" d="M-3630.5-736.9v10.4h-1.3v-1.8c-.3.6-.8,1.1-1.4,1.5-.6.3-1.3.5-2.1.5-1.2,0-2.3-.4-3-1.1-.8-.8-1.2-1.9-1.2-3.3v-6.1h1.3v5.9c0,1.1.3,2,.8,2.6.6.6,1.3.9,2.3.9s1.8-.3,2.4-1c.6-.6.9-1.6.9-2.8v-5.6h1.3Z"/>
    <path class="st4" d="M-3624.8-736.6c.6-.4,1.3-.5,2.2-.5v1.4h-.4c-1,0-1.7.3-2.3.8-.6.5-.9,1.4-.9,2.6v5.8h-1.3v-10.4h1.3v1.8c.3-.6.7-1.1,1.3-1.5Z"/>
    <path class="st4" d="M-3611.2-731.2h-8.6c0,.8.2,1.5.6,2,.3.6.8,1,1.3,1.3s1.2.4,1.8.4,1.6-.2,2.2-.6c.6-.4,1-1,1.2-1.7h1.4c-.3,1-.8,1.8-1.6,2.5-.8.6-1.9,1-3.1,1s-1.8-.2-2.6-.7c-.8-.4-1.4-1.1-1.8-1.9-.4-.8-.7-1.7-.7-2.8s.2-2,.6-2.8,1-1.4,1.8-1.9,1.7-.6,2.6-.6,1.9.2,2.6.6c.7.4,1.3,1,1.7,1.7.4.7.6,1.5.6,2.4s0,.8,0,1ZM-3613-734.3c-.3-.5-.8-1-1.3-1.2s-1.2-.4-1.8-.4c-1,0-1.8.3-2.5,1-.7.6-1.1,1.5-1.2,2.7h7.3c0-.8-.1-1.4-.5-2Z"/>
    <path class="st4" d="M-3593.1-735.9c-.4-.9-1-1.6-1.7-2.1-.8-.5-1.7-.8-2.7-.8s-1.9.2-2.7.7c-.8.5-1.4,1.1-1.9,1.9-.5.8-.7,1.8-.7,2.9s.2,2.1.7,2.9,1.1,1.5,1.9,2c.8.5,1.7.7,2.7.7s1.8-.2,2.5-.6c.7-.4,1.3-1,1.8-1.7.4-.7.7-1.6.8-2.6h-5.6v-1.1h7v1c0,1.2-.4,2.2-.9,3.2-.6.9-1.3,1.7-2.3,2.2-1,.5-2,.8-3.2.8s-2.3-.3-3.3-.9-1.8-1.4-2.4-2.4-.9-2.2-.9-3.5.3-2.5.9-3.5,1.4-1.8,2.4-2.4,2.1-.9,3.3-.9,2.7.4,3.7,1.1c1.1.7,1.8,1.7,2.3,3h-1.6Z"/>
    <path class="st4" d="M-3587.3-740.6v14.1h-1.3v-14.1h1.3Z"/>
    <path class="st4" d="M-3582.4-727c-.8-.4-1.4-1.1-1.8-1.9-.5-.8-.7-1.7-.7-2.8s.2-2,.7-2.8c.5-.8,1.1-1.4,1.9-1.9.8-.4,1.7-.7,2.6-.7s1.9.2,2.7.7c.8.4,1.4,1.1,1.9,1.9.5.8.7,1.7.7,2.8s-.2,2-.7,2.8-1.1,1.4-1.9,1.9c-.8.4-1.7.7-2.7.7s-1.9-.2-2.6-.7ZM-3577.9-728c.6-.3,1.1-.8,1.4-1.4.4-.6.5-1.4.5-2.3s-.2-1.7-.5-2.3c-.4-.6-.8-1.1-1.4-1.4-.6-.3-1.2-.5-1.9-.5s-1.3.2-1.9.5c-.6.3-1,.8-1.4,1.4-.3.6-.5,1.4-.5,2.3s.2,1.7.5,2.3c.3.6.8,1.1,1.4,1.4.6.3,1.2.5,1.9.5s1.3-.2,1.9-.5Z"/>
    <path class="st4" d="M-3569.2-736.4c.7-.5,1.6-.7,2.5-.7s1.8.2,2.5.7c.7.4,1.3,1.1,1.8,1.9.4.8.6,1.7.6,2.8s-.2,2-.6,2.8c-.4.8-1,1.4-1.8,1.9s-1.6.7-2.5.7-1.8-.2-2.6-.7c-.7-.4-1.2-1-1.6-1.8v2.3h-1.3v-14.1h1.3v6c.3-.7.9-1.3,1.6-1.8ZM-3563.6-734c-.3-.6-.8-1.1-1.4-1.4-.6-.3-1.2-.5-2-.5s-1.4.2-1.9.5c-.6.3-1.1.8-1.4,1.5-.3.6-.5,1.4-.5,2.2s.2,1.6.5,2.2c.3.6.8,1.1,1.4,1.5.6.3,1.2.5,1.9.5s1.4-.2,2-.5c.6-.3,1-.8,1.4-1.5s.5-1.4.5-2.2-.2-1.6-.5-2.2Z"/>
    <path class="st4" d="M-3559.3-734.5c.4-.8,1-1.4,1.8-1.9.8-.4,1.6-.7,2.6-.7s1.8.2,2.6.7,1.2,1,1.5,1.7v-2.3h1.3v10.4h-1.3v-2.3c-.3.7-.9,1.3-1.6,1.8-.7.5-1.6.7-2.6.7s-1.8-.2-2.5-.7-1.3-1.1-1.8-1.9c-.4-.8-.6-1.7-.6-2.8s.2-2,.6-2.8ZM-3551.4-733.9c-.3-.6-.8-1.1-1.4-1.5-.6-.3-1.2-.5-1.9-.5s-1.4.2-2,.5c-.6.3-1,.8-1.4,1.4s-.5,1.4-.5,2.2.2,1.6.5,2.2.8,1.1,1.4,1.5c.6.3,1.2.5,2,.5s1.4-.2,1.9-.5c.6-.3,1.1-.8,1.4-1.5.3-.6.5-1.4.5-2.2s-.2-1.6-.5-2.2Z"/>
    <path class="st4" d="M-3545.1-740.6v14.1h-1.3v-14.1h1.3Z"/>
    <path class="st4" d="M-3529.8-726.5l-3.3-5.5h-2.5v5.5h-1.3v-13.3h4c1.5,0,2.6.4,3.4,1.1s1.1,1.6,1.1,2.8-.3,1.8-.8,2.5c-.6.7-1.4,1.1-2.4,1.3l3.4,5.6h-1.6ZM-3535.6-733.2h2.7c1,0,1.8-.3,2.3-.8.5-.5.8-1.2.8-2s-.3-1.5-.8-2c-.5-.5-1.3-.7-2.4-.7h-2.7v5.5Z"/>
    <path class="st4" d="M-3516.4-731.2h-8.6c0,.8.2,1.5.6,2,.3.6.8,1,1.3,1.3s1.2.4,1.8.4,1.6-.2,2.2-.6c.6-.4,1-1,1.2-1.7h1.4c-.3,1-.8,1.8-1.6,2.5-.8.6-1.9,1-3.1,1s-1.8-.2-2.6-.7c-.8-.4-1.4-1.1-1.8-1.9-.4-.8-.7-1.7-.7-2.8s.2-2,.6-2.8,1-1.4,1.8-1.9,1.7-.6,2.6-.6,1.9.2,2.6.6c.7.4,1.3,1,1.7,1.7.4.7.6,1.5.6,2.4s0,.8,0,1ZM-3518.2-734.3c-.3-.5-.8-1-1.3-1.2s-1.2-.4-1.8-.4c-1,0-1.8.3-2.5,1-.7.6-1.1,1.5-1.2,2.7h7.3c0-.8-.1-1.4-.5-2Z"/>
    <path class="st4" d="M-3513.9-734.5c.4-.8,1-1.4,1.8-1.9.8-.4,1.6-.7,2.6-.7s1.8.2,2.6.7,1.2,1,1.5,1.7v-2.3h1.3v10.4h-1.3v-2.3c-.3.7-.9,1.3-1.6,1.8-.7.5-1.6.7-2.6.7s-1.8-.2-2.5-.7-1.3-1.1-1.8-1.9c-.4-.8-.6-1.7-.6-2.8s.2-2,.6-2.8ZM-3506-733.9c-.3-.6-.8-1.1-1.4-1.5-.6-.3-1.2-.5-1.9-.5s-1.4.2-2,.5c-.6.3-1,.8-1.4,1.4s-.5,1.4-.5,2.2.2,1.6.5,2.2.8,1.1,1.4,1.5c.6.3,1.2.5,2,.5s1.4-.2,1.9-.5c.6-.3,1.1-.8,1.4-1.5.3-.6.5-1.4.5-2.2s-.2-1.6-.5-2.2Z"/>
    <path class="st4" d="M-3499.8-740.6v14.1h-1.3v-14.1h1.3Z"/>
    <path class="st4" d="M-3490.2-738.7v5h5v1.1h-5v5h5.6v1.1h-6.9v-13.3h6.9v1.1h-5.6Z"/>
    <path class="st4" d="M-3481.3-727.2c-.8-.6-1.2-1.3-1.3-2.3h1.4c0,.6.3,1.1.8,1.4.5.4,1.1.5,2,.5s1.3-.2,1.7-.5c.4-.3.6-.8.6-1.3s-.1-.6-.3-.9c-.2-.2-.5-.4-.9-.5-.3-.1-.8-.3-1.4-.4-.8-.2-1.4-.4-1.9-.6-.5-.2-.9-.5-1.2-.9-.3-.4-.5-.9-.5-1.6s.2-1,.5-1.4.7-.8,1.3-1c.6-.3,1.2-.4,1.9-.4,1.1,0,2,.3,2.7.8.7.6,1.1,1.3,1.1,2.3h-1.3c0-.6-.3-1.1-.7-1.5-.4-.4-1-.6-1.8-.6s-1.2.2-1.6.5c-.4.3-.6.7-.6,1.2s.1.7.4,1,.6.5.9.6c.4.1.9.3,1.5.5.7.2,1.3.4,1.8.6.4.2.8.5,1.1.8s.5.9.5,1.5c0,.6-.2,1.1-.5,1.5-.3.4-.7.8-1.3,1-.5.3-1.2.4-1.9.4-1.2,0-2.2-.3-2.9-.8Z"/>
    <path class="st4" d="M-3470.6-735.8v6.4c0,.6.1,1.1.4,1.3s.7.4,1.3.4h1.2v1.1h-1.4c-.9,0-1.6-.2-2.1-.7-.5-.4-.7-1.2-.7-2.2v-6.4h-1.4v-1.1h1.4v-2.6h1.3v2.6h2.8v1.1h-2.8Z"/>
    <path class="st4" d="M-3465.5-734.5c.4-.8,1-1.4,1.8-1.9.8-.4,1.6-.7,2.6-.7s1.8.2,2.6.7c.7.5,1.2,1,1.5,1.7v-2.3h1.3v10.4h-1.3v-2.3c-.3.7-.9,1.3-1.6,1.8-.7.5-1.6.7-2.6.7s-1.8-.2-2.5-.7c-.8-.4-1.3-1.1-1.8-1.9-.4-.8-.6-1.7-.6-2.8s.2-2,.6-2.8ZM-3457.6-733.9c-.3-.6-.8-1.1-1.4-1.5-.6-.3-1.2-.5-1.9-.5s-1.4.2-2,.5-1,.8-1.4,1.4c-.3.6-.5,1.4-.5,2.2s.2,1.6.5,2.2c.3.6.8,1.1,1.4,1.5.6.3,1.2.5,2,.5s1.4-.2,1.9-.5c.6-.3,1.1-.8,1.4-1.5.3-.6.5-1.4.5-2.2s-.2-1.6-.5-2.2Z"/>
    <path class="st4" d="M-3451-735.8v6.4c0,.6.1,1.1.4,1.3.2.2.7.4,1.3.4h1.2v1.1h-1.4c-.9,0-1.6-.2-2.1-.7-.5-.4-.7-1.2-.7-2.2v-6.4h-1.4v-1.1h1.4v-2.6h1.3v2.6h2.9v1.1h-2.9Z"/>
    <path class="st4" d="M-3436.6-731.2h-8.6c0,.8.2,1.5.6,2,.3.6.8,1,1.3,1.3.6.3,1.2.4,1.8.4s1.6-.2,2.2-.6,1-1,1.2-1.7h1.4c-.3,1-.8,1.8-1.6,2.5-.8.6-1.9,1-3.1,1s-1.8-.2-2.6-.7c-.8-.4-1.4-1.1-1.8-1.9-.4-.8-.7-1.7-.7-2.8s.2-2,.6-2.8c.4-.8,1-1.4,1.8-1.9s1.7-.6,2.6-.6,1.9.2,2.6.6,1.3,1,1.7,1.7c.4.7.6,1.5.6,2.4s0,.8,0,1ZM-3438.4-734.3c-.3-.5-.8-1-1.3-1.2-.6-.3-1.2-.4-1.8-.4-1,0-1.8.3-2.5,1-.7.6-1.1,1.5-1.2,2.7h7.3c0-.8-.1-1.4-.5-2Z"/>
    <path class="st4" d="M-3432.9-728.7l-2,5h-.9l1.4-5h1.5Z"/>
    <path class="st4" d="M-3424.4-727.5c-.7-1.8-1-3.8-1-6s.4-4.2,1.1-6.1c.7-1.9,1.7-3.4,3-4.6h1.4c-1.4,1.5-2.4,3.1-3.1,4.9-.7,1.8-1.1,3.8-1.1,5.8s.3,3.9,1,5.7c.7,1.8,1.7,3.4,2.9,4.7h0c0,.1-1.4.1-1.4.1-1.2-1.2-2.1-2.7-2.8-4.5Z"/>
    <path class="st4" d="M-3417.1-734.8c-.4-.5-.6-1.2-.6-2s.2-1.3.5-1.8c.3-.5.9-1,1.5-1.3.7-.3,1.5-.5,2.4-.5s1.7.2,2.4.5c.7.3,1.2.7,1.5,1.3.3.5.5,1.1.5,1.8s-.2,1.4-.6,2c-.4.6-1,1-1.8,1.2.9.2,1.5.6,2,1.2.5.6.7,1.3.7,2.2s-.2,1.5-.6,2.1c-.4.6-1,1.1-1.7,1.4s-1.6.5-2.5.5-1.8-.2-2.5-.5-1.3-.8-1.7-1.4c-.4-.6-.6-1.3-.6-2.1s.2-1.6.7-2.2c.5-.6,1.2-1,2-1.2-.8-.3-1.4-.7-1.8-1.2ZM-3415.8-732.3c-.7.5-1,1.2-1,2.1s.3,1.6,1,2.1c.6.5,1.5.8,2.6.8s1.9-.3,2.6-.8c.6-.5,1-1.2,1-2.1s-.3-1.6-1-2.1c-.7-.5-1.5-.7-2.5-.7s-1.9.2-2.5.7ZM-3410.9-738.6c-.6-.5-1.3-.7-2.3-.7s-1.7.2-2.3.7c-.6.4-.9,1.1-.9,1.9s.3,1.4.9,1.9c.6.5,1.3.7,2.3.7s1.7-.2,2.3-.7c.6-.5.9-1.1.9-1.9s-.3-1.5-.9-1.9Z"/>
    <path class="st4" d="M-3405.3-734.8c-.4-.5-.6-1.2-.6-2s.2-1.3.5-1.8c.3-.5.9-1,1.5-1.3.7-.3,1.5-.5,2.4-.5s1.7.2,2.4.5c.7.3,1.2.7,1.5,1.3s.5,1.1.5,1.8-.2,1.4-.6,2c-.4.6-1,1-1.8,1.2.9.2,1.5.6,2,1.2s.7,1.3.7,2.2-.2,1.5-.6,2.1-1,1.1-1.7,1.4-1.6.5-2.5.5-1.8-.2-2.5-.5c-.7-.3-1.3-.8-1.7-1.4s-.6-1.3-.6-2.1.2-1.6.7-2.2,1.2-1,2-1.2c-.8-.3-1.4-.7-1.8-1.2ZM-3404-732.3c-.7.5-1,1.2-1,2.1s.3,1.6,1,2.1c.6.5,1.5.8,2.6.8s1.9-.3,2.6-.8c.6-.5.9-1.2.9-2.1s-.3-1.6-1-2.1c-.7-.5-1.5-.7-2.5-.7s-1.9.2-2.5.7ZM-3399.1-738.6c-.6-.5-1.3-.7-2.3-.7s-1.7.2-2.3.7c-.6.4-.9,1.1-.9,1.9s.3,1.4.9,1.9c.6.5,1.3.7,2.3.7s1.7-.2,2.3-.7.9-1.1.9-1.9-.3-1.5-.9-1.9Z"/>
    <path class="st4" d="M-3393.4-734.8c-.4-.5-.6-1.2-.6-2s.2-1.3.5-1.8c.3-.5.9-1,1.5-1.3.7-.3,1.5-.5,2.4-.5s1.7.2,2.4.5c.7.3,1.2.7,1.5,1.3.3.5.5,1.1.5,1.8s-.2,1.4-.6,2c-.4.6-1,1-1.8,1.2.9.2,1.5.6,2,1.2.5.6.7,1.3.7,2.2s-.2,1.5-.6,2.1c-.4.6-1,1.1-1.7,1.4s-1.6.5-2.5.5-1.8-.2-2.5-.5-1.3-.8-1.7-1.4c-.4-.6-.6-1.3-.6-2.1s.2-1.6.7-2.2c.5-.6,1.2-1,2-1.2-.8-.3-1.4-.7-1.8-1.2ZM-3392.1-732.3c-.7.5-1,1.2-1,2.1s.3,1.6,1,2.1c.6.5,1.5.8,2.6.8s1.9-.3,2.6-.8c.6-.5,1-1.2,1-2.1s-.3-1.6-1-2.1c-.7-.5-1.5-.7-2.5-.7s-1.9.2-2.5.7ZM-3387.2-738.6c-.6-.5-1.3-.7-2.3-.7s-1.7.2-2.3.7c-.6.4-.9,1.1-.9,1.9s.3,1.4.9,1.9c.6.5,1.3.7,2.3.7s1.7-.2,2.3-.7c.6-.5.9-1.1.9-1.9s-.3-1.5-.9-1.9Z"/>
    <path class="st4" d="M-3382.7-723h0c1.3-1.5,2.3-3,2.9-4.8.7-1.8,1-3.7,1-5.7s-.4-4-1.1-5.8c-.7-1.8-1.7-3.4-3.1-4.8h0c0-.1,1.4-.1,1.4-.1,1.3,1.2,2.3,2.8,3,4.6.7,1.9,1.1,3.9,1.1,6.1s-.3,4.2-1,6c-.7,1.8-1.6,3.4-2.8,4.5h-1.4Z"/>
    <path class="st4" d="M-3366.5-728.3c.5.4,1.2.7,2,.7s2.1-.5,2.7-1.4c.6-.9.8-2.5.8-4.6-.2.7-.7,1.2-1.4,1.6-.7.4-1.5.6-2.3.6-1.3,0-2.4-.4-3.2-1.2-.8-.8-1.2-1.9-1.2-3.3s.2-1.6.5-2.3.8-1.2,1.5-1.6c.7-.4,1.5-.6,2.5-.6,1.8,0,3.1.6,3.8,1.8.7,1.2,1.1,2.9,1.1,5s-.4,4.1-1.1,5.3c-.7,1.2-1.9,1.8-3.6,1.8s-2.2-.3-2.9-1c-.7-.7-1.1-1.6-1.2-2.7h1.2c.1.8.5,1.5,1,1.9ZM-3362.9-732.9c.5-.2.9-.6,1.2-1.1.3-.5.5-1.1.5-1.7,0-1-.3-1.9-.9-2.6-.6-.7-1.4-1-2.5-1s-1.8.3-2.3.9c-.6.6-.9,1.4-.9,2.4s.3,1.9.9,2.5c.6.6,1.4.9,2.5.9s1.1-.1,1.6-.4Z"/>
    <path class="st4" d="M-3354.6-728.3c.5.4,1.2.7,2,.7s2.1-.5,2.7-1.4c.6-.9.8-2.5.8-4.6-.2.7-.7,1.2-1.4,1.6-.7.4-1.5.6-2.3.6-1.3,0-2.4-.4-3.2-1.2-.8-.8-1.2-1.9-1.2-3.3s.2-1.6.5-2.3.8-1.2,1.5-1.6c.7-.4,1.5-.6,2.5-.6,1.8,0,3.1.6,3.8,1.8.7,1.2,1.1,2.9,1.1,5s-.4,4.1-1.1,5.3c-.7,1.2-1.9,1.8-3.6,1.8s-2.2-.3-2.9-1c-.7-.7-1.1-1.6-1.2-2.7h1.2c.1.8.5,1.5,1,1.9ZM-3351-732.9c.5-.2.9-.6,1.2-1.1.3-.5.5-1.1.5-1.7,0-1-.3-1.9-.9-2.6-.6-.7-1.4-1-2.5-1s-1.8.3-2.3.9c-.6.6-.9,1.4-.9,2.4s.3,1.9.9,2.5c.6.6,1.4.9,2.5.9s1.1-.1,1.6-.4Z"/>
    <path class="st4" d="M-3346.1-739v-1.2h3.2v13.6h-1.3v-12.4h-1.9Z"/>
    <path class="st4" d="M-3333.2-734.1v1.1h-7.4v-1.1h7.4Z"/>
    <path class="st4" d="M-3330.6-729.8v-1l6.9-9.3h1.6v9.2h2v1.2h-2v3.2h-1.3v-3.2h-7.2ZM-3323.4-738.6l-5.7,7.7h5.7v-7.7Z"/>
    <path class="st4" d="M-3319-729.8v-1l6.9-9.3h1.6v9.2h2v1.2h-2v3.2h-1.3v-3.2h-7.2ZM-3311.7-738.6l-5.7,7.7h5.7v-7.7Z"/>
    <path class="st4" d="M-3304-728.3c.5.4,1.2.7,2,.7s2.1-.5,2.7-1.4c.6-.9.8-2.5.8-4.6-.2.7-.7,1.2-1.4,1.6-.7.4-1.5.6-2.3.6-1.3,0-2.4-.4-3.2-1.2s-1.2-1.9-1.2-3.3.2-1.6.5-2.3c.3-.7.8-1.2,1.5-1.6.7-.4,1.5-.6,2.5-.6,1.8,0,3.1.6,3.8,1.8s1.1,2.9,1.1,5-.4,4.1-1.1,5.3c-.7,1.2-1.9,1.8-3.6,1.8s-2.2-.3-2.9-1c-.7-.7-1.1-1.6-1.2-2.7h1.2c.1.8.5,1.5,1,1.9ZM-3300.4-732.9c.5-.2.9-.6,1.2-1.1s.5-1.1.5-1.7c0-1-.3-1.9-.9-2.6-.6-.7-1.4-1-2.5-1s-1.8.3-2.3.9-.9,1.4-.9,2.4.3,1.9.9,2.5c.6.6,1.4.9,2.5.9s1.1-.1,1.6-.4Z"/>
    <path class="st4" d="M-3289.9-739.3c-1.2,0-2.2.5-2.8,1.4-.6,1-.9,2.5-.9,4.7.3-.8.7-1.4,1.5-1.8.7-.4,1.5-.7,2.5-.7,1.3,0,2.4.4,3.2,1.2.8.8,1.2,1.9,1.2,3.4s-.2,1.6-.5,2.3c-.3.7-.8,1.2-1.5,1.6s-1.5.6-2.5.6c-1.9,0-3.2-.6-3.9-1.8s-1.1-2.9-1.1-5.1c0-4.7,1.6-7,4.8-7s2.2.3,2.9,1c.7.7,1.1,1.5,1.2,2.6h-1.2c-.3-1.6-1.2-2.5-2.9-2.5ZM-3291.6-734.1c-.5.2-1,.6-1.3,1.1s-.5,1.1-.5,1.8c0,1,.3,1.9.9,2.6.6.7,1.5,1,2.7,1s1.8-.3,2.3-.9c.6-.6.9-1.4.9-2.4s-.3-2-.9-2.6c-.6-.6-1.4-.9-2.4-.9s-1.2.1-1.7.4Z"/>
    <path class="st4" d="M-3283.1-726.7c-.2-.2-.3-.4-.3-.7s0-.5.3-.7c.2-.2.4-.3.7-.3s.5,0,.7.3c.2.2.3.4.3.7s0,.5-.3.7c-.2.2-.4.3-.7.3s-.5,0-.7-.3Z"/>
    <path class="st4" d="M-3265.9-732.2c.5.6.8,1.3.8,2.2s-.2,1.3-.5,1.8-.8,1-1.5,1.3c-.6.3-1.4.5-2.3.5h-4.6v-13.3h4.5c1.3,0,2.4.3,3.1.9.7.6,1.1,1.4,1.1,2.4s-.2,1.5-.7,2-1,.9-1.7,1.1c.7.1,1.4.5,1.9,1.1ZM-3272.6-733.9h3.1c.9,0,1.6-.2,2.1-.6.5-.4.7-1,.7-1.8s-.2-1.3-.7-1.7c-.5-.4-1.2-.6-2.1-.6h-3v4.8ZM-3267.2-728.3c.5-.5.8-1.1.8-1.9s-.3-1.4-.8-1.9c-.6-.5-1.3-.7-2.3-.7h-3.1v5.2h3.2c1,0,1.7-.2,2.3-.7Z"/>
    <path class="st4" d="M-3254.1-736.9l-6.2,15.3h-1.4l2-4.9-4.3-10.3h1.5l3.5,8.9,3.4-8.9h1.4Z"/>
    <path class="st4" d="M-3245.3-735.8v6.4c0,.6.1,1.1.4,1.3s.7.4,1.3.4h1.2v1.1h-1.4c-.9,0-1.6-.2-2.1-.7-.5-.4-.7-1.2-.7-2.2v-6.4h-1.4v-1.1h1.4v-2.6h1.3v2.6h2.8v1.1h-2.8Z"/>
    <path class="st4" d="M-3231-731.2h-8.6c0,.8.2,1.5.6,2,.3.6.8,1,1.3,1.3s1.2.4,1.8.4,1.6-.2,2.2-.6c.6-.4,1-1,1.2-1.7h1.4c-.3,1-.8,1.8-1.6,2.5-.8.6-1.9,1-3.1,1s-1.8-.2-2.6-.7c-.8-.4-1.4-1.1-1.8-1.9-.4-.8-.7-1.7-.7-2.8s.2-2,.6-2.8,1-1.4,1.8-1.9,1.7-.6,2.6-.6,1.9.2,2.6.6c.7.4,1.3,1,1.7,1.7.4.7.6,1.5.6,2.4s0,.8,0,1ZM-3232.7-734.3c-.3-.5-.8-1-1.3-1.2s-1.2-.4-1.8-.4c-1,0-1.8.3-2.5,1-.7.6-1.1,1.5-1.2,2.7h7.3c0-.8-.1-1.4-.5-2Z"/>
    <path class="st4" d="M-3223.1-726.5l-2.7-4.2-2.6,4.2h-1.4l3.3-5.2-3.3-5.2h1.5l2.6,4.1,2.6-4.1h1.4l-3.3,5.1,3.3,5.2h-1.5Z"/>
    <path class="st4" d="M-3218-735.8v6.4c0,.6.1,1.1.4,1.3s.7.4,1.3.4h1.2v1.1h-1.4c-.9,0-1.6-.2-2.1-.7-.5-.4-.7-1.2-.7-2.2v-6.4h-1.4v-1.1h1.4v-2.6h1.3v2.6h2.8v1.1h-2.8Z"/>
    <path class="st4" d="M-3213-739.1c-.2-.2-.3-.4-.3-.7s0-.5.3-.7c.2-.2.4-.3.7-.3s.5,0,.7.3c.2.2.3.4.3.7s0,.5-.3.7-.4.3-.7.3-.5,0-.7-.3ZM-3211.7-736.9v10.4h-1.3v-10.4h1.3Z"/>
    <path class="st4" d="M-3200.7-735.9c.8.8,1.2,1.9,1.2,3.3v6.1h-1.3v-5.9c0-1.1-.3-2-.8-2.6s-1.3-.9-2.3-.9-1.8.3-2.4,1c-.6.6-.9,1.6-.9,2.8v5.7h-1.3v-10.4h1.3v1.8c.3-.6.8-1.1,1.4-1.5.6-.3,1.3-.5,2.1-.5,1.2,0,2.3.4,3,1.2Z"/>
    <path class="st4" d="M-3189.7-736.4c.7.5,1.2,1,1.6,1.7v-2.3h1.3v10.6c0,1-.2,1.8-.6,2.5-.4.7-1,1.3-1.7,1.7-.7.4-1.6.6-2.5.6-1.3,0-2.4-.3-3.3-1-.9-.6-1.4-1.5-1.6-2.6h1.3c.2.7.7,1.3,1.3,1.7s1.4.6,2.3.6,1.3-.1,1.8-.4c.5-.3.9-.7,1.3-1.3.3-.6.5-1.2.5-2v-2.6c-.3.7-.9,1.3-1.6,1.8-.7.5-1.6.7-2.5.7s-1.8-.2-2.6-.7-1.3-1.1-1.8-1.9c-.4-.8-.6-1.7-.6-2.8s.2-2,.6-2.8c.4-.8,1-1.4,1.8-1.9.8-.4,1.6-.7,2.6-.7s1.8.2,2.5.7ZM-3188.7-733.9c-.3-.6-.8-1.1-1.4-1.5-.6-.3-1.2-.5-1.9-.5s-1.4.2-2,.5c-.6.3-1,.8-1.4,1.4s-.5,1.4-.5,2.2.2,1.6.5,2.2.8,1.1,1.4,1.5c.6.3,1.2.5,2,.5s1.4-.2,1.9-.5c.6-.3,1.1-.8,1.4-1.5.3-.6.5-1.4.5-2.2s-.2-1.6-.5-2.2Z"/>
    <path class="st4" d="M-3176.9-735.8v6.4c0,.6.1,1.1.4,1.3.2.2.7.4,1.3.4h1.2v1.1h-1.4c-.9,0-1.6-.2-2.1-.7-.5-.4-.7-1.2-.7-2.2v-6.4h-1.4v-1.1h1.4v-2.6h1.3v2.6h2.9v1.1h-2.9Z"/>
    <path class="st4" d="M-3164.8-736.6c.6.3,1.1.8,1.5,1.5.4.7.5,1.5.5,2.5v6.1h-1.3v-5.9c0-1.1-.3-2-.8-2.6s-1.3-.9-2.3-.9-1.8.3-2.4,1c-.6.6-.9,1.6-.9,2.8v5.7h-1.3v-14.1h1.3v5.5c.3-.6.8-1.1,1.5-1.4s1.4-.5,2.2-.5,1.5.2,2.1.5Z"/>
    <path class="st4" d="M-3150.4-731.2h-8.6c0,.8.2,1.5.6,2,.3.6.8,1,1.3,1.3s1.2.4,1.8.4,1.6-.2,2.2-.6c.6-.4,1-1,1.2-1.7h1.4c-.3,1-.8,1.8-1.6,2.5-.8.6-1.9,1-3.1,1s-1.8-.2-2.6-.7c-.8-.4-1.4-1.1-1.8-1.9-.4-.8-.7-1.7-.7-2.8s.2-2,.6-2.8,1-1.4,1.8-1.9,1.7-.6,2.6-.6,1.9.2,2.6.6c.7.4,1.3,1,1.7,1.7.4.7.6,1.5.6,2.4s0,.8,0,1ZM-3152.2-734.3c-.3-.5-.8-1-1.3-1.2s-1.2-.4-1.8-.4c-1,0-1.8.3-2.5,1-.7.6-1.1,1.5-1.2,2.7h7.3c0-.8-.1-1.4-.5-2Z"/>
    <path class="st4" d="M-3134.9-735.9c.8.8,1.2,1.9,1.2,3.3v6.1h-1.3v-5.9c0-1.1-.3-2-.8-2.6-.6-.6-1.3-.9-2.3-.9s-1.8.3-2.4,1c-.6.6-.9,1.6-.9,2.8v5.7h-1.3v-10.4h1.3v1.8c.3-.6.8-1.1,1.4-1.5.6-.3,1.3-.5,2.1-.5,1.2,0,2.3.4,3,1.2Z"/>
    <path class="st4" d="M-3121.8-736.9v10.4h-1.3v-1.8c-.3.6-.8,1.1-1.4,1.5-.6.3-1.3.5-2.1.5-1.2,0-2.3-.4-3-1.1-.8-.8-1.2-1.9-1.2-3.3v-6.1h1.3v5.9c0,1.1.3,2,.8,2.6s1.3.9,2.3.9,1.8-.3,2.4-1c.6-.6.9-1.6.9-2.8v-5.6h1.3Z"/>
    <path class="st4" d="M-3103.4-735.9c.8.8,1.1,1.9,1.1,3.3v6.1h-1.3v-5.9c0-1.1-.3-2-.8-2.6-.5-.6-1.3-.9-2.2-.9s-1.8.3-2.3,1c-.6.6-.9,1.6-.9,2.8v5.6h-1.3v-5.9c0-1.1-.3-2-.8-2.6s-1.3-.9-2.2-.9-1.8.3-2.3,1c-.6.6-.9,1.6-.9,2.8v5.6h-1.3v-10.4h1.3v1.8c.3-.6.8-1.1,1.4-1.5.6-.3,1.3-.5,2-.5s1.7.2,2.4.6,1.2,1.1,1.5,1.9c.3-.8.8-1.5,1.4-1.9.7-.4,1.4-.7,2.3-.7s2.2.4,3,1.2Z"/>
    <path class="st4" d="M-3096.4-736.4c.7-.5,1.6-.7,2.5-.7s1.8.2,2.5.7c.7.4,1.3,1.1,1.8,1.9.4.8.6,1.7.6,2.8s-.2,2-.6,2.8c-.4.8-1,1.4-1.8,1.9s-1.6.7-2.5.7-1.8-.2-2.6-.7c-.7-.4-1.2-1-1.6-1.8v2.3h-1.3v-14.1h1.3v6c.3-.7.9-1.3,1.6-1.8ZM-3090.8-734c-.3-.6-.8-1.1-1.4-1.4-.6-.3-1.2-.5-2-.5s-1.4.2-1.9.5c-.6.3-1.1.8-1.4,1.5-.3.6-.5,1.4-.5,2.2s.2,1.6.5,2.2c.3.6.8,1.1,1.4,1.5.6.3,1.2.5,1.9.5s1.4-.2,2-.5c.6-.3,1-.8,1.4-1.5.3-.6.5-1.4.5-2.2s-.2-1.6-.5-2.2Z"/>
    <path class="st4" d="M-3077.1-731.2h-8.6c0,.8.2,1.5.6,2,.3.6.8,1,1.3,1.3s1.2.4,1.8.4,1.6-.2,2.2-.6,1-1,1.2-1.7h1.4c-.3,1-.8,1.8-1.6,2.5-.8.6-1.9,1-3.1,1s-1.8-.2-2.6-.7c-.8-.4-1.4-1.1-1.8-1.9-.4-.8-.7-1.7-.7-2.8s.2-2,.6-2.8,1-1.4,1.8-1.9c.8-.4,1.7-.6,2.6-.6s1.9.2,2.6.6,1.3,1,1.7,1.7c.4.7.6,1.5.6,2.4s0,.8,0,1ZM-3078.9-734.3c-.3-.5-.8-1-1.3-1.2-.6-.3-1.2-.4-1.8-.4-1,0-1.8.3-2.5,1-.7.6-1.1,1.5-1.2,2.7h7.3c0-.8-.1-1.4-.5-2Z"/>
    <path class="st4" d="M-3072-736.6c.6-.4,1.3-.5,2.2-.5v1.4h-.4c-1,0-1.7.3-2.3.8-.6.5-.9,1.4-.9,2.6v5.8h-1.3v-10.4h1.3v1.8c.3-.6.7-1.1,1.3-1.5Z"/>
    <path class="st4" d="M-3062.5-734.5c.4-.8,1-1.4,1.8-1.9.8-.4,1.6-.7,2.6-.7s1.8.2,2.6.7c.7.5,1.2,1,1.5,1.7v-2.3h1.3v10.4h-1.3v-2.3c-.3.7-.9,1.3-1.6,1.8-.7.5-1.6.7-2.6.7s-1.8-.2-2.5-.7-1.3-1.1-1.8-1.9c-.4-.8-.6-1.7-.6-2.8s.2-2,.6-2.8ZM-3054.6-733.9c-.3-.6-.8-1.1-1.4-1.5-.6-.3-1.2-.5-1.9-.5s-1.4.2-2,.5c-.6.3-1,.8-1.4,1.4-.3.6-.5,1.4-.5,2.2s.2,1.6.5,2.2c.3.6.8,1.1,1.4,1.5.6.3,1.2.5,2,.5s1.4-.2,1.9-.5c.6-.3,1.1-.8,1.4-1.5.3-.6.5-1.4.5-2.2s-.2-1.6-.5-2.2Z"/>
    <path class="st4" d="M-3046.8-736.4c.7-.5,1.6-.7,2.5-.7s1.8.2,2.5.7c.7.4,1.3,1.1,1.8,1.9.4.8.6,1.7.6,2.8s-.2,2-.6,2.8c-.4.8-1,1.4-1.8,1.9s-1.6.7-2.5.7-1.8-.2-2.6-.7c-.7-.4-1.2-1-1.6-1.8v2.3h-1.3v-14.1h1.3v6c.3-.7.9-1.3,1.6-1.8ZM-3041.2-734c-.3-.6-.8-1.1-1.4-1.4-.6-.3-1.2-.5-2-.5s-1.4.2-1.9.5c-.6.3-1.1.8-1.4,1.5-.3.6-.5,1.4-.5,2.2s.2,1.6.5,2.2c.3.6.8,1.1,1.4,1.5.6.3,1.2.5,1.9.5s1.4-.2,2-.5c.6-.3,1-.8,1.4-1.5.3-.6.5-1.4.5-2.2s-.2-1.6-.5-2.2Z"/>
    <path class="st4" d="M-3035-727c-.8-.4-1.4-1.1-1.8-1.9-.5-.8-.7-1.7-.7-2.8s.2-2,.7-2.8c.5-.8,1.1-1.4,1.9-1.9.8-.4,1.7-.7,2.6-.7s1.9.2,2.7.7c.8.4,1.4,1.1,1.9,1.9.4.8.7,1.7.7,2.8s-.2,2-.7,2.8c-.5.8-1.1,1.4-1.9,1.9-.8.4-1.7.7-2.7.7s-1.9-.2-2.6-.7ZM-3030.5-728c.6-.3,1.1-.8,1.4-1.4.4-.6.5-1.4.5-2.3s-.2-1.7-.5-2.3-.8-1.1-1.4-1.4c-.6-.3-1.2-.5-1.9-.5s-1.3.2-1.9.5c-.6.3-1,.8-1.4,1.4s-.5,1.4-.5,2.3.2,1.7.5,2.3.8,1.1,1.4,1.4c.6.3,1.2.5,1.9.5s1.3-.2,1.9-.5Z"/>
    <path class="st4" d="M-3021-727.8l3.5-9.1h1.4l-4.2,10.4h-1.5l-4.2-10.4h1.4l3.5,9.1Z"/>
    <path class="st4" d="M-3005-731.2h-8.6c0,.8.2,1.5.6,2,.3.6.8,1,1.3,1.3s1.2.4,1.8.4,1.6-.2,2.2-.6,1-1,1.2-1.7h1.4c-.3,1-.8,1.8-1.6,2.5-.8.6-1.9,1-3.1,1s-1.8-.2-2.6-.7c-.8-.4-1.4-1.1-1.8-1.9-.4-.8-.7-1.7-.7-2.8s.2-2,.6-2.8,1-1.4,1.8-1.9c.8-.4,1.7-.6,2.6-.6s1.9.2,2.6.6,1.3,1,1.7,1.7c.4.7.6,1.5.6,2.4s0,.8,0,1ZM-3006.8-734.3c-.3-.5-.8-1-1.3-1.2-.6-.3-1.2-.4-1.8-.4-1,0-1.8.3-2.5,1-.7.6-1.1,1.5-1.2,2.7h7.3c0-.8-.1-1.4-.5-2Z"/>
    <path class="st4" d="M-3001.3-728.7l-2,5h-.9l1.4-5h1.5Z"/>
    <path class="st4" d="M-2992.7-739.8v13.3h-1.3v-13.3h1.3Z"/>
    <path class="st4" d="M-2975.1-731.2h-8.6c0,.8.2,1.5.6,2,.3.6.8,1,1.3,1.3s1.2.4,1.8.4,1.6-.2,2.2-.6,1-1,1.2-1.7h1.4c-.3,1-.8,1.8-1.6,2.5-.8.6-1.9,1-3.1,1s-1.8-.2-2.6-.7c-.8-.4-1.4-1.1-1.8-1.9-.4-.8-.7-1.7-.7-2.8s.2-2,.6-2.8,1-1.4,1.8-1.9c.8-.4,1.7-.6,2.6-.6s1.9.2,2.6.6,1.3,1,1.7,1.7c.4.7.6,1.5.6,2.4s0,.8,0,1ZM-2976.9-734.3c-.3-.5-.8-1-1.3-1.2-.6-.3-1.2-.4-1.8-.4-1,0-1.8.3-2.5,1-.7.6-1.1,1.5-1.2,2.7h7.3c0-.8-.1-1.4-.5-2Z"/>
    <path class="st4" d="M-2967.2-726.5l-2.7-4.2-2.6,4.2h-1.4l3.3-5.2-3.3-5.2h1.5l2.6,4.1,2.6-4.1h1.4l-3.3,5.1,3.3,5.2h-1.5Z"/>
    <path class="st4" d="M-2957.5-734.1v1.1h-7.4v-1.1h7.4Z"/>
    <path class="st4" d="M-3687.2-713.6c.7-.5,1.6-.7,2.6-.7s1.8.2,2.5.7c.8.4,1.3,1.1,1.8,1.9.4.8.6,1.7.6,2.8s-.2,2-.6,2.8c-.4.8-1,1.4-1.8,1.9-.8.4-1.6.7-2.5.7s-1.8-.2-2.5-.7c-.7-.5-1.2-1-1.6-1.7v7.2h-1.3v-15.3h1.3v2.3c.3-.7.9-1.3,1.6-1.7ZM-3681.6-711.2c-.3-.6-.8-1.1-1.4-1.4s-1.2-.5-2-.5-1.4.2-1.9.5c-.6.3-1.1.8-1.4,1.5-.3.6-.5,1.4-.5,2.2s.2,1.6.5,2.2c.3.6.8,1.1,1.4,1.5.6.3,1.2.5,1.9.5s1.4-.2,2-.5c.6-.3,1-.8,1.4-1.5.3-.6.5-1.4.5-2.2s-.2-1.6-.5-2.2Z"/>
    <path class="st4" d="M-3674.6-713.8c.6-.4,1.3-.5,2.2-.5v1.4h-.4c-1,0-1.7.3-2.3.8-.6.5-.9,1.4-.9,2.6v5.8h-1.3v-10.4h1.3v1.8c.3-.6.7-1.1,1.3-1.5Z"/>
    <path class="st4" d="M-3661.1-708.4h-8.6c0,.8.2,1.5.6,2,.3.6.8,1,1.3,1.3s1.2.4,1.8.4,1.6-.2,2.2-.6c.6-.4,1-1,1.2-1.7h1.4c-.3,1-.8,1.8-1.6,2.5-.8.6-1.9,1-3.1,1s-1.8-.2-2.6-.7c-.8-.4-1.4-1.1-1.8-1.9-.4-.8-.7-1.7-.7-2.8s.2-2,.6-2.8,1-1.4,1.8-1.9,1.7-.6,2.6-.6,1.9.2,2.6.6c.7.4,1.3,1,1.7,1.7.4.7.6,1.5.6,2.4s0,.8,0,1ZM-3662.9-711.5c-.3-.5-.8-1-1.3-1.2s-1.2-.4-1.8-.4c-1,0-1.8.3-2.5,1-.7.6-1.1,1.5-1.2,2.7h7.3c0-.8-.1-1.4-.5-2Z"/>
    <path class="st4" d="M-3657.9-704.4c-.8-.6-1.2-1.3-1.3-2.3h1.4c0,.6.3,1.1.8,1.4.5.4,1.1.5,2,.5s1.3-.2,1.7-.5c.4-.3.6-.8.6-1.3s-.1-.6-.3-.9c-.2-.2-.5-.4-.9-.5-.3-.1-.8-.3-1.4-.4-.8-.2-1.4-.4-1.9-.6-.5-.2-.9-.5-1.2-.9-.3-.4-.5-.9-.5-1.6s.2-1,.5-1.4.7-.8,1.3-1c.6-.3,1.2-.4,1.9-.4,1.1,0,2,.3,2.7.8.7.6,1.1,1.3,1.1,2.3h-1.3c0-.6-.3-1.1-.7-1.5-.4-.4-1-.6-1.8-.6s-1.2.2-1.6.5c-.4.3-.6.7-.6,1.2s.1.7.4,1,.6.5.9.6c.4.1.9.3,1.5.5.7.2,1.3.4,1.8.6.4.2.8.5,1.1.8s.5.9.5,1.5c0,.6-.2,1.1-.5,1.5-.3.4-.7.8-1.3,1-.5.3-1.2.4-1.9.4-1.2,0-2.2-.3-2.9-.8Z"/>
    <path class="st4" d="M-3648.3-704.4c-.8-.6-1.2-1.3-1.3-2.3h1.4c0,.6.3,1.1.8,1.4.5.4,1.1.5,2,.5s1.3-.2,1.7-.5c.4-.3.6-.8.6-1.3s-.1-.6-.3-.9-.5-.4-.9-.5c-.3-.1-.8-.3-1.4-.4-.8-.2-1.4-.4-1.9-.6-.5-.2-.9-.5-1.2-.9-.3-.4-.5-.9-.5-1.6s.2-1,.5-1.4c.3-.4.7-.8,1.3-1,.6-.3,1.2-.4,1.9-.4,1.1,0,2,.3,2.7.8.7.6,1.1,1.3,1.1,2.3h-1.3c0-.6-.3-1.1-.7-1.5-.4-.4-1-.6-1.8-.6s-1.2.2-1.6.5c-.4.3-.6.7-.6,1.2s.1.7.4,1,.6.5.9.6c.4.1.9.3,1.5.5.7.2,1.3.4,1.8.6.4.2.8.5,1.1.8.3.4.5.9.5,1.5,0,.6-.2,1.1-.5,1.5-.3.4-.7.8-1.3,1-.5.3-1.2.4-1.9.4-1.2,0-2.2-.3-2.9-.8Z"/>
    <path class="st4" d="M-3637.9-717.8v14.1h-1.3v-14.1h1.3Z"/>
    <path class="st4" d="M-3626.3-714.1l-6.2,15.3h-1.4l2-4.9-4.3-10.3h1.5l3.5,8.9,3.4-8.9h1.4Z"/>
    <path class="st4" d="M-3619.3-711.7c.4-.8,1-1.4,1.8-1.9.8-.4,1.6-.7,2.6-.7s2.3.3,3.2,1c.8.6,1.4,1.5,1.6,2.6h-1.4c-.2-.7-.6-1.3-1.1-1.8-.6-.4-1.3-.6-2.2-.6s-1.3.2-1.9.5c-.6.3-1,.8-1.3,1.4-.3.6-.5,1.4-.5,2.3s.2,1.7.5,2.3c.3.6.8,1.1,1.3,1.4.6.3,1.2.5,1.9.5s1.6-.2,2.2-.6c.6-.4,1-1,1.1-1.8h1.4c-.2,1.1-.8,1.9-1.6,2.6-.8.6-1.9,1-3.2,1s-1.8-.2-2.6-.7c-.8-.4-1.4-1.1-1.8-1.9-.4-.8-.6-1.7-.6-2.8s.2-2,.6-2.8Z"/>
    <path class="st4" d="M-3605.8-704.2c-.8-.4-1.4-1.1-1.8-1.9-.4-.8-.7-1.7-.7-2.8s.2-2,.7-2.8c.5-.8,1.1-1.4,1.9-1.9.8-.4,1.7-.7,2.6-.7s1.9.2,2.7.7c.8.4,1.4,1.1,1.9,1.9.4.8.7,1.7.7,2.8s-.2,2-.7,2.8-1.1,1.4-1.9,1.9c-.8.4-1.7.7-2.7.7s-1.9-.2-2.6-.7ZM-3601.2-705.2c.6-.3,1.1-.8,1.4-1.4.4-.6.5-1.4.5-2.3s-.2-1.7-.5-2.3-.8-1.1-1.4-1.4c-.6-.3-1.2-.5-1.9-.5s-1.3.2-1.9.5-1,.8-1.4,1.4-.5,1.4-.5,2.3.2,1.7.5,2.3.8,1.1,1.4,1.4,1.2.5,1.9.5,1.3-.2,1.9-.5Z"/>
    <path class="st4" d="M-3587.6-713.1c.8.8,1.2,1.9,1.2,3.3v6.1h-1.3v-5.9c0-1.1-.3-2-.8-2.6s-1.3-.9-2.3-.9-1.8.3-2.4,1c-.6.6-.9,1.6-.9,2.8v5.7h-1.3v-10.4h1.3v1.8c.3-.6.8-1.1,1.4-1.5.6-.3,1.3-.5,2.1-.5,1.2,0,2.3.4,3,1.2Z"/>
    <path class="st4" d="M-3582.8-704.4c-.8-.6-1.2-1.3-1.3-2.3h1.4c0,.6.3,1.1.8,1.4.5.4,1.1.5,2,.5s1.3-.2,1.7-.5c.4-.3.6-.8.6-1.3s-.1-.6-.3-.9-.5-.4-.9-.5c-.3-.1-.8-.3-1.4-.4-.8-.2-1.4-.4-1.9-.6-.5-.2-.9-.5-1.2-.9-.3-.4-.5-.9-.5-1.6s.2-1,.5-1.4c.3-.4.7-.8,1.3-1,.6-.3,1.2-.4,1.9-.4,1.1,0,2,.3,2.7.8.7.6,1.1,1.3,1.1,2.3h-1.3c0-.6-.3-1.1-.7-1.5-.4-.4-1-.6-1.8-.6s-1.2.2-1.6.5c-.4.3-.6.7-.6,1.2s.1.7.4,1,.6.5.9.6c.4.1.9.3,1.5.5.7.2,1.3.4,1.8.6.4.2.8.5,1.1.8.3.4.5.9.5,1.5,0,.6-.2,1.1-.5,1.5-.3.4-.7.8-1.3,1-.5.3-1.2.4-1.9.4-1.2,0-2.2-.3-2.9-.8Z"/>
    <path class="st4" d="M-3564.4-708.4h-8.6c0,.8.2,1.5.6,2,.3.6.8,1,1.3,1.3.6.3,1.2.4,1.8.4s1.6-.2,2.2-.6,1-1,1.2-1.7h1.4c-.3,1-.8,1.8-1.6,2.5-.8.6-1.9,1-3.1,1s-1.8-.2-2.6-.7c-.8-.4-1.4-1.1-1.8-1.9-.4-.8-.7-1.7-.7-2.8s.2-2,.6-2.8c.4-.8,1-1.4,1.8-1.9s1.7-.6,2.6-.6,1.9.2,2.6.6,1.3,1,1.7,1.7c.4.7.6,1.5.6,2.4s0,.8,0,1ZM-3566.2-711.5c-.3-.5-.8-1-1.3-1.2-.6-.3-1.2-.4-1.8-.4-1,0-1.8.3-2.5,1-.7.6-1.1,1.5-1.2,2.7h7.3c0-.8-.1-1.4-.5-2Z"/>
    <path class="st4" d="M-3554-713.1c.8.8,1.2,1.9,1.2,3.3v6.1h-1.3v-5.9c0-1.1-.3-2-.8-2.6s-1.3-.9-2.3-.9-1.8.3-2.4,1c-.6.6-.9,1.6-.9,2.8v5.7h-1.3v-10.4h1.3v1.8c.3-.6.8-1.1,1.4-1.5.6-.3,1.3-.5,2.1-.5,1.2,0,2.3.4,3,1.2Z"/>
    <path class="st4" d="M-3548.2-713v6.4c0,.6.1,1.1.4,1.3.2.2.7.4,1.3.4h1.2v1.1h-1.4c-.9,0-1.6-.2-2.1-.7-.5-.4-.7-1.2-.7-2.2v-6.4h-1.4v-1.1h1.4v-2.6h1.3v2.6h2.9v1.1h-2.9Z"/>
    <path class="st4" d="M-3536.2-713v6.4c0,.6.1,1.1.4,1.3s.7.4,1.3.4h1.2v1.1h-1.4c-.9,0-1.6-.2-2.1-.7-.5-.4-.7-1.2-.7-2.2v-6.4h-1.4v-1.1h1.4v-2.6h1.3v2.6h2.8v1.1h-2.8Z"/>
    <path class="st4" d="M-3529.3-704.2c-.8-.4-1.4-1.1-1.8-1.9-.4-.8-.7-1.7-.7-2.8s.2-2,.7-2.8c.5-.8,1.1-1.4,1.9-1.9.8-.4,1.7-.7,2.6-.7s1.9.2,2.7.7c.8.4,1.4,1.1,1.9,1.9.4.8.7,1.7.7,2.8s-.2,2-.7,2.8-1.1,1.4-1.9,1.9c-.8.4-1.7.7-2.7.7s-1.9-.2-2.6-.7ZM-3524.7-705.2c.6-.3,1.1-.8,1.4-1.4.4-.6.5-1.4.5-2.3s-.2-1.7-.5-2.3-.8-1.1-1.4-1.4c-.6-.3-1.2-.5-1.9-.5s-1.3.2-1.9.5-1,.8-1.4,1.4-.5,1.4-.5,2.3.2,1.7.5,2.3.8,1.1,1.4,1.4,1.2.5,1.9.5,1.3-.2,1.9-.5Z"/>
    <path class="st4" d="M-3506.1-706.9h-6l-1.2,3.2h-1.4l4.8-13.1h1.5l4.8,13.1h-1.4l-1.2-3.2ZM-3506.5-708l-2.6-7.2-2.6,7.2h5.2Z"/>
    <path class="st4" d="M-3498.5-713.6c.7-.5,1.6-.7,2.6-.7s1.8.2,2.5.7c.8.4,1.3,1.1,1.8,1.9.4.8.6,1.7.6,2.8s-.2,2-.6,2.8c-.4.8-1,1.4-1.8,1.9s-1.6.7-2.5.7-1.8-.2-2.5-.7c-.7-.5-1.2-1-1.6-1.7v7.2h-1.3v-15.3h1.3v2.3c.3-.7.9-1.3,1.6-1.7ZM-3492.9-711.2c-.3-.6-.8-1.1-1.4-1.4-.6-.3-1.2-.5-2-.5s-1.4.2-1.9.5c-.6.3-1.1.8-1.4,1.5-.3.6-.5,1.4-.5,2.2s.2,1.6.5,2.2c.3.6.8,1.1,1.4,1.5.6.3,1.2.5,1.9.5s1.4-.2,2-.5c.6-.3,1-.8,1.4-1.5s.5-1.4.5-2.2-.2-1.6-.5-2.2Z"/>
    <path class="st4" d="M-3479.2-708.4h-8.6c0,.8.2,1.5.6,2,.3.6.8,1,1.3,1.3.6.3,1.2.4,1.8.4s1.6-.2,2.2-.6,1-1,1.2-1.7h1.4c-.3,1-.8,1.8-1.6,2.5-.8.6-1.9,1-3.1,1s-1.8-.2-2.6-.7c-.8-.4-1.4-1.1-1.8-1.9-.4-.8-.7-1.7-.7-2.8s.2-2,.6-2.8c.4-.8,1-1.4,1.8-1.9s1.7-.6,2.6-.6,1.9.2,2.6.6,1.3,1,1.7,1.7c.4.7.6,1.5.6,2.4s0,.8,0,1ZM-3481-711.5c-.3-.5-.8-1-1.3-1.2-.6-.3-1.2-.4-1.8-.4-1,0-1.8.3-2.5,1-.7.6-1.1,1.5-1.2,2.7h7.3c0-.8-.1-1.4-.5-2Z"/>
    <path class="st4" d="M-3474.1-713.8c.6-.4,1.3-.5,2.2-.5v1.4h-.4c-1,0-1.7.3-2.3.8-.6.5-.9,1.4-.9,2.6v5.8h-1.3v-10.4h1.3v1.8c.3-.6.7-1.1,1.3-1.5Z"/>
    <path class="st4" d="M-3468.1-713v6.4c0,.6.1,1.1.4,1.3s.7.4,1.3.4h1.2v1.1h-1.4c-.9,0-1.6-.2-2.1-.7-.5-.4-.7-1.2-.7-2.2v-6.4h-1.4v-1.1h1.4v-2.6h1.3v2.6h2.8v1.1h-2.8Z"/>
    <path class="st4" d="M-3454.1-714.1v10.4h-1.3v-1.8c-.3.6-.8,1.1-1.4,1.5-.6.3-1.3.5-2.1.5-1.2,0-2.3-.4-3-1.1s-1.2-1.9-1.2-3.3v-6.1h1.3v5.9c0,1.1.3,2,.8,2.6s1.3.9,2.3.9,1.8-.3,2.4-1c.6-.6.9-1.6.9-2.8v-5.6h1.3Z"/>
    <path class="st4" d="M-3448.4-713.8c.6-.4,1.3-.5,2.2-.5v1.4h-.4c-1,0-1.7.3-2.3.8-.6.5-.9,1.4-.9,2.6v5.8h-1.3v-10.4h1.3v1.8c.3-.6.7-1.1,1.3-1.5Z"/>
    <path class="st4" d="M-3434.8-708.4h-8.6c0,.8.2,1.5.6,2,.3.6.8,1,1.3,1.3.6.3,1.2.4,1.8.4s1.6-.2,2.2-.6,1-1,1.2-1.7h1.4c-.3,1-.8,1.8-1.6,2.5-.8.6-1.9,1-3.1,1s-1.8-.2-2.6-.7c-.8-.4-1.4-1.1-1.8-1.9-.4-.8-.7-1.7-.7-2.8s.2-2,.6-2.8c.4-.8,1-1.4,1.8-1.9s1.7-.6,2.6-.6,1.9.2,2.6.6,1.3,1,1.7,1.7c.4.7.6,1.5.6,2.4s0,.8,0,1ZM-3436.6-711.5c-.3-.5-.8-1-1.3-1.2-.6-.3-1.2-.4-1.8-.4-1,0-1.8.3-2.5,1-.7.6-1.1,1.5-1.2,2.7h7.3c0-.8-.1-1.4-.5-2Z"/>
    <path class="st4" d="M-3416.7-713.1c-.4-.9-1-1.6-1.7-2.1-.8-.5-1.7-.8-2.7-.8s-1.9.2-2.7.7-1.4,1.1-1.9,1.9c-.5.8-.7,1.8-.7,2.9s.2,2.1.7,2.9,1.1,1.5,1.9,2,1.7.7,2.7.7,1.8-.2,2.5-.6c.7-.4,1.3-1,1.8-1.7.4-.7.7-1.6.8-2.6h-5.6v-1.1h7v1c0,1.2-.4,2.2-1,3.2-.6.9-1.3,1.7-2.3,2.2-1,.5-2,.8-3.2.8s-2.3-.3-3.3-.9c-1-.6-1.8-1.4-2.4-2.4s-.9-2.2-.9-3.5.3-2.5.9-3.5,1.4-1.8,2.4-2.4c1-.6,2.1-.9,3.3-.9s2.7.4,3.7,1.1c1.1.7,1.8,1.7,2.3,3h-1.6Z"/>
    <path class="st4" d="M-3411-717.8v14.1h-1.3v-14.1h1.3Z"/>
    <path class="st4" d="M-3406.1-704.2c-.8-.4-1.4-1.1-1.8-1.9-.4-.8-.7-1.7-.7-2.8s.2-2,.7-2.8c.5-.8,1.1-1.4,1.9-1.9.8-.4,1.7-.7,2.6-.7s1.9.2,2.7.7c.8.4,1.4,1.1,1.9,1.9.4.8.7,1.7.7,2.8s-.2,2-.7,2.8-1.1,1.4-1.9,1.9c-.8.4-1.7.7-2.7.7s-1.9-.2-2.6-.7ZM-3401.5-705.2c.6-.3,1.1-.8,1.4-1.4.4-.6.5-1.4.5-2.3s-.2-1.7-.5-2.3-.8-1.1-1.4-1.4c-.6-.3-1.2-.5-1.9-.5s-1.3.2-1.9.5-1,.8-1.4,1.4-.5,1.4-.5,2.3.2,1.7.5,2.3.8,1.1,1.4,1.4,1.2.5,1.9.5,1.3-.2,1.9-.5Z"/>
    <path class="st4" d="M-3392.9-713.6c.7-.5,1.6-.7,2.5-.7s1.8.2,2.5.7c.7.4,1.3,1.1,1.8,1.9.4.8.6,1.7.6,2.8s-.2,2-.6,2.8c-.4.8-1,1.4-1.8,1.9-.8.4-1.6.7-2.5.7s-1.8-.2-2.6-.7c-.7-.4-1.2-1-1.6-1.8v2.3h-1.3v-14.1h1.3v6c.3-.7.9-1.3,1.6-1.8ZM-3387.2-711.2c-.3-.6-.8-1.1-1.4-1.4s-1.2-.5-2-.5-1.4.2-1.9.5c-.6.3-1.1.8-1.4,1.5-.3.6-.5,1.4-.5,2.2s.2,1.6.5,2.2c.3.6.8,1.1,1.4,1.5.6.3,1.2.5,1.9.5s1.4-.2,2-.5c.6-.3,1-.8,1.4-1.5.3-.6.5-1.4.5-2.2s-.2-1.6-.5-2.2Z"/>
    <path class="st4" d="M-3382.9-711.7c.4-.8,1-1.4,1.8-1.9.8-.4,1.6-.7,2.6-.7s1.8.2,2.6.7c.7.5,1.2,1,1.5,1.7v-2.3h1.3v10.4h-1.3v-2.3c-.3.7-.9,1.3-1.6,1.8-.7.5-1.6.7-2.6.7s-1.8-.2-2.5-.7c-.8-.4-1.3-1.1-1.8-1.9-.4-.8-.6-1.7-.6-2.8s.2-2,.6-2.8ZM-3375-711.1c-.3-.6-.8-1.1-1.4-1.5-.6-.3-1.2-.5-1.9-.5s-1.4.2-2,.5-1,.8-1.4,1.4c-.3.6-.5,1.4-.5,2.2s.2,1.6.5,2.2c.3.6.8,1.1,1.4,1.5.6.3,1.2.5,2,.5s1.4-.2,1.9-.5c.6-.3,1.1-.8,1.4-1.5.3-.6.5-1.4.5-2.2s-.2-1.6-.5-2.2Z"/>
    <path class="st4" d="M-3368.8-717.8v14.1h-1.3v-14.1h1.3Z"/>
    <path class="st4" d="M-3353.5-703.7l-3.3-5.5h-2.5v5.5h-1.3v-13.3h4c1.5,0,2.6.4,3.4,1.1.8.7,1.2,1.6,1.2,2.8s-.3,1.8-.8,2.5c-.6.7-1.4,1.1-2.4,1.3l3.4,5.6h-1.6ZM-3359.2-710.4h2.7c1,0,1.8-.3,2.3-.8s.8-1.2.8-2-.3-1.5-.8-2c-.5-.5-1.3-.7-2.4-.7h-2.7v5.5Z"/>
    <path class="st4" d="M-3340.1-708.4h-8.6c0,.8.2,1.5.6,2,.3.6.8,1,1.3,1.3.6.3,1.2.4,1.8.4s1.6-.2,2.2-.6,1-1,1.2-1.7h1.4c-.3,1-.8,1.8-1.6,2.5-.8.6-1.9,1-3.1,1s-1.8-.2-2.6-.7c-.8-.4-1.4-1.1-1.8-1.9-.4-.8-.7-1.7-.7-2.8s.2-2,.6-2.8c.4-.8,1-1.4,1.8-1.9s1.7-.6,2.6-.6,1.9.2,2.6.6,1.3,1,1.7,1.7c.4.7.6,1.5.6,2.4s0,.8,0,1ZM-3341.8-711.5c-.3-.5-.8-1-1.3-1.2-.6-.3-1.2-.4-1.8-.4-1,0-1.8.3-2.5,1-.7.6-1.1,1.5-1.2,2.7h7.3c0-.8-.1-1.4-.5-2Z"/>
    <path class="st4" d="M-3337.6-711.7c.4-.8,1-1.4,1.8-1.9.8-.4,1.6-.7,2.6-.7s1.8.2,2.6.7c.7.5,1.2,1,1.5,1.7v-2.3h1.3v10.4h-1.3v-2.3c-.3.7-.9,1.3-1.6,1.8-.7.5-1.6.7-2.6.7s-1.8-.2-2.5-.7c-.8-.4-1.3-1.1-1.8-1.9-.4-.8-.6-1.7-.6-2.8s.2-2,.6-2.8ZM-3329.6-711.1c-.3-.6-.8-1.1-1.4-1.5-.6-.3-1.2-.5-1.9-.5s-1.4.2-2,.5-1,.8-1.4,1.4c-.3.6-.5,1.4-.5,2.2s.2,1.6.5,2.2c.3.6.8,1.1,1.4,1.5.6.3,1.2.5,2,.5s1.4-.2,1.9-.5c.6-.3,1.1-.8,1.4-1.5.3-.6.5-1.4.5-2.2s-.2-1.6-.5-2.2Z"/>
    <path class="st4" d="M-3323.4-717.8v14.1h-1.3v-14.1h1.3Z"/>
    <path class="st4" d="M-3313.9-715.9v5h5v1.1h-5v5h5.6v1.1h-6.9v-13.3h6.9v1.1h-5.6Z"/>
    <path class="st4" d="M-3305-704.4c-.8-.6-1.2-1.3-1.3-2.3h1.4c0,.6.3,1.1.8,1.4.5.4,1.1.5,2,.5s1.3-.2,1.7-.5c.4-.3.6-.8.6-1.3s-.1-.6-.3-.9-.5-.4-.9-.5c-.3-.1-.8-.3-1.4-.4-.8-.2-1.4-.4-1.9-.6-.5-.2-.9-.5-1.2-.9-.3-.4-.5-.9-.5-1.6s.2-1,.5-1.4c.3-.4.7-.8,1.3-1,.6-.3,1.2-.4,1.9-.4,1.1,0,2,.3,2.7.8.7.6,1.1,1.3,1.1,2.3h-1.3c0-.6-.3-1.1-.7-1.5-.4-.4-1-.6-1.8-.6s-1.2.2-1.6.5c-.4.3-.6.7-.6,1.2s.1.7.4,1,.6.5.9.6c.4.1.9.3,1.5.5.7.2,1.3.4,1.8.6.4.2.8.5,1.1.8.3.4.5.9.5,1.5,0,.6-.2,1.1-.5,1.5-.3.4-.7.8-1.3,1-.5.3-1.2.4-1.9.4-1.2,0-2.2-.3-2.9-.8Z"/>
    <path class="st4" d="M-3294.2-713v6.4c0,.6.1,1.1.4,1.3.2.2.7.4,1.3.4h1.2v1.1h-1.4c-.9,0-1.6-.2-2.1-.7-.5-.4-.7-1.2-.7-2.2v-6.4h-1.4v-1.1h1.4v-2.6h1.3v2.6h2.9v1.1h-2.9Z"/>
    <path class="st4" d="M-3289.2-711.7c.4-.8,1-1.4,1.8-1.9.8-.4,1.6-.7,2.6-.7s1.8.2,2.6.7,1.2,1,1.5,1.7v-2.3h1.3v10.4h-1.3v-2.3c-.3.7-.9,1.3-1.6,1.8-.7.5-1.6.7-2.6.7s-1.8-.2-2.5-.7-1.3-1.1-1.8-1.9c-.4-.8-.6-1.7-.6-2.8s.2-2,.6-2.8ZM-3281.3-711.1c-.3-.6-.8-1.1-1.4-1.5-.6-.3-1.2-.5-1.9-.5s-1.4.2-2,.5c-.6.3-1,.8-1.4,1.4s-.5,1.4-.5,2.2.2,1.6.5,2.2.8,1.1,1.4,1.5c.6.3,1.2.5,2,.5s1.4-.2,1.9-.5c.6-.3,1.1-.8,1.4-1.5.3-.6.5-1.4.5-2.2s-.2-1.6-.5-2.2Z"/>
    <path class="st4" d="M-3274.6-713v6.4c0,.6.1,1.1.4,1.3s.7.4,1.3.4h1.2v1.1h-1.4c-.9,0-1.6-.2-2.1-.7-.5-.4-.7-1.2-.7-2.2v-6.4h-1.4v-1.1h1.4v-2.6h1.3v2.6h2.8v1.1h-2.8Z"/>
    <path class="st4" d="M-3260.3-708.4h-8.6c0,.8.2,1.5.6,2,.3.6.8,1,1.3,1.3s1.2.4,1.8.4,1.6-.2,2.2-.6c.6-.4,1-1,1.2-1.7h1.4c-.3,1-.8,1.8-1.6,2.5-.8.6-1.9,1-3.1,1s-1.8-.2-2.6-.7c-.8-.4-1.4-1.1-1.8-1.9-.4-.8-.7-1.7-.7-2.8s.2-2,.6-2.8,1-1.4,1.8-1.9,1.7-.6,2.6-.6,1.9.2,2.6.6c.7.4,1.3,1,1.7,1.7.4.7.6,1.5.6,2.4s0,.8,0,1ZM-3262-711.5c-.3-.5-.8-1-1.3-1.2s-1.2-.4-1.8-.4c-1,0-1.8.3-2.5,1-.7.6-1.1,1.5-1.2,2.7h7.3c0-.8-.1-1.4-.5-2Z"/>
    <path class="st4" d="M-3250.9-713v6.4c0,.6.1,1.1.4,1.3s.7.4,1.3.4h1.2v1.1h-1.4c-.9,0-1.6-.2-2.1-.7-.5-.4-.7-1.2-.7-2.2v-6.4h-1.4v-1.1h1.4v-2.6h1.3v2.6h2.8v1.1h-2.8Z"/>
    <path class="st4" d="M-3243.9-704.2c-.8-.4-1.4-1.1-1.8-1.9-.4-.8-.7-1.7-.7-2.8s.2-2,.7-2.8c.5-.8,1.1-1.4,1.9-1.9.8-.4,1.7-.7,2.6-.7s1.9.2,2.7.7c.8.4,1.4,1.1,1.9,1.9.4.8.7,1.7.7,2.8s-.2,2-.7,2.8-1.1,1.4-1.9,1.9c-.8.4-1.7.7-2.7.7s-1.9-.2-2.6-.7ZM-3239.4-705.2c.6-.3,1.1-.8,1.4-1.4.4-.6.5-1.4.5-2.3s-.2-1.7-.5-2.3-.8-1.1-1.4-1.4c-.6-.3-1.2-.5-1.9-.5s-1.3.2-1.9.5-1,.8-1.4,1.4-.5,1.4-.5,2.3.2,1.7.5,2.3.8,1.1,1.4,1.4,1.2.5,1.9.5,1.3-.2,1.9-.5Z"/>
    <path class="st4" d="M-3227.8-704.4c-.8-.6-1.2-1.3-1.3-2.3h1.4c0,.6.3,1.1.8,1.4.5.4,1.1.5,2,.5s1.3-.2,1.7-.5c.4-.3.6-.8.6-1.3s-.1-.6-.3-.9-.5-.4-.9-.5c-.3-.1-.8-.3-1.4-.4-.8-.2-1.4-.4-1.9-.6-.5-.2-.9-.5-1.2-.9-.3-.4-.5-.9-.5-1.6s.2-1,.5-1.4c.3-.4.7-.8,1.3-1,.6-.3,1.2-.4,1.9-.4,1.1,0,2,.3,2.7.8.7.6,1.1,1.3,1.1,2.3h-1.3c0-.6-.3-1.1-.7-1.5-.4-.4-1-.6-1.8-.6s-1.2.2-1.6.5c-.4.3-.6.7-.6,1.2s.1.7.4,1,.6.5.9.6c.4.1.9.3,1.5.5.7.2,1.3.4,1.8.6.4.2.8.5,1.1.8.3.4.5.9.5,1.5,0,.6-.2,1.1-.5,1.5-.3.4-.7.8-1.3,1-.5.3-1.2.4-1.9.4-1.2,0-2.2-.3-2.9-.8Z"/>
    <path class="st4" d="M-3209.4-708.4h-8.6c0,.8.2,1.5.6,2,.3.6.8,1,1.3,1.3.6.3,1.2.4,1.8.4s1.6-.2,2.2-.6,1-1,1.2-1.7h1.4c-.3,1-.8,1.8-1.6,2.5-.8.6-1.9,1-3.1,1s-1.8-.2-2.6-.7c-.8-.4-1.4-1.1-1.8-1.9-.4-.8-.7-1.7-.7-2.8s.2-2,.6-2.8c.4-.8,1-1.4,1.8-1.9s1.7-.6,2.6-.6,1.9.2,2.6.6,1.3,1,1.7,1.7c.4.7.6,1.5.6,2.4s0,.8,0,1ZM-3211.2-711.5c-.3-.5-.8-1-1.3-1.2-.6-.3-1.2-.4-1.8-.4-1,0-1.8.3-2.5,1-.7.6-1.1,1.5-1.2,2.7h7.3c0-.8-.1-1.4-.5-2Z"/>
    <path class="st4" d="M-3199-713.1c.8.8,1.2,1.9,1.2,3.3v6.1h-1.3v-5.9c0-1.1-.3-2-.8-2.6s-1.3-.9-2.3-.9-1.8.3-2.4,1c-.6.6-.9,1.6-.9,2.8v5.7h-1.3v-10.4h1.3v1.8c.3-.6.8-1.1,1.4-1.5.6-.3,1.3-.5,2.1-.5,1.2,0,2.3.4,3,1.2Z"/>
    <path class="st4" d="M-3194.8-711.7c.4-.8,1-1.4,1.8-1.9.8-.4,1.6-.7,2.6-.7s1.7.2,2.5.7c.7.4,1.3,1,1.6,1.7v-5.9h1.3v14.1h-1.3v-2.3c-.3.7-.8,1.3-1.6,1.8-.7.5-1.6.7-2.5.7s-1.8-.2-2.6-.7-1.3-1.1-1.8-1.9c-.4-.8-.6-1.7-.6-2.8s.2-2,.6-2.8ZM-3186.9-711.1c-.3-.6-.8-1.1-1.4-1.5-.6-.3-1.2-.5-1.9-.5s-1.4.2-2,.5c-.6.3-1,.8-1.4,1.4s-.5,1.4-.5,2.2.2,1.6.5,2.2.8,1.1,1.4,1.5c.6.3,1.2.5,2,.5s1.4-.2,1.9-.5c.6-.3,1.1-.8,1.4-1.5.3-.6.5-1.4.5-2.2s-.2-1.6-.5-2.2Z"/>
    <path class="st4" d="M-3161.5-713.1c.8.8,1.1,1.9,1.1,3.3v6.1h-1.3v-5.9c0-1.1-.3-2-.8-2.6s-1.3-.9-2.2-.9-1.8.3-2.3,1c-.6.6-.9,1.6-.9,2.8v5.6h-1.3v-5.9c0-1.1-.3-2-.8-2.6-.5-.6-1.3-.9-2.2-.9s-1.8.3-2.3,1c-.6.6-.9,1.6-.9,2.8v5.6h-1.3v-10.4h1.3v1.8c.3-.6.8-1.1,1.4-1.5.6-.3,1.3-.5,2-.5s1.7.2,2.4.6,1.2,1.1,1.5,1.9c.3-.8.8-1.5,1.4-1.9.7-.4,1.4-.7,2.3-.7s2.2.4,3,1.2Z"/>
    <path class="st4" d="M-3157.4-711.7c.4-.8,1-1.4,1.8-1.9.8-.4,1.6-.7,2.6-.7s1.8.2,2.6.7,1.2,1,1.5,1.7v-2.3h1.3v10.4h-1.3v-2.3c-.3.7-.9,1.3-1.6,1.8-.7.5-1.6.7-2.6.7s-1.8-.2-2.5-.7-1.3-1.1-1.8-1.9c-.4-.8-.6-1.7-.6-2.8s.2-2,.6-2.8ZM-3149.5-711.1c-.3-.6-.8-1.1-1.4-1.5-.6-.3-1.2-.5-1.9-.5s-1.4.2-2,.5c-.6.3-1,.8-1.4,1.4s-.5,1.4-.5,2.2.2,1.6.5,2.2.8,1.1,1.4,1.5c.6.3,1.2.5,2,.5s1.4-.2,1.9-.5c.6-.3,1.1-.8,1.4-1.5.3-.6.5-1.4.5-2.2s-.2-1.6-.5-2.2Z"/>
    <path class="st4" d="M-3141.9-713.8c.6-.4,1.3-.5,2.2-.5v1.4h-.4c-1,0-1.7.3-2.3.8-.6.5-.9,1.4-.9,2.6v5.8h-1.3v-10.4h1.3v1.8c.3-.6.7-1.1,1.3-1.5Z"/>
    <path class="st4" d="M-3132.1-703.7l-4.3-4.7v4.7h-1.3v-14.1h1.3v8.3l4.2-4.6h1.9l-4.9,5.2,5,5.2h-1.8Z"/>
    <path class="st4" d="M-3119.3-708.4h-8.6c0,.8.2,1.5.6,2,.3.6.8,1,1.3,1.3s1.2.4,1.8.4,1.6-.2,2.2-.6,1-1,1.2-1.7h1.4c-.3,1-.8,1.8-1.6,2.5-.8.6-1.9,1-3.1,1s-1.8-.2-2.6-.7c-.8-.4-1.4-1.1-1.8-1.9-.4-.8-.7-1.7-.7-2.8s.2-2,.6-2.8,1-1.4,1.8-1.9c.8-.4,1.7-.6,2.6-.6s1.9.2,2.6.6,1.3,1,1.7,1.7c.4.7.6,1.5.6,2.4s0,.8,0,1ZM-3121-711.5c-.3-.5-.8-1-1.3-1.2-.6-.3-1.2-.4-1.8-.4-1,0-1.8.3-2.5,1-.7.6-1.1,1.5-1.2,2.7h7.3c0-.8-.1-1.4-.5-2Z"/>
    <path class="st4" d="M-3115.1-713v6.4c0,.6.1,1.1.4,1.3.2.2.7.4,1.3.4h1.2v1.1h-1.4c-.9,0-1.6-.2-2.1-.7-.5-.4-.7-1.2-.7-2.2v-6.4h-1.4v-1.1h1.4v-2.6h1.3v2.6h2.8v1.1h-2.8Z"/>
    <path class="st4" d="M-3110-716.3c-.2-.2-.3-.4-.3-.7s0-.5.3-.7.4-.3.7-.3.5,0,.7.3c.2.2.3.4.3.7s0,.5-.3.7-.4.3-.7.3-.5,0-.7-.3ZM-3108.7-714.1v10.4h-1.3v-10.4h1.3Z"/>
    <path class="st4" d="M-3097.8-713.1c.8.8,1.2,1.9,1.2,3.3v6.1h-1.3v-5.9c0-1.1-.3-2-.8-2.6s-1.3-.9-2.3-.9-1.8.3-2.4,1c-.6.6-.9,1.6-.9,2.8v5.7h-1.3v-10.4h1.3v1.8c.3-.6.8-1.1,1.4-1.5.6-.3,1.3-.5,2.1-.5,1.2,0,2.3.4,3,1.2Z"/>
    <path class="st4" d="M-3086.8-713.6c.7.5,1.2,1,1.6,1.7v-2.3h1.3v10.6c0,1-.2,1.8-.6,2.5-.4.7-1,1.3-1.7,1.7-.7.4-1.6.6-2.5.6-1.3,0-2.4-.3-3.3-1-.9-.6-1.4-1.5-1.6-2.6h1.3c.2.7.7,1.3,1.3,1.7s1.4.6,2.3.6,1.3-.1,1.8-.4c.5-.3,1-.7,1.3-1.3.3-.6.5-1.2.5-2v-2.6c-.3.7-.9,1.3-1.6,1.8-.7.5-1.6.7-2.5.7s-1.8-.2-2.6-.7-1.3-1.1-1.8-1.9c-.4-.8-.6-1.7-.6-2.8s.2-2,.6-2.8c.4-.8,1-1.4,1.8-1.9.8-.4,1.6-.7,2.6-.7s1.8.2,2.5.7ZM-3085.7-711.1c-.3-.6-.8-1.1-1.4-1.5-.6-.3-1.2-.5-1.9-.5s-1.4.2-2,.5c-.6.3-1,.8-1.4,1.4-.3.6-.5,1.4-.5,2.2s.2,1.6.5,2.2c.3.6.8,1.1,1.4,1.5.6.3,1.2.5,2,.5s1.4-.2,1.9-.5c.6-.3,1.1-.8,1.4-1.5.3-.6.5-1.4.5-2.2s-.2-1.6-.5-2.2Z"/>
    <path class="st4" d="M-3074.9-721.6l-5.2,21h-1.3l5.2-21h1.3Z"/>
    <path class="st4" d="M-3069.6-713.6c.7-.5,1.6-.7,2.6-.7s1.8.2,2.5.7c.8.4,1.3,1.1,1.8,1.9.4.8.6,1.7.6,2.8s-.2,2-.6,2.8c-.4.8-1,1.4-1.8,1.9s-1.6.7-2.5.7-1.8-.2-2.5-.7c-.7-.5-1.2-1-1.6-1.7v7.2h-1.3v-15.3h1.3v2.3c.3-.7.9-1.3,1.6-1.7ZM-3063.9-711.2c-.3-.6-.8-1.1-1.4-1.4-.6-.3-1.2-.5-2-.5s-1.4.2-1.9.5c-.6.3-1.1.8-1.4,1.5-.3.6-.5,1.4-.5,2.2s.2,1.6.5,2.2c.3.6.8,1.1,1.4,1.5.6.3,1.2.5,1.9.5s1.4-.2,2-.5c.6-.3,1-.8,1.4-1.5.3-.6.5-1.4.5-2.2s-.2-1.6-.5-2.2Z"/>
    <path class="st4" d="M-3057-713.8c.6-.4,1.3-.5,2.2-.5v1.4h-.4c-1,0-1.7.3-2.3.8-.6.5-.9,1.4-.9,2.6v5.8h-1.3v-10.4h1.3v1.8c.3-.6.7-1.1,1.3-1.5Z"/>
    <path class="st4" d="M-3050.8-704.2c-.8-.4-1.4-1.1-1.8-1.9-.5-.8-.7-1.7-.7-2.8s.2-2,.7-2.8c.5-.8,1.1-1.4,1.9-1.9.8-.4,1.7-.7,2.6-.7s1.9.2,2.7.7c.8.4,1.4,1.1,1.9,1.9.4.8.7,1.7.7,2.8s-.2,2-.7,2.8c-.5.8-1.1,1.4-1.9,1.9-.8.4-1.7.7-2.7.7s-1.9-.2-2.6-.7ZM-3046.3-705.2c.6-.3,1.1-.8,1.4-1.4.4-.6.5-1.4.5-2.3s-.2-1.7-.5-2.3-.8-1.1-1.4-1.4c-.6-.3-1.2-.5-1.9-.5s-1.3.2-1.9.5c-.6.3-1,.8-1.4,1.4s-.5,1.4-.5,2.3.2,1.7.5,2.3.8,1.1,1.4,1.4c.6.3,1.2.5,1.9.5s1.3-.2,1.9-.5Z"/>
    <path class="st4" d="M-3025.2-713.1c.8.8,1.1,1.9,1.1,3.3v6.1h-1.3v-5.9c0-1.1-.3-2-.8-2.6-.5-.6-1.3-.9-2.2-.9s-1.8.3-2.3,1c-.6.6-.9,1.6-.9,2.8v5.6h-1.3v-5.9c0-1.1-.3-2-.8-2.6s-1.3-.9-2.2-.9-1.8.3-2.3,1c-.6.6-.9,1.6-.9,2.8v5.6h-1.3v-10.4h1.3v1.8c.3-.6.8-1.1,1.4-1.5.6-.3,1.3-.5,2-.5s1.7.2,2.4.6,1.2,1.1,1.5,1.9c.3-.8.8-1.5,1.4-1.9.7-.4,1.4-.7,2.3-.7s2.2.4,3,1.2Z"/>
    <path class="st4" d="M-3019.2-704.2c-.8-.4-1.4-1.1-1.8-1.9-.5-.8-.7-1.7-.7-2.8s.2-2,.7-2.8c.5-.8,1.1-1.4,1.9-1.9.8-.4,1.7-.7,2.6-.7s1.9.2,2.7.7c.8.4,1.4,1.1,1.9,1.9.4.8.7,1.7.7,2.8s-.2,2-.7,2.8c-.5.8-1.1,1.4-1.9,1.9-.8.4-1.7.7-2.7.7s-1.9-.2-2.6-.7ZM-3014.7-705.2c.6-.3,1.1-.8,1.4-1.4.4-.6.5-1.4.5-2.3s-.2-1.7-.5-2.3-.8-1.1-1.4-1.4c-.6-.3-1.2-.5-1.9-.5s-1.3.2-1.9.5c-.6.3-1,.8-1.4,1.4s-.5,1.4-.5,2.3.2,1.7.5,2.3.8,1.1,1.4,1.4c.6.3,1.2.5,1.9.5s1.3-.2,1.9-.5Z"/>
    <path class="st4" d="M-2988.4-713.1c.8.8,1.1,1.9,1.1,3.3v6.1h-1.3v-5.9c0-1.1-.3-2-.8-2.6-.5-.6-1.3-.9-2.2-.9s-1.8.3-2.3,1c-.6.6-.9,1.6-.9,2.8v5.6h-1.3v-5.9c0-1.1-.3-2-.8-2.6s-1.3-.9-2.2-.9-1.8.3-2.3,1c-.6.6-.9,1.6-.9,2.8v5.6h-1.3v-10.4h1.3v1.8c.3-.6.8-1.1,1.4-1.5.6-.3,1.3-.5,2-.5s1.7.2,2.4.6,1.2,1.1,1.5,1.9c.3-.8.8-1.5,1.4-1.9.7-.4,1.4-.7,2.3-.7s2.2.4,3,1.2Z"/>
    <path class="st4" d="M-2975-708.4h-8.6c0,.8.2,1.5.6,2,.3.6.8,1,1.3,1.3s1.2.4,1.8.4,1.6-.2,2.2-.6,1-1,1.2-1.7h1.4c-.3,1-.8,1.8-1.6,2.5-.8.6-1.9,1-3.1,1s-1.8-.2-2.6-.7c-.8-.4-1.4-1.1-1.8-1.9-.4-.8-.7-1.7-.7-2.8s.2-2,.6-2.8,1-1.4,1.8-1.9c.8-.4,1.7-.6,2.6-.6s1.9.2,2.6.6,1.3,1,1.7,1.7c.4.7.6,1.5.6,2.4s0,.8,0,1ZM-2976.7-711.5c-.3-.5-.8-1-1.3-1.2-.6-.3-1.2-.4-1.8-.4-1,0-1.8.3-2.5,1-.7.6-1.1,1.5-1.2,2.7h7.3c0-.8-.1-1.4-.5-2Z"/>
    <path class="st4" d="M-2971.8-704.4c-.8-.6-1.2-1.3-1.3-2.3h1.4c0,.6.3,1.1.8,1.4.5.4,1.1.5,2,.5s1.3-.2,1.7-.5c.4-.3.6-.8.6-1.3s-.1-.6-.3-.9c-.2-.2-.5-.4-.9-.5-.3-.1-.8-.3-1.4-.4-.8-.2-1.4-.4-1.9-.6-.5-.2-.9-.5-1.2-.9-.3-.4-.5-.9-.5-1.6s.2-1,.5-1.4c.3-.4.7-.8,1.3-1,.6-.3,1.2-.4,1.9-.4,1.1,0,2,.3,2.7.8.7.6,1.1,1.3,1.1,2.3h-1.3c0-.6-.3-1.1-.7-1.5-.4-.4-1-.6-1.8-.6s-1.2.2-1.6.5c-.4.3-.6.7-.6,1.2s.1.7.4,1,.6.5.9.6c.4.1.9.3,1.5.5.7.2,1.3.4,1.8.6.4.2.8.5,1.1.8s.5.9.5,1.5c0,.6-.2,1.1-.5,1.5-.3.4-.7.8-1.3,1-.5.3-1.2.4-1.9.4-1.2,0-2.2-.3-2.9-.8Z"/>
    <path class="st4" d="M-2962.1-704.4c-.8-.6-1.2-1.3-1.3-2.3h1.4c0,.6.3,1.1.8,1.4.5.4,1.1.5,2,.5s1.3-.2,1.7-.5c.4-.3.6-.8.6-1.3s-.1-.6-.3-.9c-.2-.2-.5-.4-.9-.5-.3-.1-.8-.3-1.4-.4-.8-.2-1.4-.4-1.9-.6-.5-.2-.9-.5-1.2-.9-.3-.4-.5-.9-.5-1.6s.2-1,.5-1.4c.3-.4.7-.8,1.3-1,.6-.3,1.2-.4,1.9-.4,1.1,0,2,.3,2.7.8.7.6,1.1,1.3,1.1,2.3h-1.3c0-.6-.3-1.1-.7-1.5-.4-.4-1-.6-1.8-.6s-1.2.2-1.6.5c-.4.3-.6.7-.6,1.2s.1.7.4,1,.6.5.9.6c.4.1.9.3,1.5.5.7.2,1.3.4,1.8.6.4.2.8.5,1.1.8s.5.9.5,1.5c0,.6-.2,1.1-.5,1.5-.3.4-.7.8-1.3,1-.5.3-1.2.4-1.9.4-1.2,0-2.2-.3-2.9-.8Z"/>
    <path class="st4" d="M-2953.1-711.7c.4-.8,1-1.4,1.8-1.9.8-.4,1.6-.7,2.6-.7s1.8.2,2.6.7c.7.5,1.2,1,1.5,1.7v-2.3h1.3v10.4h-1.3v-2.3c-.3.7-.9,1.3-1.6,1.8-.7.5-1.6.7-2.6.7s-1.8-.2-2.5-.7-1.3-1.1-1.8-1.9c-.4-.8-.6-1.7-.6-2.8s.2-2,.6-2.8ZM-2945.2-711.1c-.3-.6-.8-1.1-1.4-1.5-.6-.3-1.2-.5-1.9-.5s-1.4.2-2,.5c-.6.3-1,.8-1.4,1.4-.3.6-.5,1.4-.5,2.2s.2,1.6.5,2.2c.3.6.8,1.1,1.4,1.5.6.3,1.2.5,2,.5s1.4-.2,1.9-.5c.6-.3,1.1-.8,1.4-1.5.3-.6.5-1.4.5-2.2s-.2-1.6-.5-2.2Z"/>
    <path class="st4" d="M-2933.4-713.6c.7.5,1.2,1,1.6,1.7v-2.3h1.3v10.6c0,1-.2,1.8-.6,2.5-.4.7-1,1.3-1.7,1.7-.7.4-1.6.6-2.5.6-1.3,0-2.4-.3-3.3-1-.9-.6-1.4-1.5-1.6-2.6h1.3c.2.7.7,1.3,1.3,1.7s1.4.6,2.3.6,1.3-.1,1.8-.4c.5-.3,1-.7,1.3-1.3.3-.6.5-1.2.5-2v-2.6c-.3.7-.9,1.3-1.6,1.8-.7.5-1.6.7-2.5.7s-1.8-.2-2.6-.7-1.3-1.1-1.8-1.9c-.4-.8-.6-1.7-.6-2.8s.2-2,.6-2.8c.4-.8,1-1.4,1.8-1.9.8-.4,1.6-.7,2.6-.7s1.8.2,2.5.7ZM-2932.3-711.1c-.3-.6-.8-1.1-1.4-1.5-.6-.3-1.2-.5-1.9-.5s-1.4.2-2,.5c-.6.3-1,.8-1.4,1.4-.3.6-.5,1.4-.5,2.2s.2,1.6.5,2.2c.3.6.8,1.1,1.4,1.5.6.3,1.2.5,2,.5s1.4-.2,1.9-.5c.6-.3,1.1-.8,1.4-1.5.3-.6.5-1.4.5-2.2s-.2-1.6-.5-2.2Z"/>
    <path class="st4" d="M-2921-711.3v1.1h-7.4v-1.1h7.4Z"/>
    <path class="st4" d="M-3680.8-685.6h-8.6c0,.8.2,1.5.6,2,.3.6.8,1,1.3,1.3.6.3,1.2.4,1.8.4s1.6-.2,2.2-.6,1-1,1.2-1.7h1.4c-.3,1-.8,1.8-1.6,2.5-.8.6-1.9,1-3.1,1s-1.8-.2-2.6-.7c-.8-.4-1.4-1.1-1.8-1.9-.4-.8-.7-1.7-.7-2.8s.2-2,.6-2.8c.4-.8,1-1.4,1.8-1.9s1.7-.6,2.6-.6,1.9.2,2.6.6,1.3,1,1.7,1.7c.4.7.6,1.5.6,2.4s0,.8,0,1ZM-3682.6-688.7c-.3-.5-.8-1-1.3-1.2-.6-.3-1.2-.4-1.8-.4-1,0-1.8.3-2.5,1-.7.6-1.1,1.5-1.2,2.7h7.3c0-.8-.1-1.4-.5-2Z"/>
    <path class="st4" d="M-3677.7-681.6c-.8-.6-1.2-1.3-1.3-2.3h1.4c0,.6.3,1.1.8,1.4.5.4,1.1.5,2,.5s1.3-.2,1.7-.5c.4-.3.6-.8.6-1.3s-.1-.6-.3-.9-.5-.4-.9-.5c-.3-.1-.8-.3-1.4-.4-.8-.2-1.4-.4-1.9-.6-.5-.2-.9-.5-1.2-.9-.3-.4-.5-.9-.5-1.6s.2-1,.5-1.4c.3-.4.7-.8,1.3-1,.6-.3,1.2-.4,1.9-.4,1.1,0,2,.3,2.7.8.7.6,1.1,1.3,1.1,2.3h-1.3c0-.6-.3-1.1-.7-1.5-.4-.4-1-.6-1.8-.6s-1.2.2-1.6.5c-.4.3-.6.7-.6,1.2s.1.7.4,1,.6.5.9.6c.4.1.9.3,1.5.5.7.2,1.3.4,1.8.6.4.2.8.5,1.1.8.3.4.5.9.5,1.5,0,.6-.2,1.1-.5,1.5-.3.4-.7.8-1.3,1-.5.3-1.2.4-1.9.4-1.2,0-2.2-.3-2.9-.8Z"/>
    <path class="st4" d="M-3657-688.5v1.1h-7.4v-1.1h7.4Z"/>
    <path class="st4" d="M-3648.4-693.5c-.2-.2-.3-.4-.3-.7s0-.5.3-.7c.2-.2.4-.3.7-.3s.5,0,.7.3c.2.2.3.4.3.7s0,.5-.3.7-.4.3-.7.3-.5,0-.7-.3ZM-3647-691.3v10.4h-1.3v-10.4h1.3Z"/>
    <path class="st4" d="M-3636.1-690.3c.8.8,1.2,1.9,1.2,3.3v6.1h-1.3v-5.9c0-1.1-.3-2-.8-2.6s-1.3-.9-2.3-.9-1.8.3-2.4,1c-.6.6-.9,1.6-.9,2.8v5.7h-1.3v-10.4h1.3v1.8c.3-.6.8-1.1,1.4-1.5.6-.3,1.3-.5,2.1-.5,1.2,0,2.3.4,3,1.2Z"/>
    <path class="st4" d="M-3631.9-688.9c.4-.8,1-1.4,1.8-1.9.8-.4,1.6-.7,2.6-.7s2.3.3,3.2,1c.8.6,1.4,1.5,1.6,2.6h-1.4c-.2-.7-.6-1.3-1.1-1.8-.6-.4-1.3-.6-2.2-.6s-1.3.2-1.9.5c-.6.3-1,.8-1.3,1.4-.3.6-.5,1.4-.5,2.3s.2,1.7.5,2.3c.3.6.8,1.1,1.3,1.4.6.3,1.2.5,1.9.5s1.6-.2,2.2-.6c.6-.4,1-1,1.1-1.8h1.4c-.2,1.1-.8,1.9-1.6,2.6-.8.6-1.9,1-3.2,1s-1.8-.2-2.6-.7c-.8-.4-1.4-1.1-1.8-1.9-.4-.8-.6-1.7-.6-2.8s.2-2,.6-2.8Z"/>
    <path class="st4" d="M-3619-695v14.1h-1.3v-14.1h1.3Z"/>
    <path class="st4" d="M-3607-691.3v10.4h-1.3v-1.8c-.3.6-.8,1.1-1.4,1.5-.6.3-1.3.5-2.1.5-1.2,0-2.3-.4-3-1.1s-1.2-1.9-1.2-3.3v-6.1h1.3v5.9c0,1.1.3,2,.8,2.6s1.3.9,2.3.9,1.8-.3,2.4-1c.6-.6.9-1.6.9-2.8v-5.6h1.3Z"/>
    <path class="st4" d="M-3603.9-688.9c.4-.8,1-1.4,1.8-1.9.8-.4,1.6-.7,2.6-.7s1.7.2,2.5.7c.7.4,1.3,1,1.6,1.7v-5.9h1.3v14.1h-1.3v-2.3c-.3.7-.8,1.3-1.6,1.8-.7.5-1.6.7-2.5.7s-1.8-.2-2.6-.7-1.3-1.1-1.8-1.9c-.4-.8-.6-1.7-.6-2.8s.2-2,.6-2.8ZM-3596-688.3c-.3-.6-.8-1.1-1.4-1.5-.6-.3-1.2-.5-1.9-.5s-1.4.2-2,.5c-.6.3-1,.8-1.4,1.4s-.5,1.4-.5,2.2.2,1.6.5,2.2.8,1.1,1.4,1.5c.6.3,1.2.5,2,.5s1.4-.2,1.9-.5c.6-.3,1.1-.8,1.4-1.5.3-.6.5-1.4.5-2.2s-.2-1.6-.5-2.2Z"/>
    <path class="st4" d="M-3591.1-693.5c-.2-.2-.3-.4-.3-.7s0-.5.3-.7c.2-.2.4-.3.7-.3s.5,0,.7.3c.2.2.3.4.3.7s0,.5-.3.7-.4.3-.7.3-.5,0-.7-.3ZM-3589.8-691.3v10.4h-1.3v-10.4h1.3Z"/>
    <path class="st4" d="M-3578.9-690.3c.8.8,1.2,1.9,1.2,3.3v6.1h-1.3v-5.9c0-1.1-.3-2-.8-2.6s-1.3-.9-2.3-.9-1.8.3-2.4,1c-.6.6-.9,1.6-.9,2.8v5.7h-1.3v-10.4h1.3v1.8c.3-.6.8-1.1,1.4-1.5.6-.3,1.3-.5,2.1-.5,1.2,0,2.3.4,3,1.2Z"/>
    <path class="st4" d="M-3567.8-690.8c.7.5,1.2,1,1.6,1.7v-2.3h1.3v10.6c0,1-.2,1.8-.6,2.5-.4.7-1,1.3-1.7,1.7-.7.4-1.6.6-2.5.6-1.3,0-2.4-.3-3.3-1-.9-.6-1.4-1.5-1.6-2.6h1.3c.2.7.7,1.3,1.3,1.7s1.4.6,2.3.6,1.3-.1,1.8-.4c.5-.3.9-.7,1.3-1.3.3-.6.5-1.2.5-2v-2.6c-.3.7-.9,1.3-1.6,1.8-.7.5-1.6.7-2.5.7s-1.8-.2-2.6-.7-1.3-1.1-1.8-1.9c-.4-.8-.6-1.7-.6-2.8s.2-2,.6-2.8c.4-.8,1-1.4,1.8-1.9.8-.4,1.6-.7,2.6-.7s1.8.2,2.5.7ZM-3566.8-688.3c-.3-.6-.8-1.1-1.4-1.5-.6-.3-1.2-.5-1.9-.5s-1.4.2-2,.5c-.6.3-1,.8-1.4,1.4s-.5,1.4-.5,2.2.2,1.6.5,2.2.8,1.1,1.4,1.5c.6.3,1.2.5,2,.5s1.4-.2,1.9-.5c.6-.3,1.1-.8,1.4-1.5.3-.6.5-1.4.5-2.2s-.2-1.6-.5-2.2Z"/>
    <path class="st4" d="M-3555-690.2v6.4c0,.6.1,1.1.4,1.3.2.2.7.4,1.3.4h1.2v1.1h-1.4c-.9,0-1.6-.2-2.1-.7-.5-.4-.7-1.2-.7-2.2v-6.4h-1.4v-1.1h1.4v-2.6h1.3v2.6h2.9v1.1h-2.9Z"/>
    <path class="st4" d="M-3540.6-685.6h-8.6c0,.8.2,1.5.6,2,.3.6.8,1,1.3,1.3.6.3,1.2.4,1.8.4s1.6-.2,2.2-.6,1-1,1.2-1.7h1.4c-.3,1-.8,1.8-1.6,2.5-.8.6-1.9,1-3.1,1s-1.8-.2-2.6-.7c-.8-.4-1.4-1.1-1.8-1.9-.4-.8-.7-1.7-.7-2.8s.2-2,.6-2.8c.4-.8,1-1.4,1.8-1.9s1.7-.6,2.6-.6,1.9.2,2.6.6,1.3,1,1.7,1.7c.4.7.6,1.5.6,2.4s0,.8,0,1ZM-3542.4-688.7c-.3-.5-.8-1-1.3-1.2-.6-.3-1.2-.4-1.8-.4-1,0-1.8.3-2.5,1-.7.6-1.1,1.5-1.2,2.7h7.3c0-.8-.1-1.4-.5-2Z"/>
    <path class="st4" d="M-3532.7-680.9l-2.7-4.2-2.6,4.2h-1.4l3.3-5.2-3.3-5.2h1.5l2.6,4.1,2.6-4.1h1.4l-3.3,5.1,3.3,5.2h-1.5Z"/>
    <path class="st4" d="M-3527.7-690.2v6.4c0,.6.1,1.1.4,1.3.2.2.7.4,1.3.4h1.2v1.1h-1.4c-.9,0-1.6-.2-2.1-.7-.5-.4-.7-1.2-.7-2.2v-6.4h-1.4v-1.1h1.4v-2.6h1.3v2.6h2.9v1.1h-2.9Z"/>
    <path class="st4" d="M-3522-681.6c-.8-.6-1.2-1.3-1.3-2.3h1.4c0,.6.3,1.1.8,1.4.5.4,1.1.5,2,.5s1.3-.2,1.7-.5c.4-.3.6-.8.6-1.3s-.1-.6-.3-.9c-.2-.2-.5-.4-.9-.5-.3-.1-.8-.3-1.4-.4-.8-.2-1.4-.4-1.9-.6-.5-.2-.9-.5-1.2-.9-.3-.4-.5-.9-.5-1.6s.2-1,.5-1.4.7-.8,1.3-1c.6-.3,1.2-.4,1.9-.4,1.1,0,2,.3,2.7.8.7.6,1.1,1.3,1.1,2.3h-1.3c0-.6-.3-1.1-.7-1.5-.4-.4-1-.6-1.8-.6s-1.2.2-1.6.5c-.4.3-.6.7-.6,1.2s.1.7.4,1,.6.5.9.6c.4.1.9.3,1.5.5.7.2,1.3.4,1.8.6.4.2.8.5,1.1.8s.5.9.5,1.5c0,.6-.2,1.1-.5,1.5-.3.4-.7.8-1.3,1-.5.3-1.2.4-1.9.4-1.2,0-2.2-.3-2.9-.8Z"/>
    <path class="st4" d="M-3507.7-688.9c.4-.8,1-1.4,1.8-1.9.8-.4,1.6-.7,2.6-.7s1.8.2,2.6.7,1.2,1,1.5,1.7v-2.3h1.3v10.4h-1.3v-2.3c-.3.7-.9,1.3-1.6,1.8-.7.5-1.6.7-2.6.7s-1.8-.2-2.5-.7-1.3-1.1-1.8-1.9c-.4-.8-.6-1.7-.6-2.8s.2-2,.6-2.8ZM-3499.8-688.3c-.3-.6-.8-1.1-1.4-1.5-.6-.3-1.2-.5-1.9-.5s-1.4.2-2,.5c-.6.3-1,.8-1.4,1.4s-.5,1.4-.5,2.2.2,1.6.5,2.2.8,1.1,1.4,1.5c.6.3,1.2.5,2,.5s1.4-.2,1.9-.5c.6-.3,1.1-.8,1.4-1.5.3-.6.5-1.4.5-2.2s-.2-1.6-.5-2.2Z"/>
    <path class="st4" d="M-3487-690.3c.8.8,1.2,1.9,1.2,3.3v6.1h-1.3v-5.9c0-1.1-.3-2-.8-2.6s-1.3-.9-2.3-.9-1.8.3-2.4,1c-.6.6-.9,1.6-.9,2.8v5.7h-1.3v-10.4h1.3v1.8c.3-.6.8-1.1,1.4-1.5.6-.3,1.3-.5,2.1-.5,1.2,0,2.3.4,3,1.2Z"/>
    <path class="st4" d="M-3482.8-688.9c.4-.8,1-1.4,1.8-1.9.8-.4,1.6-.7,2.6-.7s1.7.2,2.5.7c.7.4,1.3,1,1.6,1.7v-5.9h1.3v14.1h-1.3v-2.3c-.3.7-.8,1.3-1.6,1.8-.7.5-1.6.7-2.5.7s-1.8-.2-2.6-.7-1.3-1.1-1.8-1.9c-.4-.8-.6-1.7-.6-2.8s.2-2,.6-2.8ZM-3474.9-688.3c-.3-.6-.8-1.1-1.4-1.5-.6-.3-1.2-.5-1.9-.5s-1.4.2-2,.5c-.6.3-1,.8-1.4,1.4s-.5,1.4-.5,2.2.2,1.6.5,2.2.8,1.1,1.4,1.5c.6.3,1.2.5,2,.5s1.4-.2,1.9-.5c.6-.3,1.1-.8,1.4-1.5.3-.6.5-1.4.5-2.2s-.2-1.6-.5-2.2Z"/>
    <path class="st4" d="M-3464.8-688.9c.4-.8,1-1.4,1.8-1.9.8-.4,1.6-.7,2.6-.7s2.3.3,3.2,1c.8.6,1.4,1.5,1.6,2.6h-1.4c-.2-.7-.6-1.3-1.1-1.8-.6-.4-1.3-.6-2.2-.6s-1.3.2-1.9.5c-.6.3-1,.8-1.3,1.4-.3.6-.5,1.4-.5,2.3s.2,1.7.5,2.3c.3.6.8,1.1,1.3,1.4.6.3,1.2.5,1.9.5s1.6-.2,2.2-.6c.6-.4,1-1,1.1-1.8h1.4c-.2,1.1-.8,1.9-1.6,2.6-.8.6-1.9,1-3.2,1s-1.8-.2-2.6-.7c-.8-.4-1.4-1.1-1.8-1.9-.4-.8-.6-1.7-.6-2.8s.2-2,.6-2.8Z"/>
    <path class="st4" d="M-3453.2-688.9c.4-.8,1-1.4,1.8-1.9.8-.4,1.6-.7,2.6-.7s1.8.2,2.6.7c.7.5,1.2,1,1.5,1.7v-2.3h1.3v10.4h-1.3v-2.3c-.3.7-.9,1.3-1.6,1.8-.7.5-1.6.7-2.6.7s-1.8-.2-2.5-.7c-.8-.4-1.3-1.1-1.8-1.9-.4-.8-.6-1.7-.6-2.8s.2-2,.6-2.8ZM-3445.3-688.3c-.3-.6-.8-1.1-1.4-1.5-.6-.3-1.2-.5-1.9-.5s-1.4.2-2,.5-1,.8-1.4,1.4c-.3.6-.5,1.4-.5,2.2s.2,1.6.5,2.2c.3.6.8,1.1,1.4,1.5.6.3,1.2.5,2,.5s1.4-.2,1.9-.5c.6-.3,1.1-.8,1.4-1.5.3-.6.5-1.4.5-2.2s-.2-1.6-.5-2.2Z"/>
    <path class="st4" d="M-3439-695v14.1h-1.3v-14.1h1.3Z"/>
    <path class="st4" d="M-3434.7-695v14.1h-1.3v-14.1h1.3Z"/>
    <path class="st4" d="M-3431-681.6c-.8-.6-1.2-1.3-1.3-2.3h1.4c0,.6.3,1.1.8,1.4.5.4,1.1.5,2,.5s1.3-.2,1.7-.5c.4-.3.6-.8.6-1.3s-.1-.6-.3-.9c-.2-.2-.5-.4-.9-.5-.3-.1-.8-.3-1.4-.4-.8-.2-1.4-.4-1.9-.6-.5-.2-.9-.5-1.2-.9-.3-.4-.5-.9-.5-1.6s.2-1,.5-1.4.7-.8,1.3-1c.6-.3,1.2-.4,1.9-.4,1.1,0,2,.3,2.7.8.7.6,1.1,1.3,1.1,2.3h-1.3c0-.6-.3-1.1-.7-1.5-.4-.4-1-.6-1.8-.6s-1.2.2-1.6.5c-.4.3-.6.7-.6,1.2s.1.7.4,1,.6.5.9.6c.4.1.9.3,1.5.5.7.2,1.3.4,1.8.6.4.2.8.5,1.1.8s.5.9.5,1.5c0,.6-.2,1.1-.5,1.5-.3.4-.7.8-1.3,1-.5.3-1.2.4-1.9.4-1.2,0-2.2-.3-2.9-.8Z"/>
    <path class="st4" d="M-3401.5-690.3c.8.8,1.1,1.9,1.1,3.3v6.1h-1.3v-5.9c0-1.1-.3-2-.8-2.6s-1.3-.9-2.2-.9-1.8.3-2.3,1c-.6.6-.9,1.6-.9,2.8v5.6h-1.3v-5.9c0-1.1-.3-2-.8-2.6-.5-.6-1.3-.9-2.2-.9s-1.8.3-2.3,1c-.6.6-.9,1.6-.9,2.8v5.6h-1.3v-10.4h1.3v1.8c.3-.6.8-1.1,1.4-1.5.6-.3,1.3-.5,2-.5s1.7.2,2.4.6,1.2,1.1,1.5,1.9c.3-.8.8-1.5,1.4-1.9.7-.4,1.4-.7,2.3-.7s2.2.4,3,1.2Z"/>
    <path class="st4" d="M-3397.3-688.9c.4-.8,1-1.4,1.8-1.9.8-.4,1.6-.7,2.6-.7s1.8.2,2.6.7,1.2,1,1.5,1.7v-2.3h1.3v10.4h-1.3v-2.3c-.3.7-.9,1.3-1.6,1.8-.7.5-1.6.7-2.6.7s-1.8-.2-2.5-.7-1.3-1.1-1.8-1.9c-.4-.8-.6-1.7-.6-2.8s.2-2,.6-2.8ZM-3389.4-688.3c-.3-.6-.8-1.1-1.4-1.5-.6-.3-1.2-.5-1.9-.5s-1.4.2-2,.5c-.6.3-1,.8-1.4,1.4s-.5,1.4-.5,2.2.2,1.6.5,2.2.8,1.1,1.4,1.5c.6.3,1.2.5,2,.5s1.4-.2,1.9-.5c.6-.3,1.1-.8,1.4-1.5.3-.6.5-1.4.5-2.2s-.2-1.6-.5-2.2Z"/>
    <path class="st4" d="M-3384.5-688.9c.4-.8,1-1.4,1.8-1.9.8-.4,1.6-.7,2.6-.7s1.7.2,2.5.7c.7.4,1.3,1,1.6,1.7v-5.9h1.3v14.1h-1.3v-2.3c-.3.7-.8,1.3-1.6,1.8-.7.5-1.6.7-2.5.7s-1.8-.2-2.6-.7c-.8-.4-1.3-1.1-1.8-1.9-.4-.8-.6-1.7-.6-2.8s.2-2,.6-2.8ZM-3376.6-688.3c-.3-.6-.8-1.1-1.4-1.5-.6-.3-1.2-.5-1.9-.5s-1.4.2-2,.5-1,.8-1.4,1.4c-.3.6-.5,1.4-.5,2.2s.2,1.6.5,2.2c.3.6.8,1.1,1.4,1.5.6.3,1.2.5,2,.5s1.4-.2,1.9-.5c.6-.3,1.1-.8,1.4-1.5.3-.6.5-1.4.5-2.2s-.2-1.6-.5-2.2Z"/>
    <path class="st4" d="M-3362.4-685.6h-8.6c0,.8.2,1.5.6,2,.3.6.8,1,1.3,1.3.6.3,1.2.4,1.8.4s1.6-.2,2.2-.6,1-1,1.2-1.7h1.4c-.3,1-.8,1.8-1.6,2.5-.8.6-1.9,1-3.1,1s-1.8-.2-2.6-.7c-.8-.4-1.4-1.1-1.8-1.9-.4-.8-.7-1.7-.7-2.8s.2-2,.6-2.8c.4-.8,1-1.4,1.8-1.9s1.7-.6,2.6-.6,1.9.2,2.6.6,1.3,1,1.7,1.7c.4.7.6,1.5.6,2.4s0,.8,0,1ZM-3364.1-688.7c-.3-.5-.8-1-1.3-1.2-.6-.3-1.2-.4-1.8-.4-1,0-1.8.3-2.5,1-.7.6-1.1,1.5-1.2,2.7h7.3c0-.8-.1-1.4-.5-2Z"/>
    <path class="st4" d="M-3345.7-691.3v10.4h-1.3v-1.8c-.3.6-.8,1.1-1.4,1.5-.6.3-1.3.5-2.1.5-1.2,0-2.3-.4-3-1.1-.8-.8-1.2-1.9-1.2-3.3v-6.1h1.3v5.9c0,1.1.3,2,.8,2.6.6.6,1.3.9,2.3.9s1.8-.3,2.4-1c.6-.6.9-1.6.9-2.8v-5.6h1.3Z"/>
    <path class="st4" d="M-3342-681.6c-.8-.6-1.2-1.3-1.3-2.3h1.4c0,.6.3,1.1.8,1.4.5.4,1.1.5,2,.5s1.3-.2,1.7-.5c.4-.3.6-.8.6-1.3s-.1-.6-.3-.9-.5-.4-.9-.5c-.3-.1-.8-.3-1.4-.4-.8-.2-1.4-.4-1.9-.6-.5-.2-.9-.5-1.2-.9-.3-.4-.5-.9-.5-1.6s.2-1,.5-1.4c.3-.4.7-.8,1.3-1,.6-.3,1.2-.4,1.9-.4,1.1,0,2,.3,2.7.8.7.6,1.1,1.3,1.1,2.3h-1.3c0-.6-.3-1.1-.7-1.5-.4-.4-1-.6-1.8-.6s-1.2.2-1.6.5c-.4.3-.6.7-.6,1.2s.1.7.4,1,.6.5.9.6c.4.1.9.3,1.5.5.7.2,1.3.4,1.8.6.4.2.8.5,1.1.8.3.4.5.9.5,1.5,0,.6-.2,1.1-.5,1.5-.3.4-.7.8-1.3,1-.5.3-1.2.4-1.9.4-1.2,0-2.2-.3-2.9-.8Z"/>
    <path class="st4" d="M-3333-693.5c-.2-.2-.3-.4-.3-.7s0-.5.3-.7c.2-.2.4-.3.7-.3s.5,0,.7.3c.2.2.3.4.3.7s0,.5-.3.7c-.2.2-.4.3-.7.3s-.5,0-.7-.3ZM-3331.6-691.3v10.4h-1.3v-10.4h1.3Z"/>
    <path class="st4" d="M-3320.7-690.3c.8.8,1.2,1.9,1.2,3.3v6.1h-1.3v-5.9c0-1.1-.3-2-.8-2.6s-1.3-.9-2.3-.9-1.8.3-2.4,1c-.6.6-.9,1.6-.9,2.8v5.7h-1.3v-10.4h1.3v1.8c.3-.6.8-1.1,1.4-1.5.6-.3,1.3-.5,2.1-.5,1.2,0,2.3.4,3,1.2Z"/>
    <path class="st4" d="M-3309.7-690.8c.7.5,1.2,1,1.6,1.7v-2.3h1.3v10.6c0,1-.2,1.8-.6,2.5-.4.7-1,1.3-1.7,1.7-.7.4-1.6.6-2.5.6-1.3,0-2.4-.3-3.3-1-.9-.6-1.4-1.5-1.6-2.6h1.3c.2.7.7,1.3,1.3,1.7s1.4.6,2.3.6,1.3-.1,1.8-.4c.5-.3,1-.7,1.3-1.3.3-.6.5-1.2.5-2v-2.6c-.3.7-.9,1.3-1.6,1.8-.7.5-1.6.7-2.5.7s-1.8-.2-2.6-.7c-.8-.4-1.3-1.1-1.8-1.9-.4-.8-.6-1.7-.6-2.8s.2-2,.6-2.8c.4-.8,1-1.4,1.8-1.9.8-.4,1.6-.7,2.6-.7s1.8.2,2.5.7ZM-3308.7-688.3c-.3-.6-.8-1.1-1.4-1.5-.6-.3-1.2-.5-1.9-.5s-1.4.2-2,.5-1,.8-1.4,1.4c-.3.6-.5,1.4-.5,2.2s.2,1.6.5,2.2c.3.6.8,1.1,1.4,1.5.6.3,1.2.5,2,.5s1.4-.2,1.9-.5c.6-.3,1.1-.8,1.4-1.5.3-.6.5-1.4.5-2.2s-.2-1.6-.5-2.2Z"/>
    <path class="st4" d="M-3298.5-688.9c.4-.8,1-1.4,1.8-1.9.8-.4,1.6-.7,2.6-.7s1.8.2,2.6.7c.7.5,1.2,1,1.5,1.7v-2.3h1.3v10.4h-1.3v-2.3c-.3.7-.9,1.3-1.6,1.8-.7.5-1.6.7-2.6.7s-1.8-.2-2.5-.7c-.8-.4-1.3-1.1-1.8-1.9-.4-.8-.6-1.7-.6-2.8s.2-2,.6-2.8ZM-3290.6-688.3c-.3-.6-.8-1.1-1.4-1.5-.6-.3-1.2-.5-1.9-.5s-1.4.2-2,.5-1,.8-1.4,1.4c-.3.6-.5,1.4-.5,2.2s.2,1.6.5,2.2c.3.6.8,1.1,1.4,1.5.6.3,1.2.5,2,.5s1.4-.2,1.9-.5c.6-.3,1.1-.8,1.4-1.5.3-.6.5-1.4.5-2.2s-.2-1.6-.5-2.2Z"/>
    <path class="st4" d="M-3277.8-690.3c.8.8,1.2,1.9,1.2,3.3v6.1h-1.3v-5.9c0-1.1-.3-2-.8-2.6s-1.3-.9-2.3-.9-1.8.3-2.4,1c-.6.6-.9,1.6-.9,2.8v5.7h-1.3v-10.4h1.3v1.8c.3-.6.8-1.1,1.4-1.5.6-.3,1.3-.5,2.1-.5,1.2,0,2.3.4,3,1.2Z"/>
    <path class="st4" d="M-3268.5-688.9c.4-.8,1-1.4,1.8-1.9.8-.4,1.6-.7,2.6-.7s1.8.2,2.6.7,1.2,1,1.5,1.7v-2.3h1.3v10.4h-1.3v-2.3c-.3.7-.9,1.3-1.6,1.8-.7.5-1.6.7-2.6.7s-1.8-.2-2.5-.7-1.3-1.1-1.8-1.9c-.4-.8-.6-1.7-.6-2.8s.2-2,.6-2.8ZM-3260.6-688.3c-.3-.6-.8-1.1-1.4-1.5-.6-.3-1.2-.5-1.9-.5s-1.4.2-2,.5c-.6.3-1,.8-1.4,1.4s-.5,1.4-.5,2.2.2,1.6.5,2.2.8,1.1,1.4,1.5c.6.3,1.2.5,2,.5s1.4-.2,1.9-.5c.6-.3,1.1-.8,1.4-1.5.3-.6.5-1.4.5-2.2s-.2-1.6-.5-2.2Z"/>
    <path class="st4" d="M-3246.7-691.3v10.4h-1.3v-1.8c-.3.6-.8,1.1-1.4,1.5-.6.3-1.3.5-2.1.5-1.2,0-2.3-.4-3-1.1s-1.2-1.9-1.2-3.3v-6.1h1.3v5.9c0,1.1.3,2,.8,2.6s1.3.9,2.3.9,1.8-.3,2.4-1c.6-.6.9-1.6.9-2.8v-5.6h1.3Z"/>
    <path class="st4" d="M-3241.9-690.2v6.4c0,.6.1,1.1.4,1.3.2.2.7.4,1.3.4h1.2v1.1h-1.4c-.9,0-1.6-.2-2.1-.7-.5-.4-.7-1.2-.7-2.2v-6.4h-1.4v-1.1h1.4v-2.6h1.3v2.6h2.9v1.1h-2.9Z"/>
    <path class="st4" d="M-3235-681.4c-.8-.4-1.4-1.1-1.8-1.9-.5-.8-.7-1.7-.7-2.8s.2-2,.7-2.8c.5-.8,1.1-1.4,1.9-1.9.8-.4,1.7-.7,2.6-.7s1.9.2,2.7.7c.8.4,1.4,1.1,1.9,1.9.5.8.7,1.7.7,2.8s-.2,2-.7,2.8-1.1,1.4-1.9,1.9c-.8.4-1.7.7-2.7.7s-1.9-.2-2.6-.7ZM-3230.5-682.4c.6-.3,1.1-.8,1.4-1.4.4-.6.5-1.4.5-2.3s-.2-1.7-.5-2.3c-.4-.6-.8-1.1-1.4-1.4-.6-.3-1.2-.5-1.9-.5s-1.3.2-1.9.5c-.6.3-1,.8-1.4,1.4-.3.6-.5,1.4-.5,2.3s.2,1.7.5,2.3c.3.6.8,1.1,1.4,1.4.6.3,1.2.5,1.9.5s1.3-.2,1.9-.5Z"/>
    <path class="st4" d="M-3217.8-690.2v6.4c0,.6.1,1.1.4,1.3.2.2.7.4,1.3.4h1.2v1.1h-1.4c-.9,0-1.6-.2-2.1-.7-.5-.4-.7-1.2-.7-2.2v-6.4h-1.4v-1.1h1.4v-2.6h1.3v2.6h2.9v1.1h-2.9Z"/>
    <path class="st4" d="M-3203.4-685.6h-8.6c0,.8.2,1.5.6,2,.3.6.8,1,1.3,1.3.6.3,1.2.4,1.8.4s1.6-.2,2.2-.6,1-1,1.2-1.7h1.4c-.3,1-.8,1.8-1.6,2.5-.8.6-1.9,1-3.1,1s-1.8-.2-2.6-.7c-.8-.4-1.4-1.1-1.8-1.9-.4-.8-.7-1.7-.7-2.8s.2-2,.6-2.8c.4-.8,1-1.4,1.8-1.9s1.7-.6,2.6-.6,1.9.2,2.6.6,1.3,1,1.7,1.7c.4.7.6,1.5.6,2.4s0,.8,0,1ZM-3205.2-688.7c-.3-.5-.8-1-1.3-1.2-.6-.3-1.2-.4-1.8-.4-1,0-1.8.3-2.5,1-.7.6-1.1,1.5-1.2,2.7h7.3c0-.8-.1-1.4-.5-2Z"/>
    <path class="st4" d="M-3199.6-695v14.1h-1.3v-14.1h1.3Z"/>
    <path class="st4" d="M-3187.2-685.6h-8.6c0,.8.2,1.5.6,2,.3.6.8,1,1.3,1.3s1.2.4,1.8.4,1.6-.2,2.2-.6c.6-.4,1-1,1.2-1.7h1.4c-.3,1-.8,1.8-1.6,2.5-.8.6-1.9,1-3.1,1s-1.8-.2-2.6-.7c-.8-.4-1.4-1.1-1.8-1.9-.4-.8-.7-1.7-.7-2.8s.2-2,.6-2.8,1-1.4,1.8-1.9,1.7-.6,2.6-.6,1.9.2,2.6.6c.7.4,1.3,1,1.7,1.7.4.7.6,1.5.6,2.4s0,.8,0,1ZM-3189-688.7c-.3-.5-.8-1-1.3-1.2s-1.2-.4-1.8-.4c-1,0-1.8.3-2.5,1-.7.6-1.1,1.5-1.2,2.7h7.3c0-.8-.1-1.4-.5-2Z"/>
    <path class="st4" d="M-3181.9-690.8c.7-.5,1.6-.7,2.6-.7s1.8.2,2.5.7c.8.4,1.3,1.1,1.8,1.9.4.8.6,1.7.6,2.8s-.2,2-.6,2.8c-.4.8-1,1.4-1.8,1.9-.8.4-1.6.7-2.5.7s-1.8-.2-2.5-.7c-.7-.5-1.2-1-1.6-1.7v7.2h-1.3v-15.3h1.3v2.3c.3-.7.9-1.3,1.6-1.7ZM-3176.2-688.4c-.3-.6-.8-1.1-1.4-1.4s-1.2-.5-2-.5-1.4.2-1.9.5c-.6.3-1.1.8-1.4,1.5-.3.6-.5,1.4-.5,2.2s.2,1.6.5,2.2c.3.6.8,1.1,1.4,1.5.6.3,1.2.5,1.9.5s1.4-.2,2-.5c.6-.3,1-.8,1.4-1.5.3-.6.5-1.4.5-2.2s-.2-1.6-.5-2.2Z"/>
    <path class="st4" d="M-3164.9-691c.6.3,1.1.8,1.5,1.5.4.7.5,1.5.5,2.5v6.1h-1.3v-5.9c0-1.1-.3-2-.8-2.6s-1.3-.9-2.3-.9-1.8.3-2.4,1c-.6.6-.9,1.6-.9,2.8v5.7h-1.3v-14.1h1.3v5.5c.3-.6.8-1.1,1.5-1.4.6-.3,1.4-.5,2.2-.5s1.5.2,2.1.5Z"/>
    <path class="st4" d="M-3158-681.4c-.8-.4-1.4-1.1-1.8-1.9-.5-.8-.7-1.7-.7-2.8s.2-2,.7-2.8c.5-.8,1.1-1.4,1.9-1.9.8-.4,1.7-.7,2.6-.7s1.9.2,2.7.7c.8.4,1.4,1.1,1.9,1.9.5.8.7,1.7.7,2.8s-.2,2-.7,2.8-1.1,1.4-1.9,1.9c-.8.4-1.7.7-2.7.7s-1.9-.2-2.6-.7ZM-3153.4-682.4c.6-.3,1.1-.8,1.4-1.4.4-.6.5-1.4.5-2.3s-.2-1.7-.5-2.3c-.4-.6-.8-1.1-1.4-1.4-.6-.3-1.2-.5-1.9-.5s-1.3.2-1.9.5c-.6.3-1,.8-1.4,1.4-.3.6-.5,1.4-.5,2.3s.2,1.7.5,2.3c.3.6.8,1.1,1.4,1.4.6.3,1.2.5,1.9.5s1.3-.2,1.9-.5Z"/>
    <path class="st4" d="M-3139.8-690.3c.8.8,1.2,1.9,1.2,3.3v6.1h-1.3v-5.9c0-1.1-.3-2-.8-2.6-.6-.6-1.3-.9-2.3-.9s-1.8.3-2.4,1c-.6.6-.9,1.6-.9,2.8v5.7h-1.3v-10.4h1.3v1.8c.3-.6.8-1.1,1.4-1.5.6-.3,1.3-.5,2.1-.5,1.2,0,2.3.4,3,1.2Z"/>
    <path class="st4" d="M-3126.3-685.6h-8.6c0,.8.2,1.5.6,2,.3.6.8,1,1.3,1.3s1.2.4,1.8.4,1.6-.2,2.2-.6,1-1,1.2-1.7h1.4c-.3,1-.8,1.8-1.6,2.5-.8.6-1.9,1-3.1,1s-1.8-.2-2.6-.7c-.8-.4-1.4-1.1-1.8-1.9-.4-.8-.7-1.7-.7-2.8s.2-2,.6-2.8,1-1.4,1.8-1.9c.8-.4,1.7-.6,2.6-.6s1.9.2,2.6.6,1.3,1,1.7,1.7c.4.7.6,1.5.6,2.4s0,.8,0,1ZM-3128.1-688.7c-.3-.5-.8-1-1.3-1.2-.6-.3-1.2-.4-1.8-.4-1,0-1.8.3-2.5,1-.7.6-1.1,1.5-1.2,2.7h7.3c0-.8-.1-1.4-.5-2Z"/>
    <path class="st4" d="M-3118.6-688.9c.4-.8,1-1.4,1.8-1.9.8-.4,1.6-.7,2.6-.7s1.7.2,2.5.7c.7.4,1.3,1,1.6,1.7v-5.9h1.3v14.1h-1.3v-2.3c-.3.7-.8,1.3-1.6,1.8-.7.5-1.6.7-2.5.7s-1.8-.2-2.6-.7-1.3-1.1-1.8-1.9c-.4-.8-.6-1.7-.6-2.8s.2-2,.6-2.8ZM-3110.7-688.3c-.3-.6-.8-1.1-1.4-1.5-.6-.3-1.2-.5-1.9-.5s-1.4.2-2,.5c-.6.3-1,.8-1.4,1.4-.3.6-.5,1.4-.5,2.2s.2,1.6.5,2.2c.3.6.8,1.1,1.4,1.5.6.3,1.2.5,2,.5s1.4-.2,1.9-.5c.6-.3,1.1-.8,1.4-1.5.3-.6.5-1.4.5-2.2s-.2-1.6-.5-2.2Z"/>
    <path class="st4" d="M-3105.8-693.5c-.2-.2-.3-.4-.3-.7s0-.5.3-.7.4-.3.7-.3.5,0,.7.3c.2.2.3.4.3.7s0,.5-.3.7-.4.3-.7.3-.5,0-.7-.3ZM-3104.5-691.3v10.4h-1.3v-10.4h1.3Z"/>
    <path class="st4" d="M-3101.4-688.9c.4-.8,1-1.4,1.8-1.9.8-.4,1.6-.7,2.6-.7s1.8.2,2.6.7c.7.5,1.2,1,1.5,1.7v-2.3h1.3v10.4h-1.3v-2.3c-.3.7-.9,1.3-1.6,1.8-.7.5-1.6.7-2.6.7s-1.8-.2-2.5-.7-1.3-1.1-1.8-1.9c-.4-.8-.6-1.7-.6-2.8s.2-2,.6-2.8ZM-3093.5-688.3c-.3-.6-.8-1.1-1.4-1.5-.6-.3-1.2-.5-1.9-.5s-1.4.2-2,.5c-.6.3-1,.8-1.4,1.4-.3.6-.5,1.4-.5,2.2s.2,1.6.5,2.2c.3.6.8,1.1,1.4,1.5.6.3,1.2.5,2,.5s1.4-.2,1.9-.5c.6-.3,1.1-.8,1.4-1.5.3-.6.5-1.4.5-2.2s-.2-1.6-.5-2.2Z"/>
    <path class="st4" d="M-3087.3-695v14.1h-1.3v-14.1h1.3Z"/>
    <path class="st4" d="M-3084.3-693.5c-.2-.2-.3-.4-.3-.7s0-.5.3-.7.4-.3.7-.3.5,0,.7.3c.2.2.3.4.3.7s0,.5-.3.7-.4.3-.7.3-.5,0-.7-.3ZM-3083-691.3v10.4h-1.3v-10.4h1.3Z"/>
    <path class="st4" d="M-3072-690.3c.8.8,1.2,1.9,1.2,3.3v6.1h-1.3v-5.9c0-1.1-.3-2-.8-2.6s-1.3-.9-2.3-.9-1.8.3-2.4,1c-.6.6-.9,1.6-.9,2.8v5.7h-1.3v-10.4h1.3v1.8c.3-.6.8-1.1,1.4-1.5.6-.3,1.3-.5,2.1-.5,1.2,0,2.3.4,3,1.2Z"/>
    <path class="st4" d="M-3061-690.8c.7.5,1.2,1,1.6,1.7v-2.3h1.3v10.6c0,1-.2,1.8-.6,2.5-.4.7-1,1.3-1.7,1.7-.7.4-1.6.6-2.5.6-1.3,0-2.4-.3-3.3-1-.9-.6-1.4-1.5-1.6-2.6h1.3c.2.7.7,1.3,1.3,1.7s1.4.6,2.3.6,1.3-.1,1.8-.4c.5-.3,1-.7,1.3-1.3.3-.6.5-1.2.5-2v-2.6c-.3.7-.9,1.3-1.6,1.8-.7.5-1.6.7-2.5.7s-1.8-.2-2.6-.7-1.3-1.1-1.8-1.9c-.4-.8-.6-1.7-.6-2.8s.2-2,.6-2.8c.4-.8,1-1.4,1.8-1.9.8-.4,1.6-.7,2.6-.7s1.8.2,2.5.7ZM-3060-688.3c-.3-.6-.8-1.1-1.4-1.5-.6-.3-1.2-.5-1.9-.5s-1.4.2-2,.5c-.6.3-1,.8-1.4,1.4-.3.6-.5,1.4-.5,2.2s.2,1.6.5,2.2c.3.6.8,1.1,1.4,1.5.6.3,1.2.5,2,.5s1.4-.2,1.9-.5c.6-.3,1.1-.8,1.4-1.5.3-.6.5-1.4.5-2.2s-.2-1.6-.5-2.2Z"/>
    <path class="st4" d="M-3049.2-681.6c-.8-.6-1.2-1.3-1.3-2.3h1.4c0,.6.3,1.1.8,1.4.5.4,1.1.5,2,.5s1.3-.2,1.7-.5c.4-.3.6-.8.6-1.3s-.1-.6-.3-.9c-.2-.2-.5-.4-.9-.5-.3-.1-.8-.3-1.4-.4-.8-.2-1.4-.4-1.9-.6-.5-.2-.9-.5-1.2-.9-.3-.4-.5-.9-.5-1.6s.2-1,.5-1.4c.3-.4.7-.8,1.3-1,.6-.3,1.2-.4,1.9-.4,1.1,0,2,.3,2.7.8.7.6,1.1,1.3,1.1,2.3h-1.3c0-.6-.3-1.1-.7-1.5-.4-.4-1-.6-1.8-.6s-1.2.2-1.6.5c-.4.3-.6.7-.6,1.2s.1.7.4,1,.6.5.9.6c.4.1.9.3,1.5.5.7.2,1.3.4,1.8.6.4.2.8.5,1.1.8s.5.9.5,1.5c0,.6-.2,1.1-.5,1.5-.3.4-.7.8-1.3,1-.5.3-1.2.4-1.9.4-1.2,0-2.2-.3-2.9-.8Z"/>
    <path class="st4" d="M-3031.6-691.3l-6.2,15.3h-1.4l2-4.9-4.3-10.3h1.5l3.5,8.9,3.4-8.9h1.4Z"/>
    <path class="st4" d="M-3029.2-681.6c-.8-.6-1.2-1.3-1.3-2.3h1.4c0,.6.3,1.1.8,1.4.5.4,1.1.5,2,.5s1.3-.2,1.7-.5c.4-.3.6-.8.6-1.3s-.1-.6-.3-.9c-.2-.2-.5-.4-.9-.5-.3-.1-.8-.3-1.4-.4-.8-.2-1.4-.4-1.9-.6-.5-.2-.9-.5-1.2-.9-.3-.4-.5-.9-.5-1.6s.2-1,.5-1.4c.3-.4.7-.8,1.3-1,.6-.3,1.2-.4,1.9-.4,1.1,0,2,.3,2.7.8.7.6,1.1,1.3,1.1,2.3h-1.3c0-.6-.3-1.1-.7-1.5-.4-.4-1-.6-1.8-.6s-1.2.2-1.6.5c-.4.3-.6.7-.6,1.2s.1.7.4,1,.6.5.9.6c.4.1.9.3,1.5.5.7.2,1.3.4,1.8.6.4.2.8.5,1.1.8s.5.9.5,1.5c0,.6-.2,1.1-.5,1.5-.3.4-.7.8-1.3,1-.5.3-1.2.4-1.9.4-1.2,0-2.2-.3-2.9-.8Z"/>
    <path class="st4" d="M-3018.4-690.2v6.4c0,.6.1,1.1.4,1.3.2.2.7.4,1.3.4h1.2v1.1h-1.4c-.9,0-1.6-.2-2.1-.7-.5-.4-.7-1.2-.7-2.2v-6.4h-1.4v-1.1h1.4v-2.6h1.3v2.6h2.8v1.1h-2.8Z"/>
    <path class="st4" d="M-3004-685.6h-8.6c0,.8.2,1.5.6,2,.3.6.8,1,1.3,1.3s1.2.4,1.8.4,1.6-.2,2.2-.6,1-1,1.2-1.7h1.4c-.3,1-.8,1.8-1.6,2.5-.8.6-1.9,1-3.1,1s-1.8-.2-2.6-.7c-.8-.4-1.4-1.1-1.8-1.9-.4-.8-.7-1.7-.7-2.8s.2-2,.6-2.8,1-1.4,1.8-1.9c.8-.4,1.7-.6,2.6-.6s1.9.2,2.6.6,1.3,1,1.7,1.7c.4.7.6,1.5.6,2.4s0,.8,0,1ZM-3005.8-688.7c-.3-.5-.8-1-1.3-1.2-.6-.3-1.2-.4-1.8-.4-1,0-1.8.3-2.5,1-.7.6-1.1,1.5-1.2,2.7h7.3c0-.8-.1-1.4-.5-2Z"/>
    <path class="st4" d="M-2986.2-690.3c.8.8,1.1,1.9,1.1,3.3v6.1h-1.3v-5.9c0-1.1-.3-2-.8-2.6-.5-.6-1.3-.9-2.2-.9s-1.8.3-2.3,1c-.6.6-.9,1.6-.9,2.8v5.6h-1.3v-5.9c0-1.1-.3-2-.8-2.6s-1.3-.9-2.2-.9-1.8.3-2.3,1c-.6.6-.9,1.6-.9,2.8v5.6h-1.3v-10.4h1.3v1.8c.3-.6.8-1.1,1.4-1.5.6-.3,1.3-.5,2-.5s1.7.2,2.4.6,1.2,1.1,1.5,1.9c.3-.8.8-1.5,1.4-1.9.7-.4,1.4-.7,2.3-.7s2.2.4,3,1.2Z"/>
    <path class="st4" d="M-2982.6-681.1c-.2-.2-.3-.4-.3-.7s0-.5.3-.7c.2-.2.4-.3.7-.3s.5,0,.7.3c.2.2.3.4.3.7s0,.5-.3.7c-.2.2-.4.3-.7.3s-.5,0-.7-.3Z"/>
  </g>
  <g>
    <path class="st14" d="M-3054.6-1138.6l-105.1-58.4c-1.8-1-3.7-1.2-5.5-.7v73.4l114.9-.3c6.6-.1,1.5-10.8-4.3-14h0Z"/>
    <path class="st9" d="M-3169.8-1194.1l-32.6,58.8c-2.8,5,.9,11.2,6.7,11.1h30.6v-73.4c-1.9.5-3.6,1.7-4.6,3.6h0Z"/>
    <path class="st18" d="M-3033.4-986.1l.6-120.2c0-2-.8-3.8-2.1-5.2l-64.3,35.3,55.6,100.5c3.3,5.7,10.1-3.9,10.2-10.5"/>
    <path class="st12" d="M-3040.3-1113.8l-67.2-.3c-5.8,0-9.4,6.2-6.5,11.2l14.8,26.8,64.3-35.3c-1.4-1.4-3.3-2.3-5.4-2.3h0Z"/>
    <path class="st18" d="M-3154.5-896.8l103.3-61.4c1.7-1,2.9-2.6,3.4-4.4l-63.4-36.9-57.6,99.4c-3.2,5.7,8.6,6.7,14.2,3.3h0Z"/>
    <path class="st12" d="M-3048.5-968.4l-34.3-57.8c-2.9-4.9-10.1-4.9-12.9.2l-15.3,26.5,63.4,36.9c.5-1.9.3-4-.8-5.8h0Z"/>
    <path class="st18" d="M-3294-956.4l105.1,58.4c1.8,1,3.7,1.2,5.5.7v-73.4l-114.9.3c-6.6.1-1.5,10.8,4.3,14h0Z"/>
    <path class="st12" d="M-3178.8-900.9l32.6-58.8c2.8-5-.9-11.2-6.7-11.1h-30.6v73.4c1.9-.5,3.6-1.7,4.6-3.6h0Z"/>
    <path class="st18" d="M-3315.1-1108.9l-.6,120.2c0,2,.8,3.8,2.1,5.2l64.3-35.3-55.6-100.5c-3.3-5.7-10.1,3.9-10.2,10.5"/>
    <path class="st12" d="M-3308.3-981.2l67.2.3c5.8,0,9.4-6.2,6.5-11.2l-14.8-26.8-64.3,35.3c1.4,1.4,3.3,2.3,5.4,2.3h0Z"/>
    <path class="st18" d="M-3194.1-1198.2l-103.3,61.4c-1.7,1-2.9,2.6-3.4,4.4l63.4,36.9,57.6-99.4c3.2-5.7-8.6-6.7-14.2-3.3h0Z"/>
    <path class="st12" d="M-3300-1126.6l34.3,57.8c2.9,4.9,10.1,4.9,12.9-.2l15.3-26.5-63.4-36.9c-.5,1.9-.3,4,.8,5.8h0Z"/>
    <path class="st4" d="M-4388-1005.5h-12.9l52.2-106.5h14.4l52.2,106.5h-13.1l-14.6-29.9h-63.7l-14.5,29.9ZM-4341.6-1100.6l-26.7,54.7h53.4l-26.7-54.7Z"/>
    <path class="st4" d="M-4252.8-1112h62.3c9.9,0,17.9,2.9,23.9,8.8,6.1,5.9,9.2,13.4,9.2,22.6s-3.1,17.1-9.4,23c-6.1,6-13.9,8.9-23.4,8.9h-41.9l4.4-10.6h35.4c7.6,0,13.3-1.9,17.1-5.8,3.8-3.9,5.7-9,5.7-15.6s-2.2-12.3-6.6-15.6c-4.2-3.4-9.2-5.1-14.9-5.1h-49.9v95.8h-12v-106.5h0Z"/>
    <polygon class="st4" points="-4120.8 -1112 -4036 -1112 -4036 -1101.5 -4108.8 -1101.5 -4108.8 -1064.3 -4040.4 -1064.3 -4044.6 -1054.1 -4108.8 -1054.1 -4108.8 -1016 -4032.3 -1016 -4032.3 -1005.5 -4120.8 -1005.5 -4120.8 -1112"/>
    <path class="st4" d="M-3992.8-1112h59.8c10.5,0,19.1,3,25.8,8.9,6.8,6,10.2,13.6,10.2,22.8s-2.7,14.8-8,20.1c-5.3,5.3-12.5,8.5-21.6,9.6l34,45.1h-15.2l-32.8-43.9h-31.5l4.4-10.6h34.4c7.2,0,13.1-1.9,17.6-5.6,4.5-3.7,6.7-8.7,6.7-14.8s-2.2-11.1-6.6-15c-4.2-4.1-9.7-6.1-16.4-6.1h-48.9v96h-12v-106.5h0Z"/>
    <polygon class="st4" points="-3877.2 -1112 -3777.4 -1112 -3777.4 -1101.5 -3821.3 -1101.5 -3821.3 -1005.5 -3833.3 -1005.5 -3833.3 -1101.5 -3877.2 -1101.5 -3877.2 -1112"/>
    <path class="st4" d="M-3749.7-1112h12v61.4c0,11.1,3.3,19.7,10,26.1,6.7,6.3,15.9,9.5,27.5,9.5s21-3.2,27.9-9.5c6.9-6.5,10.4-15.2,10.4-26.1v-61.4h12v63.5c0,13.6-4.5,24.4-13.4,32.5-8.8,8-20.9,11.9-36.3,11.9s-27.8-4-36.6-11.9c-9-8.1-13.5-19-13.5-32.5v-63.5h0Z"/>
    <path class="st4" d="M-3604.5-1112h59.8c10.5,0,19.1,3,25.8,8.9,6.8,6,10.2,13.6,10.2,22.8s-2.7,14.8-8,20.1c-5.3,5.3-12.5,8.5-21.6,9.6l34,45.1h-15.2l-32.8-43.9h-31.5l4.4-10.6h34.4c7.2,0,13.1-1.9,17.6-5.6,4.5-3.7,6.7-8.7,6.7-14.8s-2.2-11.1-6.6-15c-4.2-4.1-9.7-6.1-16.4-6.1h-48.9v96h-12v-106.5h0Z"/>
    <polygon class="st4" points="-3469.8 -1112 -3385 -1112 -3385 -1101.5 -3457.8 -1101.5 -3457.8 -1064.3 -3389.4 -1064.3 -3393.6 -1054.1 -3457.8 -1054.1 -3457.8 -1016 -3381.3 -1016 -3381.3 -1005.5 -3469.8 -1005.5 -3469.8 -1112 -3469.8 -1112"/>
    <path class="st4" d="M-4228.5-965.5c2.6,1.9,4.4,4.4,5.3,7.6h-3.4c-.8-2.2-2.3-4-4.3-5.4-2-1.4-4.4-2.1-7.1-2.1s-4.5.6-6.4,1.7c-1.9,1.1-3.4,2.7-4.5,4.8-1.1,2.1-1.6,4.5-1.6,7.3s.6,5.3,1.7,7.4c1.1,2.1,2.6,3.7,4.6,4.8,1.9,1.1,4.2,1.7,6.7,1.7s4.2-.5,6.1-1.5c1.8-1,3.3-2.4,4.5-4.3,1.1-1.9,1.8-4.1,2-6.6h-13.7v-2.5h16.5v2.9c-.2,2.8-1,5.3-2.4,7.6-1.4,2.2-3.2,4-5.5,5.3-2.3,1.3-4.9,1.9-7.8,1.9s-5.9-.7-8.3-2.1c-2.4-1.4-4.3-3.4-5.7-6-1.3-2.6-2-5.5-2-8.7s.7-6.1,2-8.7c1.3-2.6,3.2-4.5,5.6-6,2.4-1.4,5.2-2.1,8.3-2.1s6.9.9,9.5,2.8"/>
    <polygon class="st4" points="-4196.2 -937.7 -4184.2 -937.7 -4184.2 -935.1 -4199.5 -935.1 -4199.5 -968 -4196.2 -968 -4196.2 -937.7"/>
    <path class="st4" d="M-4139.8-966.2c2.4,1.4,4.3,3.4,5.7,6,1.4,2.6,2.1,5.5,2.1,8.7s-.7,6.1-2.1,8.7c-1.4,2.6-3.3,4.6-5.7,6-2.4,1.4-5.2,2.1-8.2,2.1s-5.8-.7-8.2-2.1c-2.4-1.4-4.3-3.4-5.7-6-1.4-2.6-2.1-5.5-2.1-8.7s.7-6.1,2.1-8.7c1.4-2.5,3.3-4.5,5.7-6,2.4-1.4,5.2-2.2,8.2-2.2s5.8.7,8.2,2.2M-4154.5-963.6c-1.9,1.1-3.4,2.7-4.5,4.8-1.1,2.1-1.7,4.5-1.7,7.3s.6,5.2,1.7,7.3c1.1,2.1,2.6,3.7,4.5,4.8,1.9,1.1,4.1,1.7,6.5,1.7s4.6-.6,6.5-1.7c1.9-1.1,3.4-2.7,4.5-4.8,1.1-2.1,1.7-4.5,1.7-7.3s-.6-5.2-1.7-7.3c-1.1-2.1-2.6-3.7-4.5-4.8-1.9-1.1-4.1-1.7-6.5-1.7s-4.6.6-6.5,1.7"/>
    <path class="st4" d="M-4089.1-949.3c1.3,1.5,1.9,3.3,1.9,5.3s-.9,4.8-2.7,6.4c-1.8,1.6-4.4,2.5-7.8,2.5h-11.4v-32.9h11.3c3.3,0,5.8.7,7.5,2.2,1.7,1.5,2.5,3.5,2.5,6s-.6,3.9-1.7,5.2c-1.1,1.3-2.6,2.1-4.4,2.5,2.1.4,3.7,1.4,5,2.9M-4105.8-953.3h7.6c2.3,0,4.1-.5,5.3-1.6,1.2-1.1,1.8-2.5,1.8-4.4s-.6-3.3-1.8-4.3c-1.2-1.1-3-1.6-5.5-1.6h-7.4v12ZM-4092.5-939.6c1.4-1.1,2.1-2.7,2.1-4.7s-.7-3.6-2.1-4.7c-1.4-1.2-3.3-1.8-5.8-1.8h-7.5v12.9h7.6c2.5,0,4.4-.6,5.7-1.7"/>
    <path class="st4" d="M-4045.7-943.1h-15l-3,8h-3.5l12.1-32.2h3.7l12.2,32.2h-3.6l-2.9-8ZM-4046.7-945.7l-6.5-17.8-6.6,17.8h13.1Z"/>
    <polygon class="st4" points="-4014.5 -937.7 -4002.6 -937.7 -4002.6 -935.1 -4017.8 -935.1 -4017.8 -968 -4014.5 -968 -4014.5 -937.7"/>
    <path class="st4" d="M-3934.6-935.1l-9-13.7h-5.3v13.7h-3.3v-32.9h10.1c3.7,0,6.5.9,8.3,2.6,1.8,1.7,2.7,4.1,2.7,7s-.8,4.9-2.3,6.5c-1.5,1.6-3.8,2.6-6.7,2.9l9.3,13.8h-3.7ZM-3949-951.3h6.5c5.3,0,7.9-2.3,7.9-6.9s-2.6-7-7.9-7h-6.5v13.9Z"/>
    <polygon class="st4" points="-3905.6 -965.3 -3905.6 -952.9 -3892.7 -952.9 -3892.7 -950.3 -3905.6 -950.3 -3905.6 -937.8 -3891.3 -937.8 -3891.3 -935.1 -3908.9 -935.1 -3908.9 -968 -3891.3 -968 -3891.3 -965.3 -3905.6 -965.3"/>
    <path class="st4" d="M-3849.8-943.1h-15l-3,8h-3.5l12.1-32.2h3.7l12.2,32.2h-3.6l-2.9-8ZM-3850.8-945.7l-6.5-17.8-6.6,17.8h13.1Z"/>
    <polygon class="st4" points="-3818.6 -937.7 -3806.6 -937.7 -3806.6 -935.1 -3821.9 -935.1 -3821.9 -968 -3818.6 -968 -3818.6 -937.7"/>
    <polygon class="st4" points="-3753 -965.3 -3753 -952.9 -3740.2 -952.9 -3740.2 -950.3 -3753 -950.3 -3753 -937.8 -3738.8 -937.8 -3738.8 -935.1 -3756.4 -935.1 -3756.4 -968 -3738.8 -968 -3738.8 -965.3 -3753 -965.3"/>
    <path class="st4" d="M-3697.2-939.2c-.7,1.3-1.8,2.4-3.2,3.2-1.5.8-3.3,1.2-5.5,1.2s-4-.4-5.7-1.2c-1.7-.8-3-1.8-3.9-3.2-1-1.4-1.6-2.9-1.7-4.6h3.5c.1,1,.5,1.9,1.1,2.9.6,1,1.4,1.8,2.6,2.4,1.1.6,2.5,1,4.1,1s3.7-.6,4.8-1.7c1.1-1.1,1.7-2.5,1.7-4.3s-.4-2.7-1.1-3.6c-.7-.9-1.6-1.6-2.7-2.1-1.1-.5-2.5-1-4.4-1.6-2.1-.7-3.7-1.3-5-1.9-1.3-.6-2.3-1.5-3.2-2.7-.9-1.2-1.3-2.8-1.3-4.7s.9-4.5,2.6-6.1c1.7-1.6,4.1-2.3,7.2-2.3s5.6.8,7.4,2.3c1.8,1.5,2.9,3.4,3.2,5.7h-3.5c-.3-1.4-1-2.6-2.2-3.7-1.2-1.1-2.8-1.6-4.9-1.6s-3.5.5-4.6,1.5c-1.2,1-1.7,2.4-1.7,4.2s.4,2.5,1.1,3.4c.7.9,1.6,1.5,2.6,2,1,.5,2.5,1,4.3,1.6,2.1.7,3.8,1.3,5.1,1.9,1.3.6,2.4,1.6,3.3,2.8.9,1.2,1.4,2.9,1.4,4.9s-.3,2.9-1,4.2"/>
    <polygon class="st4" points="-3654.1 -968 -3654.1 -965.3 -3663.5 -965.3 -3663.5 -935.1 -3666.8 -935.1 -3666.8 -965.3 -3676.1 -965.3 -3676.1 -968 -3654.1 -968"/>
    <path class="st4" d="M-3613.9-943.1h-15l-3,8h-3.5l12.1-32.2h3.7l12.2,32.2h-3.6l-2.9-8ZM-3614.8-945.7l-6.5-17.8-6.6,17.8h13.1Z"/>
    <polygon class="st4" points="-3566.7 -968 -3566.7 -965.3 -3576.1 -965.3 -3576.1 -935.1 -3579.3 -935.1 -3579.3 -965.3 -3588.7 -965.3 -3588.7 -968 -3566.7 -968"/>
    <polygon class="st4" points="-3542.2 -965.3 -3542.2 -952.9 -3529.3 -952.9 -3529.3 -950.3 -3542.2 -950.3 -3542.2 -937.8 -3527.9 -937.8 -3527.9 -935.1 -3545.5 -935.1 -3545.5 -968 -3527.9 -968 -3527.9 -965.3 -3542.2 -965.3"/>
  </g>
  <g>
    <path class="st14" d="M261.1,61.5L156.1,3.2c-1.8-1-3.7-1.2-5.5-.7v73.4l114.9-.3c6.6-.1,1.5-10.8-4.3-14h0Z"/>
    <path class="st9" d="M145.9,6.1l-32.6,58.8c-2.8,5,.9,11.2,6.7,11.1h30.6V2.5c-1.9.5-3.6,1.7-4.6,3.6h0Z"/>
    <path class="st18" d="M282.3,214.1l.6-120.2c0-2-.8-3.8-2.1-5.2l-64.3,35.3,55.6,100.5c3.3,5.7,10.1-3.9,10.2-10.5"/>
    <path class="st12" d="M275.4,86.4l-67.2-.3c-5.8,0-9.4,6.2-6.5,11.2l14.8,26.8,64.3-35.3c-1.4-1.4-3.3-2.3-5.4-2.3h0Z"/>
    <path class="st18" d="M161.2,303.4l103.3-61.4c1.7-1,2.9-2.6,3.4-4.4l-63.4-36.9-57.6,99.4c-3.2,5.7,8.6,6.7,14.2,3.3h0Z"/>
    <path class="st12" d="M267.2,231.7l-34.3-57.8c-2.9-4.9-10.1-4.9-12.9.2l-15.3,26.5,63.4,36.9c.5-1.9.3-4-.8-5.8h0Z"/>
    <path class="st18" d="M21.7,243.8l105.1,58.4c1.8,1,3.7,1.2,5.5.7v-73.4l-114.9.3c-6.6.1-1.5,10.8,4.3,14h0Z"/>
    <path class="st12" d="M136.9,299.2l32.6-58.8c2.8-5-.9-11.2-6.7-11.1h-30.6v73.4c1.9-.5,3.6-1.7,4.6-3.6h0Z"/>
    <path class="st18" d="M.6,91.2L0,211.4c0,2,.8,3.8,2.1,5.2l64.3-35.3L10.7,80.8c-3.3-5.7-10.1,3.9-10.2,10.5"/>
    <path class="st12" d="M7.4,218.9l67.2.3c5.8,0,9.4-6.2,6.5-11.2l-14.8-26.8L2.1,216.6c1.4,1.4,3.3,2.3,5.4,2.3h0Z"/>
    <path class="st18" d="M121.6,1.9L18.3,63.3c-1.7,1-2.9,2.6-3.4,4.4l63.4,36.9L135.8,5.3c3.2-5.7-8.6-6.7-14.2-3.3h0Z"/>
    <path class="st12" d="M15.7,73.6l34.3,57.8c2.9,4.9,10.1,4.9,12.9-.2l15.3-26.5L14.9,67.8c-.5,1.9-.3,4,.8,5.8h0Z"/>
  </g>
  <rect class="st0" x="-4598.9" y="-2787.2" width="1764" height="2196"/>
  <text class="st3" transform="translate(-4415.2 -1660.8)"><tspan x="0" y="0">REALTOR</tspan></text>
  <text class="st5" transform="translate(-4455.6 -685)"><tspan x="0" y="0">+1 888.991.4496</tspan></text>
</svg>