<?xml version="1.0" encoding="UTF-8"?><svg id="Layer_1" xmlns="http://www.w3.org/2000/svg" width="447.7" height="447.56" viewBox="0 0 447.7 447.56"><defs><style>.cls-1{fill:#0094f7;}.cls-2{opacity:.92;}</style></defs><g id="eFNx5p" class="cls-2"><path class="cls-1" d="M62.56,68.81c29.1-30.12,65.11-51.47,105.9-61.84,122.19-31.04,245.29,44.65,273.5,166.6,17.28,74.71-5.1,151.91-58.09,206.45-91.11,93.78-242,88.99-328.28-8.64C-21.27,284.41-17.94,152.13,62.56,68.81ZM212.52,32.36C112.57,36.78,32.82,122.57,32.01,221.84c-.99,122.58,111.92,215.84,232.48,189.51,130.56-28.51,193.7-179.54,120.02-292.32-38.18-58.44-102.17-89.76-172-86.67Z"/><polygon class="cls-1" points="325.06 223.5 169.22 313.06 169.22 134.86 325.06 223.5"/></g></svg>