<?xml version="1.0" encoding="UTF-8"?>
<svg id="Layer_1" data-name="Layer 1" xmlns="http://www.w3.org/2000/svg" viewBox="0 0 5624 2712.91">
  <defs>
    <style>
      .cls-1 {
        fill: #262324;
      }

      .cls-2 {
        fill: #5b626a;
      }
    </style>
  </defs>
  <path class="cls-1" d="M1602.25,139.01c-.46-.69-1.39-.88-2.09-.42-.44.29-.69.78-.67,1.3v1192.38c0,2.7-2.19,4.9-4.9,4.9h-2.3c-2.36,0-4.27-1.91-4.27-4.27h0V131.44c0-2.54-2.06-4.6-4.6-4.6h-465.03c-1.5,0-2.72,1.22-2.72,2.72v994.87c0,2.29-1.85,4.14-4.14,4.14h-3.1c-2.43,0-4.39-1.97-4.39-4.39h0V119.89c0-2.7,2.19-4.9,4.9-4.9h140.47c1.62,0,2.93-1.31,2.93-2.93h0V3.85C1252.34,1.72,1254.07,0,1256.19,0h286.93c1.86,0,3.58,1.01,4.48,2.64,12.75,23.07,27.88,44.3,45.4,63.69,1.1,1.21,1.71,2.79,1.72,4.44v39.17c0,1.2.38,2.36,1.09,3.31l54.4,72.64c2.28,3.07,3.52,6.78,3.52,10.59v1191.08c0,2.63-2.14,4.77-4.77,4.77h-2.93c-2.15,0-3.89-1.76-3.89-3.93.14-623.47.32-1003.87.54-1141.2.03-14.92-.49-31.34-1.55-49.25-.14-2.35-.93-4.63-2.3-6.57l-36.57-52.35ZM1535.63,13.61c0-1.18-.96-2.13-2.14-2.13l-267.64.47c-1.18,0-2.13.96-2.13,2.14h0s.17,98.84.17,98.84c0,1.18.96,2.13,2.14,2.13l267.64-.47c1.18,0,2.13-.96,2.13-2.14l-.17-98.84ZM1547.6,27.32v84.36c0,1.9,1.54,3.43,3.43,3.43h28.29c1.73,0,3.14-1.4,3.14-3.14,0-.03,0-.06,0-.08l-.67-34.69c-.03-.69-.25-1.35-.63-1.92l-31.55-48.58c-.32-.51-.99-.66-1.5-.34-.33.21-.53.58-.51.97Z"/>
  <path class="cls-1" d="M3646.56,135.66V49.42c0-3.19,2.6-5.77,5.82-5.77h1.09c2.47,0,4.48,1.99,4.48,4.44l.17,88.13c0,1.32,1.07,2.39,2.39,2.39h44.15c1.43,0,2.59-1.16,2.59-2.59V49.42c0-3.61,2.92-6.53,6.53-6.53h1.55c2.31,0,4.18,1.87,4.18,4.18v89.42c0,.97.77,1.76,1.72,1.76h203.28c2.77,0,5.02,2.25,5.02,5.02h0v102.77c0,2.06,1.67,3.72,3.72,3.72h114.74c3.03,0,5.48,2.45,5.48,5.48v155.79c0,1.48,1.2,2.68,2.68,2.68h163.99c1.73,0,3.14,1.41,3.14,3.14v295.22c0,1.25.99,2.26,2.22,2.26h184.29c2.52,0,4.56,2.04,4.56,4.56h0v61.3c0,1.85,1.5,3.35,3.35,3.35h78.59c2.8,0,5.06,2.27,5.06,5.06v119.97c0,2.89-2.34,5.23-5.21,5.22-.29,0-.58-.03-.86-.07l-1.51-.25c-2.71-.49-4.69-2.83-4.69-5.57v-109.17c0-1.71-1.39-3.1-3.1-3.1h-270.61c-2.06,0-3.72-1.67-3.72-3.72h0v-364.68c0-1.11-.9-2.01-2.01-2.01h-154.7c-.83,0-1.51.66-1.51,1.46h0v746.6c0,2.98-2.39,5.4-5.35,5.4-.08,0-.17,0-.25,0l-1.05-.04c-2.88-.11-5.15-2.48-5.15-5.36V263.63c0-1.16-.92-2.09-2.05-2.09h-508.67c-1.5,0-2.72,1.22-2.72,2.72v719.57c0,2.01-1.63,3.64-3.64,3.64h-2.64c-2.47,0-4.48-2-4.48-4.48h0V253.21c0-1.94,1.57-3.51,3.51-3.51h65.28c.79,0,1.42-.64,1.42-1.42v-104.99c0-2.73,2.19-4.94,4.9-4.94h51.34c1.48,0,2.68-1.2,2.68-2.68h0ZM3917.89,152.53c0-1.36-1.11-2.47-2.47-2.47h-313.5c-1.36,0-2.47,1.11-2.47,2.47h0v94.65c0,1.36,1.11,2.47,2.47,2.47h313.5c1.36,0,2.47-1.11,2.47-2.47h0v-94.65ZM4401.78,729.57c0-1.64-1.33-2.97-2.97-2.97h-172.65c-1.64,0-2.97,1.33-2.97,2.97h0v51.14c0,1.64,1.33,2.97,2.97,2.97h172.65c1.64,0,2.97-1.33,2.97-2.97h0v-51.14Z"/>
  <rect class="cls-1" x="1165.43" y="199.89" width="268.9" height="12.14" rx="1.22" ry="1.22"/>
  <rect class="cls-1" x="1164.47" y="291.08" width="179.43" height="12.05" rx="1.34" ry="1.34"/>
  <rect class="cls-1" x="1327.87" y="380.08" width="178.26" height="10.96" rx="1.28" ry="1.28"/>
  <path class="cls-1" d="M2206.54,513.73v478.21c0,1.36-1.11,2.47-2.47,2.47h-6.32c-1.36,0-2.47-1.11-2.47-2.47h0v-465.95c0-1.36-1.11-2.47-2.47-2.47h-375.48c-1.36,0-2.47,1.11-2.47,2.47h0v767.48c0,1.36-1.11,2.47-2.47,2.47h-7.41c-1.36,0-2.47-1.11-2.47-2.47v-779.87c0-1.36,1.11-2.47,2.47-2.47h27.37c1.36,0,2.47-1.11,2.47-2.47v-57.29c0-1.36,1.11-2.47,2.47-2.47h394.85c1.36,0,2.47,1.11,2.47,2.47h0v57.24c0,1.36,1.11,2.47,2.47,2.47h29.08c1.36,0,2.47,1.11,2.47,2.47h0v325.14c0,1.36-1.11,2.47-2.47,2.47h-6.82c-1.36,0-2.47-1.11-2.47-2.47v-313.96c0-1.36-1.11-2.47-2.47-2.47h-28.12c-1.36,0-2.47-1.11-2.47-2.47h0v-55.86c0-1.36-1.11-2.47-2.47-2.47h-372.76c-1.36,0-2.47,1.11-2.47,2.47v44.86c0,1.36,1.11,2.47,2.47,2.47h355.48c1.36,0,2.47,1.11,2.47,2.47h0Z"/>
  <rect class="cls-1" x="1216.32" y="416.53" width="11.97" height="113.65" rx="1.31" ry="1.31" transform="translate(742.55 1693.16) rotate(-89.7)"/>
  <rect class="cls-1" x="1436.04" y="408.12" width="10.04" height="130.14" rx="1.17" ry="1.17" transform="translate(965.37 1913.42) rotate(-89.9)"/>
  <path class="cls-1" d="M3797.54,533.15c36.96-.06,74.08.06,111.35.33,3.05,0,5.52,2.47,5.52,5.52h0v2.05c0,2.2-1.78,3.98-3.98,3.98h0l-105.16.13c-1.17-.02-2.18.81-2.39,1.97-.17.98-.25,8.37-.25,22.18s.08,21.16.25,22.14c.21,1.15,1.22,1.98,2.39,1.97l105.16.17c2.2,0,3.98,1.78,3.98,3.98h0v2.05c0,3.05-2.47,5.52-5.52,5.52-37.3.25-74.41.35-111.35.29-36.96.06-74.08-.06-111.35-.33-3.05,0-5.52-2.47-5.52-5.52v-2.05c0-2.2,1.78-3.98,3.98-3.98l105.16-.13c1.15,0,2.14-.83,2.34-1.97.17-.98.25-8.36.25-22.14.03-13.81-.04-21.2-.21-22.18-.21-1.15-1.22-1.98-2.39-1.97l-105.16-.17c-2.2,0-3.98-1.78-3.98-3.98v-2.05c0-3.05,2.47-5.52,5.52-5.52,37.27-.25,74.39-.35,111.35-.29Z"/>
  <rect class="cls-1" x="1163.76" y="560.22" width="297.35" height="11.21" rx="1.31" ry="1.31"/>
  <rect class="cls-1" x="2003.59" y="643.54" width="11.3" height="308.32" rx="1.33" ry="1.33"/>
  <rect class="cls-1" x="1252.97" y="562.82" width="11.21" height="188.72" rx="1.31" ry="1.31" transform="translate(599.2 1914.61) rotate(-89.9)"/>
  <path class="cls-1" d="M5624,811.76v13.1c-25.94-12.72-50.35-20.2-73.23-22.43-46.2-4.48-94.44,11.42-113.94,56.45-1.11,2.57-4.09,3.74-6.66,2.63-.61-.26-1.16-.65-1.63-1.13l-1.26-1.26c-.71-.74-1.19-1.68-1.38-2.72-5.69-32.51-19.63-75.78-44.11-100.93-19.08-19.63-34.9,6.36-35.48,23.27-.78,22.85,1.37,47.29,6.44,73.31.71,3.72-1.58,7.3-5.12,7.99-.19.04-.38.06-.57.08-2.45.25-4.73-1.06-6.82-3.93-19.33-26.61-45.36-64.4-84.36-54.36-8.75,2.26-12.05,6.4-18.08,13.52-1.75,2.06-4.84,2.32-6.89.59-.82-.69-1.39-1.64-1.61-2.68l-.21-1.05c-.27-1.21-.23-2.48.13-3.68,9.67-32.97,12.26-63.14-5.19-94.24-12.34-22.09-36.28-41.93-62.68-36.45-37.28,7.74-52.01,33.64-65.53,66.91-1.09,2.67-4.15,3.95-6.82,2.86-.95-.39-1.76-1.05-2.34-1.9-11.42-16.82-34.19-38.79-55.78-22.43-13.56,10.25-16.82,27.12-17.95,43.64-.21,2.95-2.77,5.17-5.72,4.97-1.04-.07-2.03-.45-2.86-1.07l-1.55-1.21c-.52-.39-.97-.88-1.3-1.46-24.65-47.12-64.78-80.8-116.25-84.9-74.74-5.98-136.92,46.57-153.4,117.84-6,26.03-6.47,51.75-1.42,77.16.6,3.09-1.42,6.07-4.51,6.67-1.3.25-2.65.04-3.82-.6-41.64-23.14-87.21-19.96-87.46,39.75-.14,25.22,5.71,49.15,17.53,71.81,1.39,2.64.35,5.9-2.31,7.28-1.45.75-3.17.81-4.67.17-49.15-21.51-100.9-30.11-155.25-25.82-43.23,3.39-92.02,24.69-107.88,68.63-10.66,29.54-7.06,58.88,10.8,88,1.12,1.85,3.12,2.97,5.27,2.97h206.59c1.48,0,2.95-.36,4.27-1.05l197.93-102.44c2.18-1.13,4.76-1.13,6.9,0l197.76,103.02c.44.25.93.38,1.42.38l262.45.42c1.82,0,3.37-1.34,3.64-3.14,2.65-18.41,6.39-35.74,11.21-51.97,11.26-37.62,38.41-77.66,81.26-70.8,54.06,8.62,71.39,99.68,78.79,142.27.12.96,1.01,1.64,1.97,1.52.76-.1,1.37-.68,1.5-1.43,3.18-15.09,8.16-28.96,14.94-41.59,12.26-22.76,34.1-43.81,60.01-31.34,33.27,16.07,34.06,67.75,29.29,97.46-.2,1.28.67,2.48,1.95,2.68.48.08.97,0,1.4-.21,19.95-10.29,40.8-15.11,62.56-14.44v11.72c-29.35-.39-53.94,8.62-73.77,27.03-2.17,2.04-5.59,1.93-7.63-.24-1.27-1.36-1.76-3.27-1.28-5.07,8.03-30.63,14.06-85.49-15.73-106.71-18.08-12.85-38.04,9.58-45.65,24.94-12.14,24.49-19.09,50.27-20.88,77.33-.22,3.43-.79,5.77-1.72,7.03-1.42,1.9-3.67,2.44-6.74,1.63-1.96-.54-3.42-2.16-3.72-4.14-5.08-33.25-11.47-64.02-19.17-92.31-9.37-34.48-30.5-98.34-77.62-83.15-43.1,13.89-56.16,79.46-60.38,119.05-.34,3.26-3.09,5.73-6.36,5.73h-242.91c-.69.02-1.24.6-1.22,1.29.01.44.25.83.63,1.05l293.04,154.2c3.06,1.62,4.34,5.33,2.93,8.49-3.91,8.84-6.56,19.61-7.95,32.3-.32,2.76-2.8,4.73-5.56,4.42-.51-.06-1-.19-1.47-.4l-26.07-11.72c-.36-.16-.78,0-.94.35-.04.09-.06.18-.06.27v507.67c0,1.96,1.59,3.56,3.56,3.56h49.5c2.2,0,4.03-1.65,4.27-3.81,2.59-24.02,11.42-110.35,30.46-123.57,20.17-13.93,31.17,17.11,35.28,31.55,7.36,26.14,12.64,57.01,15.82,92.6.17,1.74,1.64,3.06,3.39,3.05l187.97-.13v12.72l-186.67.04c-1.57,0-2.85,1.25-2.86,2.8,0,.09,0,.17.01.26,4.49,57.13,6.97,115.35,7.45,174.66.02.69.6,1.24,1.3,1.21.47-.02.89-.29,1.09-.71,9.76-20.78,22.86-37.88,39.29-51.3,11.88-9.67,30.09-14.94,43.48-6.9,19.33,11.55,18.08,66.07,11.21,84.4-.16.38.02.83.4.99.28.12.59.06.81-.15,2.04-1.81,6.74-4.58,14.1-8.29,13.47-6.74,25.86.46,24.56,15.4-1.34,15.52-11.26,31.38-21.63,44.1-.42.55-.33,1.33.19,1.75.22.17.49.26.77.26l66.49.04v11.63l-4866.22.75c-.97,0-1.77.77-1.77,1.74,0,.21.03.41.1.6,21.03,59.73,22.88,120.44,5.52,182.15-.22.8.25,1.63,1.05,1.85.48.13.99.02,1.37-.3,24.61-20.42,51.71-36.21,81.31-47.37,117.42-44.23,260.74.5,286.51,135.96,3.29,17.32,4.66,33.45,4.1,48.37-.03.83.63,1.53,1.46,1.55.41.01.8-.14,1.09-.42,63.98-64.53,160.18-98.5,245.88-67.5,60.13,21.8,94.53,76.95,105.16,140.01,9.71,57.58,2.16,114.47-22.64,170.69-1.48,3.35-4.79,5.52-8.45,5.52h-1.93c-1.57-.01-2.84-1.3-2.82-2.87,0-.41.1-.82.27-1.19,37.28-81.1,43.94-197.17-21.05-265.97-60.22-63.77-162.49-54.19-231.15-12.97-26.95,16.21-50.1,35.68-69.46,58.42-1.91,2.23-5.3,2.43-7.58.44-.51-.44-.93-.97-1.25-1.56-.95-1.73-1.28-3.64-1-5.73,6.22-47.54-3.47-90.92-29.08-130.14-41.3-63.27-122.73-85.32-194.08-74.44-56.32,8.59-105.55,34.45-147.67,77.58-3.4,3.49-6.76,3.65-10.08.5-1.32-1.29-1.75-3.25-1.09-4.98,43.02-113.23,21.8-249.02-89.55-314.51-46.62-27.41-107.88-33.31-160.6-18.33-77.54,22.01-135.58,91.26-153.45,169.31-12.94,56.52-11.88,114.38,3.18,173.57,4.02,15.79,8.73,31.87,14.14,48.25.99,2.93-.62,6.12-3.6,7.11-.59.2-1.22.3-1.84.3-1.2,0-2.22-.59-3.05-1.76-11.38-16.29-21.75-29.58-31.09-39.88-73.77-81.22-179.98-108-284.97-74.23-9.04,2.93-19.58,8.66-29.67,12.34v-12.43c45.53-20.34,92.25-28.64,140.18-24.9,74.86,5.86,138.21,39.79,187.55,95.74.59.62,1.57.64,2.19.05.39-.37.55-.91.45-1.43-3.12-12.97-6.07-27.23-8.83-42.77-11.47-64.64-5.43-126.08,18.12-184.33.37-.9-.06-1.92-.96-2.29-.21-.09-.44-.13-.68-.13l-338.03.08v-12.18l344.47-.17c1.26,0,2.4-.72,2.93-1.84,39.88-81.01,118.25-131.35,209.56-127.88,85.7,3.26,153.7,50.76,191.69,126.54.97,1.98,2.99,3.23,5.19,3.22h1126.14c.49-.01.87-.42.85-.9,0-.25-.12-.48-.31-.65-22.85-18.12-28.54-31.3-28.29-57.33.38-41.93-.17-83.86.33-125.83,6.08.78,9.12-2.08,9.12-8.58.06-29.1.01-65.63-.13-109.59,0-.49.39-.88.88-.88h.04c.51,0,.92.39.92.88l.29,24.73c-.14,74.32,0,148.65.42,222.99.21,44.57,40.38,59.17,77.96,49.34,61.6-16.11,129.85-79.76,82.81-146.54-2.38-3.36-1.59-8.01,1.77-10.38.04-.03.07-.05.11-.08,39.13-26.66,75.95-67.12,73.31-116.83-1.76-33.39-30-45.53-60.13-39.13-20.71,4.39-36.78,15.65-51.55,30.67-2.04,2.08-5.32,2.24-7.53.38l-.08-.08c-2.19-1.82-2.59-5.02-.92-7.32,19.08-26.45,62.64-43.39,93.9-33.89,34.27,10.42,42.22,40.55,36.41,73.86-7.36,42.26-36.41,69.67-69.21,97-1.65,1.39-2.11,3.75-1.09,5.65,19.36,35.99,16.12,70.5-9.71,103.52-16.88,21.59-38.41,37.4-64.61,47.41-.39.11-.6.51-.47.89.11.32.42.54.76.53h194.08c1.53,0,2.76-1.24,2.76-2.76h0v-477.37c0-1.54-1.22-2.8-2.76-2.85-10.52-.22-17.94-5.58-22.26-16.07-5.94-14.37-16.31-41.08-31.09-80.13-1.15-3.02.38-6.41,3.42-7.56.67-.25,1.38-.38,2.1-.39h46.45c1.5,0,2.72-1.22,2.72-2.72v-409.16c0-1.27-1.03-2.3-2.3-2.3-.04,0-.09,0-.13,0-9.93.53-18.05.7-24.35.5-20.38-.71-29.84-26.66-29.08-43.9.11-2.97,2.57-5.32,5.57-5.31h38.96c1.04,0,2.04-.44,2.76-1.21l318.53-331.41c2.48-2.55,6.55-2.63,9.08-.17.06.05.11.11.16.17l76.62,79.09c1.44,1.5,3.44,2.34,5.52,2.34h561.14c2.06,0,4.03-.85,5.44-2.34l78.21-81.35c1.99-2.09,5.32-2.16,7.42-.15.05.05.1.1.15.15l322.5,332.96c1.47,1.52,3.5,2.38,5.61,2.39h39.42c2.16,0,4,1.58,4.31,3.72.73,5.11-.08,11.58-2.43,19.42-5.36,18.1-17.65,26.6-36.87,25.48-4.85-.28-9.54-.27-14.06.04-1.32.09-2.34,1.17-2.34,2.47v409.04c0,1.25,1.03,2.26,2.3,2.26h52.1c2.77.01,5.02,2.25,5.02,5,0,.56-.1,1.12-.29,1.65-11.13,31.86-24.38,61.83-39.75,89.93-2.76,5.02-8.22,7.99-16.36,8.91-1.47.17-2.59,1.43-2.59,2.93v477.75c0,.53.43.96.96.96h53.27c1.22.01,2.22-.99,2.23-2.24,0-.09,0-.18-.01-.27-4.44-34.27,2.47-72.81,40.21-83.4,24.63-6.92,45.22-1.41,61.76,16.53.94,1.02,2.53,1.08,3.55.13.05-.04.09-.09.13-.13,4.6-5.02,8.79-12.51,13.47-16.74,38.75-35.23,101.18-44.94,144.28-10.59,1.02.8,2.48.63,3.27-.37.04-.06.08-.11.12-.17,29.04-44.15,70.84-56.87,124.49-81.39,20.09-9.16,51.76-32.35,57.87-55.78,7.7-29.75-19.08-39.54-43.06-45.28-29.17-6.99-79.63-12.8-117.71-28.83-24.91-10.46-38.05-29.49-39.42-57.08-1.46-29.84,17.11-51.09,43.9-60.51,1.01-.34,1.55-1.43,1.21-2.44-.09-.28-.25-.53-.46-.74-27.41-27.99-29.79-76.41,18.33-84.11.61-.11,1.03-.69.92-1.31-.06-.36-.3-.67-.63-.83-23.01-10.34-39.08-38.25-20.71-61.43,3.07-3.88,7.7-8.37,13.89-13.47.74-.63.82-1.74.19-2.48-.22-.25-.5-.44-.82-.53-44.65-13.26-77.04-46.53-77.62-94.53-.71-57.83,36.49-111.6,82.85-144.2,61.34-43.18,132.12-64,212.32-62.43.94,0,1.77.61,2.05,1.51.92,2.93,1.23,5.41.92,7.45-.19,1.36-1.37,2.36-2.76,2.34-58.39-1.14-113.65,10.92-165.79,36.2-50.76,24.6-102.52,73.23-114.66,130.93-9.12,43.49,4.51,76.87,40.88,100.14,6.44,4.1,20.71,10.17,42.81,18.2.94.36,1.84.85,2.68,1.46.47.36.88.78,1.21,1.26,1.96,2.89,1.18,6.83-1.75,8.8-.61.41-1.3.72-2.02.9-26.15,6.78-43.98,36.45-15.57,55.4,8.2,5.44,17.05,9.11,26.53,11.01,23.24,4.6,43.45,8.22,60.63,10.84,3.04.47,5.11,3.32,4.64,6.36-.01.07-.02.14-.04.21l-.13.59c-.59,2.88-3.32,4.81-6.23,4.39-17.38-2.51-35.19-4.87-53.44-7.07-22.6-2.76-58.04,1.46-55.82,31.76,1.59,21.38,14.35,31.76,24.52,43.44,1.81,2.04,1.61,5.16-.43,6.97-.46.41-1,.73-1.58.94-25.86,9.58-47.41,20.5-48.33,51.93-.75,24.52,13.73,42.56,36.53,51.39,33.39,12.93,53.98,14.52,104.32,24.23,28.87,5.57,60.42,15.78,61.47,50.67,1.55,51.13,40.42,65.11,84.4,58.5,15.23-2.32,32.07-5.54,50.51-9.67.9-.2,1.55-1,1.55-1.93.33-160.46.24-323.91-.29-490.34,0-6.19-1.13-9.9-3.39-11.13-1.29-.85-1.67-2.57-.88-3.89l2.3-3.68c.19-.3.32-.65.38-1l49.92-273.25c.53-2.98,3.12-5.15,6.15-5.15h138.05c.51-.01.92-.42.92-.9,0-.15-.04-.3-.12-.44-15.23-26.11-19.19-54.33-11.88-84.65,12.26-50.88,67.16-80.64,116.75-85.87,50.66-5.33,99.95,1.28,147.88,19.83.37.14.78-.04.92-.41.06-.17.06-.35,0-.51-18.2-47.62-23.31-132.19,52.68-124.57,7.57.75,21.34,6.15,26.4,5.73,1.45-.13,2.52-1.41,2.39-2.86,0,0,0-.02,0-.02-7.83-83.82,34.73-161.61,116.92-185.79,45.39-13.36,87.79-6.12,127.21,21.72,14.31,10.08,31.47,31.51,42.6,46.36.56.77,1.64.92,2.41.34.36-.27.6-.66.69-1.1,7.36-42.31,54.86-49.46,81.31-19.46.89,1.03,2.45,1.14,3.48.24.29-.25.51-.56.66-.91,27.62-64.19,104.03-84.28,143.66-16.4,13.03,22.26,16.74,49.54,11.13,81.85-.18,1,.48,1.96,1.48,2.14.33.06.67.03.99-.09,32.72-12.68,64.06,8.33,83.94,34.02.56.73,1.24,1.2,2.05,1.42,1.12.3,2.26-.38,2.56-1.51.08-.31.09-.64.03-.95-5.15-25.86-6.11-59.84,11.8-79.92,13.98-15.73,32.85-7.2,45.44,5.61,20.21,20.5,31.93,55.65,38.96,83.9.21.88,1.1,1.41,1.99,1.19.35-.09.66-.28.9-.56,46.45-57.91,127.29-53.56,188.18-23.14ZM2901,1068.94c-.65.66-.64,1.72.02,2.37.31.3.72.47,1.15.48h618.05c.92-.01,1.66-.77,1.65-1.7,0-.43-.18-.84-.48-1.15l-308.99-317.31c-.64-.67-1.7-.7-2.37-.06-.02.02-.04.04-.06.06l-308.99,317.31ZM2477.07,752.5c-.79-.81-2.09-.82-2.9-.03,0,0-.02.02-.03.03l-303.71,316.02c-.79.82-.76,2.11.05,2.9.38.37.88.57,1.41.57h616.05c1.13,0,2.05-.93,2.04-2.06,0-.53-.21-1.03-.57-1.41l-312.33-316.02ZM2845.1,1071.87c22.82-.06,35.02-.14,36.61-.25.84-.08,1.63-.46,2.22-1.09l230.61-237.6c.19-.21.17-.52-.04-.71-.08-.07-.19-.12-.3-.13-125.03-.22-214.86-.29-269.48-.21s-144.45.43-269.48,1.05c-.28,0-.5.22-.5.5,0,.15.06.28.17.38l231.36,236.84c.6.62,1.41.99,2.26,1.05,1.56.14,13.75.2,36.57.17ZM4810.15,1072.87c1.34,0,2.36.18,3.05.54,116.04,60.05,220.52,117.42,319.95,168.09.36.17,60.17,31.41,179.43,93.73,2.27,1.2,5.08.33,6.28-1.94.22-.42.38-.86.46-1.33l2.3-12.68c.62-3.41-1.04-6.83-4.1-8.45-79.55-42.22-167.84-86.16-248.27-130.68-14.76-8.17-44.22-23.59-88.38-46.24-40.59-20.81-96.31-49.78-167.17-86.91-.95-.5-2.12-.75-3.51-.75s-2.59.24-3.51.71c-70.91,37.07-126.68,66-167.3,86.79-44.16,22.6-73.63,37.98-88.42,46.16-80.47,44.44-168.8,88.29-248.39,130.43-3.05,1.62-4.7,5.01-4.1,8.41l2.3,12.72c.47,2.52,2.89,4.19,5.41,3.72.46-.09.91-.24,1.33-.46,119.31-62.21,179.15-93.4,179.52-93.57,99.47-50.55,204-107.84,320.12-167.76.7-.36,1.7-.54,3.01-.54ZM2846.9,1084.63c-280.99,0-529.26-1-723.71-.59-2.73,0-4.94,2.21-4.94,4.93,0,.79.19,1.56.55,2.26l5.4,10.25c2.22,4.2,6.57,6.82,11.3,6.82,237.26-.06,474.41-.15,711.45-.29,237.01.11,474.15.17,711.41.17,4.73,0,9.08-2.62,11.3-6.82l5.4-10.25c1.27-2.41.35-5.4-2.07-6.67-.72-.38-1.52-.57-2.33-.57-194.45-.33-442.72.71-723.76.75ZM4242.31,1170.91c-19.63,106.25-33.64,179.22-40.8,234.04-.92,7.03-1.41,14.94-1.46,23.73-.78,213.83-.92,381.99-.42,504.49-.02,2-1.41,3.73-3.35,4.18-51.01,10.88-126.29,34.52-151.98-31.01-.39-.99-1.49-1.49-2.46-1.12-.28.1-.52.27-.72.49-4.06,4.44-7.28,9.96-12.09,15.02-16.26,17.3-35.99,30.55-59.17,39.75-43.73,17.37-105.03,42.81-110.89,92.27-.34,2.76-2.55,4.92-5.31,5.19l-.54.08c-2.5.32-4.79-1.44-5.11-3.94-.02-.15-.03-.3-.04-.46l-.38-13.18c-.03-1.55-.71-3.02-1.88-4.06-14-12.36-28.68-19.15-44.02-20.38-50.58-4.1-86.31,15.94-107.21,60.13-1.27,2.6-4.4,3.67-7,2.4-1.68-.82-2.79-2.47-2.92-4.33-1.17-18.29-15.44-27.91-32.51-29.46-46.78-4.18-56.87,36.24-53.48,74.57.09,1.21,1.09,2.14,2.3,2.13h413.97c.79,0,1.42-.63,1.43-1.42,0-.34-.12-.67-.34-.92-9.6-11.19-14.21-23.85-13.85-38,1.13-43.14,47.7-42.14,72.73-22.81,9.15,7.09,17.84,14.91,26.07,23.48.55.55,1.45.57,2.01.04.4-.38.53-.95.33-1.47-2.87-8.23-3.95-16.18-3.22-23.85.4-4.23,4.16-7.34,8.4-6.93.26.02.51.06.77.11,7.34,1.48,14.44,4.88,21.3,10.21.72.58,1.78.45,2.36-.3.27-.34.4-.77.36-1.21-.75-8.65-1.1-16.77-1.05-24.35.29-35.48,30.88-56.57,63.94-42.01,24.1,10.63,35.19,41.26,41.85,65.78.21.83,1.06,1.33,1.9,1.1.39-.1.72-.35.94-.68.45-.67,3.05-4.83,7.83-12.47,11.49-18.36,27.87-30.51,49.13-36.45,37.95-10.63,95.03-3.56,92.27,47.7-.07,1.22.87,2.27,2.09,2.34.04,0,.09,0,.13,0h183.37c1.74,0,3.2-1.3,3.39-3.01,1.45-11.86,7.28-20.16,17.49-24.9,32.89-15.23,61.18-8.62,93.4,5.4,1.17.5,6.39.8,15.65.88.9.02,1.65-.69,1.67-1.59,0-.01,0-.03,0-.04v-265.63c0-2.84,2.3-5.15,5.15-5.15h126.92c3.26,0,5.9,2.62,5.9,5.86h0v264.88c0,1.13.91,2.05,2.04,2.06.06,0,.12,0,.17,0l23.6-1.38c1.4-.08,2.75-.53,3.93-1.3,15.54-9.82,33.17-13.93,52.89-12.34,23.52,1.88,52.1,3.93,51.22,33.1-.07,1.64,1.2,3.02,2.84,3.09.04,0,.09,0,.13,0h213.12c.96,0,1.76-.77,1.8-1.76,2.26-45.49,42.01-60.05,81.51-54.23,1.67.25,3.23-.91,3.48-2.6.02-.15.03-.3.03-.45v-661.91c0-3.06-1.69-5.87-4.39-7.28l-465.36-244.88c-1.55-.81-3.41-.81-4.98,0l-466.24,244.92c-1.91,1.01-3.1,2.97-3.1,5.11v316.89c0,1.69,1.39,3.05,3.1,3.05h516.45c1.54,0,3.05.37,4.39,1.09,29.54,15.59,55.64,30.02,78.29,43.27,9.37,5.48,20.55,8.91,30.25,12.85,2.61,1.06,4.31,3.59,4.31,6.4v27.95c0,2.87-2.32,5.19-5.19,5.19h-16.99c-1.27,0-2.3,1.03-2.3,2.3h0v220.32c0,2.03-1.63,3.68-3.64,3.68h-3.98c-2.52,0-4.56-2.04-4.56-4.56v-221.57c0-.39-.32-.71-.71-.71h-20.71c-.6,0-1.09.47-1.09,1.05v193.03c0,2.63-2.14,4.77-4.77,4.77h-1.13c-3.44,0-6.23-2.77-6.23-6.19v-191.99c0-.39-.3-.71-.67-.71h-22.97c-.6,0-1.09.49-1.09,1.09h0s.17,220.02.17,220.02c.02,3.12-2.51,5.67-5.65,5.69-.03,0-.06,0-.08,0h-.29c-3.16-.05-5.69-2.62-5.69-5.77l-.04-218.43c0-1.06-.86-1.92-1.92-1.92h-180.19c-1.34,0-2.43,1.09-2.43,2.43v220.27c0,2.5-2.02,4.52-4.52,4.52h-1.47c-3.19,0-5.77-2.59-5.77-5.77h0v-220.69c0-.6-.49-1.09-1.09-1.09h-20.88c-.46,0-.84.37-.84.84v192.28c0,2.51-1.91,4.62-4.44,4.85l-2.3.25c-2.81.28-5.31-1.77-5.58-4.58-.02-.16-.02-.32-.02-.49v-192.66c0-.42-.32-.75-.71-.75h-22.6c-.55,0-1,.47-1,1.05v219.35c0,2.89-2.34,5.23-5.23,5.23h-1.8c-2.7,0-4.9-2.19-4.9-4.9h0v-218.43c0-1.04-.86-1.88-1.92-1.88h-280.49c-1.92,0-3.47,1.56-3.47,3.47v191.44c0,2.59-2.01,4.74-4.6,4.9l-1.55.13c-2.93.18-5.45-2.02-5.64-4.93,0-.11-.01-.23-.01-.35v-193.83c0-.46-.36-.84-.79-.84h-21.89c-.37,0-.67.3-.67.67h0v193.91c0,2.59-2.05,4.72-4.64,4.81l-1.55.04c-3.07.09-5.64-2.34-5.73-5.44,0-.06,0-.11,0-.17v-192.7c0-1.13-.92-2.05-2.05-2.05h-30.55c-1.85,0-3.35-1.5-3.35-3.35h0v-31.97c0-1.73.95-3.31,2.47-4.1l90.68-47.66c1.36-.71,2.21-2.13,2.22-3.68v-320.03c.02-.74-.57-1.35-1.31-1.37-.23,0-.46.05-.66.16l-24.23,12.72c-2.33,1.24-5.21.35-6.45-1.97-.3-.56-.48-1.17-.54-1.79-1.2-12.02-4.42-23.1-9.67-33.23-1.09-2.16-1.51-4.59-1.21-6.99.71-5.11.88-8.12-.67-13.27-16.04-53.51-28.26-95.02-36.66-124.53-.19-.57-.8-.88-1.37-.7-.36.12-.63.41-.72.78ZM3520.98,1122.5c0-1.27-1.03-2.3-2.3-2.3h-1343.48c-1.27,0-2.3,1.03-2.3,2.3v18.33c0,1.27,1.03,2.3,2.3,2.3h1343.48c1.27,0,2.3-1.03,2.3-2.3v-18.33ZM4581.51,1150.07c-.06-.06-.13-.18-.21-.38-.05-.17-.35-.29-.71-.29l-328.53-.17c-1.13,0-2.06.9-2.07,2.04,0,.22.03.44.1.64l44.73,146.17c.3,1,1.35,1.56,2.34,1.27.12-.03.23-.08.34-.14l283.96-148.3c.24-.1.33-.38.22-.63-.04-.08-.1-.16-.18-.21ZM3517.85,1154.97h-1343.57c-.79,0-1.42.62-1.42,1.38v374.6c0,1.71,1.39,3.1,3.1,3.1h440.3c1.09,0,2.15-.32,3.05-.92l39.92-25.94c.39-.28.48-.83.2-1.23-.15-.21-.4-.35-.66-.36h-115.33c-2.43,0-4.39-1.99-4.39-4.44v-2.97c0-3.3,2.68-5.98,5.98-5.98h11.26c1.5,0,2.72-1.22,2.72-2.72v-255.8c0-2.29-1.86-4.14-4.15-4.14-.18,0-.36.01-.54.04-1.84.25-3.68-.08-5.52-1-.63-.31-1.08-.9-1.21-1.59l-7.7-36.78c-.51-2.47,1.08-4.88,3.55-5.39.31-.06.62-.09.93-.09h217.01c1.71-.01,3.11,1.36,3.12,3.07,0,.22-.02.44-.06.65-4.02,20.7-6.08,32.12-6.19,34.27-.17,3.04-3.22,5.65-9.16,7.83-1.55.55-2.59,2.01-2.59,3.64v211.7c-.02,1.09.84,1.98,1.93,2,.4,0,.79-.11,1.12-.33l95.37-62.01c2.62-1.7,6-1.7,8.62,0,38.83,25.19,67.96,44.17,87.37,56.95,1.2.78,2.29.66,3.26-.38.14-.14.21-.95.21-2.43.31-93.51.33-161.51.08-204-.03-2.67-1.38-5.13-3.6-6.57l-3.56-2.26c-1.07-.7-1.83-1.8-2.09-3.05l-7.41-35.4c-.37-1.74.74-3.45,2.48-3.82.22-.05.44-.07.66-.07h218.47c1.57,0,2.85,1.27,2.85,2.84,0,.17-.01.34-.04.5l-6.9,37.87c-.26,1.34-1.3,2.4-2.64,2.68l-6.65,1.42c-1.72.34-2.96,1.84-2.97,3.6v257.64c0,.81.64,1.46,1.42,1.46h12.14c2.82,0,5.1,2.27,5.1,5.06v1.26c0,3.4-2.77,6.15-6.19,6.15h-103.65c-.81.01-1.45.68-1.44,1.49,0,.48.25.92.64,1.19l39.33,25.27c1.37.87,2.96,1.34,4.6,1.34h433.64c.65,0,1.17-.52,1.17-1.17h0v-376.19c0-1.09-.88-1.97-1.97-1.97h0ZM2751.41,1199.12c.18-1.05-.51-2.05-1.56-2.23-.11-.02-.21-.03-.32-.03h-194.87c-1.06,0-1.92.87-1.92,1.93,0,.12.01.25.04.37l3.56,17.2c.18.9.97,1.55,1.88,1.55h188.18c.93,0,1.72-.68,1.88-1.59l3.14-17.2ZM2944.69,1216.65c.16.75.82,1.29,1.59,1.3h186.67c.78,0,1.45-.57,1.59-1.34l3.26-17.83c.16-.89-.43-1.74-1.31-1.9-.09-.02-.18-.03-.28-.03h-193.66c-.9,0-1.63.74-1.62,1.64,0,.11.01.22.03.33l3.72,17.83ZM2595.45,1256.11c0-1.23.99-2.22,2.22-2.22h109.47c1.23,0,2.22.99,2.22,2.22v214.42c-.02,1.22.96,2.23,2.19,2.25.49,0,.98-.15,1.37-.45l21.09-15.78c.56-.43.89-1.09.88-1.8v-222.87c0-1.23-.99-2.22-2.22-2.22h-159.51c-1.22,0-2.22.99-2.22,2.22v258.65c0,1.22.99,2.22,2.22,2.22h20.09c1.22,0,2.22-.99,2.22-2.22h0v-234.42ZM2956.11,1450.98c0,.68.35,1.31.92,1.67l20.92,13.43c.93.6,2.18.33,2.78-.6.21-.32.32-.69.32-1.07v-208.47c0-1.11.9-2.01,2.01-2.01h110.39c1.11,0,2.01.9,2.01,2.01v234.38c0,1.11.9,2.01,2.01,2.01h22.05c1.11,0,2.01-.9,2.01-2.01v-258.39c0-1.11-.9-2.01-2.01-2.01h-161.4c-1.11,0-2.01.9-2.01,2.01v219.06ZM2697.89,1266.86c0-.99-.81-1.8-1.8-1.8h-87.29c-.99,0-1.8.81-1.8,1.8v101.85c0,.99.81,1.8,1.8,1.8h87.29c.99,0,1.8-.81,1.8-1.8h0v-101.85ZM3083.11,1267.54c0-1.06-.87-1.92-1.93-1.92h0l-86.54.3c-1.06,0-1.92.87-1.92,1.93h0s.35,100.76.35,100.76c0,1.06.87,1.92,1.93,1.92h0l86.54-.3c1.06,0,1.92-.87,1.92-1.93h0s-.35-100.76-.35-100.76ZM2696.34,1381.35h-86.33c-1.48,0-2.68,1.2-2.68,2.68v106.58c0,.83.66,1.51,1.46,1.51,27.14.45,49.75.32,67.83-.38,3.91-.14,10.36-3.33,19.37-9.58,1.34-.94,2.13-2.49,2.13-4.14v-94.82c0-1.02-.81-1.84-1.8-1.84ZM3018.63,1492.28c.33.19.71.29,1.09.29h61.72c1.2,0,2.18-.97,2.18-2.18v-107.12c0-1.2-.97-2.18-2.18-2.18h-86.62c-1.2,0-2.18.97-2.18,2.18h0v92.77c0,.78.42,1.49,1.09,1.88l24.9,14.35ZM3150.32,1591.29l-299.82-192.53c-1.28-.82-2.93-.82-4.23,0l-294.59,191.57c-.79.49-1.03,1.52-.54,2.3.31.5.87.81,1.46.79h21.34c2.17,0,3.93,1.78,3.93,3.98h0v3.39c0,2.33-1.89,4.23-4.23,4.23h-425.48c-2.43-.02-4.41,1.93-4.43,4.36,0,.86.24,1.7.7,2.42l5.06,7.78c2.8,4.28,7.55,6.86,12.64,6.86h1372.52c2.74,0,5.31-1.4,6.82-3.72l8.58-13.35c.83-1.33.43-3.09-.91-3.92-.44-.28-.96-.43-1.48-.43l-421.63-.21c-3.54,0-6.49-2.72-6.78-6.28l-.04-.17c-.14-3.02,2.2-5.59,5.22-5.73.13,0,.26,0,.38,0l24.9.54c.57,0,1.05-.47,1.06-1.02,0-.35-.17-.68-.47-.86ZM2138.75,1591.88c.23.53.76.88,1.34.88h386.48c.28,0,.56-.09.8-.25l67.2-43.69c.67-.45.85-1.36.39-2.03-.27-.4-.71-.64-1.19-.64h-472.52c-.81,0-1.46.66-1.46,1.47,0,.2.04.4.12.58l18.83,43.69ZM3576.35,1548.23c.37-.8.02-1.74-.77-2.11-.22-.1-.45-.15-.69-.15h-468.37c-.88.01-1.58.73-1.57,1.61,0,.53.28,1.03.73,1.32l67.87,43.6c.25.16.54.25.84.25h380.88c.63,0,1.2-.35,1.46-.92l19.63-43.6ZM2634.83,1641.11c0-1.57-1.27-2.85-2.84-2.85h0l-74.32-.13c-1.57,0-2.85,1.27-2.85,2.84h0s-.42,243.2-.42,243.2c0,1.57,1.27,2.85,2.84,2.85h0l74.32.13c1.57,0,2.85-1.27,2.85-2.84h0s.42-243.2.42-243.2ZM2851.17,1655.06c23.32,0,51.34-.13,84.07-.38,1.11-.02,2.03.86,2.05,1.97,0,.01,0,.03,0,.04v345.68c0,1.43,1.16,2.59,2.59,2.59h72.56c1.2,0,2.18-.99,2.18-2.22v-362.04c0-1.5-1.2-2.72-2.68-2.72-.01,0-.03,0-.04,0-20.59.22-74.16.32-160.73.29-86.56-.03-140.14-.15-160.73-.38-1.48,0-2.68,1.22-2.68,2.72l-.25,362.05c0,1.22.97,2.22,2.18,2.22l72.56.04c1.43,0,2.59-1.16,2.59-2.59l.21-345.68c-.02-1.11.86-2.03,1.97-2.05.03,0,.06,0,.08,0,32.72.31,60.75.46,84.07.46ZM3057.8,1640.58c0-1.34-1.09-2.43-2.43-2.43h-26.53c-1.34,0-2.43,1.09-2.43,2.43h0v478.63c0,1.34,1.09,2.43,2.43,2.43h26.53c1.34,0,2.43-1.09,2.43-2.43h0v-478.63ZM3144.33,1640.54c0-1.36-1.11-2.47-2.47-2.47h-69.55c-1.36,0-2.47,1.11-2.47,2.47h0v243.54c0,1.36,1.11,2.47,2.47,2.47h69.55c1.36,0,2.47-1.11,2.47-2.47v-243.54ZM3302.68,1680.13c59.2,0,93.89-.03,104.07-.08,2.13-.02,3.87,1.66,3.89,3.77,0,.01,0,.03,0,.04v200.77c0,.97.79,1.76,1.76,1.76h35.23c.99,0,1.8-.79,1.8-1.76h0v-243.92c0-1.09-.89-1.99-2.01-2.01-31.08-.45-79.32-.68-144.74-.71-65.42-.03-113.67.17-144.74.59-1.12.02-2.01.92-2.01,2.01l-.21,243.92c0,.97.81,1.76,1.8,1.76l35.23.04c.97,0,1.76-.79,1.76-1.76l.17-200.77c-.02-2.1,1.68-3.83,3.81-3.85.03,0,.06,0,.08,0,10.18.11,44.89.18,104.11.21ZM3519.9,1640.19c0-1.36-1.1-2.47-2.46-2.47h0l-17.49-.03c-1.36,0-2.47,1.1-2.47,2.46h0s-.43,244.38-.43,244.38c0,1.36,1.1,2.47,2.46,2.47l17.49.03c1.36,0,2.47-1.1,2.47-2.46l.43-244.38ZM2196.92,1641.38c0-1.46-1.18-2.64-2.64-2.64h-16.82c-1.46,0-2.64,1.18-2.64,2.64h0v242.62c0,1.46,1.18,2.64,2.64,2.64h16.82c1.46,0,2.64-1.18,2.64-2.64h0v-242.62ZM2233.62,1640.65c0-1.09-.88-1.97-1.96-1.97l-20.84-.04c-1.09,0-1.97.88-1.97,1.96h0s-.43,243.96-.43,243.96c0,1.09.88,1.97,1.96,1.97l20.84.04c1.09,0,1.97-.88,1.97-1.96l.43-243.96ZM2394.26,1680.13c66.59-.06,101.54.03,104.86.25,1.51.09,2.68,1.34,2.68,2.85v201.36c0,1.13.9,2.05,2.01,2.05h37.7c.99,0,1.8-.81,1.8-1.8h0v-243.96c0-1.37-1.1-2.49-2.47-2.51-14.14-.08-63.02-.08-146.63,0s-132.48.18-146.63.29c-1.35.02-2.45,1.11-2.47,2.47l.42,243.96c0,.99.81,1.8,1.8,1.8l37.7-.04c1.11,0,2.01-.92,2.01-2.05h0l-.38-201.36c-.03-1.52,1.16-2.8,2.68-2.89,3.32-.22,38.29-.36,104.91-.42ZM2676.46,1641.63c0-1.48-1.2-2.68-2.68-2.68h-25.11c-1.48,0-2.68,1.2-2.68,2.68v477.87c0,1.48,1.2,2.68,2.68,2.68h25.11c1.48,0,2.68-1.2,2.68-2.68h0v-477.87ZM3485.75,1640.98c0-1.04-.85-1.88-1.89-1.88l-20.67.04c-1.04,0-1.88.85-1.88,1.89l.43,243.79c0,1.04.85,1.88,1.89,1.88l20.67-.04c1.04,0,1.88-.85,1.88-1.89l-.43-243.79ZM2924.76,1668.08c0-1.27-1.03-2.3-2.3-2.31h0l-144.45-.25c-1.27,0-2.3,1.03-2.31,2.3h0s-.06,31.72-.06,31.72c0,1.27,1.03,2.3,2.3,2.31h0l144.45.25c1.27,0,2.3-1.03,2.31-2.3h0l.06-31.72ZM4597.79,1709.84c221.67-.08,333.05-.07,334.13.04.25.02.47-.18.49-.43.01-.16-.06-.32-.2-.41l-74.36-40c-1.45-.79-3.08-1.19-4.73-1.17-8.23.03-93.36.08-255.38.17-162.02.06-247.14.07-255.34.04-1.65-.02-3.28.38-4.73,1.17l-74.32,40.05c-.23.1-.34.37-.25.6.08.2.29.31.5.28,1.12-.14,112.51-.25,334.18-.33ZM2389.35,1694.44c0-1.83-1.49-3.3-3.31-3.3h0l-84.03.15c-1.83,0-3.3,1.49-3.3,3.31h0s.19,107.46.19,107.46c0,1.83,1.49,3.3,3.31,3.3h0l84.02-.15c1.83,0,3.3-1.49,3.3-3.31h0s-.19-107.46-.19-107.46ZM2490.47,1694.98c0-2.17-1.75-3.94-3.93-3.94l-81.35-.14c-2.17,0-3.94,1.75-3.94,3.93l-.19,106.45c0,2.17,1.75,3.94,3.93,3.94h0l81.35.14c2.17,0,3.94-1.75,3.94-3.93h0s.19-106.45.19-106.45ZM3296.69,1694.15c0-1.73-1.41-3.14-3.14-3.14h-83.86c-1.73,0-3.14,1.41-3.14,3.14v108.3c0,1.73,1.41,3.14,3.14,3.14h83.86c1.73,0,3.14-1.41,3.14-3.14h0v-108.3ZM3398.24,1694.28c0-1.73-1.41-3.14-3.14-3.13h0l-83.86.15c-1.73,0-3.14,1.41-3.13,3.14h0l.19,108.04c0,1.73,1.41,3.14,3.14,3.13h0l83.86-.15c1.73,0,3.14-1.41,3.13-3.14h0l-.19-108.04ZM2925.19,1714.9c0-.95-.77-1.71-1.72-1.71h0l-146.04.25c-.95,0-1.71.77-1.71,1.72l.5,287.73c0,.95.77,1.71,1.72,1.71h0l146.04-.25c.95,0,1.71-.77,1.71-1.72h0l-.5-287.73ZM4961.84,1723.1c0-1.16-.94-2.09-2.09-2.09h-716.73c-1.16,0-2.09.94-2.09,2.09v15.32c0,1.16.94,2.09,2.09,2.09h716.73c1.16,0,2.09-.94,2.09-2.09v-15.32ZM5364.43,2121.51h175.37c1.34,0,2.59-.64,3.35-1.72,7.07-9.83,24.77-35.61,23.18-44.94-.5-2.96-3.32-4.95-6.3-4.45-.74.13-1.44.4-2.07.81-8.29,5.41-16.84,14.06-25.65,25.94-2.26,3.04-3.91,4.78-4.94,5.23-3.16,1.39-6.83-.07-8.21-3.24-.6-1.38-.69-2.93-.24-4.37,7.28-23.32,11.13-45.67,11.55-67.04.38-18.79-4.35-46.74-30.25-33.35-26.36,13.6-43.77,45.9-57.12,76.41-1.09,2.48-2.8,3.92-5.15,4.31-3.81.65-7.41-2.02-8.06-5.97-.07-.42-.1-.85-.1-1.27.53-71.53-2.12-140.63-7.95-207.3-2.73-31.05-7.35-61.99-13.85-92.81-2.45-11.66-6.5-22.71-12.14-33.14-1.18-2.22-3.95-3.07-6.17-1.88-.45.24-.85.55-1.19.92-7.87,8.41-13.93,33.81-16.07,47.7-11.16,72.03-16.44,140.21-15.86,204.54.36,42.12,2.09,86.51,5.19,133.15.09,1.39,1.26,2.47,2.68,2.47ZM4833.38,1779.22c0-1.11-.9-2.01-2.01-2.01h-110.39c-1.11,0-2.01.9-2.01,2.01v256.26c0,1.11.9,2.01,2.01,2.01h110.39c1.11,0,2.01-.9,2.01-2.01h0v-256.26ZM2389.06,1818.93c0-1.36-1.11-2.47-2.47-2.46h0l-85.28.15c-1.36,0-2.47,1.11-2.46,2.47l.11,64.78c0,1.36,1.11,2.47,2.47,2.46h0l85.28-.15c1.36,0,2.47-1.11,2.46-2.47l-.11-64.78ZM2490.53,1818.85c0-1.34-1.09-2.43-2.43-2.42h0l-84.86.15c-1.34,0-2.43,1.09-2.42,2.43l.11,64.94c0,1.34,1.09,2.43,2.43,2.42l84.86-.15c1.34,0,2.43-1.09,2.42-2.43l-.11-64.94ZM3296.65,1818.34c0-1.04-.84-1.88-1.88-1.88h-86.45c-1.04,0-1.88.84-1.88,1.88h0v66.03c0,1.04.84,1.88,1.88,1.88h86.45c1.04,0,1.88-.84,1.88-1.88h0v-66.03ZM3398.94,1818.97c0-1.32-1.06-2.39-2.38-2.39l-85.87-.15c-1.32,0-2.39,1.06-2.39,2.38l-.11,64.86c0,1.32,1.06,2.39,2.38,2.39h0l85.87.15c1.32,0,2.39-1.06,2.39-2.38l.11-64.86ZM5350,2118.75c-.86-7.06-1.44-12.9-1.72-17.53-4.91-86.06-4.44-164.62,1.42-235.67.14-1.61-1.06-3.03-2.67-3.17-.09,0-.17-.01-.26-.01h-50.3c-1.34,0-2.43,1.07-2.43,2.39v150.35c0,2.13-1.72,3.85-3.85,3.85-.43,0-.85-.07-1.26-.21-34.4-12.18-87-1.17-78.84,47.33.44,2.64-1.35,5.14-3.99,5.58-.26.04-.52.06-.78.07h-233.79c-2.5,0-4.52-2.02-4.52-4.52v-14.39c0-4.91-3.11-9.27-7.74-10.88-21.72-7.49-80.13-15.23-81.56,20.92-.87,22.4,4.3,41.25,15.48,56.53.97,1.34,2.53,2.13,4.18,2.13h450.13c1.36,0,2.48-1.09,2.49-2.45,0-.1,0-.21-.02-.31ZM2196.58,1900.28c0-1.41-1.14-2.55-2.55-2.55h-16.82c-1.41,0-2.55,1.14-2.55,2.55v101.18c0,1.41,1.14,2.55,2.55,2.55h16.82c1.41,0,2.55-1.14,2.55-2.55h0v-101.18ZM2233.57,1900.74c0-1.57-1.27-2.85-2.85-2.85h-19.67c-1.57,0-2.85,1.27-2.85,2.85v100.18c0,1.57,1.27,2.85,2.85,2.85h19.67c1.57,0,2.85-1.27,2.85-2.85h0v-100.18ZM3144.71,1900.57c0-1.43-1.16-2.59-2.59-2.59h-69.38c-1.43,0-2.59,1.16-2.59,2.59v100.93c0,1.43,1.16,2.59,2.59,2.59h69.38c1.43,0,2.59-1.16,2.59-2.59v-100.93ZM2286.83,1899.78c0-.9-.74-1.63-1.64-1.63h0l-38.66.14c-.9,0-1.63.74-1.63,1.64h0s.36,102.1.36,102.1c0,.9.74,1.63,1.64,1.63h0l38.66-.14c.9,0,1.63-.74,1.63-1.64h0s-.36-102.1-.36-102.1ZM2336.97,1901.15c0-1.53-1.24-2.76-2.76-2.76h-32.89c-1.53,0-2.76,1.24-2.76,2.76h0v28.29c0,1.53,1.24,2.76,2.76,2.76h32.89c1.53,0,2.76-1.24,2.76-2.76v-28.29ZM2388.88,1900.38c0-1.16-.95-2.09-2.11-2.08h0l-37.74.26c-1.16,0-2.09.95-2.08,2.11h0s.2,29.12.2,29.12c0,1.16.95,2.09,2.11,2.08l37.74-.26c1.16,0,2.09-.95,2.08-2.11h0l-.2-29.12ZM2543.1,1900.75c0-1.29-1.06-2.34-2.35-2.34h0l-37.24.13c-1.29,0-2.34,1.06-2.34,2.35h0s.35,100.26.35,100.26c0,1.29,1.06,2.34,2.35,2.34h0l37.24-.13c1.29,0,2.34-1.06,2.34-2.35h0s-.35-100.26-.35-100.26ZM2634.37,1900.32c0-1.16-.94-2.09-2.09-2.09h-75.74c-1.16,0-2.09.94-2.09,2.09v101.52c0,1.16.94,2.09,2.09,2.09h75.74c1.16,0,2.09-.94,2.09-2.09v-101.52ZM3194.8,1900.69c0-1.46-1.18-2.64-2.63-2.64h0l-33.48-.06c-1.46,0-2.64,1.18-2.64,2.63h0l-.17,100.26c0,1.46,1.18,2.64,2.63,2.64h0l33.48.06c1.46,0,2.64-1.18,2.64-2.63h0l.17-100.26ZM3246.37,1900.92c0-1.27-1.01-2.31-2.29-2.32l-34.65-.24c-1.27,0-2.31,1.01-2.32,2.29l-.2,28.96c0,1.27,1.01,2.31,2.29,2.32h0l34.65.24c1.27,0,2.31-1.01,2.32-2.29l.2-28.96ZM3348.45,1900.89c.01-1.04-.82-1.89-1.86-1.91h0l-36.49-.51c-1.04-.01-1.89.82-1.91,1.86h0s-.41,29.46-.41,29.46c-.01,1.04.82,1.89,1.86,1.91l36.49.51c1.04.01,1.89-.82,1.91-1.86h0s.41-29.46.41-29.46ZM3398.54,1900.99c0-1.41-1.14-2.55-2.55-2.55h-34.31c-1.41,0-2.55,1.14-2.55,2.55h0v28.54c0,1.41,1.14,2.55,2.55,2.55h34.31c1.41,0,2.55-1.14,2.55-2.55h0v-28.54ZM3449.64,1901.02c0-1.46-1.18-2.64-2.63-2.64h0l-33.56-.06c-1.46,0-2.64,1.18-2.64,2.63h0l-.18,100.09c0,1.46,1.18,2.64,2.63,2.64h0l33.56.06c1.46,0,2.64-1.18,2.64-2.63h0l.17-100.09ZM3486.34,1900.78c0-1.32-1.07-2.39-2.39-2.39h-19.67c-1.32,0-2.39,1.07-2.39,2.39h0v100.43c0,1.32,1.07,2.39,2.39,2.39h19.67c1.32,0,2.39-1.07,2.39-2.39h0v-100.43ZM3519.38,1900.64c0-1.57-1.29-2.84-2.86-2.83h0l-16.65.09c-1.57,0-2.84,1.29-2.83,2.86h0s.53,100.68.53,100.68c0,1.57,1.29,2.84,2.86,2.83h0l16.65-.09c1.57,0,2.84-1.29,2.83-2.86l-.53-100.68ZM2438.85,1901.02c0-1.25-1.01-2.26-2.26-2.26l-33.98-.06c-1.25,0-2.26,1.01-2.26,2.26l-.05,28.71c0,1.25,1.01,2.26,2.26,2.26l33.98.06c1.25,0,2.26-1.01,2.26-2.26h0l.05-28.71ZM2490.21,1900.82c0-1.13-.92-2.05-2.05-2.05h-36.74c-1.13,0-2.05.92-2.05,2.05v29.04c0,1.13.92,2.05,2.05,2.05h36.74c1.13,0,2.05-.92,2.05-2.05v-29.04ZM3297.17,1901.04c0-1.34-1.09-2.43-2.43-2.42h0l-35.99.06c-1.34,0-2.42,1.09-2.42,2.43l.05,28.62c0,1.34,1.09,2.43,2.43,2.42l35.99-.06c1.34,0,2.42-1.09,2.42-2.43h0s-.05-28.62-.05-28.62ZM2337.14,1945.8c0-1.39-1.12-2.51-2.51-2.51h-33.89c-1.39,0-2.51,1.12-2.51,2.51h0v55.32c0,1.39,1.12,2.51,2.51,2.51h33.89c1.39,0,2.51-1.12,2.51-2.51h0v-55.32ZM2388.68,1944.81c0-1.02-.83-1.84-1.85-1.83l-37.07.13c-1.02,0-1.84.83-1.83,1.85l.2,56.74c0,1.02.83,1.84,1.85,1.83l37.07-.13c1.02,0,1.84-.83,1.83-1.85l-.2-56.74ZM2438.8,1945.54c0-1.25-1-2.26-2.25-2.27l-33.98-.12c-1.25,0-2.26,1-2.27,2.25l-.19,55.57c0,1.25,1,2.26,2.25,2.27h0l33.98.12c1.25,0,2.26-1,2.27-2.25l.19-55.57ZM2489.69,1944.56c0-.83-.68-1.5-1.51-1.5h0l-36.91.13c-.83,0-1.5.68-1.5,1.51l.2,56.99c0,.83.68,1.5,1.51,1.5h0l36.91-.13c.83,0,1.5-.68,1.5-1.51h0s-.2-56.99-.2-56.99ZM3245.98,1946.55c0-1.85-1.49-3.35-3.34-3.35l-32.56-.06c-1.85,0-3.35,1.49-3.35,3.34h0s-.09,53.56-.09,53.56c0,1.85,1.49,3.35,3.34,3.35h0l32.56.06c1.85,0,3.35-1.49,3.35-3.34l.09-53.56ZM3297.1,1945.73c0-1.32-1.08-2.38-2.39-2.38h0l-35.23.12c-1.32,0-2.38,1.08-2.38,2.39h0l.19,54.98c0,1.32,1.08,2.38,2.39,2.38h0l35.23-.12c1.32,0,2.38-1.08,2.38-2.39h0l-.19-54.98ZM3348.2,1946.15c0-1.29-1.05-2.34-2.35-2.34h0l-35.23.06c-1.29,0-2.34,1.05-2.34,2.35l.1,54.73c0,1.29,1.05,2.34,2.35,2.34l35.23-.06c1.29,0,2.34-1.05,2.34-2.35l-.1-54.73ZM3398.68,1946.22c0-1.16-.93-2.09-2.09-2.1h0l-35.4-.06c-1.16,0-2.09.93-2.1,2.09h0l-.1,54.9c0,1.16.93,2.09,2.09,2.1h0l35.4.06c1.16,0,2.09-.93,2.1-2.09h0s.1-54.9.1-54.9ZM4111.63,2064.52c1.31,13.31,4.44,26.36,9.37,39.17,1.17,3.01.93,5.76-.71,8.24-.89,1.41-2.77,1.81-4.19.91-.13-.08-.26-.18-.37-.28-3.4-2.96-13.35-12.48-29.84-28.58-12.08-11.83-21.47-19.23-28.16-22.22-48.08-21.38-53.56,30-29.96,56.37.87.98,2.01,1.7,3.26,2.05,2.2.64,6.64.96,13.31.96,56.41.22,126.97.38,211.7.46,8.95,0,23.6,1.26,28.87-1.76,15.29-8.76,28.18-20.35,38.66-34.77,2-2.73,5.78-3.42,8.58-1.55l.21.13c2.75,1.83,3.5,5.55,1.66,8.33,0,.01-.02.03-.03.04-7.67,11.24-16.42,19.95-26.24,26.11-.81.49-1.06,1.55-.57,2.36.31.51.86.82,1.45.82h362.09c.74,0,1.42-.44,1.76-1.13,8.7-17.83,21.42-64.78-.84-76.45-21.09-11.05-48.46-12.72-69.04-1.59-9.09,4.94-13.08,13.54-11.97,25.82.16,2.03-1.33,3.8-3.34,3.96-.1,0-.2.01-.31.01h-204.54c-2.07,0-3.78-1.62-3.89-3.68-.22-3.93-.28-8.27-.17-13.01.88-38.66-45.4-42.77-72.77-35.57-37.05,9.76-57.2,34.77-60.47,75.03-.19,2.47-2.36,4.3-4.84,4.1-.87-.07-1.7-.39-2.4-.92-3.07-2.37-5.05-6.05-5.94-11.05-4.81-26.91-16.36-82.14-51.89-86.91-15.57-2.09-31.84,5.73-34.9,21.76-3.71,19.25-1.44,38.8,6.82,58.67,1.12,2.68,1.52,4.58,1.21,5.69-.53,2.01-1.63,3.67-3.31,4.98-2.08,1.6-5.11,1.17-6.82-.96-8.79-10.96-18.48-19.95-29.08-26.95-.72-.46-1.68-.26-2.14.46-.19.29-.27.63-.24.96ZM2341.87,2093.22c51.22-48.21,101.22-27.83,158.84-6.7,1.35.49,2.84-.21,3.32-1.55.08-.23.13-.46.15-.71,1.95-33.73,19.68-50.49,53.19-50.3,23.38.14,40.03,10.07,49.96,29.79,6.28,12.47,8.45,18.87,24.1,18.54,1.58-.02,2.85-1.31,2.85-2.89v-61.93c0-1.27-1.03-2.3-2.3-2.3h-455.32c-1.39,0-2.51,1.11-2.51,2.47v101.52c0,1.29,1.05,2.34,2.34,2.34h148.63c1.19,0,2.25-.78,2.59-1.92l4.52-14.27c.56-1.72.29-3.6-.71-5.1-10.04-15.34-22.85-17.17-38.41-5.48-1.69,1.29-4.11.95-5.4-.77-.5-.66-.77-1.46-.79-2.29-.11-15.54-6.82-25.43-20.13-29.67-17.41-5.52-33.1,1.42-36.87,20-.37,1.8-.01,3.68,1,5.23l4.35,6.74c1.22,1.88.7,4.39-1.18,5.62-.67.44-1.45.67-2.25.66l-1.13-.04c-3.57.1-6.88-1.79-8.58-4.9-10.63-19.37,5.27-41.47,24.19-45.23,24.47-4.88,40.91,3.67,49.34,25.65.47,1.22,1.71,1.96,3.01,1.8,14.56-1.97,34.73-1.72,40.34,15.02.3.9,1.29,1.37,2.2,1.06.24-.08.46-.21.64-.39ZM3014.78,2017.57c0-.88-.71-1.59-1.59-1.59h-323.88c-.88,0-1.59.71-1.59,1.59h0v23.68c0,.88.71,1.59,1.59,1.59h323.88c.88,0,1.59-.71,1.59-1.59h0v-23.68ZM3361.8,2092.39c7.34-11.38,18.33-16.63,32.97-15.73,1.34.08,3.96.1,7.87.04,1.31-.03,2.51-.72,3.18-1.84,8.68-14.73,20.87-22.9,36.57-24.52,20.84-2.18,40.72,8.79,44.77,30.34,1.48,8.01-.7,14.37-6.53,19.08-1.81,1.4-4.41,1.07-5.81-.74-.77-.99-1.05-2.27-.76-3.49,3.1-12.36.06-21.68-9.12-27.95-9.43-6.44-19.49-7.62-30.17-3.52-11.27,4.35-17.85,13.5-19.75,27.45-.29,2.15-2.27,3.66-4.43,3.37-.74-.1-1.44-.41-2.02-.9-9.35-7.92-18.66-9.19-27.95-3.81-11.59,6.7-9.71,18.7-7.32,28.79.35,1.47,1.67,2.51,3.18,2.51h141.31c1.04,0,1.88-.84,1.88-1.88v-102.31c0-1.13-.92-2.05-2.05-2.05h-445.57c-1.11,0-2.01.9-2.01,2.01h0v56.78c0,3.68,2.98,6.65,6.68,6.64,2.27,0,4.39-1.17,5.62-3.08,20.76-32.51,69.88-62.39,102.86-24.94,7.99,9.08,10.38,18.24,14.48,30.51.7,2.18,3.03,3.38,5.21,2.68.15-.05.3-.1.44-.17,15.73-7,32.89-13.21,51.47-18.62,35.9-10.5,77.46-3.05,102.69,25.53.54.6,1.46.66,2.05.14.1-.09.19-.19.26-.31ZM2339.32,2121.64h294.63c.18,0,.33-.15.33-.33h0v-29.63c0-.44-.36-.79-.8-.79-.08,0-.17.01-.25.04-8.45,2.82-16.03,2.44-22.72-1.13-8.95-4.77-13.93-24.52-21.89-32.85-12.26-12.89-32.68-16.36-48.88-9.75-18.1,7.36-25.99,22.86-23.64,46.49.29,3.11-2,5.86-5.11,6.14-.7.06-1.41,0-2.09-.2-15.68-4.52-37.07-11.27-64.19-20.25-40.72-13.43-85.28.84-106.83,39.84-.44.79-.16,1.78.63,2.22.24.14.52.21.79.21ZM3365.19,2121.51c.37,0,.66-.32.65-.69,0-.1-.03-.19-.07-.28-22.3-44.1-73.19-56.28-117.88-38.92-19.14,7.42-32.28,12.44-39.42,15.06-10.38,3.81-18.54.63-20.34-10.67-3.77-23.68-22.68-44.02-48.88-38.5-22.72,4.81-35.95,19.88-48.88,39.84-.97,1.48-2.46,2.56-4.18,3.01-6.17,1.65-10.22,1.97-12.18.96-1.27-.67-2.84-.16-3.51,1.13-.18.35-.28.74-.3,1.13l-.63,23.68c-.07,2.26,1.71,4.16,3.97,4.22.04,0,.09,0,.13,0h291.49ZM4879.49,2119.42c-12.22-21.93-16.01-44.93-11.38-69,.17-.89-.41-1.74-1.3-1.91-.16-.03-.33-.04-.5-.02-9.96,1.23-16.84,1.83-20.63,1.8-19.3-.17-69.1-.14-149.39.08-1.66,0-3.01,1.37-3,3.03,0,.21.02.41.07.61,4.71,22.68,1.7,44.41-9.04,65.2-.39.76-.1,1.69.66,2.09.22.11.47.17.72.17h192.61c.74.02,1.35-.59,1.35-1.35,0-.25-.06-.49-.18-.7ZM3015.33,2056.61c0-1.25-1.01-2.26-2.26-2.26h-322.38c-1.25,0-2.26,1.01-2.26,2.26h0v21.93c0,1.25,1.01,2.26,2.26,2.26h322.38c1.25,0,2.26-1.01,2.26-2.26h0v-21.93ZM3015.33,2094.06c0-.95-.77-1.72-1.72-1.72h-324.38c-.95,0-1.72.77-1.72,1.72v25.19c0,.95.77,1.72,1.72,1.72h324.38c.95,0,1.72-.77,1.72-1.72h0v-25.19Z"/>
  <rect class="cls-1" x="1411.82" y="696.56" width="62.01" height="10.13" rx="1.16" ry="1.16"/>
  <path class="cls-1" d="M3792.52,736.1c0-13.81-.08-21.2-.25-22.18-.2-1.14-1.19-1.96-2.34-1.97l-105.24-.13c-2.2,0-3.98-1.78-3.98-3.98h0v-2.05c0-3.02,2.44-5.48,5.48-5.52,37.33-.28,74.48-.39,111.48-.33,36.99-.06,74.14.06,111.43.33,3.06.02,5.52,2.49,5.52,5.52v2.05c0,2.2-1.78,3.98-3.98,3.98h0l-105.24.13c-1.17-.02-2.18.81-2.39,1.97-.17.98-.25,8.37-.25,22.18s.08,21.2.25,22.18c.21,1.15,1.22,1.98,2.39,1.97l105.24.17c2.2,0,3.98,1.78,3.98,3.98h0v2.05c0,3.03-2.47,5.5-5.52,5.52-37.3.28-74.44.38-111.43.29-36.99.08-74.15-.01-111.48-.29-3.04-.05-5.48-2.51-5.48-5.52v-2.05c0-2.2,1.78-3.98,3.98-3.98h0l105.24-.17c1.15,0,2.14-.83,2.34-1.97.17-.98.25-8.37.25-22.18Z"/>
  <rect class="cls-1" x="1936.93" y="727.77" width="12.64" height="136.92" rx="1.43" ry="1.43" transform="translate(-1.39 3.4) rotate(-.1)"/>
  <path class="cls-1" d="M1166.18,746.39c0-1.13.92-2.05,2.05-2.05l30.04.04c85.58.15,154.95,1.96,154.96,4.04,0,0,0,.02,0,.02v3.43c-.51,2.07-69.74,3.62-154.95,3.47l-30.04-.04c-1.13,0-2.05-.92-2.05-2.05v-6.86Z"/>
  <rect class="cls-1" x="1410.48" y="788.2" width="95.32" height="8.29" rx=".97" ry=".97"/>
  <path class="cls-1" d="M3130.82,1032.99v-127.92c0-.81-.64-1.46-1.42-1.46h-18.62c-2.43,0-4.4-1.95-4.41-4.38,0-.13,0-.26.02-.39.45-4.85,2.79-9.68,7.03-14.48,28.45-32.14,59.75-60.1,93.9-83.9,3.02-2.12,7.06-2.05,10,.17,36.07,27.14,67.38,58.08,93.94,92.81.81,1.03,1.21,3.08,1.21,6.15.03,3.35-2.57,6.12-5.81,6.2-.82.02-1.64-.14-2.4-.47-4.13-1.79-8.4-2.43-12.8-1.92-1.2.15-2.1,1.17-2.09,2.39v128.51c0,.95.79,1.72,1.76,1.72h9.67c2.52,0,4.56,2.04,4.57,4.56,0,.07,0,.14,0,.21l-.08,1.84c-.05,3.2-2.66,5.77-5.86,5.77-71.3.42-129.13.43-173.49.04-3.52-.03-6.23-1.13-8.16-3.31-1.98-2.26-1.92-5.69.14-7.65.81-.77,1.84-1.23,2.96-1.31.33-.03,2.82-.18,7.45-.46,1.41-.09,2.51-1.28,2.51-2.72ZM3130.9,893.14c2,0,3.87-1.04,4.94-2.76,14.65-24.33,35.08-38.09,61.3-41.3,36.35-4.46,64.78,9.21,85.28,41.01,2.51,3.91,6.05,5.17,10.63,3.81.78-.21,1.23-1.04,1-1.84-.04-.13-.09-.26-.17-.38-18.66-29.21-49.59-54.48-77.79-76.74-1.92-1.49-4.58-1.58-6.61-.21-32.05,21.95-60.45,46.78-85.2,74.48-.88.95-.82,2.43.13,3.31.44.41,1.02.63,1.63.62h4.85ZM3209.74,880.8c24.98-.04,47.95,22.89,48.12,47.03.14,19.36.08,54.87-.17,106.54-.02,1.02.8,1.86,1.84,1.88.01,0,.03,0,.04,0h17.03c.83,0,1.51-.67,1.51-1.51h0c-.03-35.76.06-70.09.25-102.98.22-37.77-17.71-61.3-53.81-70.59-3.38-.86-8.33-1.3-14.86-1.3s-11.51.45-14.86,1.34c-36.07,9.4-53.92,32.99-53.56,70.76.31,32.89.49,67.22.54,102.98,0,.83.67,1.51,1.51,1.51l17.03-.04c1.04,0,1.88-.82,1.88-1.84,0-.01,0-.03,0-.04-.39-51.66-.56-87.18-.5-106.54.08-24.14,23.01-47.16,48-47.2ZM3176.1,923.57l67.71-.33c.07,0,.13-.06.13-.13v-.38c-.08-16.04-15.09-28.97-33.53-28.87,0,0-.02,0-.02,0h-1.17c-18.43.1-33.3,13.18-33.23,29.21v.38c0,.07.06.13.13.13h0ZM3245.73,936.91c0-.74-.6-1.34-1.34-1.34h-68.63c-.74,0-1.34.6-1.34,1.34v97.75c0,.74.6,1.34,1.34,1.34h68.63c.74,0,1.34-.6,1.34-1.34h0v-97.75Z"/>
  <path class="cls-1" d="M2555.32,1034.75c0,1.02.83,1.85,1.87,1.85.08,0,.15,0,.23-.01,5.33-.53,8.76-.46,10.29.21,3.14,1.35,4.6,4.99,3.25,8.13-.97,2.27-3.2,3.74-5.68,3.75-37.35-.08-94.28.01-170.77.29-2.76.03-6.04-.45-9.83-1.42-3.04-.73-4.9-3.79-4.14-6.83.63-2.55,2.94-4.35,5.56-4.34h6.95c1.41,0,2.55-1.14,2.55-2.55h0v-126.75c0-1.72-1.38-3.12-3.1-3.14-5.27-.06-9.82.46-13.64,1.55-3.33.97-6.81-.95-7.78-4.28-.23-.78-.3-1.61-.21-2.42.53-5.08,3.07-10.04,7.62-14.9,27.32-29.04,57.79-58.96,91.35-78.75,4.56-2.69,10.26-2.54,14.69.38,34.62,22.79,65.03,51.23,91.22,85.32,4.18,5.48,5.94,11.05-.42,14.48-1.12.59-2.42.69-3.6.29-4.91-1.7-9.55-1.9-13.93-.59-1.46.43-2.47,1.76-2.47,3.26v126.46ZM2476.4,848.24c31.55.17,55.36,16.19,72.31,42.93,1.53,2.42,4.2,3.89,7.07,3.89h4.23c1.43.01,2.6-1.14,2.61-2.57,0-.64-.23-1.26-.65-1.74-22.37-25.47-45.58-47.27-69.63-65.4-5.02-3.77-10.07-6.6-15.15-8.49-.25-.11-.46-.17-.63-.17-.17,0-.38.04-.63.13-5.11,1.87-10.18,4.66-15.23,8.37-24.21,17.91-47.63,39.49-70.26,64.73-.95,1.07-.84,2.71.23,3.66.47.41,1.07.64,1.69.65l4.23.04c2.87.03,5.55-1.4,7.11-3.81,17.2-26.61,41.18-42.39,72.69-42.22ZM2476.19,881.55c24.94-.04,47.87,22.89,48.04,46.99.11,19.36.03,54.85-.25,106.45-.02,1.02.8,1.86,1.84,1.88.01,0,.03,0,.04,0h17.03c.83,0,1.51-.67,1.51-1.51h0c-.03-35.74.07-70.03.29-102.9.25-37.72-17.64-61.23-53.69-70.55-3.38-.86-8.33-1.3-14.85-1.3s-11.47.45-14.81,1.34c-36.04,9.37-53.91,32.92-53.6,70.63.28,32.86.45,67.16.5,102.9,0,.83.67,1.51,1.51,1.51l17.03-.04c1.04,0,1.88-.82,1.88-1.84,0-.01,0-.03,0-.04-.39-51.61-.54-87.09-.46-106.45.13-24.1,23.01-47.08,48-47.08ZM2443.55,924.11l66.78.33c.23,0,.42-.19.42-.42h0v-.29c.08-15.92-14.72-28.9-33.06-29h-1.17c-18.35-.1-33.3,12.72-33.39,28.64,0,0,0,.01,0,.02v.29c0,.23.19.42.42.42h0ZM2512.05,937.86c0-1.27-1.04-2.3-2.31-2.29h0l-67.2.35c-1.27,0-2.3,1.04-2.29,2.31h0s.5,96.08.5,96.08c0,1.27,1.04,2.3,2.31,2.29h0l67.2-.35c1.27,0,2.3-1.04,2.29-2.31h0s-.5-96.08-.5-96.08Z"/>
  <rect class="cls-1" x="1164.3" y="834.98" width="164.2" height="12.39" rx="1.44" ry="1.44"/>
  <path class="cls-1" d="M3792.43,903.36c-.03-13.84-.13-21.24-.29-22.22-.2-1.14-1.19-1.96-2.34-1.97l-105.41-.04c-2.2,0-3.98-1.78-3.98-3.98v-2.05c-.02-3.05,2.45-5.54,5.52-5.57h0c37.35-.28,74.55-.4,111.6-.38,37.02-.08,74.21-.01,111.56.21,3.06.02,5.52,2.49,5.52,5.52l.04,2.05c.02,2.2-1.74,3.99-3.93,4.02-.03,0-.06,0-.08,0l-105.37.21c-1.15,0-2.14.83-2.34,1.97-.17.98-.25,8.38-.25,22.22s.08,21.24.25,22.22c.21,1.15,1.22,1.98,2.39,1.97l105.37.04c2.2-.02,3.99,1.74,4.02,3.93,0,.01,0,.03,0,.04v2.05c.02,3.05-2.45,5.54-5.52,5.57h0c-37.38.28-74.58.4-111.6.38-37.05.08-74.25.01-111.6-.21-3.06-.02-5.52-2.49-5.52-5.52v-2.05c-.02-2.2,1.74-3.99,3.93-4.02.01,0,.03,0,.04,0l105.37-.21c1.17.02,2.18-.81,2.39-1.97.17-.98.25-8.38.25-22.22Z"/>
  <rect class="cls-1" x="1394.53" y="880.63" width="111.39" height="9.21" rx="1.07" ry="1.07"/>
  <path class="cls-1" d="M0,1103.5v-13.89c13.81-11.63,29.29-19,46.45-22.09,50.88-9.16,70.8,39.5,81.85,78.67.21.83,1.05,1.33,1.88,1.12.57-.14,1.01-.59,1.13-1.17,11.77-49.82,42.81-77.62,93.11-83.4,41.76-4.81,86.95,13.31,107.5,50.97,12.75,23.38,18.37,47.97,16.86,73.77-.05.81.56,1.51,1.36,1.56.33.02.66-.07.94-.26,24.66-17.13,50.8-17.37,78.42-.71.61.38,1.41.2,1.79-.4.18-.28.24-.61.18-.93-10.92-64.15,36.45-97.58,95.16-81.97,24.07,6.42,46.74,17.62,68,33.6.7.53,1.7.39,2.23-.32.36-.48.42-1.11.16-1.65-18.5-37.07-31.64-96.96,3.1-127.88,10.85-9.65,24.28-12.47,40.3-8.45,1.1.29,2.26-.27,2.72-1.34,18.83-43.49,50.35-72.69,94.57-87.58,75.49-25.48,144.78,29.96,140.56,108-.06,1.22.88,2.27,2.1,2.33.47.02.94-.1,1.33-.36,17.16-11.3,35.37-18.87,54.65-22.72,40.05-8.03,79.13,13.06,76.24,57.87-1.7,26.42-10.89,51.69-27.58,75.82-4.6,6.67-7.3,10.73-8.08,12.18-.38.69-.13,1.55.56,1.93.28.15.59.21.9.16,27.41-4.73,62.39,1.3,62.85,35.28.2,16.18-6.17,31.29-19.08,45.32-1.72,1.84-4.59,1.95-6.42.25-.11-.1-.22-.21-.32-.33l-.08-.08c-1.89-2.14-2.06-5.29-.42-7.62,11.63-16.49,22.55-38,8.16-54.15-13.39-14.98-48.62-6.7-65.24.25-2.8,1.15-6-.18-7.16-2.95-.81-1.93-.43-4.15.97-5.71,6.25-6.95,12.83-15.18,19.75-24.69,18.96-26.11,42.72-77.46,20.67-107.92-11.51-15.9-38.71-17.7-56.78-13.14-21.23,5.36-40.74,14.8-58.54,28.33-1.59,1.23-3.26,2.01-5.02,2.34-2.7.51-5.31-1.19-5.84-3.8-.11-.57-.12-1.15-.02-1.72,9.96-58.79-25.48-116.62-88.34-118.88-58.75-2.18-107.96,43.27-127,95.99-1.17,3.17-4.68,4.79-7.84,3.62-.4-.15-.79-.34-1.15-.57-22.47-14.23-44.86,5.73-49.08,25.57-8.45,39.29,9.42,81.22,28.41,116.58.56,1.06.61,2.82.17,5.27-.5,2.68-3.08,4.45-5.76,3.95-.78-.15-1.52-.48-2.15-.97-35.69-28.5-91.26-65.74-138.51-49.8-10.13,3.43-18.33,10.07-24.6,19.92-18.79,29.38-2.8,66.58,12.43,93.27,1.63,2.83,1.13,6.41-1.21,8.7l-.17.13c-1.86,1.83-4.87,1.79-6.71-.09-.18-.18-.34-.37-.49-.58-11.55-16.54-19.68-27.59-24.4-33.14-18.08-21.34-49.75-22.39-71.14-6.74-7.87,5.73-12.76,15.61-18.16,24.56-.81,1.31-1.72,2.16-2.72,2.55-.95.33-2.18.52-3.68.54-2.19.07-4.03-1.66-4.09-3.85-.01-.36.03-.73.12-1.08,3.18-12.26,7.53-27.24,7.53-40.51-.06-30.41-9.01-55.77-26.86-76.07-26.57-30.17-74.36-38.04-111.35-24.35-44.19,16.32-59.96,62.43-62.18,106.66-.13,2.72-2.38,4.86-5.11,4.85h-1.92c-2.65,0-4.89-1.97-5.23-4.6-4.16-33.87-13.71-62.45-28.66-85.74-14.76-22.96-35.28-29.08-61.55-18.37-9.4,3.85-20.88,10.74-34.44,20.67Z"/>
  <rect class="cls-1" x="1206.15" y="884.9" width="11.63" height="94.57" rx="1.36" ry="1.36" transform="translate(275.55 2140.89) rotate(-89.8)"/>
  <path class="cls-1" d="M4263.86,957.34h-101.56c-1.15,0-2.15-.8-2.39-1.92l-1.3-6.28c-.28-1.31.56-2.6,1.87-2.88.16-.03.31-.05.47-.05h222.24c1.34,0,2.43,1.09,2.43,2.43h0v6.49c0,1.34-1.09,2.43-2.43,2.43h-103.32c-1.34,0-2.43,1.09-2.43,2.43v42.64c0,1.34,1.09,2.43,2.43,2.43h79.51c1.34,0,2.43,1.09,2.43,2.43v6.28c0,1.34-1.09,2.43-2.43,2.43h-197.43c-1.34,0-2.43-1.09-2.43-2.43v-6.61c0-1.34,1.09-2.43,2.43-2.43h101.89c1.34,0,2.43-1.09,2.43-2.43v-42.51c0-1.34-1.09-2.43-2.43-2.43Z"/>
  <rect class="cls-1" x="1327.83" y="971.27" width="177.17" height="10.38" rx="1.22" ry="1.22"/>
  <rect class="cls-1" x="1165.64" y="1020.1" width="58.58" height="12.14" rx="1.17" ry="1.17" transform="translate(-5.36 6.27) rotate(-.3)"/>
  <path class="cls-1" d="M3792.39,1072.79c.03-13.84-.04-21.24-.21-22.22-.21-1.15-1.22-1.98-2.39-1.97l-105.37-.17c-2.2,0-3.98-1.78-3.98-3.98,0-.01,0-.03,0-.04v-2.05c0-3.03,2.47-5.5,5.52-5.52,37.35-.25,74.54-.35,111.56-.29,37.05-.03,74.25.1,111.6.38,3.06.02,5.52,2.49,5.52,5.52v2.05c.02,2.2-1.74,3.99-3.93,4.02-.01,0-.03,0-.04,0l-105.41.08c-1.15,0-2.14.83-2.34,1.97-.17.98-.25,8.38-.25,22.22s.08,21.2.25,22.18c.18,1.15,1.18,2,2.34,2.01l105.37.17c2.2-.02,3.99,1.74,4.02,3.93,0,.01,0,.03,0,.04v2.05c0,3.03-2.47,5.5-5.52,5.52-37.38.28-74.58.38-111.6.29-37.05.06-74.25-.07-111.6-.38-3.06-.02-5.52-2.49-5.52-5.52v-2.05c0-2.2,1.78-3.98,3.98-3.98l105.41-.13c1.15,0,2.14-.83,2.34-1.97.17-.98.25-8.37.25-22.18Z"/>
  <rect class="cls-1" x="2003.76" y="1042.11" width="11.63" height="92.23" rx="1.19" ry="1.19"/>
  <path class="cls-1" d="M1506.22,1063.41c.35,0,.63.28.63.63v5.06c.09,2.54-18.55,4.55-41.63,4.48-.06,0-.11,0-.17,0l-138.34-.5c-23.02-.08-41.71-2.19-41.8-4.73v-5.06c0-.35.28-.63.63-.63l220.69.75Z"/>
  <path class="cls-1" d="M4381.28,1336.7l425.44-224.88c1.81-.96,3.97-.96,5.77,0l425.44,224.88c3,1.59,4.15,5.31,2.57,8.31-1.06,2.01-3.14,3.27-5.41,3.28h-850.97c-3.4-.01-6.14-2.78-6.13-6.18,0-2.27,1.27-4.35,3.28-5.41ZM4808.9,1336.66c212.28-.17,321.2.04,400.25-.04.67.03,1.24-.49,1.26-1.16.02-.48-.25-.93-.68-1.14-144.76-75.15-277.48-145.06-398.16-209.73-1.09-.59-2.04-.88-2.85-.88s-1.73.29-2.85.88c-120.57,64.86-253.16,134.99-397.78,210.4-.6.3-.85,1.02-.55,1.63.21.42.63.68,1.09.68,79.09-.08,188.01-.46,400.25-.63Z"/>
  <rect class="cls-1" x="1937.43" y="1135.97" width="12.39" height="134.57" rx="1.28" ry="1.28" transform="translate(-2.09 3.38) rotate(-.1)"/>
  <rect class="cls-1" x="1373.7" y="1153.13" width="131.48" height="11.55" rx="1.35" ry="1.35" transform="translate(-2.02 2.51) rotate(-.1)"/>
  <path class="cls-1" d="M4850.96,1236.24c-.02,3.21-2.64,5.8-5.86,5.78l-75.57-.53c-3.21-.02-5.8-2.64-5.78-5.86h0s.4-57.33.4-57.33c.02-3.21,2.64-5.8,5.86-5.78l75.57.53c3.21.02,5.8,2.64,5.78,5.86h0l-.4,57.33ZM4838.65,1187.61c0-1.43-1.16-2.59-2.59-2.59h-57.24c-1.43,0-2.59,1.16-2.59,2.59v39.5c0,1.43,1.16,2.59,2.59,2.59h57.24c1.43,0,2.59-1.16,2.59-2.59v-39.5Z"/>
  <path class="cls-1" d="M3447.42,1492.16h9.88c3.21,0,5.82,2.59,5.83,5.81,0,.35-.03.71-.09,1.06l-.29,1.67c-.49,2.65-2.81,4.57-5.52,4.56-75.27-.28-143.15-.28-203.66,0-2.68,0-5.5-.28-8.45-.84-3.12-.66-5.12-3.72-4.46-6.84.56-2.63,2.86-4.53,5.55-4.58h9.04c1.83,0,3.31-1.48,3.31-3.31h0v-254.13c0-1.51-.66-2.95-1.8-3.93l-5.94-5.19c-.54-.46-.9-1.08-1-1.76l-6.49-35.78c-.37-2.05.99-4.01,3.04-4.38.23-.04.46-.06.69-.06h214c1.8,0,3.27,1.46,3.27,3.26,0,.18-.02.37-.05.55l-6.7,36.61c-.41,2.15-2.07,3.84-4.18,4.27l-5.65,1.21c-1.49.3-2.56,1.6-2.55,3.1v256.43c0,1.25,1.01,2.26,2.26,2.26ZM3258.78,1215.77c.28,1.31,1.42,2.25,2.76,2.26h184.33c1.38,0,2.56-.99,2.8-2.34l2.85-15.65c.28-1.55-.75-3.03-2.3-3.3-.17-.03-.34-.04-.51-.04h-190.44c-1.57-.01-2.85,1.25-2.86,2.83,0,.2.02.41.06.61l3.31,15.65ZM3351.64,1253.98c32.83-.03,50.56.01,53.19.13,1.41.07,2.51,1.21,2.51,2.59v235.59c0,.53.43.96.96.96h24.02c.65,0,1.17-.52,1.17-1.17h0v-260.4c0-.97-.79-1.76-1.76-1.76h0c-5.72-.03-32.42-.04-80.09-.04s-74.39.01-80.13.04c-.97,0-1.76.79-1.76,1.76l.04,260.4c0,.65.52,1.17,1.17,1.17h24.02c.53,0,.96-.43.96-.96h0s-.04-235.59-.04-235.59c0-1.4,1.13-2.55,2.55-2.59,2.62-.08,20.35-.13,53.19-.13ZM3395.86,1266.58c0-1.06-.86-1.92-1.93-1.92h0l-85.11.15c-1.06,0-1.92.87-1.92,1.93h0l.18,101.77c0,1.06.87,1.92,1.93,1.92l85.11-.15c1.06,0,1.92-.87,1.92-1.93h0s-.18-101.77-.18-101.77ZM3396,1382.69c0-.79-.63-1.42-1.42-1.43l-85.87-.15c-.79,0-1.42.63-1.42,1.42l-.19,108.55c0,.79.63,1.42,1.42,1.43h0l85.87.15c.79,0,1.42-.63,1.42-1.42l.19-108.55Z"/>
  <path class="cls-1" d="M2439.74,1489.82c.02,1.23,1.03,2.22,2.26,2.22h9.88c3.21,0,5.82,2.59,5.83,5.81,0,.35-.03.71-.09,1.06l-.29,1.67c-.49,2.65-2.81,4.57-5.52,4.56-75.13-.25-142.89-.22-203.28.08-2.68,0-5.5-.28-8.45-.84-3.13-.51-5.24-3.47-4.71-6.6.48-2.81,2.94-4.86,5.79-4.82h9c1.83,0,3.31-1.48,3.31-3.31h0s-.08-253.67-.08-253.67c0-1.52-.66-2.95-1.8-3.93l-5.94-5.15c-.54-.46-.9-1.08-1-1.76l-6.49-35.74c-.37-2.05.99-4.01,3.04-4.38.23-.04.46-.06.69-.06l213.62-.04c1.8,0,3.27,1.45,3.27,3.23,0,.18-.01.36-.05.54l-6.7,36.57c-.39,2.14-2.03,3.83-4.14,4.27l-5.65,1.21c-1.49.28-2.56,1.58-2.55,3.1l.08,255.97ZM2348.15,1217.65c54.54.03,84.01.03,88.42,0,2.75-.02,5.14-1.9,5.77-4.56,1.42-5.91,1.95-10.59,1.59-14.02-.09-.86-.76-1.55-1.63-1.67-2.4-.36-33.77-.56-94.11-.59-60.34-.06-91.71.1-94.11.46-.89.11-1.58.8-1.67,1.67-.36,3.43.17,8.1,1.59,14.02.64,2.66,3.02,4.54,5.77,4.56,4.41.03,33.87.07,88.38.13ZM2346.18,1253.81c27.79,0,45.4.03,52.85.08,2.11.02,3.81,1.74,3.81,3.85v231.11c0,2.03,1.65,3.68,3.68,3.68h17.24c2.15,0,3.89-1.72,3.89-3.85h0v-256.64c0-1.13-.94-2.05-2.09-2.05-49.32.03-75.78.04-79.38.04s-30.09-.01-79.38-.04c-1.16-.02-2.11.88-2.13,2.01,0,.03,0,.06,0,.08l.08,256.64c.02,2.11,1.76,3.81,3.89,3.81h17.24c2.03,0,3.68-1.65,3.68-3.68l-.04-231.11c0-2.11,1.7-3.83,3.81-3.85,7.42-.06,25.04-.08,52.85-.08ZM2389.78,1267.62c0-1.06-.86-1.92-1.92-1.92h-85.36c-1.06,0-1.92.86-1.92,1.92v101.01c0,1.06.86,1.92,1.92,1.92h85.36c1.06,0,1.92-.86,1.92-1.92v-101.01ZM2390.02,1382.74c0-.6-.49-1.09-1.09-1.09l-87.12.15c-.6,0-1.09.49-1.09,1.09l.19,108.46c0,.6.49,1.09,1.09,1.09l87.12-.15c.6,0,1.09-.49,1.09-1.09l-.19-108.46Z"/>
  <path class="cls-1" d="M1863.7,1843.41l-.29-24.73c0-.49-.41-.88-.92-.88h-.04c-.49,0-.88.39-.88.88.14,43.97.18,80.5.13,109.59,0,6.5-3.04,9.36-9.12,8.58l.13-313.8c0-2.7-2.17-4.9-4.85-4.9h-516.75c-1.06,0-1.92.86-1.92,1.92l.67,355.64c0,3.53-2.83,6.42-6.36,6.49h-.21c-3.54,0-6.4-2.89-6.4-6.44l.46-365.14c0-2.22,1.8-4.02,4.02-4.02h103.78c1.11,0,2.01-.9,2.01-2.01v-234.92c0-3-1.61-5.78-4.23-7.28l-172.32-99.47c-.33-.21-.77-.11-.98.23-.08.12-.11.26-.11.4v663.41c0,2.5-2.02,4.52-4.52,4.52h-2.89c-2.38,0-4.31-1.93-4.31-4.31h0v-667.68c0-1.53-1.22-2.76-2.72-2.76h-406.65c-1.13,0-2.05.92-2.05,2.05v528.13c0,2.29-1.87,4.14-4.16,4.13-.25,0-.49-.02-.74-.07l-2.93-.5c-2.25-.41-3.89-2.38-3.89-4.69v-427.45c0-1.48-1.18-2.68-2.64-2.68H283.21c-1.87,0-3.39,1.52-3.39,3.39v531.48c-.01,2.43-1.97,4.39-4.37,4.38-.26,0-.52-.03-.78-.07l-2.76-.5c-2.81-.51-4.86-2.96-4.85-5.82.39-210.87.49-324.54.29-341-.11-8.42-4.07-13.42-11.88-14.98-34.9-7.03-43.02,29.84-51.09,54.19-.78,2.32-3.29,3.58-5.61,2.8-1.36-.46-2.42-1.55-2.84-2.92-5.4-18.12-11.34-36.32-26.32-48.16-8.95-7.07-21.38.75-26.36,8.91-14.37,23.71-17.37,48.11-9,73.19.71,2.1-.42,4.38-2.53,5.09-.89.3-1.87.28-2.75-.07-4.18-1.62-7.28-3.15-9.29-4.6-3.23-2.3-7.94-1.62-11.13,1.59-14.14,14.27-4.85,45.28,1.51,63.48,1.03,2.99-.3,6.21-2.97,7.19-.27.1-.55.17-.84.22-2.54.39-4.53-.43-5.98-2.47-4.6-6.47-8.23-11.16-10.88-14.06-8.62-9.37-24.81-16.7-36.49-8.49-13.06,9.21-11.34,33.56-6.82,47.75,4.97,15.51,11.84,29.84,20.63,42.98,1.61,2.41,1.16,5.65-1.05,7.53l-.38.29c-2.05,1.73-5.11,1.47-6.84-.58-.04-.04-.07-.09-.11-.13-14.48-18.69-23.2-38.58-26.15-59.67-4.35-30.88,6.49-59.76,42.98-51.89,4.6,1,9.29,4.39,12.43,5.02,1.09.2,2.14-.52,2.34-1.61.04-.23.04-.46,0-.69-3.31-20.21.84-46.78,24.73-51.47,1.62-.31,2.77-1.74,2.72-3.39-.71-25.02,4.6-51.39,22.47-69.09,25.36-25.07,47.41,1.21,59.13,22.72.43.82,1.44,1.13,2.26.7.37-.19.65-.52.79-.91,9.46-26.74,35.28-44.69,63.77-32.64.62.25,1.33-.04,1.58-.66.06-.15.09-.31.09-.47l.04-172.44c0-3.49,2.83-6.32,6.32-6.32h536.58c2.15,0,3.89-1.74,3.89-3.89h0v-92.39c0-1.29,1.05-2.34,2.34-2.34h427.07c.6,0,1.19.16,1.72.46l187.89,110.6c3.32,1.95,5.36,5.5,5.36,9.33v239.31c0,1.09.88,1.97,1.97,1.97h420c1.71,0,3.1,1.39,3.1,3.1h0l-.04,233.83Z"/>
  <rect class="cls-1" x="2056.11" y="1269.67" width="11.8" height="136" rx="1.28" ry="1.28" transform="translate(-2.34 3.62) rotate(-.1)"/>
  <path class="cls-1" d="M1864,1496.01c39.92,3.05,54.48,27.87,62.27,63.06.64,2.86-1.09,5.73-3.93,6.53l-.21.08c-2.86.79-5.83-.85-6.7-3.68-13.47-44.36-25.53-55.65-73.19-55.03-.86.03-1.83-.33-2.89-1.09-2.14-1.54-2.64-4.51-1.12-6.63.27-.37.59-.7.95-.98,16.21-12.64,29.88-27.02,41.01-43.14,17.32-25.07,26.49-61.05,5.94-86.62-14.52-18.12-44.36-21.89-65.78-17.62-58.67,11.63-94.03,68.04-92.81,125.54.06,1.76-.14,3.14-.59,4.14-1.21,2.77-4.43,4.05-7.18,2.86-.47-.21-.92-.48-1.31-.81-14.9-12.18-43.1-29.71-58.25-8.33-9.88,13.93-6.03,38.2,0,53.19,4.6,11.44,12.22,23.29,22.85,35.57,2.07,2.38,2.16,5.89.21,8.37l-.13.17c-1.71,2.21-4.89,2.62-7.1.92-.17-.13-.32-.27-.47-.41-19.67-19.33-30.49-41.93-32.47-67.79-1.26-16.57,1.67-29.32,8.79-38.25,15.11-19.04,42.14-15.44,60.51-3.47.94.59,2.18.31,2.77-.63.14-.23.24-.49.28-.75,6.99-49.71,26.99-87.37,72.31-111.35,41.76-22.09,106.96-16.91,120.14,35.65,9.67,38.5-15.52,82.98-44.98,107.08-.83.66-.97,1.87-.31,2.7.34.43.85.7,1.4.73Z"/>
  <path class="cls-1" d="M4499.28,1567.1c2.16-.17,3.82-1.98,3.81-4.14v-158.76c0-2.1,1.71-3.81,3.81-3.81h107.37c1.62,0,2.93,1.29,2.93,2.89h0v160.52c0,1.82,1.39,3.32,3.18,3.43,2.99.2,4.95,1.44,5.9,3.72,1.13,2.63-.11,5.69-2.76,6.82-.63.27-1.32.41-2.01.42-34.54.42-76.28.39-125.24-.08-1.98,0-3.58-.7-4.81-2.09-1.83-2.09-1.79-5.24.11-7.03.58-.55,1.29-.92,2.07-1.09,1.81-.39,3.7-.66,5.65-.8ZM4605.08,1414.59c0-1.85-1.51-3.34-3.36-3.34h0l-83.94.29c-1.85,0-3.34,1.51-3.34,3.36h0s.24,67.79.24,67.79c0,1.85,1.51,3.34,3.36,3.34l83.94-.29c1.85,0,3.34-1.51,3.34-3.36h0s-.24-67.79-.24-67.79ZM4605.26,1499.86c0-1.78-1.45-3.22-3.23-3.22l-84.11.15c-1.78,0-3.22,1.45-3.22,3.23l.11,63.52c0,1.78,1.45,3.22,3.23,3.22l84.11-.15c1.78,0,3.22-1.45,3.22-3.23l-.11-63.52Z"/>
  <path class="cls-1" d="M5105.83,1400.43h53.44c1.96,0,3.56,1.59,3.56,3.56h0v160.1c0,.81.5,1.55,1.25,1.88,5.97,2.71,8.83,4.94,8.58,6.7-.48,3.2-2.77,5.59-5.44,5.69-7.5.25-27.99.38-61.47.38-33.48-.03-53.95-.17-61.43-.42-2.67-.1-4.96-2.49-5.44-5.69-.25-1.76,2.61-3.99,8.58-6.7.76-.33,1.25-1.07,1.26-1.88l.08-160.1c0-1.96,1.59-3.56,3.56-3.56,32.05.03,49.88.04,53.48.04ZM5150.3,1415.06c0-1.8-1.48-3.26-3.28-3.25l-82.85.43c-1.8,0-3.26,1.48-3.25,3.28l.35,66.87c0,1.8,1.48,3.26,3.28,3.25h0l82.85-.43c1.8,0,3.26-1.48,3.25-3.28l-.35-66.87ZM5151.44,1501.06c.01-2.1-1.69-3.82-3.79-3.83h0l-82.6-.43c-2.1-.01-3.82,1.68-3.83,3.79h0s-.33,62.35-.33,62.35c-.01,2.1,1.69,3.82,3.79,3.83h0l82.6.43c2.1.01,3.82-1.68,3.83-3.79h0s.33-62.35.33-62.35Z"/>
  <rect class="cls-1" x="1908.94" y="1464.96" width="136.67" height="12.97" rx="1.21" ry="1.21" transform="translate(498.92 3443.56) rotate(-89.8)"/>
  <rect class="cls-1" x="219.73" y="1531.54" width="247.98" height="12.05" rx="1.26" ry="1.26" transform="translate(-1194.44 1878.58) rotate(-89.9)"/>
  <path class="cls-1" d="M427.2,1414l9.6-.02c.61,0,1.1.49,1.1,1.1l.43,245.52c0,.61-.49,1.1-1.1,1.1l-9.6.02c-.61,0-1.1-.49-1.1-1.1l-.43-245.52c0-.61.49-1.1,1.1-1.1Z"/>
  <rect class="cls-1" x="516.83" y="1414.16" width="10.96" height="247.89" rx="1.28" ry="1.28"/>
  <path class="cls-1" d="M611.4,1413.45c2.23,0,3.42,2.11,3.56,6.32,1.39,39.42,2.09,78.85,2.09,118.3s-.68,78.88-2.05,118.3c-.14,4.21-1.31,6.32-3.51,6.32s-3.42-2.11-3.56-6.32c-1.39-39.42-2.11-78.85-2.13-118.3,0-39.45.68-78.88,2.05-118.3.14-4.21,1.33-6.32,3.56-6.32Z"/>
  <path class="cls-1" d="M695.33,1414.04l8.89-.02c.73,0,1.33.59,1.33,1.33l.43,244.81c0,.73-.59,1.33-1.33,1.33l-8.89.02c-.73,0-1.33-.59-1.33-1.33l-.43-244.81c0-.73.59-1.33,1.33-1.33Z"/>
  <rect class="cls-1" x="1155.26" y="1414.12" width="12.3" height="247.81" rx="1.43" ry="1.43" transform="translate(-2.69 2.03) rotate(-.1)"/>
  <rect class="cls-1" x="890.97" y="1415.54" width="10.8" height="244.54" rx="1.27" ry="1.27"/>
  <rect class="cls-1" x="1066.22" y="1414.49" width="12.72" height="246.89" rx="1.42" ry="1.42"/>
  <path class="cls-1" d="M987.51,1417.38c.62,0,1.13.51,1.13,1.13h0v178.64c0,35.59-1.76,64.44-3.93,64.44h-2.59c-2.17,0-3.93-28.85-3.93-64.44h0v-178.64c0-.62.51-1.13,1.13-1.13h8.2Z"/>
  <path class="cls-1" d="M4231.68,1428.72l37.53-7.78c3.39-.72,6.72,1.45,7.44,4.84.09.42.13.84.14,1.27v145.37c0,3.47-2.81,6.28-6.28,6.27-.64,0-1.27-.1-1.88-.29l-37.53-11.88c-2.61-.82-4.39-3.24-4.39-5.98v-125.66c0-2.97,2.07-5.54,4.98-6.15ZM4260.81,1561.96c1.64.3,3.21-.78,3.51-2.42.03-.17.05-.34.05-.51v-120.77c.01-1.66-1.32-3.02-2.99-3.04-.22,0-.44.02-.65.07l-19.54,4.06c-1.4.3-2.4,1.54-2.39,2.97v113.11c0,1.46,1.04,2.71,2.47,2.97l19.54,3.56Z"/>
  <path class="cls-1" d="M2618.55,1582.55c.08-2.18,1.16-4.03,3.22-5.57,9.93-7.45,20.36-14.77,31.3-21.97,58.64-38.55,112.12-72.98,160.43-103.27,11.1-6.92,21.47-13.82,31.09-20.71,2.02-1.45,4.73-1.51,6.86-.17,55.21,34.76,110.88,70.41,167,106.96,20.42,13.31,37.56,25.11,51.43,35.4,3.01,2.26,4.71,4.46,5.1,6.61.64,3.34-1.61,6.57-5.04,7.21-.34.06-.68.1-1.03.11-23.82.64-45.65.96-65.49.96-120.77.08-247.35,0-379.75-.25-2.84,0-5.15-2.3-5.15-5.14,0-.06,0-.11,0-.17ZM2644.41,1574.26c-.6.39-.77,1.19-.38,1.79.24.37.65.59,1.09.59h407.32c.72,0,1.3-.58,1.3-1.29,0-.44-.22-.85-.59-1.09l-203.66-131.52c-.43-.28-.99-.28-1.42,0l-203.66,131.52Z"/>
  <path class="cls-1" d="M3780.22,1877.39c.53-.33.7-1.02.37-1.55-.2-.33-.57-.54-.96-.54-50.51.75-143.07-20.67-133.28-91.14,4.98-35.4,43.18-52.1,75.15-40.59.85.32,1.78-.13,2.1-1,.1-.27.12-.56.08-.84-2.59-15.23-2.51-30.51.25-45.82,9.07-50.52,38.04-82.99,86.91-97.42,3.37-1,6.97.6,8.45,3.77l.38.8c1.16,2.47.11,5.41-2.36,6.57-.3.14-.62.25-.94.33-65.45,16.07-93.19,79.8-77.5,141.73.7,2.71.88,4.55.54,5.52-1.28,3.79-5.39,5.82-9.17,4.55-.49-.17-.97-.39-1.41-.65-14.59-8.73-28.94-10.91-43.06-6.53-20.46,6.36-30.92,23.81-27.53,44.94,6.07,37.74,48.08,56.87,81.93,61.47,16.65,2.23,37.37,3.4,62.14,3.51,3.29.02,6.04,2.46,6.15,5.45.02.7-.1,1.39-.37,2.04-.73,1.7-2.33,3.25-4.81,4.64-12.76,7.2-26.99,13.39-29.5,25.44-1.01,4.77,2.56,9.63,8.08,11.01,17.24,4.27,36.36,0,54.32-3.1,2.75-.49,5.38,1.35,5.87,4.11.05.29.08.58.08.87v1.51c0,2.68-1.82,5.02-4.44,5.69-18.29,4.64-58.46,11.21-71.22-5.86-10.84-14.44.25-30.92,13.77-38.92Z"/>
  <path class="cls-1" d="M1557.04,1750.59c0,1.41-1.15,2.55-2.56,2.55l-88.8-.15c-1.41,0-2.55-1.15-2.55-2.56h0l.13-72.22c0-1.41,1.15-2.55,2.56-2.55l88.8.15c1.41,0,2.55,1.15,2.55,2.56l-.13,72.22ZM1545.26,1688.63c0-.99-.81-1.8-1.81-1.79l-66.95.23c-.99,0-1.8.81-1.79,1.81h0s.18,51.3.18,51.3c0,.99.81,1.8,1.81,1.79h0l66.95-.23c.99,0,1.8-.81,1.79-1.81l-.18-51.3Z"/>
  <path class="cls-1" d="M1717.54,1750.47c0,1.66-1.36,3.01-3.02,3h0l-87.87-.31c-1.66,0-3.01-1.36-3-3.02l.25-71.72c0-1.66,1.36-3.01,3.02-3h0l87.87.31c1.66,0,3.01,1.36,3,3.02l-.25,71.72ZM1705.57,1689.71c0-1.53-1.24-2.76-2.76-2.76h-64.36c-1.53,0-2.76,1.24-2.76,2.76v49.21c0,1.53,1.24,2.76,2.76,2.76h64.36c1.53,0,2.76-1.24,2.76-2.76h0v-49.21Z"/>
  <path class="cls-2" d="M613.2,1693.77c.06.17-.43,1.46-1.46,3.89-.25.52-.87.75-1.39.5-.29-.14-.5-.4-.58-.71-.22-1.2-.08-2.45.42-3.77.3-.82,1.22-1.25,2.04-.94.47.17.83.55.97,1.03Z"/>
  <path class="cls-1" d="M608.05,1914.34c-1.13,0-2.05-.92-2.05-2.05v-114.7c0-52.14,2.23-94.4,4.98-94.4h.75c2.75,0,4.98,42.27,4.98,94.4h0v114.7c0,1.13-.92,2.05-2.05,2.05h-6.61Z"/>
  <path class="cls-1" d="M338.84,1709.09l9.4-.02c.8,0,1.45.65,1.45,1.45l.27,153.02c0,.8-.65,1.45-1.45,1.45l-9.4.02c-.8,0-1.45-.65-1.45-1.45l-.27-153.02c0-.8.65-1.45,1.45-1.45Z"/>
  <rect class="cls-1" x="426.24" y="1709.67" width="11.88" height="155.08" rx="1.39" ry="1.39"/>
  <path class="cls-1" d="M519.17,1912.2c-1.13,0-2.05-.92-2.05-2.05h0s-.21-135.24-.21-135.24c-.06-36.66,1.62-66.4,3.77-66.49h3.1c2.15-.09,3.95,29.6,4.02,66.32,0,.06,0,.11,0,.17l.21,135.24c0,1.13-.92,2.05-2.05,2.05h-6.78Z"/>
  <rect class="cls-1" x="694.05" y="1709.67" width="11.63" height="155.08" rx="1.36" ry="1.36" transform="translate(-3.13 1.23) rotate(-.1)"/>
  <path class="cls-1" d="M2906.74,1938.56c0,1.53-1.24,2.76-2.76,2.76h-107.63c-1.53,0-2.76-1.24-2.76-2.76h0v-201.11c0-1.53,1.24-2.76,2.76-2.76h107.63c1.53,0,2.76,1.24,2.76,2.76h0v201.11ZM2895,1747.97c0-1.32-1.08-2.38-2.39-2.38l-85.7.3c-1.32,0-2.38,1.08-2.38,2.39l.63,179.51c0,1.32,1.08,2.38,2.39,2.38l85.7-.3c1.32,0,2.38-1.08,2.38-2.39l-.63-179.51Z"/>
  <path class="cls-1" d="M4564.97,1947.01c0,2.45-1.98,4.44-4.43,4.44l-195.58.34c-2.45,0-4.44-1.98-4.44-4.43l-.31-179.43c0-2.45,1.98-4.44,4.43-4.44h0l195.58-.34c2.45,0,4.44,1.98,4.44,4.43h0s.31,179.43.31,179.43ZM4456.35,1777.38c0-1.53-1.24-2.76-2.76-2.76h-78.67c-1.53,0-2.76,1.24-2.76,2.76h0v72.98c0,1.53,1.24,2.76,2.76,2.76h78.67c1.53,0,2.76-1.24,2.76-2.76v-72.98ZM4552.93,1777.69c0-1.83-1.47-3.31-3.29-3.32l-78.42-.27c-1.83,0-3.31,1.47-3.32,3.29h0s-.25,72.22-.25,72.22c0,1.83,1.47,3.31,3.29,3.32l78.42.27c1.83,0,3.31-1.47,3.32-3.29h0s.25-72.22.25-72.22ZM4456.48,1867.47c0-1.69-1.37-3.05-3.05-3.05h-77.75c-1.69,0-3.06,1.37-3.06,3.05h0v68.79c0,1.69,1.37,3.05,3.05,3.05h77.75c1.69,0,3.05-1.37,3.05-3.05v-68.79ZM4552.74,1868.21c0-2.03-1.64-3.68-3.68-3.69l-77.5-.14c-2.03,0-3.69,1.64-3.69,3.68l-.12,67.87c0,2.03,1.64,3.69,3.68,3.69l77.5.14c2.03,0,3.69-1.64,3.69-3.68l.12-67.87Z"/>
  <path class="cls-1" d="M5198.3,1947.59c0,2.24-1.81,4.06-4.05,4.07l-198.85.35c-2.24,0-4.06-1.81-4.07-4.05l-.32-181.36c0-2.24,1.81-4.06,4.05-4.07l198.85-.35c2.24,0,4.06,1.81,4.07,4.05l.32,181.36ZM5088.8,1777.59c0-1.92-1.55-3.47-3.47-3.47h-79c-1.92,0-3.47,1.56-3.47,3.47v71.81c0,1.92,1.55,3.47,3.47,3.47h79c1.92,0,3.47-1.56,3.47-3.47v-71.81ZM5186.19,1777.22c0-1.57-1.28-2.84-2.85-2.84l-80.18.14c-1.57,0-2.84,1.28-2.84,2.85h0s.13,72.23.13,72.23c0,1.57,1.28,2.84,2.85,2.84l80.18-.14c1.57,0,2.84-1.28,2.84-2.85h0s-.13-72.23-.13-72.23ZM5089.04,1867.83c0-1.78-1.43-3.23-3.21-3.23l-79.92-.28c-1.78,0-3.23,1.43-3.23,3.21h0s-.24,68.63-.24,68.63c0,1.78,1.43,3.23,3.21,3.23h0l79.92.28c1.78,0,3.23-1.43,3.23-3.21h0s.24-68.63.24-68.63ZM5186.11,1867.27c0-1.46-1.19-2.63-2.64-2.63h0l-80.43.14c-1.46,0-2.63,1.18-2.63,2.64h0l.12,69.97c0,1.46,1.18,2.63,2.64,2.63h0l80.43-.14c1.46,0,2.63-1.18,2.63-2.64h0l-.12-69.97Z"/>
  <path class="cls-1" d="M1200.16,2016.86c.45-.14,3.49-2.13,9.12-5.98,11.72-7.99,30.71-10.84,42.05-8.29,22.54,5.08,32.6,19.81,30.17,44.19-1.14,11.63-2.45,19.79-3.93,24.48-.39,1.23.25,2.56,1.46,3.01,4.74,1.76,8.37,4.03,10.88,6.82.96,1.07,1.32,2.53.96,3.89-1.42,5.36-4.37,8.22-8.83,8.58-1.76.13-3.32-1.08-3.6-2.8-1.34-7.62-5.12-10.39-11.34-8.33-2.64.85-5.47-.6-6.32-3.24-.39-1.22-.3-2.55.25-3.7,7.07-14.56,13.85-35.69,5.65-49.38-6.07-10.04-14.65-13.98-26.36-12.85-19.19,1.84-33.94,11.21-44.23,28.12-1.26,2.06-2.87,3.36-4.85,3.89-2.77.75-5.61-.93-6.35-3.74-.21-.81-.23-1.67-.05-2.49,4.94-22.72-.5-66.37-35.74-54.65-21.8,7.28-36.32,23.1-57.87,42.43-.89.84-2.19,1.06-3.89.67-3.01-.72-4.9-3.69-4.22-6.64.11-.46.27-.9.49-1.31,6.25-11.72,12.19-22.62,17.83-32.72,23.94-42.89,34.56-93.36,16.36-140.43-18.58-48.12-69.71-66.41-115.53-43.52-55.95,27.95-64.9,98.09-61.01,154.12.08,1.1-.12,2.21-.59,3.22l-.71,1.55c-1.36,2.89-4.8,4.13-7.68,2.77-1.06-.5-1.94-1.3-2.53-2.31-12.97-22.15-21.42-36.39-25.36-42.72-13.93-22.39-38.46-48.46-65.95-51.3-19.5-2.05-30.51,9.67-29.5,28.87,2.09,40.13,33.6,77.66,57.54,108.34,3.29,4.18,5.24,8.12,5.86,11.8.53,3.1-1.55,6.04-4.65,6.57-1.51.26-3.07-.1-4.31-1.01-14.86-10.88-40.51-31.09-62.77-31.84-5.82-.2-10.71,3.88-10.92,9.12,0,.14,0,.28,0,.42.17,18.79,15.48,37.66,30.8,46.87,2.66,1.36,3.7,4.62,2.33,7.3-.14.27-.3.53-.49.78l-.54.75c-1.81,2.42-5.19,3.03-7.7,1.38-20.92-13.7-33.13-31.31-36.61-52.85-3.1-19.08,13.39-28.41,31.13-25.53,11.58,1.87,22.32,6.74,32.22,14.6.49.36,1.17.31,1.59-.13l.08-.13c.37-.36.39-.95.04-1.34-22.4-25.83-37.07-53.45-44.02-82.85-6.28-26.66,5.77-54.73,37.45-53.23,41.01,1.93,66.95,38.71,87.96,68.92.58.83,1.73,1.04,2.56.46.46-.32.74-.82.78-1.38,1.76-25.41,7.16-49.45,16.19-72.1,17.66-44.19,60.26-74.82,108.67-70.76,49.63,4.14,78.96,45.78,85.2,92.98,5.4,40.76-5.44,74.15-22.18,111.68-.29.58-.05,1.28.53,1.57.42.21.92.15,1.27-.15,25.36-19.33,62.89-28.33,76.74,8.37,2.26,5.98,2.76,14.27,3.68,19.42.21,1.21,1.36,2.01,2.57,1.8.07-.01.13-.03.19-.04Z"/>
  <path class="cls-1" d="M2996.2,1828.76c0,2.89-2.34,5.23-5.23,5.23h-31.89c-2.89,0-5.23-2.34-5.23-5.23v-24.77c0-2.89,2.34-5.23,5.23-5.23h31.89c2.89,0,5.23,2.34,5.23,5.23v24.77ZM2987.35,1813.69c.02-2.33-1.86-4.24-4.2-4.26h-1.84c-2.33-.03-4.24,1.85-4.26,4.18l-.04,5.02c-.02,2.33,1.86,4.24,4.2,4.26h1.84c2.33.03,4.24-1.85,4.26-4.18l.03-5.02ZM2970.68,1817.84c.78-1.9.74-3.99-.13-6.28-.52-1.33-2.03-1.99-3.36-1.47-.66.26-1.18.77-1.45,1.42-1.2,2.96-.95,5.43.75,7.41,1.7,1.98,3.1,1.62,4.18-1.09Z"/>
  <path class="cls-1" d="M1465.46,1800.07l9.67-.02c.75,0,1.36.61,1.36,1.36l.39,221.07c0,.75-.61,1.36-1.36,1.36l-9.67.02c-.75,0-1.36-.61-1.36-1.36l-.39-221.07c0-.75.61-1.36,1.36-1.36Z"/>
  <rect class="cls-1" x="1440.98" y="1906.68" width="222.78" height="10.63" rx="1.25" ry="1.25" transform="translate(-362.33 3461.03) rotate(-89.9)"/>
  <rect class="cls-1" x="1706.91" y="1800.73" width="10.13" height="222.37" rx="1.18" ry="1.18"/>
  <path class="cls-1" d="M1628.35,1801.05h7.87c.67.01,1.21.56,1.21,1.23l-.38,220.03c0,.67-.54,1.21-1.21,1.21h-7.87c-.67-.01-1.21-.56-1.21-1.23l.38-220.03c0-.67.54-1.21,1.21-1.21Z"/>
  <path class="cls-1" d="M4816,1921.14c0,1.73-1.39,3.14-3.13,3.15h0l-74.07.26c-1.73,0-3.14-1.39-3.15-3.13h0s-.4-115.83-.4-115.83c0-1.73,1.39-3.14,3.13-3.15h0l74.07-.26c1.73,0,3.14,1.39,3.15,3.13h0s.4,115.83.4,115.83ZM4804.25,1815.04c0-.79-.64-1.42-1.42-1.42h-54.31c-.79,0-1.42.64-1.42,1.42h0v95.58c0,.79.64,1.42,1.42,1.42h54.31c.79,0,1.42-.64,1.42-1.42v-95.57Z"/>
  <path class="cls-1" d="M2990.94,1903.56c0,2.36-1.9,4.27-4.25,4.28l-27.87.1c-2.36,0-4.27-1.9-4.28-4.25l-.1-27.87c0-2.36,1.9-4.27,4.25-4.28l27.87-.1c2.36,0,4.27,1.9,4.28,4.25l.1,27.87ZM2980.59,1886.41c0-2.43-1.97-4.39-4.4-4.39h-6.36c-2.43.02-4.39,1.99-4.39,4.41h0s.01,6.03.01,6.03c0,2.43,1.97,4.39,4.4,4.39h6.36c2.43-.01,4.39-1.99,4.39-4.41h0s-.01-6.03-.01-6.03Z"/>
  <path class="cls-1" d="M0,1999.41v-13.85c24.94-14.2,49.31-13.49,73.1,2.13.94.63,2.21.39,2.85-.55.18-.26.29-.56.33-.87,4.83-31.19,20.03-54.94,45.61-71.26,19.67-12.6,48.96-15.02,68.84-1.3,17.32,11.88,25.23,32.18,28.25,52.72.12.83.9,1.38,1.74,1.24.43-.07.82-.33,1.06-.7,17.11-27.79,52.77-41.34,82.77-26.11,35.78,18.16,39.96,62.94,27.62,97.96-1.34,3.81-5.52,5.82-9.33,4.48l-.42-.13c-3.32-1.16-5.07-4.77-3.92-8.07.08-.23.18-.46.28-.68,8.56-17.91,9.6-36.48,3.1-55.7-15.86-46.99-70.59-37.87-92.06-1.63-6.58,11.1-9.89,16.68-9.92,16.74-1.67,2.98-5.44,4.05-8.42,2.4-2.13-1.18-3.35-3.49-3.13-5.92,2.51-29.79-7.74-66.45-40.97-73.15-37.07-7.49-65.57,25.57-75.99,58.58-2.99,9.43-5.36,19.88-7.11,31.34-.22,1.39-1.17,3-2.85,4.81-1.75,1.87-4.68,1.98-6.54.25-.39-.36-.71-.78-.95-1.25-5.06-9.75-11.42-16.7-21.97-20.25-17.57-5.89-34.9-2.97-51.97,8.75Z"/>
  <rect class="cls-1" x="4717.46" y="2068.62" width="128.3" height="11.63" rx=".98" ry=".98"/>
  <path class="cls-1" d="M4716.11,2099.35l129.69.23c.68,0,1.23.55,1.23,1.23l-.02,8.75c0,.68-.55,1.23-1.23,1.23l-129.69-.23c-.68,0-1.23-.55-1.23-1.23l.02-8.75c0-.68.55-1.23,1.23-1.23Z"/>
  <path class="cls-1" d="M5624,2272.66v14.14c-23.41-19.75-46.39-35.33-68.96-46.74-26.84-13.56-56.49-20.66-88.96-21.3-38.83-.75-83.56,14.44-95.62,53.73-12.89,42.1,6.57,89.51,30.71,124.82.81,1.16,1.2,2.57,1.09,3.98-.36,4.13-2.3,6.57-5.82,7.32-1.5.29-3.05-.04-4.31-.92-39.39-27.9-82.73-45.46-130.01-52.68-46.36-7.11-106.25-5.77-145.24,23.52-47.41,35.61-49.63,107.46-38.37,159.85.58,2.62-1.1,5.21-3.74,5.78-.63.14-1.28.15-1.91.04l-1.46-.29c-.98-.16-1.88-.63-2.55-1.34-51.85-53.69-120.89-95.78-195.33-105.91-38.75-5.27-71.83-1.49-99.26,11.34-52.85,24.73-81.18,82.64-80.3,140.31.04,3.44-2.71,6.27-6.15,6.32-1.28.02-2.54-.36-3.6-1.08-97.92-67.5-211.78-96.12-327.61-59.29-82.39,26.24-140.22,90.47-148.42,178.68h-11.63c4.58-59.92,29.5-108.39,74.78-145.41,78.67-64.36,193.32-74.02,287.81-47.03,42.65,12.16,82.83,30.71,120.51,55.65,1.14.74,2.67.42,3.42-.72.23-.35.36-.75.39-1.16,2.01-31.38,10.96-59.81,26.86-85.28,54.48-87.21,173.11-75.24,253.16-36.87,36.1,17.3,68.45,39.59,97.04,66.87.58.52,1.48.49,2-.07.3-.32.43-.76.34-1.19-10.59-58.12,6.61-132.36,65.65-159.72,77.37-35.86,176.09-16.03,249.02,25.36.45.23,1.01.06,1.24-.39.13-.26.14-.56.01-.82-11.01-21.89-22.01-47.03-23.89-71.39-5.23-66.79,41.59-101.01,104.49-103.57,59.88-2.43,120.89,25.86,164.62,65.49Z"/>
</svg>