<svg width="281" height="63" viewBox="0 0 281 63" fill="none" xmlns="http://www.w3.org/2000/svg">
<g clip-path="url(#clip0_7_37)">
<path d="M276.537 12.7019L254.954 0.659844C254.591 0.460923 254.186 0.422109 253.819 0.519144V15.6566L277.416 15.5838C278.769 15.5596 277.716 13.3666 276.533 12.7019H276.537Z" fill="#448BCA"/>
<path d="M252.872 1.2566L246.168 13.3811C245.594 14.4194 246.352 15.6906 247.535 15.6712L253.823 15.6517V0.514282C253.432 0.616169 253.084 0.873312 252.872 1.25175V1.2566Z" fill="#156398"/>
<path d="M280.879 44.1752L280.995 19.373C280.995 18.9607 280.836 18.5822 280.57 18.3057L267.366 25.593L278.793 46.3391C279.464 47.5181 280.874 45.5337 280.879 44.1752Z" fill="#4B4B4B"/>
<path d="M279.469 17.8253L265.661 17.7574C264.478 17.7526 263.734 19.0334 264.318 20.0668L267.361 25.593L280.565 18.3057C280.285 18.0097 279.899 17.8253 279.459 17.8253H279.469Z" fill="#2C2B2A"/>
<path d="M256.021 62.6021L277.247 49.9391C277.6 49.7256 277.837 49.3957 277.943 49.0221L264.927 41.4L253.104 61.9181C252.442 63.1019 254.862 63.296 256.026 62.6021H256.021Z" fill="#4B4B4B"/>
<path d="M277.783 47.8189L270.732 35.8933C270.128 34.8744 268.651 34.8889 268.071 35.9272L264.922 41.3951L277.938 49.0172C278.044 48.6243 278.006 48.1924 277.783 47.8189Z" fill="#2C2B2A"/>
<path d="M227.362 50.303L248.941 62.345C249.303 62.5439 249.709 62.5827 250.076 62.4857V47.3483L226.478 47.421C225.125 47.4453 226.178 49.6383 227.362 50.303Z" fill="#4B4B4B"/>
<path d="M251.032 61.7482L257.735 49.6237C258.31 48.5854 257.552 47.3143 256.369 47.3337L250.08 47.3531V62.4906C250.472 62.3887 250.819 62.1315 251.032 61.7531V61.7482Z" fill="#2C2B2A"/>
<path d="M223.02 18.8248L222.904 43.6269C222.904 44.0393 223.063 44.4178 223.329 44.6943L236.533 37.407L225.106 16.6609C224.435 15.4819 223.025 17.4663 223.02 18.8248Z" fill="#4B4B4B"/>
<path d="M224.43 45.1795L238.233 45.2474C239.416 45.2523 240.16 43.9714 239.576 42.938L236.533 37.4119L223.329 44.6992C223.609 44.9952 223.995 45.1795 224.435 45.1795H224.43Z" fill="#2C2B2A"/>
<path d="M247.883 0.4027L226.657 13.0658C226.304 13.2793 226.067 13.6092 225.961 13.9828L238.977 21.6049L250.8 1.0868C251.462 -0.0970307 249.042 -0.291101 247.878 0.4027H247.883Z" fill="#4B4B4B"/>
<path d="M226.12 15.1811L233.172 27.1067C233.775 28.1256 235.253 28.111 235.833 27.0728L238.982 21.6048L225.966 13.9827C225.86 14.3757 225.898 14.8075 226.12 15.1811Z" fill="#2C2B2A"/>
<path d="M2.64183 35.7089H0L10.7267 13.7256H13.6776L24.4043 35.7089H21.7045L18.6957 29.5472H5.62174L2.64183 35.7089ZM12.1659 16.0836L6.67461 27.3784H17.638L12.1611 16.0836H12.1659Z" fill="white"/>
<path d="M30.4124 13.7256H43.2111C45.2444 13.7256 46.8816 14.3321 48.1132 15.5402C49.3737 16.7482 50.0064 18.3057 50.0064 20.2124C50.0064 22.1191 49.3641 23.7299 48.0842 24.9574C46.8333 26.1849 45.2251 26.8011 43.269 26.8011H34.6674L35.5754 24.6178H42.8537C44.4185 24.6178 45.5921 24.2199 46.3697 23.4243C47.1473 22.6286 47.5385 21.5563 47.5385 20.2124C47.5385 18.7569 47.0893 17.6798 46.1862 16.9811C45.3168 16.2825 44.2929 15.9331 43.1193 15.9331H32.8756V35.704H30.4076V13.7256H30.4124Z" fill="white"/>
<path d="M57.5166 13.7256H74.9565V15.9089H59.9845V23.5747H74.0437L73.1792 25.6852H59.9845V33.5402H75.7003V35.7089H57.5166V13.7256Z" fill="white"/>
<path d="M83.819 13.7256H96.1056C98.2693 13.7256 100.032 14.3418 101.404 15.5693C102.804 16.7968 103.5 18.3639 103.5 20.2706C103.5 21.9396 102.954 23.3272 101.863 24.4189C100.771 25.5154 99.2932 26.1752 97.4241 26.4032L104.408 35.7089H101.283L94.5457 26.6555H88.0739L88.9819 24.4722H96.0429C97.5304 24.4722 98.733 24.0889 99.6554 23.3127C100.573 22.5412 101.037 21.5272 101.037 20.2658C101.037 19.0043 100.588 17.9854 99.6844 17.1703C98.8151 16.3261 97.6946 15.904 96.323 15.904H86.2821V35.704H83.8141V13.7256H83.819Z" fill="white"/>
<path d="M107.566 13.7256H128.068V15.9089H119.042V35.7089H116.579V15.9089H107.566V13.7256Z" fill="white"/>
<path d="M133.763 13.7256H136.231V26.4032C136.231 28.6835 136.916 30.4787 138.293 31.7838C139.669 33.0889 141.553 33.7439 143.953 33.7439C146.354 33.7439 148.256 33.0889 149.676 31.7838C151.096 30.4447 151.806 28.6544 151.806 26.4032V13.7256H154.274V26.835C154.274 29.6345 153.357 31.8712 151.516 33.545C149.705 35.1849 147.223 36.0097 144.059 36.0097C140.896 36.0097 138.356 35.1897 136.544 33.545C134.695 31.8663 133.772 29.6296 133.772 26.835V13.7256H133.763Z" fill="white"/>
<path d="M163.586 13.7256H175.873C178.036 13.7256 179.799 14.3418 181.171 15.5693C182.571 16.7968 183.272 18.3639 183.272 20.2706C183.272 21.9396 182.726 23.3272 181.634 24.4189C180.543 25.5154 179.065 26.1752 177.196 26.4032L184.18 35.7089H181.055L174.317 26.6555H167.846L168.754 24.4722H175.815C177.302 24.4722 178.505 24.0889 179.427 23.3127C180.345 22.5412 180.808 21.5272 180.808 20.2658C180.808 19.0043 180.359 17.9854 179.456 17.1703C178.587 16.3261 177.466 15.904 176.095 15.904H166.054V35.704H163.586V13.7256Z" fill="white"/>
<path d="M191.241 13.7256H208.676V15.9089H193.704V23.5747H207.763L206.898 25.6852H193.704V33.5402H209.424V35.7089H191.241V13.7256Z" fill="white"/>
<path d="M7.3316 42.807C8.07537 43.3504 8.58731 44.083 8.86743 45.0146H7.88701C7.64552 44.3741 7.235 43.855 6.65544 43.4571C6.07588 43.0593 5.39007 42.8604 4.598 42.8604C3.91219 42.8604 3.29882 43.0253 2.74341 43.3455C2.19282 43.6706 1.75815 44.1364 1.44422 44.738C1.1303 45.3396 0.970917 46.048 0.970917 46.8485C0.970917 47.6491 1.1303 48.3865 1.44905 48.9881C1.76781 49.5946 2.20731 50.0555 2.76755 50.3806C3.3278 50.7057 3.97014 50.8658 4.68976 50.8658C5.32728 50.8658 5.91167 50.7251 6.43811 50.4388C6.96937 50.1526 7.39921 49.7402 7.72763 49.1968C8.05605 48.6582 8.24923 48.0178 8.30236 47.29H4.35652V46.572H9.12823V47.4113C9.06545 48.2264 8.83845 48.9542 8.44725 49.6043C8.05605 50.2544 7.52961 50.7639 6.86795 51.1423C6.20628 51.5159 5.45768 51.7051 4.61249 51.7051C3.71417 51.7051 2.91244 51.5013 2.21214 51.0889C1.51184 50.6814 0.970917 50.104 0.584543 49.3617C0.198169 48.6194 0.00498199 47.7801 0.00498199 46.8437C0.00498199 45.9073 0.198169 45.0679 0.584543 44.3256C0.970917 43.5833 1.51184 43.0108 2.20731 42.5984C2.90279 42.1908 3.69968 41.9822 4.598 41.9822C5.67502 41.9822 6.58783 42.2491 7.3316 42.7924" fill="white"/>
<path d="M16.6527 50.8609H20.1059V51.6178H15.6964V42.0744H16.6527V50.8609Z" fill="white"/>
<path d="M32.9335 42.5887C33.6338 43.0011 34.1844 43.5833 34.5853 44.3208C34.9861 45.0631 35.1842 45.9024 35.1842 46.8388C35.1842 47.7752 34.9861 48.6194 34.5853 49.3617C34.1844 50.1089 33.6338 50.6863 32.9335 51.1035C32.2332 51.5159 31.4412 51.7245 30.5622 51.7245C29.6832 51.7245 28.8911 51.5159 28.1908 51.1035C27.4905 50.6863 26.9399 50.1089 26.5391 49.3617C26.1382 48.6146 25.9402 47.7752 25.9402 46.8388C25.9402 45.9024 26.1382 45.0631 26.5391 44.3208C26.9399 43.5833 27.4905 43.0011 28.1908 42.5887C28.8911 42.1763 29.6832 41.9628 30.5622 41.9628C31.4412 41.9628 32.2332 42.1714 32.9335 42.5887ZM28.6931 43.3358C28.1425 43.6609 27.703 44.1267 27.3842 44.7283C27.0655 45.3299 26.9061 46.0383 26.9061 46.8388C26.9061 47.6394 27.0655 48.3477 27.3842 48.9493C27.703 49.5509 28.1377 50.0167 28.6931 50.3418C29.2437 50.6668 29.8667 50.8318 30.5573 50.8318C31.248 50.8318 31.871 50.6668 32.4216 50.3418C32.9722 50.0167 33.4068 49.5509 33.7304 48.9493C34.0492 48.3429 34.2086 47.6394 34.2086 46.8388C34.2086 46.0383 34.0492 45.3299 33.7304 44.7283C33.4117 44.1218 32.977 43.6561 32.4216 43.3358C31.871 43.0108 31.248 42.8507 30.5573 42.8507C29.8667 42.8507 29.2437 43.0108 28.6931 43.3358Z" fill="white"/>
<path d="M47.553 47.5035C47.92 47.9353 48.1035 48.4496 48.1035 49.0464C48.1035 49.8129 47.8427 50.434 47.3211 50.9046C46.7995 51.38 46.0461 51.6178 45.056 51.6178H41.7573V42.0744H45.0174C45.9688 42.0744 46.6884 42.2879 47.1666 42.7197C47.6447 43.1515 47.8862 43.724 47.8862 44.4469C47.8862 45.0679 47.722 45.5676 47.3887 45.9412C47.0555 46.3148 46.6305 46.5623 46.1089 46.6787C46.7029 46.7951 47.1811 47.0717 47.553 47.5035ZM42.7185 46.3391H44.9015C45.568 46.3391 46.0751 46.1838 46.418 45.8733C46.7609 45.5628 46.9348 45.1358 46.9348 44.5924C46.9348 44.0491 46.7657 43.6415 46.4228 43.3358C46.0799 43.0302 45.5535 42.8749 44.8483 42.8749H42.7185V46.3391ZM46.558 50.3127C46.9541 49.9827 47.1521 49.5267 47.1521 48.9396C47.1521 48.3526 46.9492 47.9062 46.5436 47.5666C46.1379 47.2269 45.5824 47.0571 44.8725 47.0571H42.7185V50.8075H44.9015C45.6114 50.8075 46.1668 50.6426 46.558 50.3127Z" fill="white"/>
<path d="M60.0618 49.289H55.7344L54.8747 51.6178H53.8653L57.3717 42.2927H58.4342L61.9405 51.6178H60.9166L60.0666 49.289H60.0618ZM59.7768 48.5321L57.9029 43.3892L56 48.5321H59.7768Z" fill="white"/>
<path d="M69.0595 50.8609H72.5127V51.6178H68.1032V42.0744H69.0595V50.8609Z" fill="white"/>
<path d="M92.1019 51.6178L89.5035 47.6393H87.9677V51.6178H87.0114V42.0744H89.9237C90.991 42.0744 91.7879 42.3267 92.3144 42.8361C92.8408 43.3407 93.1016 44.0199 93.1016 44.8787C93.1016 45.6744 92.8794 46.3051 92.4351 46.7757C91.9908 47.2464 91.3436 47.5229 90.4984 47.6151L93.1789 51.6226H92.1019V51.6178ZM87.9677 46.9213H89.8561C91.3871 46.9213 92.1502 46.2566 92.1502 44.9321C92.1502 43.6075 91.3871 42.8992 89.8561 42.8992H87.9677V46.9213Z" fill="white"/>
<path d="M100.486 42.8458V46.4458H104.191V47.193H100.486V50.8366H104.596V51.6178H99.5299V42.0744H104.596V42.8458H100.486Z" fill="white"/>
<path d="M116.574 49.289H112.246L111.387 51.6178H110.377L113.884 42.2927H114.946L118.453 51.6178H117.429L116.579 49.289H116.574ZM116.294 48.5321L114.42 43.3892L112.517 48.5321H116.294Z" fill="white"/>
<path d="M125.576 50.8609H129.03V51.6178H124.62V42.0744H125.576V50.8609Z" fill="white"/>
<path d="M144.484 42.8458V46.4458H148.189V47.193H144.484V50.8366H148.595V51.6178H143.528V42.0744H148.595V42.8458H144.484Z" fill="white"/>
<path d="M160.582 50.4194C160.379 50.8027 160.065 51.1181 159.645 51.3558C159.22 51.5984 158.693 51.7148 158.066 51.7148C157.438 51.7148 156.911 51.6032 156.433 51.3752C155.955 51.152 155.578 50.8415 155.293 50.4485C155.008 50.0555 154.844 49.614 154.801 49.1289H155.8C155.834 49.4103 155.94 49.6868 156.11 49.9682C156.279 50.2496 156.525 50.4825 156.848 50.6669C157.172 50.8512 157.563 50.9434 158.022 50.9434C158.626 50.9434 159.085 50.7784 159.403 50.4582C159.722 50.1332 159.881 49.7208 159.881 49.2259C159.881 48.7989 159.775 48.4545 159.568 48.1876C159.355 47.9256 159.094 47.717 158.785 47.5714C158.476 47.4259 158.051 47.2706 157.515 47.096C156.921 46.9067 156.443 46.7224 156.081 46.5477C155.718 46.3731 155.409 46.1159 155.158 45.7714C154.907 45.427 154.781 44.9709 154.781 44.4032C154.781 43.6852 155.032 43.0933 155.535 42.6469C156.037 42.1957 156.728 41.9677 157.612 41.9677C158.495 41.9677 159.22 42.1908 159.746 42.6324C160.273 43.0739 160.582 43.627 160.683 44.2868H159.674C159.592 43.8793 159.379 43.5202 159.031 43.2049C158.684 42.8895 158.21 42.7294 157.612 42.7294C157.056 42.7294 156.607 42.8749 156.279 43.1612C155.945 43.4475 155.776 43.8501 155.776 44.3644C155.776 44.772 155.878 45.1019 156.09 45.3493C156.298 45.6016 156.549 45.7957 156.853 45.9315C157.153 46.0674 157.563 46.2178 158.085 46.3876C158.684 46.5768 159.176 46.7612 159.548 46.9407C159.92 47.1202 160.239 47.3919 160.5 47.7558C160.76 48.1148 160.891 48.5952 160.891 49.1919C160.891 49.6237 160.789 50.0313 160.587 50.4146" fill="white"/>
<path d="M173.023 42.0744V42.8458H170.314V51.6178H169.372V42.8458H166.677V42.0744H173.023Z" fill="white"/>
<path d="M184.629 49.289H180.301L179.442 51.6178H178.432L181.939 42.2927H183.001L186.507 51.6178H185.484L184.634 49.289H184.629ZM184.344 48.5321L182.47 43.3892L180.567 48.5321H184.344Z" fill="white"/>
<path d="M198.239 42.0744V42.8458H195.529V51.6178H194.583V42.8458H191.893V42.0744H198.239Z" fill="white"/>
<path d="M205.314 42.8458V46.4458H209.019V47.193H205.314V50.8366H209.424V51.6178H204.358V42.0744H209.424V42.8458H205.314Z" fill="white"/>
</g>
<defs>
<clipPath id="clip0_7_37">
<rect width="281" height="63" fill="white"/>
</clipPath>
</defs>
</svg>
