<svg width="323" height="40" viewBox="0 0 323 40" fill="none" xmlns="http://www.w3.org/2000/svg">
<path d="M0.42581 30.3871V28.8774C2.20646 28.8516 3.49678 28.6323 4.29678 28.2194C5.12258 27.7806 5.53549 26.9936 5.53549 25.8581V17.3419C5.53549 16.129 5.39355 15.2258 5.10968 14.6323C4.82581 14.0387 4.28387 13.6387 3.48387 13.4323C2.68387 13.2258 1.52258 13.1226 3.8743e-06 13.1226V11.6129C2.14194 11.5613 3.90968 11.3936 5.30323 11.1097C6.69678 10.8 7.93549 10.3097 9.01936 9.63871V25.8581C9.01936 26.9936 9.38065 27.7806 10.1032 28.2194C10.8258 28.6323 12.1032 28.8516 13.9355 28.8774V30.3871C13.2903 30.3613 12.3484 30.3355 11.1097 30.3097C9.87097 30.2581 8.61936 30.2323 7.35484 30.2323C6.01291 30.2323 4.69678 30.2581 3.40646 30.3097C2.11613 30.3355 1.12258 30.3613 0.42581 30.3871ZM34.1111 30.5806C33.9304 30.5032 33.5046 30.4516 32.8337 30.4258C32.1627 30.4 31.4401 30.3871 30.6659 30.3871H17.4272V28.9548C19.0788 27.7161 20.5627 26.5419 21.8788 25.4323C23.2208 24.2968 24.3692 23.2129 25.324 22.1806C26.2788 21.1226 27.0014 20.0645 27.4917 19.0065C28.0079 17.9226 28.2659 16.8129 28.2659 15.6774C28.2659 14.3355 27.9046 13.3419 27.1821 12.6968C26.4595 12.0258 25.4014 11.6903 24.0079 11.6903C22.924 11.6903 22.0595 11.8581 21.4143 12.1936C20.795 12.5032 20.4853 12.8903 20.4853 13.3548C20.4853 13.6645 20.5885 13.9742 20.795 14.2839C21.0272 14.5936 21.2466 14.929 21.453 15.2903C21.6595 15.6516 21.7627 16.0516 21.7627 16.4903C21.7627 17.0581 21.5692 17.4968 21.1821 17.8065C20.8208 18.1161 20.3434 18.271 19.7498 18.271C19.0014 18.271 18.395 18.0387 17.9304 17.5742C17.4917 17.0839 17.2724 16.4129 17.2724 15.5613C17.2724 14.4774 17.6337 13.5226 18.3563 12.6968C19.0788 11.8452 20.0595 11.1742 21.2982 10.6839C22.5627 10.1677 23.9563 9.90968 25.4788 9.90968C27.4401 9.90968 29.0143 10.3613 30.2014 11.2645C31.4143 12.1677 32.0208 13.4452 32.0208 15.0968C32.0208 16.0516 31.7756 16.9806 31.2853 17.8839C30.8208 18.7871 30.1369 19.7161 29.2337 20.671C28.3304 21.6 27.2337 22.5936 25.9434 23.6516C24.653 24.7097 23.195 25.8839 21.5692 27.1742V27.4065H29.4659C30.6014 27.4065 31.3627 27.2129 31.7498 26.8258C32.1369 26.4129 32.395 25.6645 32.524 24.5806H33.9563C33.9304 26.1806 33.9304 27.4194 33.9563 28.2968C34.0079 29.1484 34.0595 29.9097 34.1111 30.5806ZM45.3012 36.1936C43.8044 36.1936 42.4625 35.9871 41.2754 35.5742C40.1141 35.1613 39.198 34.5806 38.527 33.8323C37.8561 33.1097 37.5206 32.2839 37.5206 31.3548C37.5206 30.5548 37.7528 29.9097 38.2173 29.4194C38.6819 28.929 39.2754 28.6839 39.998 28.6839C40.5915 28.6839 41.0561 28.8387 41.3915 29.1484C41.727 29.4323 41.8948 29.8323 41.8948 30.3484C41.8948 30.7355 41.8173 31.071 41.6625 31.3548C41.5077 31.6645 41.3399 31.9484 41.1593 32.2065C41.0044 32.4645 40.927 32.7097 40.927 32.9419C40.927 33.4065 41.2625 33.7936 41.9335 34.1032C42.6302 34.4129 43.5206 34.5677 44.6044 34.5677C46.5399 34.5677 48.0367 34.0774 49.0948 33.0968C50.1786 32.1161 50.7206 30.7613 50.7206 29.0323C50.7206 27.6645 50.3464 26.5032 49.598 25.5484C48.8754 24.5936 47.8431 23.9355 46.5012 23.5742C46.0109 23.7032 45.6109 23.8065 45.3012 23.8839C44.9915 23.9613 44.7077 24 44.4496 24C44.0883 24 43.7915 23.9097 43.5593 23.729C43.327 23.5226 43.2109 23.2774 43.2109 22.9936C43.2109 22.6839 43.3399 22.4387 43.598 22.2581C43.8561 22.0774 44.1915 21.9871 44.6044 21.9871C44.8367 21.9871 45.1077 22.0129 45.4173 22.0645C45.727 22.0903 46.0754 22.1419 46.4625 22.2194C47.598 21.6 48.4496 20.8129 49.0173 19.8581C49.5851 18.9032 49.869 17.7936 49.869 16.529C49.869 14.9806 49.4431 13.7936 48.5915 12.9677C47.7657 12.1161 46.5399 11.6903 44.9141 11.6903C43.8561 11.6903 42.9786 11.8452 42.2819 12.1548C41.5851 12.4645 41.2367 12.8774 41.2367 13.3936C41.2367 13.6774 41.3399 13.9613 41.5464 14.2452C41.7528 14.5032 41.9593 14.7871 42.1657 15.0968C42.3722 15.4065 42.4754 15.7677 42.4754 16.1806C42.4754 16.7226 42.2948 17.1484 41.9335 17.4581C41.598 17.7677 41.1077 17.9226 40.4625 17.9226C39.7399 17.9226 39.1464 17.6903 38.6819 17.2258C38.2173 16.7355 37.9851 16.1161 37.9851 15.3677C37.9851 14.3613 38.3593 13.4452 39.1077 12.6194C39.8561 11.7936 40.8496 11.1355 42.0883 10.6452C43.3528 10.1548 44.7464 9.90968 46.269 9.90968C48.4883 9.90968 50.269 10.4516 51.6109 11.5355C52.9528 12.5936 53.6238 14.0129 53.6238 15.7936C53.6238 17.1871 53.1335 18.4903 52.1528 19.7032C51.198 20.8903 49.8431 21.8968 48.0883 22.7226C50.0496 23.1355 51.598 23.9226 52.7335 25.0839C53.8948 26.2194 54.4754 27.5871 54.4754 29.1871C54.4754 30.5548 54.0883 31.7677 53.3141 32.8258C52.5399 33.8839 51.4561 34.7097 50.0625 35.3032C48.6948 35.8968 47.1077 36.1936 45.3012 36.1936ZM57.6302 29.071V27.4452L70.4044 10.2194L71.5657 11.2258L60.069 26.7097L59.6044 26.0129H76.5206V29.071H57.6302ZM68.7399 35.8452V14.4L70.4044 10.2194H71.9141V35.8452H68.7399ZM87.0547 36.1936C85.6354 36.1936 84.3709 35.9613 83.2612 35.4968C82.1515 35.0581 81.2741 34.4387 80.6289 33.6387C79.9838 32.8645 79.6612 31.9742 79.6612 30.9677C79.6612 30.1161 79.8805 29.4581 80.3193 28.9936C80.7838 28.5032 81.3902 28.2581 82.1386 28.2581C82.7322 28.2581 83.1967 28.4129 83.5322 28.7226C83.8676 29.0065 84.0354 29.4065 84.0354 29.9226C84.0354 30.3355 83.958 30.6839 83.8031 30.9677C83.6483 31.2774 83.4935 31.5613 83.3386 31.8194C83.1838 32.0774 83.1064 32.3742 83.1064 32.7097C83.1064 33.2774 83.4289 33.729 84.0741 34.0645C84.7451 34.4258 85.5838 34.6065 86.5902 34.6065C88.3967 34.6065 89.816 34 90.8483 32.7871C91.8805 31.6 92.3967 29.9742 92.3967 27.9097C92.3967 25.7936 91.8805 24.1936 90.8483 23.1097C89.8418 22.0258 88.4225 21.4839 86.5902 21.4839C85.7644 21.4839 84.9773 21.5613 84.2289 21.7161C83.5064 21.871 82.8483 22.0903 82.2547 22.3742H81.9064L83.7257 10.2968C84.5773 10.4774 85.4547 10.6194 86.358 10.7226C87.2612 10.8258 88.2031 10.8774 89.1838 10.8774C90.3193 10.8774 91.3257 10.7871 92.2031 10.6065C93.1064 10.4 93.8547 10.1032 94.4483 9.71613L95.2612 10.4129C94.8225 11.6258 94.0354 12.5548 92.8999 13.2C91.7902 13.8194 90.3709 14.129 88.6418 14.129C87.9451 14.129 87.2612 14.1032 86.5902 14.0516C85.9193 13.9742 85.287 13.8839 84.6935 13.7806L83.6096 20.671C84.3064 20.3613 85.016 20.1419 85.7386 20.0129C86.4612 19.8581 87.2483 19.7806 88.0999 19.7806C90.6805 19.7806 92.6676 20.5032 94.0612 21.9484C95.4547 23.3936 96.1515 25.3548 96.1515 27.8323C96.1515 29.4581 95.7773 30.9032 95.0289 32.1677C94.2805 33.4323 93.2225 34.4129 91.8547 35.1097C90.487 35.8323 88.887 36.1936 87.0547 36.1936ZM81.9451 23.6903C81.2999 23.6903 80.9773 23.3806 80.9773 22.7613C80.9773 22.271 81.1967 21.8323 81.6354 21.4452C82.0999 21.0581 82.7064 20.7742 83.4547 20.5936L83.7257 21.2903C83.6999 22.0387 83.5193 22.6323 83.1838 23.071C82.8741 23.4839 82.4612 23.6903 81.9451 23.6903ZM121.244 30.929C119.798 30.929 118.56 30.7742 117.527 30.4645C116.495 30.1548 115.644 29.8452 114.973 29.5355C114.302 29.2258 113.76 29.071 113.347 29.071C113.037 29.071 112.779 29.2129 112.573 29.4968C112.392 29.7806 112.25 30.1936 112.147 30.7355H110.598C110.65 30.1677 110.689 29.4839 110.715 28.6839C110.74 27.8581 110.753 26.8129 110.753 25.5484C110.779 24.2581 110.792 22.6581 110.792 20.7484H112.34C112.521 23.3806 113.36 25.4839 114.856 27.0581C116.353 28.6323 118.276 29.4194 120.624 29.4194C122.405 29.4194 123.824 28.9419 124.882 27.9871C125.966 27.0065 126.508 25.7161 126.508 24.1161C126.508 23.1097 126.263 22.2323 125.773 21.4839C125.308 20.7355 124.573 20.0645 123.566 19.471C122.56 18.8774 121.231 18.3484 119.579 17.8839C117.669 17.3419 116.095 16.6839 114.856 15.9097C113.618 15.1355 112.702 14.2323 112.108 13.2C111.515 12.1419 111.218 10.9548 111.218 9.63871C111.218 7.44516 111.94 5.70323 113.385 4.41291C114.831 3.09678 116.766 2.43871 119.192 2.43871C120.508 2.43871 121.605 2.59355 122.482 2.90323C123.385 3.1871 124.134 3.48387 124.727 3.79355C125.321 4.10323 125.824 4.25807 126.237 4.25807C126.547 4.25807 126.805 4.12903 127.011 3.87097C127.218 3.5871 127.36 3.1742 127.437 2.63226H129.024C128.973 3.2 128.921 3.84517 128.869 4.56775C128.844 5.26452 128.818 6.14194 128.792 7.2C128.792 8.23226 128.792 9.56129 128.792 11.1871H127.244C127.115 9.74194 126.715 8.47742 126.044 7.39355C125.398 6.30968 124.534 5.47097 123.45 4.87742C122.392 4.25807 121.179 3.94839 119.811 3.94839C118.16 3.94839 116.869 4.3742 115.94 5.22581C115.011 6.07742 114.547 7.21291 114.547 8.63226C114.547 9.56129 114.792 10.4 115.282 11.1484C115.773 11.8968 116.56 12.5677 117.644 13.1613C118.727 13.7548 120.134 14.3226 121.863 14.8645C123.773 15.4323 125.334 16.1161 126.547 16.9161C127.785 17.6903 128.702 18.6065 129.295 19.6645C129.889 20.6968 130.185 21.8839 130.185 23.2258C130.185 25.5484 129.373 27.4194 127.747 28.8387C126.121 30.2323 123.953 30.929 121.244 30.929ZM147.709 20.4774V15.1742C147.709 13.9355 147.335 13.0065 146.586 12.3871C145.864 11.7677 144.78 11.4581 143.335 11.4581C142.302 11.4581 141.425 11.6 140.702 11.8839C140.006 12.1677 139.657 12.529 139.657 12.9677C139.657 13.2 139.735 13.4581 139.89 13.7419C140.07 14 140.238 14.2968 140.393 14.6323C140.573 14.9419 140.664 15.2774 140.664 15.6387C140.664 16.129 140.483 16.529 140.122 16.8387C139.76 17.1484 139.283 17.3032 138.69 17.3032C137.993 17.3032 137.425 17.071 136.986 16.6065C136.573 16.1419 136.367 15.5484 136.367 14.8258C136.367 13.871 136.702 13.0323 137.373 12.3097C138.07 11.5613 139.012 10.9806 140.199 10.5677C141.412 10.129 142.78 9.90968 144.302 9.90968C146.728 9.90968 148.483 10.4903 149.567 11.6516C150.651 12.7871 151.193 14.5806 151.193 17.0323V20.4774H147.709ZM141.36 30.929C139.606 30.929 138.212 30.4774 137.18 29.5742C136.148 28.6452 135.631 27.3936 135.631 25.8194C135.631 24.6065 135.915 23.6258 136.483 22.8774C137.077 22.129 137.825 21.5355 138.728 21.0968C139.657 20.6581 140.638 20.2968 141.67 20.0129C142.702 19.729 143.683 19.471 144.612 19.2387C145.541 18.9806 146.29 18.671 146.857 18.3097C147.451 17.9484 147.76 17.4581 147.786 16.8387L147.941 18.7355C147.709 19.2258 147.27 19.6258 146.625 19.9355C145.98 20.2452 145.244 20.529 144.419 20.7871C143.619 21.0452 142.831 21.3548 142.057 21.7161C141.309 22.0774 140.677 22.5548 140.16 23.1484C139.644 23.7161 139.386 24.4903 139.386 25.471C139.386 26.4516 139.67 27.2258 140.238 27.7936C140.831 28.3613 141.657 28.6452 142.715 28.6452C143.748 28.6452 144.715 28.3613 145.619 27.7936C146.548 27.2258 147.36 26.4 148.057 25.3161V26.9419C147.231 28.2839 146.264 29.2903 145.154 29.9613C144.044 30.6065 142.78 30.929 141.36 30.929ZM151.193 27.1742C151.193 27.7936 151.296 28.2581 151.502 28.5677C151.735 28.8516 152.07 28.9936 152.509 28.9936C152.948 28.9936 153.386 28.8774 153.825 28.6452C154.29 28.4129 154.741 28.1419 155.18 27.8323L155.915 29.071C155.244 29.6645 154.548 30.1161 153.825 30.4258C153.128 30.7613 152.315 30.929 151.386 30.929C150.148 30.929 149.219 30.6452 148.599 30.0774C148.006 29.4839 147.709 28.5936 147.709 27.4065V20.4774H151.193V27.1742ZM164.77 30.271C163.531 30.271 162.434 30.2839 161.48 30.3097C160.525 30.3355 159.557 30.3613 158.576 30.3871V28.8774L160.009 28.7613C161.118 28.6581 161.892 28.3871 162.331 27.9484C162.796 27.5097 163.028 26.7226 163.028 25.5871V20.4774H166.512V25.5871C166.512 26.7226 166.705 27.5355 167.092 28.0258C167.48 28.4903 168.176 28.7613 169.183 28.8387L169.609 28.8774V30.3871C168.834 30.3613 168.073 30.3355 167.325 30.3097C166.576 30.2839 165.725 30.271 164.77 30.271ZM163.028 20.4774V15.3677C163.028 14.2323 162.796 13.4323 162.331 12.9677C161.892 12.5032 161.092 12.2194 159.931 12.1161L158.576 12V10.4903C159.041 10.5161 159.48 10.5419 159.892 10.5677C160.305 10.5677 160.731 10.5677 161.17 10.5677C162.228 10.5677 163.209 10.529 164.112 10.4516C165.015 10.3484 165.815 10.2065 166.512 10.0258V10.4903V20.4774H163.028ZM175.647 20.4774V16.8774C175.647 15.2258 175.325 13.9871 174.68 13.1613C174.034 12.3097 173.054 11.8839 171.738 11.8839C170.37 11.8839 169.157 12.3226 168.099 13.2C167.041 14.0774 166.138 15.4065 165.389 17.1871L165.234 16.2968C166.009 14.1548 167.028 12.5548 168.292 11.4968C169.583 10.4387 171.118 9.90968 172.899 9.90968C174.912 9.90968 176.447 10.5419 177.505 11.8065C178.589 13.0452 179.131 14.8258 179.131 17.1484V20.4774H175.647ZM177.389 30.271C176.434 30.271 175.583 30.2839 174.834 30.3097C174.086 30.3355 173.325 30.3613 172.551 30.3871V28.8774L172.976 28.8387C173.983 28.7613 174.68 28.4903 175.067 28.0258C175.454 27.5355 175.647 26.7226 175.647 25.5871V20.4774H179.131V25.5871C179.131 26.7226 179.325 27.5355 179.712 28.0258C180.099 28.4903 180.796 28.7613 181.802 28.8387L182.228 28.8774V30.3871C181.454 30.3613 180.692 30.3355 179.944 30.3097C179.196 30.2839 178.344 30.271 177.389 30.271ZM188.267 20.4774V16.8774C188.267 15.2258 187.931 13.9871 187.26 13.1613C186.615 12.3097 185.609 11.8839 184.241 11.8839C182.899 11.8839 181.699 12.2968 180.641 13.1226C179.583 13.9226 178.68 15.1226 177.931 16.7226L177.505 15.9484C178.28 13.9613 179.325 12.4645 180.641 11.4581C181.983 10.4258 183.596 9.90968 185.48 9.90968C187.518 9.90968 189.067 10.5419 190.125 11.8065C191.209 13.0452 191.751 14.8258 191.751 17.1484V20.4774H188.267ZM190.009 30.271C189.08 30.271 188.228 30.2839 187.454 30.3097C186.705 30.3355 185.944 30.3613 185.17 30.3871V28.8774L185.596 28.8387C186.602 28.7613 187.299 28.4903 187.686 28.0258C188.073 27.5355 188.267 26.7226 188.267 25.5871V20.4774H191.751V25.5871C191.751 26.7226 191.97 27.5097 192.409 27.9484C192.873 28.3871 193.66 28.6581 194.77 28.7613L196.202 28.8774V30.3871C195.221 30.3613 194.254 30.3355 193.299 30.3097C192.344 30.2839 191.247 30.271 190.009 30.271ZM203.442 39.2129C202.203 39.2129 201.106 39.2258 200.151 39.2516C199.197 39.2774 198.229 39.3032 197.248 39.329V37.8194L198.68 37.7032C199.79 37.6 200.564 37.329 201.003 36.8903C201.468 36.4516 201.7 35.6645 201.7 34.529V20.4774H205.184V34.529C205.184 35.2774 205.287 35.871 205.493 36.3097C205.726 36.7484 206.1 37.071 206.616 37.2774C207.132 37.4839 207.829 37.6129 208.706 37.6645L210.68 37.8194V39.329C209.932 39.3032 209.171 39.2774 208.397 39.2516C207.648 39.2516 206.874 39.2387 206.074 39.2129C205.274 39.2129 204.397 39.2129 203.442 39.2129ZM211.416 10.0258C213.042 10.0258 214.461 10.4516 215.674 11.3032C216.887 12.129 217.816 13.3161 218.461 14.8645C219.132 16.4129 219.468 18.2323 219.468 20.3226C219.468 22.5161 219.093 24.4129 218.345 26.0129C217.622 27.6129 216.59 28.8516 215.248 29.729C213.932 30.6065 212.371 31.0452 210.564 31.0452C209.042 31.0452 207.751 30.6968 206.693 30C205.661 29.3032 204.913 28.4129 204.448 27.329L204.951 26.2839C205.261 27.1613 205.842 27.8839 206.693 28.4516C207.571 29.0194 208.603 29.3032 209.79 29.3032C211.7 29.3032 213.158 28.5419 214.164 27.0194C215.197 25.471 215.713 23.2903 215.713 20.4774C215.713 17.7677 215.235 15.6774 214.28 14.2065C213.326 12.7097 211.971 11.9613 210.216 11.9613C208.926 11.9613 207.79 12.3355 206.809 13.0839C205.855 13.8065 205.184 14.7742 204.797 15.9871L204.409 14.9419C204.822 13.4968 205.648 12.3226 206.887 11.4194C208.126 10.4903 209.635 10.0258 211.416 10.0258ZM201.7 20.4774V15.3677C201.7 14.2323 201.468 13.4323 201.003 12.9677C200.564 12.5032 199.764 12.2194 198.603 12.1161L197.248 12V10.4903C197.713 10.5161 198.151 10.5419 198.564 10.5677C198.977 10.5677 199.403 10.5677 199.842 10.5677C200.9 10.5677 201.88 10.529 202.784 10.4516C203.687 10.3484 204.487 10.2065 205.184 10.0258V10.4903V20.4774H201.7ZM229.27 30.271C228.031 30.271 226.934 30.2839 225.98 30.3097C225.025 30.3355 224.057 30.3613 223.076 30.3871V28.8774L224.509 28.7613C225.618 28.6581 226.392 28.3871 226.831 27.9484C227.296 27.5097 227.528 26.7226 227.528 25.5871V20.4774H231.012V25.5871C231.012 26.7226 231.231 27.5097 231.67 27.9484C232.109 28.3871 232.896 28.6581 234.031 28.7613L235.463 28.8774V30.3871C234.457 30.3613 233.476 30.3355 232.521 30.3097C231.592 30.2839 230.509 30.271 229.27 30.271ZM227.528 20.4774V5.34194C227.528 4.20646 227.296 3.40646 226.831 2.94194C226.392 2.47742 225.592 2.19355 224.431 2.09033L223.076 1.9742V0.46452C223.541 0.490326 223.98 0.516132 224.392 0.541939C224.805 0.541939 225.231 0.541939 225.67 0.541939C226.728 0.541939 227.709 0.503229 228.612 0.42581C229.515 0.322584 230.315 0.180649 231.012 3.8147e-06V0.46452V20.4774H227.528ZM247.668 30.929C245.81 30.929 244.197 30.5161 242.829 29.6903C241.461 28.8387 240.403 27.6258 239.655 26.0516C238.907 24.4774 238.532 22.6194 238.532 20.4774C238.532 18.3355 238.907 16.4774 239.655 14.9032C240.403 13.3032 241.474 12.0774 242.868 11.2258C244.261 10.3484 245.939 9.90968 247.9 9.90968C249.552 9.90968 250.984 10.2452 252.197 10.9161C253.436 11.5613 254.378 12.5806 255.023 13.9742C255.694 15.3677 256.003 17.1742 255.952 19.3936H240.816L240.778 17.9226H252.236C252.287 16.6839 252.145 15.5742 251.81 14.5936C251.5 13.6129 250.997 12.8387 250.3 12.271C249.629 11.6774 248.765 11.3806 247.707 11.3806C246.365 11.3806 245.178 11.9484 244.145 13.0839C243.113 14.1936 242.507 15.9226 242.326 18.271L242.365 18.3871C242.339 18.671 242.313 18.9677 242.287 19.2774C242.287 19.5871 242.287 19.9097 242.287 20.2452C242.287 23.0065 242.829 25.1355 243.913 26.6323C244.997 28.129 246.545 28.8774 248.558 28.8774C249.848 28.8774 251.01 28.5548 252.042 27.9097C253.074 27.2645 253.913 26.271 254.558 24.929L255.952 25.7419C255.281 27.3419 254.223 28.6065 252.778 29.5355C251.332 30.4645 249.629 30.929 247.668 30.929ZM276.019 23.4194V7.81936C276.019 7.01936 275.928 6.41291 275.748 6C275.593 5.56129 275.283 5.23871 274.819 5.03226C274.38 4.82581 273.709 4.68388 272.806 4.60646L271.412 4.49033V2.98065C271.877 2.98065 272.432 2.99355 273.077 3.01936C273.722 3.04517 274.419 3.07097 275.167 3.09678C275.941 3.09678 276.69 3.09678 277.412 3.09678H277.799C278.677 3.09678 279.503 3.09678 280.277 3.09678C281.077 3.07097 281.786 3.04517 282.406 3.01936C283.025 2.99355 283.49 2.98065 283.799 2.98065C286.845 2.98065 289.232 3.6 290.961 4.83871C292.716 6.07742 293.593 7.79355 293.593 9.9871C293.593 11.4839 293.141 12.7871 292.238 13.8968C291.361 15.0065 290.122 15.871 288.522 16.4903C286.948 17.1097 285.09 17.4194 282.948 17.4194H277.954V16.2581H282.793C285.141 16.2581 286.883 15.7806 288.019 14.8258C289.154 13.871 289.722 12.4 289.722 10.4129C289.722 8.42581 289.154 6.95484 288.019 6C286.883 5.01936 285.154 4.52904 282.832 4.52904H279.619V23.4194H276.019ZM293.864 30.929C292.703 30.929 291.761 30.5936 291.038 29.9226C290.341 29.2516 289.825 28.1936 289.49 26.7484L288.406 22.2194C288.148 21.0581 287.799 20.1548 287.361 19.5097C286.948 18.8645 286.406 18.4129 285.735 18.1548C285.064 17.871 284.174 17.729 283.064 17.729H278.186V16.7226H282.638C284.832 16.7226 286.548 16.9032 287.786 17.2645C289.051 17.6 290.006 18.2065 290.651 19.0839C291.322 19.9613 291.864 21.2258 292.277 22.8774L293.051 26.0129C293.283 26.9936 293.567 27.6903 293.903 28.1032C294.238 28.4903 294.703 28.671 295.296 28.6452C295.657 28.6452 295.98 28.5677 296.264 28.4129C296.574 28.2323 296.922 27.9226 297.309 27.4839L298.161 28.4516C297.567 29.329 296.922 29.9613 296.225 30.3484C295.554 30.7355 294.767 30.929 293.864 30.929ZM277.412 30.271C276.69 30.271 275.941 30.2839 275.167 30.3097C274.419 30.3097 273.722 30.3226 273.077 30.3484C272.432 30.3484 271.877 30.3613 271.412 30.3871V28.8774L272.806 28.7613C273.709 28.6581 274.38 28.5161 274.819 28.3355C275.283 28.129 275.593 27.8194 275.748 27.4065C275.928 26.9677 276.019 26.3484 276.019 25.5484V23.4194H279.619V25.5484C279.619 26.7613 279.774 27.5742 280.083 27.9871C280.393 28.3742 281.064 28.6452 282.096 28.8L282.87 28.8774V30.3871C282.509 30.3613 282.07 30.3484 281.554 30.3484C281.038 30.3226 280.47 30.3097 279.851 30.3097C279.257 30.2839 278.651 30.271 278.032 30.271H277.838H277.412ZM308.779 30.929C307.153 30.929 305.734 30.5161 304.521 29.6903C303.308 28.8387 302.366 27.6387 301.695 26.0903C301.024 24.5419 300.689 22.7226 300.689 20.6323C300.689 18.4387 301.05 16.5419 301.772 14.9419C302.521 13.3419 303.566 12.1032 304.908 11.2258C306.25 10.3484 307.824 9.90968 309.631 9.90968C311.127 9.90968 312.405 10.2581 313.463 10.9548C314.521 11.6516 315.269 12.5419 315.708 13.6258L315.243 14.671C314.934 13.7936 314.34 13.071 313.463 12.5032C312.611 11.9355 311.579 11.6516 310.366 11.6516C308.482 11.6516 307.024 12.4258 305.992 13.9742C304.96 15.4968 304.443 17.6645 304.443 20.4774C304.443 23.1871 304.921 25.2903 305.876 26.7871C306.856 28.2581 308.224 28.9936 309.979 28.9936C311.269 28.9936 312.392 28.6323 313.347 27.9097C314.327 27.1613 315.011 26.1806 315.398 24.9677L315.785 26.0129C315.372 27.4581 314.534 28.6452 313.269 29.5742C312.031 30.4774 310.534 30.929 308.779 30.929ZM315.011 30.3871V20.4774H318.495V25.5097C318.495 26.6452 318.714 27.4452 319.153 27.9097C319.592 28.3484 320.405 28.6323 321.592 28.7613L322.947 28.8774V30.3871C322.482 30.3613 322.043 30.3484 321.631 30.3484C321.218 30.3226 320.792 30.3097 320.353 30.3097C319.295 30.3097 318.314 30.3484 317.411 30.4258C316.508 30.529 315.708 30.671 315.011 30.8516V30.3871ZM315.011 20.4774V5.34194C315.011 4.20646 314.792 3.40646 314.353 2.94194C313.914 2.47742 313.102 2.19355 311.914 2.09033L310.56 1.9742V0.46452C311.05 0.490326 311.489 0.516132 311.876 0.541939C312.289 0.541939 312.714 0.541939 313.153 0.541939C314.211 0.541939 315.192 0.503229 316.095 0.42581C316.998 0.322584 317.798 0.180649 318.495 3.8147e-06V0.46452V20.4774H315.011Z" fill="white"/>
</svg>
