<svg width="205" height="15" viewBox="0 0 205 15" fill="none" xmlns="http://www.w3.org/2000/svg">
<path d="M5.06624 14.6426C4.10517 14.6426 3.2402 14.4779 2.47135 14.1484C1.70249 13.8051 1.09839 13.3246 0.659039 12.7067C0.219691 12.0889 1.759e-05 11.3681 1.759e-05 10.5443H2.51254C2.56745 11.1622 2.80772 11.6702 3.23334 12.0683C3.67269 12.4665 4.28365 12.6656 5.06624 12.6656C5.87629 12.6656 6.50785 12.4733 6.96093 12.0889C7.414 11.6908 7.64054 11.1828 7.64054 10.5649C7.64054 10.0844 7.49638 9.6931 7.20806 9.39105C6.93347 9.08899 6.58336 8.85559 6.15775 8.69084C5.74586 8.52608 5.16921 8.3476 4.42781 8.15538C3.4942 7.90825 2.73221 7.66112 2.14184 7.41398C1.56519 7.15312 1.07093 6.75496 0.659039 6.21951C0.24715 5.68405 0.0412064 4.97011 0.0412064 4.07769C0.0412064 3.25391 0.24715 2.53311 0.659039 1.91528C1.07093 1.29744 1.64757 0.823773 2.38897 0.494263C3.13037 0.164751 3.98847 -4.20072e-06 4.96327 -4.20072e-06C6.34996 -4.20072e-06 7.48265 0.350101 8.36135 1.05031C9.25377 1.73679 9.74804 2.68413 9.84414 3.89234H7.24925C7.20806 3.37061 6.96093 2.9244 6.50785 2.5537C6.05477 2.183 5.45754 1.99765 4.71614 1.99765C4.04339 1.99765 3.4942 2.16927 3.06858 2.51251C2.64297 2.85575 2.43016 3.35002 2.43016 3.99531C2.43016 4.43466 2.56059 4.79849 2.82145 5.08681C3.09604 5.36141 3.43928 5.58108 3.85117 5.74584C4.26306 5.91059 4.82597 6.08908 5.53991 6.28129C6.48726 6.54215 7.25611 6.80302 7.84649 7.06388C8.45059 7.32474 8.95858 7.72976 9.37047 8.27895C9.79609 8.8144 10.0089 9.53521 10.0089 10.4414C10.0089 11.169 9.80982 11.8555 9.41166 12.5008C9.02723 13.1461 8.45745 13.6678 7.70233 14.066C6.96093 14.4504 6.08223 14.6426 5.06624 14.6426ZM15.7036 7.31101C15.7036 5.91059 16.0262 4.65433 16.6715 3.54223C17.3305 2.43014 18.2161 1.56517 19.3282 0.947339C20.454 0.315777 21.6828 -4.20072e-06 23.0146 -4.20072e-06C24.5386 -4.20072e-06 25.8909 0.37756 27.0717 1.13269C28.2662 1.87409 29.1311 2.93127 29.6666 4.30423H26.8451C26.4744 3.5491 25.9596 2.98619 25.3006 2.61549C24.6415 2.24479 23.8796 2.05944 23.0146 2.05944C22.0672 2.05944 21.2229 2.27225 20.4815 2.69786C19.7401 3.12348 19.1566 3.73445 18.731 4.53077C18.3191 5.32708 18.1131 6.25383 18.1131 7.31101C18.1131 8.36819 18.3191 9.29494 18.731 10.0913C19.1566 10.8876 19.7401 11.5054 20.4815 11.9448C21.2229 12.3704 22.0672 12.5832 23.0146 12.5832C23.8796 12.5832 24.6415 12.3978 25.3006 12.0271C25.9596 11.6564 26.4744 11.0935 26.8451 10.3384H29.6666C29.1311 11.7113 28.2662 12.7685 27.0717 13.5099C25.8909 14.2513 24.5386 14.622 23.0146 14.622C21.6691 14.622 20.4403 14.3131 19.3282 13.6953C18.2161 13.0637 17.3305 12.1919 16.6715 11.0798C16.0262 9.96769 15.7036 8.71143 15.7036 7.31101ZM47.5515 0.185346V14.4985H45.2038V8.23776H38.4694V14.4985H36.1216V0.185346H38.4694V6.32248H45.2038V0.185346H47.5515ZM56.6971 2.08003V6.28129H61.6397V8.19657H56.6971V12.5832H62.2576V14.4985H54.3493V0.164751H62.2576V2.08003H56.6971ZM73.5312 0.185346C75.0552 0.185346 76.387 0.480532 77.5265 1.07091C78.6798 1.64755 79.5654 2.48505 80.1832 3.58342C80.8148 4.66806 81.1306 5.93805 81.1306 7.39339C81.1306 8.84873 80.8148 10.1119 80.1832 11.1828C79.5654 12.2537 78.6798 13.0774 77.5265 13.6541C76.387 14.217 75.0552 14.4985 73.5312 14.4985H68.8563V0.185346H73.5312ZM73.5312 12.5832C75.2062 12.5832 76.4899 12.1301 77.3824 11.2239C78.2748 10.3178 78.721 9.04094 78.721 7.39339C78.721 5.73211 78.2748 4.43466 77.3824 3.50105C76.4899 2.56743 75.2062 2.10063 73.5312 2.10063H71.204V12.5832H73.5312ZM89.4916 0.185346V9.30867C89.4916 10.3933 89.773 11.2102 90.3359 11.7594C90.9126 12.3086 91.7089 12.5832 92.7249 12.5832C93.7546 12.5832 94.5509 12.3086 95.1138 11.7594C95.6905 11.2102 95.9788 10.3933 95.9788 9.30867V0.185346H98.3266V9.26748C98.3266 10.4345 98.0726 11.423 97.5646 12.2331C97.0566 13.0431 96.377 13.6472 95.5257 14.0454C94.6745 14.4435 93.734 14.6426 92.7043 14.6426C91.6746 14.6426 90.7341 14.4435 89.8829 14.0454C89.0453 13.6472 88.3795 13.0431 87.8852 12.2331C87.3909 11.423 87.1438 10.4345 87.1438 9.26748V0.185346H89.4916ZM107.438 12.6038H112.278V14.4985H105.09V0.185346H107.438V12.6038ZM120.296 2.08003V6.28129H125.239V8.19657H120.296V12.5832H125.856V14.4985H117.948V0.164751H125.856V2.08003H120.296ZM150.759 0.185346V2.10063H146.949V14.4985H144.601V2.10063H140.771V0.185346H150.759ZM163.372 14.6426C162.04 14.6426 160.811 14.3337 159.685 13.7159C158.573 13.0843 157.688 12.2125 157.029 11.1004C156.384 9.97455 156.061 8.71143 156.061 7.31101C156.061 5.91059 156.384 4.65433 157.029 3.54223C157.688 2.43014 158.573 1.56517 159.685 0.947339C160.811 0.315777 162.04 -4.20072e-06 163.372 -4.20072e-06C164.717 -4.20072e-06 165.946 0.315777 167.058 0.947339C168.184 1.56517 169.07 2.43014 169.715 3.54223C170.36 4.65433 170.683 5.91059 170.683 7.31101C170.683 8.71143 170.36 9.97455 169.715 11.1004C169.07 12.2125 168.184 13.0843 167.058 13.7159C165.946 14.3337 164.717 14.6426 163.372 14.6426ZM163.372 12.6038C164.319 12.6038 165.164 12.391 165.905 11.9653C166.646 11.526 167.223 10.9082 167.635 10.1119C168.061 9.3018 168.273 8.36819 168.273 7.31101C168.273 6.25383 168.061 5.32708 167.635 4.53077C167.223 3.73445 166.646 3.12348 165.905 2.69786C165.164 2.27225 164.319 2.05944 163.372 2.05944C162.425 2.05944 161.58 2.27225 160.839 2.69786C160.097 3.12348 159.514 3.73445 159.088 4.53077C158.676 5.32708 158.47 6.25383 158.47 7.31101C158.47 8.36819 158.676 9.3018 159.088 10.1119C159.514 10.9082 160.097 11.526 160.839 11.9653C161.58 12.391 162.425 12.6038 163.372 12.6038ZM179.027 0.185346V9.30867C179.027 10.3933 179.309 11.2102 179.872 11.7594C180.448 12.3086 181.245 12.5832 182.261 12.5832C183.29 12.5832 184.087 12.3086 184.65 11.7594C185.226 11.2102 185.515 10.3933 185.515 9.30867V0.185346H187.862V9.26748C187.862 10.4345 187.608 11.423 187.1 12.2331C186.592 13.0431 185.913 13.6472 185.062 14.0454C184.21 14.4435 183.27 14.6426 182.24 14.6426C181.21 14.6426 180.27 14.4435 179.419 14.0454C178.581 13.6472 177.915 13.0431 177.421 12.2331C176.927 11.423 176.68 10.4345 176.68 9.26748V0.185346H179.027ZM202.061 14.4985L198.766 8.77321H196.974V14.4985H194.626V0.185346H199.569C200.667 0.185346 201.594 0.37756 202.349 0.761989C203.118 1.14642 203.688 1.66128 204.058 2.30657C204.443 2.95186 204.635 3.67267 204.635 4.46898C204.635 5.4026 204.36 6.25383 203.811 7.02269C203.276 7.77782 202.445 8.29268 201.319 8.56727L204.862 14.4985H202.061ZM196.974 6.89912H199.569C200.448 6.89912 201.107 6.67945 201.546 6.2401C201.999 5.80075 202.226 5.21038 202.226 4.46898C202.226 3.72758 202.006 3.15094 201.566 2.73905C201.127 2.31343 200.461 2.10063 199.569 2.10063H196.974V6.89912Z" fill="white"/>
</svg>
