<svg width="826" height="87" viewBox="0 0 826 87" fill="none" xmlns="http://www.w3.org/2000/svg">
<path d="M14.4387 22.5677L5.1871 7.16129C4.77419 6.46451 4.37419 5.93548 3.9871 5.57419C3.62581 5.2129 3.22581 4.95484 2.7871 4.8C2.34839 4.61935 1.83226 4.51613 1.23871 4.49032L8.04663e-07 4.37419V2.86451C0.619356 2.89032 1.31613 2.91613 2.09032 2.94193C2.86452 2.96774 3.62581 2.98064 4.37419 2.98064H4.56774H4.8C5.49678 2.98064 6.20645 2.98064 6.92903 2.98064C7.65161 2.98064 8.34839 2.98064 9.01936 2.98064C9.69032 2.95484 10.3097 2.94193 10.8774 2.94193C11.4452 2.91613 11.9484 2.90322 12.3871 2.90322V4.37419L10.8387 4.52903C9.57419 4.63226 8.87742 4.86452 8.74839 5.22581C8.64516 5.5871 8.89032 6.32258 9.48387 7.43226L16.4516 19.0839L15.2516 19.6258L20.7484 9.52258C21.6258 7.87097 21.9226 6.65806 21.6387 5.88387C21.3806 5.10968 20.4903 4.63226 18.9677 4.45161L18.1935 4.37419V2.86451C19.1226 2.89032 20.129 2.91613 21.2129 2.94193C22.2968 2.96774 23.3032 2.98064 24.2323 2.98064C25.1613 2.98064 26.0129 2.96774 26.7871 2.94193C27.5613 2.91613 28.2452 2.89032 28.8387 2.86451V4.37419L28.2968 4.45161C27.4968 4.55484 26.7742 4.76129 26.129 5.07097C25.5097 5.35484 24.9161 5.81935 24.3484 6.46451C23.8065 7.08387 23.2387 7.97419 22.6452 9.13548L15.3677 22.5677H14.4387ZM14.8258 30.1548C13.9484 30.1548 13.071 30.1677 12.1935 30.1935C11.3161 30.1935 10.4903 30.2064 9.71613 30.2323C8.94194 30.2323 8.25806 30.2452 7.66452 30.271V28.7613L10.0645 28.5677C11.3806 28.4387 12.2323 28.1806 12.6194 27.7935C13.0065 27.4064 13.2 26.6194 13.2 25.4323V18.2323L15.3677 21.0194L16.8 18.7355V25.4323C16.8 26.6194 16.9935 27.4064 17.3806 27.7935C17.7935 28.1806 18.6581 28.4387 19.9742 28.5677L22.3355 28.7613V30.271C21.7677 30.2452 21.0839 30.2323 20.2839 30.2323C19.5097 30.2064 18.6839 30.1935 17.8065 30.1935C16.929 30.1677 16.0645 30.1548 15.2129 30.1548H15.0194H14.8258ZM37.1314 30.8129C35.4023 30.8129 33.8281 30.4516 32.4088 29.729C31.0152 28.9806 29.9055 27.8452 29.0797 26.3226C28.2539 24.7742 27.841 22.7742 27.841 20.3226C27.841 17.871 28.2539 15.871 29.0797 14.3226C29.9055 12.7742 31.0152 11.6387 32.4088 10.9161C33.8281 10.1677 35.4023 9.79355 37.1314 9.79355C38.8862 9.79355 40.4604 10.1677 41.8539 10.9161C43.2475 11.6387 44.3572 12.7742 45.183 14.3226C46.0088 15.871 46.4217 17.871 46.4217 20.3226C46.4217 22.7742 46.0088 24.7742 45.183 26.3226C44.3572 27.8452 43.2475 28.9806 41.8539 29.729C40.4604 30.4516 38.8862 30.8129 37.1314 30.8129ZM37.1314 29.3032C38.7572 29.3032 40.0862 28.5935 41.1184 27.1742C42.1507 25.7548 42.6668 23.471 42.6668 20.3226C42.6668 17.1742 42.1507 14.8903 41.1184 13.471C40.0862 12.0258 38.7572 11.3032 37.1314 11.3032C35.5055 11.3032 34.1765 12.0258 33.1443 13.471C32.112 14.8903 31.5959 17.1742 31.5959 20.3226C31.5959 23.471 32.112 25.7548 33.1443 27.1742C34.1765 28.5935 35.5055 29.3032 37.1314 29.3032ZM58.7111 10.4516V20.3613H55.2272V15.329C55.2272 14.1935 55.0079 13.3935 54.5692 12.929C54.1304 12.4645 53.3175 12.1806 52.1304 12.0774L50.7756 11.9613V10.4516C51.2659 10.4774 51.7046 10.5032 52.0917 10.529C52.5046 10.529 52.9304 10.529 53.3692 10.529C54.453 10.529 55.4337 10.4903 56.3111 10.4129C57.2143 10.3097 58.0143 10.1677 58.7111 9.9871V10.4516ZM58.7111 20.3613V23.9613C58.7111 25.6387 59.0337 26.8903 59.6788 27.7161C60.3498 28.5419 61.3433 28.9548 62.6595 28.9548C64.0272 28.9548 65.2401 28.5161 66.2982 27.6387C67.3563 26.7355 68.2595 25.4064 69.0079 23.6516L69.1627 24.5419C68.4143 26.6581 67.395 28.2581 66.1046 29.3419C64.8143 30.4 63.2788 30.929 61.4982 30.929C59.4853 30.929 57.9369 30.3097 56.853 29.071C55.7692 27.8064 55.2272 26.0129 55.2272 23.6903V20.3613H58.7111ZM67.8853 30.271V20.3613H71.3692V25.3935C71.3692 26.529 71.5885 27.329 72.0272 27.7935C72.4659 28.2323 73.2788 28.5161 74.4659 28.6452L75.8208 28.7613V30.271C75.3562 30.2452 74.9175 30.2323 74.5046 30.2323C74.0917 30.2064 73.6659 30.1935 73.2272 30.1935C72.1692 30.1935 71.1885 30.2323 70.2853 30.3097C69.3821 30.4129 68.5821 30.5548 67.8853 30.7355V30.271ZM71.3692 10.4516V20.3613H67.8853V15.2903C67.8853 14.1548 67.6917 13.3677 67.3046 12.929C66.9433 12.4645 66.2208 12.1677 65.1369 12.0387L64.324 11.9613V10.4516C64.7885 10.4774 65.1885 10.5032 65.524 10.529C65.8595 10.529 66.2079 10.529 66.5692 10.529C67.4982 10.529 68.3627 10.4903 69.1627 10.4129C69.9885 10.3097 70.724 10.1677 71.3692 9.9871V10.4516ZM84.5317 30.1548C83.2929 30.1548 82.1962 30.1677 81.2413 30.1935C80.2865 30.2194 79.3188 30.2452 78.3381 30.271V28.7613L79.7704 28.6452C80.88 28.5419 81.6542 28.271 82.0929 27.8323C82.5575 27.3935 82.7897 26.6064 82.7897 25.471V20.3613H86.2736V25.471C86.2736 26.2194 86.3768 26.8129 86.5833 27.2516C86.7897 27.6903 87.1381 28.0129 87.6284 28.2194C88.1188 28.4258 88.7768 28.5677 89.6026 28.6452L91.3058 28.7613V30.271C90.6091 30.2452 89.8994 30.2323 89.1768 30.2323C88.48 30.2064 87.7575 30.1935 87.0091 30.1935C86.2607 30.1677 85.4349 30.1548 84.5317 30.1548ZM82.7897 20.3613V15.2516C82.7897 14.1161 82.5575 13.3161 82.0929 12.8516C81.6542 12.3871 80.8542 12.1032 79.6929 12L78.3381 11.8839V10.3742C78.8026 10.4 79.2413 10.4258 79.6542 10.4516C80.0671 10.4516 80.4929 10.4516 80.9317 10.4516C81.9897 10.4516 82.9704 10.4129 83.8736 10.3355C84.7768 10.2323 85.5768 10.0903 86.2736 9.90968V10.3742V20.3613H82.7897ZM93.7058 16.4516C93.1897 16.4516 92.751 16.2968 92.3897 15.9871C92.0542 15.6774 91.8865 15.2903 91.8865 14.8258C91.8865 14.4645 91.951 14.1548 92.08 13.8968C92.2349 13.6387 92.3768 13.3935 92.5058 13.1613C92.6349 12.929 92.6994 12.6968 92.6994 12.4645C92.6994 11.9226 92.2994 11.6516 91.4994 11.6516C90.8542 11.6516 90.1704 11.8194 89.4478 12.1548C88.7252 12.4903 88.0671 12.929 87.4736 13.471C86.88 14.0129 86.4413 14.6194 86.1575 15.2903L86.0413 13.6645C86.7639 12.4258 87.6671 11.471 88.751 10.8C89.8607 10.129 91.022 9.79355 92.2349 9.79355C93.4478 9.79355 94.4026 10.1419 95.0994 10.8387C95.822 11.5097 96.1833 12.4 96.1833 13.5097C96.1833 14.3871 95.951 15.0968 95.4865 15.6387C95.0478 16.1806 94.4542 16.4516 93.7058 16.4516ZM119.177 30.6581L112.364 14.8258C112.08 14.129 111.809 13.6 111.551 13.2387C111.293 12.8516 110.996 12.5677 110.661 12.3871C110.326 12.2064 109.887 12.0903 109.345 12.0387L108.261 11.9613V10.4516C108.855 10.4774 109.5 10.5032 110.196 10.529C110.919 10.5548 111.603 10.5677 112.248 10.5677H112.403H112.364C113.164 10.5677 113.951 10.5677 114.726 10.5677C115.5 10.5419 116.209 10.5161 116.855 10.4903C117.526 10.4645 118.08 10.4516 118.519 10.4516V11.9226L117.784 12.0387C116.726 12.1419 116.093 12.4258 115.887 12.8903C115.706 13.329 115.835 14.129 116.274 15.2903L121.151 26.5548L120.571 26.671L123.977 18.0774C124.596 16.6065 124.945 15.4452 125.022 14.5935C125.126 13.7419 125.022 13.1226 124.713 12.7355C124.403 12.3484 123.913 12.1032 123.242 12L122.777 11.9613V10.4516C123.396 10.4774 124.067 10.5032 124.79 10.529C125.538 10.5548 126.235 10.5677 126.88 10.5677C127.68 10.5677 128.429 10.5548 129.126 10.529C129.822 10.5032 130.467 10.4774 131.061 10.4516V11.9613L130.442 12.0387C129.796 12.1419 129.229 12.3742 128.738 12.7355C128.274 13.071 127.809 13.6258 127.345 14.4C126.906 15.1742 126.39 16.271 125.796 17.6903L120.609 30.6581H119.177ZM137.446 20.3613V15.2516C137.446 14.1161 137.214 13.3161 136.749 12.8516C136.31 12.3871 135.51 12.1032 134.349 12L132.994 11.8839V10.3742C133.459 10.4 133.898 10.4258 134.31 10.4516C134.723 10.4516 135.149 10.4516 135.588 10.4516C136.646 10.4516 137.627 10.4129 138.53 10.3355C139.433 10.2323 140.233 10.0903 140.93 9.90968V10.3742V20.3613H137.446ZM139.188 30.1548C137.949 30.1548 136.852 30.1677 135.898 30.1935C134.943 30.2194 133.975 30.2452 132.994 30.271V28.7613L134.427 28.6452C135.536 28.5419 136.31 28.271 136.749 27.8323C137.214 27.3935 137.446 26.6064 137.446 25.471V20.3613H140.93V25.471C140.93 26.6064 141.149 27.3935 141.588 27.8323C142.027 28.271 142.814 28.5419 143.949 28.6452L145.381 28.7613V30.271C144.375 30.2452 143.394 30.2194 142.44 30.1935C141.51 30.1677 140.427 30.1548 139.188 30.1548ZM139.188 5.69032C138.491 5.69032 137.885 5.44516 137.369 4.95484C136.852 4.43871 136.594 3.83226 136.594 3.13548C136.594 2.43871 136.84 1.84516 137.33 1.35484C137.846 0.838708 138.465 0.580643 139.188 0.580643C139.885 0.580643 140.478 0.838708 140.969 1.35484C141.485 1.84516 141.743 2.43871 141.743 3.13548C141.743 3.83226 141.485 4.43871 140.969 4.95484C140.478 5.44516 139.885 5.69032 139.188 5.69032ZM157.896 30.8129C156.786 30.8129 155.844 30.6839 155.07 30.4258C154.322 30.1935 153.702 29.9742 153.212 29.7677C152.747 29.5355 152.335 29.4194 151.973 29.4194C151.406 29.4194 150.98 29.8194 150.696 30.6194H149.186C149.264 30.0258 149.315 29.3677 149.341 28.6452C149.367 27.8968 149.38 27.0581 149.38 26.129C149.38 25.1742 149.38 24.0903 149.38 22.8774H150.851C151.16 25.0452 151.87 26.6581 152.98 27.7161C154.089 28.7742 155.573 29.3032 157.431 29.3032C158.825 29.3032 159.896 29.0064 160.644 28.4129C161.393 27.7935 161.767 26.9419 161.767 25.8581C161.767 24.8258 161.38 24 160.606 23.3806C159.857 22.7355 158.541 22.1548 156.657 21.6387C154.309 20.9935 152.58 20.1548 151.47 19.1226C150.386 18.0903 149.844 16.8 149.844 15.2516C149.844 13.5742 150.399 12.2452 151.509 11.2645C152.618 10.2839 154.089 9.79355 155.922 9.79355C156.928 9.79355 157.78 9.90968 158.477 10.1419C159.173 10.3742 159.754 10.6194 160.218 10.8774C160.709 11.1097 161.147 11.2258 161.535 11.2258C161.793 11.2258 162.012 11.1355 162.193 10.9548C162.373 10.7484 162.528 10.4387 162.657 10.0258H164.167C164.115 10.5677 164.077 11.1484 164.051 11.7677C164.025 12.3613 163.999 13.0581 163.973 13.8581C163.973 14.6323 163.986 15.5742 164.012 16.6839H162.502C162.27 15.0323 161.599 13.729 160.489 12.7742C159.38 11.7935 158.025 11.3032 156.425 11.3032C155.315 11.3032 154.438 11.5613 153.793 12.0774C153.173 12.5935 152.864 13.3419 152.864 14.3226C152.864 15.329 153.289 16.1677 154.141 16.8387C154.993 17.5097 156.438 18.1419 158.477 18.7355C160.722 19.3548 162.335 20.1419 163.315 21.0968C164.322 22.0516 164.825 23.3032 164.825 24.8516C164.825 26.7097 164.206 28.1677 162.967 29.2258C161.754 30.2839 160.064 30.8129 157.896 30.8129ZM173.821 20.3613V15.2516C173.821 14.1161 173.589 13.3161 173.124 12.8516C172.685 12.3871 171.885 12.1032 170.724 12L169.369 11.8839V10.3742C169.834 10.4 170.273 10.4258 170.685 10.4516C171.098 10.4516 171.524 10.4516 171.963 10.4516C173.021 10.4516 174.002 10.4129 174.905 10.3355C175.808 10.2323 176.608 10.0903 177.305 9.90968V10.3742V20.3613H173.821ZM175.563 30.1548C174.324 30.1548 173.227 30.1677 172.273 30.1935C171.318 30.2194 170.35 30.2452 169.369 30.271V28.7613L170.802 28.6452C171.911 28.5419 172.685 28.271 173.124 27.8323C173.589 27.3935 173.821 26.6064 173.821 25.471V20.3613H177.305V25.471C177.305 26.6064 177.524 27.3935 177.963 27.8323C178.402 28.271 179.189 28.5419 180.324 28.6452L181.756 28.7613V30.271C180.75 30.2452 179.769 30.2194 178.815 30.1935C177.885 30.1677 176.802 30.1548 175.563 30.1548ZM175.563 5.69032C174.866 5.69032 174.26 5.44516 173.744 4.95484C173.227 4.43871 172.969 3.83226 172.969 3.13548C172.969 2.43871 173.215 1.84516 173.705 1.35484C174.221 0.838708 174.84 0.580643 175.563 0.580643C176.26 0.580643 176.853 0.838708 177.344 1.35484C177.86 1.84516 178.118 2.43871 178.118 3.13548C178.118 3.83226 177.86 4.43871 177.344 4.95484C176.853 5.44516 176.26 5.69032 175.563 5.69032ZM194.444 30.8129C192.715 30.8129 191.141 30.4516 189.721 29.729C188.328 28.9806 187.218 27.8452 186.392 26.3226C185.566 24.7742 185.154 22.7742 185.154 20.3226C185.154 17.871 185.566 15.871 186.392 14.3226C187.218 12.7742 188.328 11.6387 189.721 10.9161C191.141 10.1677 192.715 9.79355 194.444 9.79355C196.199 9.79355 197.773 10.1677 199.166 10.9161C200.56 11.6387 201.67 12.7742 202.495 14.3226C203.321 15.871 203.734 17.871 203.734 20.3226C203.734 22.7742 203.321 24.7742 202.495 26.3226C201.67 27.8452 200.56 28.9806 199.166 29.729C197.773 30.4516 196.199 30.8129 194.444 30.8129ZM194.444 29.3032C196.07 29.3032 197.399 28.5935 198.431 27.1742C199.463 25.7548 199.979 23.471 199.979 20.3226C199.979 17.1742 199.463 14.8903 198.431 13.471C197.399 12.0258 196.07 11.3032 194.444 11.3032C192.818 11.3032 191.489 12.0258 190.457 13.471C189.424 14.8903 188.908 17.1742 188.908 20.3226C188.908 23.471 189.424 25.7548 190.457 27.1742C191.489 28.5935 192.818 29.3032 194.444 29.3032ZM213.954 30.1548C212.715 30.1548 211.618 30.1677 210.663 30.1935C209.708 30.2194 208.741 30.2452 207.76 30.271V28.7613L209.192 28.6452C210.302 28.5419 211.076 28.271 211.515 27.8323C211.979 27.3935 212.212 26.6064 212.212 25.471V20.3613H215.695V25.471C215.695 26.6064 215.889 27.4064 216.276 27.871C216.663 28.3355 217.373 28.6194 218.405 28.7226L218.986 28.7613V30.271C218.186 30.2452 217.386 30.2194 216.586 30.1935C215.812 30.1677 214.934 30.1548 213.954 30.1548ZM212.212 20.3613V15.2516C212.212 14.1161 211.979 13.3161 211.515 12.8516C211.076 12.3871 210.276 12.1032 209.115 12L207.76 11.8839V10.3742C208.224 10.4 208.663 10.4258 209.076 10.4516C209.489 10.4516 209.915 10.4516 210.354 10.4516C211.412 10.4516 212.392 10.4129 213.295 10.3355C214.199 10.2323 214.999 10.0903 215.695 9.90968V10.3742V20.3613H212.212ZM225.102 20.3613V16.9548C225.102 15.2258 224.766 13.9355 224.095 13.0839C223.424 12.2064 222.418 11.7677 221.076 11.7677C219.683 11.7677 218.444 12.2064 217.36 13.0839C216.276 13.9613 215.36 15.2903 214.612 17.071L214.379 16.2194C215.179 14.0516 216.237 12.4387 217.554 11.3806C218.87 10.3226 220.431 9.79355 222.237 9.79355C224.276 9.79355 225.837 10.4387 226.921 11.729C228.031 12.9935 228.586 14.8129 228.586 17.1871V20.3613H225.102ZM226.844 30.1548C225.915 30.1548 225.063 30.1677 224.289 30.1935C223.541 30.2194 222.779 30.2452 222.005 30.271V28.7613L222.431 28.7226C223.463 28.6452 224.16 28.3742 224.521 27.9097C224.908 27.4194 225.102 26.6064 225.102 25.471V20.3613H228.586V25.471C228.586 26.6064 228.805 27.3935 229.244 27.8323C229.708 28.271 230.495 28.5419 231.605 28.6452L233.037 28.7613V30.271C232.057 30.2452 231.089 30.2194 230.134 30.1935C229.179 30.1677 228.083 30.1548 226.844 30.1548ZM238.627 36.3097L238.163 35.2258C239.556 34.7871 240.602 34.1806 241.298 33.4064C242.021 32.6581 242.382 31.8581 242.382 31.0064C242.382 30.3871 242.15 30.0774 241.685 30.0774C241.453 30.0774 241.195 30.1419 240.911 30.271C240.627 30.3742 240.292 30.4258 239.905 30.4258C239.156 30.4258 238.55 30.1935 238.085 29.729C237.647 29.2387 237.427 28.6323 237.427 27.9097C237.427 27.0839 237.711 26.4129 238.279 25.8968C238.872 25.3806 239.621 25.1226 240.524 25.1226C241.582 25.1226 242.421 25.5355 243.04 26.3613C243.685 27.1613 244.008 28.2581 244.008 29.6516C244.008 31.329 243.543 32.7226 242.614 33.8323C241.711 34.9419 240.382 35.7677 238.627 36.3097ZM268.278 30.7355L261.427 14.8258C261.143 14.129 260.872 13.6 260.614 13.2387C260.356 12.8516 260.059 12.5677 259.723 12.3871C259.388 12.2064 258.949 12.0903 258.407 12.0387L257.323 11.9613V10.4516C257.917 10.4774 258.562 10.5032 259.259 10.529C259.982 10.5548 260.665 10.5677 261.311 10.5677H261.388H261.427C262.227 10.5677 263.014 10.5677 263.788 10.5677C264.562 10.5419 265.272 10.529 265.917 10.529C266.588 10.5032 267.143 10.4774 267.582 10.4516V11.9613L266.807 12.0387C265.775 12.1419 265.156 12.4258 264.949 12.8903C264.743 13.329 264.859 14.129 265.298 15.2903L270.214 26.6323L269.633 26.7871L273.04 18.0774C273.633 16.6065 273.982 15.4452 274.085 14.5935C274.188 13.7419 274.085 13.1226 273.775 12.7355C273.465 12.3484 272.962 12.1032 272.265 12L271.801 11.9613V10.4516C272.446 10.4774 273.13 10.5032 273.853 10.529C274.575 10.5548 275.259 10.5677 275.904 10.5677C276.704 10.5677 277.453 10.5548 278.149 10.529C278.846 10.5032 279.491 10.4774 280.085 10.4516V11.9613L279.465 12.0387C278.846 12.1419 278.291 12.3742 277.801 12.7355C277.311 13.071 276.833 13.6258 276.369 14.4C275.93 15.1742 275.414 16.271 274.82 17.6903L269.711 30.7355H268.278ZM262.975 39.5226C261.736 39.5226 260.73 39.2 259.956 38.5548C259.207 37.9097 258.833 37.071 258.833 36.0387C258.833 35.2387 259.065 34.5935 259.53 34.1032C260.02 33.6129 260.653 33.3677 261.427 33.3677C261.994 33.3677 262.433 33.5097 262.743 33.7935C263.078 34.1032 263.246 34.5032 263.246 34.9935C263.246 35.3548 263.182 35.6645 263.053 35.9226C262.949 36.2064 262.833 36.4516 262.704 36.6581C262.575 36.8903 262.511 37.1355 262.511 37.3935C262.511 37.8323 262.794 38.0516 263.362 38.0516C263.956 38.0516 264.485 37.8323 264.949 37.3935C265.414 36.9806 265.814 36.3742 266.149 35.5742L268.588 29.5355L269.865 30.3097L267.659 35.729C267.298 36.6064 266.885 37.329 266.42 37.8968C265.982 38.4645 265.478 38.8774 264.911 39.1355C264.369 39.3935 263.723 39.5226 262.975 39.5226ZM292.272 30.8129C290.543 30.8129 288.969 30.4516 287.549 29.729C286.156 28.9806 285.046 27.8452 284.22 26.3226C283.395 24.7742 282.982 22.7742 282.982 20.3226C282.982 17.871 283.395 15.871 284.22 14.3226C285.046 12.7742 286.156 11.6387 287.549 10.9161C288.969 10.1677 290.543 9.79355 292.272 9.79355C294.027 9.79355 295.601 10.1677 296.995 10.9161C298.388 11.6387 299.498 12.7742 300.324 14.3226C301.149 15.871 301.562 17.871 301.562 20.3226C301.562 22.7742 301.149 24.7742 300.324 26.3226C299.498 27.8452 298.388 28.9806 296.995 29.729C295.601 30.4516 294.027 30.8129 292.272 30.8129ZM292.272 29.3032C293.898 29.3032 295.227 28.5935 296.259 27.1742C297.291 25.7548 297.807 23.471 297.807 20.3226C297.807 17.1742 297.291 14.8903 296.259 13.471C295.227 12.0258 293.898 11.3032 292.272 11.3032C290.646 11.3032 289.317 12.0258 288.285 13.471C287.253 14.8903 286.736 17.1742 286.736 20.3226C286.736 23.471 287.253 25.7548 288.285 27.1742C289.317 28.5935 290.646 29.3032 292.272 29.3032ZM313.852 10.4516V20.3613H310.368V15.329C310.368 14.1935 310.148 13.3935 309.71 12.929C309.271 12.4645 308.458 12.1806 307.271 12.0774L305.916 11.9613V10.4516C306.407 10.4774 306.845 10.5032 307.232 10.529C307.645 10.529 308.071 10.529 308.51 10.529C309.594 10.529 310.574 10.4903 311.452 10.4129C312.355 10.3097 313.155 10.1677 313.852 9.9871V10.4516ZM313.852 20.3613V23.9613C313.852 25.6387 314.174 26.8903 314.819 27.7161C315.49 28.5419 316.484 28.9548 317.8 28.9548C319.168 28.9548 320.381 28.5161 321.439 27.6387C322.497 26.7355 323.4 25.4064 324.148 23.6516L324.303 24.5419C323.555 26.6581 322.536 28.2581 321.245 29.3419C319.955 30.4 318.419 30.929 316.639 30.929C314.626 30.929 313.078 30.3097 311.994 29.071C310.91 27.8064 310.368 26.0129 310.368 23.6903V20.3613H313.852ZM323.026 30.271V20.3613H326.51V25.3935C326.51 26.529 326.729 27.329 327.168 27.7935C327.607 28.2323 328.419 28.5161 329.607 28.6452L330.961 28.7613V30.271C330.497 30.2452 330.058 30.2323 329.645 30.2323C329.232 30.2064 328.807 30.1935 328.368 30.1935C327.31 30.1935 326.329 30.2323 325.426 30.3097C324.523 30.4129 323.723 30.5548 323.026 30.7355V30.271ZM326.51 10.4516V20.3613H323.026V15.2903C323.026 14.1548 322.832 13.3677 322.445 12.929C322.084 12.4645 321.361 12.1677 320.278 12.0387L319.465 11.9613V10.4516C319.929 10.4774 320.329 10.5032 320.665 10.529C321 10.529 321.348 10.529 321.71 10.529C322.639 10.529 323.503 10.4903 324.303 10.4129C325.129 10.3097 325.865 10.1677 326.51 9.9871V10.4516ZM339.672 30.1548C338.434 30.1548 337.337 30.1677 336.382 30.1935C335.427 30.2194 334.459 30.2452 333.479 30.271V28.7613L334.911 28.6452C336.021 28.5419 336.795 28.271 337.234 27.8323C337.698 27.3935 337.93 26.6064 337.93 25.471V20.3613H341.414V25.471C341.414 26.2194 341.517 26.8129 341.724 27.2516C341.93 27.6903 342.279 28.0129 342.769 28.2194C343.259 28.4258 343.917 28.5677 344.743 28.6452L346.446 28.7613V30.271C345.75 30.2452 345.04 30.2323 344.317 30.2323C343.621 30.2064 342.898 30.1935 342.15 30.1935C341.401 30.1677 340.576 30.1548 339.672 30.1548ZM337.93 20.3613V15.2516C337.93 14.1161 337.698 13.3161 337.234 12.8516C336.795 12.3871 335.995 12.1032 334.834 12L333.479 11.8839V10.3742C333.943 10.4 334.382 10.4258 334.795 10.4516C335.208 10.4516 335.634 10.4516 336.072 10.4516C337.13 10.4516 338.111 10.4129 339.014 10.3355C339.917 10.2323 340.717 10.0903 341.414 9.90968V10.3742V20.3613H337.93ZM348.846 16.4516C348.33 16.4516 347.892 16.2968 347.53 15.9871C347.195 15.6774 347.027 15.2903 347.027 14.8258C347.027 14.4645 347.092 14.1548 347.221 13.8968C347.376 13.6387 347.517 13.3935 347.646 13.1613C347.776 12.929 347.84 12.6968 347.84 12.4645C347.84 11.9226 347.44 11.6516 346.64 11.6516C345.995 11.6516 345.311 11.8194 344.588 12.1548C343.866 12.4903 343.208 12.929 342.614 13.471C342.021 14.0129 341.582 14.6194 341.298 15.2903L341.182 13.6645C341.905 12.4258 342.808 11.471 343.892 10.8C345.001 10.129 346.163 9.79355 347.376 9.79355C348.588 9.79355 349.543 10.1419 350.24 10.8387C350.963 11.5097 351.324 12.4 351.324 13.5097C351.324 14.3871 351.092 15.0968 350.627 15.6387C350.188 16.1806 349.595 16.4516 348.846 16.4516ZM364.369 11.9613V10.4516H378.111V11.9613H364.369ZM370.718 30.1548C369.479 30.1548 368.382 30.1677 367.427 30.1935C366.473 30.2194 365.505 30.2452 364.524 30.271V28.7613L365.956 28.6452C367.092 28.5419 367.879 28.271 368.318 27.8323C368.756 27.3935 368.976 26.6064 368.976 25.471V20.3613H372.46V25.471C372.46 26.2194 372.563 26.8129 372.769 27.2516C372.976 27.6903 373.324 28.0129 373.815 28.2194C374.305 28.4258 374.963 28.5677 375.789 28.6452L377.492 28.7613V30.271C376.795 30.2452 376.098 30.2323 375.402 30.2323C374.705 30.2064 373.969 30.1935 373.195 30.1935C372.447 30.1677 371.621 30.1548 370.718 30.1548ZM368.976 20.3613V9.56129C368.976 6.46451 369.685 4.10322 371.105 2.47742C372.55 0.825805 374.563 -1.90735e-06 377.144 -1.90735e-06C378.873 -1.90735e-06 380.24 0.374191 381.247 1.12258C382.253 1.84516 382.756 2.8258 382.756 4.06451C382.756 4.83871 382.524 5.47097 382.06 5.96129C381.595 6.42581 380.976 6.65806 380.202 6.65806C379.634 6.65806 379.169 6.50322 378.808 6.19355C378.473 5.88387 378.305 5.48387 378.305 4.99355C378.305 4.63226 378.382 4.30968 378.537 4.0258C378.692 3.71613 378.847 3.43226 379.002 3.17419C379.182 2.91613 379.273 2.68387 379.273 2.47742C379.273 1.75484 378.679 1.39355 377.492 1.39355C375.763 1.39355 374.485 1.97419 373.66 3.13548C372.86 4.29677 372.46 6.10322 372.46 8.55484V20.3613H368.976ZM391.225 30.8129C389.496 30.8129 387.922 30.4516 386.503 29.729C385.109 28.9806 383.999 27.8452 383.173 26.3226C382.348 24.7742 381.935 22.7742 381.935 20.3226C381.935 17.871 382.348 15.871 383.173 14.3226C383.999 12.7742 385.109 11.6387 386.503 10.9161C387.922 10.1677 389.496 9.79355 391.225 9.79355C392.98 9.79355 394.554 10.1677 395.948 10.9161C397.341 11.6387 398.451 12.7742 399.277 14.3226C400.103 15.871 400.515 17.871 400.515 20.3226C400.515 22.7742 400.103 24.7742 399.277 26.3226C398.451 27.8452 397.341 28.9806 395.948 29.729C394.554 30.4516 392.98 30.8129 391.225 30.8129ZM391.225 29.3032C392.851 29.3032 394.18 28.5935 395.212 27.1742C396.244 25.7548 396.761 23.471 396.761 20.3226C396.761 17.1742 396.244 14.8903 395.212 13.471C394.18 12.0258 392.851 11.3032 391.225 11.3032C389.599 11.3032 388.27 12.0258 387.238 13.471C386.206 14.8903 385.69 17.1742 385.69 20.3226C385.69 23.471 386.206 25.7548 387.238 27.1742C388.27 28.5935 389.599 29.3032 391.225 29.3032ZM415.633 30.8129C413.775 30.8129 412.162 30.4 410.794 29.5742C409.426 28.7226 408.368 27.5226 407.62 25.9742C406.871 24.4 406.497 22.5419 406.497 20.4C406.497 18.2323 406.884 16.3613 407.659 14.7871C408.433 13.1871 409.53 11.9613 410.949 11.1097C412.368 10.2323 414.033 9.79355 415.942 9.79355C417.362 9.79355 418.626 10.0129 419.736 10.4516C420.871 10.8903 421.762 11.4839 422.407 12.2323C423.052 12.9806 423.375 13.8452 423.375 14.8258C423.375 15.6774 423.117 16.3742 422.601 16.9161C422.11 17.4581 421.465 17.729 420.665 17.729C420.02 17.729 419.504 17.5613 419.117 17.2258C418.73 16.8645 418.536 16.4 418.536 15.8323C418.536 15.3677 418.626 14.9677 418.807 14.6323C419.013 14.271 419.22 13.9355 419.426 13.6258C419.633 13.3161 419.736 13.0194 419.736 12.7355C419.736 12.2968 419.439 11.9484 418.846 11.6903C418.278 11.4065 417.53 11.2645 416.601 11.2645C414.536 11.2645 412.962 12.0129 411.878 13.5097C410.794 15.0064 410.252 17.1742 410.252 20.0129C410.252 22.8258 410.781 24.9935 411.839 26.5161C412.923 28.0129 414.471 28.7613 416.484 28.7613C417.775 28.7613 418.91 28.4387 419.891 27.7935C420.871 27.1226 421.671 26.129 422.291 24.8129L423.684 25.6258C423.039 27.2516 422.007 28.529 420.588 29.4581C419.194 30.3613 417.542 30.8129 415.633 30.8129ZM434.836 10.4516V20.3613H431.352V15.329C431.352 14.1935 431.133 13.3935 430.694 12.929C430.255 12.4645 429.443 12.1806 428.255 12.0774L426.901 11.9613V10.4516C427.391 10.4774 427.83 10.5032 428.217 10.529C428.63 10.529 429.055 10.529 429.494 10.529C430.578 10.529 431.559 10.4903 432.436 10.4129C433.339 10.3097 434.139 10.1677 434.836 9.9871V10.4516ZM434.836 20.3613V23.9613C434.836 25.6387 435.159 26.8903 435.804 27.7161C436.475 28.5419 437.468 28.9548 438.784 28.9548C440.152 28.9548 441.365 28.5161 442.423 27.6387C443.481 26.7355 444.384 25.4064 445.133 23.6516L445.288 24.5419C444.539 26.6581 443.52 28.2581 442.23 29.3419C440.939 30.4 439.404 30.929 437.623 30.929C435.61 30.929 434.062 30.3097 432.978 29.071C431.894 27.8064 431.352 26.0129 431.352 23.6903V20.3613H434.836ZM444.01 30.271V20.3613H447.494V25.3935C447.494 26.529 447.714 27.329 448.152 27.7935C448.591 28.2323 449.404 28.5161 450.591 28.6452L451.946 28.7613V30.271C451.481 30.2452 451.043 30.2323 450.63 30.2323C450.217 30.2064 449.791 30.1935 449.352 30.1935C448.294 30.1935 447.314 30.2323 446.41 30.3097C445.507 30.4129 444.707 30.5548 444.01 30.7355V30.271ZM447.494 10.4516V20.3613H444.01V15.2903C444.01 14.1548 443.817 13.3677 443.43 12.929C443.068 12.4645 442.346 12.1677 441.262 12.0387L440.449 11.9613V10.4516C440.914 10.4774 441.314 10.5032 441.649 10.529C441.984 10.529 442.333 10.529 442.694 10.529C443.623 10.529 444.488 10.4903 445.288 10.4129C446.114 10.3097 446.849 10.1677 447.494 9.9871V10.4516ZM464.318 30.8129C463.208 30.8129 462.266 30.6839 461.492 30.4258C460.744 30.1935 460.124 29.9742 459.634 29.7677C459.169 29.5355 458.756 29.4194 458.395 29.4194C457.827 29.4194 457.402 29.8194 457.118 30.6194H455.608C455.685 30.0258 455.737 29.3677 455.763 28.6452C455.789 27.8968 455.802 27.0581 455.802 26.129C455.802 25.1742 455.802 24.0903 455.802 22.8774H457.273C457.582 25.0452 458.292 26.6581 459.402 27.7161C460.511 28.7742 461.995 29.3032 463.853 29.3032C465.247 29.3032 466.318 29.0064 467.066 28.4129C467.815 27.7935 468.189 26.9419 468.189 25.8581C468.189 24.8258 467.802 24 467.027 23.3806C466.279 22.7355 464.963 22.1548 463.079 21.6387C460.731 20.9935 459.002 20.1548 457.892 19.1226C456.808 18.0903 456.266 16.8 456.266 15.2516C456.266 13.5742 456.821 12.2452 457.931 11.2645C459.04 10.2839 460.511 9.79355 462.344 9.79355C463.35 9.79355 464.202 9.90968 464.898 10.1419C465.595 10.3742 466.176 10.6194 466.64 10.8774C467.131 11.1097 467.569 11.2258 467.956 11.2258C468.215 11.2258 468.434 11.1355 468.615 10.9548C468.795 10.7484 468.95 10.4387 469.079 10.0258H470.589C470.537 10.5677 470.498 11.1484 470.473 11.7677C470.447 12.3613 470.421 13.0581 470.395 13.8581C470.395 14.6323 470.408 15.5742 470.434 16.6839H468.924C468.692 15.0323 468.021 13.729 466.911 12.7742C465.802 11.7935 464.447 11.3032 462.847 11.3032C461.737 11.3032 460.86 11.5613 460.215 12.0774C459.595 12.5935 459.285 13.3419 459.285 14.3226C459.285 15.329 459.711 16.1677 460.563 16.8387C461.415 17.5097 462.86 18.1419 464.898 18.7355C467.144 19.3548 468.756 20.1419 469.737 21.0968C470.744 22.0516 471.247 23.3032 471.247 24.8516C471.247 26.7097 470.627 28.1677 469.389 29.2258C468.176 30.2839 466.485 30.8129 464.318 30.8129ZM478.159 36.3097L477.694 35.2258C479.088 34.7871 480.133 34.1806 480.83 33.4064C481.552 32.6581 481.913 31.8581 481.913 31.0064C481.913 30.3871 481.681 30.0774 481.217 30.0774C480.984 30.0774 480.726 30.1419 480.442 30.271C480.159 30.3742 479.823 30.4258 479.436 30.4258C478.688 30.4258 478.081 30.1935 477.617 29.729C477.178 29.2387 476.959 28.6323 476.959 27.9097C476.959 27.0839 477.242 26.4129 477.81 25.8968C478.404 25.3806 479.152 25.1226 480.055 25.1226C481.113 25.1226 481.952 25.5355 482.571 26.3613C483.217 27.1613 483.539 28.2581 483.539 29.6516C483.539 31.329 483.075 32.7226 482.146 33.8323C481.242 34.9419 479.913 35.7677 478.159 36.3097ZM507.81 30.7355L500.958 14.8258C500.674 14.129 500.403 13.6 500.145 13.2387C499.887 12.8516 499.59 12.5677 499.255 12.3871C498.919 12.2064 498.481 12.0903 497.939 12.0387L496.855 11.9613V10.4516C497.448 10.4774 498.093 10.5032 498.79 10.529C499.513 10.5548 500.197 10.5677 500.842 10.5677H500.919H500.958C501.758 10.5677 502.545 10.5677 503.319 10.5677C504.093 10.5419 504.803 10.529 505.448 10.529C506.119 10.5032 506.674 10.4774 507.113 10.4516V11.9613L506.339 12.0387C505.306 12.1419 504.687 12.4258 504.481 12.8903C504.274 13.329 504.39 14.129 504.829 15.2903L509.745 26.6323L509.164 26.7871L512.571 18.0774C513.164 16.6065 513.513 15.4452 513.616 14.5935C513.719 13.7419 513.616 13.1226 513.306 12.7355C512.997 12.3484 512.493 12.1032 511.797 12L511.332 11.9613V10.4516C511.977 10.4774 512.661 10.5032 513.384 10.529C514.106 10.5548 514.79 10.5677 515.435 10.5677C516.235 10.5677 516.984 10.5548 517.681 10.529C518.377 10.5032 519.022 10.4774 519.616 10.4516V11.9613L518.997 12.0387C518.377 12.1419 517.822 12.3742 517.332 12.7355C516.842 13.071 516.364 13.6258 515.9 14.4C515.461 15.1742 514.945 16.271 514.352 17.6903L509.242 30.7355H507.81ZM502.506 39.5226C501.268 39.5226 500.261 39.2 499.487 38.5548C498.739 37.9097 498.364 37.071 498.364 36.0387C498.364 35.2387 498.597 34.5935 499.061 34.1032C499.552 33.6129 500.184 33.3677 500.958 33.3677C501.526 33.3677 501.964 33.5097 502.274 33.7935C502.61 34.1032 502.777 34.5032 502.777 34.9935C502.777 35.3548 502.713 35.6645 502.584 35.9226C502.481 36.2064 502.364 36.4516 502.235 36.6581C502.106 36.8903 502.042 37.1355 502.042 37.3935C502.042 37.8323 502.326 38.0516 502.893 38.0516C503.487 38.0516 504.016 37.8323 504.481 37.3935C504.945 36.9806 505.345 36.3742 505.681 35.5742L508.119 29.5355L509.397 30.3097L507.19 35.729C506.829 36.6064 506.416 37.329 505.952 37.8968C505.513 38.4645 505.01 38.8774 504.442 39.1355C503.9 39.3935 503.255 39.5226 502.506 39.5226ZM531.803 30.8129C530.074 30.8129 528.5 30.4516 527.081 29.729C525.687 28.9806 524.577 27.8452 523.752 26.3226C522.926 24.7742 522.513 22.7742 522.513 20.3226C522.513 17.871 522.926 15.871 523.752 14.3226C524.577 12.7742 525.687 11.6387 527.081 10.9161C528.5 10.1677 530.074 9.79355 531.803 9.79355C533.558 9.79355 535.132 10.1677 536.526 10.9161C537.919 11.6387 539.029 12.7742 539.855 14.3226C540.681 15.871 541.094 17.871 541.094 20.3226C541.094 22.7742 540.681 24.7742 539.855 26.3226C539.029 27.8452 537.919 28.9806 536.526 29.729C535.132 30.4516 533.558 30.8129 531.803 30.8129ZM531.803 29.3032C533.429 29.3032 534.758 28.5935 535.79 27.1742C536.823 25.7548 537.339 23.471 537.339 20.3226C537.339 17.1742 536.823 14.8903 535.79 13.471C534.758 12.0258 533.429 11.3032 531.803 11.3032C530.177 11.3032 528.848 12.0258 527.816 13.471C526.784 14.8903 526.268 17.1742 526.268 20.3226C526.268 23.471 526.784 25.7548 527.816 27.1742C528.848 28.5935 530.177 29.3032 531.803 29.3032ZM553.383 10.4516V20.3613H549.899V15.329C549.899 14.1935 549.68 13.3935 549.241 12.929C548.802 12.4645 547.989 12.1806 546.802 12.0774L545.447 11.9613V10.4516C545.938 10.4774 546.377 10.5032 546.764 10.529C547.177 10.529 547.602 10.529 548.041 10.529C549.125 10.529 550.106 10.4903 550.983 10.4129C551.886 10.3097 552.686 10.1677 553.383 9.9871V10.4516ZM553.383 20.3613V23.9613C553.383 25.6387 553.706 26.8903 554.351 27.7161C555.022 28.5419 556.015 28.9548 557.331 28.9548C558.699 28.9548 559.912 28.5161 560.97 27.6387C562.028 26.7355 562.931 25.4064 563.68 23.6516L563.835 24.5419C563.086 26.6581 562.067 28.2581 560.777 29.3419C559.486 30.4 557.951 30.929 556.17 30.929C554.157 30.929 552.609 30.3097 551.525 29.071C550.441 27.8064 549.899 26.0129 549.899 23.6903V20.3613H553.383ZM562.557 30.271V20.3613H566.041V25.3935C566.041 26.529 566.26 27.329 566.699 27.7935C567.138 28.2323 567.951 28.5161 569.138 28.6452L570.493 28.7613V30.271C570.028 30.2452 569.589 30.2323 569.177 30.2323C568.764 30.2064 568.338 30.1935 567.899 30.1935C566.841 30.1935 565.86 30.2323 564.957 30.3097C564.054 30.4129 563.254 30.5548 562.557 30.7355V30.271ZM566.041 10.4516V20.3613H562.557V15.2903C562.557 14.1548 562.364 13.3677 561.977 12.929C561.615 12.4645 560.893 12.1677 559.809 12.0387L558.996 11.9613V10.4516C559.46 10.4774 559.86 10.5032 560.196 10.529C560.531 10.529 560.88 10.529 561.241 10.529C562.17 10.529 563.035 10.4903 563.835 10.4129C564.66 10.3097 565.396 10.1677 566.041 9.9871V10.4516ZM579.204 30.1548C577.965 30.1548 576.868 30.1677 575.913 30.1935C574.958 30.2194 573.991 30.2452 573.01 30.271V28.7613L574.442 28.6452C575.552 28.5419 576.326 28.271 576.765 27.8323C577.229 27.3935 577.462 26.6064 577.462 25.471V20.3613H580.945V25.471C580.945 26.2194 581.049 26.8129 581.255 27.2516C581.462 27.6903 581.81 28.0129 582.3 28.2194C582.791 28.4258 583.449 28.5677 584.274 28.6452L585.978 28.7613V30.271C585.281 30.2452 584.571 30.2323 583.849 30.2323C583.152 30.2064 582.429 30.1935 581.681 30.1935C580.933 30.1677 580.107 30.1548 579.204 30.1548ZM577.462 20.3613V15.2516C577.462 14.1161 577.229 13.3161 576.765 12.8516C576.326 12.3871 575.526 12.1032 574.365 12L573.01 11.8839V10.3742C573.474 10.4 573.913 10.4258 574.326 10.4516C574.739 10.4516 575.165 10.4516 575.604 10.4516C576.662 10.4516 577.642 10.4129 578.545 10.3355C579.449 10.2323 580.249 10.0903 580.945 9.90968V10.3742V20.3613H577.462ZM588.378 16.4516C587.862 16.4516 587.423 16.2968 587.062 15.9871C586.726 15.6774 586.558 15.2903 586.558 14.8258C586.558 14.4645 586.623 14.1548 586.752 13.8968C586.907 13.6387 587.049 13.3935 587.178 13.1613C587.307 12.929 587.371 12.6968 587.371 12.4645C587.371 11.9226 586.971 11.6516 586.171 11.6516C585.526 11.6516 584.842 11.8194 584.12 12.1548C583.397 12.4903 582.739 12.929 582.145 13.471C581.552 14.0129 581.113 14.6194 580.829 15.2903L580.713 13.6645C581.436 12.4258 582.339 11.471 583.423 10.8C584.533 10.129 585.694 9.79355 586.907 9.79355C588.12 9.79355 589.074 10.1419 589.771 10.8387C590.494 11.5097 590.855 12.4 590.855 13.5097C590.855 14.3871 590.623 15.0968 590.158 15.6387C589.72 16.1806 589.126 16.4516 588.378 16.4516ZM614.43 30.8129C612.572 30.8129 610.959 30.4 609.591 29.5742C608.223 28.7226 607.165 27.5097 606.417 25.9355C605.668 24.3613 605.294 22.5032 605.294 20.3613C605.294 18.2194 605.668 16.3613 606.417 14.7871C607.165 13.1871 608.236 11.9613 609.63 11.1097C611.023 10.2323 612.701 9.79355 614.662 9.79355C616.314 9.79355 617.746 10.129 618.959 10.8C620.197 11.4452 621.139 12.4645 621.784 13.8581C622.455 15.2516 622.765 17.0581 622.714 19.2774H607.578L607.539 17.8064H618.997C619.049 16.5677 618.907 15.4581 618.572 14.4774C618.262 13.4968 617.759 12.7226 617.062 12.1548C616.391 11.5613 615.526 11.2645 614.468 11.2645C613.126 11.2645 611.939 11.8323 610.907 12.9677C609.875 14.0774 609.268 15.8064 609.088 18.1548L609.126 18.271C609.101 18.5548 609.075 18.8516 609.049 19.1613C609.049 19.471 609.049 19.7935 609.049 20.129C609.049 22.8903 609.591 25.0194 610.675 26.5161C611.759 28.0129 613.307 28.7613 615.32 28.7613C616.61 28.7613 617.772 28.4387 618.804 27.7935C619.836 27.1484 620.675 26.1548 621.32 24.8129L622.714 25.6258C622.043 27.2258 620.984 28.4903 619.539 29.4194C618.094 30.3484 616.391 30.8129 614.43 30.8129ZM639.937 30.271V28.7613C640.608 28.7355 641.072 28.6452 641.33 28.4903C641.589 28.3097 641.692 28.0774 641.64 27.7935C641.589 27.5097 641.434 27.2258 641.176 26.9419L630.995 14.0903C630.53 13.5484 630.079 13.1226 629.64 12.8129C629.227 12.5032 628.763 12.2839 628.247 12.1548C627.73 12 627.098 11.9097 626.35 11.8839V10.3742C626.918 10.4 627.666 10.4387 628.595 10.4903C629.524 10.5161 630.401 10.529 631.227 10.529C631.743 10.529 632.272 10.5161 632.814 10.4903C633.356 10.4645 633.898 10.4387 634.44 10.4129C635.008 10.3871 635.524 10.3742 635.989 10.3742V11.8839C635.369 11.9097 634.918 12.0129 634.634 12.1935C634.376 12.3484 634.259 12.5677 634.285 12.8516C634.337 13.1097 634.492 13.3935 634.75 13.7032L644.892 26.4774C645.485 27.2 646.156 27.7419 646.905 28.1032C647.679 28.4645 648.518 28.6839 649.421 28.7613V30.271C648.93 30.2452 648.234 30.2194 647.33 30.1935C646.427 30.1419 645.55 30.1161 644.698 30.1161C643.872 30.1161 643.021 30.1419 642.143 30.1935C641.266 30.2194 640.53 30.2452 639.937 30.271ZM626.001 30.271V28.7613C626.801 28.7097 627.524 28.5677 628.169 28.3355C628.814 28.0774 629.459 27.6903 630.105 27.1742C630.75 26.6323 631.434 25.9484 632.156 25.1226L636.685 19.7806L637.692 20.7097L634.789 24.0387C634.221 24.7613 633.847 25.4064 633.666 25.9742C633.485 26.5419 633.459 27.0323 633.589 27.4452C633.743 27.8323 634.04 28.1419 634.479 28.3742C634.943 28.6064 635.511 28.7355 636.182 28.7613V30.271C635.64 30.2194 634.918 30.1935 634.014 30.1935C633.137 30.1677 632.169 30.1548 631.111 30.1548C630.543 30.1548 629.976 30.1677 629.408 30.1935C628.84 30.1935 628.272 30.2064 627.705 30.2323C627.163 30.2323 626.595 30.2452 626.001 30.271ZM639.008 20.4L638.001 19.4323L641.059 15.7161C641.627 14.9677 641.963 14.3097 642.066 13.7419C642.169 13.1742 642.04 12.7355 641.679 12.4258C641.318 12.0903 640.724 11.9097 639.898 11.8839V10.3742C640.466 10.4 640.982 10.4258 641.447 10.4516C641.937 10.4516 642.401 10.4645 642.84 10.4903C643.305 10.4903 643.782 10.4903 644.272 10.4903C645.072 10.4903 645.821 10.4774 646.518 10.4516C647.24 10.4258 647.924 10.4 648.569 10.3742V11.8839C647.924 11.9097 647.305 12.0516 646.711 12.3097C646.118 12.5419 645.524 12.9032 644.93 13.3935C644.363 13.8581 643.756 14.4903 643.111 15.2903L639.008 20.4ZM657.907 39.0968C656.668 39.0968 655.571 39.1097 654.616 39.1355C653.661 39.1613 652.694 39.1871 651.713 39.2129V37.7032L653.145 37.5871C654.255 37.4839 655.029 37.2129 655.468 36.7742C655.932 36.3355 656.165 35.5484 656.165 34.4129V20.3613H659.649V34.4129C659.649 35.1613 659.752 35.7548 659.958 36.1935C660.191 36.6323 660.565 36.9548 661.081 37.1613C661.597 37.3677 662.294 37.4968 663.171 37.5484L665.145 37.7032V39.2129C664.397 39.1871 663.636 39.1613 662.861 39.1355C662.113 39.1355 661.339 39.1226 660.539 39.0968C659.739 39.0968 658.861 39.0968 657.907 39.0968ZM665.881 9.90968C667.507 9.90968 668.926 10.3355 670.139 11.1871C671.352 12.0129 672.281 13.2 672.926 14.7484C673.597 16.2968 673.932 18.1161 673.932 20.2064C673.932 22.4 673.558 24.2968 672.81 25.8968C672.087 27.4968 671.055 28.7355 669.713 29.6129C668.397 30.4903 666.836 30.929 665.029 30.929C663.507 30.929 662.216 30.5806 661.158 29.8839C660.126 29.1871 659.378 28.2968 658.913 27.2129L659.416 26.1677C659.726 27.0452 660.307 27.7677 661.158 28.3355C662.036 28.9032 663.068 29.1871 664.255 29.1871C666.165 29.1871 667.623 28.4258 668.629 26.9032C669.661 25.3548 670.178 23.1742 670.178 20.3613C670.178 17.6516 669.7 15.5613 668.745 14.0903C667.791 12.5935 666.436 11.8452 664.681 11.8452C663.391 11.8452 662.255 12.2194 661.274 12.9677C660.32 13.6903 659.649 14.6581 659.261 15.871L658.874 14.8258C659.287 13.3806 660.113 12.2064 661.352 11.3032C662.591 10.3742 664.1 9.90968 665.881 9.90968ZM656.165 20.3613V15.2516C656.165 14.1161 655.932 13.3161 655.468 12.8516C655.029 12.3871 654.229 12.1032 653.068 12L651.713 11.8839V10.3742C652.178 10.4 652.616 10.4258 653.029 10.4516C653.442 10.4516 653.868 10.4516 654.307 10.4516C655.365 10.4516 656.345 10.4129 657.249 10.3355C658.152 10.2323 658.952 10.0903 659.649 9.90968V10.3742V20.3613H656.165ZM689.209 30.8129C687.48 30.8129 685.906 30.4516 684.487 29.729C683.093 28.9806 681.984 27.8452 681.158 26.3226C680.332 24.7742 679.919 22.7742 679.919 20.3226C679.919 17.871 680.332 15.871 681.158 14.3226C681.984 12.7742 683.093 11.6387 684.487 10.9161C685.906 10.1677 687.48 9.79355 689.209 9.79355C690.964 9.79355 692.539 10.1677 693.932 10.9161C695.326 11.6387 696.435 12.7742 697.261 14.3226C698.087 15.871 698.5 17.871 698.5 20.3226C698.5 22.7742 698.087 24.7742 697.261 26.3226C696.435 27.8452 695.326 28.9806 693.932 29.729C692.539 30.4516 690.964 30.8129 689.209 30.8129ZM689.209 29.3032C690.835 29.3032 692.164 28.5935 693.197 27.1742C694.229 25.7548 694.745 23.471 694.745 20.3226C694.745 17.1742 694.229 14.8903 693.197 13.471C692.164 12.0258 690.835 11.3032 689.209 11.3032C687.584 11.3032 686.255 12.0258 685.222 13.471C684.19 14.8903 683.674 17.1742 683.674 20.3226C683.674 23.471 684.19 25.7548 685.222 27.1742C686.255 28.5935 687.584 29.3032 689.209 29.3032ZM712.849 30.8129C711.739 30.8129 710.797 30.6839 710.023 30.4258C709.275 30.1935 708.655 29.9742 708.165 29.7677C707.701 29.5355 707.288 29.4194 706.926 29.4194C706.359 29.4194 705.933 29.8194 705.649 30.6194H704.139C704.217 30.0258 704.268 29.3677 704.294 28.6452C704.32 27.8968 704.333 27.0581 704.333 26.129C704.333 25.1742 704.333 24.0903 704.333 22.8774H705.804C706.114 25.0452 706.823 26.6581 707.933 27.7161C709.043 28.7742 710.526 29.3032 712.384 29.3032C713.778 29.3032 714.849 29.0064 715.597 28.4129C716.346 27.7935 716.72 26.9419 716.72 25.8581C716.72 24.8258 716.333 24 715.559 23.3806C714.81 22.7355 713.494 22.1548 711.61 21.6387C709.262 20.9935 707.533 20.1548 706.423 19.1226C705.339 18.0903 704.797 16.8 704.797 15.2516C704.797 13.5742 705.352 12.2452 706.462 11.2645C707.572 10.2839 709.043 9.79355 710.875 9.79355C711.881 9.79355 712.733 9.90968 713.43 10.1419C714.126 10.3742 714.707 10.6194 715.172 10.8774C715.662 11.1097 716.101 11.2258 716.488 11.2258C716.746 11.2258 716.965 11.1355 717.146 10.9548C717.326 10.7484 717.481 10.4387 717.61 10.0258H719.12C719.068 10.5677 719.03 11.1484 719.004 11.7677C718.978 12.3613 718.952 13.0581 718.926 13.8581C718.926 14.6323 718.939 15.5742 718.965 16.6839H717.455C717.223 15.0323 716.552 13.729 715.443 12.7742C714.333 11.7935 712.978 11.3032 711.378 11.3032C710.268 11.3032 709.391 11.5613 708.746 12.0774C708.126 12.5935 707.817 13.3419 707.817 14.3226C707.817 15.329 708.243 16.1677 709.094 16.8387C709.946 17.5097 711.391 18.1419 713.43 18.7355C715.675 19.3548 717.288 20.1419 718.268 21.0968C719.275 22.0516 719.778 23.3032 719.778 24.8516C719.778 26.7097 719.159 28.1677 717.92 29.2258C716.707 30.2839 715.017 30.8129 712.849 30.8129ZM731.977 10.4516V20.3613H728.493V15.329C728.493 14.1935 728.273 13.3935 727.835 12.929C727.396 12.4645 726.583 12.1806 725.396 12.0774L724.041 11.9613V10.4516C724.532 10.4774 724.97 10.5032 725.357 10.529C725.77 10.529 726.196 10.529 726.635 10.529C727.719 10.529 728.699 10.4903 729.577 10.4129C730.48 10.3097 731.28 10.1677 731.977 9.9871V10.4516ZM731.977 20.3613V23.9613C731.977 25.6387 732.299 26.8903 732.944 27.7161C733.615 28.5419 734.609 28.9548 735.925 28.9548C737.293 28.9548 738.506 28.5161 739.564 27.6387C740.622 26.7355 741.525 25.4064 742.273 23.6516L742.428 24.5419C741.68 26.6581 740.661 28.2581 739.37 29.3419C738.08 30.4 736.544 30.929 734.764 30.929C732.751 30.929 731.203 30.3097 730.119 29.071C729.035 27.8064 728.493 26.0129 728.493 23.6903V20.3613H731.977ZM741.151 30.271V20.3613H744.635V25.3935C744.635 26.529 744.854 27.329 745.293 27.7935C745.732 28.2323 746.544 28.5161 747.732 28.6452L749.086 28.7613V30.271C748.622 30.2452 748.183 30.2323 747.77 30.2323C747.357 30.2064 746.932 30.1935 746.493 30.1935C745.435 30.1935 744.454 30.2323 743.551 30.3097C742.648 30.4129 741.848 30.5548 741.151 30.7355V30.271ZM744.635 10.4516V20.3613H741.151V15.2903C741.151 14.1548 740.957 13.3677 740.57 12.929C740.209 12.4645 739.486 12.1677 738.403 12.0387L737.59 11.9613V10.4516C738.054 10.4774 738.454 10.5032 738.79 10.529C739.125 10.529 739.473 10.529 739.835 10.529C740.764 10.529 741.628 10.4903 742.428 10.4129C743.254 10.3097 743.99 10.1677 744.635 9.9871V10.4516ZM757.797 30.1548C756.559 30.1548 755.462 30.1677 754.507 30.1935C753.552 30.2194 752.584 30.2452 751.604 30.271V28.7613L753.036 28.6452C754.146 28.5419 754.92 28.271 755.359 27.8323C755.823 27.3935 756.055 26.6064 756.055 25.471V20.3613H759.539V25.471C759.539 26.2194 759.642 26.8129 759.849 27.2516C760.055 27.6903 760.404 28.0129 760.894 28.2194C761.384 28.4258 762.042 28.5677 762.868 28.6452L764.571 28.7613V30.271C763.875 30.2452 763.165 30.2323 762.442 30.2323C761.746 30.2064 761.023 30.1935 760.275 30.1935C759.526 30.1677 758.701 30.1548 757.797 30.1548ZM756.055 20.3613V15.2516C756.055 14.1161 755.823 13.3161 755.359 12.8516C754.92 12.3871 754.12 12.1032 752.959 12L751.604 11.8839V10.3742C752.068 10.4 752.507 10.4258 752.92 10.4516C753.333 10.4516 753.759 10.4516 754.197 10.4516C755.255 10.4516 756.236 10.4129 757.139 10.3355C758.042 10.2323 758.842 10.0903 759.539 9.90968V10.3742V20.3613H756.055ZM766.971 16.4516C766.455 16.4516 766.017 16.2968 765.655 15.9871C765.32 15.6774 765.152 15.2903 765.152 14.8258C765.152 14.4645 765.217 14.1548 765.346 13.8968C765.501 13.6387 765.642 13.3935 765.771 13.1613C765.901 12.929 765.965 12.6968 765.965 12.4645C765.965 11.9226 765.565 11.6516 764.765 11.6516C764.12 11.6516 763.436 11.8194 762.713 12.1548C761.991 12.4903 761.333 12.929 760.739 13.471C760.146 14.0129 759.707 14.6194 759.423 15.2903L759.307 13.6645C760.03 12.4258 760.933 11.471 762.017 10.8C763.126 10.129 764.288 9.79355 765.501 9.79355C766.713 9.79355 767.668 10.1419 768.365 10.8387C769.088 11.5097 769.449 12.4 769.449 13.5097C769.449 14.3871 769.217 15.0968 768.752 15.6387C768.313 16.1806 767.72 16.4516 766.971 16.4516ZM782.008 30.8129C780.15 30.8129 778.537 30.4 777.169 29.5742C775.801 28.7226 774.743 27.5097 773.995 25.9355C773.246 24.3613 772.872 22.5032 772.872 20.3613C772.872 18.2194 773.246 16.3613 773.995 14.7871C774.743 13.1871 775.814 11.9613 777.208 11.1097C778.601 10.2323 780.279 9.79355 782.24 9.79355C783.892 9.79355 785.324 10.129 786.537 10.8C787.776 11.4452 788.717 12.4645 789.363 13.8581C790.034 15.2516 790.343 17.0581 790.292 19.2774H775.156L775.117 17.8064H786.576C786.627 16.5677 786.485 15.4581 786.15 14.4774C785.84 13.4968 785.337 12.7226 784.64 12.1548C783.969 11.5613 783.105 11.2645 782.046 11.2645C780.705 11.2645 779.517 11.8323 778.485 12.9677C777.453 14.0774 776.846 15.8064 776.666 18.1548L776.705 18.271C776.679 18.5548 776.653 18.8516 776.627 19.1613C776.627 19.471 776.627 19.7935 776.627 20.129C776.627 22.8903 777.169 25.0194 778.253 26.5161C779.337 28.0129 780.885 28.7613 782.898 28.7613C784.188 28.7613 785.35 28.4387 786.382 27.7935C787.414 27.1484 788.253 26.1548 788.898 24.8129L790.292 25.6258C789.621 27.2258 788.563 28.4903 787.117 29.4194C785.672 30.3484 783.969 30.8129 782.008 30.8129ZM805.946 20.4387V18.5032H825.223V20.4387H805.946ZM14.4387 69.5677L5.1871 54.1613C4.77419 53.4645 4.37419 52.9355 3.9871 52.5742C3.62581 52.2129 3.22581 51.9548 2.7871 51.8C2.34839 51.6194 1.83226 51.5161 1.23871 51.4903L8.04663e-07 51.3742V49.8645C0.619356 49.8903 1.31613 49.9161 2.09032 49.9419C2.86452 49.9677 3.62581 49.9806 4.37419 49.9806H4.56774H4.8C5.49678 49.9806 6.20645 49.9806 6.92903 49.9806C7.65161 49.9806 8.34839 49.9806 9.01936 49.9806C9.69032 49.9548 10.3097 49.9419 10.8774 49.9419C11.4452 49.9161 11.9484 49.9032 12.3871 49.9032V51.3742L10.8387 51.529C9.57419 51.6323 8.87742 51.8645 8.74839 52.2258C8.64516 52.5871 8.89032 53.3226 9.48387 54.4323L16.4516 66.0839L15.2516 66.6258L20.7484 56.5226C21.6258 54.871 21.9226 53.6581 21.6387 52.8839C21.3806 52.1097 20.4903 51.6323 18.9677 51.4516L18.1935 51.3742V49.8645C19.1226 49.8903 20.129 49.9161 21.2129 49.9419C22.2968 49.9677 23.3032 49.9806 24.2323 49.9806C25.1613 49.9806 26.0129 49.9677 26.7871 49.9419C27.5613 49.9161 28.2452 49.8903 28.8387 49.8645V51.3742L28.2968 51.4516C27.4968 51.5548 26.7742 51.7613 26.129 52.071C25.5097 52.3548 24.9161 52.8194 24.3484 53.4645C23.8065 54.0839 23.2387 54.9742 22.6452 56.1355L15.3677 69.5677H14.4387ZM14.8258 77.1548C13.9484 77.1548 13.071 77.1677 12.1935 77.1935C11.3161 77.1935 10.4903 77.2064 9.71613 77.2323C8.94194 77.2323 8.25806 77.2452 7.66452 77.271V75.7613L10.0645 75.5677C11.3806 75.4387 12.2323 75.1806 12.6194 74.7935C13.0065 74.4064 13.2 73.6194 13.2 72.4323V65.2323L15.3677 68.0194L16.8 65.7355V72.4323C16.8 73.6194 16.9935 74.4064 17.3806 74.7935C17.7935 75.1806 18.6581 75.4387 19.9742 75.5677L22.3355 75.7613V77.271C21.7677 77.2452 21.0839 77.2323 20.2839 77.2323C19.5097 77.2064 18.6839 77.1935 17.8065 77.1935C16.929 77.1677 16.0645 77.1548 15.2129 77.1548H15.0194H14.8258ZM37.1314 77.8129C35.4023 77.8129 33.8281 77.4516 32.4088 76.729C31.0152 75.9806 29.9055 74.8452 29.0797 73.3226C28.2539 71.7742 27.841 69.7742 27.841 67.3226C27.841 64.871 28.2539 62.871 29.0797 61.3226C29.9055 59.7742 31.0152 58.6387 32.4088 57.9161C33.8281 57.1677 35.4023 56.7935 37.1314 56.7935C38.8862 56.7935 40.4604 57.1677 41.8539 57.9161C43.2475 58.6387 44.3572 59.7742 45.183 61.3226C46.0088 62.871 46.4217 64.871 46.4217 67.3226C46.4217 69.7742 46.0088 71.7742 45.183 73.3226C44.3572 74.8452 43.2475 75.9806 41.8539 76.729C40.4604 77.4516 38.8862 77.8129 37.1314 77.8129ZM37.1314 76.3032C38.7572 76.3032 40.0862 75.5935 41.1184 74.1742C42.1507 72.7548 42.6668 70.471 42.6668 67.3226C42.6668 64.1742 42.1507 61.8903 41.1184 60.471C40.0862 59.0258 38.7572 58.3032 37.1314 58.3032C35.5055 58.3032 34.1765 59.0258 33.1443 60.471C32.112 61.8903 31.5959 64.1742 31.5959 67.3226C31.5959 70.471 32.112 72.7548 33.1443 74.1742C34.1765 75.5935 35.5055 76.3032 37.1314 76.3032ZM58.7111 57.4516V67.3613H55.2272V62.329C55.2272 61.1935 55.0079 60.3935 54.5692 59.929C54.1304 59.4645 53.3175 59.1806 52.1304 59.0774L50.7756 58.9613V57.4516C51.2659 57.4774 51.7046 57.5032 52.0917 57.529C52.5046 57.529 52.9304 57.529 53.3692 57.529C54.453 57.529 55.4337 57.4903 56.3111 57.4129C57.2143 57.3097 58.0143 57.1677 58.7111 56.9871V57.4516ZM58.7111 67.3613V70.9613C58.7111 72.6387 59.0337 73.8903 59.6788 74.7161C60.3498 75.5419 61.3433 75.9548 62.6595 75.9548C64.0272 75.9548 65.2401 75.5161 66.2982 74.6387C67.3563 73.7355 68.2595 72.4064 69.0079 70.6516L69.1627 71.5419C68.4143 73.6581 67.395 75.2581 66.1046 76.3419C64.8143 77.4 63.2788 77.929 61.4982 77.929C59.4853 77.929 57.9369 77.3097 56.853 76.071C55.7692 74.8064 55.2272 73.0129 55.2272 70.6903V67.3613H58.7111ZM67.8853 77.271V67.3613H71.3692V72.3935C71.3692 73.529 71.5885 74.329 72.0272 74.7935C72.4659 75.2323 73.2788 75.5161 74.4659 75.6452L75.8208 75.7613V77.271C75.3562 77.2452 74.9175 77.2323 74.5046 77.2323C74.0917 77.2064 73.6659 77.1935 73.2272 77.1935C72.1692 77.1935 71.1885 77.2323 70.2853 77.3097C69.3821 77.4129 68.5821 77.5548 67.8853 77.7355V77.271ZM71.3692 57.4516V67.3613H67.8853V62.2903C67.8853 61.1548 67.6917 60.3677 67.3046 59.929C66.9433 59.4645 66.2208 59.1677 65.1369 59.0387L64.324 58.9613V57.4516C64.7885 57.4774 65.1885 57.5032 65.524 57.529C65.8595 57.529 66.2079 57.529 66.5692 57.529C67.4982 57.529 68.3627 57.4903 69.1627 57.4129C69.9885 57.3097 70.724 57.1677 71.3692 56.9871V57.4516ZM102.205 67.3613V62.0581C102.205 60.8194 101.831 59.8903 101.082 59.271C100.36 58.6516 99.276 58.3419 97.8308 58.3419C96.7986 58.3419 95.9212 58.4839 95.1986 58.7677C94.5018 59.0516 94.1534 59.4129 94.1534 59.8516C94.1534 60.0839 94.2308 60.3419 94.3857 60.6258C94.5663 60.8839 94.7341 61.1806 94.8889 61.5161C95.0696 61.8258 95.1599 62.1613 95.1599 62.5226C95.1599 63.0129 94.9792 63.4129 94.6179 63.7226C94.2567 64.0323 93.7792 64.1871 93.1857 64.1871C92.4889 64.1871 91.9212 63.9548 91.4825 63.4903C91.0696 63.0258 90.8631 62.4323 90.8631 61.7097C90.8631 60.7548 91.1986 59.9161 91.8696 59.1935C92.5663 58.4452 93.5083 57.8645 94.6954 57.4516C95.9083 57.0129 97.276 56.7935 98.7986 56.7935C101.224 56.7935 102.979 57.3742 104.063 58.5355C105.147 59.671 105.689 61.4645 105.689 63.9161V67.3613H102.205ZM95.8567 77.8129C94.1018 77.8129 92.7083 77.3613 91.676 76.4581C90.6438 75.529 90.1276 74.2774 90.1276 72.7032C90.1276 71.4903 90.4115 70.5097 90.9792 69.7613C91.5728 69.0129 92.3212 68.4194 93.2244 67.9806C94.1534 67.5419 95.1341 67.1806 96.1663 66.8968C97.1986 66.6129 98.1792 66.3548 99.1083 66.1226C100.037 65.8645 100.786 65.5548 101.353 65.1935C101.947 64.8323 102.257 64.3419 102.282 63.7226L102.437 65.6194C102.205 66.1097 101.766 66.5097 101.121 66.8194C100.476 67.129 99.7405 67.4129 98.9147 67.671C98.1147 67.929 97.3276 68.2387 96.5534 68.6C95.805 68.9613 95.1728 69.4387 94.6567 70.0323C94.1405 70.6 93.8825 71.3742 93.8825 72.3548C93.8825 73.3355 94.1663 74.1097 94.7341 74.6774C95.3276 75.2452 96.1534 75.529 97.2115 75.529C98.2438 75.529 99.2115 75.2452 100.115 74.6774C101.044 74.1097 101.857 73.2839 102.553 72.2V73.8258C101.728 75.1677 100.76 76.1742 99.6502 76.8452C98.5405 77.4903 97.276 77.8129 95.8567 77.8129ZM105.689 74.0581C105.689 74.6774 105.792 75.1419 105.999 75.4516C106.231 75.7355 106.566 75.8774 107.005 75.8774C107.444 75.8774 107.882 75.7613 108.321 75.529C108.786 75.2968 109.237 75.0258 109.676 74.7161L110.411 75.9548C109.741 76.5484 109.044 77 108.321 77.3097C107.624 77.6452 106.811 77.8129 105.882 77.8129C104.644 77.8129 103.715 77.529 103.095 76.9613C102.502 76.3677 102.205 75.4774 102.205 74.2903V67.3613H105.689V74.0581ZM119.266 77.1548C118.027 77.1548 116.931 77.1677 115.976 77.1935C115.021 77.2194 114.053 77.2452 113.072 77.271V75.7613L114.505 75.6452C115.614 75.5419 116.389 75.271 116.827 74.8323C117.292 74.3935 117.524 73.6064 117.524 72.471V67.3613H121.008V72.471C121.008 73.2194 121.111 73.8129 121.318 74.2516C121.524 74.6903 121.872 75.0129 122.363 75.2194C122.853 75.4258 123.511 75.5677 124.337 75.6452L126.04 75.7613V77.271C125.343 77.2452 124.634 77.2323 123.911 77.2323C123.214 77.2064 122.492 77.1935 121.743 77.1935C120.995 77.1677 120.169 77.1548 119.266 77.1548ZM117.524 67.3613V62.2516C117.524 61.1161 117.292 60.3161 116.827 59.8516C116.389 59.3871 115.589 59.1032 114.427 59L113.072 58.8839V57.3742C113.537 57.4 113.976 57.4258 114.389 57.4516C114.802 57.4516 115.227 57.4516 115.666 57.4516C116.724 57.4516 117.705 57.4129 118.608 57.3355C119.511 57.2323 120.311 57.0903 121.008 56.9097V57.3742V67.3613H117.524ZM128.44 63.4516C127.924 63.4516 127.485 63.2968 127.124 62.9871C126.789 62.6774 126.621 62.2903 126.621 61.8258C126.621 61.4645 126.685 61.1548 126.814 60.8968C126.969 60.6387 127.111 60.3935 127.24 60.1613C127.369 59.929 127.434 59.6968 127.434 59.4645C127.434 58.9226 127.034 58.6516 126.234 58.6516C125.589 58.6516 124.905 58.8194 124.182 59.1548C123.46 59.4903 122.802 59.929 122.208 60.471C121.614 61.0129 121.176 61.6194 120.892 62.2903L120.776 60.6645C121.498 59.4258 122.402 58.471 123.485 57.8C124.595 57.129 125.756 56.7935 126.969 56.7935C128.182 56.7935 129.137 57.1419 129.834 57.8387C130.556 58.5097 130.918 59.4 130.918 60.5097C130.918 61.3871 130.685 62.0968 130.221 62.6387C129.782 63.1806 129.189 63.4516 128.44 63.4516ZM143.477 77.8129C141.618 77.8129 140.006 77.4 138.638 76.5742C137.27 75.7226 136.212 74.5097 135.464 72.9355C134.715 71.3613 134.341 69.5032 134.341 67.3613C134.341 65.2194 134.715 63.3613 135.464 61.7871C136.212 60.1871 137.283 58.9613 138.677 58.1097C140.07 57.2323 141.747 56.7935 143.709 56.7935C145.36 56.7935 146.793 57.129 148.006 57.8C149.244 58.4452 150.186 59.4645 150.831 60.8581C151.502 62.2516 151.812 64.0581 151.76 66.2774H136.625L136.586 64.8064H148.044C148.096 63.5677 147.954 62.4581 147.618 61.4774C147.309 60.4968 146.806 59.7226 146.109 59.1548C145.438 58.5613 144.573 58.2645 143.515 58.2645C142.173 58.2645 140.986 58.8323 139.954 59.9677C138.922 61.0774 138.315 62.8064 138.135 65.1548L138.173 65.271C138.147 65.5548 138.122 65.8516 138.096 66.1613C138.096 66.471 138.096 66.7935 138.096 67.129C138.096 69.8903 138.638 72.0194 139.722 73.5161C140.806 75.0129 142.354 75.7613 144.367 75.7613C145.657 75.7613 146.818 75.4387 147.851 74.7935C148.883 74.1484 149.722 73.1548 150.367 71.8129L151.76 72.6258C151.089 74.2258 150.031 75.4903 148.586 76.4194C147.141 77.3484 145.438 77.8129 143.477 77.8129ZM172.485 70.2258C171.84 71.8774 171.75 73.1548 172.215 74.0581C172.679 74.9613 173.724 75.5032 175.35 75.6839L176.163 75.7613V77.271C175.182 77.2194 174.111 77.1935 172.95 77.1935C171.815 77.1677 170.744 77.1548 169.737 77.1548C168.782 77.1548 167.892 77.1677 167.066 77.1935C166.24 77.1935 165.492 77.2194 164.821 77.271V75.7613L165.479 75.6839C166.331 75.5806 167.053 75.3613 167.647 75.0258C168.24 74.6903 168.769 74.1871 169.234 73.5161C169.698 72.8194 170.163 71.8645 170.627 70.6516L179.221 49.5935H180.615L189.866 72.5484C190.176 73.2968 190.46 73.8903 190.718 74.329C190.976 74.7677 191.285 75.0903 191.647 75.2968C192.034 75.4774 192.524 75.5935 193.118 75.6452L194.473 75.7613V77.271C194.06 77.2452 193.595 77.2323 193.079 77.2323C192.563 77.2064 192.034 77.1935 191.492 77.1935C190.976 77.1677 190.447 77.1548 189.905 77.1548H189.789H189.827C189.156 77.1548 188.485 77.1677 187.815 77.1935C187.144 77.1935 186.485 77.2064 185.84 77.2323C185.221 77.2323 184.64 77.2452 184.098 77.271C183.556 77.271 183.079 77.271 182.666 77.271V75.8L183.982 75.6452C185.169 75.5161 185.905 75.2194 186.189 74.7548C186.473 74.2903 186.395 73.4774 185.956 72.3161L178.524 53.9677L179.337 53.3097L172.485 70.2258ZM172.602 67.671L173.221 66.1613H185.569L186.111 67.671H172.602ZM201.344 86.0968C200.105 86.0968 199.009 86.1097 198.054 86.1355C197.099 86.1613 196.131 86.1871 195.151 86.2129V84.7032L196.583 84.5871C197.693 84.4839 198.467 84.2129 198.905 83.7742C199.37 83.3355 199.602 82.5484 199.602 81.4129V67.3613H203.086V81.4129C203.086 82.1613 203.189 82.7548 203.396 83.1935C203.628 83.6323 204.002 83.9548 204.518 84.1613C205.034 84.3677 205.731 84.4968 206.609 84.5484L208.583 84.7032V86.2129C207.834 86.1871 207.073 86.1613 206.299 86.1355C205.551 86.1355 204.776 86.1226 203.976 86.0968C203.176 86.0968 202.299 86.0968 201.344 86.0968ZM209.318 56.9097C210.944 56.9097 212.364 57.3355 213.576 58.1871C214.789 59.0129 215.718 60.2 216.364 61.7484C217.034 63.2968 217.37 65.1161 217.37 67.2064C217.37 69.4 216.996 71.2968 216.247 72.8968C215.525 74.4968 214.493 75.7355 213.151 76.6129C211.834 77.4903 210.273 77.929 208.467 77.929C206.944 77.929 205.654 77.5806 204.596 76.8839C203.564 76.1871 202.815 75.2968 202.351 74.2129L202.854 73.1677C203.164 74.0452 203.744 74.7677 204.596 75.3355C205.473 75.9032 206.505 76.1871 207.693 76.1871C209.602 76.1871 211.06 75.4258 212.067 73.9032C213.099 72.3548 213.615 70.1742 213.615 67.3613C213.615 64.6516 213.138 62.5613 212.183 61.0903C211.228 59.5935 209.873 58.8452 208.118 58.8452C206.828 58.8452 205.693 59.2194 204.712 59.9677C203.757 60.6903 203.086 61.6581 202.699 62.871L202.312 61.8258C202.725 60.3806 203.551 59.2064 204.789 58.3032C206.028 57.3742 207.538 56.9097 209.318 56.9097ZM199.602 67.3613V62.2516C199.602 61.1161 199.37 60.3161 198.905 59.8516C198.467 59.3871 197.667 59.1032 196.505 59L195.151 58.8839V57.3742C195.615 57.4 196.054 57.4258 196.467 57.4516C196.88 57.4516 197.305 57.4516 197.744 57.4516C198.802 57.4516 199.783 57.4129 200.686 57.3355C201.589 57.2323 202.389 57.0903 203.086 56.9097V57.3742V67.3613H199.602ZM232.492 77.8129C230.634 77.8129 229.021 77.4 227.653 76.5742C226.286 75.7226 225.228 74.5097 224.479 72.9355C223.731 71.3613 223.357 69.5032 223.357 67.3613C223.357 65.2194 223.731 63.3613 224.479 61.7871C225.228 60.1871 226.299 58.9613 227.692 58.1097C229.086 57.2323 230.763 56.7935 232.724 56.7935C234.376 56.7935 235.808 57.129 237.021 57.8C238.26 58.4452 239.202 59.4645 239.847 60.8581C240.518 62.2516 240.828 64.0581 240.776 66.2774H225.641L225.602 64.8064H237.06C237.111 63.5677 236.97 62.4581 236.634 61.4774C236.324 60.4968 235.821 59.7226 235.124 59.1548C234.453 58.5613 233.589 58.2645 232.531 58.2645C231.189 58.2645 230.002 58.8323 228.97 59.9677C227.937 61.0774 227.331 62.8064 227.15 65.1548L227.189 65.271C227.163 65.5548 227.137 65.8516 227.111 66.1613C227.111 66.471 227.111 66.7935 227.111 67.129C227.111 69.8903 227.653 72.0194 228.737 73.5161C229.821 75.0129 231.37 75.7613 233.382 75.7613C234.673 75.7613 235.834 75.4387 236.866 74.7935C237.899 74.1484 238.737 73.1548 239.382 71.8129L240.776 72.6258C240.105 74.2258 239.047 75.4903 237.602 76.4194C236.157 77.3484 234.453 77.8129 232.492 77.8129ZM250.891 77.1548C249.652 77.1548 248.556 77.1677 247.601 77.1935C246.646 77.2194 245.678 77.2452 244.697 77.271V75.7613L246.13 75.6452C247.239 75.5419 248.014 75.271 248.452 74.8323C248.917 74.3935 249.149 73.6064 249.149 72.471V67.3613H252.633V72.471C252.633 73.2194 252.736 73.8129 252.943 74.2516C253.149 74.6903 253.497 75.0129 253.988 75.2194C254.478 75.4258 255.136 75.5677 255.962 75.6452L257.665 75.7613V77.271C256.968 77.2452 256.259 77.2323 255.536 77.2323C254.839 77.2064 254.117 77.1935 253.368 77.1935C252.62 77.1677 251.794 77.1548 250.891 77.1548ZM249.149 67.3613V62.2516C249.149 61.1161 248.917 60.3161 248.452 59.8516C248.014 59.3871 247.214 59.1032 246.052 59L244.697 58.8839V57.3742C245.162 57.4 245.601 57.4258 246.014 57.4516C246.427 57.4516 246.852 57.4516 247.291 57.4516C248.349 57.4516 249.33 57.4129 250.233 57.3355C251.136 57.2323 251.936 57.0903 252.633 56.9097V57.3742V67.3613H249.149ZM260.065 63.4516C259.549 63.4516 259.11 63.2968 258.749 62.9871C258.414 62.6774 258.246 62.2903 258.246 61.8258C258.246 61.4645 258.31 61.1548 258.439 60.8968C258.594 60.6387 258.736 60.3935 258.865 60.1613C258.994 59.929 259.059 59.6968 259.059 59.4645C259.059 58.9226 258.659 58.6516 257.859 58.6516C257.214 58.6516 256.53 58.8194 255.807 59.1548C255.085 59.4903 254.427 59.929 253.833 60.471C253.239 61.0129 252.801 61.6194 252.517 62.2903L252.401 60.6645C253.123 59.4258 254.027 58.471 255.11 57.8C256.22 57.129 257.381 56.7935 258.594 56.7935C259.807 56.7935 260.762 57.1419 261.459 57.8387C262.181 58.5097 262.543 59.4 262.543 60.5097C262.543 61.3871 262.31 62.0968 261.846 62.6387C261.407 63.1806 260.814 63.4516 260.065 63.4516ZM275.102 77.8129C273.192 77.8129 271.76 77.2581 270.805 76.1484C269.85 75.0129 269.373 73.3097 269.373 71.0387V67.3613H272.857V72.0839C272.857 73.3484 273.102 74.2903 273.592 74.9097C274.082 75.5032 274.844 75.8 275.876 75.8C276.857 75.8 277.657 75.4903 278.276 74.871C278.895 74.2516 279.36 73.3484 279.67 72.1613L280.87 72.471C280.482 74.2774 279.824 75.6194 278.895 76.4968C277.966 77.3742 276.702 77.8129 275.102 77.8129ZM269.373 67.3613V51.4516C270.044 51.4 270.663 51.3355 271.231 51.2581C271.824 51.1806 272.366 51.0645 272.857 50.9097V67.3613H269.373ZM264.689 58.9613V57.4516H279.747V58.9613H264.689ZM290.414 57.4516V67.3613H286.93V62.329C286.93 61.1935 286.711 60.3935 286.272 59.929C285.834 59.4645 285.021 59.1806 283.834 59.0774L282.479 58.9613V57.4516C282.969 57.4774 283.408 57.5032 283.795 57.529C284.208 57.529 284.634 57.529 285.072 57.529C286.156 57.529 287.137 57.4903 288.014 57.4129C288.917 57.3097 289.717 57.1677 290.414 56.9871V57.4516ZM290.414 67.3613V70.9613C290.414 72.6387 290.737 73.8903 291.382 74.7161C292.053 75.5419 293.046 75.9548 294.363 75.9548C295.73 75.9548 296.943 75.5161 298.001 74.6387C299.059 73.7355 299.963 72.4064 300.711 70.6516L300.866 71.5419C300.117 73.6581 299.098 75.2581 297.808 76.3419C296.517 77.4 294.982 77.929 293.201 77.929C291.188 77.929 289.64 77.3097 288.556 76.071C287.472 74.8064 286.93 73.0129 286.93 70.6903V67.3613H290.414ZM299.588 77.271V67.3613H303.072V72.3935C303.072 73.529 303.292 74.329 303.73 74.7935C304.169 75.2323 304.982 75.5161 306.169 75.6452L307.524 75.7613V77.271C307.059 77.2452 306.621 77.2323 306.208 77.2323C305.795 77.2064 305.369 77.1935 304.93 77.1935C303.872 77.1935 302.892 77.2323 301.988 77.3097C301.085 77.4129 300.285 77.5548 299.588 77.7355V77.271ZM303.072 57.4516V67.3613H299.588V62.2903C299.588 61.1548 299.395 60.3677 299.008 59.929C298.646 59.4645 297.924 59.1677 296.84 59.0387L296.027 58.9613V57.4516C296.492 57.4774 296.892 57.5032 297.227 57.529C297.563 57.529 297.911 57.529 298.272 57.529C299.201 57.529 300.066 57.4903 300.866 57.4129C301.692 57.3097 302.427 57.1677 303.072 56.9871V57.4516ZM316.235 77.1548C314.996 77.1548 313.899 77.1677 312.944 77.1935C311.99 77.2194 311.022 77.2452 310.041 77.271V75.7613L311.473 75.6452C312.583 75.5419 313.357 75.271 313.796 74.8323C314.261 74.3935 314.493 73.6064 314.493 72.471V67.3613H317.977V72.471C317.977 73.2194 318.08 73.8129 318.286 74.2516C318.493 74.6903 318.841 75.0129 319.332 75.2194C319.822 75.4258 320.48 75.5677 321.306 75.6452L323.009 75.7613V77.271C322.312 77.2452 321.603 77.2323 320.88 77.2323C320.183 77.2064 319.461 77.1935 318.712 77.1935C317.964 77.1677 317.138 77.1548 316.235 77.1548ZM314.493 67.3613V62.2516C314.493 61.1161 314.261 60.3161 313.796 59.8516C313.357 59.3871 312.557 59.1032 311.396 59L310.041 58.8839V57.3742C310.506 57.4 310.944 57.4258 311.357 57.4516C311.77 57.4516 312.196 57.4516 312.635 57.4516C313.693 57.4516 314.673 57.4129 315.577 57.3355C316.48 57.2323 317.28 57.0903 317.977 56.9097V57.3742V67.3613H314.493ZM325.409 63.4516C324.893 63.4516 324.454 63.2968 324.093 62.9871C323.757 62.6774 323.59 62.2903 323.59 61.8258C323.59 61.4645 323.654 61.1548 323.783 60.8968C323.938 60.6387 324.08 60.3935 324.209 60.1613C324.338 59.929 324.403 59.6968 324.403 59.4645C324.403 58.9226 324.003 58.6516 323.203 58.6516C322.557 58.6516 321.873 58.8194 321.151 59.1548C320.428 59.4903 319.77 59.929 319.177 60.471C318.583 61.0129 318.144 61.6194 317.861 62.2903L317.744 60.6645C318.467 59.4258 319.37 58.471 320.454 57.8C321.564 57.129 322.725 56.7935 323.938 56.7935C325.151 56.7935 326.106 57.1419 326.803 57.8387C327.525 58.5097 327.886 59.4 327.886 60.5097C327.886 61.3871 327.654 62.0968 327.19 62.6387C326.751 63.1806 326.157 63.4516 325.409 63.4516ZM340.445 77.8129C338.587 77.8129 336.974 77.4 335.607 76.5742C334.239 75.7226 333.181 74.5097 332.432 72.9355C331.684 71.3613 331.31 69.5032 331.31 67.3613C331.31 65.2194 331.684 63.3613 332.432 61.7871C333.181 60.1871 334.252 58.9613 335.645 58.1097C337.039 57.2323 338.716 56.7935 340.678 56.7935C342.329 56.7935 343.761 57.129 344.974 57.8C346.213 58.4452 347.155 59.4645 347.8 60.8581C348.471 62.2516 348.781 64.0581 348.729 66.2774H333.594L333.555 64.8064H345.013C345.065 63.5677 344.923 62.4581 344.587 61.4774C344.278 60.4968 343.774 59.7226 343.078 59.1548C342.407 58.5613 341.542 58.2645 340.484 58.2645C339.142 58.2645 337.955 58.8323 336.923 59.9677C335.89 61.0774 335.284 62.8064 335.103 65.1548L335.142 65.271C335.116 65.5548 335.09 65.8516 335.065 66.1613C335.065 66.471 335.065 66.7935 335.065 67.129C335.065 69.8903 335.607 72.0194 336.69 73.5161C337.774 75.0129 339.323 75.7613 341.336 75.7613C342.626 75.7613 343.787 75.4387 344.819 74.7935C345.852 74.1484 346.69 73.1548 347.336 71.8129L348.729 72.6258C348.058 74.2258 347 75.4903 345.555 76.4194C344.11 77.3484 342.407 77.8129 340.445 77.8129ZM357.033 77.8129C356.156 77.8129 355.433 77.5419 354.865 77C354.323 76.4581 354.052 75.7742 354.052 74.9484C354.052 74.1226 354.323 73.4516 354.865 72.9355C355.433 72.3935 356.143 72.1226 356.994 72.1226C357.846 72.1226 358.556 72.3935 359.123 72.9355C359.691 73.4774 359.975 74.1484 359.975 74.9484C359.975 75.7742 359.691 76.4581 359.123 77C358.581 77.5419 357.885 77.8129 357.033 77.8129Z" fill="white"/>
</svg>
