<?xml version="1.0" encoding="UTF-8"?><svg id="Layer_1" xmlns="http://www.w3.org/2000/svg" width="246.12" height="458.87" viewBox="0 0 246.12 458.87"><defs><style>.cls-1{fill:none;stroke:#000;stroke-linecap:round;stroke-linejoin:round;}</style></defs><rect x="228.53" y="8.53" width="5.92" height="406.54"/><rect x="120.67" y="64.17" width="4.15" height="95.37"/><rect x="147.4" y="63.75" width="81.03" height="4.63"/><rect x="183.8" y="67.66" width="4.86" height="52.42"/><rect x="194.89" y="148.45" width="3.41" height="132.57"/><rect x="124.47" y="117.19" width="18.56" height="2.81"/><rect x="165.58" y="116.99" width="26.7" height="2.65"/><rect x="219.55" y="116.63" width="8.88" height="2.93"/><rect x="122.75" y="64.55" width="6.58" height="3.84"/><rect x="198.02" y="277.32" width="29.85" height="3.37"/><rect x="219.39" y="410.36" width="12.05" height="4.26"/><rect x="162.11" y="410.36" width="30.17" height="4.97"/><rect x="120.33" y="410.36" width="14.66" height="4.54"/><rect x="120.33" y="231.28" width="4.59" height="181.21"/><rect x="119.93" y="8.53" width="108.5" height="3.01"/><rect x="120.33" y="8.89" width="2.25" height="14.3"/><path d="M228.43,120.37c-.31,0-.56-.25-.56-.56V8.53c0-.31.25-.56.56-.56s.56.25.56.56v111.27c0,.31-.25.56-.56.56Z"/><path d="M228.43,64.93c-.16,0-.28-.13-.28-.28V8.53c0-.16.13-.28.28-.28s.28.13.28.28v56.12c0,.16-.13.28-.28.28Z"/><path d="M219.39,117.07h-27.12s-.08-.04-.08-.08.04-.08.08-.08h27.12s.08.04.08.08-.04.08-.08.08Z"/><path d="M192.28,120.08s-.08-.04-.08-.08v-3.37s.04-.08.08-.08.08.04.08.08v3.37s-.04.08-.08.08Z"/><path d="M192.28,116.91h-3.62c-.16,0-.28-.13-.28-.28s.13-.28.28-.28h3.62c.16,0,.28.13.28.28s-.13.28-.28.28Z"/><path d="M228.43,120.29h-9.04c-.16,0-.28-.13-.28-.28s.13-.28.28-.28h9.04c.16,0,.28.13.28.28s-.13.28-.28.28Z"/><path d="M228.43,120.57c-.31,0-.56-.25-.56-.56v-3.37c0-.31.25-.56.56-.56s.56.25.56.56v3.37c0,.31-.25.56-.56.56Z"/><path d="M228.43,116.91h-9.04c-.16,0-.28-.13-.28-.28s.13-.28.28-.28h9.04c.16,0,.28.13.28.28s-.13.28-.28.28Z"/><path d="M219.39,120.08s-.08-.04-.08-.08v-3.37s.04-.08.08-.08.08.04.08.08v3.37s-.04.08-.08.08Z"/><path d="M228.43,119.92h-9.04c-.16,0-.28-.13-.28-.28s.13-.28.28-.28h9.04c.16,0,.28.13.28.28s-.13.28-.28.28Z"/><path d="M228.43,117.27h-9.04c-.16,0-.28-.13-.28-.28s.13-.28.28-.28h9.04c.16,0,.28.13.28.28s-.13.28-.28.28Z"/><path d="M192.28,117.27h-3.98c-.16,0-.28-.13-.28-.28s.13-.28.28-.28h3.98c.16,0,.28.13.28.28s-.13.28-.28.28Z"/><path d="M188.66,116.91c-.16,0-.28-.13-.28-.28v-47.84c0-.16.13-.28.28-.28s.28.13.28.28v47.84c0,.16-.13.28-.28.28Z"/><path d="M183.8,116.91c-.16,0-.28-.13-.28-.28v-47.84c0-.16.13-.28.28-.28s.28.13.28.28v47.84c0,.16-.13.28-.28.28Z"/><path d="M188.3,117.27c-.16,0-.28-.13-.28-.28v-48.61c0-.16.13-.28.28-.28s.28.13.28.28v48.61c0,.16-.13.28-.28.28Z"/><path d="M184.16,117.27c-.16,0-.28-.13-.28-.28v-48.61c0-.16.13-.28.28-.28s.28.13.28.28v48.61c0,.16-.13.28-.28.28Z"/><path d="M226.9,281.09h-32.02c-.16,0-.28-.13-.28-.28s.13-.28.28-.28h32.02c.16,0,.28.13.28.28s-.13.28-.28.28Z"/><path d="M226.9,277.72h-28.6c-.16,0-.28-.13-.28-.28s.13-.28.28-.28h28.6c.16,0,.28.13.28.28s-.13.28-.28.28Z"/><path d="M183.8,116.91h-18.2c-.16,0-.28-.13-.28-.28s.13-.28.28-.28h18.2c.16,0,.28.13.28.28s-.13.28-.28.28Z"/><path d="M165.6,120.08s-.08-.04-.08-.08v-3.37s.04-.08.08-.08.08.04.08.08v3.37s-.04.08-.08.08Z"/><path d="M192.28,120.29h-26.67c-.16,0-.28-.13-.28-.28s.13-.28.28-.28h26.67c.16,0,.28.13.28.28s-.13.28-.28.28Z"/><path d="M143.03,116.91h-18.2c-.16,0-.28-.13-.28-.28s.13-.28.28-.28h18.2c.16,0,.28.13.28.28s-.13.28-.28.28Z"/><path d="M143.03,120.29h-18.2c-.16,0-.28-.13-.28-.28s.13-.28.28-.28h18.2c.16,0,.28.13.28.28s-.13.28-.28.28Z"/><path d="M143.03,120.08s-.08-.04-.08-.08v-3.37s.04-.08.08-.08.08.04.08.08v3.37s-.04.08-.08.08Z"/><path d="M184.16,117.27h-18.56c-.16,0-.28-.13-.28-.28s.13-.28.28-.28h18.56c.16,0,.28.13.28.28s-.13.28-.28.28Z"/><path d="M124.83,117.47c-.16,0-.28-.13-.28-.28v-48.41c0-.16.13-.28.28-.28s.28.13.28.28v48.41c0,.16-.13.28-.28.28Z"/><path d="M143.03,117.27h-18.56c-.16,0-.28-.13-.28-.28s.13-.28.28-.28h18.56c.16,0,.28.13.28.28s-.13.28-.28.28Z"/><path d="M143.03,119.92h-18.56c-.16,0-.28-.13-.28-.28s.13-.28.28-.28h18.56c.16,0,.28.13.28.28s-.13.28-.28.28Z"/><path d="M192.28,119.92h-26.67c-.16,0-.28-.13-.28-.28s.13-.28.28-.28h26.67c.16,0,.28.13.28.28s-.13.28-.28.28Z"/><path d="M226.9,163.79h-1.12c-.16,0-.28-.13-.28-.28s.13-.28.28-.28h1.12c.16,0,.28.13.28.28s-.13.28-.28.28Z"/><path d="M224.65,163.79h-26.35c-.16,0-.28-.13-.28-.28s.13-.28.28-.28h26.35c.16,0,.28.13.28.28s-.13.28-.28.28Z"/><path d="M226.9,171.3h-1.12c-.16,0-.28-.13-.28-.28s.13-.28.28-.28h1.12c.16,0,.28.13.28.28s-.13.28-.28.28Z"/><path d="M224.65,171.3h-26.35c-.16,0-.28-.13-.28-.28s.13-.28.28-.28h26.35c.16,0,.28.13.28.28s-.13.28-.28.28Z"/><path d="M226.9,178.85h-1.12c-.16,0-.28-.13-.28-.28s.13-.28.28-.28h1.12c.16,0,.28.13.28.28s-.13.28-.28.28Z"/><path d="M224.65,178.85h-26.35c-.16,0-.28-.13-.28-.28s.13-.28.28-.28h26.35c.16,0,.28.13.28.28s-.13.28-.28.28Z"/><path d="M226.9,186.37h-1.12c-.16,0-.28-.13-.28-.28s.13-.28.28-.28h1.12c.16,0,.28.13.28.28s-.13.28-.28.28Z"/><path d="M224.65,186.37h-26.35c-.16,0-.28-.13-.28-.28s.13-.28.28-.28h26.35c.16,0,.28.13.28.28s-.13.28-.28.28Z"/><path d="M226.9,193.92h-1.12c-.16,0-.28-.13-.28-.28s.13-.28.28-.28h1.12c.16,0,.28.13.28.28s-.13.28-.28.28Z"/><path d="M224.65,193.92h-26.35c-.16,0-.28-.13-.28-.28s.13-.28.28-.28h26.35c.16,0,.28.13.28.28s-.13.28-.28.28Z"/><path d="M226.9,201.43h-1.12c-.16,0-.28-.13-.28-.28s.13-.28.28-.28h1.12c.16,0,.28.13.28.28s-.13.28-.28.28Z"/><path d="M224.65,201.43h-26.35c-.16,0-.28-.13-.28-.28s.13-.28.28-.28h26.35c.16,0,.28.13.28.28s-.13.28-.28.28Z"/><path d="M226.9,208.98h-1.12c-.16,0-.28-.13-.28-.28s.13-.28.28-.28h1.12c.16,0,.28.13.28.28s-.13.28-.28.28Z"/><path d="M224.65,208.98h-26.35c-.16,0-.28-.13-.28-.28s.13-.28.28-.28h26.35c.16,0,.28.13.28.28s-.13.28-.28.28Z"/><path d="M226.9,216.5h-1.12c-.16,0-.28-.13-.28-.28s.13-.28.28-.28h1.12c.16,0,.28.13.28.28s-.13.28-.28.28Z"/><path d="M224.65,216.5h-26.35c-.16,0-.28-.13-.28-.28s.13-.28.28-.28h26.35c.16,0,.28.13.28.28s-.13.28-.28.28Z"/><path d="M226.9,224.05h-1.12c-.16,0-.28-.13-.28-.28s.13-.28.28-.28h1.12c.16,0,.28.13.28.28s-.13.28-.28.28Z"/><path d="M224.65,224.05h-26.35c-.16,0-.28-.13-.28-.28s.13-.28.28-.28h26.35c.16,0,.28.13.28.28s-.13.28-.28.28Z"/><path d="M226.9,231.56h-1.12c-.16,0-.28-.13-.28-.28s.13-.28.28-.28h1.12c.16,0,.28.13.28.28s-.13.28-.28.28Z"/><path d="M224.65,231.56h-26.35c-.16,0-.28-.13-.28-.28s.13-.28.28-.28h26.35c.16,0,.28.13.28.28s-.13.28-.28.28Z"/><path d="M226.9,239.11h-1.12c-.16,0-.28-.13-.28-.28s.13-.28.28-.28h1.12c.16,0,.28.13.28.28s-.13.28-.28.28Z"/><path d="M224.65,239.11h-26.35c-.16,0-.28-.13-.28-.28s.13-.28.28-.28h26.35c.16,0,.28.13.28.28s-.13.28-.28.28Z"/><path d="M226.9,246.62h-28.6c-.16,0-.28-.13-.28-.28s.13-.28.28-.28h28.6c.16,0,.28.13.28.28s-.13.28-.28.28Z"/><path d="M129.33,69.07h-4.5c-.16,0-.28-.13-.28-.28s.13-.28.28-.28h4.5c.16,0,.28.13.28.28s-.13.28-.28.28Z"/><path d="M183.8,69.07h-36.4c-.16,0-.28-.13-.28-.28s.13-.28.28-.28h36.4c.16,0,.28.13.28.28s-.13.28-.28.28Z"/><path d="M228.43,69.07h-39.77c-.16,0-.28-.13-.28-.28s.13-.28.28-.28h39.77c.16,0,.28.13.28.28s-.13.28-.28.28Z"/><path d="M228.43,69.35c-.31,0-.56-.25-.56-.56v-4.9c0-.31.25-.56.56-.56s.56.25.56.56v4.9c0,.31-.25.56-.56.56Z"/><path d="M228.43,64.17h-81.03c-.16,0-.28-.13-.28-.28s.13-.28.28-.28h81.03c.16,0,.28.13.28.28s-.13.28-.28.28Z"/><path d="M228.43,68.66h-40.13c-.16,0-.28-.13-.28-.28s.13-.28.28-.28h40.13c.16,0,.28.13.28.28s-.13.28-.28.28Z"/><path d="M184.16,68.66h-36.76c-.16,0-.28-.13-.28-.28s.13-.28.28-.28h36.76c.16,0,.28.13.28.28s-.13.28-.28.28Z"/><path d="M129.33,64.53h-9c-.16,0-.28-.13-.28-.28s.13-.28.28-.28h9c.16,0,.28.13.28.28s-.13.28-.28.28Z"/><path d="M228.43,64.53h-81.03c-.16,0-.28-.13-.28-.28s.13-.28.28-.28h81.03c.16,0,.28.13.28.28s-.13.28-.28.28Z"/><path d="M129.33,68.66h-4.86c-.16,0-.28-.13-.28-.28s.13-.28.28-.28h4.86c.16,0,.28.13.28.28s-.13.28-.28.28Z"/><path d="M5.44,406.31s-.08-.04-.08-.08V8.53s.04-.08.08-.08h222.99s.08.04.08.08-.04.08-.08.08H5.52v397.62s-.04.08-.08.08Z"/><path d="M228.43,11.62h-105.49s-.08-.04-.08-.08.04-.08.08-.08h105.49s.08.04.08.08-.04.08-.08.08Z"/><path d="M193.88,212.44h-18.08s-.08-.04-.08-.08.04-.08.08-.08h18.08s.08.04.08.08-.04.08-.08.08Z"/><path d="M193.88,211.43h-18.08s-.08-.04-.08-.08.04-.08.08-.08h18.08s.08.04.08.08-.04.08-.08.08Z"/><path d="M193.88,199.38h-18.08s-.08-.04-.08-.08.04-.08.08-.08h18.08s.08.04.08.08-.04.08-.08.08Z"/><path d="M193.88,230.52h-18.08s-.08-.04-.08-.08.04-.08.08-.08h18v-18s.04-.08.08-.08.08.04.08.08v18.08s-.04.08-.08.08Z"/><path d="M119.93,406.31H5.44s-.08-.04-.08-.08.04-.08.08-.08h114.49s.08.04.08.08-.04.08-.08.08Z"/><path d="M198.3,277.72c-.16,0-.28-.13-.28-.28v-128.99c0-.16.13-.28.28-.28s.28.13.28.28v128.99c0,.16-.13.28-.28.28Z"/><path d="M194.89,281.09c-.16,0-.28-.13-.28-.28v-132.36c0-.16.13-.28.28-.28h3.42c.16,0,.28.13.28.28s-.13.28-.28.28h-3.13v132.08c0,.16-.13.28-.28.28Z"/><path d="M124.83,410.64c-.16,0-.28-.13-.28-.28v-178.52c0-.16.13-.28.28-.28s.28.13.28.28v178.52c0,.16-.13.28-.28.28Z"/><path d="M119.93,415.55c-.16,0-.28-.13-.28-.28v-183.42c0-.16.13-.28.28-.28s.28.13.28.28v183.42c0,.16-.13.28-.28.28Z"/><path d="M124.47,411.05c-.16,0-.28-.13-.28-.28v-178.92c0-.16.13-.28.28-.28s.28.13.28.28v178.92c0,.16-.13.28-.28.28Z"/><path d="M120.33,415.18c-.16,0-.28-.13-.28-.28v-183.06c0-.16.13-.28.28-.28s.28.13.28.28v183.06c0,.16-.13.28-.28.28Z"/><path d="M124.83,159.81c-.16,0-.28-.13-.28-.28v-39.73c0-.16.13-.28.28-.28s.28.13.28.28v39.73c0,.16-.13.28-.28.28Z"/><path d="M129.33,64.17h-9.4c-.16,0-.28-.13-.28-.28s.13-.28.28-.28h9.4c.16,0,.28.13.28.28s-.13.28-.28.28Z"/><path d="M123.14,59.43h-2.81s-.08-.04-.08-.08.04-.08.08-.08h2.81s.08.04.08.08-.04.08-.08.08Z"/><path d="M122.58,23.27h-2.25s-.08-.04-.08-.08.04-.08.08-.08h2.25s.08.04.08.08-.04.08-.08.08Z"/><path d="M119.93,159.81c-.16,0-.28-.13-.28-.28V63.88c0-.16.13-.28.28-.28s.28.13.28.28v95.65c0,.16-.13.28-.28.28Z"/><path d="M124.47,159.81c-.16,0-.28-.13-.28-.28v-91.15c0-.16.13-.28.28-.28s.28.13.28.28v91.15c0,.16-.13.28-.28.28Z"/><path d="M120.33,159.81c-.16,0-.28-.13-.28-.28v-95.29c0-.16.13-.28.28-.28s.28.13.28.28v95.29c0,.16-.13.28-.28.28Z"/><path d="M119.93,267.71H11.46s-.08-.04-.08-.08.04-.08.08-.08h108.46s.08.04.08.08-.04.08-.08.08Z"/><path d="M119.93,123.1H11.46s-.08-.04-.08-.08.04-.08.08-.08h108.46s.08.04.08.08-.04.08-.08.08Z"/><path d="M200.15,139.25s-.04,0-.06-.02c-5.21-5.01-8.13-12.02-8.02-19.24,0-.04.04-.08.08-.08h0s.08.04.08.08c-.11,7.18,2.8,14.15,7.97,19.12.03.03.03.08,0,.11-.02.02-.04.02-.06.02Z"/><path d="M219.39,120.08s-.04,0-.06-.02l-.76-.72s-.03-.08,0-.11c.03-.03.08-.04.11,0l.76.72s.03.08,0,.11c-.02.02-.04.03-.06.03Z"/><path d="M200.19,139.25s-.04,0-.06-.02l-.72-.72s-.03-.08,0-.11l19.16-19.16s.08-.03.11,0,.03.08,0,.11l-19.11,19.1.61.61,19.15-19.1s.08-.03.11,0,.03.08,0,.11l-19.2,19.16s-.04.02-.06.02Z"/><path d="M174.8,213.8h-.04c-.16,0-.28-.13-.28-.28s.13-.28.28-.28.3.13.3.28-.11.28-.26.28Z"/><path d="M174.76,213.1c-.16,0-.28-.11-.28-.26v-.04c0-.16.13-.28.28-.28s.3.13.3.28c0,.12-.07.23-.17.27-.04.02-.08.03-.13.03Z"/><path d="M175.81,213.8h-1c-.16,0-.28-.13-.28-.28s.13-.28.28-.28h1c.16,0,.28.13.28.28s-.13.28-.28.28Z"/><path d="M174.8,213.8c-.16,0-.28-.13-.28-.28v-.72c0-.16.13-.28.28-.28h1c.16,0,.28.13.28.28s-.13.28-.28.28h-.72v.44c0,.16-.13.28-.28.28Z"/><path d="M174.78,213.8c-.16,0-.28-.13-.28-.28s.13-.28.28-.28c.06,0,.1-.04.1-.1s-.04-.1-.1-.1c-.16,0-.28-.13-.28-.28s.13-.28.28-.28c.37,0,.66.3.66.66s-.3.66-.66.66Z"/><path d="M174.78,213.8c-.37,0-.66-.3-.66-.66s.3-.66.66-.66c.16,0,.28.13.28.28s-.13.28-.28.28c-.06,0-.1.04-.1.1s.04.1.1.1c.16,0,.28.13.28.28s-.13.28-.28.28Z"/><path d="M174.78,213.72c-.16,0-.28-.13-.28-.28s.13-.28.28-.28c.01,0,.02,0,.02-.02-.16,0-.29-.14-.29-.29s.12-.29.27-.29c.32,0,.58.26.58.58s-.26.58-.58.58Z"/><path d="M174.78,213.72c-.32,0-.58-.26-.58-.58s.26-.58.58-.58c.16,0,.28.13.28.28s-.13.28-.28.28c-.01,0-.02,0-.02.02.16,0,.29.14.29.29s-.12.29-.27.29Z"/><path d="M176.05,230.84h-.24c-.16,0-.28-.13-.28-.28v-18.28c0-.16.13-.28.28-.28h.24c.16,0,.28.13.28.28,0,.14-.1.26-.24.28v17.72c.14.02.24.14.24.28,0,.16-.13.28-.28.28Z"/><path d="M179.48,182.23c-.57,0-1.02-.46-1.02-1.02,0-.04.04-.08.08-.08s.08.04.08.08c0,.48.39.86.86.86.04,0,.08.04.08.08s-.04.08-.08.08Z"/><path d="M178.58,181.31s-.08-.04-.08-.08v-11.21s.04-.08.08-.08.08.04.08.08v11.21s-.04.08-.08.08Z"/><path d="M178.54,170.08s-.08-.04-.08-.08c0-.56.46-1.02,1.02-1.02.04,0,.08.04.08.08s-.04.08-.08.08c-.48,0-.86.39-.86.86,0,.04-.04.08-.08.08Z"/><path d="M188.98,169.17h-9.48s-.08-.04-.08-.08.04-.08.08-.08h9.48s.08.04.08.08-.04.08-.08.08Z"/><path d="M189.91,170.08s-.08-.04-.08-.08c0-.48-.39-.86-.86-.86-.04,0-.08-.04-.08-.08s.04-.08.08-.08c.57,0,1.02.46,1.02,1.02,0,.04-.04.08-.08.08Z"/><path d="M188.98,182.23h-9.48s-.08-.04-.08-.08.04-.08.08-.08h9.48s.08.04.08.08-.04.08-.08.08Z"/><path d="M188.96,182.23s-.08-.04-.08-.08.04-.08.08-.08c.48,0,.86-.39.86-.86,0-.04.04-.08.08-.08s.08.04.08.08c0,.56-.46,1.02-1.02,1.02Z"/><path d="M189.91,181.31s-.08-.04-.08-.08v-11.21s.04-.08.08-.08.08.04.08.08v11.21s-.04.08-.08.08Z"/><path d="M193.4,182.11s-.08-.04-.08-.08v-12.81s.04-.08.08-.08.08.04.08.08v12.81s-.04.08-.08.08Z"/><path d="M193.4,169.27s-.08-.04-.08-.08c0-.59-.48-1.06-1.06-1.06-.04,0-.08-.04-.08-.08s.04-.08.08-.08c.68,0,1.22.55,1.22,1.23,0,.04-.04.08-.08.08Z"/><path d="M192.28,168.17h-13.58s-.08-.04-.08-.08.04-.08.08-.08h13.58s.08.04.08.08-.04.08-.08.08Z"/><path d="M177.53,169.27s-.08-.04-.08-.08c0-.68.55-1.23,1.22-1.23.04,0,.08.04.08.08s-.04.08-.08.08c-.59,0-1.06.48-1.06,1.06,0,.04-.04.08-.08.08Z"/><path d="M225.26,243.77h-.12c-.16,0-.28-.13-.28-.28s.13-.28.28-.28h.12c.16,0,.28.13.28.28s-.13.28-.28.28Z"/><path d="M177.57,182.11s-.08-.04-.08-.08v-12.81s.04-.08.08-.08.08.04.08.08v12.81s-.04.08-.08.08Z"/><path d="M178.68,183.23c-.68,0-1.22-.55-1.22-1.23,0-.04.04-.08.08-.08s.08.04.08.08c0,.59.48,1.06,1.06,1.06.04,0,.08.04.08.08s-.04.08-.08.08Z"/><path d="M192.28,183.23h-13.58s-.08-.04-.08-.08.04-.08.08-.08h13.58s.08.04.08.08-.04.08-.08.08Z"/><path d="M192.26,183.23s-.08-.04-.08-.08.04-.08.08-.08c.59,0,1.06-.48,1.06-1.06,0-.04.04-.08.08-.08s.08.04.08.08c0,.68-.55,1.23-1.22,1.23Z"/><path d="M169.58,81.92l-1.01-.04-.61-.08-.69-.12-.41-.12-.44-.12-.93-.36-.97-.53-.48-.28-.45-.37-.4-.36-.41-.45-.33-.49-.25-.53-.2-.57-.16-.61-.04-.62.04-.65.08-.61.16-.61.24-.57.33-.49.41-.41.49-.33s.01,0,.02-.01l.56-.16.61-.08s.08.02.09.07c0,.04-.03.08-.07.09l-.6.08-.54.16-.47.31-.39.39-.31.47-.23.55-.16.59-.08.59-.04.64.04.59.16.59.2.56.24.52.31.47.4.43.4.36.44.36.47.27.96.52.92.36.43.12.4.12.67.12.6.08,1,.04h.48s.56-.04.56-.04l.6-.08.72-.16.88-.24.96-.36.96-.52.48-.28.79-.71.35-.43.27-.47.2-.51.16-.56.08-.59v-.63l-.04-.6-.16-.63-.2-.56-.28-.55-.35-.43-.4-.4-.51-.31-.54-.19-.59-.04s-.08-.04-.08-.09c0-.04.04-.08.08-.08,0,0,0,0,0,0l.6.04s.02,0,.02,0l.56.2.54.33.42.41.37.45.29.58.2.57.16.65.04.62v.65l-.08.61-.16.57-.2.53-.29.49-.37.45-.81.73-.5.29-.97.52-.97.37-.89.24-.73.16-.61.08-.57.04h-.49Z"/><path d="M158.97,136.04s-.04,0-.06-.02c-.03-.03-.03-.08,0-.11,4.33-4.13,6.75-9.93,6.64-15.92,0-.04.03-.08.08-.08h0s.08.04.08.08c.11,6.03-2.33,11.88-6.69,16.03-.02.01-.04.02-.06.02Z"/><path d="M169.58,72.88h-.24s-.04,0-.06-.02l-.02-.02s-.02,0-.04,0l-.08-.04s-.01,0-.02-.02l-.04-.04s-.02-.04-.02-.06v-.08s0-.04.02-.06l.04-.04s.01-.01.02-.02l.08-.04s.02,0,.04,0h0l.02-.02s.04-.02.06-.02h.24s.03,0,.04,0l.08.03s.04,0,.06.02l.03.02s.08.04.08.08v.16s-.04.08-.08.08h0l-.02.02s-.04.02-.06.02h-.02l-.06.03s-.02,0-.04,0ZM169.37,72.72h.19l.06-.03s.02,0,.04,0h0l.02-.02s0,0,.02-.01v-.02s-.01,0-.02-.01l-.03-.02s-.03,0-.04,0l-.08-.03h-.17l-.02.02s-.04.02-.06.02h-.02l-.06.05h0s.07.03.07.03c.02,0,.04,0,.06.02l.02.02Z"/><path d="M169.46,82.64l-1.29-.04-.65-.12-.69-.16-.69-.2-.73-.24-.73-.32-.73-.4-.73-.53-.37-.33-.33-.41-.32-.44-.29-.49-.25-.61-.2-.65-.16-.73-.16-.85-.08-.93-.04-1.05.04-1.17.08-1.25.16-1.41.24-1.53s.04-.07.08-.07c0,0,0,0,.01,0,.04,0,.07.05.07.09l-.24,1.53-.16,1.4-.08,1.24-.04,1.16.04,1.04.08.92.16.84.16.72.2.64.24.6.28.47.32.44.32.4.35.31.72.52.72.4.72.32.72.24.68.2.68.16.64.12,1.27.04,1.28-.04,1.31-.24.67-.2.67-.28.72-.32.76-.4.71-.55.36-.32.31-.39.32-.44.32-.52.24-.55.4-1.4.12-.83.08-.92.04-1.04-.04-1.12-.08-1.24-.2-1.4-.24-1.48s.02-.08.07-.09c.04-.01.08.02.09.07l.24,1.49.2,1.41.08,1.25.04,1.13-.04,1.05-.08.93-.12.85-.2.73-.2.68-.24.57-.33.53-.32.45-.32.4-.37.33-.73.57-.78.41-.73.32-.68.28-.69.2-1.33.24-1.3.04Z"/><path d="M143.03,120.08s-.04,0-.06-.02c-.03-.03-.03-.08,0-.11l.72-.72s.08-.03.11,0,.03.08,0,.11l-.72.72s-.04.02-.06.02Z"/><path d="M158.97,136.07h0s-.04,0-.06-.02l-15.95-15.99s-.03-.08,0-.11c.03-.03.08-.03.11,0l15.89,15.93.65-.65-15.93-15.89s-.03-.08,0-.11.08-.03.11,0l15.99,15.95s.02.04.02.06,0,.04-.02.06l-.76.76s-.04.02-.06.02Z"/><path d="M194.89,231.92h-18.84s-.08-.04-.08-.08v-72.31s.04-.08.08-.08h18.84s.08.04.08.08v72.31s-.04.08-.08.08ZM176.13,231.76h18.68v-72.15h-18.68v72.15Z"/><path d="M225.78,246.62c-.16,0-.28-.13-.28-.28v-97.62h-.56v97.62c0,.16-.13.28-.28.28s-.28-.13-.28-.28v-97.9c0-.16.13-.28.28-.28h1.12c.16,0,.28.13.28.28v97.9c0,.16-.13.28-.28.28Z"/><path d="M174,72.48h-9.24s-.08-.04-.08-.08.04-.08.08-.08h9.24s.08.04.08.08-.04.08-.08.08Z"/><path d="M169.48,75.37c-.39,0-.7-.32-.7-.7s.31-.7.7-.7.7.32.7.7-.32.7-.7.7ZM169.48,74.13c-.3,0-.54.24-.54.54s.24.54.54.54.54-.24.54-.54-.24-.54-.54-.54Z"/><path d="M142.18,75.98h-7.55s-.08-.04-.08-.08.04-.08.08-.08h7.55s.08.04.08.08-.04.08-.08.08Z"/><path d="M142.28,76.11s-.07-.03-.08-.07c-.09-.57.2-1.13.71-1.4.04-.02.09,0,.11.03.02.04,0,.09-.03.11-.45.23-.7.73-.62,1.23,0,.04-.02.08-.07.09,0,0,0,0-.01,0Z"/><path d="M142.9,74.79s-.07-.02-.08-.06c-.01-.04.02-.09.06-.1.32-.08.64-.17.95-.27.05-.01.09.01.1.05.01.04-.01.09-.05.1-.31.1-.63.19-.96.27,0,0-.01,0-.02,0Z"/><path d="M134.57,76.26s0,0-.01,0c-.04,0-.07-.05-.07-.09.1-.58-.21-1.14-.75-1.37-.04-.02-.06-.06-.04-.11.02-.04.07-.06.11-.04.61.26.95.89.84,1.54,0,.04-.04.07-.08.07Z"/><path d="M134.41,76.98s-.01,0-.02,0c-.04-.01-.07-.06-.06-.1.06-.24.12-.48.15-.71,0-.04.04-.08.09-.07.04,0,.07.05.07.09-.04.24-.09.48-.16.73,0,.04-.04.06-.08.06Z"/><path d="M134.08,77.76s-.03,0-.04-.01c-.04-.02-.05-.07-.03-.11.13-.24.24-.49.31-.76.01-.04.06-.07.1-.06.04.01.07.06.06.1-.07.28-.18.54-.32.79-.01.03-.04.04-.07.04Z"/><path d="M132.59,83.95s-.08-.03-.08-.08c-.08-2.17.44-4.33,1.5-6.22.02-.04.07-.05.11-.03.04.02.05.07.03.11-1.05,1.87-1.56,4-1.48,6.14,0,.04-.03.08-.08.08,0,0,0,0,0,0Z"/><path d="M133.41,88.2s-.06-.02-.08-.05c-.46-1.38-.73-2.81-.78-4.27,0-.04.03-.08.08-.08,0,0,0,0,0,0,.04,0,.08.03.08.08.05,1.44.32,2.86.78,4.22.01.04,0,.09-.05.1,0,0-.02,0-.03,0Z"/><path d="M135.27,91.23s-.04,0-.06-.02c-.85-.86-1.5-1.92-1.89-3.06-.01-.04,0-.09.05-.1.04-.01.09,0,.1.05.38,1.12,1.02,2.16,1.85,3,.03.03.03.08,0,.11-.02.02-.04.02-.06.02Z"/><path d="M136.65,92.18s-.02,0-.03,0c-.54-.23-1.02-.55-1.43-.97-.03-.03-.03-.08,0-.11s.08-.03.11,0c.4.4.86.71,1.38.93.04.02.06.06.04.11-.01.03-.04.05-.07.05Z"/><path d="M137.21,92.37s-.01,0-.02,0c-.19-.05-.38-.12-.56-.2-.04-.02-.06-.06-.04-.1.02-.04.07-.06.11-.04.17.07.36.14.54.19.04.01.07.06.06.1,0,.04-.04.06-.08.06Z"/><path d="M139.56,92.37s-.07-.02-.08-.06c-.01-.04.01-.09.06-.1.19-.05.37-.11.54-.19.04-.02.09,0,.11.04.02.04,0,.09-.04.11-.18.08-.37.14-.56.2,0,0-.01,0-.02,0Z"/><path d="M140.08,92.18s-.06-.02-.07-.05c-.02-.04,0-.09.04-.11.52-.22.98-.53,1.38-.93.03-.03.08-.03.11,0s.03.08,0,.11c-.41.41-.89.74-1.43.97,0,0-.02,0-.03,0Z"/><path d="M141.5,91.23s-.04,0-.06-.02c-.03-.03-.03-.08,0-.11.83-.84,1.47-1.88,1.85-3,.01-.04.06-.06.1-.05.04.01.06.06.05.1-.38,1.14-1.04,2.2-1.89,3.06-.02.02-.04.02-.06.02Z"/><path d="M143.36,88.2s-.02,0-.03,0c-.04-.01-.06-.06-.05-.1.46-1.36.72-2.79.78-4.22,0-.04.04-.08.08-.08,0,0,0,0,0,0,.04,0,.08.04.08.08-.05,1.45-.32,2.89-.78,4.27-.01.03-.04.05-.08.05Z"/><path d="M144.18,83.95s0,0,0,0c-.04,0-.08-.04-.08-.08.07-1.96-.35-3.93-1.24-5.68-.02-.04,0-.09.04-.11.04-.02.09,0,.11.04.89,1.78,1.33,3.77,1.25,5.76,0,.04-.04.08-.08.08Z"/><path d="M142.9,78.24s-.06-.02-.07-.04c-.34-.67-.57-1.39-.68-2.13,0-.04.02-.08.07-.09.05,0,.08.02.09.07.11.73.34,1.42.67,2.08.02.04,0,.09-.04.11-.01,0-.02,0-.04,0Z"/><path d="M133.75,74.97s-.02,0-.02,0l-1.89-.6s-.04-.02-.05-.04c0-.02-.01-.04,0-.06l.12-.36s.02-.04.04-.05c.02,0,.04-.01.06,0l.12.04s.06.06.05.1c-.01.04-.06.06-.1.05h-.04s-.07.19-.07.19l1.72.55.02-.11s.05-.08.09-.06c.04,0,.07.05.06.09l-.04.2s-.02.04-.04.05c-.01,0-.03.01-.04.01Z"/><path d="M138.34,75.38c-1.91,0-3.82-.3-5.67-.89-.04-.01-.07-.06-.05-.1.01-.04.06-.07.1-.05,3.65,1.17,7.51,1.18,11.16.03.04-.01.09.01.1.05.01.04,0,.09-.05.1-1.83.57-3.71.86-5.58.86Z"/><path d="M143.89,74.53s-.06-.02-.08-.06c-.01-.04,0-.09.05-.1.42-.14.74-.46.89-.87.01-.04.06-.06.1-.05.04.02.06.06.05.1-.17.46-.53.81-.99.97,0,0-.02,0-.03,0Z"/><path d="M144.82,73.6s-.02,0-.03,0c-.04-.02-.06-.06-.05-.1.38-1.05.57-2.16.57-3.28,0-.04.04-.08.08-.08s.08.04.08.08c0,1.14-.2,2.26-.58,3.34-.01.03-.04.05-.08.05Z"/><path d="M145.4,70.29s-.08-.04-.08-.08c0-.37-.3-.66-.66-.66-.04,0-.08-.04-.08-.08s.04-.08.08-.08c.45,0,.82.37.82.82,0,.04-.04.08-.08.08Z"/><path d="M144.67,69.55h-12.65s-.08-.04-.08-.08.04-.08.08-.08h12.65s.08.04.08.08-.04.08-.08.08Z"/><path d="M131.26,70.29s-.08-.04-.08-.08c0-.45.37-.82.82-.82.04,0,.08.04.08.08s-.04.08-.08.08c-.37,0-.66.3-.66.66,0,.04-.04.08-.08.08Z"/><path d="M131.83,73.6s-.06-.02-.08-.05c-.38-1.07-.58-2.19-.58-3.33,0-.04.04-.08.08-.08s.08.04.08.08c0,1.12.19,2.22.57,3.28.02.04,0,.09-.05.1,0,0-.02,0-.03,0Z"/><path d="M132.69,74.47s-.02,0-.03,0c-.43-.17-.76-.51-.91-.94-.02-.04,0-.09.05-.1.04-.02.09,0,.1.05.14.39.44.7.82.85.04.02.06.06.05.1-.01.03-.04.05-.08.05Z"/><path d="M132.7,84.02s-.08-.04-.08-.08c0-.84.06-1.7.19-2.54,0-.04.04-.08.09-.07.04,0,.07.05.07.09-.13.83-.2,1.67-.19,2.51,0,.04-.04.08-.08.08h0Z"/><path d="M134.22,89.87s-.05-.01-.07-.04c-1.01-1.79-1.56-3.82-1.57-5.87,0-.04.04-.08.08-.08h0s.08.04.08.08c.01,2.02.55,4.03,1.55,5.79.02.04,0,.09-.03.11-.01,0-.03.01-.04.01Z"/><path d="M136.8,92.2s-.02,0-.03,0c-1.1-.51-1.99-1.33-2.59-2.38-.02-.04,0-.09.03-.11.04-.02.09,0,.11.03.58,1.02,1.45,1.82,2.52,2.32.04.02.06.07.04.11-.01.03-.04.05-.07.05Z"/><path d="M138.39,92.53c-.55,0-1.1-.12-1.61-.36-.04-.02-.06-.07-.04-.11.02-.04.07-.06.11-.04.98.46,2.11.46,3.09,0,.04-.02.09,0,.11.04.02.04,0,.09-.04.11-.51.24-1.06.36-1.61.36Z"/><path d="M139.97,92.2s-.06-.02-.07-.05c-.02-.04,0-.09.04-.11,1.07-.49,1.94-1.3,2.52-2.32.02-.04.07-.05.11-.03.04.02.05.07.03.11-.6,1.05-1.49,1.88-2.59,2.38-.01,0-.02,0-.03,0Z"/><path d="M142.55,89.87s-.03,0-.04-.01c-.04-.02-.05-.07-.03-.11,1.25-2.2,1.76-4.69,1.48-7.2,0-.04.03-.08.07-.09.04,0,.08.03.09.07.28,2.54-.24,5.07-1.5,7.29-.02.03-.04.04-.07.04Z"/><path d="M144.03,82.64s-.08-.03-.08-.07l-.12-1.21s.03-.08.07-.09c.04,0,.08.03.09.07l.12,1.21s-.03.08-.07.09c0,0,0,0,0,0Z"/><path d="M143.85,81.43s-.08-.03-.08-.07c-.12-1.21-.88-2.28-1.97-2.8-.04-.02-.06-.07-.04-.11.02-.04.07-.06.11-.04,1.15.54,1.94,1.66,2.06,2.93,0,.04-.03.08-.07.09,0,0,0,0,0,0Z"/><path d="M141.84,78.54s-.02,0-.04,0c-.09-.04-.18-.06-.28-.06-.04,0-.08-.04-.08-.08s.04-.08.08-.08c.12,0,.24.03.35.08.04.02.06.07.04.11-.01.03-.04.05-.07.05Z"/><path d="M141.54,78.51h-6.31s-.08-.04-.08-.08.04-.08.08-.08h6.31s.08.04.08.08-.04.08-.08.08Z"/><path d="M134.89,78.54s-.06-.02-.07-.05c-.02-.04,0-.09.04-.11.11-.05.23-.08.35-.08.04,0,.08.04.08.08s-.04.08-.08.08c-.1,0-.2.02-.28.06-.01,0-.02,0-.03,0Z"/><path d="M132.87,81.51s0,0,0,0c-.04,0-.08-.04-.07-.09.1-1.3.89-2.45,2.07-3.01.04-.02.09,0,.11.04.02.04,0,.09-.04.11-1.12.53-1.88,1.64-1.98,2.88,0,.04-.04.07-.08.07Z"/><path d="M147.4,63.96h-18.08s-.08-.04-.08-.08.04-.08.08-.08h18.08s.08.04.08.08-.04.08-.08.08Z"/><path d="M147.4,68.87h-18.08s-.08-.04-.08-.08v-4.9s.04-.08.08-.08.08.04.08.08v4.82h17.92v-4.82s.04-.08.08-.08.08.04.08.08v4.9s-.04.08-.08.08Z"/><path d="M147.4,66.62h-18.08s-.08-.04-.08-.08.04-.08.08-.08h18.08s.08.04.08.08-.04.08-.08.08Z"/><path d="M147,65.29h-1.69s-.08-.04-.08-.08v-1.33s.04-.08.08-.08.08.04.08.08v1.25h1.53v-1.25s.04-.08.08-.08.08.04.08.08v1.33s-.04.08-.08.08Z"/><path d="M146.44,66.62s-.08-.04-.08-.08v-1.33s.04-.08.08-.08.08.04.08.08v1.33s-.04.08-.08.08Z"/><path d="M145.32,64.61h-13.94s-.08-.04-.08-.08.04-.08.08-.08h13.94s.08.04.08.08-.04.08-.08.08Z"/><path d="M131.38,65.29s-.08-.04-.08-.08v-1.33s.04-.08.08-.08.08.04.08.08v1.33s-.04.08-.08.08Z"/><path d="M129.69,65.29s-.08-.04-.08-.08v-1.33s.04-.08.08-.08.08.04.08.08v1.33s-.04.08-.08.08Z"/><path d="M130.25,66.62s-.08-.04-.08-.08v-1.33s.04-.08.08-.08.08.04.08.08v1.33s-.04.08-.08.08Z"/><path d="M131.38,65.29h-1.69s-.08-.04-.08-.08.04-.08.08-.08h1.69s.08.04.08.08-.04.08-.08.08Z"/><path d="M124.27,196.33h-2.25s-.08-.04-.08-.08.04-.08.08-.08h2.25s.08.04.08.08-.04.08-.08.08Z"/><path d="M123.14,230.23h-1.12s-.08-.04-.08-.08.04-.08.08-.08h1.12s.08.04.08.08-.04.08-.08.08Z"/><path d="M124.27,161.3h-1.12s-.08-.04-.08-.08.04-.08.08-.08h1.12s.08.04.08.08-.04.08-.08.08Z"/><path d="M122.02,231.36s-.08-.04-.08-.08v-36.15s.04-.08.08-.08h2.25s.08.04.08.08-.04.08-.08.08h-2.17v36.07s-.04.08-.08.08Z"/><path d="M123.14,231.36s-.08-.04-.08-.08v-71.18s.04-.08.08-.08.08.04.08.08v71.18s-.04.08-.08.08Z"/><path d="M124.27,196.33s-.08-.04-.08-.08v-36.15s.04-.08.08-.08.08.04.08.08v36.15s-.04.08-.08.08Z"/><path d="M124.83,159.61h-4.9s-.08-.04-.08-.08.04-.08.08-.08h4.9s.08.04.08.08-.04.08-.08.08Z"/><path d="M124.83,160.18h-4.9s-.08-.04-.08-.08.04-.08.08-.08h4.9s.08.04.08.08-.04.08-.08.08Z"/><path d="M124.83,231.92s-.08-.04-.08-.08v-72.31s.04-.08.08-.08.08.04.08.08v72.31s-.04.08-.08.08Z"/><path d="M124.83,231.36h-4.9s-.08-.04-.08-.08.04-.08.08-.08h4.9s.08.04.08.08-.04.08-.08.08Z"/><path d="M124.83,231.92h-4.9s-.08-.04-.08-.08v-72.31s.04-.08.08-.08.08.04.08.08v72.23h4.82s.08.04.08.08-.04.08-.08.08Z"/><path d="M119.93,231.36s-.08-.04-.08-.08v-71.18s.04-.08.08-.08.08.04.08.08v71.18s-.04.08-.08.08Z"/><path d="M5.44,62.84s-.08-.04-.08-.08V8.53s.04-.08.08-.08.08.04.08.08v54.23s-.04.08-.08.08Z"/><path d="M134.99,415.55h-15.06c-.16,0-.28-.13-.28-.28s.13-.28.28-.28h15.06c.16,0,.28.13.28.28s-.13.28-.28.28Z"/><path d="M134.99,410.64h-10.16c-.16,0-.28-.13-.28-.28s.13-.28.28-.28h10.16c.16,0,.28.13.28.28s-.13.28-.28.28Z"/><path d="M192.28,415.55h-30.17c-.16,0-.28-.13-.28-.28s.13-.28.28-.28h30.17c.16,0,.28.13.28.28s-.13.28-.28.28Z"/><path d="M192.28,410.64h-30.17c-.16,0-.28-.13-.28-.28s.13-.28.28-.28h30.17c.16,0,.28.13.28.28s-.13.28-.28.28Z"/><path d="M234.46,415.55h-15.06c-.16,0-.28-.13-.28-.28s.13-.28.28-.28h15.06c.16,0,.28.13.28.28s-.13.28-.28.28Z"/><path d="M226.9,410.64h-7.51c-.16,0-.28-.13-.28-.28s.13-.28.28-.28h7.51c.16,0,.28.13.28.28s-.13.28-.28.28Z"/><path d="M134.99,415.18h-14.66c-.16,0-.28-.13-.28-.28s.13-.28.28-.28h14.66c.16,0,.28.13.28.28s-.13.28-.28.28Z"/><path d="M228.43,415.18h-9.04c-.16,0-.28-.13-.28-.28s.13-.28.28-.28h9.04c.16,0,.28.13.28.28s-.13.28-.28.28Z"/><path d="M134.99,411.05h-10.52c-.16,0-.28-.13-.28-.28s.13-.28.28-.28h10.52c.16,0,.28.13.28.28s-.13.28-.28.28Z"/><path d="M228.43,411.05h-9.04c-.16,0-.28-.13-.28-.28s.13-.28.28-.28h9.04c.16,0,.28.13.28.28s-.13.28-.28.28Z"/><path d="M228.43,11.22h-105.49s-.08-.04-.08-.08.04-.08.08-.08h105.49s.08.04.08.08-.04.08-.08.08Z"/><path d="M228.43,8.97h-105.49s-.08-.04-.08-.08.04-.08.08-.08h105.49s.08.04.08.08-.04.08-.08.08Z"/><path d="M119.93,9.53H6.4s-.08-.04-.08-.08.04-.08.08-.08h113.52s.08.04.08.08-.04.08-.08.08Z"/><path d="M119.93,10.66H7.53s-.08-.04-.08-.08.04-.08.08-.08h112.4s.08.04.08.08-.04.08-.08.08Z"/><path d="M6.4,117.07s-.08-.04-.08-.08V9.45s.04-.08.08-.08.08.04.08.08v107.54s-.04.08-.08.08Z"/><path d="M6.4,267.71s-.08-.04-.08-.08V123.02s.04-.08.08-.08.08.04.08.08v144.62s-.04.08-.08.08Z"/><path d="M6.4,405.38s-.08-.04-.08-.08v-131.64s.04-.08.08-.08.08.04.08.08v131.64s-.04.08-.08.08Z"/><path d="M7.53,404.22s-.08-.04-.08-.08v-130.48s.04-.08.08-.08.08.04.08.08v130.48s-.04.08-.08.08Z"/><path d="M7.53,267.71s-.08-.04-.08-.08V123.02s.04-.08.08-.08.08.04.08.08v144.62s-.04.08-.08.08Z"/><path d="M7.53,117.07s-.08-.04-.08-.08V10.58s.04-.08.08-.08.08.04.08.08v106.41s-.04.08-.08.08Z"/><path d="M119.93,405.38H6.4s-.08-.04-.08-.08.04-.08.08-.08h113.52s.08.04.08.08-.04.08-.08.08Z"/><path d="M119.93,404.22H7.53s-.08-.04-.08-.08.04-.08.08-.08h112.4s.08.04.08.08-.04.08-.08.08Z"/><path d="M228.43,120.37c-.31,0-.56-.25-.56-.56V8.53c0-.31.25-.56.56-.56s.56.25.56.56v111.27c0,.31-.25.56-.56.56Z"/><path d="M226.9,410.64c-.16,0-.28-.13-.28-.28V120.2c0-.16.13-.28.28-.28s.28.13.28.28v290.16c0,.16-.13.28-.28.28Z"/><path d="M227.27,411.05c-.16,0-.28-.13-.28-.28V120.2c0-.16.13-.28.28-.28s.28.13.28.28v290.56c0,.16-.13.28-.28.28Z"/><path d="M228.43,415.55c-.16,0-.28-.13-.28-.28V119.8c0-.16.13-.28.28-.28s.28.13.28.28v295.46c0,.16-.13.28-.28.28Z"/><path d="M227.83,411.05c-.16,0-.28-.13-.28-.28V120.2c0-.16.13-.28.28-.28s.28.13.28.28v290.56c0,.16-.13.28-.28.28Z"/><path d="M162.11,410.44h-27.12s-.08-.04-.08-.08.04-.08.08-.08h27.12s.08.04.08.08-.04.08-.08.08Z"/><path d="M162.11,415.34h-27.12s-.08-.04-.08-.08v-4.9s.04-.08.08-.08.08.04.08.08v4.82h26.96v-4.82s.04-.08.08-.08.08.04.08.08v4.9s-.04.08-.08.08Z"/><path d="M163.63,415.34s-.08-.04-.08-.08v-4.9s.04-.08.08-.08.08.04.08.08v4.9s-.04.08-.08.08Z"/><path d="M160.06,415.34h-22.98s-.08-.04-.08-.08.04-.08.08-.08h22.98s.08.04.08.08-.04.08-.08.08Z"/><path d="M154.02,433.97s-.04,0-.06-.02c-.03-.03-.03-.08,0-.11,4.97-4.97,7.7-11.57,7.7-18.59,0-.04.04-.08.08-.08s.08.04.08.08c0,7.07-2.75,13.71-7.75,18.71-.02.02-.04.02-.06.02Z"/><path d="M161.18,412.69h-25.23s-.08-.04-.08-.08.04-.08.08-.08h25.23s.08.04.08.08-.04.08-.08.08Z"/><path d="M162.11,412.69h-27.12s-.08-.04-.08-.08.04-.08.08-.08h27.12s.08.04.08.08-.04.08-.08.08Z"/><path d="M154.03,433.98s-.04,0-.06-.02l-18.64-18.64s-.03-.08,0-.11.08-.03.11,0l18.64,18.64s.03.08,0,.11c-.02.02-.04.02-.06.02Z"/><path d="M161.75,415.34s-.08-.04-.08-.08v-1.25h-1.53v1.25s-.04.08-.08.08-.08-.04-.08-.08v-1.33s.04-.08.08-.08h1.69s.08.04.08.08v1.33s-.04.08-.08.08Z"/><path d="M161.18,414.02s-.08-.04-.08-.08v-1.33s.04-.08.08-.08.08.04.08.08v1.33s-.04.08-.08.08Z"/><path d="M160.06,414.7h-22.98s-.08-.04-.08-.08.04-.08.08-.08h22.98s.08.04.08.08-.04.08-.08.08Z"/><path d="M137.08,415.34s-.08-.04-.08-.08v-1.33s.04-.08.08-.08.08.04.08.08v1.33s-.04.08-.08.08Z"/><path d="M135.39,415.34s-.08-.04-.08-.08v-1.33s.04-.08.08-.08.08.04.08.08v1.33s-.04.08-.08.08Z"/><path d="M135.95,414.02s-.08-.04-.08-.08v-1.33s.04-.08.08-.08.08.04.08.08v1.33s-.04.08-.08.08Z"/><path d="M137.08,414.02h-1.69s-.08-.04-.08-.08.04-.08.08-.08h1.69s.08.04.08.08-.04.08-.08.08Z"/><path d="M219.39,415.34h-27.12s-.08-.04-.08-.08.04-.08.08-.08h27.12s.08.04.08.08-.04.08-.08.08Z"/><path d="M219.39,415.34s-.08-.04-.08-.08v-4.82h-26.96v4.82s-.04.08-.08.08-.08-.04-.08-.08v-4.9s.04-.08.08-.08h27.12s.08.04.08.08v4.9s-.04.08-.08.08Z"/><path d="M190.75,415.34s-.08-.04-.08-.08v-4.9s.04-.08.08-.08.08.04.08.08v4.9s-.04.08-.08.08Z"/><path d="M200.32,433.97s-.04,0-.06-.02c-5-5-7.75-11.64-7.75-18.71,0-.04.04-.08.08-.08s.08.04.08.08c0,7.02,2.74,13.63,7.7,18.59.03.03.03.08,0,.11-.02.02-.04.02-.06.02Z"/><path d="M218.43,412.69h-25.23s-.08-.04-.08-.08.04-.08.08-.08h25.23s.08.04.08.08-.04.08-.08.08Z"/><path d="M219.39,412.69h-27.12s-.08-.04-.08-.08.04-.08.08-.08h27.12s.08.04.08.08-.04.08-.08.08Z"/><path d="M200.35,433.98s-.04,0-.06-.02c-.03-.03-.03-.08,0-.11l18.64-18.64s.08-.03.11,0,.03.08,0,.11l-18.64,18.64s-.04.02-.06.02Z"/><path d="M194.32,415.34s-.08-.04-.08-.08v-1.33s.04-.08.08-.08.08.04.08.08v1.33s-.04.08-.08.08Z"/><path d="M192.64,415.34s-.08-.04-.08-.08v-1.33s.04-.08.08-.08.08.04.08.08v1.33s-.04.08-.08.08Z"/><path d="M193.2,414.02s-.08-.04-.08-.08v-1.33s.04-.08.08-.08.08.04.08.08v1.33s-.04.08-.08.08Z"/><path d="M194.32,414.02h-1.69s-.08-.04-.08-.08.04-.08.08-.08h1.69s.08.04.08.08-.04.08-.08.08Z"/><path d="M217.3,414.7h-22.98s-.08-.04-.08-.08.04-.08.08-.08h22.98s.08.04.08.08-.04.08-.08.08Z"/><path d="M218.99,415.34s-.08-.04-.08-.08v-1.25h-1.53v1.25s-.04.08-.08.08-.08-.04-.08-.08v-1.33s.04-.08.08-.08h1.69s.08.04.08.08v1.33s-.04.08-.08.08Z"/><path d="M218.43,414.02s-.08-.04-.08-.08v-1.33s.04-.08.08-.08.08.04.08.08v1.33s-.04.08-.08.08Z"/><path d="M11.46,274.22h-6.03c-.31,0-.56-.25-.56-.56v-6.03c0-.31.25-.56.56-.56h6.03c.31,0,.56.25.56.56v6.03c0,.31-.25.56-.56.56ZM6,273.1h4.9v-4.9h-4.9v4.9Z"/><path d="M11.46,123.58h-6.03c-.31,0-.56-.25-.56-.56v-6.03c0-.31.25-.56.56-.56h6.03c.31,0,.56.25.56.56v6.03c0,.31-.25.56-.56.56ZM6,122.45h4.9v-4.9h-4.9v4.9Z"/><path d="M119.93,273.74H11.46s-.08-.04-.08-.08.04-.08.08-.08h108.46s.08.04.08.08-.04.08-.08.08Z"/><path d="M119.93,117.07H11.46s-.08-.04-.08-.08.04-.08.08-.08h108.46s.08.04.08.08-.04.08-.08.08Z"/><path d="M11.46,267.71s-.08-.04-.08-.08V123.02s.04-.08.08-.08.08.04.08.08v144.62s-.04.08-.08.08Z"/><path d="M191.61,173.59c-.56,0-1.02-.46-1.02-1.02s.46-1.02,1.02-1.02,1.02.46,1.02,1.02-.46,1.02-1.02,1.02ZM191.61,172.11c-.25,0-.46.21-.46.46s.21.46.46.46.46-.21.46-.46-.21-.46-.46-.46Z"/><path d="M191.61,176.61c-.56,0-1.02-.46-1.02-1.02s.46-1.02,1.02-1.02,1.02.46,1.02,1.02-.46,1.02-1.02,1.02ZM191.61,175.12c-.25,0-.46.21-.46.46s.21.46.46.46.46-.21.46-.46-.21-.46-.46-.46Z"/><path d="M191.61,179.62c-.56,0-1.02-.46-1.02-1.02s.46-1.02,1.02-1.02,1.02.46,1.02,1.02-.46,1.02-1.02,1.02ZM191.61,178.13c-.25,0-.46.21-.46.46s.21.46.46.46.46-.21.46-.46-.21-.46-.46-.46Z"/><path d="M226.9,148.73h-28.6c-.16,0-.28-.13-.28-.28s.13-.28.28-.28h28.6c.16,0,.28.13.28.28s-.13.28-.28.28Z"/><path d="M226.9,156.24h-1.12c-.16,0-.28-.13-.28-.28s.13-.28.28-.28h1.12c.16,0,.28.13.28.28s-.13.28-.28.28Z"/><path d="M224.65,156.24h-26.35c-.16,0-.28-.13-.28-.28s.13-.28.28-.28h26.35c.16,0,.28.13.28.28s-.13.28-.28.28Z"/><path d="M119.93,273.94H5.44c-.16,0-.28-.13-.28-.28s.13-.28.28-.28h114.49c.16,0,.28.13.28.28s-.13.28-.28.28Z"/><path d="M190.75,412.69h-27.12s-.08-.04-.08-.08.04-.08.08-.08h27.12s.08.04.08.08-.04.08-.08.08Z"/><path d="M190.39,415.34s-.08-.04-.08-.08v-1.25h-1.57v1.25s-.04.08-.08.08-.08-.04-.08-.08v-1.33s.04-.08.08-.08h1.73s.08.04.08.08v1.33s-.04.08-.08.08Z"/><path d="M189.82,414.02s-.08-.04-.08-.08v-1.33s.04-.08.08-.08.08.04.08.08v1.33s-.04.08-.08.08Z"/><path d="M188.66,414.7h-22.94s-.08-.04-.08-.08.04-.08.08-.08h22.94s.08.04.08.08-.04.08-.08.08Z"/><path d="M165.72,415.34s-.08-.04-.08-.08v-1.33s.04-.08.08-.08.08.04.08.08v1.33s-.04.08-.08.08Z"/><path d="M163.99,415.34s-.08-.04-.08-.08v-1.33s.04-.08.08-.08.08.04.08.08v1.33s-.04.08-.08.08Z"/><path d="M164.56,414.02s-.08-.04-.08-.08v-1.33s.04-.08.08-.08.08.04.08.08v1.33s-.04.08-.08.08Z"/><path d="M165.72,414.02h-1.73s-.08-.04-.08-.08.04-.08.08-.08h1.73s.08.04.08.08-.04.08-.08.08Z"/><path d="M15.96,406.51h-6.03c-.16,0-.28-.13-.28-.28v-3.01c0-.16.13-.28.28-.28h6.03c.16,0,.28.13.28.28v3.01c0,.16-.13.28-.28.28ZM10.22,405.94h5.46v-2.45h-5.46v2.45Z"/><path d="M15.2,404.42c-.16,0-.28-.13-.28-.28V14.83c0-.16.13-.28.28-.28s.28.13.28.28v389.3c0,.16-.13.28-.28.28Z"/><path d="M10.66,403.49c-.16,0-.28-.13-.28-.28V14.83c0-.16.13-.28.28-.28s.28.13.28.28v388.38c0,.16-.13.28-.28.28Z"/><path d="M12.93,17.37c-1.41,0-2.55-1.14-2.55-2.55s1.14-2.55,2.55-2.55,2.55,1.14,2.55,2.55-1.14,2.55-2.55,2.55ZM12.93,12.83c-1.1,0-1.99.89-1.99,1.99s.89,1.99,1.99,1.99,1.99-.89,1.99-1.99-.89-1.99-1.99-1.99Z"/><path d="M169.44,71.4c-.25,0-.46-.21-.46-.46s.21-.46.46-.46.46.21.46.46-.21.46-.46.46ZM169.44,70.63c-.17,0-.3.14-.3.3s.14.3.3.3.3-.14.3-.3-.14-.3-.3-.3Z"/><path d="M184.18,176.77c-.68,0-1.23-.55-1.23-1.23s.55-1.23,1.23-1.23,1.22.55,1.22,1.23-.55,1.23-1.22,1.23ZM184.18,174.48c-.59,0-1.07.48-1.07,1.06s.48,1.06,1.07,1.06,1.06-.48,1.06-1.06-.48-1.06-1.06-1.06Z"/><path d="M119.93,117.27H5.44c-.16,0-.28-.13-.28-.28s.13-.28.28-.28h114.49c.16,0,.28.13.28.28s-.13.28-.28.28Z"/><line class="cls-1" x1="222.2" y1="114.74" x2="221.92" y2="111.89"/><line class="cls-1" x1="222.12" y1="111.89" x2="222.4" y2="114.74"/><line class="cls-1" x1="221.44" y1="114.74" x2="221.72" y2="111.89"/><line class="cls-1" x1="221.92" y1="111.89" x2="221.64" y2="114.74"/><line class="cls-1" x1="221.24" y1="114.74" x2="220.96" y2="111.89"/><line class="cls-1" x1="221.16" y1="111.89" x2="221.44" y2="114.74"/><line class="cls-1" x1="220.48" y1="114.74" x2="220.76" y2="111.89"/><line class="cls-1" x1="220.96" y1="111.89" x2="220.68" y2="114.74"/><line class="cls-1" x1="220.28" y1="114.74" x2="219.99" y2="111.89"/><line class="cls-1" x1="220.19" y1="111.89" x2="220.48" y2="114.74"/><line class="cls-1" x1="219.51" y1="114.74" x2="219.79" y2="111.89"/><line class="cls-1" x1="219.99" y1="111.89" x2="219.71" y2="114.74"/><line class="cls-1" x1="219.31" y1="114.74" x2="219.03" y2="111.89"/><line class="cls-1" x1="219.23" y1="111.89" x2="219.51" y2="114.74"/><line class="cls-1" x1="218.55" y1="114.74" x2="218.83" y2="111.89"/><line class="cls-1" x1="219.03" y1="111.89" x2="218.71" y2="114.74"/><line class="cls-1" x1="223.05" y1="113.25" x2="223.25" y2="113.3"/><line class="cls-1" x1="223.25" y1="113.3" x2="222.61" y2="114.78"/><line class="cls-1" x1="222.61" y1="114.78" x2="222.4" y2="114.74"/><line class="cls-1" x1="222.4" y1="114.74" x2="223.05" y2="113.25"/><line class="cls-1" x1="218.35" y1="114.78" x2="218.55" y2="114.74"/><line class="cls-1" x1="218.55" y1="114.74" x2="218.07" y2="113.25"/><line class="cls-1" x1="218.07" y1="113.25" x2="217.91" y2="113.3"/><line class="cls-1" x1="217.91" y1="113.3" x2="218.35" y2="114.78"/><path d="M189.82,115.18c-.05,0-.11-.02-.16-.05-.13-.09-.16-.26-.07-.39l29.73-43.87c.09-.13.26-.16.39-.08.13.09.16.26.07.39l-29.73,43.87c-.05.08-.14.12-.23.12Z"/><path d="M219.55,115.18c-.09,0-.18-.04-.23-.12l-29.73-43.87c-.09-.13-.05-.3.07-.39.13-.09.3-.05.39.08l29.73,43.87c.09.13.05.3-.07.39-.05.03-.1.05-.16.05Z"/><path class="cls-1" d="M222.97,104.36c0-.12-.1-.22-.22-.22s-.22.1-.22.22.1.22.22.22.22-.1.22-.22"/><path class="cls-1" d="M222.97,85.52c0-.12-.1-.22-.22-.22s-.22.1-.22.22.1.22.22.22.22-.1.22-.22"/><path class="cls-1" d="M227.47,104.36c0-.12-.1-.22-.22-.22s-.22.1-.22.22.1.22.22.22.22-.1.22-.22"/><path class="cls-1" d="M227.47,85.52c0-.12-.1-.22-.22-.22s-.22.1-.22.22.1.22.22.22.22-.1.22-.22"/><path d="M234.46,8.81h-6.03c-.16,0-.28-.13-.28-.28s.13-.28.28-.28h6.03c.16,0,.28.13.28.28s-.13.28-.28.28Z"/><path d="M193.88,211.43s-.08-.04-.08-.08v-12.05s.04-.08.08-.08.08.04.08.08v12.05s-.04.08-.08.08Z"/><path d="M175.81,211.63h-.6c-.16,0-.28-.13-.28-.28v-12.05c0-.16.13-.28.28-.28h.6c.16,0,.28.13.28.28v12.05c0,.16-.13.28-.28.28ZM175.48,211.07h.04v-11.49h-.04v11.49Z"/><path d="M119.93,73.73h-3.74c-.16,0-.28-.13-.28-.28s.13-.28.28-.28h3.74c.16,0,.28.13.28.28s-.13.28-.28.28Z"/><path d="M116.19,75.21c-.16,0-.28-.13-.28-.28v-3.01c0-.16.13-.28.28-.28s.28.13.28.28v3.01c0,.16-.13.28-.28.28Z"/><path d="M120.33,23.27s-.08-.04-.08-.08v-11.65s.04-.08.08-.08.08.04.08.08v11.65s-.04.08-.08.08Z"/><path d="M122.58,23.27s-.08-.04-.08-.08v-11.65s.04-.08.08-.08.08.04.08.08v11.65s-.04.08-.08.08Z"/><path d="M123.14,63.96s-.08-.04-.08-.08v-4.54s.04-.08.08-.08.08.04.08.08v4.54s-.04.08-.08.08Z"/><path d="M120.33,63.96s-.08-.04-.08-.08v-4.54s.04-.08.08-.08.08.04.08.08v4.54s-.04.08-.08.08Z"/><path d="M120.33,59.43s-.04,0-.06-.02l-25.59-25.55s-.02-.04-.02-.06,0-.04.02-.06l.8-.8s.08-.03.11,0l25.59,25.59s.02.04.02.06c0,.02,0,.04-.02.06l-.8.76s-.04.02-.06.02ZM94.85,33.8l25.48,25.44.69-.65-25.47-25.47-.69.69Z"/><path d="M94.73,33.86s-.04,0-.06-.02c-.03-.03-.03-.08,0-.11,7.02-6.75,16.25-10.52,25.99-10.61h0s.08.04.08.08c0,.04-.04.08-.08.08-9.7.09-18.89,3.84-25.88,10.57-.02.01-.04.02-.06.02Z"/><path d="M122.94,11.82h-3.01c-.16,0-.28-.13-.28-.28v-3.01c0-.16.13-.28.28-.28h3.01c.16,0,.28.13.28.28v3.01c0,.16-.13.28-.28.28ZM120.21,11.26h2.45v-2.45h-2.45v2.45Z"/><path d="M122.58,11.82h-2.25c-.16,0-.28-.13-.28-.28s.13-.28.28-.28h2.25c.16,0,.28.13.28.28s-.13.28-.28.28Z"/><path d="M195.29,49.1c-.16,0-.28-.13-.28-.28v-16.59c0-.16.13-.28.28-.28s.28.13.28.28v16.59c0,.16-.13.28-.28.28Z"/><path d="M196.75,50.59c-.99,0-1.79-.8-1.79-1.79,0-.16.13-.28.28-.28s.28.13.28.28c0,.68.55,1.23,1.22,1.23.16,0,.28.13.28.28s-.13.28-.28.28Z"/><path d="M213.37,50.59h-16.59c-.16,0-.28-.13-.28-.28s.13-.28.28-.28h16.59c.16,0,.28.13.28.28s-.13.28-.28.28Z"/><path d="M213.35,50.59c-.16,0-.28-.13-.28-.28s.13-.28.28-.28c.68,0,1.23-.55,1.23-1.23,0-.16.13-.28.28-.28s.28.13.28.28c0,.99-.8,1.79-1.79,1.79Z"/><path d="M214.85,49.1c-.16,0-.28-.13-.28-.28v-16.59c0-.16.13-.28.28-.28s.28.13.28.28v16.59c0,.16-.13.28-.28.28Z"/><path d="M214.85,32.49c-.16,0-.28-.13-.28-.28,0-.68-.55-1.23-1.23-1.23-.16,0-.28-.13-.28-.28s.13-.28.28-.28c.99,0,1.79.8,1.79,1.79,0,.16-.13.28-.28.28Z"/><path d="M213.37,31.02h-16.59c-.16,0-.28-.13-.28-.28s.13-.28.28-.28h16.59c.16,0,.28.13.28.28s-.13.28-.28.28Z"/><path d="M195.25,32.49c-.16,0-.28-.13-.28-.28,0-.99.8-1.79,1.79-1.79.16,0,.28.13.28.28s-.13.28-.28.28c-.67,0-1.22.55-1.22,1.23,0,.16-.13.28-.28.28Z"/><path d="M205.03,42.31c-.99,0-1.79-.8-1.79-1.79,0-.16.13-.28.28-.28s.28.13.28.28c0,.68.55,1.23,1.22,1.23s1.23-.55,1.23-1.23c0-.16.13-.28.28-.28s.28.13.28.28c0,.99-.8,1.79-1.79,1.79Z"/><path d="M206.54,40.81c-.16,0-.28-.13-.28-.28,0-.68-.55-1.23-1.23-1.23s-1.22.55-1.22,1.23c0,.16-.13.28-.28.28s-.28-.13-.28-.28c0-.99.8-1.79,1.79-1.79s1.79.8,1.79,1.79c0,.16-.13.28-.28.28Z"/><path d="M205.03,41.75c-.67,0-1.22-.55-1.22-1.23,0-.16.13-.28.28-.28s.28.13.28.28c0,.37.3.66.66.66s.66-.3.66-.66c0-.16.13-.28.28-.28s.28.13.28.28c0,.68-.55,1.23-1.23,1.23Z"/><path d="M205.97,40.81c-.16,0-.28-.13-.28-.28,0-.37-.3-.66-.66-.66s-.66.3-.66.66c0,.16-.13.28-.28.28s-.28-.13-.28-.28c0-.68.55-1.23,1.22-1.23s1.23.55,1.23,1.23c0,.16-.13.28-.28.28Z"/><path d="M195.25,32.49c-.16,0-.28-.13-.28-.28,0-.99.8-1.79,1.79-1.79.16,0,.28.13.28.28s-.13.28-.28.28c-.67,0-1.22.55-1.22,1.23,0,.16-.13.28-.28.28Z"/><path d="M196.75,50.59c-.99,0-1.79-.8-1.79-1.79,0-.16.13-.28.28-.28s.28.13.28.28c0,.68.55,1.23,1.22,1.23.16,0,.28.13.28.28s-.13.28-.28.28Z"/><path d="M213.35,50.59c-.16,0-.28-.13-.28-.28s.13-.28.28-.28c.68,0,1.23-.55,1.23-1.23,0-.16.13-.28.28-.28s.28.13.28.28c0,.99-.8,1.79-1.79,1.79Z"/><path d="M214.85,32.49c-.16,0-.28-.13-.28-.28,0-.68-.55-1.23-1.23-1.23-.16,0-.28-.13-.28-.28s.13-.28.28-.28c.99,0,1.79.8,1.79,1.79,0,.16-.13.28-.28.28Z"/><path d="M214.85,49.1c-.16,0-.28-.13-.28-.28v-16.59c0-.16.13-.28.28-.28s.28.13.28.28v16.59c0,.16-.13.28-.28.28Z"/><path d="M213.37,31.02h-16.59c-.16,0-.28-.13-.28-.28s.13-.28.28-.28h16.59c.16,0,.28.13.28.28s-.13.28-.28.28Z"/><path d="M195.29,49.1c-.16,0-.28-.13-.28-.28v-16.59c0-.16.13-.28.28-.28s.28.13.28.28v16.59c0,.16-.13.28-.28.28Z"/><path d="M213.37,50.59h-16.59c-.16,0-.28-.13-.28-.28s.13-.28.28-.28h16.59c.16,0,.28.13.28.28s-.13.28-.28.28Z"/><path d="M205.03,49.86c-5.15,0-9.34-4.19-9.34-9.34s4.19-9.34,9.34-9.34,9.34,4.19,9.34,9.34-4.19,9.34-9.34,9.34ZM205.03,31.75c-4.84,0-8.78,3.94-8.78,8.78s3.94,8.78,8.78,8.78,8.78-3.94,8.78-8.78-3.94-8.78-8.78-8.78Z"/><path d="M205.03,49.1c-4.73,0-8.58-3.85-8.58-8.58s3.85-8.58,8.58-8.58,8.58,3.85,8.58,8.58-3.85,8.58-8.58,8.58ZM205.03,32.51c-4.42,0-8.01,3.6-8.01,8.01s3.59,8.01,8.01,8.01,8.01-3.6,8.01-8.01-3.6-8.01-8.01-8.01Z"/><path d="M157.61,48.58c-.16,0-.28-.13-.28-.28v-16.55c0-.16.13-.28.28-.28s.28.13.28.28v16.55c0,.16-.13.28-.28.28Z"/><path d="M159.07,50.06c-.99,0-1.79-.8-1.79-1.79,0-.16.13-.28.28-.28s.28.13.28.28c0,.68.55,1.23,1.23,1.23.16,0,.28.13.28.28s-.13.28-.28.28Z"/><path d="M175.69,50.11h-16.59c-.16,0-.28-.13-.28-.28s.13-.28.28-.28h16.59c.16,0,.28.13.28.28s-.13.28-.28.28Z"/><path d="M175.66,50.06c-.16,0-.28-.13-.28-.28s.13-.28.28-.28c.68,0,1.23-.55,1.23-1.23,0-.16.13-.28.28-.28s.28.13.28.28c0,.99-.8,1.79-1.79,1.79Z"/><path d="M177.21,48.58c-.16,0-.28-.13-.28-.28v-16.55c0-.16.13-.28.28-.28s.28.13.28.28v16.55c0,.16-.13.28-.28.28Z"/><path d="M177.17,32.01c-.16,0-.28-.13-.28-.28,0-.68-.55-1.23-1.23-1.23-.16,0-.28-.13-.28-.28s.13-.28.28-.28c.99,0,1.79.8,1.79,1.79,0,.16-.13.28-.28.28Z"/><path d="M175.69,30.5h-16.59c-.16,0-.28-.13-.28-.28s.13-.28.28-.28h16.59c.16,0,.28.13.28.28s-.13.28-.28.28Z"/><path d="M157.57,32.01c-.16,0-.28-.13-.28-.28,0-.99.8-1.79,1.79-1.79.16,0,.28.13.28.28s-.13.28-.28.28c-.68,0-1.23.55-1.23,1.23,0,.16-.13.28-.28.28Z"/><path d="M167.39,41.79c-.99,0-1.79-.8-1.79-1.79,0-.16.13-.28.28-.28s.28.13.28.28c0,.68.55,1.23,1.22,1.23s1.23-.55,1.23-1.23c0-.16.13-.28.28-.28s.28.13.28.28c0,.99-.8,1.79-1.79,1.79Z"/><path d="M168.9,40.28c-.16,0-.28-.13-.28-.28,0-.68-.55-1.23-1.23-1.23s-1.22.55-1.22,1.23c0,.16-.13.28-.28.28s-.28-.13-.28-.28c0-.99.8-1.79,1.79-1.79s1.79.8,1.79,1.79c0,.16-.13.28-.28.28Z"/><path d="M167.39,41.23c-.68,0-1.23-.55-1.23-1.23,0-.16.13-.28.28-.28s.28.13.28.28c0,.37.3.66.66.66s.66-.3.66-.66c0-.16.13-.28.28-.28s.28.13.28.28c0,.68-.55,1.23-1.23,1.23Z"/><path d="M168.33,40.28c-.16,0-.28-.13-.28-.28,0-.37-.3-.66-.66-.66s-.66.3-.66.66c0,.16-.13.28-.28.28s-.28-.13-.28-.28c0-.68.55-1.23,1.23-1.23s1.23.55,1.23,1.23c0,.16-.13.28-.28.28Z"/><path d="M157.57,32.01c-.16,0-.28-.13-.28-.28,0-.99.8-1.79,1.79-1.79.16,0,.28.13.28.28s-.13.28-.28.28c-.68,0-1.23.55-1.23,1.23,0,.16-.13.28-.28.28Z"/><path d="M159.07,50.06c-.99,0-1.79-.8-1.79-1.79,0-.16.13-.28.28-.28s.28.13.28.28c0,.68.55,1.23,1.23,1.23.16,0,.28.13.28.28s-.13.28-.28.28Z"/><path d="M175.66,50.06c-.16,0-.28-.13-.28-.28s.13-.28.28-.28c.68,0,1.23-.55,1.23-1.23,0-.16.13-.28.28-.28s.28.13.28.28c0,.99-.8,1.79-1.79,1.79Z"/><path d="M177.17,32.01c-.16,0-.28-.13-.28-.28,0-.68-.55-1.23-1.23-1.23-.16,0-.28-.13-.28-.28s.13-.28.28-.28c.99,0,1.79.8,1.79,1.79,0,.16-.13.28-.28.28Z"/><path d="M177.21,48.58c-.16,0-.28-.13-.28-.28v-16.55c0-.16.13-.28.28-.28s.28.13.28.28v16.55c0,.16-.13.28-.28.28Z"/><path d="M175.69,30.5h-16.59c-.16,0-.28-.13-.28-.28s.13-.28.28-.28h16.59c.16,0,.28.13.28.28s-.13.28-.28.28Z"/><path d="M157.61,48.58c-.16,0-.28-.13-.28-.28v-16.55c0-.16.13-.28.28-.28s.28.13.28.28v16.55c0,.16-.13.28-.28.28Z"/><path d="M175.69,50.11h-16.59c-.16,0-.28-.13-.28-.28s.13-.28.28-.28h16.59c.16,0,.28.13.28.28s-.13.28-.28.28Z"/><path d="M167.39,49.34c-5.15,0-9.34-4.19-9.34-9.34s4.19-9.34,9.34-9.34,9.34,4.19,9.34,9.34-4.19,9.34-9.34,9.34ZM167.39,31.22c-4.84,0-8.78,3.94-8.78,8.78s3.94,8.78,8.78,8.78,8.78-3.94,8.78-8.78-3.94-8.78-8.78-8.78Z"/><path d="M167.39,48.58c-4.73,0-8.58-3.85-8.58-8.58s3.85-8.58,8.58-8.58,8.58,3.85,8.58,8.58-3.85,8.58-8.58,8.58ZM167.39,31.99c-4.42,0-8.01,3.6-8.01,8.01s3.59,8.01,8.01,8.01,8.01-3.6,8.01-8.01-3.6-8.01-8.01-8.01Z"/><path d="M145.07,50.71h-12.05c-.16,0-.28-.13-.28-.28v-24.1c0-.16.13-.28.28-.28h12.05c.16,0,.28.13.28.28v24.1c0,.16-.13.28-.28.28ZM133.3,50.15h11.49v-23.54h-11.49v23.54Z"/><path d="M145.07,47.07s-.06,0-.09-.01c-.15-.05-.23-.21-.18-.36,1.75-5.2,1.75-10.92,0-16.12-.05-.15.03-.31.18-.36.15-.05.31.03.36.18,1.78,5.31,1.78,11.16,0,16.48-.04.12-.15.19-.27.19Z"/><path d="M133.87,276.19h-9.04c-.16,0-.28-.13-.28-.28v-27.12c0-.16.13-.28.28-.28h9.04c.16,0,.28.13.28.28v27.12c0,.16-.13.28-.28.28ZM125.11,275.63h8.48v-26.55h-8.48v26.55Z"/><path d="M172.43,30.06h-.2c-.1,0-.19-.06-.22-.15-.04-.09-.02-.19.05-.26l.2-.2s.11-.07.17-.07h.2c.1,0,.19.06.22.15s.02.19-.05.26l-.2.2s-.11.07-.17.07Z"/><path d="M138.8,88.21c-.07,0-.15-.03-.19-.1-.08-.11-.06-.26.05-.34.64-.47.98-1.26.9-2.05-.08-.79-.58-1.49-1.3-1.83-.12-.06-.17-.2-.12-.32.06-.12.2-.17.32-.12.87.41,1.47,1.26,1.57,2.21.1.96-.32,1.91-1.09,2.49-.04.03-.09.05-.14.05Z"/><path d="M138.39,83.94s-.07,0-.1-.02c-.9-.42-1.43-1.36-1.32-2.35.11-.98.83-1.79,1.8-2,.14-.03.26.05.29.18.03.13-.05.26-.18.29-.77.17-1.34.8-1.43,1.58-.09.78.33,1.53,1.04,1.86.12.06.17.2.12.32-.04.09-.13.14-.22.14Z"/><path d="M138.83,88.23c-2.4,0-4.36-1.96-4.36-4.36s1.96-4.36,4.36-4.36,4.36,1.96,4.36,4.36-1.96,4.36-4.36,4.36ZM138.83,79.99c-2.14,0-3.88,1.74-3.88,3.88s1.74,3.88,3.88,3.88,3.88-1.74,3.88-3.88-1.74-3.88-3.88-3.88Z"/><path d="M134.71,275.49c-.1,0-.18-.08-.18-.18v-2.01c0-.1.08-.18.18-.18s.18.08.18.18v2.01c0,.1-.08.18-.18.18Z"/><path d="M134.91,275.49c-.1,0-.18-.08-.18-.18v-2.01c0-.1.08-.18.18-.18s.18.08.18.18v2.01c0,.1-.08.18-.18.18Z"/><path d="M135.11,263.84c-.06,0-.13-.03-.16-.1l-.32-.6s-.02-.06-.02-.08v-.6c0-.1.08-.18.18-.18s.18.08.18.18v.56l.3.56c.05.09.01.2-.07.24-.03.01-.06.02-.08.02Z"/><path d="M105.27,455.67l-1.87-3.3h-.8v3.3h-1.7v-8.46h3.17c.65,0,1.21.11,1.67.35s.81.54,1.04.93c.23.39.35.83.35,1.31,0,.56-.16,1.06-.48,1.51-.32.45-.8.76-1.44.93l2.02,3.43h-1.96ZM102.6,451.1h1.42c.46,0,.8-.11,1.03-.33.23-.22.34-.53.34-.93s-.11-.69-.34-.9c-.23-.21-.57-.32-1.03-.32h-1.42v2.48Z"/><path d="M109.9,455.35c-.52-.29-.92-.69-1.22-1.22-.29-.52-.44-1.13-.44-1.82s.15-1.29.45-1.82.72-.93,1.24-1.22c.52-.29,1.11-.43,1.76-.43s1.23.14,1.76.43c.52.29.94.69,1.24,1.22s.45,1.13.45,1.82-.16,1.29-.47,1.82c-.31.52-.73.93-1.26,1.22-.53.29-1.12.43-1.78.43s-1.23-.14-1.75-.43ZM112.52,454.08c.27-.15.49-.37.65-.67.16-.3.24-.66.24-1.09,0-.64-.17-1.13-.5-1.47s-.75-.51-1.23-.51-.89.17-1.22.51-.49.83-.49,1.47.16,1.13.48,1.47c.32.34.72.51,1.21.51.31,0,.6-.07.87-.22Z"/><path d="M117.63,455.35c-.52-.29-.92-.69-1.22-1.22-.29-.52-.44-1.13-.44-1.82s.15-1.29.45-1.82.72-.93,1.24-1.22c.52-.29,1.11-.43,1.76-.43s1.23.14,1.76.43c.52.29.94.69,1.24,1.22s.45,1.13.45,1.82-.16,1.29-.47,1.82c-.31.52-.73.93-1.26,1.22-.53.29-1.12.43-1.78.43s-1.23-.14-1.75-.43ZM120.25,454.08c.27-.15.49-.37.65-.67.16-.3.24-.66.24-1.09,0-.64-.17-1.13-.5-1.47s-.75-.51-1.23-.51-.89.17-1.22.51-.49.83-.49,1.47.16,1.13.48,1.47c.32.34.72.51,1.21.51.31,0,.6-.07.87-.22Z"/><path d="M127.21,450.35h-1.17v5.32h-1.72v-5.32h-.76v-1.39h.76v-.34c0-.82.23-1.43.7-1.82.47-.39,1.17-.57,2.12-.55v1.43c-.41,0-.7.06-.86.21-.16.15-.24.41-.24.79v.28h1.17v1.39Z"/><path d="M130.28,450.35v3.25c0,.23.05.39.16.49.11.1.29.15.55.15h.79v1.43h-1.07c-1.43,0-2.14-.69-2.14-2.08v-3.23h-.8v-1.39h.8v-1.66h1.71v1.66h1.5v1.39h-1.5Z"/><path d="M134.24,455.35c-.52-.29-.92-.69-1.22-1.22-.29-.52-.44-1.13-.44-1.82s.15-1.29.45-1.82.72-.93,1.24-1.22c.52-.29,1.11-.43,1.76-.43s1.23.14,1.76.43c.52.29.94.69,1.24,1.22s.45,1.13.45,1.82-.16,1.29-.47,1.82c-.31.52-.73.93-1.26,1.22-.53.29-1.12.43-1.78.43s-1.23-.14-1.75-.43ZM136.86,454.08c.27-.15.49-.37.65-.67.16-.3.24-.66.24-1.09,0-.64-.17-1.13-.5-1.47s-.75-.51-1.23-.51-.89.17-1.22.51-.49.83-.49,1.47.16,1.13.48,1.47c.32.34.72.51,1.21.51.31,0,.6-.07.87-.22Z"/><path d="M143.34,449.16c.38-.21.82-.31,1.31-.31.57,0,1.09.14,1.56.42.46.28.83.68,1.1,1.21.27.52.41,1.12.41,1.81s-.13,1.29-.41,1.82c-.27.53-.64.94-1.1,1.23-.46.29-.98.44-1.56.44-.49,0-.93-.1-1.3-.3-.38-.2-.68-.46-.92-.76v4.16h-1.7v-9.91h1.7v.97c.22-.31.52-.56.9-.77ZM145.74,451.24c-.17-.29-.38-.52-.65-.67s-.56-.23-.88-.23-.6.08-.87.24c-.27.16-.49.39-.65.68-.17.3-.25.65-.25,1.05s.08.76.25,1.05c.17.3.38.53.65.68.27.16.56.24.87.24s.61-.08.88-.24.49-.39.65-.69c.17-.3.25-.65.25-1.07s-.08-.75-.25-1.05Z"/></svg>