<?xml version="1.0" encoding="UTF-8"?><svg id="Layer_1" xmlns="http://www.w3.org/2000/svg" width="246.12" height="458.87" viewBox="0 0 246.12 458.87"><defs><style>.cls-1{fill:none;stroke:#000;stroke-linecap:round;stroke-linejoin:round;}</style></defs><path d="M101.79,456.52h2.79v1.34h-4.48v-8.46h1.7v7.11Z"/><path d="M111.84,455.01h-4.91c.04.48.21.86.51,1.14.3.27.67.41,1.1.41.63,0,1.08-.27,1.34-.81h1.83c-.19.65-.57,1.18-1.12,1.59-.55.42-1.22.62-2.02.62-.65,0-1.23-.14-1.74-.43-.51-.29-.91-.69-1.2-1.22-.29-.52-.43-1.13-.43-1.82s.14-1.3.42-1.83c.28-.52.68-.93,1.19-1.21.51-.28,1.09-.42,1.76-.42s1.21.14,1.71.41c.5.27.9.66,1.17,1.17.28.5.42,1.08.42,1.74,0,.24-.02.46-.05.65ZM110.14,453.87c0-.44-.17-.79-.47-1.05-.31-.26-.68-.39-1.13-.39-.42,0-.77.13-1.06.38-.29.25-.46.61-.53,1.06h3.19Z"/><path d="M115.93,456.3l1.7-5.15h1.8l-2.48,6.71h-2.06l-2.47-6.71h1.82l1.7,5.15Z"/><path d="M126.58,455.01h-4.91c.04.48.21.86.51,1.14.3.27.67.41,1.1.41.63,0,1.08-.27,1.34-.81h1.83c-.19.65-.57,1.18-1.12,1.59-.55.42-1.22.62-2.02.62-.65,0-1.23-.14-1.74-.43-.51-.29-.91-.69-1.2-1.22-.29-.52-.43-1.13-.43-1.82s.14-1.3.42-1.83c.28-.52.68-.93,1.19-1.21.51-.28,1.09-.42,1.76-.42s1.21.14,1.71.41c.5.27.9.66,1.17,1.17.28.5.42,1.08.42,1.74,0,.24-.02.46-.05.65ZM124.87,453.87c0-.44-.17-.79-.47-1.05-.31-.26-.68-.39-1.13-.39-.42,0-.77.13-1.06.38-.29.25-.46.61-.53,1.06h3.19Z"/><path d="M129.56,448.89v8.97h-1.7v-8.97h1.7Z"/><path d="M133.71,450.59v-1.56h2.92v8.83h-1.75v-7.27h-1.17Z"/><rect x="7.27" y="12.7" width="6.01" height="387.61"/><rect x="7.27" y="117.1" width="76.65" height="6.03"/><rect x="138.14" y="117.1" width="52.34" height="6.03"/><rect x="7.41" y="11.81" width="11.77" height="5.7"/><rect x="184.93" y="370.45" width="11.49" height="6.06" transform="translate(564.15 182.8) rotate(90)"/><rect x="186.36" y="392.97" width="8.62" height="6.06" transform="translate(586.68 205.33) rotate(90)"/><rect x="179.18" y="355.71" width="21.45" height="4.53" transform="translate(547.88 168.06) rotate(90)"/><rect x="172.78" y="394.05" width="20.47" height="6.25"/><rect x="187.68" y="367.57" width="9.19" height="5.49"/><rect x="7.6" y="394.05" width="20.47" height="6.25"/><rect x="184.08" y="65.88" width="52.34" height="6.03"/><rect x="184.46" y="65.88" width="6.17" height="51.98"/><rect x="230.38" y="11.65" width="5.87" height="388.95"/><rect x="188.04" y="168.44" width="4.14" height="151.65"/><rect x="192.17" y="168.44" width="6.01" height="3.86"/><rect x="224.56" y="168.44" width="6.01" height="3.86"/><path d="M197.64,172.86h-5.1c-.31,0-.56-.25-.56-.56s.25-.56.56-.56h4.54v-2.29h-9.4c-.31,0-.56-.25-.56-.56s.25-.56.56-.56h9.96c.31,0,.56.25.56.56v3.41c0,.31-.25.56-.56.56Z"/><path d="M230.22,172.86h-5.46c-.31,0-.56-.25-.56-.56s.25-.56.56-.56h5.46c.31,0,.56.25.56.56s-.25.56-.56.56Z"/><path d="M230.22,172.68c-.21,0-.38-.17-.38-.38v-100.39c0-.21.17-.38.38-.38s.38.17.38.38v100.39c0,.21-.17.38-.38.38Z"/><path d="M224.75,172.86c-.31,0-.56-.25-.56-.56v-3.41c0-.31.25-.56.56-.56h5.46c.31,0,.56.25.56.56s-.25.56-.56.56h-4.9v2.85c0,.31-.25.56-.56.56Z"/><path d="M230.22,172.02h-5.46c-.07,0-.12-.05-.12-.12s.05-.12.12-.12h5.46c.07,0,.12.05.12.12s-.05.12-.12.12Z"/><path d="M197.64,172.02h-5.46c-.07,0-.12-.05-.12-.12s.05-.12.12-.12h5.46c.07,0,.12.05.12.12s-.05.12-.12.12Z"/><path d="M230.22,169.41h-5.46c-.07,0-.12-.05-.12-.12s.05-.12.12-.12h5.46c.07,0,.12.05.12.12s-.05.12-.12.12Z"/><path d="M197.64,169.41h-9.6c-.07,0-.12-.05-.12-.12s.05-.12.12-.12h9.6c.07,0,.12.05.12.12s-.05.12-.12.12Z"/><path d="M227.57,245.93s-.05-.01-.07-.04c-.02-.04,0-.09.03-.11l1.17-.68s.09,0,.11.03c.02.04,0,.09-.03.11l-1.17.68s-.03.01-.04.01Z"/><path d="M228.73,249.03h-1.17s-.08-.04-.08-.08.04-.08.08-.08h1.17s.08.04.08.08-.04.08-.08.08Z"/><path d="M226.44,249.03h-3.78s-.08-.04-.08-.08.04-.08.08-.08h3.78s.08.04.08.08-.04.08-.08.08Z"/><path d="M210.61,256.54h-1.41s-.08-.04-.08-.08.04-.08.08-.08h1.41s.08.04.08.08-.04.08-.08.08Z"/><path d="M212.06,256.54h-1.45s-.08-.04-.08-.08.04-.08.08-.08h1.45s.08.04.08.08-.04.08-.08.08Z"/><path d="M228.73,256.54h-1.17s-.08-.04-.08-.08.04-.08.08-.08h1.17s.08.04.08.08-.04.08-.08.08Z"/><path d="M226.44,256.54h-14.38s-.08-.04-.08-.08.04-.08.08-.08h14.38s.08.04.08.08-.04.08-.08.08Z"/><path d="M228.73,264.09h-1.17s-.08-.04-.08-.08.04-.08.08-.08h1.17s.08.04.08.08-.04.08-.08.08Z"/><path d="M226.44,264.09h-27.88s-.08-.04-.08-.08.04-.08.08-.08h27.88s.08.04.08.08-.04.08-.08.08Z"/><path d="M228.73,271.6h-1.17s-.08-.04-.08-.08.04-.08.08-.08h1.17s.08.04.08.08-.04.08-.08.08Z"/><path d="M226.44,271.6h-33.91s-.08-.04-.08-.08.04-.08.08-.08h33.91s.08.04.08.08-.04.08-.08.08Z"/><path d="M228.73,279.15h-1.17s-.08-.04-.08-.08.04-.08.08-.08h1.17s.08.04.08.08-.04.08-.08.08Z"/><path d="M226.44,279.15h-33.91s-.08-.04-.08-.08.04-.08.08-.08h33.91s.08.04.08.08-.04.08-.08.08Z"/><path d="M228.73,286.67h-1.17s-.08-.04-.08-.08.04-.08.08-.08h1.17s.08.04.08.08-.04.08-.08.08Z"/><path d="M226.44,286.67h-33.91s-.08-.04-.08-.08.04-.08.08-.08h33.91s.08.04.08.08-.04.08-.08.08Z"/><path d="M228.73,294.22h-1.17s-.08-.04-.08-.08.04-.08.08-.08h1.17s.08.04.08.08-.04.08-.08.08Z"/><path d="M226.44,294.22h-33.91s-.08-.04-.08-.08.04-.08.08-.08h33.91s.08.04.08.08-.04.08-.08.08Z"/><path d="M228.73,301.73h-1.17s-.08-.04-.08-.08.04-.08.08-.08h1.17s.08.04.08.08-.04.08-.08.08Z"/><path d="M226.44,301.73h-33.91s-.08-.04-.08-.08.04-.08.08-.08h33.91s.08.04.08.08-.04.08-.08.08Z"/><path d="M192.54,267.83s-.08-.04-.08-.08v-94.12s.04-.08.08-.08.08.04.08.08v94.12s-.04.08-.08.08Z"/><path d="M192.54,366.25c-.31,0-.56-.25-.56-.56v-17.92h-4.3c-.31,0-.56-.25-.56-.56s.25-.56.56-.56h4.86c.31,0,.56.25.56.56v18.48c0,.31-.25.56-.56.56Z"/><path d="M187.68,368.13c-.31,0-.56-.25-.56-.56v-30.53c0-.31.25-.56.56-.56s.56.25.56.56v30.53c0,.31-.25.56-.56.56Z"/><path d="M192.54,320.61c-.31,0-.56-.25-.56-.56v-147.75c0-.31.25-.56.56-.56s.56.25.56.56v147.75c0,.31-.25.56-.56.56Z"/><path d="M192.54,320.65h-4.86c-.31,0-.56-.25-.56-.56v-151.21c0-.31.25-.56.56-.56s.56.25.56.56v150.64h4.3c.31,0,.56.25.56.56s-.25.56-.56.56Z"/><path d="M192.17,366.73c-.07,0-.12-.05-.12-.12v-19.4c0-.07.05-.12.12-.12s.12.05.12.12v19.4c0,.07-.05.12-.12.12Z"/><path d="M192.17,320.21c-.07,0-.12-.05-.12-.12v-147.79c0-.07.05-.12.12-.12s.12.05.12.12v147.79c0,.07-.05.12-.12.12Z"/><path d="M188.04,172.02c-.07,0-.12-.05-.12-.12v-2.61c0-.07.05-.12.12-.12s.12.05.12.12v2.61c0,.07-.05.12-.12.12Z"/><path d="M192.17,172.42c-.07,0-.12-.05-.12-.12v-.4c0-.07.05-.12.12-.12s.12.05.12.12v.4c0,.07-.05.12-.12.12Z"/><path d="M188.04,320.21c-.07,0-.12-.05-.12-.12v-148.19c0-.07.05-.12.12-.12s.12.05.12.12v148.19c0,.07-.05.12-.12.12Z"/><path d="M188.04,367.29c-.07,0-.12-.05-.12-.12v-19.97c0-.07.05-.12.12-.12s.12.05.12.12v19.97c0,.07-.05.12-.12.12Z"/><path d="M230.22,400.69h-37.68c-.21,0-.38-.17-.38-.38s.17-.38.38-.38h37.68c.21,0,.38.17.38.38s-.17.38-.38.38Z"/><path d="M224.75,169.37h-27.12s-.08-.04-.08-.08.04-.08.08-.08h27.12s.08.04.08.08-.04.08-.08.08Z"/><path d="M190.49,123.51c-.21,0-.38-.17-.38-.38v-51.22c0-.21.17-.38.38-.38h39.73c.21,0,.38.17.38.38s-.17.38-.38.38h-39.35v50.84c0,.21-.17.38-.38.38Z"/><path d="M230.22,66.27h-45.76c-.21,0-.38-.17-.38-.38s.17-.38.38-.38h45.76c.21,0,.38.17.38.38s-.17.38-.38.38Z"/><path d="M184.46,72.47c-.31,0-.56-.25-.56-.56v-6.03c0-.31.25-.56.56-.56s.56.25.56.56v6.03c0,.31-.25.56-.56.56Z"/><path d="M194.06,123.25h-3.58c-.07,0-.12-.05-.12-.12v-3.37c0-.07.05-.12.12-.12h3.58c.07,0,.12.05.12.12v3.37c0,.07-.05.12-.12.12ZM190.61,123.01h3.33v-3.13h-3.33v3.13Z"/><path d="M230.22,123.25h-9.04c-.07,0-.12-.05-.12-.12v-3.37c0-.07.05-.12.12-.12h9.04c.07,0,.12.05.12.12v3.37c0,.07-.05.12-.12.12ZM221.3,123.01h8.8v-3.13h-8.8v3.13Z"/><path d="M194.06,122.89h-3.58c-.07,0-.12-.05-.12-.12s.05-.12.12-.12h3.58c.07,0,.12.05.12.12s-.05.12-.12.12Z"/><path d="M230.22,122.89h-9.04c-.07,0-.12-.05-.12-.12s.05-.12.12-.12h9.04c.07,0,.12.05.12.12s-.05.12-.12.12Z"/><path d="M194.06,120.24h-3.58c-.07,0-.12-.05-.12-.12s.05-.12.12-.12h3.58c.07,0,.12.05.12.12s-.05.12-.12.12Z"/><path d="M230.22,120.24h-9.04c-.07,0-.12-.05-.12-.12s.05-.12.12-.12h9.04c.07,0,.12.05.12.12s-.05.12-.12.12Z"/><path d="M197.56,169.14c-.15,0-.28-.12-.28-.28-.11-7.28,2.83-14.35,8.08-19.39.11-.11.29-.1.4,0,.11.11.1.29,0,.4-5.14,4.94-8.02,11.85-7.91,18.98,0,.16-.12.28-.28.29h0Z"/><path d="M224.03,169.93c-.07,0-.14-.03-.19-.08-.11-.11-.12-.28-.01-.4l.72-.76c.11-.11.28-.12.4-.01.11.11.12.28.01.4l-.72.76c-.06.06-.13.09-.2.09Z"/><path d="M224.03,169.93c-.07,0-.14-.03-.2-.08l-19.16-19.2c-.11-.11-.11-.29,0-.4l.72-.72c.11-.11.29-.11.4,0l19.16,19.16c.11.11.11.29,0,.4-.11.11-.29.11-.4,0l-18.96-18.96-.33.33,18.96,19c.11.11.11.29,0,.4-.05.05-.13.08-.2.08Z"/><path d="M226.44,301.73s-.08-.04-.08-.08v-7.79s.04-.08.08-.08.08.04.08.08v7.79s-.04.08-.08.08Z"/><path d="M227.57,301.73s-.08-.04-.08-.08v-7.79s.04-.08.08-.08.08.04.08.08v7.79s-.04.08-.08.08Z"/><path d="M227.08,294.86h-.16s-.08-.04-.08-.08.04-.08.08-.08h.16s.08.04.08.08-.04.08-.08.08Z"/><path d="M227.08,301.73h-.12s-.08-.04-.08-.08.04-.08.08-.08h.12s.08.04.08.08-.04.08-.08.08Z"/><path d="M227.57,301.73h-1.12s-.08-.04-.08-.08.04-.08.08-.08h1.12s.08.04.08.08-.04.08-.08.08Z"/><path d="M226.44,246.66s-.05-.01-.07-.04c-.02-.04-.01-.09.02-.11l1.12-.72s.09-.01.11.02c.02.04.01.09-.02.11l-1.12.72s-.03.01-.04.01Z"/><path d="M227.57,301.73s-.08-.04-.08-.08v-127.95h-.96v127.95s-.04.08-.08.08-.08-.04-.08-.08v-128.03s.04-.08.08-.08h1.12s.08.04.08.08v128.03s-.04.08-.08.08Z"/><path d="M192.54,347.49c-.07,0-.14-.03-.2-.08l-.72-.72c-.11-.11-.11-.29,0-.4.11-.11.29-.11.4,0l.72.72c.11.11.11.29,0,.4-.06.06-.13.08-.2.08Z"/><path d="M221.18,123.41c-.07,0-.14-.03-.2-.08l-.72-.72c-.11-.11-.11-.29,0-.4.11-.11.29-.11.4,0l.72.72c.11.11.11.29,0,.4-.06.06-.13.08-.2.08Z"/><path d="M202.02,142.61c-.07,0-.15-.03-.2-.08l-.76-.76c-.05-.05-.08-.12-.08-.2s.03-.15.08-.2l19.2-19.16c.11-.11.29-.11.4,0,.11.11.11.29,0,.4l-19,18.96.37.37,18.96-19c.11-.11.29-.11.4,0,.11.11.11.29,0,.4l-19.16,19.2c-.05.05-.12.08-.2.08h0Z"/><path d="M13.29,394.67c-.21,0-.38-.17-.38-.38V123.13c0-.21.17-.38.38-.38s.38.17.38.38v271.16c0,.21-.17.38-.38.38Z"/><path d="M13.29,117.48c-.21,0-.38-.17-.38-.38V17.68c0-.21.17-.38.38-.38s.38.17.38.38v99.42c0,.21-.17.38-.38.38Z"/><path d="M7.27,400.69c-.21,0-.38-.17-.38-.38V11.65c0-.21.17-.38.38-.38h222.95c.21,0,.38.17.38.38s-.17.38-.38.38H7.65v388.28c0,.21-.17.38-.38.38Z"/><path d="M19.32,18.06c-.21,0-.38-.17-.38-.38v-6.03c0-.21.17-.38.38-.38s.38.17.38.38v6.03c0,.21-.17.38-.38.38Z"/><path d="M236.24,99.41c-.21,0-.38-.17-.38-.38V12.03h-5.64c-.21,0-.38-.17-.38-.38s.17-.38.38-.38h6.03c.21,0,.38.17.38.38v87.37c0,.21-.17.38-.38.38Z"/><path d="M172.97,400.69H28.36c-.21,0-.38-.17-.38-.38s.17-.38.38-.38h144.62c.21,0,.38.17.38.38s-.17.38-.38.38Z"/><path d="M230.22,400.72c-.21,0-.38-.17-.38-.38v-27.15c0-.21.17-.38.38-.38s.38.17.38.38v27.15c0,.21-.17.38-.38.38Z"/><path d="M230.22,373.58h-36.52c-.21,0-.38-.17-.38-.38s.17-.38.38-.38h36.52c.21,0,.38.17.38.38s-.17.38-.38.38Z"/><path d="M197.08,365.8h-4.54c-.07,0-.12-.05-.12-.12s.05-.12.12-.12h4.54c.07,0,.12.05.12.12s-.05.12-.12.12Z"/><path d="M228.73,365.8h-1.53c-.07,0-.12-.05-.12-.12s.05-.12.12-.12h1.53c.07,0,.12.05.12.12s-.05.12-.12.12Z"/><path d="M230.22,367.29h-3.01c-.07,0-.12-.05-.12-.12s.05-.12.12-.12h3.01c.07,0,.12.05.12.12s-.05.12-.12.12Z"/><path d="M197.08,367.29h-9.04c-.07,0-.12-.05-.12-.12s.05-.12.12-.12h9.04c.07,0,.12.05.12.12s-.05.12-.12.12Z"/><path d="M229.09,366.17h-1.89c-.07,0-.12-.05-.12-.12s.05-.12.12-.12h1.89c.07,0,.12.05.12.12s-.05.12-.12.12Z"/><path d="M197.08,366.17h-4.9c-.07,0-.12-.05-.12-.12s.05-.12.12-.12h4.9c.07,0,.12.05.12.12s-.05.12-.12.12Z"/><path d="M229.65,366.73h-2.45c-.07,0-.12-.05-.12-.12s.05-.12.12-.12h2.45c.07,0,.12.05.12.12s-.05.12-.12.12Z"/><path d="M197.08,366.73h-4.9c-.07,0-.12-.05-.12-.12s.05-.12.12-.12h4.9c.07,0,.12.05.12.12s-.05.12-.12.12Z"/><path d="M198.56,367.99c-.16,0-.28-.13-.28-.28,0-14.39,11.7-26.09,26.09-26.09.16,0,.28.13.28.28s-.13.28-.28.28c-14.08,0-25.53,11.45-25.53,25.53,0,.16-.13.28-.28.28Z"/><path d="M227.2,373.58c-.21,0-.38-.17-.38-.38v-7.51c0-.21.17-.38.38-.38s.38.17.38.38v7.51c0,.21-.17.38-.38.38Z"/><path d="M197.08,373.58c-.21,0-.38-.17-.38-.38v-7.51c0-.21.17-.38.38-.38s.38.17.38.38v7.51c0,.21-.17.38-.38.38Z"/><path d="M225.68,369.14h-1.29s-.08-.04-.08-.08v-27.12s.04-.08.08-.08h1.29s.08.04.08.08v27.12s-.04.08-.08.08ZM224.47,368.98h1.12v-26.95h-1.12v26.95Z"/><path d="M198.56,371.91h-1.49c-.16,0-.28-.13-.28-.28v-3.9c0-.16.13-.28.28-.28h1.49c.16,0,.28.13.28.28v1.04h.2c.16,0,.28.13.28.28v1.53c0,.16-.13.28-.28.28h-.2v.76c0,.16-.13.28-.28.28ZM197.36,371.35h.92v-.76c0-.16.13-.28.28-.28h.2v-.96h-.2c-.16,0-.28-.13-.28-.28v-1.04h-.92v3.33Z"/><path d="M225.68,370.66h-.44s-.08-.04-.08-.08.04-.08.08-.08h.44s.08.04.08.08-.04.08-.08.08Z"/><path d="M225.68,371.91c-.16,0-.28-.13-.28-.28v-1.04c0-.16.13-.28.28-.28s.28.13.28.28v1.04c0,.16-.13.28-.28.28Z"/><path d="M227.2,371.71h-1.53s-.08-.04-.08-.08.04-.08.08-.08h1.53s.08.04.08.08-.04.08-.08.08Z"/><path d="M227.2,371.91c-.16,0-.28-.13-.28-.28v-3.62h-1.25c-.16,0-.28-.13-.28-.28s.13-.28.28-.28h1.53c.16,0,.28.13.28.28v3.9c0,.16-.13.28-.28.28Z"/><path d="M225.24,370.66s-.08-.04-.08-.08v-1.53s.04-.08.08-.08.08.04.08.08v1.53s-.04.08-.08.08Z"/><path d="M28.36,400.69c-.21,0-.38-.17-.38-.38v-5.64h-14.68c-.21,0-.38-.17-.38-.38s.17-.38.38-.38h15.06c.21,0,.38.17.38.38v6.03c0,.21-.17.38-.38.38Z"/><path d="M172.97,400.69c-.21,0-.38-.17-.38-.38v-6.03c0-.21.17-.38.38-.38h14.7c.21,0,.38.17.38.38s-.17.38-.38.38h-14.32v5.64c0,.21-.17.38-.38.38Z"/><path d="M172.97,394.57H28.36c-.16,0-.28-.13-.28-.28v-1.12c0-.16.13-.28.28-.28h144.62c.16,0,.28.13.28.28v1.12c0,.16-.13.28-.28.28ZM28.64,394h144.05v-.56H28.64v.56Z"/><path d="M187.68,394.67c-.21,0-.38-.17-.38-.38v-26.71c0-.21.17-.38.38-.38s.38.17.38.38v26.71c0,.21-.17.38-.38.38Z"/><path d="M193.7,400.69c-.21,0-.38-.17-.38-.38v-27.12c0-.21.17-.38.38-.38s.38.17.38.38v27.12c0,.21-.17.38-.38.38Z"/><path d="M230.22,172.46h-1.49c-.31,0-.56-.25-.56-.56s.25-.56.56-.56h1.49c.31,0,.56.25.56.56s-.25.56-.56.56Z"/><path d="M228.73,365.8c-.07,0-.12-.05-.12-.12v-193.79c0-.07.05-.12.12-.12s.12.05.12.12v193.79c0,.07-.05.12-.12.12Z"/><path d="M230.22,367.29c-.07,0-.12-.05-.12-.12v-195.27c0-.07.05-.12.12-.12s.12.05.12.12v195.27c0,.07-.05.12-.12.12Z"/><path d="M229.09,366.17c-.07,0-.12-.05-.12-.12v-194.15c0-.07.05-.12.12-.12s.12.05.12.12v194.15c0,.07-.05.12-.12.12Z"/><path d="M229.65,366.73c-.07,0-.12-.05-.12-.12v-194.71c0-.07.05-.12.12-.12s.12.05.12.12v194.71c0,.07-.05.12-.12.12Z"/><path d="M230.22,66.27c-.21,0-.38-.17-.38-.38V11.65c0-.21.17-.38.38-.38s.38.17.38.38v54.23c0,.21-.17.38-.38.38Z"/><path d="M221.18,120.6h-27.12c-.16,0-.28-.13-.28-.28s.13-.28.28-.28h27.12c.16,0,.28.13.28.28s-.13.28-.28.28Z"/><path d="M192.54,400.69H7.27c-.21,0-.38-.17-.38-.38s.17-.38.38-.38h185.27c.21,0,.38.17.38.38s-.17.38-.38.38Z"/><path d="M82.59,123.51H13.29c-.21,0-.38-.17-.38-.38s.17-.38.38-.38h69.3c.21,0,.38.17.38.38s-.17.38-.38.38Z"/><path d="M190.49,123.51h-50.86c-.21,0-.38-.17-.38-.38s.17-.38.38-.38h50.86c.21,0,.38.17.38.38s-.17.38-.38.38Z"/><path d="M83.91,123.41h-1.33c-.16,0-.28-.13-.28-.28v-6.03c0-.16.13-.28.28-.28h1.33c.16,0,.28.13.28.28v6.03c0,.16-.13.28-.28.28ZM82.87,122.85h.76v-5.46h-.76v5.46Z"/><path d="M82.59,117.48H13.29c-.21,0-.38-.17-.38-.38s.17-.38.38-.38h69.3c.21,0,.38.17.38.38s-.17.38-.38.38Z"/><path d="M184.46,117.48h-44.83c-.21,0-.38-.17-.38-.38s.17-.38.38-.38h44.45v-50.84c0-.21.17-.38.38-.38s.38.17.38.38v51.22c0,.21-.17.38-.38.38Z"/><path d="M62.98,123.51c-.21,0-.38-.17-.38-.38v-6.03c0-.21.17-.38.38-.38s.38.17.38.38v6.03c0,.21-.17.38-.38.38Z"/><path d="M75.03,123.51c-.21,0-.38-.17-.38-.38v-6.03c0-.21.17-.38.38-.38s.38.17.38.38v6.03c0,.21-.17.38-.38.38Z"/><path d="M62.98,123.41c-.1,0-.2-.06-.25-.16-.07-.14-.01-.31.13-.38l4.7-2.33c.14-.07.31-.01.38.13.07.14.01.31-.13.38l-4.7,2.33s-.08.03-.12.03Z"/><path d="M70.37,119.71c-.1,0-.2-.06-.25-.16-.07-.14-.01-.31.13-.38l4.66-2.33c.14-.07.31-.01.38.13.07.14.01.31-.13.38l-4.66,2.33s-.08.03-.13.03Z"/><path d="M67.68,119.71s-.08,0-.12-.03l-4.7-2.33c-.14-.07-.2-.24-.13-.38.07-.14.24-.2.38-.13l4.7,2.33c.14.07.2.24.13.38-.05.1-.15.16-.25.16Z"/><path d="M75.03,123.41s-.08,0-.13-.03l-4.66-2.33c-.14-.07-.2-.24-.13-.38.07-.14.24-.19.38-.13l4.66,2.33c.14.07.2.24.13.38-.05.1-.15.16-.25.16Z"/><path d="M69.01,123.41c-.16,0-.28-.13-.28-.28v-6.03c0-.16.13-.28.28-.28s.28.13.28.28v6.03c0,.16-.13.28-.28.28Z"/><path d="M193.7,391.65h-6.03c-.21,0-.38-.17-.38-.38s.17-.38.38-.38h6.03c.21,0,.38.17.38.38s-.17.38-.38.38Z"/><path d="M193.7,379.6h-6.03c-.21,0-.38-.17-.38-.38s.17-.38.38-.38h6.03c.21,0,.38.17.38.38s-.17.38-.38.38Z"/><path d="M193.7,391.55c-.1,0-.2-.06-.25-.15l-2.37-4.66c-.07-.14-.01-.31.12-.38.14-.07.31-.02.38.12l2.37,4.66c.07.14.01.31-.12.38-.04.02-.08.03-.13.03Z"/><path d="M190.01,384.2c-.1,0-.2-.06-.25-.16l-2.33-4.7c-.07-.14-.01-.31.13-.38.14-.07.31-.01.38.13l2.33,4.7c.07.14.01.31-.13.38-.04.02-.08.03-.12.03Z"/><path d="M187.68,391.55s-.08,0-.13-.03c-.14-.07-.2-.24-.13-.38l2.33-4.66c.07-.14.24-.19.38-.13.14.07.2.24.13.38l-2.33,4.66c-.05.1-.15.16-.25.16Z"/><path d="M191.33,384.2s-.09,0-.13-.03c-.14-.07-.19-.24-.12-.38l2.37-4.7c.07-.14.24-.19.38-.12.14.07.19.24.12.38l-2.37,4.7c-.05.1-.15.15-.25.15Z"/><path d="M193.7,385.53h-6.03c-.16,0-.28-.13-.28-.28s.13-.28.28-.28h6.03c.16,0,.28.13.28.28s-.13.28-.28.28Z"/><path d="M197.08,367.95h-9.4c-.21,0-.38-.17-.38-.38s.17-.38.38-.38h9.4c.21,0,.38.17.38.38s-.17.38-.38.38Z"/><path d="M139.63,123.41h-1.49c-.16,0-.28-.13-.28-.28v-6.03c0-.16.13-.28.28-.28h1.49c.16,0,.28.13.28.28v6.03c0,.16-.13.28-.28.28ZM138.43,122.85h.92v-5.46h-.92v5.46Z"/><path d="M138.14,117.48h-54.23c-.21,0-.38-.17-.38-.38s.17-.38.38-.38h54.23c.21,0,.38.17.38.38s-.17.38-.38.38Z"/><line class="cls-1" x1="224.39" y1="117.91" x2="224.19" y2="117.87"/><line class="cls-1" x1="220.13" y1="117.91" x2="220.33" y2="117.87"/><path d="M45.03,12.41h-25.71c-.16,0-.28-.13-.28-.28s.13-.28.28-.28h25.71c.16,0,.28.13.28.28s-.13.28-.28.28Z"/><path d="M57.08,12.41h-6.03c-.16,0-.28-.13-.28-.28s.13-.28.28-.28h6.03c.16,0,.28.13.28.28s-.13.28-.28.28Z"/><path d="M93.23,12.41h-30.13c-.16,0-.28-.13-.28-.28s.13-.28.28-.28h30.13c.16,0,.28.13.28.28s-.13.28-.28.28Z"/><path d="M105.28,12.41h-6.03c-.16,0-.28-.13-.28-.28s.13-.28.28-.28h6.03c.16,0,.28.13.28.28s-.13.28-.28.28Z"/><path d="M141.44,12.41h-30.13c-.16,0-.28-.13-.28-.28s.13-.28.28-.28h30.13c.16,0,.28.13.28.28s-.13.28-.28.28Z"/><path d="M153.49,12.41h-6.03c-.16,0-.28-.13-.28-.28s.13-.28.28-.28h6.03c.16,0,.28.13.28.28s-.13.28-.28.28Z"/><path d="M185.23,12.41h-25.71c-.16,0-.28-.13-.28-.28s.13-.28.28-.28h25.71c.16,0,.28.13.28.28s-.13.28-.28.28Z"/><path d="M230.22,12.41h-32.94c-.16,0-.28-.13-.28-.28s.13-.28.28-.28h32.94c.16,0,.28.13.28.28s-.13.28-.28.28Z"/><path d="M14.25,167.36s-.08-.04-.08-.08v-10.57s.04-.08.08-.08.08.04.08.08v10.57s-.04.08-.08.08Z"/><path d="M14.21,156.77s-.08-.04-.08-.08c0-.68.55-1.23,1.23-1.23.04,0,.08.04.08.08s-.04.08-.08.08c-.59,0-1.06.48-1.06,1.06,0,.04-.04.08-.08.08Z"/><path d="M19.32,18.06h-6.03c-.21,0-.38-.17-.38-.38s.17-.38.38-.38h6.03c.21,0,.38.17.38.38s-.17.38-.38.38Z"/><path d="M49.8,255.24c.78-.65,1.39-1.19,1.85-1.62s.84-.88,1.15-1.35c.31-.47.46-.93.46-1.38,0-.41-.1-.73-.29-.97s-.49-.35-.9-.35-.71.14-.93.41c-.22.27-.33.64-.34,1.11h-1.65c.03-.97.32-1.7.87-2.21.54-.5,1.24-.75,2.08-.75.92,0,1.63.24,2.12.73.49.49.74,1.13.74,1.93,0,.63-.17,1.23-.51,1.81-.34.57-.73,1.07-1.16,1.5-.44.42-1.01.94-1.71,1.53h3.57v1.41h-5.98v-1.26l.63-.53Z"/><path d="M61.57,252.12v1.43h-5.14v-1.43h5.14Z"/><path d="M63.63,250.68c.38-.66.89-1.17,1.54-1.54.65-.37,1.38-.55,2.19-.55.95,0,1.77.24,2.48.73.71.48,1.21,1.16,1.49,2.01h-1.95c-.19-.4-.47-.71-.82-.91-.35-.2-.76-.3-1.22-.3-.49,0-.93.11-1.31.35-.38.23-.68.56-.9.98-.21.42-.32.91-.32,1.48s.11,1.05.32,1.47c.21.42.51.75.9.98.38.23.82.35,1.31.35.46,0,.87-.1,1.22-.31.35-.21.62-.51.82-.92h1.95c-.28.86-.78,1.54-1.48,2.02-.71.48-1.54.72-2.49.72-.81,0-1.54-.18-2.19-.55-.65-.37-1.16-.88-1.54-1.53-.38-.65-.56-1.4-.56-2.23s.19-1.58.56-2.24Z"/><path d="M77.96,255.54h-3.37l-.56,1.61h-1.78l3.04-8.47h1.97l3.04,8.47h-1.79l-.56-1.61ZM77.5,254.19l-1.22-3.54-1.22,3.54h2.45Z"/><path d="M85.82,257.16l-1.87-3.3h-.8v3.3h-1.7v-8.46h3.17c.65,0,1.21.11,1.67.35s.81.54,1.04.93c.23.39.35.83.35,1.31,0,.56-.16,1.06-.48,1.51-.32.45-.8.76-1.44.93l2.02,3.43h-1.96ZM83.15,252.59h1.42c.46,0,.8-.11,1.03-.33.23-.22.34-.53.34-.93s-.11-.69-.34-.9c-.23-.21-.57-.32-1.03-.32h-1.42v2.48Z"/><path d="M97.99,251.24c-.19-.35-.46-.63-.8-.81-.34-.19-.74-.28-1.19-.28-.5,0-.95.11-1.33.34s-.69.55-.91.97c-.22.42-.33.9-.33,1.45s.11,1.06.33,1.48c.22.42.53.74.93.97s.86.34,1.38.34c.65,0,1.18-.17,1.59-.51.41-.34.68-.82.81-1.44h-2.91v-1.3h4.58v1.48c-.11.59-.36,1.13-.73,1.64-.37.5-.85.9-1.44,1.21-.58.3-1.24.45-1.97.45-.82,0-1.55-.18-2.21-.55s-1.17-.88-1.55-1.53c-.38-.65-.56-1.4-.56-2.23s.19-1.58.56-2.24c.38-.66.89-1.17,1.55-1.54.66-.37,1.39-.55,2.2-.55.95,0,1.78.23,2.48.7.7.46,1.19,1.12,1.45,1.96h-1.95Z"/><path d="M106.59,255.54h-3.37l-.56,1.61h-1.78l3.04-8.47h1.97l3.04,8.47h-1.79l-.56-1.61ZM106.13,254.19l-1.22-3.54-1.22,3.54h2.45Z"/><path d="M114.44,257.16l-1.87-3.3h-.8v3.3h-1.7v-8.46h3.17c.65,0,1.21.11,1.67.35s.81.54,1.04.93c.23.39.35.83.35,1.31,0,.56-.16,1.06-.48,1.51-.32.45-.8.76-1.44.93l2.02,3.43h-1.96ZM111.78,252.59h1.42c.46,0,.8-.11,1.03-.33.23-.22.34-.53.34-.93s-.11-.69-.34-.9c-.23-.21-.57-.32-1.03-.32h-1.42v2.48Z"/><path d="M123.03,255.54h-3.37l-.56,1.61h-1.78l3.04-8.47h1.97l3.04,8.47h-1.79l-.56-1.61ZM122.57,254.19l-1.22-3.54-1.22,3.54h2.45Z"/><path d="M132.41,251.24c-.19-.35-.46-.63-.8-.81-.34-.19-.74-.28-1.19-.28-.5,0-.95.11-1.33.34s-.69.55-.91.97c-.22.42-.33.9-.33,1.45s.11,1.06.33,1.48c.22.42.53.74.93.97s.86.34,1.38.34c.65,0,1.18-.17,1.59-.51.41-.34.68-.82.81-1.44h-2.91v-1.3h4.58v1.48c-.11.59-.36,1.13-.73,1.64-.37.5-.85.9-1.44,1.21-.58.3-1.24.45-1.97.45-.82,0-1.55-.18-2.21-.55s-1.17-.88-1.55-1.53c-.38-.65-.56-1.4-.56-2.23s.19-1.58.56-2.24c.38-.66.89-1.17,1.55-1.54.66-.37,1.39-.55,2.2-.55.95,0,1.78.23,2.48.7.7.46,1.19,1.12,1.45,1.96h-1.95Z"/><path d="M137.52,250.07v2.12h2.85v1.34h-2.85v2.24h3.21v1.38h-4.91v-8.47h4.91v1.38h-3.21Z"/><path d="M56.4,56.75c.38-.66.89-1.17,1.54-1.54.65-.37,1.38-.55,2.19-.55.95,0,1.77.24,2.48.73.71.48,1.21,1.16,1.49,2.01h-1.95c-.19-.4-.47-.71-.82-.91-.35-.2-.76-.3-1.22-.3-.49,0-.93.11-1.31.35-.38.23-.68.56-.9.98-.21.42-.32.91-.32,1.48s.11,1.05.32,1.47c.21.42.51.75.9.98.38.23.82.35,1.31.35.46,0,.87-.1,1.22-.31.35-.21.62-.51.82-.92h1.95c-.28.86-.78,1.54-1.48,2.02s-1.54.72-2.49.72c-.81,0-1.54-.18-2.19-.55-.65-.37-1.16-.88-1.54-1.53s-.56-1.4-.56-2.23.19-1.58.56-2.24Z"/><path d="M66.79,62.91c-.52-.29-.92-.69-1.22-1.22-.29-.52-.44-1.13-.44-1.82s.15-1.29.45-1.82.72-.93,1.24-1.22c.52-.29,1.11-.43,1.76-.43s1.23.14,1.76.43c.52.29.94.69,1.24,1.22s.45,1.13.45,1.82-.16,1.29-.47,1.82c-.31.52-.73.93-1.26,1.22-.53.29-1.12.43-1.78.43s-1.23-.14-1.75-.43ZM69.4,61.64c.27-.15.49-.37.65-.67.16-.3.24-.66.24-1.09,0-.64-.17-1.13-.5-1.47s-.75-.51-1.23-.51-.89.17-1.22.51-.49.83-.49,1.47.16,1.13.48,1.47c.32.34.72.51,1.21.51.31,0,.6-.07.87-.22Z"/><path d="M76.08,61.67l1.7-5.15h1.8l-2.48,6.71h-2.06l-2.47-6.71h1.82l1.7,5.15Z"/><path d="M86.73,60.38h-4.91c.04.48.21.86.51,1.14.3.27.67.41,1.1.41.63,0,1.08-.27,1.34-.81h1.83c-.19.65-.57,1.18-1.12,1.59-.55.42-1.22.62-2.02.62-.65,0-1.23-.14-1.74-.43-.51-.29-.91-.69-1.2-1.22-.29-.52-.43-1.13-.43-1.82s.14-1.3.42-1.83c.28-.52.68-.93,1.19-1.21.51-.28,1.09-.42,1.76-.42s1.21.14,1.71.41c.5.27.9.66,1.17,1.17.28.5.42,1.08.42,1.74,0,.24-.02.46-.05.65ZM85.02,59.24c0-.44-.17-.79-.47-1.05-.31-.26-.68-.39-1.13-.39-.42,0-.77.13-1.06.38-.29.25-.46.61-.53,1.06h3.19Z"/><path d="M90.56,56.72c.35-.2.75-.3,1.21-.3v1.78h-.45c-.53,0-.93.12-1.21.38-.27.25-.41.69-.41,1.31v3.34h-1.7v-6.71h1.7v1.04c.22-.36.5-.63.85-.84Z"/><path d="M99.1,60.38h-4.91c.04.48.21.86.51,1.14.3.27.67.41,1.1.41.63,0,1.08-.27,1.34-.81h1.83c-.19.65-.57,1.18-1.12,1.59-.55.42-1.22.62-2.02.62-.65,0-1.23-.14-1.74-.43-.51-.29-.91-.69-1.2-1.22-.29-.52-.43-1.13-.43-1.82s.14-1.3.42-1.83c.28-.52.68-.93,1.19-1.21.51-.28,1.09-.42,1.76-.42s1.21.14,1.71.41c.5.27.9.66,1.17,1.17.28.5.42,1.08.42,1.74,0,.24-.02.46-.05.65ZM97.39,59.24c0-.44-.17-.79-.47-1.05-.31-.26-.68-.39-1.13-.39-.42,0-.77.13-1.06.38-.29.25-.46.61-.53,1.06h3.19Z"/><path d="M100.35,58.04c.27-.52.64-.93,1.11-1.21s.99-.42,1.56-.42c.44,0,.85.1,1.25.29.4.19.71.44.95.76v-3.19h1.72v8.97h-1.72v-.99c-.21.33-.5.6-.88.8-.38.2-.82.3-1.32.3-.57,0-1.08-.15-1.55-.44-.47-.29-.84-.7-1.11-1.23-.27-.53-.41-1.14-.41-1.82s.14-1.28.41-1.81ZM104.99,58.81c-.16-.29-.38-.52-.65-.68-.28-.16-.57-.24-.88-.24s-.61.08-.87.23-.48.38-.65.67c-.17.29-.25.64-.25,1.05s.08.76.25,1.06c.17.3.38.54.65.7s.56.24.87.24.61-.08.88-.24c.27-.16.49-.38.65-.68.16-.29.24-.65.24-1.06s-.08-.77-.24-1.06Z"/><path d="M113.18,61.88h2.79v1.34h-4.48v-8.46h1.7v7.11Z"/><path d="M117.01,58.04c.27-.52.64-.93,1.1-1.21s.98-.42,1.56-.42c.5,0,.94.1,1.31.3.38.2.68.46.9.76v-.96h1.71v6.71h-1.71v-.98c-.22.31-.52.58-.9.78-.38.21-.83.31-1.33.31-.57,0-1.08-.15-1.54-.44-.46-.29-.83-.7-1.1-1.23-.27-.53-.41-1.14-.41-1.82s.14-1.28.41-1.81ZM121.64,58.81c-.16-.29-.38-.52-.65-.68-.28-.16-.57-.24-.88-.24s-.61.08-.87.23-.48.38-.65.67c-.17.29-.25.64-.25,1.05s.08.76.25,1.06c.17.3.38.54.65.7s.56.24.87.24.61-.08.88-.24c.27-.16.49-.38.65-.68.16-.29.24-.65.24-1.06s-.08-.77-.24-1.06Z"/><path d="M130.91,57.18c.49.5.74,1.21.74,2.11v3.94h-1.7v-3.71c0-.53-.13-.94-.4-1.23s-.63-.43-1.09-.43-.84.14-1.11.43c-.27.29-.41.7-.41,1.23v3.71h-1.7v-6.71h1.7v.84c.23-.29.51-.52.87-.68s.74-.25,1.16-.25c.8,0,1.45.25,1.94.76Z"/><path d="M133.23,58.04c.27-.52.64-.93,1.1-1.21s.98-.42,1.56-.42c.5,0,.94.1,1.31.3.38.2.68.46.9.76v-.96h1.71v6.71h-1.71v-.98c-.22.31-.52.58-.9.78-.38.21-.83.31-1.33.31-.57,0-1.08-.15-1.54-.44-.46-.29-.83-.7-1.1-1.23-.27-.53-.41-1.14-.41-1.82s.14-1.28.41-1.81ZM137.87,58.81c-.16-.29-.38-.52-.65-.68-.28-.16-.57-.24-.88-.24s-.61.08-.87.23-.48.38-.65.67c-.17.29-.25.64-.25,1.05s.08.76.25,1.06c.17.3.38.54.65.7s.56.24.87.24.61-.08.88-.24c.27-.16.49-.38.65-.68.16-.29.24-.65.24-1.06s-.08-.77-.24-1.06Z"/><path d="M141.59,55.43c-.2-.19-.3-.43-.3-.71s.1-.52.3-.71c.2-.19.45-.28.75-.28s.55.09.75.28c.2.19.3.43.3.71s-.1.52-.3.71c-.2.19-.45.28-.75.28s-.55-.09-.75-.28ZM143.17,56.52v6.71h-1.7v-6.71h1.7Z"/><path d="M149.39,51.76l-3.27,13.67h-1.66l3.27-13.67h1.66Z"/><path d="M54.96,77.3c-.66-.37-1.19-.89-1.58-1.54s-.58-1.4-.58-2.24.19-1.56.58-2.22.91-1.17,1.58-1.54,1.39-.56,2.18-.56,1.53.19,2.19.56,1.18.89,1.56,1.54c.38.66.58,1.4.58,2.22s-.19,1.58-.58,2.24c-.38.66-.91,1.17-1.57,1.54-.66.37-1.39.56-2.18.56s-1.52-.19-2.18-.56ZM58.48,75.99c.39-.23.69-.56.91-.99.22-.43.33-.92.33-1.49s-.11-1.06-.33-1.48c-.22-.42-.52-.75-.91-.98s-.84-.34-1.35-.34-.96.11-1.35.34c-.39.23-.7.55-.92.98-.22.42-.33.92-.33,1.48s.11,1.06.33,1.49c.22.43.52.76.92.99.39.23.84.35,1.35.35s.96-.12,1.35-.35Z"/><path d="M69.06,71.06v6.71h-1.71v-.85c-.22.29-.5.52-.85.68-.35.17-.73.25-1.15.25-.53,0-.99-.11-1.39-.33-.4-.22-.72-.55-.95-.98s-.35-.95-.35-1.54v-3.94h1.7v3.7c0,.53.13.94.4,1.23.27.29.63.43,1.09.43s.84-.14,1.1-.43c.27-.29.4-.7.4-1.23v-3.7h1.71Z"/><path d="M72.7,72.45v3.25c0,.23.05.39.16.49.11.1.29.15.55.15h.79v1.43h-1.07c-1.43,0-2.14-.69-2.14-2.08v-3.23h-.8v-1.39h.8v-1.66h1.71v1.66h1.5v1.39h-1.5Z"/><path d="M75.4,72.58c.27-.52.64-.93,1.11-1.21s.99-.42,1.56-.42c.44,0,.85.1,1.25.29.4.19.71.44.95.76v-3.19h1.72v8.97h-1.72v-.99c-.21.33-.5.6-.88.8-.38.2-.82.3-1.32.3-.57,0-1.08-.15-1.55-.44-.47-.29-.84-.7-1.11-1.23-.27-.53-.41-1.14-.41-1.82s.14-1.28.41-1.81ZM80.03,73.35c-.16-.29-.38-.52-.65-.68-.28-.16-.57-.24-.88-.24s-.61.08-.87.23-.48.38-.65.67c-.17.29-.25.64-.25,1.05s.08.76.25,1.06c.17.3.38.54.65.7s.56.24.87.24.61-.08.88-.24c.27-.16.49-.38.65-.68.16-.29.24-.65.24-1.06s-.08-.77-.24-1.06Z"/><path d="M84.88,77.45c-.52-.29-.92-.69-1.22-1.22-.29-.52-.44-1.13-.44-1.82s.15-1.29.45-1.82.72-.93,1.24-1.22c.52-.29,1.11-.43,1.76-.43s1.23.14,1.76.43c.52.29.94.69,1.24,1.22s.45,1.13.45,1.82-.16,1.29-.47,1.82c-.31.52-.73.93-1.26,1.22-.53.29-1.12.43-1.78.43s-1.23-.14-1.75-.43ZM87.49,76.17c.27-.15.49-.37.65-.67.16-.3.24-.66.24-1.09,0-.64-.17-1.13-.5-1.47s-.75-.51-1.23-.51-.89.17-1.22.51-.49.83-.49,1.47.16,1.13.48,1.47c.32.34.72.51,1.21.51.31,0,.6-.07.87-.22Z"/><path d="M92.61,77.45c-.52-.29-.92-.69-1.22-1.22-.29-.52-.44-1.13-.44-1.82s.15-1.29.45-1.82.72-.93,1.24-1.22c.52-.29,1.11-.43,1.76-.43s1.23.14,1.76.43c.52.29.94.69,1.24,1.22s.45,1.13.45,1.82-.16,1.29-.47,1.82c-.31.52-.73.93-1.26,1.22-.53.29-1.12.43-1.78.43s-1.23-.14-1.75-.43ZM95.22,76.17c.27-.15.49-.37.65-.67.16-.3.24-.66.24-1.09,0-.64-.17-1.13-.5-1.47s-.75-.51-1.23-.51-.89.17-1.22.51-.49.83-.49,1.47.16,1.13.48,1.47c.32.34.72.51,1.21.51.31,0,.6-.07.87-.22Z"/><path d="M101.65,71.26c.35-.2.75-.3,1.21-.3v1.78h-.45c-.53,0-.93.12-1.21.38-.27.25-.41.69-.41,1.31v3.34h-1.7v-6.71h1.7v1.04c.22-.36.5-.63.85-.84Z"/><path d="M111.66,77.77l-3.08-3.77v3.77h-1.7v-8.46h1.7v3.79l3.08-3.79h2.05l-3.49,4.19,3.59,4.26h-2.14Z"/><path d="M115.03,69.97c-.2-.19-.3-.43-.3-.71s.1-.52.3-.71c.2-.19.45-.28.75-.28s.55.09.75.28c.2.19.3.43.3.71s-.1.52-.3.71c-.2.19-.45.28-.75.28s-.55-.09-.75-.28ZM116.61,71.06v6.71h-1.7v-6.71h1.7Z"/><path d="M120.26,72.45v3.25c0,.23.05.39.16.49.11.1.29.15.55.15h.79v1.43h-1.07c-1.43,0-2.14-.69-2.14-2.08v-3.23h-.8v-1.39h.8v-1.66h1.71v1.66h1.5v1.39h-1.5Z"/><path d="M122.97,72.59c.28-.52.67-.92,1.17-1.21.5-.29,1.07-.43,1.72-.43.83,0,1.52.21,2.07.62s.91,1,1.1,1.75h-1.83c-.1-.29-.26-.52-.49-.68s-.51-.25-.85-.25c-.48,0-.87.18-1.15.53-.28.35-.42.85-.42,1.5s.14,1.13.42,1.48c.28.35.67.53,1.15.53.69,0,1.13-.31,1.34-.92h1.83c-.19.73-.55,1.3-1.1,1.73-.55.43-1.24.64-2.06.64-.65,0-1.22-.14-1.72-.43-.5-.29-.89-.69-1.17-1.21-.28-.52-.42-1.13-.42-1.82s.14-1.3.42-1.82Z"/><path d="M135.41,71.29c.4.22.71.55.93.98.22.43.33.95.33,1.56v3.94h-1.7v-3.71c0-.53-.13-.94-.4-1.23s-.63-.43-1.09-.43-.84.14-1.11.43c-.27.29-.41.7-.41,1.23v3.71h-1.7v-8.97h1.7v3.09c.22-.29.51-.52.87-.68s.77-.25,1.21-.25c.51,0,.96.11,1.36.33Z"/><path d="M144.48,74.92h-4.91c.04.48.21.86.51,1.14.3.27.67.41,1.1.41.63,0,1.08-.27,1.34-.81h1.83c-.19.65-.57,1.18-1.12,1.59-.55.42-1.22.62-2.02.62-.65,0-1.23-.14-1.74-.43-.51-.29-.91-.69-1.2-1.22-.29-.52-.43-1.13-.43-1.82s.14-1.3.42-1.83c.28-.52.68-.93,1.19-1.21.51-.28,1.09-.42,1.76-.42s1.21.14,1.71.41c.5.27.9.66,1.17,1.17.28.5.42,1.08.42,1.74,0,.24-.02.46-.05.65ZM142.77,73.78c0-.44-.17-.79-.47-1.05-.31-.26-.68-.39-1.13-.39-.42,0-.77.13-1.06.38-.29.25-.46.61-.53,1.06h3.19Z"/><path d="M151.42,71.72c.49.5.74,1.21.74,2.11v3.94h-1.7v-3.71c0-.53-.13-.94-.4-1.23s-.63-.43-1.09-.43-.84.14-1.11.43c-.27.29-.41.7-.41,1.23v3.71h-1.7v-6.71h1.7v.84c.23-.29.51-.52.87-.68s.74-.25,1.16-.25c.8,0,1.45.25,1.94.76Z"/></svg>