<?xml version="1.0" encoding="UTF-8"?><svg id="Layer_1" xmlns="http://www.w3.org/2000/svg" width=".5in" height=".54in" xmlns:xlink="http://www.w3.org/1999/xlink" viewBox="0 0 35.94 38.8"><defs><style>.cls-1{fill:none;}.cls-2{fill:#2c2b2a;}.cls-3{fill:#fff;}.cls-4{opacity:.07;}.cls-5{fill:#166398;}.cls-6{fill:#448bca;}.cls-7{fill:#4b4b4b;}.cls-8{clip-path:url(#clippath);}</style><clipPath id="clippath"><rect class="cls-1" x="169.24" y="-87.62" width="251.79" height="144.84"/></clipPath></defs><g class="cls-4"><g class="cls-8"><path class="cls-3" d="M31.11,40.17c.74.41,1.4,1.78.55,1.8l-14.78.04v-9.44c.23-.06.49-.04.71.09l13.52,7.51h0Z"/><path class="cls-3" d="M16.28,33.03c.13-.24.35-.4.6-.46v9.44h-3.94c-.74.02-1.22-.77-.86-1.42l4.2-7.56h0Z"/><path class="cls-3" d="M13.16,32.5c.73-.43,2.24-.31,1.83.43l-7.41,12.79L-.57,40.97c.06-.23.21-.44.43-.57l13.29-7.9h0Z"/><path class="cls-3" d="M50,6.82c.74.41,1.4,1.78.55,1.8l-14.78.04V-.78c.23-.06.49-.04.71.09l13.52,7.51h0Z"/><path class="cls-3" d="M35.18-.32c.13-.24.35-.4.6-.46v9.44h-3.94c-.74.02-1.22-.77-.86-1.42L35.18-.32h0Z"/><path class="cls-3" d="M37.15,37.93c-.73.43-2.24.31-1.83-.43l7.41-12.79,8.15,4.75c-.06.23-.21.44-.43.57l-13.29,7.9h0Z"/><path class="cls-3" d="M19.2,30.26c-.74-.41-1.4-1.78-.55-1.8l14.78-.04v9.44c-.23.06-.49.04-.71-.09l-13.52-7.51h0Z"/><path class="cls-3" d="M34.03,37.4c-.13.24-.35.4-.6.46v-9.44h3.94c.74-.02,1.22.77.86,1.42l-4.2,7.56h0Z"/><path class="cls-3" d="M17.79,9.29l7.16,12.93-8.27,4.54c-.16-.17-.27-.41-.27-.67l.07-15.46c0-.85.89-2.08,1.31-1.35Z"/><path class="cls-3" d="M17.37,27.07c-.27,0-.52-.12-.69-.3l8.27-4.54,1.91,3.45c.37.64-.1,1.44-.84,1.44l-8.65-.04h0Z"/><path class="cls-3" d="M32.06-.85c.73-.43,2.24-.31,1.83.43l-7.41,12.79-8.15-4.75c.06-.23.21-.44.43-.57L32.06-.85h0Z"/><path class="cls-3" d="M18.42,8.37c-.14-.23-.17-.5-.1-.75l8.15,4.75-1.97,3.41c-.36.65-1.29.66-1.67.02l-4.42-7.43h0Z"/><path class="cls-3" d="M10.72,6.82c.74.41,1.4,1.78.55,1.8l-14.78.04V-.78c.23-.06.49-.04.71.09l13.52,7.51h0Z"/><path class="cls-3" d="M12.14,27.79l-7.16-12.93,8.27-4.54c.16.17.27.41.27.67l-.07,15.46c0,.85-.89,2.08-1.31,1.35Z"/><path class="cls-3" d="M12.56,10.01c.27,0,.52.12.69.3l-8.27,4.54-1.91-3.45c-.37-.64.1-1.44.84-1.44l8.65.04h0Z"/><path class="cls-3" d="M-2.13,37.93c-.73.43-2.24.31-1.83-.43l7.41-12.79,8.15,4.75c-.06.23-.21.44-.43.57l-13.29,7.9h0Z"/><path class="cls-3" d="M11.5,28.72c.14.23.17.5.1.75l-8.15-4.75,1.97-3.41c.36-.65,1.29-.66,1.67-.02l4.42,7.43h0Z"/><path class="cls-3" d="M18.25,4.58c-.73.43-2.24.31-1.83-.43l7.41-12.79,8.15,4.75c-.06.23-.21.44-.43.57l-13.29,7.9h0Z"/><path class="cls-3" d="M.3-3.08c-.74-.41-1.4-1.78-.55-1.8l14.78-.04V4.51c-.23.06-.49.04-.71-.09L.3-3.08H.3Z"/><path class="cls-3" d="M15.13,4.05c-.13.24-.35.4-.6.46V-4.92h3.94c.74-.02,1.22.77.86,1.42l-4.2,7.56h0Z"/></g></g><path class="cls-6" d="M33.18,7.82L19.83.4c-.22-.12-.47-.15-.7-.09v9.32l14.6-.04c.84-.01.19-1.37-.55-1.77h0Z"/><path class="cls-5" d="M18.54.77l-4.15,7.47c-.36.64.12,1.42.85,1.41h3.89V.32c-.24.06-.46.22-.59.46h0Z"/><path class="cls-7" d="M35.87,27.21l.07-15.27c0-.26-.1-.49-.26-.66l-8.17,4.49,7.07,12.78c.42.73,1.29-.5,1.29-1.33Z"/><path class="cls-2" d="M35,10.98l-8.54-.04c-.73,0-1.19.79-.83,1.42l1.88,3.4,8.17-4.49c-.17-.18-.41-.3-.68-.3h0Z"/><path class="cls-7" d="M20.49,38.55l13.13-7.8c.22-.13.37-.34.43-.56l-8.05-4.69-7.31,12.64c-.41.73,1.09.85,1.81.42h0Z"/><path class="cls-2" d="M33.95,29.45l-4.36-7.34c-.37-.63-1.29-.62-1.65.02l-1.95,3.37,8.05,4.69c.07-.24.04-.51-.1-.74h0Z"/><path class="cls-7" d="M2.76,30.98l13.35,7.42c.22.12.47.15.7.09v-9.32l-14.6.04c-.84.01-.19,1.37.55,1.77h0Z"/><path class="cls-2" d="M17.4,38.03l4.15-7.47c.36-.64-.12-1.42-.85-1.41h-3.89v9.33c.24-.06.46-.22.59-.46h0Z"/><path class="cls-7" d="M.07,11.59L0,26.87c0,.26.1.49.26.66l8.17-4.49L1.36,10.26c-.42-.73-1.29.5-1.29,1.33Z"/><path class="cls-2" d="M.95,27.82l8.54.04c.73,0,1.19-.79.83-1.42l-1.88-3.4L.26,27.53c.17.18.41.3.68.3h0Z"/><path class="cls-7" d="M15.45.25L2.32,8.05c-.22.13-.37.34-.43.56l8.05,4.69L17.26.67c.41-.73-1.09-.85-1.81-.42h0Z"/><path class="cls-2" d="M1.99,9.35l4.36,7.34c.37.63,1.29.62,1.65-.02l1.95-3.37L1.89,8.61c-.07.24-.04.51.1.74h0Z"/></svg>