<?xml version="1.0" encoding="UTF-8"?>
<svg id="Layer_1" data-name="Layer 1" xmlns="http://www.w3.org/2000/svg" viewBox="0 0 6016.21 1342.73">
  <defs>
    <style>
      .cls-1 {
        fill: #fff;
      }

      .cls-2 {
        fill: #106298;
      }

      .cls-3 {
        fill: #0093f7;
      }

      .cls-4 {
        fill: #4a4a4a;
      }

      .cls-5 {
        fill: #2b2a2a;
      }
    </style>
  </defs>
  <g>
    <g>
      <g>
        <g>
          <path class="cls-3" d="M5920.74,270.68L5458.68,13.98c-7.72-4.29-16.4-5.08-24.32-3v322.59l505.27-1.51c28.96-.49,6.43-47.3-18.89-61.37Z"/>
          <path class="cls-2" d="M5413.98,26.75l-143.55,258.38c-12.29,22.13,3.98,49.26,29.29,48.84l134.64-.4V10.98c-8.36,2.2-15.86,7.62-20.39,15.77Z"/>
        </g>
        <g>
          <path class="cls-4" d="M6013.69,941.48l2.52-528.57c.04-8.83-3.44-16.82-9.08-22.76l-282.73,155.32,244.6,442.12c14.37,25.15,44.55-17.14,44.69-46.11Z"/>
          <path class="cls-5" d="M5983.49,379.87l-295.58-1.41c-25.31-.12-41.26,27.21-28.7,49.19l65.18,117.82,282.73-155.32c-5.95-6.27-14.31-10.23-23.64-10.28Z"/>
        </g>
        <g>
          <path class="cls-4" d="M5481.39,1334.18l454.46-269.93c7.59-4.51,12.65-11.61,14.84-19.5l-278.7-162.44-253.13,437.29c-14.16,25.27,37.63,29.37,62.54,14.58Z"/>
          <path class="cls-5" d="M5947.33,1019.19l-150.94-254.13c-12.93-21.76-44.57-21.37-56.94.71l-67.45,116.53,278.7,162.44c2.31-8.33,1.4-17.54-3.36-25.56Z"/>
        </g>
      </g>
      <g>
        <g>
          <path class="cls-4" d="M4867.85,1072.05l462.06,256.7c7.72,4.29,16.4,5.08,24.32,3v-322.59l-505.27,1.51c-28.96.49-6.43,47.3,18.89,61.37Z"/>
          <path class="cls-5" d="M5374.61,1315.98l143.55-258.38c12.29-22.13-3.98-49.26-29.29-48.84l-134.64.4v322.59c8.36-2.2,15.86-7.62,20.39-15.77Z"/>
        </g>
        <g>
          <path class="cls-4" d="M4774.9,401.25l-2.52,528.57c-.04,8.83,3.44,16.82,9.08,22.76l282.73-155.32-244.6-442.12c-14.37-25.15-44.55,17.14-44.69,46.11Z"/>
          <path class="cls-5" d="M4805.09,962.86l295.58,1.41c25.31.12,41.26-27.21,28.7-49.19l-65.18-117.82-282.73,155.32c5.95,6.27,14.31,10.23,23.64,10.28Z"/>
        </g>
        <g>
          <path class="cls-4" d="M5307.19,8.55l-454.46,269.93c-7.59,4.51-12.65,11.61-14.84,19.5l278.7,162.44,253.13-437.29c14.16-25.27-37.63-29.37-62.54-14.58Z"/>
          <path class="cls-5" d="M4841.25,323.54l150.94,254.13c12.93,21.76,44.57,21.37,56.94-.71l67.45-116.53-278.7-162.44c-2.31,8.33-1.4,17.54,3.36,25.56Z"/>
        </g>
      </g>
    </g>
    <g>
      <path class="cls-1" d="M56.56,856.19H0l229.7-468.52h63.16l229.7,468.52h-57.82l-64.42-131.35H120.35l-63.79,131.35ZM260.5,437.94l-117.52,240.7h234.73l-117.21-240.7Z"/>
      <path class="cls-1" d="M651.09,387.67h274.01c43.57,0,78.56,12.88,104.95,38.65,27.02,25.77,40.54,58.97,40.54,99.61s-13.72,75-41.16,101.18c-26.82,26.19-61.17,39.28-103.07,39.28h-184.14l19.48-46.51h155.86c33.51,0,58.6-8.48,75.26-25.45,16.65-16.97,24.98-39.8,24.98-68.5,0-31-9.64-53.94-28.91-68.82-18.65-14.87-40.54-22.31-65.67-22.31h-219.33v421.38h-52.79v-468.52Z"/>
      <path class="cls-1" d="M1231.47,387.67h373.31v46.51h-320.52v163.4h301.03l-18.54,44.93h-282.49v167.49h336.54v46.19h-389.33v-468.52Z"/>
      <path class="cls-1" d="M1794.58,387.67h263.01c46.29,0,84.11,13.09,113.44,39.28,29.95,26.19,44.93,59.6,44.93,100.24,0,35.62-11.68,65.1-35.04,88.46-23.36,23.36-55.05,37.45-95.05,42.26l149.57,198.28h-66.93l-144.23-192.94h-138.57l19.48-46.51h151.15c31.84,0,57.61-8.22,77.3-24.67,19.69-16.44,29.54-38.07,29.54-64.89s-9.64-48.6-28.91-65.99c-18.65-18.01-42.63-27.02-71.96-27.02h-214.93v422.01h-52.79v-468.52Z"/>
      <path class="cls-1" d="M2303,387.67h438.98v46.51h-193.25v422.01h-52.79v-422.01h-192.94v-46.51Z"/>
      <path class="cls-1" d="M2863.91,387.67h52.79v270.24c0,48.6,14.71,86.84,44.15,114.69,29.43,27.86,69.81,41.79,121.14,41.79s92.17-13.93,122.55-41.79c30.37-28.49,45.56-66.72,45.56-114.69v-270.24h52.79v279.35c0,59.7-19.69,107.36-59.08,142.98-38.76,34.99-91.97,52.48-159.63,52.48s-122.13-17.49-160.89-52.48c-39.59-35.82-59.39-83.48-59.39-142.98v-279.35Z"/>
      <path class="cls-1" d="M3502.43,387.67h263.01c46.29,0,84.11,13.09,113.44,39.28,29.95,26.19,44.93,59.6,44.93,100.24,0,35.62-11.68,65.1-35.04,88.46-23.36,23.36-55.05,37.45-95.05,42.26l149.57,198.28h-66.93l-144.23-192.94h-138.57l19.48-46.51h151.15c31.84,0,57.61-8.22,77.3-24.67,19.69-16.44,29.54-38.07,29.54-64.89s-9.64-48.6-28.91-65.99c-18.65-18.01-42.63-27.02-71.96-27.02h-214.93v422.01h-52.79v-468.52Z"/>
      <path class="cls-1" d="M4094.44,387.67h373.31v46.51h-320.52v163.4h301.03l-18.54,44.93h-282.5v167.49h336.54v46.19h-389.33v-468.52Z"/>
    </g>
  </g>
  <g>
    <path class="cls-1" d="M496.31,1132.55h49.57v11.26h-63.39v-138.03h13.82v126.78Z"/>
    <path class="cls-1" d="M658.43,1005.78v138.03h-13.82v-138.03h13.82Z"/>
    <path class="cls-1" d="M843.46,1005.78v11.45h-60.82v51.54h51.34v11.45h-51.34v63.59h-13.82v-138.03h74.64Z"/>
    <path class="cls-1" d="M958.98,1017.03v51.54h52.33v11.45h-52.33v52.33h58.25v11.45h-72.08v-138.23h72.08v11.45h-58.25Z"/>
    <path class="cls-1" d="M1141.34,1140.45c-6.91-3.16-12.34-7.57-16.29-13.23-3.95-5.66-6.06-11.98-6.32-18.96h14.61c.66,6.71,3.62,12.61,8.89,17.67,5.26,5.07,12.97,7.6,23.1,7.6,9.35,0,16.75-2.4,22.22-7.21,5.46-4.8,8.19-10.89,8.19-18.27,0-5.92-1.52-10.69-4.54-14.32-3.03-3.62-6.78-6.32-11.26-8.1-4.48-1.78-10.66-3.72-18.56-5.83-9.22-2.5-16.52-4.94-21.92-7.31-5.4-2.37-10.01-6.05-13.82-11.06-3.82-5-5.73-11.78-5.73-20.34,0-7.11,1.84-13.46,5.53-19.06,3.68-5.59,8.89-9.97,15.6-13.13,6.71-3.16,14.42-4.74,23.1-4.74,12.77,0,23.07,3.13,30.9,9.38,7.83,6.25,12.34,14.32,13.53,24.19h-15.01c-.92-5.66-4.02-10.69-9.28-15.11-5.27-4.41-12.38-6.62-21.33-6.62-8.29,0-15.21,2.21-20.73,6.62-5.53,4.41-8.29,10.44-8.29,18.07,0,5.79,1.51,10.47,4.54,14.02,3.03,3.55,6.81,6.25,11.35,8.1,4.54,1.85,10.69,3.82,18.46,5.92,8.95,2.5,16.19,4.97,21.72,7.41,5.53,2.44,10.2,6.16,14.02,11.16,3.82,5,5.73,11.72,5.73,20.14,0,6.45-1.71,12.57-5.13,18.36-3.43,5.79-8.49,10.47-15.21,14.02-6.71,3.55-14.75,5.33-24.09,5.33s-17.08-1.58-23.99-4.74Z"/>
    <path class="cls-1" d="M1396.18,1005.78v11.45h-38.31v126.58h-13.82v-126.58h-38.51v-11.45h90.64Z"/>
    <path class="cls-1" d="M1588.32,1005.78l-44.24,84.32v53.71h-13.82v-53.71l-44.63-84.32h15.6l35.94,71.68,35.74-71.68h15.4Z"/>
    <path class="cls-1" d="M1701.27,1132.55h49.57v11.26h-63.39v-138.03h13.82v126.78Z"/>
    <path class="cls-1" d="M1863.39,1017.03v51.54h52.33v11.45h-52.33v52.33h58.25v11.45h-72.08v-138.23h72.08v11.45h-58.25Z"/>
    <path class="cls-1" d="M2234.43,1143.81l-34.16-57.66h-25.47v57.66h-13.82v-138.03h41.47c15.4,0,27.08,3.69,35.05,11.06,7.96,7.37,11.95,17.05,11.95,29.03,0,10.01-2.86,18.53-8.59,25.57-5.73,7.04-14.19,11.62-25.37,13.72l35.55,58.65h-16.59ZM2174.8,1074.89h27.84c10.79,0,18.92-2.63,24.39-7.9,5.46-5.26,8.2-12.31,8.2-21.13s-2.63-16.09-7.9-21.03c-5.27-4.94-13.56-7.41-24.88-7.41h-27.65v57.46Z"/>
    <path class="cls-1" d="M2369.7,1017.03v51.54h52.33v11.45h-52.33v52.33h58.25v11.45h-72.08v-138.23h72.08v11.45h-58.25Z"/>
    <path class="cls-1" d="M2614.17,1111.03h-62.8l-12.05,32.78h-14.61l50.36-136.26h15.6l50.16,136.26h-14.61l-12.05-32.78ZM2610.02,1099.57l-27.25-74.64-27.25,74.64h54.5Z"/>
    <path class="cls-1" d="M2755.75,1132.55h49.56v11.26h-63.39v-138.03h13.82v126.78Z"/>
    <path class="cls-1" d="M3050.97,1017.03v51.54h52.33v11.45h-52.33v52.33h58.25v11.45h-72.08v-138.23h72.08v11.45h-58.25Z"/>
    <path class="cls-1" d="M3233.33,1140.45c-6.91-3.16-12.34-7.57-16.29-13.23-3.95-5.66-6.06-11.98-6.32-18.96h14.61c.66,6.71,3.62,12.61,8.88,17.67,5.26,5.07,12.97,7.6,23.1,7.6,9.35,0,16.75-2.4,22.22-7.21,5.46-4.8,8.19-10.89,8.19-18.27,0-5.92-1.52-10.69-4.54-14.32-3.03-3.62-6.78-6.32-11.26-8.1-4.48-1.78-10.66-3.72-18.56-5.83-9.22-2.5-16.52-4.94-21.92-7.31-5.4-2.37-10.01-6.05-13.82-11.06-3.82-5-5.73-11.78-5.73-20.34,0-7.11,1.84-13.46,5.53-19.06,3.68-5.59,8.88-9.97,15.6-13.13,6.71-3.16,14.41-4.74,23.1-4.74,12.77,0,23.07,3.13,30.9,9.38,7.83,6.25,12.34,14.32,13.53,24.19h-15.01c-.92-5.66-4.02-10.69-9.28-15.11-5.27-4.41-12.38-6.62-21.33-6.62-8.29,0-15.21,2.21-20.74,6.62-5.53,4.41-8.29,10.44-8.29,18.07,0,5.79,1.51,10.47,4.54,14.02,3.03,3.55,6.81,6.25,11.36,8.1,4.54,1.85,10.69,3.82,18.46,5.92,8.95,2.5,16.19,4.97,21.72,7.41,5.53,2.44,10.2,6.16,14.02,11.16,3.82,5,5.73,11.72,5.73,20.14,0,6.45-1.71,12.57-5.13,18.36-3.42,5.79-8.49,10.47-15.21,14.02-6.71,3.55-14.75,5.33-24.09,5.33s-17.08-1.58-23.99-4.74Z"/>
    <path class="cls-1" d="M3488.17,1005.78v11.45h-38.31v126.58h-13.82v-126.58h-38.51v-11.45h90.64Z"/>
    <path class="cls-1" d="M3669.05,1111.03h-62.8l-12.05,32.78h-14.61l50.36-136.26h15.6l50.16,136.26h-14.61l-12.05-32.78ZM3664.9,1099.57l-27.25-74.64-27.25,74.64h54.5Z"/>
    <path class="cls-1" d="M3877.58,1005.78v11.45h-38.31v126.58h-13.82v-126.58h-38.51v-11.45h90.64Z"/>
    <path class="cls-1" d="M3992.31,1017.03v51.54h52.33v11.45h-52.33v52.33h58.25v11.45h-72.08v-138.23h72.08v11.45h-58.25Z"/>
  </g>
</svg>