<svg width="276" height="75" viewBox="0 0 276 75" fill="none" xmlns="http://www.w3.org/2000/svg"><path d="M28.633.624c1.088 0 2.024.192 2.808.576.784.384 1.376.912 1.776 1.584.4.672.6 1.432.6 2.28 0 1.056-.312 1.944-.936 2.664-.608.72-1.504 1.152-2.688 1.296v.144c1.232.32 2.192.816 2.88 1.488.704.672 1.056 1.6 1.056 2.784 0 1.392-.464 2.528-1.392 3.408-.928.88-2.264 1.32-4.008 1.32-1.744 0-3.16-.448-4.248-1.344-1.072-.912-1.704-2.24-1.896-3.984h2.16c.144 1.056.544 1.896 1.2 2.52.672.624 1.576.936 2.712.936 1.072 0 1.896-.272 2.472-.816.576-.56.864-1.28.864-2.16 0-1.056-.416-1.856-1.248-2.4-.816-.56-1.984-.84-3.504-.84h-.576V8.256h.576c2.944 0 4.416-.984 4.416-2.952 0-.864-.272-1.552-.816-2.064-.544-.512-1.296-.768-2.256-.768-.96 0-1.768.28-2.424.84-.656.544-1.04 1.352-1.152 2.424h-2.136c.112-1.6.664-2.848 1.656-3.744C25.537 1.08 26.905.624 28.633.624zm8.445 15.696c2.72-1.824 4.896-3.632 6.528-5.424 1.632-1.808 2.448-3.488 2.448-5.04 0-.96-.248-1.728-.744-2.304-.48-.592-1.264-.888-2.352-.888-1.12 0-1.968.36-2.544 1.08-.576.704-.896 1.68-.96 2.928h-2.16c.112-1.888.696-3.336 1.752-4.344 1.056-1.024 2.416-1.536 4.08-1.536 1.584 0 2.84.424 3.768 1.272.928.848 1.392 2.048 1.392 3.6 0 1.28-.416 2.584-1.248 3.912-.816 1.312-1.848 2.536-3.096 3.672a23.942 23.942 0 01-3.816 2.856h8.592v1.8h-11.64V16.32zm29.507-7.08c1.04.224 1.88.72 2.52 1.488.656.768.984 1.672.984 2.712 0 1.376-.472 2.48-1.416 3.312-.928.832-2.28 1.248-4.056 1.248h-6.288V1.08h6.192c1.696 0 2.984.376 3.864 1.128.88.752 1.32 1.784 1.32 3.096 0 1.088-.296 1.968-.888 2.64-.576.672-1.32 1.104-2.232 1.296zm-6.072-.744h3.648c1.072 0 1.888-.248 2.448-.744.576-.496.864-1.192.864-2.088 0-.864-.28-1.544-.84-2.04-.56-.496-1.416-.744-2.568-.744h-3.552v5.616zm3.696 7.68c1.152 0 2.04-.264 2.664-.792.64-.528.96-1.272.96-2.232 0-.944-.328-1.68-.984-2.208-.64-.544-1.536-.816-2.688-.816h-3.648v6.048h3.696zm11.268-13.32V8.64h6.432v1.68h-6.432v5.904h7.152V18h-9.336V1.08h9.336v1.776h-7.152zm21.14 10.752c0 .8-.191 1.544-.575 2.232-.384.688-.968 1.248-1.752 1.68-.784.432-1.752.648-2.904.648-1.12 0-2.12-.2-3-.6-.864-.416-1.56-.976-2.088-1.68a4.881 4.881 0 01-.888-2.448h2.328c.048.48.208.952.48 1.416.288.448.688.824 1.2 1.128.528.288 1.16.432 1.896.432.96 0 1.696-.256 2.208-.768.512-.512.768-1.168.768-1.968 0-.688-.184-1.248-.552-1.68a3.593 3.593 0 00-1.32-1.008c-.528-.256-1.248-.528-2.16-.816-1.072-.352-1.936-.68-2.592-.984a4.644 4.644 0 01-1.656-1.416c-.448-.624-.672-1.448-.672-2.472 0-.88.208-1.656.624-2.328.432-.672 1.04-1.192 1.824-1.56.8-.368 1.736-.552 2.808-.552 1.664 0 2.984.408 3.96 1.224.976.8 1.544 1.824 1.704 3.072h-2.352c-.128-.672-.472-1.264-1.032-1.776s-1.32-.768-2.28-.768c-.88 0-1.584.232-2.112.696-.528.448-.792 1.088-.792 1.92 0 .656.168 1.192.504 1.608.352.4.784.72 1.296.96.512.224 1.216.48 2.112.768 1.088.352 1.96.688 2.616 1.008.672.32 1.24.808 1.704 1.464.464.64.696 1.496.696 2.568zm5.601-2.424V18h-2.184V1.08h5.376c1.936 0 3.384.456 4.344 1.368.96.896 1.44 2.128 1.44 3.696 0 1.584-.496 2.824-1.488 3.72-.992.88-2.424 1.32-4.296 1.32h-3.192zm3-1.824c1.328 0 2.28-.28 2.856-.84.592-.56.888-1.352.888-2.376 0-1.056-.296-1.856-.888-2.4-.576-.56-1.528-.84-2.856-.84h-3V9.36h3zM121.977.864c1.568 0 2.976.368 4.224 1.104 1.264.736 2.256 1.768 2.976 3.096.72 1.312 1.08 2.8 1.08 4.464 0 1.664-.36 3.16-1.08 4.488a7.852 7.852 0 01-2.976 3.072c-1.248.736-2.656 1.104-4.224 1.104s-2.992-.368-4.272-1.104a7.852 7.852 0 01-2.976-3.072c-.72-1.328-1.08-2.824-1.08-4.488 0-1.664.36-3.152 1.08-4.464.72-1.328 1.712-2.36 2.976-3.096 1.28-.736 2.704-1.104 4.272-1.104zm0 2.04c-1.168 0-2.216.272-3.144.816-.912.528-1.632 1.296-2.16 2.304-.512.992-.768 2.16-.768 3.504 0 1.328.256 2.496.768 3.504.528 1.008 1.248 1.784 2.16 2.328.928.528 1.976.792 3.144.792 1.152 0 2.184-.272 3.096-.816.928-.544 1.648-1.312 2.16-2.304.528-1.008.792-2.176.792-3.504 0-1.344-.264-2.512-.792-3.504-.512-1.008-1.232-1.776-2.16-2.304-.912-.544-1.944-.816-3.096-.816zm15.913 6.552L145.618 18h-2.688l-7.056-7.896V18h-2.184V1.08h2.184v7.848l7.08-7.848h2.664l-7.728 8.376zm12.549-6.6V8.64h6.432v1.68h-6.432v5.904h7.152V18h-9.336V1.08h9.336v1.776h-7.152zM180.27 1.08V18h-2.208v-7.824h-8.592V18h-2.184V1.08h2.184V8.4h8.592V1.08h2.208zm11.724-.216c1.568 0 2.976.368 4.224 1.104 1.264.736 2.256 1.768 2.976 3.096.72 1.312 1.08 2.8 1.08 4.464 0 1.664-.36 3.16-1.08 4.488a7.852 7.852 0 01-2.976 3.072c-1.248.736-2.656 1.104-4.224 1.104s-2.992-.368-4.272-1.104a7.852 7.852 0 01-2.976-3.072c-.72-1.328-1.08-2.824-1.08-4.488 0-1.664.36-3.152 1.08-4.464.72-1.328 1.712-2.36 2.976-3.096 1.28-.736 2.704-1.104 4.272-1.104zm0 2.04c-1.168 0-2.216.272-3.144.816-.912.528-1.632 1.296-2.16 2.304-.512.992-.768 2.16-.768 3.504 0 1.328.256 2.496.768 3.504.528 1.008 1.248 1.784 2.16 2.328.928.528 1.976.792 3.144.792 1.152 0 2.184-.272 3.096-.816.928-.544 1.648-1.312 2.16-2.304.528-1.008.792-2.176.792-3.504 0-1.344-.264-2.512-.792-3.504-.512-1.008-1.232-1.776-2.16-2.304-.912-.544-1.944-.816-3.096-.816zm28.657-1.536V18h-2.184V4.728L213.163 18h-1.944l-5.328-13.224V18h-2.184V1.368h2.616l5.904 13.968 5.808-13.968h2.616zm6.157 1.488V8.64h6.432v1.68h-6.432v5.904h7.152V18h-9.336V1.08h9.336v1.776h-7.152zm21.141 10.752c0 .8-.192 1.544-.576 2.232-.384.688-.968 1.248-1.752 1.68-.784.432-1.752.648-2.904.648-1.12 0-2.12-.2-3-.6-.864-.416-1.56-.976-2.088-1.68a4.881 4.881 0 01-.888-2.448h2.328c.048.48.208.952.48 1.416.288.448.688.824 1.2 1.128.528.288 1.16.432 1.896.432.96 0 1.696-.256 2.208-.768.512-.512.768-1.168.768-1.968 0-.688-.184-1.248-.552-1.68a3.593 3.593 0 00-1.32-1.008c-.528-.256-1.248-.528-2.16-.816-1.072-.352-1.936-.68-2.592-.984a4.644 4.644 0 01-1.656-1.416c-.448-.624-.672-1.448-.672-2.472 0-.88.208-1.656.624-2.328.432-.672 1.04-1.192 1.824-1.56.8-.368 1.736-.552 2.808-.552 1.664 0 2.984.408 3.96 1.224.976.8 1.544 1.824 1.704 3.072h-2.352c-.128-.672-.472-1.264-1.032-1.776s-1.32-.768-2.28-.768c-.88 0-1.584.232-2.112.696-.528.448-.792 1.088-.792 1.92 0 .656.168 1.192.504 1.608.352.4.784.72 1.296.96.512.224 1.216.48 2.112.768 1.088.352 1.96.688 2.616 1.008.672.32 1.24.808 1.704 1.464.464.64.696 1.496.696 2.568zM45.745 29.08L41.449 46h-2.664l-3.912-13.824L30.96 46h-2.664l-4.32-16.92H26.4l3.24 14.376 4.008-14.376h2.424l4.008 14.328 3.264-14.328h2.4zm5.223 0V46h-2.184V29.08h2.184zm14.36 0v1.776H60.55V46h-2.184V30.856h-4.776V29.08h11.736zm15.634 0V46h-2.208v-7.824h-8.592V46h-2.184V29.08h2.184v7.32h8.592v-7.32h2.208zm17.654 17.184c-4.511 0-7.272-2.496-7.272-7.464v-9.6h3.697v9.504c0 2.76 1.344 4.152 3.624 4.152 2.279 0 3.623-1.344 3.623-4.032V29.2h3.696v9.48c0 5.088-2.856 7.584-7.367 7.584zM110.23 46V29.2h3.408l7.872 10.344V29.2h3.648V46h-3.144l-8.136-10.68V46h-3.648zm19.441 0V29.2h3.984l4.416 7.104 4.416-7.104h3.984V46h-3.672V35.032l-4.728 7.176h-.096l-4.68-7.104V46h-3.624zm19.876 0l7.2-16.92h3.408l7.2 16.92h-3.864l-1.536-3.768h-7.104L153.314 46h-3.768zm6.624-7.032h4.464l-2.232-5.448-2.232 5.448zM172.183 46V32.608h-5.112V29.2h13.92v3.408h-5.112V46h-3.696zm19.276.288c-4.944 0-8.616-3.816-8.616-8.64V37.6c0-4.776 3.6-8.688 8.76-8.688 3.144 0 5.088 1.056 6.624 2.592l-2.352 2.712c-1.32-1.176-2.592-1.896-4.296-1.896-2.832 0-4.872 2.352-4.872 5.232v.048c0 2.88 1.992 5.28 4.872 5.28 1.92 0 3.096-.744 4.416-1.968l2.352 2.376c-1.728 1.848-3.624 3-6.888 3zM201.785 46V29.2h3.696v6.648h6.816V29.2h3.696V46h-3.696v-6.744h-6.816V46h-3.696zm18.715 0V29.2h12.672v3.288h-9v3.408h7.92v3.288h-7.92v3.528h9.12V46H220.5zm16.558 0V29.2h6.552c5.28 0 8.928 3.624 8.928 8.352v.048c0 4.728-3.648 8.4-8.928 8.4h-6.552zm6.552-13.464h-2.856v10.128h2.856c3 0 5.064-2.04 5.064-5.016V37.6c0-2.976-2.064-5.064-5.064-5.064zM6.497 74.12L.76 57.2h3.96L8.2 68.576l3.768-11.424h3.168l3.768 11.424 3.48-11.376h3.864l-5.736 16.92h-3.216l-3.792-10.992L9.713 74.12H6.497zM25.87 74l7.2-16.92h3.408l7.2 16.92h-3.864l-1.536-3.768h-7.104L29.638 74H25.87zm6.624-7.032h4.464l-2.232-5.448-2.232 5.448zM48.507 74V60.608h-5.112V57.2h13.92v3.408h-5.112V74h-3.696zm12.13 0V57.2H73.31v3.288h-9v3.408h7.92v3.288h-7.92v3.528h9.12V74H60.637zm16.558 0V57.2h7.68c2.136 0 3.768.576 4.896 1.704.96.96 1.44 2.232 1.44 3.84v.048c0 2.712-1.464 4.416-3.6 5.208l4.104 6h-4.32l-3.6-5.376h-2.904V74h-3.696zm3.696-8.64h3.744c1.824 0 2.832-.936 2.832-2.376v-.048c0-1.608-1.08-2.4-2.904-2.4h-3.672v4.824zM95.02 74V57.2h12.792v3.36h-9.096v3.576h8.016v3.36h-8.016V74H95.02zm16.23 0V57.2h7.68c2.136 0 3.768.576 4.896 1.704.96.96 1.44 2.232 1.44 3.84v.048c0 2.712-1.464 4.416-3.6 5.208l4.104 6h-4.32l-3.6-5.376h-2.904V74h-3.696zm3.696-8.64h3.744c1.824 0 2.832-.936 2.832-2.376v-.048c0-1.608-1.08-2.4-2.904-2.4h-3.672v4.824zm22.288 8.928c-5.184 0-8.904-3.864-8.904-8.64V65.6c0-4.776 3.768-8.688 8.952-8.688s8.904 3.864 8.904 8.64v.048c0 4.776-3.768 8.688-8.952 8.688zm.048-3.408c2.976 0 5.04-2.352 5.04-5.232V65.6c0-2.88-2.112-5.28-5.088-5.28s-5.04 2.352-5.04 5.232v.048c0 2.88 2.112 5.28 5.088 5.28zM149.943 74V57.2h3.408l7.872 10.344V57.2h3.648V74h-3.144l-8.136-10.68V74h-3.648zm23.353 0V60.608h-5.112V57.2h13.92v3.408h-5.112V74h-3.696zm25.158.12l-6.792-16.92h4.08l4.392 11.832 4.392-11.832h3.984l-6.792 16.92h-3.264zM211.75 74V57.2h3.696V74h-3.696zm8.375 0V57.2h12.672v3.288h-9v3.408h7.92v3.288h-7.92v3.528h9.12V74h-12.792zm20.998.12l-5.736-16.92h3.96l3.48 11.376 3.768-11.424h3.168l3.768 11.424 3.48-11.376h3.864l-5.736 16.92h-3.216l-3.792-10.992-3.792 10.992h-3.216zm28.477.12c-2.568 0-5.112-.864-7.128-2.688l2.184-2.616c1.536 1.248 3.096 2.04 5.016 2.04 1.536 0 2.424-.6 2.424-1.584v-.048c0-.936-.576-1.44-3.384-2.136-3.408-.84-5.568-1.824-5.568-5.136v-.048c0-3.048 2.424-5.064 5.88-5.064 2.472 0 4.512.768 6.24 2.136l-1.92 2.784c-1.512-1.032-2.928-1.656-4.368-1.656-1.44 0-2.16.624-2.16 1.464v.048c0 1.128.72 1.44 3.624 2.208 3.408.912 5.328 2.112 5.328 5.04v.048c0 3.336-2.544 5.208-6.168 5.208z" fill="#fff"/></svg>