<svg width="291" height="51" viewBox="0 0 291 51" fill="none" xmlns="http://www.w3.org/2000/svg"><g clip-path="url(#clip0_153_90)" fill="#fff"><path d="M9.714 10.785l.275.246-9.592 22.03H0l9.714-22.276zm-4.107 9.758h9.468v.37H5.607v-.37zM8.916 9.62h2.817L22.03 33.065H19.21L8.916 9.62zM23.405 21.343c0-6.813 5.148-11.936 11.98-11.936 6.83 0 11.95 5.279 11.95 11.907s-4.993 11.968-11.95 11.968c-6.958 0-11.98-5.123-11.98-11.935v-.004zm21.296 0c0-6.965-3.46-11.57-9.313-11.57-5.852 0-9.374 4.573-9.374 11.57s3.493 11.57 9.374 11.57S44.7 28.34 44.7 21.343zm-6.282 11.476l.336-.152c1.286 2.24 2.879 5.033 6.495 5.033 2.023 0 4.227-1.226 4.227-3.745h.368c0 2.761-2.453 4.114-4.595 4.114-3.923 0-5.516-2.945-6.831-5.246v-.004zM52.085 23.673V9.62h2.543v14.668c0 4.942 2.42 8.531 7.261 8.531s7.63-3.285 7.63-9.052V9.62h.368v14.085c0 6.17-3.309 9.574-8.301 9.574-6.344 0-9.497-3.191-9.497-9.606h-.004zM82.354 10.785l.274.246-9.591 22.034h-.397l9.714-22.28zm-4.104 9.758h9.468v.37H78.25v-.37zM81.559 9.62h2.818l10.295 23.445h-2.817L81.559 9.62zM103.924 9.62h6.372c3.706 0 6.741 1.506 6.77 5.033.029 3.958-2.757 5.89-9.837 5.89h-.704l-.062 12.519h-2.543V9.62h.004zm3.37 10.554c5.607 0 7.445-2.087 7.416-5.525-.028-3.039-1.564-4.663-4.992-4.663h-3.248l.062 10.188h.766-.004zm6.983 4.602c-1.409-2.793-1.777-4.233-4.873-4.233h-2.208v-.369h2.421c5.299 0 5.881 1.78 7.171 4.327l4.382 8.56h-2.695l-4.198-8.285zM123.651 9.62h2.544v23.445h-2.544V9.62zm.95 0h12.164v.37h-12.164v-.37zm0 8.959h10.632v.369h-10.632v-.37zm0 14.117h12.471v.37h-12.471v-.37zM138.665 26.191h.369c0 3.897 2.85 6.69 7.232 6.719 3.493 0 6.741-1.965 6.741-6.169 0-7.486-12.901-3.405-12.901-11.538 0-3.437 2.818-5.8 7.11-5.8 4.013 0 6.188 2.363 6.188 4.697h-.369c0-2.056-1.9-4.266-5.79-4.328-3.461-.061-5.914 1.628-5.914 4.02 0 6.628 12.991 2.855 12.991 11.324 0 5.247-3.645 8.163-8.027 8.163-4.628 0-7.63-2.884-7.63-7.088zM153.404 14.1c0 .89-.246 1.595-.52 2.026l-.307-.185c.274-.43.458-1.013.458-1.841h.369zM157.815 9.62h2.544v23.445h-2.544V9.62zm.951 0h12.163v.37h-12.163v-.37zm0 8.959h10.631v.369h-10.631v-.37zm0 14.117h12.47v.37h-12.47v-.37zM175.064 9.62h6.373c3.706 0 6.74 1.506 6.769 5.033.029 3.958-2.756 5.89-9.836 5.89h-.705l-.061 12.519h-2.543V9.62h.003zm3.371 10.554c5.606 0 7.445-2.087 7.416-5.525-.029-3.039-1.564-4.663-4.992-4.663h-3.248l.061 10.188h.766-.003zm6.983 4.602c-1.409-2.793-1.778-4.233-4.874-4.233h-2.207v-.369h2.42c5.3 0 5.882 1.78 7.171 4.327l4.382 8.56h-2.695l-4.197-8.285zM192.712 9.62h2.756l9.038 21.083h-.368l8.793-21.083h.397l-9.804 23.445h-.766L192.708 9.62h.004zM215.842 9.62h2.543v23.445h-2.543V9.62zm.95 0h12.163v.37h-12.163v-.37zm0 8.959h10.631v.369h-10.631v-.37zm0 14.117h12.47v.37h-12.47v-.37zM82.487 41v4.46h2.764v.316h-3.11V41h.346zM87.631 44.878c.12.203.282.362.495.47.21.11.448.167.715.167.268 0 .51-.054.723-.166.21-.109.376-.268.498-.47.12-.203.181-.442.181-.717V41h.34v3.184c0 .34-.076.633-.228.882a1.498 1.498 0 01-.621.568 1.94 1.94 0 01-.893.2 1.91 1.91 0 01-.885-.2 1.522 1.522 0 01-.621-.568 1.646 1.646 0 01-.228-.883V41h.347v3.162c0 .275.058.514.177.716zM95.716 45.78l-1.492-2.183-1.427 2.182h-.426l1.662-2.457L92.44 41h.433l1.42 2.066L95.65 41h.412l-1.586 2.34 1.676 2.435h-.44l.003.004zM98.48 44.878c.12.203.282.362.495.47.21.11.448.167.715.167.267 0 .509-.054.723-.166a1.25 1.25 0 00.498-.47 1.39 1.39 0 00.181-.717V41h.339v3.184c0 .34-.076.633-.227.882a1.5 1.5 0 01-.622.568c-.263.134-.56.2-.892.2a1.91 1.91 0 01-.885-.2 1.523 1.523 0 01-.621-.568 1.646 1.646 0 01-.228-.883V41h.347v3.162c0 .275.058.514.177.716zM106.547 45.78l-1.323-2.034a2.18 2.18 0 01-.375.025h-.781v2.005h-.346V41h1.152c.264 0 .52.05.762.148.246.098.445.25.596.452.156.203.232.453.232.753s-.073.553-.214.792c-.14.235-.361.409-.661.514l1.366 2.12H106.547zm-.737-2.646a1.11 1.11 0 00.296-.767 1.01 1.01 0 00-.56-.908 1.339 1.339 0 00-.625-.141h-.853v2.138h.759c.459 0 .788-.108.983-.322zM112.399 41l-1.882 3.075v1.704h-.347v-1.704L108.288 41h.426l1.64 2.706L111.98 41h.419zM120.975 45.993l-1.16-2.873L118.63 46l-1.99-4.986h.397l1.626 4.211.979-2.518-.683-1.697h.347l1.676 4.172 1.64-4.172h.368l-2.026 4.979.011.004zM127.076 44.198h-2.225l-.668 1.581h-.347l2.131-4.986h.029l2.132 4.986h-.391l-.661-1.581zm-.126-.311l-.972-2.348-.993 2.348h1.969-.004zM132.527 41v.314h-1.484v4.462h-.347v-4.462h-1.47V41h3.305-.004zM137.549 41v.315h-2.764v1.895h2.486v.315h-2.486v1.932h2.865v.315h-3.212v-4.776h3.111V41zM142.516 45.78l-1.322-2.034a2.185 2.185 0 01-.376.025h-.78v2.005h-.347V41h1.153c.264 0 .52.05.762.148.246.098.444.25.596.452.155.203.231.453.231.753s-.072.553-.213.792a1.201 1.201 0 01-.661.514l1.366 2.12H142.516zm-.737-2.646a1.11 1.11 0 00.297-.767 1.016 1.016 0 00-.56-.908 1.339 1.339 0 00-.625-.141h-.853v2.138h.759c.459 0 .787-.108.982-.322zM147.721 41v.314h-2.478v1.972h2.197v.311h-2.197v2.182h-.347v-4.776h2.829l-.004-.003zM152.541 45.78l-1.322-2.034a2.193 2.193 0 01-.376.025h-.78v2.005h-.347V41h1.152c.264 0 .52.05.762.148.246.098.445.25.597.452.155.203.231.453.231.753s-.073.553-.213.792a1.204 1.204 0 01-.662.514l1.366 2.12H152.541zm-.737-2.646a1.11 1.11 0 00.296-.767 1.003 1.003 0 00-.56-.908 1.339 1.339 0 00-.625-.141h-.852v2.138h.758c.459 0 .788-.108.983-.322zM154.9 42.175a2.56 2.56 0 01.939-.893c.394-.22.82-.333 1.286-.333.466 0 .896.112 1.293.333.397.22.712.52.947.894.231.376.346.781.346 1.222 0 .442-.115.847-.346 1.223-.232.377-.546.67-.947.887a2.649 2.649 0 01-1.293.325c-.466 0-.9-.105-1.293-.314a2.421 2.421 0 01-.936-.876 2.315 2.315 0 01-.343-1.245c0-.456.115-.846.347-1.223zm.303 2.284a2.218 2.218 0 001.911 1.056c.405 0 .784-.094 1.127-.282a2.14 2.14 0 00.813-.77c.199-.327.3-.681.3-1.068s-.101-.742-.304-1.068a2.262 2.262 0 00-1.929-1.067c-.404 0-.78.098-1.123.293-.34.196-.607.456-.802.785-.195.33-.293.68-.293 1.064 0 .383.101.734.3 1.056zM165.94 41v4.891h-.015l-3.887-4.146.008 4.03h-.34v-4.877h.022l3.887 4.18-.007-4.078h.332zM171.152 41v.314h-1.484v4.462h-.347v-4.462h-1.47V41h3.305-.004zM178.854 41v.314h-1.485v4.462h-.347v-4.462h-1.47V41h3.305-.003zM180.537 42.175c.231-.372.546-.672.939-.893.394-.22.821-.333 1.287-.333.466 0 .895.112 1.293.333.397.22.711.52.946.894.231.376.347.781.347 1.222 0 .442-.116.847-.347 1.223-.231.377-.545.67-.946.887a2.652 2.652 0 01-1.293.325c-.466 0-.9-.105-1.294-.314a2.419 2.419 0 01-.935-.876 2.307 2.307 0 01-.344-1.245c0-.456.116-.846.347-1.223zm.307 2.284a2.218 2.218 0 001.911 1.056c.405 0 .784-.094 1.127-.282.344-.188.615-.445.813-.77.199-.327.3-.681.3-1.068s-.101-.742-.303-1.068a2.278 2.278 0 00-.813-.777 2.234 2.234 0 00-1.116-.29c-.405 0-.781.098-1.124.293-.34.196-.607.456-.802.785-.195.33-.293.68-.293 1.064 0 .383.102.734.3 1.056zM190.898 45.993l-1.159-2.873-1.185 2.88-1.991-4.986h.398l1.625 4.211.979-2.518-.682-1.697h.346l1.677 4.172 1.64-4.172h.368l-2.026 4.979.01.004zM199.019 41v4.891h-.014l-3.888-4.146.008 4.03h-.34v-4.877h.022l3.887 4.18-.007-4.078h.332zM205.07 45.78h-.347v-2.248h-3.041v2.247h-.347v-4.776h.347v2.222h3.041v-2.222h.347v4.776zM207.414 42.175c.231-.372.546-.672.939-.893.394-.22.82-.333 1.286-.333.466 0 .896.112 1.294.333.397.22.711.52.946.894.231.376.347.781.347 1.222 0 .442-.116.847-.347 1.223-.231.377-.545.67-.946.887a2.655 2.655 0 01-1.294.325c-.466 0-.899-.105-1.293-.314a2.419 2.419 0 01-.935-.876 2.307 2.307 0 01-.344-1.245c0-.456.116-.846.347-1.223zm.307 2.284a2.218 2.218 0 001.911 1.056c.405 0 .784-.094 1.127-.282.344-.188.614-.445.813-.77.199-.327.3-.681.3-1.068s-.101-.742-.303-1.068a2.278 2.278 0 00-.813-.777 2.235 2.235 0 00-1.117-.29c-.404 0-.78.098-1.123.293-.34.196-.607.456-.802.785-.195.33-.293.68-.293 1.064 0 .383.102.734.3 1.056zM219.054 40.895v4.884h-.34v-3.922l-2.073 2.764h-.015l-2.059-2.731v3.89h-.339v-4.885h.007l2.402 3.238 2.417-3.238zM224.48 41v.315h-2.764v1.895h2.485v.315h-2.485v1.932h2.865v.315h-3.212v-4.776h3.111V41zM228.572 41.343a2.415 2.415 0 00-.61-.08c-.333 0-.596.077-.795.232a.727.727 0 00-.3.597c0 .17.054.315.159.434.108.12.242.217.408.297.166.08.38.167.64.26.285.098.52.2.708.305.188.105.343.242.473.42.126.176.191.404.191.683s-.065.5-.198.702a1.327 1.327 0 01-.557.474 1.907 1.907 0 01-.82.166c-.534 0-1.065-.163-1.593-.492l.163-.267c.173.126.39.235.647.329.256.094.505.14.744.14.213 0 .415-.039.607-.118a1.13 1.13 0 00.469-.359.935.935 0 00.181-.575.842.842 0 00-.166-.532 1.264 1.264 0 00-.419-.347 4.75 4.75 0 00-.636-.264 6.117 6.117 0 01-.705-.286 1.413 1.413 0 01-.466-.365.866.866 0 01-.187-.572c0-.228.061-.423.18-.597s.289-.308.506-.405a1.79 1.79 0 01.722-.152c.228 0 .463.029.708.087.246.057.459.133.651.22l-.134.257a3.72 3.72 0 00-.567-.195l-.004.003zM271.405 40.36a.294.294 0 00.38.159.29.29 0 00.155-.38l-.73-1.762c-.177.08-.354.151-.534.224l.729 1.762v-.004zM265.806 11.4a.27.27 0 00.047-.152V9.942a.29.29 0 00-.289-.289.29.29 0 00-.289.29v1.306c0 .057.022.104.047.151h.484zM265.571 41.542a.29.29 0 00-.289.29v3.477c0 .16.134.054.293.054v.235a.29.29 0 00.289-.29v-3.476c0-.16-.134-.29-.293-.29zM258.585 7.091a.289.289 0 00-.383-.148c-.149.065-.214.235-.149.384l2.226 5.108c.177-.072.357-.145.542-.21l-2.236-5.13v-.004zM272.883 42.414a.289.289 0 10-.534.225l1.054 2.55a.294.294 0 00.38.16.29.29 0 00.155-.38l-1.055-2.551v-.004zM280.838 19.454a.29.29 0 10-.224-.535l-2.175.9c.08.178.152.355.224.536l2.175-.9zM280.22 31.868a.292.292 0 00.224-.539l-1.777-.738c-.069.18-.145.358-.221.535l1.778.738-.004.004zM279.62 25.717a.268.268 0 00.152.047h6.701a.29.29 0 000-.579h-6.701a.298.298 0 00-.148.047v.485h-.004zM273.898 6.085a.29.29 0 10-.534-.224l-2.684 6.491c.18.069.357.145.534.22l2.684-6.49v.003zM248.965 25.185h-1.076a.29.29 0 010 .58h1.076a.29.29 0 000-.58zM246.574 17.283a.29.29 0 10-.224.536l6.116 2.536c.072-.18.144-.358.22-.535l-6.116-2.537h.004zM256.8 4.447a.291.291 0 00.383.148.29.29 0 00.148-.384l-.957-2.2a.288.288 0 00-.383-.148.29.29 0 00-.148.384l.957 2.2zM274.295 4.36a.292.292 0 00.379-.16l.676-1.628a.29.29 0 10-.535-.224l-.675 1.628a.29.29 0 00.155.38v.004zM265.564 8.184a.29.29 0 00.289-.29V.29a.29.29 0 00-.289-.289.29.29 0 00-.289.29v7.605c0 .159.13.289.289.289zM281.748 18.763a.292.292 0 00.379.16l6.788-2.815a.29.29 0 00-.224-.536l-6.788 2.815a.29.29 0 00-.155.38v-.004zM281.451 9.856a.287.287 0 00.206-.087l1.897-1.9a.29.29 0 00-.408-.409l-1.897 1.9a.29.29 0 00.206.496h-.004zM247.599 25.475c0-.16.13-.29.289-.29h-3.457a.29.29 0 000 .58h3.457a.29.29 0 01-.289-.29zM243.983 16.209l-1.391-.58a.29.29 0 10-.224.536l1.391.58a.292.292 0 00.224-.54v.004zM250.085 10.384a.298.298 0 00.411 0 .29.29 0 000-.41l-2.507-2.51a.29.29 0 00-.408.409l2.507 2.51h-.003z"/><path d="M247.889 25.764a.29.29 0 10-.001-.58.29.29 0 00.001.58zM242.148 25.185h-1.734a.29.29 0 000 .58h1.734a.29.29 0 000-.58zM275.708 15.728l3.833-3.839a.29.29 0 000-.409.29.29 0 00-.408 0L275.3 15.32c.137.134.274.271.408.412v-.003zM285.537 33.445l-3.873-1.606a.29.29 0 00-.224.535l3.873 1.607a.292.292 0 00.224-.54v.004zM279.877 39.4a.29.29 0 00-.408 0 .29.29 0 000 .41l1.419 1.421a.29.29 0 00.412 0 .29.29 0 000-.409l-1.419-1.422h-.004zM275.708 35.225c-.134.138-.271.275-.412.41l2.987 2.991c.058.058.13.084.206.084a.299.299 0 00.206-.084.29.29 0 000-.408l-2.987-2.993zM255.836 15.322l-3.24-3.245a.29.29 0 00-.408 0 .29.29 0 000 .409l3.24 3.245c.134-.14.271-.275.408-.409zM251.511 25.185h-.643a.29.29 0 000 .58h.643a13.965 13.965 0 010-.58zM287.459 34.245l-.881-.366a.29.29 0 10-.224.536l.881.365a.292.292 0 00.224-.54v.005zM290.711 25.185h-2.309a.29.29 0 000 .58h2.309a.29.29 0 000-.58zM278.02 20.308s.008.01.011.018c-.003-.01-.011-.022-.014-.032v.014h.003zM251.866 24.07c.13-1.265.43-2.474.87-3.603l-.267-.108a14.069 14.069 0 00-.892 3.687c-.04.38-.058.76-.065 1.143h.289c.007-.37.025-.738.065-1.114v-.004zM255.626 15.934l-.198-.2a14.104 14.104 0 00-2.739 4.09l.264.108a13.726 13.726 0 012.673-3.998zM266.966 11.755c1.264.13 2.471.43 3.598.872l.112-.271a14.153 14.153 0 00-3.681-.89c-.397-.04-.795-.062-1.188-.07a.281.281 0 01-.485-.003 13.935 13.935 0 00-4.501.821l.116.265a13.695 13.695 0 016.029-.728v.004zM271.098 38.102l.112.271a14.151 14.151 0 003.23-1.979c.296-.242.581-.5.852-.76l-.205-.206a13.838 13.838 0 01-3.992 2.674h.003zM278.392 20.467a13.79 13.79 0 010 10.015l.271.112c.455-1.169.755-2.406.888-3.687.04-.398.062-.796.069-1.19a.283.283 0 01-.141-.242c0-.105.058-.192.141-.243a13.978 13.978 0 00-.954-4.877l-.267.112h-.007zM275.502 35.02l.206.205a13.892 13.892 0 002.734-4.092l-.271-.112a13.788 13.788 0 01-2.673 3.998h.004zM275.09 15.525l.206-.206a13.874 13.874 0 00-4.085-2.739l-.112.271a13.691 13.691 0 013.991 2.678v-.004z"/><path d="M278.172 19.932l.007-.004.264-.108a14.181 14.181 0 00-1.977-3.235 14.368 14.368 0 00-.758-.854l-.206.207a13.787 13.787 0 012.67 3.998v-.004zM260.395 12.692l-.116-.26a14.169 14.169 0 00-4.443 2.89l.199.2a13.81 13.81 0 014.356-2.83h.004zM251.801 25.768h-.289c.007.369.025.738.061 1.103.015.16.159.275.318.26a.272.272 0 00.13-.05l-.159-.239c-.036-.354-.05-.712-.058-1.074h-.003zM264.162 39.194a13.622 13.622 0 01-5.126-1.574l-.159-.238a.297.297 0 00-.098.101.293.293 0 00.12.394 14.007 14.007 0 005.234 1.607 13.883 13.883 0 006.542-.886l-.112-.276c-1.972.771-4.15 1.1-6.401.872zM251.801 25.185h-.29a18.62 18.62 0 000 .58h.29c-.004-.193 0-.388 0-.58zM252.957 19.932l-.264-.109c-.076.177-.152.355-.22.536l.267.108c.069-.18.144-.358.22-.535h-.003zM275.708 35.225l-.206-.206c-.134.141-.271.275-.408.409l.206.206c.141-.134.278-.271.411-.409h-.003z"/><path d="M256.038 15.525l-.199-.199c-.141.134-.275.271-.408.409l.198.199c.134-.141.271-.275.409-.409zM270.563 38.322l.112.275c.181-.068.358-.144.535-.224l-.112-.271c-.177.08-.354.152-.535.22zM265.564 11.538a.286.286 0 00.242-.138h-.484a.284.284 0 00.242.142v-.004zM278.172 31.021l.271.112c.076-.177.152-.354.22-.535l-.271-.112c-.068.18-.144.358-.22.535zM275.502 15.934l.206-.206a15.59 15.59 0 00-.408-.413l-.206.206c.141.134.274.272.408.41v.003zM278.172 19.932c.076.177.152.354.22.535h.007l.268-.112c-.069-.18-.145-.358-.224-.535l-.264.108-.007.004zM271.102 12.848l.112-.272c-.177-.076-.354-.152-.535-.22l-.112.27c.181.07.362.146.535.222zM260.937 12.486l-.116-.264c-.18.065-.361.137-.542.21l.116.26c.181-.072.358-.145.542-.21v.004zM279.479 25.475c0 .105.059.191.142.242v-.485a.284.284 0 00-.142.243zM252.148 26.813a13.976 13.976 0 01-.058-1.045h-.289c.007.361.025.72.058 1.074l.159.24a.289.289 0 00.13-.269z"/><path d="M278.171 19.932a13.786 13.786 0 00-2.669-3.998l-.206.206a13.535 13.535 0 012.72 4.157.29.29 0 01.155-.362v-.003zM252.956 19.932l.271.112a13.498 13.498 0 012.612-3.9l-.21-.21a13.808 13.808 0 00-2.673 3.998zM264.162 39.194a13.64 13.64 0 006.401-.872l-.108-.264c-1.965.77-4.1 1.068-6.264.847a13.376 13.376 0 01-5.018-1.538.282.282 0 00-.296.018l.159.239a13.753 13.753 0 005.126 1.574v-.004zM274.075 35.945a13.531 13.531 0 01-3.085 1.892l.109.265a13.743 13.743 0 003.991-2.674l-.206-.206c-.26.25-.527.492-.809.72v.003zM279.263 26.878a13.694 13.694 0 00-.871-6.41.268.268 0 01-.104.021.294.294 0 01-.257-.16 13.439 13.439 0 01.943 6.52 13.698 13.698 0 01-.845 3.524l.267.11c.441-1.133.741-2.338.871-3.605h-.004zM277.908 30.909a13.395 13.395 0 01-2.608 3.904l.202.202a13.767 13.767 0 002.673-3.998l-.267-.108zM256.038 15.525l.21.21a13.494 13.494 0 014.266-2.768l-.119-.271a13.8 13.8 0 00-4.357 2.829zM251.866 24.07c-.04.373-.058.746-.065 1.115h.289a13.492 13.492 0 01.914-4.61l-.271-.111a13.789 13.789 0 00-.871 3.603l.004.004zM271.102 12.848l-.109.267a13.354 13.354 0 013.898 2.613l.202-.203a13.763 13.763 0 00-3.991-2.677zM266.966 11.755a13.695 13.695 0 00-6.029.727l.119.272a13.315 13.315 0 015.881-.71c1.224.127 2.402.417 3.518.847l.109-.268a13.753 13.753 0 00-3.598-.872v.004zM274.888 35.222l.206.206c.14-.134.274-.271.408-.409l-.202-.203c-.134.138-.271.276-.412.41v-.004z"/><path d="M252.736 20.467l.271.113c.069-.181.145-.359.221-.536l-.271-.112c-.076.177-.152.355-.221.535zM251.801 25.768h.289a13.965 13.965 0 010-.58h-.289c-.004.196-.004.388 0 .58zM260.395 12.692l.119.271c.18-.072.357-.144.542-.21l-.12-.27c-.18.064-.361.137-.541.21zM270.563 12.627l-.108.268c.181.068.358.144.535.22l.108-.267c-.177-.076-.354-.152-.535-.221zM270.455 38.058l.108.264c.181-.068.358-.144.535-.22l-.108-.264c-.177.08-.354.151-.535.224v-.004zM255.626 15.934l.21.21c.133-.141.27-.275.408-.41l-.21-.209c-.141.134-.274.271-.408.409zM275.09 15.525l-.202.203c.137.133.274.271.408.412l.206-.206a15.429 15.429 0 00-.408-.409h-.004zM278.287 20.49a.274.274 0 00.105-.023c-.069-.18-.145-.358-.221-.535a.288.288 0 00-.155.362c.004.01.011.021.015.032.05.098.148.16.256.16v.003zM278.392 30.486l-.267-.109c-.069.181-.145.358-.221.536l.268.108c.076-.177.151-.355.22-.535z"/><path d="M265.564 50.953c-14.027 0-25.435-11.43-25.435-25.475C240.129 11.433 251.541 0 265.564 0 279.588 0 291 11.43 291 25.475c0 14.045-11.412 25.474-25.436 25.474v.004zm0-50.374c-13.705 0-24.857 11.169-24.857 24.896s11.152 24.895 24.857 24.895c13.706 0 24.858-11.168 24.858-24.895S279.27.579 265.564.579z"/><path d="M290.718 25.779a.29.29 0 00-.304.275c-.043.825-.386 2.33-.997 4.352a23.44 23.44 0 01-1.752 4.28c-5.516 10.348-12.907 11.01-16.878 11.238-5.183.3-11.444-2.203-12.015-9.584-.231-3.003.34-5.304 1.705-6.835a7.49 7.49 0 012.132-1.65c.271-.14 1.08-.499.05-.987-.379-.181-1.123-.344-1.535-.43-.39-.084-.784-.156-1.181-.218a27.494 27.494 0 00-1.153-.16 25.06 25.06 0 00-1.127-.1 18.874 18.874 0 00-1.098-.04 19.453 19.453 0 00-2.117.094 16.559 16.559 0 00-2.973.575 15.855 15.855 0 00-1.846.673c-.3.134-.592.271-.881.42a16.33 16.33 0 00-.856.477c-.282.167-.56.348-.828.536-.267.188-.542.387-.802.59a14.83 14.83 0 00-.773.647 23.05 23.05 0 00-.748.702 21.397 21.397 0 00-2.716 3.365c-.04.058-.076.12-.116.177a.291.291 0 00.488.315c1.709-2.652 3.844-4.682 6.343-6.035 3.718-2.008 8.125-2.478 13.125-1.404-8.725.282-12.391 4.226-13.836 6.686a12.082 12.082 0 00-1.373 8.546.286.286 0 00.282.228c.022 0 .04 0 .061-.007a.291.291 0 00.224-.344 11.506 11.506 0 011.304-8.13c1.304-2.228 4.53-5.72 12.023-6.324-3.067 1.212-5.426 3.922-6.622 6.65-1.752 3.99-2.07 9.592 1.17 13.105.459.499.99.947 1.575 1.335 2.486 1.642 5.47 2.21 8.41 2.21 2.59 0 5.148-.441 7.298-.977a.288.288 0 00.209-.35.287.287 0 00-.35-.21c-8.1 2.019-12.763.488-15.249-1.155a7.878 7.878 0 01-1.466-1.244c-2.207-2.395-3.392-7.182-1.066-12.479 1.214-2.764 3.663-5.51 6.846-6.538a6.26 6.26 0 00-1.25 1.064c-1.478 1.654-2.103 4.1-1.857 7.272.26 3.369 1.73 6.068 4.245 7.808 1.983 1.371 4.598 2.269 7.431 2.269.317 0 .639-.011.96-.03 3.794-.22 11.676-.839 17.344-11.476a24.233 24.233 0 001.795-4.385c.434-1.44.965-3.39 1.019-4.49a.291.291 0 00-.274-.304v-.003z"/><path d="M270.603 15.72c-1.275 1.042-2.333 2.28-3.323 3.579l.018.025c.029-.015.058-.025.083-.04.332-.217.665-.434 1.044-.546.726-.217 1.452-.409 2.211-.398a4.78 4.78 0 011.441.242c.52.174.972.46 1.395.8.054.043.112.087.159.152-.029 0-.062.003-.091 0-.245-.044-.484-.12-.733-.12-.773-.003-1.55.018-2.312.167-.477.094-.954.188-1.427.304-.329.08-.647.188-.972.282-.011 0-.021.01-.058.032.055.019.091.037.127.044.6.105 1.17.282 1.716.543a5.5 5.5 0 011.712 1.291c.351.391.639.825.806 1.32.076.232.115.471.169.71.019.087.029.177.04.268-.007.003-.014.01-.021.014-.033-.032-.066-.061-.094-.098a5.963 5.963 0 00-.871-.908 7.83 7.83 0 00-1.532-.984 10.436 10.436 0 00-1.647-.662c-.354-.108-.715-.192-1.073-.286-.04-.01-.087-.003-.13-.007 0 .007-.004.015-.007.025.065.055.13.105.195.16a3.798 3.798 0 011.275 1.885c.224.727.22 1.465.148 2.21l-.021.188c-.008 0-.019 0-.026.004-.043-.123-.09-.246-.13-.369a5.994 5.994 0 00-.361-.894c-.365-.694-.78-1.353-1.362-1.881a2.947 2.947 0 00-.813-.532c-.097-.043-.112-.032-.112.08 0 .26-.007.524-.003.785.007 1.396.007 2.793.032 4.19.018 1.016.062 2.03.105 3.042.036.829.079 1.657.134 2.486.047.702.108 1.404.166 2.106.032.401.068.803.112 1.2.054.49.112.974.173 1.463.043.336.098.669.141 1.005.011.087.054.41.134.41.603 0 1.206-.301 1.806-.301h.126c.091.007.145.065.145.144 0 .084-.058.145-.152.149h-6.986c-.08-.007-.127-.054-.127-.141s.044-.141.127-.152c.032-.004.068 0 .101 0 .686 0 .769.3 1.452.3.087 0 .762-.065.773-.152.054-.383.108-1.067.155-1.45a98.6 98.6 0 00.167-1.426c.043-.409.083-.818.112-1.23.057-.731.108-1.466.158-2.197a46.52 46.52 0 00.091-1.624c.054-1.483.112-2.967.144-4.45.029-1.371.018-2.743.026-4.117 0-.152-.029-.163-.17-.095-.542.26-.965.662-1.33 1.133a7.485 7.485 0 00-1.127 2.058c-.05.142-.097.283-.144.424-.007.018-.022.032-.04.065-.007-.033-.014-.047-.014-.065-.015-.43-.062-.865-.04-1.295.043-.883.314-1.69.881-2.381.203-.25.437-.463.694-.659a.172.172 0 00.065-.086c-.036 0-.072-.008-.105 0-.383.1-.766.188-1.141.31-.394.131-.788.276-1.167.442-.882.38-1.691.872-2.37 1.563-.163.163-.303.348-.455.525l-.105.112c-.004-.04-.011-.062-.011-.08a3.683 3.683 0 01.766-1.953c.546-.699 1.214-1.249 2.023-1.61a6.4 6.4 0 011.622-.503c.043-.008.083-.022.127-.037V20.2c-.058-.021-.116-.047-.174-.065-.448-.123-.896-.256-1.347-.361-.416-.095-.835-.16-1.257-.228a7.715 7.715 0 00-1.5-.109c-.372.01-.744.054-1.116.087-.047.003-.094.022-.141.029a.17.17 0 01-.04-.011c.022-.025.037-.043.055-.058.303-.228.599-.467.939-.644.314-.163.647-.282.99-.365a4.723 4.723 0 011.687-.084c.202.026.401.066.599.109.47.105.936.224 1.366.445.22.116.433.25.647.373.014.007.028.018.047.029.007-.116-.795-1.115-1.521-1.91a17.625 17.625 0 00-1.778-1.708c.011-.026 0 .003.011-.022a7.506 7.506 0 012.146.84 6.23 6.23 0 011.987 1.823c.04.054.072.112.108.166.015.022.04.036.076.073.007-.058.015-.095.015-.127.036-.543.057-1.09.115-1.632a11.26 11.26 0 01.358-1.928c.047-.167.101-.333.152-.496.01-.029.032-.05.065-.076.494 1.371.61 2.804.697 4.248a6.34 6.34 0 011.875-1.874 6.73 6.73 0 012.442-.995l.003-.008z"/></g><defs><clipPath id="clip0_153_90"><path fill="#fff" d="M0 0h291v51H0z"/></clipPath></defs></svg>