<svg width="280" height="44" viewBox="0 0 280 44" fill="none" xmlns="http://www.w3.org/2000/svg"><path d="M.37.988c2.44 0 4.862-.01 7.265-.029 2.422-.02 4.638-.04 6.65-.059a243.5 243.5 0 005.156-.146c1.426-.059 2.393-.137 2.9-.234l-1.435 3.896a21.505 21.505 0 00-2.256-.469 42.637 42.637 0 00-2.724-.322c-1.055-.117-2.276-.176-3.662-.176-.47 0-1.035.02-1.7.059-.644.02-1.27.049-1.875.088l-2.138.117v15.996c2.011-.02 3.828-.078 5.449-.176 1.621-.098 2.998-.195 4.13-.293 1.329-.117 2.5-.254 3.517-.41l-.909 4.248a217.972 217.972 0 00-4.13-.498 90.673 90.673 0 00-3.956-.351 50.12 50.12 0 00-4.101-.176v18.369c2.304 0 4.424-.098 6.357-.293a70.856 70.856 0 005.069-.674 47.219 47.219 0 004.6-.967l-.85 4.746c-.235-.02-.586-.039-1.055-.058a436.149 436.149 0 00-3.399-.117c-.625 0-1.22-.01-1.787-.03-.566 0-1.074-.01-1.523-.029H.369v-.117c.117-.41.225-.918.322-1.524.118-.605.215-1.357.293-2.256.079-.898.137-1.962.176-3.193.04-1.25.059-2.705.059-4.365V12.473c0-1.66-.02-3.106-.059-4.336a59.334 59.334 0 00-.176-3.223A22.335 22.335 0 00.691 2.63 13.478 13.478 0 00.37 1.105V.988zm35.595 39.434c2.304 0 4.424-.098 6.357-.293a70.845 70.845 0 005.069-.674 47.213 47.213 0 004.6-.967l-.85 4.746c-.235-.02-.586-.039-1.055-.058a436.709 436.709 0 00-3.398-.117c-.625 0-1.221-.01-1.788-.03-.566 0-1.074-.01-1.523-.029H29.783v-.117c.117-.41.225-.918.322-1.524.118-.605.215-1.357.293-2.256.079-.898.137-1.962.176-3.193.04-1.25.059-2.705.059-4.365V12.473c0-1.66-.02-3.106-.059-4.336a59.185 59.185 0 00-.176-3.223 22.327 22.327 0 00-.293-2.285 13.484 13.484 0 00-.322-1.524V.988h7.032v.117c-.118.41-.235.918-.352 1.524a31.587 31.587 0 00-.264 2.285c-.058.899-.117 1.973-.176 3.223-.039 1.23-.058 2.675-.058 4.336v27.949zM57.38.988c2.441 0 4.863-.01 7.266-.029A4071 4071 0 0071.297.9a243.5 243.5 0 005.156-.146c1.426-.059 2.393-.137 2.9-.234l-1.435 3.896a21.512 21.512 0 00-2.256-.469 42.637 42.637 0 00-2.725-.322c-1.054-.117-2.275-.176-3.662-.176-.468 0-1.035.02-1.699.059-.644.02-1.27.049-1.875.088l-2.138.117v15.996c2.011-.02 3.828-.078 5.449-.176 1.62-.098 2.998-.195 4.13-.293 1.329-.117 2.5-.254 3.516-.41l-.908 4.248a217.972 217.972 0 00-4.13-.498 90.682 90.682 0 00-3.956-.351 50.124 50.124 0 00-4.102-.176v18.369c2.305 0 4.424-.098 6.358-.293a70.848 70.848 0 005.068-.674 47.213 47.213 0 004.6-.967l-.85 4.746c-.234-.02-.586-.039-1.054-.058a436.709 436.709 0 00-3.398-.117c-.626 0-1.222-.01-1.788-.03-.566 0-1.074-.01-1.523-.029H57.38v-.117c.117-.41.224-.918.322-1.524a22.36 22.36 0 00.293-2.256c.078-.898.137-1.962.176-3.193.039-1.25.059-2.705.059-4.365V12.473c0-1.66-.02-3.106-.06-4.336a59.388 59.388 0 00-.175-3.223 22.324 22.324 0 00-.293-2.285 13.486 13.486 0 00-.322-1.524V.988zm66.387 37.09c0 .215-.03.44-.088.674a.976.976 0 01-.323.586 23.265 23.265 0 01-2.871 1.846 22.216 22.216 0 01-3.31 1.435c-1.192.41-2.481.723-3.867.938a26.215 26.215 0 01-4.424.351c-3.555 0-6.797-.517-9.727-1.553-2.93-1.054-5.449-2.539-7.558-4.453-2.09-1.914-3.711-4.209-4.864-6.884-1.152-2.696-1.728-5.684-1.728-8.965 0-1.856.234-3.682.703-5.479a22.154 22.154 0 012.11-5.127 20.706 20.706 0 013.398-4.453 21.691 21.691 0 014.6-3.545c1.738-.996 3.642-1.767 5.712-2.314 2.09-.567 4.346-.85 6.768-.85.937 0 1.894.049 2.871.147.976.078 1.943.205 2.9.38.957.157 1.875.352 2.754.586.899.235 1.748.498 2.549.791l1.992 5.42-.234.118a16.34 16.34 0 00-2.637-1.905 20.893 20.893 0 00-6.767-2.52 18.516 18.516 0 00-3.75-.38c-2.461 0-4.717.39-6.768 1.172-2.05.761-3.818 1.875-5.303 3.34-1.465 1.464-2.607 3.261-3.428 5.39-.82 2.13-1.23 4.551-1.23 7.266 0 2.988.39 5.762 1.172 8.32.781 2.559 1.943 4.775 3.486 6.65 1.543 1.875 3.467 3.35 5.772 4.424 2.324 1.055 5.029 1.582 8.115 1.582 1.367 0 2.588-.107 3.662-.322 1.074-.215 1.983-.478 2.725-.79.742-.333 1.299-.684 1.67-1.056.39-.39.586-.742.586-1.054V36.7c0-1.367-.02-2.549-.059-3.545a38.468 38.468 0 00-.176-2.578 25.39 25.39 0 00-.263-1.904 13.464 13.464 0 00-.352-1.465v-.117h7.031v.117c-.117.41-.234.898-.351 1.465a26.824 26.824 0 00-.264 1.963c-.078.761-.137 1.66-.176 2.695a93.862 93.862 0 00-.058 3.545v1.201zM160.975 43v-.117a1.7 1.7 0 00.087-.44c.02-.195.03-.37.03-.527a8.47 8.47 0 00-.264-1.992c-.156-.742-.469-1.66-.937-2.754l-3.545-7.969c-1.094-.039-2.549-.058-4.366-.058H141.609c-1.425 0-2.714.02-3.867.058l-3.369 7.734c-.293.723-.605 1.514-.937 2.374a7.184 7.184 0 00-.498 2.607c0 .254.019.469.058.645.039.156.078.263.117.322V43h-5.976v-.117c.351-.371.791-1.026 1.318-1.963.527-.957 1.104-2.148 1.729-3.574L146.971.109h2.343l15.909 35.801c.371.84.752 1.66 1.142 2.461.41.781.791 1.484 1.143 2.11.351.624.664 1.152.937 1.581.274.43.459.704.557.82V43h-8.027zM141.99 26.623h3.487c1.191-.02 2.353-.03 3.486-.03 1.152-.019 2.256-.029 3.31-.029 1.055-.02 2.012-.039 2.872-.058l-8.233-18.604-8.086 18.721h3.164zM174.275.988l30.176 32.11V12.473c0-1.66-.019-3.106-.058-4.336a59.367 59.367 0 00-.176-3.223 22.352 22.352 0 00-.293-2.285 13.602 13.602 0 00-.322-1.524V.988h5.214v.117c-.117.41-.224.918-.322 1.524a31.908 31.908 0 00-.264 2.285 59.475 59.475 0 00-.175 3.223c-.039 1.23-.059 2.675-.059 4.336v31.113h-1.025l-30.176-32.08v20.039c0 1.66.019 3.115.059 4.365.039 1.23.097 2.295.175 3.194.078.898.166 1.65.264 2.255.098.606.205 1.114.322 1.524V43H172.4v-.117c.118-.41.225-.918.323-1.524.117-.605.215-1.357.293-2.256.078-.898.136-1.962.175-3.193.039-1.25.059-2.705.059-4.365V12.473c0-1.66-.02-3.106-.059-4.336a59.475 59.475 0 00-.175-3.223 22.352 22.352 0 00-.293-2.285 13.359 13.359 0 00-.323-1.524V.988h1.875zm76.7 6.446l-.264.117c-1.523-1.406-3.359-2.53-5.508-3.37-2.129-.84-4.473-1.26-7.031-1.26-2.461 0-4.717.392-6.768 1.173-2.05.761-3.818 1.875-5.302 3.34-1.465 1.464-2.608 3.261-3.428 5.39-.82 2.13-1.231 4.551-1.231 7.266 0 2.988.391 5.781 1.172 8.379.781 2.578 1.944 4.814 3.487 6.709 1.543 1.894 3.466 3.388 5.771 4.482 2.324 1.074 5.029 1.612 8.115 1.612 1.114 0 2.227-.118 3.34-.352a16.025 16.025 0 003.193-1.026 16.962 16.962 0 002.901-1.67 15.196 15.196 0 002.49-2.255l.322.205-2.343 5.976c-1.465.567-3.086.997-4.864 1.29a30.395 30.395 0 01-5.332.468c-3.613 0-6.924-.517-9.931-1.553-2.989-1.054-5.567-2.539-7.735-4.453-2.148-1.914-3.828-4.209-5.039-6.884-1.191-2.696-1.787-5.684-1.787-8.965 0-1.856.235-3.682.703-5.479a22.186 22.186 0 012.11-5.127 20.694 20.694 0 013.398-4.453 21.699 21.699 0 014.6-3.545c1.738-.996 3.642-1.767 5.713-2.314 2.089-.567 4.345-.85 6.767-.85 3.77 0 7.266.576 10.488 1.729l1.993 5.42zm6.621-6.446c2.441 0 4.863-.01 7.265-.029 2.422-.02 4.639-.04 6.651-.059 2.011-.039 3.73-.088 5.156-.146 1.426-.059 2.393-.137 2.9-.234l-1.435 3.896a21.558 21.558 0 00-2.256-.469 42.565 42.565 0 00-2.725-.322c-1.054-.117-2.275-.176-3.662-.176-.469 0-1.035.02-1.699.059-.645.02-1.27.049-1.875.088l-2.139.117v15.996c2.012-.02 3.828-.078 5.45-.176 1.621-.098 2.998-.195 4.13-.293a55.47 55.47 0 003.516-.41l-.908 4.248a218.577 218.577 0 00-4.131-.498 90.654 90.654 0 00-3.955-.351 50.13 50.13 0 00-4.102-.176v18.369c2.305 0 4.424-.098 6.358-.293a70.858 70.858 0 005.068-.674 47.222 47.222 0 004.6-.967l-.85 4.746c-.234-.02-.586-.039-1.055-.058a431.438 431.438 0 00-3.398-.117 52 52 0 01-1.787-.03c-.567 0-1.074-.01-1.524-.029h-13.593v-.117c.117-.41.224-.918.322-1.524.117-.605.215-1.357.293-2.256.078-.898.137-1.962.176-3.193.039-1.25.058-2.705.058-4.365V12.473c0-1.66-.019-3.106-.058-4.336a59.367 59.367 0 00-.176-3.223 22.352 22.352 0 00-.293-2.285 13.602 13.602 0 00-.322-1.524V.988z" fill="#fff"/></svg>