<svg width="252" height="44" viewBox="0 0 252 44" fill="none" xmlns="http://www.w3.org/2000/svg"><path d="M6.701 40.422c2.305 0 4.424-.098 6.358-.293a70.856 70.856 0 005.068-.674 47.225 47.225 0 004.6-.967l-.85 4.746c-.234-.02-.586-.039-1.055-.058a436.149 436.149 0 00-3.398-.117c-.625 0-1.22-.01-1.787-.03-.567 0-1.075-.01-1.524-.029H.52v-.117c.117-.41.224-.918.322-1.524.117-.605.215-1.357.293-2.256a59.22 59.22 0 00.176-3.193c.039-1.25.058-2.705.058-4.365V12.473c0-1.66-.02-3.106-.058-4.336a59.34 59.34 0 00-.176-3.223A22.337 22.337 0 00.842 2.63 13.478 13.478 0 00.52 1.105V.988h7.03v.117c-.116.41-.234.918-.35 1.524a31.623 31.623 0 00-.264 2.285 180.04 180.04 0 00-.176 3.223c-.04 1.23-.059 2.675-.059 4.336v27.949zm21.68 2.46c.117-.41.224-.917.322-1.523.098-.605.186-1.357.264-2.256.078-.898.137-1.962.176-3.193.039-1.25.058-2.705.058-4.365V12.473c0-1.66-.02-3.106-.058-4.336a59.388 59.388 0 00-.176-3.223 31.587 31.587 0 00-.264-2.285 13.486 13.486 0 00-.322-1.524V.988h7.002v.117c-.117.41-.235.918-.352 1.524a31.651 31.651 0 00-.263 2.285c-.059.899-.118 1.973-.176 3.223-.04 1.23-.059 2.675-.059 4.336v19.072c0 1.66.02 3.115.059 4.365.058 1.23.117 2.295.176 3.194.078.898.166 1.65.263 2.255.117.606.235 1.114.352 1.524V43H28.38v-.117zm21.855-11.337c0 1.66.02 3.115.059 4.365.058 1.23.117 2.295.176 3.194.078.898.166 1.65.263 2.255.118.606.235 1.114.352 1.524V43h-7.031v-.117c.117-.41.224-.918.322-1.524.117-.605.215-1.357.293-2.256.078-.898.137-1.962.176-3.193.039-1.25.058-2.705.058-4.365V12.473c0-1.66-.02-3.106-.058-4.336a59.388 59.388 0 00-.176-3.223 22.355 22.355 0 00-.293-2.285 13.484 13.484 0 00-.322-1.524V.988h4.922C50.637.968 52.248.96 53.81.96L58.264.9a364.9 364.9 0 013.808-.088c1.133-.039 2.09-.078 2.871-.117.782-.058 1.338-.117 1.67-.175l-1.435 3.896a21.51 21.51 0 00-2.256-.469 42.637 42.637 0 00-2.725-.322c-1.054-.117-2.275-.176-3.662-.176-.469 0-1.054.02-1.758.059-.703.02-1.396.049-2.08.088-.781.039-1.601.078-2.46.117v14.795c2.011-.02 3.857-.078 5.536-.176 1.68-.098 3.125-.195 4.336-.293a71.585 71.585 0 003.809-.41l-.879 4.248a282.23 282.23 0 00-4.453-.498 104.917 104.917 0 00-4.16-.352 53.425 53.425 0 00-4.19-.175v10.693zM72.004.988c2.441 0 4.863-.01 7.265-.029A4071 4071 0 0085.92.9C87.933.861 89.65.812 91.077.754c1.426-.059 2.393-.137 2.9-.234l-1.435 3.896a21.51 21.51 0 00-2.256-.469 42.632 42.632 0 00-2.724-.322c-1.055-.117-2.276-.176-3.663-.176-.468 0-1.035.02-1.699.059-.644.02-1.27.049-1.875.088l-2.138.117v15.996c2.011-.02 3.828-.078 5.449-.176a164.18 164.18 0 004.13-.293 55.49 55.49 0 003.516-.41l-.908 4.248a217.96 217.96 0 00-4.13-.498 90.687 90.687 0 00-3.956-.351 50.124 50.124 0 00-4.102-.176v18.369c2.305 0 4.424-.098 6.358-.293a70.845 70.845 0 005.068-.674 47.213 47.213 0 004.6-.967l-.85 4.746c-.234-.02-.586-.039-1.054-.058a436.709 436.709 0 00-3.398-.117c-.626 0-1.221-.01-1.788-.03-.566 0-1.074-.01-1.523-.029H72.004v-.117c.117-.41.224-.918.322-1.524.117-.605.215-1.357.293-2.256.078-.898.137-1.962.176-3.193.039-1.25.058-2.705.058-4.365V12.473c0-1.66-.019-3.106-.058-4.336a59.185 59.185 0 00-.176-3.223 22.327 22.327 0 00-.293-2.285 13.484 13.484 0 00-.322-1.524V.988zm46.934 6.68h-.645c-.156-.45-.41-.957-.762-1.523a6.325 6.325 0 00-1.347-1.582c-.547-.508-1.221-.928-2.022-1.26-.781-.332-1.709-.498-2.783-.498-.957 0-1.807.146-2.549.44a5.228 5.228 0 00-1.875 1.23 5.322 5.322 0 00-1.113 1.875c-.254.722-.381 1.523-.381 2.402 0 1.406.391 2.754 1.172 4.043.801 1.27 1.797 2.53 2.988 3.78a71.247 71.247 0 003.867 3.75 48.344 48.344 0 013.867 3.896 21.579 21.579 0 012.959 4.248 9.736 9.736 0 011.202 4.746c0 1.27-.225 2.549-.674 3.838a9.714 9.714 0 01-2.022 3.428c-.918 1.015-2.099 1.845-3.545 2.49-1.445.625-3.164.937-5.156.937-1.113 0-2.178-.107-3.193-.322a21.349 21.349 0 01-2.783-.733 21.102 21.102 0 01-2.286-.996 17.389 17.389 0 01-1.64-.966l.674-6.475h.732a9.537 9.537 0 001.055 2.637 9.68 9.68 0 001.787 2.197 9.304 9.304 0 002.461 1.523c.918.371 1.924.557 3.017.557.996 0 1.885-.146 2.666-.44.801-.312 1.485-.732 2.051-1.26a5.415 5.415 0 001.289-1.933 6.195 6.195 0 00.469-2.431c0-1.23-.225-2.364-.674-3.399a13.025 13.025 0 00-1.787-2.988 23.02 23.02 0 00-2.49-2.725 124.843 124.843 0 00-2.842-2.636 94.495 94.495 0 01-2.871-2.754 24.028 24.028 0 01-2.49-2.989 16.213 16.213 0 01-1.758-3.427c-.449-1.23-.674-2.579-.674-4.043 0-1.543.293-2.93.879-4.16a10.244 10.244 0 012.373-3.194A10.757 10.757 0 01107.453.93a10.927 10.927 0 013.867-.703c.977 0 1.875.078 2.696.234.82.156 1.552.342 2.197.557.664.214 1.24.43 1.728.644l1.202.527-.205 5.479zm20.83-4.102c-2.305 0-4.385.108-6.241.323-1.855.195-3.457.41-4.804.644a46.676 46.676 0 00-4.19.967l.85-4.746c.234.02.586.039 1.055.058.468.02.986.04 1.552.06l1.817.058c.644 0 1.25.01 1.816.029.566 0 1.065.01 1.494.03h18.633c.449-.02.957-.03 1.523-.03.567-.02 1.163-.03 1.788-.03a437.2 437.2 0 003.398-.117c.469-.019.82-.039 1.055-.058l.849 4.746a49.12 49.12 0 00-4.218-.967 73.412 73.412 0 00-4.805-.644c-1.856-.215-3.936-.323-6.24-.323v27.979c0 1.66.019 3.115.058 4.365.059 1.23.117 2.295.176 3.194.078.898.166 1.65.264 2.255.117.606.234 1.114.351 1.524V43h-7.002v-.117c.117-.41.225-.918.323-1.524.097-.605.185-1.357.263-2.256.078-.898.137-1.962.176-3.193.039-1.25.059-2.705.059-4.365V3.566zm41.923 19.278v8.7c0 1.661.02 3.116.059 4.366.039 1.23.098 2.295.176 3.194.078.898.166 1.65.263 2.255.118.606.235 1.114.352 1.524V43h-7.031v-.117c.117-.41.224-.918.322-1.524.117-.605.205-1.357.264-2.256.078-.898.136-1.962.175-3.193a94.03 94.03 0 00.088-4.365V23.43L163.264 5.617a25.342 25.342 0 00-1.348-1.67 16.89 16.89 0 00-1.23-1.318c-.391-.39-.743-.713-1.055-.967a10.59 10.59 0 00-.733-.557V.988h8.877c0 .45.186 1.192.557 2.227.391 1.015 1.084 2.217 2.08 3.603l9.609 13.155 9.405-13.74c.332-.489.664-.987.996-1.495.332-.508.635-.996.908-1.465.274-.468.488-.898.645-1.289.175-.39.263-.722.263-.996h5.713v.117c-.43.372-1.006.928-1.728 1.67-.723.723-1.504 1.69-2.344 2.9l-12.188 17.169zm26.338 17.578c2.305 0 4.424-.098 6.358-.293a70.858 70.858 0 005.068-.674 47.222 47.222 0 004.6-.967l-.85 4.746c-.234-.02-.586-.039-1.055-.058a436.981 436.981 0 00-3.398-.117 52 52 0 01-1.787-.03c-.567 0-1.074-.01-1.524-.029h-13.593v-.117c.117-.41.224-.918.322-1.524.117-.605.215-1.357.293-2.256.078-.898.137-1.962.176-3.193.039-1.25.058-2.705.058-4.365V12.473c0-1.66-.019-3.106-.058-4.336a59.367 59.367 0 00-.176-3.223 22.352 22.352 0 00-.293-2.285 13.602 13.602 0 00-.322-1.524V.988h7.031v.117c-.117.41-.234.918-.352 1.524a31.983 31.983 0 00-.263 2.285c-.059.899-.118 1.973-.176 3.223-.039 1.23-.059 2.675-.059 4.336v27.949zM229.445.988c2.442 0 4.864-.01 7.266-.029 2.422-.02 4.639-.04 6.65-.059 2.012-.039 3.731-.088 5.157-.146 1.425-.059 2.392-.137 2.9-.234l-1.436 3.896a21.48 21.48 0 00-2.255-.469 42.741 42.741 0 00-2.725-.322c-1.055-.117-2.275-.176-3.662-.176-.469 0-1.035.02-1.699.059-.645.02-1.27.049-1.875.088l-2.139.117v15.996c2.012-.02 3.828-.078 5.449-.176 1.621-.098 2.998-.195 4.131-.293 1.328-.117 2.5-.254 3.516-.41l-.909 4.248a217.472 217.472 0 00-4.13-.498 90.794 90.794 0 00-3.955-.351 50.13 50.13 0 00-4.102-.176v18.369c2.305 0 4.424-.098 6.357-.293a70.892 70.892 0 005.069-.674 47.199 47.199 0 004.599-.967l-.849 4.746c-.235-.02-.586-.039-1.055-.058a436.981 436.981 0 00-3.398-.117c-.625 0-1.221-.01-1.788-.03-.566 0-1.074-.01-1.523-.029h-13.594v-.117c.117-.41.225-.918.323-1.524.117-.605.214-1.357.293-2.256.078-.898.136-1.962.175-3.193.039-1.25.059-2.705.059-4.365V12.473c0-1.66-.02-3.106-.059-4.336a59.475 59.475 0 00-.175-3.223 22.638 22.638 0 00-.293-2.285 13.58 13.58 0 00-.323-1.524V.988z" fill="#fff"/></svg>