<svg width="351" height="44" viewBox="0 0 351 44" fill="none" xmlns="http://www.w3.org/2000/svg"><path d="M.736.988C3.178.988 5.6.978 8.002.96c2.422-.02 4.639-.04 6.65-.059 2.012-.039 3.73-.088 5.157-.146C21.234.695 22.2.617 22.709.52l-1.436 3.896a21.505 21.505 0 00-2.255-.469 42.637 42.637 0 00-2.725-.322c-1.055-.117-2.275-.176-3.662-.176-.469 0-1.035.02-1.7.059-.644.02-1.269.049-1.874.088l-2.139.117v15.996c2.012-.02 3.828-.078 5.45-.176a164.18 164.18 0 004.13-.293c1.328-.117 2.5-.254 3.516-.41l-.909 4.248a217.972 217.972 0 00-4.13-.498 90.673 90.673 0 00-3.955-.351 50.121 50.121 0 00-4.102-.176v18.369c2.305 0 4.424-.098 6.357-.293a70.856 70.856 0 005.069-.674 47.225 47.225 0 004.6-.967l-.85 4.746c-.235-.02-.586-.039-1.055-.058a436.149 436.149 0 00-3.399-.117c-.624 0-1.22-.01-1.787-.03-.566 0-1.074-.01-1.523-.029H.736v-.117c.118-.41.225-.918.323-1.524a22.37 22.37 0 00.293-2.256c.078-.898.136-1.962.175-3.193.04-1.25.059-2.705.059-4.365V12.473c0-1.66-.02-3.106-.059-4.336a59.32 59.32 0 00-.175-3.223 22.333 22.333 0 00-.293-2.285 13.477 13.477 0 00-.323-1.524V.988zm45.088 23.643l-10.37 13.154c-.392.469-.772.957-1.144 1.465-.37.488-.703.967-.995 1.435-.293.47-.538.909-.733 1.319-.176.39-.264.723-.264.996h-5.683v-.117c.43-.371 1.035-.938 1.816-1.7.801-.761 1.65-1.718 2.549-2.87L43.89 22.11 30.649 4.71c-.722-.938-1.435-1.719-2.138-2.344-.703-.644-1.23-1.064-1.582-1.26V.988h9.17c0 .235.029.537.087.908.079.372.215.811.41 1.319.196.488.46 1.035.792 1.64.351.606.8 1.26 1.347 1.963l8.467 11.104 9.346-11.69c.351-.43.693-.898 1.025-1.406.352-.508.655-.996.908-1.465.274-.488.489-.937.645-1.347.176-.41.264-.752.264-1.026h5.683v.117c-.195.157-.41.342-.644.557-.235.215-.508.479-.82.791-.293.313-.626.684-.997 1.113-.37.43-.79.938-1.26 1.524L49.136 20.5l13.652 17.871c.938 1.211 1.807 2.217 2.607 3.018.82.78 1.416 1.279 1.788 1.494V43H58.07c0-.45-.185-1.191-.556-2.227-.371-1.035-1.065-2.236-2.08-3.603l-9.61-12.54zM106.03 7.434l-.263.117c-1.524-1.406-3.36-2.53-5.508-3.37-2.13-.84-4.473-1.26-7.031-1.26-2.461 0-4.717.392-6.768 1.173-2.05.761-3.818 1.875-5.303 3.34-1.465 1.464-2.607 3.261-3.428 5.39-.82 2.13-1.23 4.551-1.23 7.266 0 2.988.39 5.781 1.172 8.379.781 2.578 1.943 4.814 3.486 6.709 1.543 1.894 3.467 3.388 5.772 4.482 2.324 1.074 5.029 1.612 8.115 1.612a16.17 16.17 0 003.34-.352 16.02 16.02 0 003.193-1.026 17 17 0 002.901-1.67 15.196 15.196 0 002.49-2.255l.322.205-2.344 5.976c-1.465.567-3.086.997-4.863 1.29a30.403 30.403 0 01-5.332.468c-3.613 0-6.924-.517-9.932-1.553-2.988-1.054-5.566-2.539-7.734-4.453-2.148-1.914-3.828-4.209-5.04-6.884-1.19-2.696-1.786-5.684-1.786-8.965 0-1.856.234-3.682.703-5.479a22.154 22.154 0 012.11-5.127 20.706 20.706 0 013.398-4.453 21.691 21.691 0 014.6-3.545c1.738-.996 3.642-1.767 5.712-2.314 2.09-.567 4.346-.85 6.768-.85 3.77 0 7.265.576 10.488 1.729l1.992 5.42zm12.803 32.988c2.305 0 4.424-.098 6.357-.293a70.892 70.892 0 005.069-.674 47.136 47.136 0 004.599-.967l-.849 4.746c-.235-.02-.586-.039-1.055-.058a436.981 436.981 0 00-3.398-.117 52 52 0 01-1.787-.03c-.567 0-1.075-.01-1.524-.029H112.65v-.117c.118-.41.225-.918.323-1.524.117-.605.215-1.357.293-2.256.078-.898.136-1.962.175-3.193.039-1.25.059-2.705.059-4.365V12.473c0-1.66-.02-3.106-.059-4.336a59.475 59.475 0 00-.175-3.223 22.352 22.352 0 00-.293-2.285 13.359 13.359 0 00-.323-1.524V.988h7.032v.117c-.118.41-.235.918-.352 1.524a31.908 31.908 0 00-.264 2.285 180.93 180.93 0 00-.175 3.223c-.039 1.23-.059 2.675-.059 4.336v27.949zm51.475-27.95c0-1.66-.02-3.105-.059-4.335a59.367 59.367 0 00-.176-3.223 31.983 31.983 0 00-.263-2.285 13.359 13.359 0 00-.323-1.524V.988h5.215v.117c-.117.41-.234.918-.351 1.524a31.34 31.34 0 00-.264 2.285c-.059.899-.117 1.973-.176 3.223-.039 1.23-.058 2.675-.058 4.336v15.82c0 2.793-.401 5.176-1.202 7.148-.8 1.973-1.914 3.594-3.339 4.864-1.426 1.25-3.135 2.158-5.127 2.724-1.993.586-4.17.88-6.534.88-2.363 0-4.57-.274-6.621-.821-2.031-.547-3.808-1.426-5.332-2.637-1.504-1.23-2.685-2.812-3.545-4.746-.859-1.953-1.289-4.326-1.289-7.12V12.474c0-1.66-.019-3.106-.058-4.336a59.367 59.367 0 00-.176-3.223 22.352 22.352 0 00-.293-2.285 13.602 13.602 0 00-.322-1.524V.988h7.031v.117c-.117.41-.234.918-.352 1.524a31.983 31.983 0 00-.263 2.285 59.367 59.367 0 00-.176 3.223c-.039 1.23-.059 2.675-.059 4.336v16.435c0 2.324.342 4.248 1.026 5.772.703 1.504 1.621 2.705 2.754 3.603a10.128 10.128 0 003.867 1.846c1.445.352 2.92.527 4.424.527 1.504 0 2.978-.175 4.423-.527 1.446-.352 2.725-.967 3.838-1.846 1.133-.898 2.041-2.1 2.725-3.603.703-1.524 1.055-3.448 1.055-5.772V12.473zm30.058-4.804h-.644c-.157-.45-.41-.957-.762-1.523a6.31 6.31 0 00-1.348-1.582c-.547-.508-1.22-.928-2.021-1.26-.781-.332-1.709-.498-2.783-.498-.957 0-1.807.146-2.549.44a5.228 5.228 0 00-1.875 1.23 5.307 5.307 0 00-1.113 1.875c-.254.722-.381 1.523-.381 2.402 0 1.406.39 2.754 1.172 4.043.8 1.27 1.796 2.53 2.988 3.78 1.191 1.25 2.48 2.5 3.867 3.75a48.344 48.344 0 013.867 3.896 21.579 21.579 0 012.959 4.248 9.735 9.735 0 011.201 4.746c0 1.27-.224 2.549-.673 3.838a9.714 9.714 0 01-2.022 3.428c-.918 1.015-2.1 1.845-3.545 2.49-1.445.625-3.164.937-5.156.937-1.113 0-2.178-.107-3.193-.322a21.365 21.365 0 01-2.784-.733 21.083 21.083 0 01-2.285-.996 17.389 17.389 0 01-1.64-.966l.673-6.475h.733a9.566 9.566 0 001.054 2.637 9.684 9.684 0 001.788 2.197 9.288 9.288 0 002.461 1.523c.917.371 1.923.557 3.017.557.996 0 1.885-.146 2.666-.44a6.374 6.374 0 002.051-1.26 5.429 5.429 0 001.289-1.933 6.212 6.212 0 00.469-2.431c0-1.23-.225-2.364-.674-3.399a13.025 13.025 0 00-1.787-2.988 23.02 23.02 0 00-2.49-2.725 126.995 126.995 0 00-2.842-2.636 94.495 94.495 0 01-2.871-2.754 24.124 24.124 0 01-2.491-2.989 16.256 16.256 0 01-1.757-3.427c-.45-1.23-.674-2.579-.674-4.043 0-1.543.293-2.93.879-4.16a10.244 10.244 0 012.373-3.194A10.757 10.757 0 01188.881.93a10.927 10.927 0 013.867-.703c.977 0 1.875.078 2.695.234.821.156 1.553.342 2.198.557.664.214 1.24.43 1.728.644l1.201.527-.205 5.479zm10.049 35.215c.117-.41.225-.918.322-1.524.098-.605.186-1.357.264-2.256.078-.898.137-1.962.176-3.193.039-1.25.058-2.705.058-4.365V12.473c0-1.66-.019-3.106-.058-4.336A59.367 59.367 0 00211 4.914a31.34 31.34 0 00-.264-2.285 13.381 13.381 0 00-.322-1.524V.988h7.002v.117c-.117.41-.234.918-.352 1.524a31.983 31.983 0 00-.263 2.285c-.059.899-.117 1.973-.176 3.223-.039 1.23-.059 2.675-.059 4.336v19.072c0 1.66.02 3.115.059 4.365.059 1.23.117 2.295.176 3.194.078.898.166 1.65.263 2.255.118.606.235 1.114.352 1.524V43h-7.002v-.117zM228.725.988v.117a1.693 1.693 0 00-.088.44c-.02.195-.03.371-.03.527 0 .606.079 1.28.235 2.022.176.722.498 1.63.967 2.724l12.978 29.268 12.539-29.033c.293-.723.606-1.514.938-2.373.332-.86.498-1.729.498-2.608 0-.234-.02-.43-.059-.586a1.794 1.794 0 00-.117-.38V.987h6.006v.117c-.371.372-.821 1.036-1.348 1.993-.527.957-1.103 2.138-1.728 3.545l-16.787 37.265h-2.344l-15.908-35.83c-.372-.84-.762-1.65-1.172-2.432a49.18 49.18 0 00-1.114-2.109 28.32 28.32 0 00-.937-1.611c-.274-.43-.459-.703-.557-.82V.987h8.028zm37.119 41.895c.117-.41.224-.918.322-1.524.098-.605.186-1.357.264-2.256.078-.898.136-1.962.175-3.193.04-1.25.059-2.705.059-4.365V12.473c0-1.66-.019-3.106-.059-4.336a59.475 59.475 0 00-.175-3.223 31.34 31.34 0 00-.264-2.285 13.602 13.602 0 00-.322-1.524V.988h7.002v.117c-.117.41-.235.918-.352 1.524a31.908 31.908 0 00-.264 2.285 180.93 180.93 0 00-.175 3.223c-.039 1.23-.059 2.675-.059 4.336v19.072c0 1.66.02 3.115.059 4.365.058 1.23.117 2.295.175 3.194.079.898.166 1.65.264 2.255.117.606.235 1.114.352 1.524V43h-7.002v-.117zm26.718-39.317c-2.304 0-4.384.108-6.24.323-1.855.195-3.457.41-4.804.644a46.676 46.676 0 00-4.19.967l.85-4.746c.234.02.586.039 1.054.058.469.02.987.04 1.553.06l1.817.058c.644 0 1.25.01 1.816.029.566 0 1.064.01 1.494.03h18.633c.449-.02.957-.03 1.523-.03.567-.02 1.162-.03 1.787-.03a437.922 437.922 0 003.399-.117c.469-.019.82-.039 1.055-.058l.849 4.746a49.062 49.062 0 00-4.219-.967 73.279 73.279 0 00-4.804-.644c-1.856-.215-3.936-.323-6.24-.323v27.979c0 1.66.019 3.115.058 4.365.059 1.23.117 2.295.176 3.194.078.898.166 1.65.264 2.255.117.606.234 1.114.351 1.524V43h-7.002v-.117c.117-.41.225-.918.322-1.524.098-.605.186-1.357.264-2.256.078-.898.137-1.962.176-3.193.039-1.25.058-2.705.058-4.365V3.566zm41.924 19.278v8.7c0 1.661.02 3.116.059 4.366.039 1.23.098 2.295.176 3.194.078.898.166 1.65.263 2.255.118.606.235 1.114.352 1.524V43h-7.031v-.117c.117-.41.224-.918.322-1.524.117-.605.205-1.357.264-2.256.078-.898.136-1.962.175-3.193a94.03 94.03 0 00.088-4.365V23.43L316.059 5.617a25.342 25.342 0 00-1.348-1.67 16.7 16.7 0 00-1.231-1.318c-.39-.39-.742-.713-1.054-.967a10.59 10.59 0 00-.733-.557V.988h8.877c0 .45.186 1.192.557 2.227.391 1.015 1.084 2.217 2.08 3.603l9.609 13.155 9.405-13.74c.332-.489.664-.987.996-1.495.332-.508.635-.996.908-1.465.273-.468.488-.898.645-1.289.175-.39.263-.722.263-.996h5.713v.117c-.43.372-1.006.928-1.728 1.67-.723.723-1.504 1.69-2.344 2.9l-12.188 17.169z" fill="#fff"/></svg>