<svg width="320" height="19" viewBox="0 0 320 19" fill="none" xmlns="http://www.w3.org/2000/svg"><path d="M8.68.912c2.065 0 3.769.512 5.113 1.536 1.344 1.008 2.272 2.392 2.784 4.152h-2.304c-.432-1.12-1.128-2.008-2.088-2.664-.96-.672-2.136-1.008-3.528-1.008-1.104 0-2.096.272-2.976.816-.864.528-1.552 1.296-2.064 2.304-.496.992-.744 2.16-.744 3.504 0 1.328.248 2.488.744 3.48.512.992 1.2 1.76 2.064 2.304.88.528 1.872.792 2.976.792 1.392 0 2.568-.328 3.528-.984a5.712 5.712 0 002.088-2.688h2.304c-.512 1.76-1.44 3.152-2.784 4.176-1.344 1.008-3.048 1.512-5.112 1.512-1.584 0-2.984-.36-4.2-1.08-1.216-.736-2.168-1.752-2.856-3.048-.672-1.312-1.008-2.8-1.008-4.464 0-1.68.336-3.176 1.008-4.488.688-1.312 1.64-2.328 2.856-3.048C5.697 1.28 7.097.912 8.68.912zM27.73.864c1.568 0 2.976.368 4.224 1.104 1.264.736 2.256 1.768 2.976 3.096.72 1.312 1.08 2.8 1.08 4.464 0 1.664-.36 3.16-1.08 4.488a7.852 7.852 0 01-2.976 3.072c-1.248.736-2.656 1.104-4.224 1.104s-2.992-.368-4.272-1.104a7.852 7.852 0 01-2.976-3.072c-.72-1.328-1.08-2.824-1.08-4.488 0-1.664.36-3.152 1.08-4.464.72-1.328 1.712-2.36 2.976-3.096 1.28-.736 2.704-1.104 4.272-1.104zm0 2.04c-1.168 0-2.216.272-3.144.816-.912.528-1.632 1.296-2.16 2.304-.512.992-.768 2.16-.768 3.504 0 1.328.256 2.496.768 3.504.528 1.008 1.248 1.784 2.16 2.328.928.528 1.976.792 3.144.792 1.152 0 2.184-.272 3.096-.816.928-.544 1.648-1.312 2.16-2.304.528-1.008.792-2.176.792-3.504 0-1.344-.264-2.512-.792-3.504-.512-1.008-1.232-1.776-2.16-2.304-.912-.544-1.944-.816-3.096-.816zm21.624 11.184h-7.44L40.498 18h-2.352L44.41 1.392h2.472L53.122 18H50.77l-1.416-3.912zm-.624-1.704L45.634 3.84l-3.096 8.544h6.192zm17.787 1.224c0 .8-.192 1.544-.576 2.232-.384.688-.968 1.248-1.752 1.68-.784.432-1.752.648-2.904.648-1.12 0-2.12-.2-3-.6-.864-.416-1.56-.976-2.088-1.68a4.881 4.881 0 01-.888-2.448h2.328c.048.48.208.952.48 1.416.288.448.688.824 1.2 1.128.528.288 1.16.432 1.896.432.96 0 1.696-.256 2.208-.768.512-.512.768-1.168.768-1.968 0-.688-.184-1.248-.552-1.68a3.593 3.593 0 00-1.32-1.008c-.528-.256-1.248-.528-2.16-.816-1.072-.352-1.936-.68-2.592-.984a4.644 4.644 0 01-1.656-1.416c-.448-.624-.672-1.448-.672-2.472 0-.88.208-1.656.624-2.328.432-.672 1.04-1.192 1.824-1.56.8-.368 1.736-.552 2.808-.552 1.664 0 2.984.408 3.96 1.224.976.8 1.544 1.824 1.704 3.072h-2.352c-.128-.672-.472-1.264-1.032-1.776s-1.32-.768-2.28-.768c-.88 0-1.584.232-2.112.696-.528.448-.792 1.088-.792 1.92 0 .656.168 1.192.504 1.608.352.4.784.72 1.296.96.512.224 1.216.48 2.112.768 1.088.352 1.96.688 2.616 1.008.672.32 1.24.808 1.704 1.464.464.64.696 1.496.696 2.568zM80.3 1.08v1.776h-4.776V18h-2.184V2.856h-4.776V1.08h11.736zm12.563 13.008h-7.44L84.008 18h-2.352L87.92 1.392h2.472L96.632 18H94.28l-1.416-3.912zm-.624-1.704L89.144 3.84l-3.096 8.544h6.192zm9.267 3.912h6V18h-8.184V1.08h2.184v15.216zm17.296 0h6V18h-8.184V1.08h2.184v15.216zM129.689 1.08V18h-2.184V1.08h2.184zm5.095 0l5.16 14.496 5.232-14.496h2.376L141.336 18h-2.76l-6.192-16.92h2.4zm17.639 0V18h-2.184V1.08h2.184zM169.566 18h-2.184l-8.784-13.368V18h-2.184V1.08h2.184l8.784 13.392V1.08h2.184V18zM181.238.912c1.968 0 3.616.488 4.944 1.464 1.344.976 2.248 2.304 2.712 3.984h-2.304c-.4-1.024-1.072-1.848-2.016-2.472-.928-.624-2.032-.936-3.312-.936-1.152 0-2.184.272-3.096.816-.912.528-1.632 1.288-2.16 2.28-.512.992-.768 2.16-.768 3.504 0 1.376.264 2.568.792 3.576.528.992 1.256 1.76 2.184 2.304.944.528 2.024.792 3.24.792 1.04 0 1.992-.224 2.856-.672a5.47 5.47 0 002.112-1.944c.56-.864.896-1.872 1.008-3.024h-6.648V8.952h8.496v2.016c-.144 1.344-.56 2.56-1.248 3.648a7.486 7.486 0 01-2.784 2.592c-1.168.64-2.496.96-3.984.96-1.632 0-3.072-.36-4.32-1.08a7.778 7.778 0 01-2.928-3.048c-.688-1.312-1.032-2.808-1.032-4.488 0-1.68.344-3.168 1.032-4.464.704-1.312 1.68-2.336 2.928-3.072 1.248-.736 2.68-1.104 4.296-1.104zM208.103 18l-4.416-6.912h-2.376V18h-2.184V1.08h5.568c1.92 0 3.36.464 4.32 1.392.96.912 1.44 2.128 1.44 3.648 0 1.376-.384 2.488-1.152 3.336-.768.832-1.88 1.352-3.336 1.56L210.575 18h-2.472zm-6.792-8.496h3.192c2.48 0 3.72-1.088 3.72-3.264 0-2.176-1.24-3.264-3.72-3.264h-3.192v6.528zm14.472-6.648V8.64h6.432v1.68h-6.432v5.904h7.152V18h-9.336V1.08h9.336v1.776h-7.152zm24.693 6.672c0 1.712-.344 3.208-1.032 4.488-.688 1.264-1.704 2.248-3.048 2.952-1.328.688-2.928 1.032-4.8 1.032h-5.376V1.08h5.376c1.872 0 3.472.344 4.8 1.032 1.344.672 2.36 1.648 3.048 2.928.688 1.264 1.032 2.76 1.032 4.488zm-9.048 6.504c2.208 0 3.896-.568 5.064-1.704 1.168-1.136 1.752-2.736 1.752-4.8 0-2.064-.584-3.664-1.752-4.8C235.34 3.576 233.652 3 231.428 3h-3.024v13.032h3.024zm14.659-13.176V8.64h6.432v1.68h-6.432v5.904h7.152V18h-9.336V1.08h9.336v1.776h-7.152zM266.1 1.08v1.776h-7.392v5.856h6.264v1.704h-6.264V18h-2.184V1.08h9.576zm5.252 0V18h-2.184V1.08h2.184zM288.495 18h-2.184l-8.784-13.368V18h-2.184V1.08h2.184l8.784 13.392V1.08h2.184V18zm6.176-15.144V8.64h6.432v1.68h-6.432v5.904h7.152V18h-9.336V1.08h9.336v1.776h-7.152zm24.693 6.672c0 1.712-.344 3.208-1.032 4.488-.688 1.264-1.704 2.248-3.048 2.952-1.328.688-2.928 1.032-4.8 1.032h-5.376V1.08h5.376c1.872 0 3.472.344 4.8 1.032 1.344.672 2.36 1.648 3.048 2.928.688 1.264 1.032 2.76 1.032 4.488zm-9.048 6.504c2.208 0 3.896-.568 5.064-1.704 1.168-1.136 1.752-2.736 1.752-4.8 0-2.064-.584-3.664-1.752-4.8C314.228 3.576 312.54 3 310.316 3h-3.024v13.032h3.024z" fill="#fff"/></svg>