<?xml version="1.0" encoding="UTF-8"?>
<svg id="Layer_2" data-name="Layer 2" xmlns="http://www.w3.org/2000/svg" viewBox="0 0 345.17 85.79">
  <defs>
    <!-- Brand gradient: bright orange-coral at the top, deepening to red toward
         the bottom-left (matches the logo artwork). A linear gradient renders
         reliably in <img> on iOS/iPadOS Safari. -->
    <linearGradient id="logoGrad" x1="78" y1="14" x2="20" y2="82" gradientUnits="userSpaceOnUse">
      <stop offset="0" stop-color="#F8835C"/>
      <stop offset="0.45" stop-color="#F37655"/>
      <stop offset="1" stop-color="#E12D13"/>
    </linearGradient>
  </defs>
  <g id="Layer_1-2" data-name="Layer 1">
    <g>
      <g>
        <path fill="#181616" d="M132.48,71.05c-4.6,0-8.47-.83-11.6-2.48-3.13-1.65-5.47-3.93-7.02-6.83-1.55-2.89-2.33-6.21-2.33-9.93h13.96c0,2.53.58,4.43,1.75,5.7,1.16,1.27,3.06,1.9,5.7,1.9,2.17,0,3.79-.56,4.85-1.67,1.06-1.11,1.59-2.6,1.59-4.46,0-1.97-.54-3.46-1.63-4.5-1.09-1.03-2.84-1.55-5.27-1.55h-4.58v-10.24h4.58c2.07,0,3.61-.46,4.62-1.4,1.01-.93,1.51-2.3,1.51-4.11,0-1.6-.49-2.86-1.47-3.76-.98-.9-2.38-1.36-4.19-1.36-2.28,0-3.96.57-5.04,1.71-1.09,1.14-1.63,2.84-1.63,5.12h-13.96c0-3.88.78-7.19,2.33-9.93,1.55-2.74,3.84-4.85,6.87-6.32s6.68-2.21,10.98-2.21,7.94.63,10.94,1.9c3,1.27,5.29,3.04,6.87,5.31,1.58,2.28,2.37,4.89,2.37,7.83s-.83,5.46-2.48,7.53c-1.66,2.07-3.88,3.54-6.67,4.42,3.26.88,5.73,2.38,7.41,4.5,1.68,2.12,2.52,4.89,2.52,8.3s-.85,6.14-2.56,8.65c-1.71,2.51-4.12,4.45-7.25,5.82-3.13,1.37-6.84,2.06-11.13,2.06Z"/>
        <path fill="#181616" d="M180.81,71.05c-3.72,0-6.85-.47-9.39-1.4-2.53-.93-4.59-2.24-6.17-3.92-1.58-1.68-2.73-3.57-3.45-5.66-.72-2.09-1.11-4.33-1.16-6.71h13.5c.1,2.07.75,3.72,1.94,4.96,1.19,1.24,2.77,1.86,4.73,1.86,2.43,0,4.16-.75,5.2-2.25,1.03-1.5,1.55-3.65,1.55-6.44,0-1.96-.29-3.53-.85-4.69-.57-1.16-1.36-1.99-2.37-2.48-1.01-.49-2.19-.74-3.53-.74s-2.56.27-3.65.81c-1.09.54-1.99,1.33-2.71,2.37h-12.64V15.74h36.92v11.4h-23.5v7.6c1.09-.83,2.37-1.43,3.84-1.82,1.47-.39,3.17-.58,5.08-.58,3.52,0,6.58.71,9.19,2.13,2.61,1.42,4.67,3.54,6.17,6.36,1.5,2.82,2.25,6.32,2.25,10.51s-.85,7.46-2.56,10.43-4.12,5.26-7.25,6.86c-3.13,1.6-6.84,2.41-11.13,2.41Z"/>
        <path fill="#181616" d="M228.35,71.05c-4.6,0-8.47-.83-11.6-2.48-3.13-1.65-5.47-3.93-7.02-6.83-1.55-2.89-2.33-6.21-2.33-9.93h13.96c0,2.53.58,4.43,1.75,5.7,1.16,1.27,3.06,1.9,5.7,1.9,2.17,0,3.79-.56,4.85-1.67,1.06-1.11,1.59-2.6,1.59-4.46,0-1.97-.54-3.46-1.63-4.5-1.09-1.03-2.84-1.55-5.27-1.55h-4.58v-10.24h4.58c2.07,0,3.61-.46,4.62-1.4,1.01-.93,1.51-2.3,1.51-4.11,0-1.6-.49-2.86-1.47-3.76-.98-.9-2.38-1.36-4.19-1.36-2.28,0-3.96.57-5.04,1.71-1.09,1.14-1.63,2.84-1.63,5.12h-13.96c0-3.88.78-7.19,2.33-9.93,1.55-2.74,3.84-4.85,6.87-6.32s6.68-2.21,10.98-2.21,7.94.63,10.94,1.9c3,1.27,5.29,3.04,6.87,5.31,1.58,2.28,2.37,4.89,2.37,7.83s-.83,5.46-2.48,7.53c-1.66,2.07-3.88,3.54-6.67,4.42,3.26.88,5.73,2.38,7.41,4.5,1.68,2.12,2.52,4.89,2.52,8.3s-.85,6.14-2.56,8.65c-1.71,2.51-4.12,4.45-7.25,5.82-3.13,1.37-6.84,2.06-11.13,2.06Z"/>
        <path fill="#181616" d="M276.68,71.05c-3.72,0-6.85-.47-9.39-1.4-2.53-.93-4.59-2.24-6.17-3.92-1.58-1.68-2.73-3.57-3.45-5.66-.72-2.09-1.11-4.33-1.16-6.71h13.5c.1,2.07.75,3.72,1.94,4.96,1.19,1.24,2.77,1.86,4.73,1.86,2.43,0,4.16-.75,5.2-2.25,1.03-1.5,1.55-3.65,1.55-6.44,0-1.96-.29-3.53-.85-4.69-.57-1.16-1.36-1.99-2.37-2.48-1.01-.49-2.19-.74-3.53-.74s-2.56.27-3.65.81c-1.09.54-1.99,1.33-2.71,2.37h-12.64V15.74h36.92v11.4h-23.5v7.6c1.09-.83,2.37-1.43,3.84-1.82,1.47-.39,3.17-.58,5.08-.58,3.52,0,6.58.71,9.19,2.13,2.61,1.42,4.67,3.54,6.17,6.36,1.5,2.82,2.25,6.32,2.25,10.51s-.85,7.46-2.56,10.43-4.12,5.26-7.25,6.86c-3.13,1.6-6.84,2.41-11.13,2.41Z"/>
        <path fill="#181616" d="M324.23,71.05c-4.6,0-8.47-.83-11.6-2.48-3.13-1.65-5.47-3.93-7.02-6.83-1.55-2.89-2.33-6.21-2.33-9.93h13.96c0,2.53.58,4.43,1.75,5.7,1.16,1.27,3.06,1.9,5.7,1.9,2.17,0,3.79-.56,4.85-1.67,1.06-1.11,1.59-2.6,1.59-4.46,0-1.97-.54-3.46-1.63-4.5-1.09-1.03-2.84-1.55-5.27-1.55h-4.58v-10.24h4.58c2.07,0,3.61-.46,4.62-1.4,1.01-.93,1.51-2.3,1.51-4.11,0-1.6-.49-2.86-1.47-3.76-.98-.9-2.38-1.36-4.19-1.36-2.28,0-3.96.57-5.04,1.71-1.09,1.14-1.63,2.84-1.63,5.12h-13.96c0-3.88.78-7.19,2.33-9.93,1.55-2.74,3.84-4.85,6.87-6.32s6.68-2.21,10.98-2.21,7.94.63,10.94,1.9c3,1.27,5.29,3.04,6.87,5.31,1.58,2.28,2.37,4.89,2.37,7.83s-.83,5.46-2.48,7.53c-1.66,2.07-3.88,3.54-6.67,4.42,3.26.88,5.73,2.38,7.41,4.5,1.68,2.12,2.52,4.89,2.52,8.3s-.85,6.14-2.56,8.65c-1.71,2.51-4.12,4.45-7.25,5.82-3.13,1.37-6.84,2.06-11.13,2.06Z"/>
      </g>
      <g>
        <path fill="#181616" d="M56.48,80.94c-10.55,6.27-25.7,6.48-36.43.47-4.67,1.3-9.63.74-14.81-1.14,2.87-.46,5.02-2.1,6.45-4.88C-2.06,63.3-4.06,39,7.72,24.77c-9.77,30.02,17.6,61.65,48.76,56.17Z"/>
        <path fill="url(#logoGrad)" d="M87.54,33.47c-9.49-4.56-28.74-13.8-38.17-18.34l-14.49,6.96v-8.16h-9.8v12.87l-12.97,6.23c5.33-44.3,70.61-43.93,75.43.44ZM85.96,67.58c-4.78,1.73-9.77,2.5-14.66,1.19-22.13,16.27-56.48.92-59.13-26.26l37.2-17.87c8.54,4.11,29.7,14.28,38,18.26-1,7.09-3.97,13.54-8.33,18.8.43,1.05.95,1.97,1.57,2.75,1.36,1.73,3.16,2.78,5.35,3.13ZM40.29,53.78c1.46-1.72,1.42-4.61-.1-6.28-.73-.8-1.8-1.32-3.2-1.3-1.41-.02-2.48.5-3.2,1.3-1.53,1.67-1.56,4.56-.1,6.28.07.08.14.15.21.21.71.74,1.74,1.21,3.09,1.19,1.34.02,2.38-.45,3.09-1.19.07-.06.14-.13.21-.21ZM53.1,53.78c1.46-1.72,1.42-4.6-.09-6.27-.04-.04-.08-.08-.12-.11-.72-.75-1.76-1.22-3.09-1.2-1.34-.02-2.38.45-3.09,1.2-.04.03-.08.07-.12.11-1.52,1.67-1.55,4.55-.09,6.27.07.08.14.15.21.21.71.74,1.74,1.21,3.09,1.19,1.44.02,2.51-.51,3.24-1.33.02-.02.04-.04.06-.07ZM65.91,53.78c1.46-1.72,1.43-4.61-.11-6.28-.03-.04-.07-.08-.11-.11-.71-.74-1.75-1.21-3.09-1.19-1.34-.02-2.38.45-3.09,1.19-.01,0-.03.03-.04.04-1.6,1.65-1.65,4.6-.17,6.35.07.08.14.15.21.21.71.74,1.74,1.21,3.09,1.19,1.44.02,2.52-.52,3.25-1.33.02-.03.04-.05.06-.07Z"/>
      </g>
    </g>
  </g>
</svg>
