<?xml version="1.0" encoding="utf-8"?>
<!-- Generator: Adobe Illustrator 25.4.1, SVG Export Plug-In . SVG Version: 6.00 Build 0)  -->
<svg version="1.1"
	 id="Layer_1" xmlns:cc="http://creativecommons.org/ns#" xmlns:dc="http://purl.org/dc/elements/1.1/" xmlns:inkscape="http://www.inkscape.org/namespaces/inkscape" xmlns:rdf="http://www.w3.org/1999/02/22-rdf-syntax-ns#" xmlns:sodipodi="http://sodipodi.sourceforge.net/DTD/sodipodi-0.dtd" xmlns:svg="http://www.w3.org/2000/svg"
	 xmlns="http://www.w3.org/2000/svg" xmlns:xlink="http://www.w3.org/1999/xlink" x="0px" y="0px" viewBox="0 0 1000 323.7"
	 style="enable-background:new 0 0 1000 323.7;" xml:space="preserve">
<style type="text/css">
	.st0{fill:#A5A5A5;}
	.st1{fill:#D3D3D3;}
</style>
<sodipodi:namedview  bordercolor="#666666" borderopacity="1" gridtolerance="10" guidetolerance="10" id="namedview19" inkscape:current-layer="Layer_1" inkscape:cx="34.690897" inkscape:cy="131.15483" inkscape:pageopacity="0" inkscape:pageshadow="2" inkscape:window-height="705" inkscape:window-maximized="1" inkscape:window-width="1366" inkscape:window-x="-8" inkscape:window-y="-8" inkscape:zoom="0.35355339" objecttolerance="10" pagecolor="#ffffff" showgrid="false">
	</sodipodi:namedview>
<polygon id="polygon9" class="st0" points="433.4,319 352.3,319 403,5.7 484,5.7 "/>
<path id="path11" inkscape:connector-curvature="0" class="st0" d="M727,13.3C711,7,685.7,0,654.4,0c-80,0-136.3,42.7-136.7,103.7
	c-0.7,45,40.3,70,71,85c31.3,15.3,42,25.3,42,39c-0.3,21-25.3,30.7-48.6,30.7c-32.3,0-49.7-5-76-16.7l-10.7-5L484,307
	c19,8.7,54,16.3,90.3,16.7c85,0,140.3-42,141-107c0.3-35.7-21.3-63-68-85.3c-28.3-14.3-45.7-24-45.7-38.7c0.3-13.3,14.7-27,46.7-27
	c26.3-0.7,45.7,5.7,60.3,12L716,81L727,13.3C727,13.3,727,13.3,727,13.3z"/>
<path id="path13" inkscape:connector-curvature="0" class="st0" d="M834.7,208c6.7-18,32.3-87.7,32.3-87.7
	c-0.3,0.7,6.7-18.3,10.7-30l5.7,27c0,0,15.3,75,18.7,90.7C889.4,208,850.7,208,834.7,208L834.7,208z M934.7,5.7H872
	c-19.3,0-34,5.7-42.3,26L709.4,319h85c0,0,14-38.7,17-47c9.3,0,92,0,104,0c2.3,11,9.7,47,9.7,47h75L934.7,5.7L934.7,5.7L934.7,5.7z"
	/>
<path id="path15" inkscape:connector-curvature="0" class="st0" d="M284.7,5.7l-79.3,213.6l-8.7-43.3C182,126,136,71.7,84.7,44.7
	l72.7,274H243l127.3-313L284.7,5.7L284.7,5.7L284.7,5.7z"/>
<path id="path17" inkscape:connector-curvature="0" class="st1" d="M131.7,5.7H1.3L0,12c101.7,26,169,88.7,196.7,164L168.3,32
	C163.7,12,149.3,6.3,131.7,5.7L131.7,5.7z"/>
</svg>
