<svg width="232" height="75" viewBox="0 0 232 75" fill="none" xmlns="http://www.w3.org/2000/svg"><path d="M24.75.102h4.355V26H24.75V.102zm15.406 0h2.442L59.57 19.047h.196V.102h1.914v26.503h-1.016L42.285 5.552h-.156V26h-1.973V.102zm49.274 0v1.68H76.793v9.257h9.14v1.68h-9.14V26h-4.356V.102H89.43zm7.75 0h4.355V26H97.18V.102zm15.406 0h2.441L132 19.047h.195V.102h1.914v26.503h-1.015L114.715 5.552h-.156V26h-1.973V.102zm32.555 0h4.355V26h-4.355V.102zm35.757 0v1.68h-9.375V26h-4.355V1.781h-9.375V.101h23.105zm26.266 0v1.68h-13.652v9.257h9.14v1.68h-9.14V24.32h13.652V26h-18.008V.102h18.008zm-188.586 48v1.68H4.926v9.257h9.14v1.68h-9.14V72.32h13.652V74H.57V48.102h18.008zm9.117 0h4.356V72.32h13.047V74H27.695V48.102zm43.297 0v1.68H57.34v9.257h9.14v1.68h-9.14V72.32h13.652V74H52.984V48.102h18.008zm23.844 1.27c-1.563 0-3.008.279-4.336.839a9.649 9.649 0 00-3.418 2.383c-.95 1.028-1.693 2.278-2.226 3.75-.534 1.458-.801 3.092-.801 4.902 0 1.823.286 3.47.86 4.941.585 1.459 1.38 2.702 2.382 3.731a10.623 10.623 0 003.574 2.383c1.367.547 2.832.82 4.395.82 1.132 0 2.155-.15 3.066-.45a8.312 8.312 0 002.461-1.327v-9.082h-4.902v-1.543h9.257v11.387c-.755.403-1.516.761-2.285 1.074-.768.312-1.601.573-2.5.78-.885.21-1.862.366-2.93.47a33.596 33.596 0 01-3.632.175c-1.433 0-2.793-.162-4.082-.488a15.398 15.398 0 01-3.594-1.348 14.655 14.655 0 01-2.969-2.09 13.571 13.571 0 01-2.265-2.714 13.221 13.221 0 01-1.426-3.184 12.412 12.412 0 01-.508-3.535c0-1.21.156-2.39.469-3.535a13.664 13.664 0 011.386-3.262A13.392 13.392 0 0183 51.637c.86-.847 1.83-1.576 2.91-2.188a14.887 14.887 0 013.535-1.426 15.787 15.787 0 014.063-.507c1.367 0 2.63.188 3.789.566 1.172.365 2.233.853 3.183 1.465a12.698 12.698 0 012.559 2.129c.742.794 1.38 1.627 1.914 2.5l-1.875 1.25c-1.094-2.097-2.311-3.627-3.652-4.59-1.328-.977-2.858-1.465-4.59-1.465zm31.09-1.856L138.113 74h-4.433l-3.946-8.633h-11.113L114.539 74h-2.187l12.48-26.484h1.094zm-6.543 16.172h9.551l-4.707-10.254-4.844 10.254zm26.344-15.586h2.441l16.973 18.945h.195V48.102h1.914v26.504h-1.016L147.855 53.55h-.156V74h-1.972V48.102zm36.656 13.046c0 1.81.273 3.438.82 4.883.547 1.432 1.296 2.65 2.246 3.653a9.972 9.972 0 003.399 2.285c1.302.52 2.714.781 4.238.781.911 0 1.79-.176 2.637-.527a10.04 10.04 0 002.343-1.367 12.33 12.33 0 001.954-1.915 12.333 12.333 0 001.406-2.168l1.836 1.172a17.02 17.02 0 01-1.895 2.52 13.086 13.086 0 01-2.539 2.129c-.95.612-2.031 1.1-3.242 1.465-1.198.364-2.539.547-4.024.547-2.148 0-4.101-.359-5.859-1.075-1.745-.716-3.242-1.686-4.492-2.91a13.058 13.058 0 01-2.91-4.277 13.487 13.487 0 01-1.016-5.196c0-1.21.156-2.389.469-3.535.312-1.159.762-2.24 1.348-3.242a13.484 13.484 0 012.168-2.773 13.514 13.514 0 012.89-2.168 14.326 14.326 0 013.535-1.407 15.868 15.868 0 014.082-.507c1.381 0 2.65.188 3.809.566 1.172.365 2.233.853 3.184 1.465a12.719 12.719 0 012.558 2.129c.755.794 1.4 1.627 1.934 2.5l-1.895 1.25c-1.081-2.097-2.291-3.627-3.633-4.59-1.341-.977-2.884-1.465-4.629-1.465-1.497 0-2.897.273-4.199.82a10.144 10.144 0 00-3.418 2.344c-.963 1.016-1.725 2.253-2.285 3.711-.547 1.445-.82 3.08-.82 4.902zm48.961-13.046v1.68h-13.653v9.257h9.141v1.68h-9.141V72.32h13.653V74h-18.008V48.102h18.008z" fill="#fff"/></svg>