<svg width="252" height="126" viewBox="0 0 252 126" fill="none" xmlns="http://www.w3.org/2000/svg"><path d="M86.73 126h3.375v-18.911H86.73V126zm-42.398-18.911V126H58.01v-2.255H47.707v-7.004h7.264v-2.014h-.026v-.018h-7.238v-5.318l10.303.006v-2.305H44.332v-.003zm21.202 0V126h13.678v-2.255H68.91v-16.653h-3.372l-.003-.003zm32.092 0V126h13.678v-2.255h-10.303v-7.004h7.264v-2.014h-.024v-.018h-7.237v-5.318l10.303.006v-2.305H97.629l-.003-.003zm97.33 10.351h3.128c.976 0 1.81.098 2.477.294.663.193 1.202.461 1.612.791.401.327.696.72.873 1.169.18.452.271.952.271 1.481 0 .467-.1.899-.298 1.288-.2.39-.507.726-.917 1.003-.418.282-.958.505-1.603.66-.652.158-1.43.241-2.317.241h-3.223v-6.927h-.003zm0-8.846h2.43c.913 0 1.706.077 2.358.229.646.148 1.182.368 1.601.651.409.28.716.616.908.999.194.393.294.83.294 1.303 0 .446-.082.863-.247 1.247-.165.38-.407.71-.725.981a3.49 3.49 0 01-1.18.652 5.095 5.095 0 01-1.618.24h-3.824v-6.302h.003zm-3.372-1.505V126h8.758c.994 0 1.908-.134 2.71-.402.804-.264 1.503-.633 2.075-1.097a4.857 4.857 0 001.332-1.648c.31-.631.466-1.315.466-2.037 0-.631-.106-1.223-.315-1.755a4.226 4.226 0 00-.899-1.41 4.882 4.882 0 00-1.398-.991 6.427 6.427 0 00-1.497-.488c.536-.27.993-.541 1.371-.806a4.872 4.872 0 001.07-.996c.268-.354.46-.747.566-1.166.103-.41.159-.883.159-1.41 0-.696-.171-1.341-.507-1.924a4.589 4.589 0 00-1.415-1.491c-.599-.41-1.327-.731-2.155-.954-.832-.223-1.754-.333-2.745-.333h-7.573l-.003-.003zm-54.806.339c-.775.247-1.439.595-1.969 1.029-.537.44-.95.969-1.23 1.57a4.607 4.607 0 00-.418 1.963c0 .702.156 1.345.468 1.889a5.703 5.703 0 001.2 1.467 9.7 9.7 0 001.675 1.172c.616.345 1.253.678 1.889.987.672.33 1.289.634 1.878.934.602.306 1.144.634 1.616.982.46.339.84.716 1.12 1.121.277.393.41.833.41 1.341 0 .417-.101.786-.295 1.098a2.708 2.708 0 01-.805.812 3.924 3.924 0 01-1.155.509 5.134 5.134 0 01-1.318.175c-.593 0-1.15-.083-1.672-.247a4.936 4.936 0 01-1.421-.702 4.876 4.876 0 01-1.12-1.115 5.406 5.406 0 01-.769-1.502l-.062-.185-2.026.792.065.175c.248.675.575 1.282.97 1.805.395.524.876.979 1.433 1.348.554.366 1.2.648 1.922.839.716.19 1.545.288 2.456.288 1.123 0 2.122-.137 2.974-.41.855-.274 1.58-.652 2.158-1.125a4.661 4.661 0 001.321-1.683 4.937 4.937 0 00.439-2.061c0-.655-.162-1.256-.477-1.788a5.806 5.806 0 00-1.239-1.437 10.927 10.927 0 00-1.724-1.189 47.258 47.258 0 00-1.946-1.033c-.545-.273-1.082-.544-1.609-.812l-.328-.163a14.313 14.313 0 01-1.677-.985 5.307 5.307 0 01-1.156-1.056 1.83 1.83 0 01-.409-1.163c0-.3.067-.6.2-.889.136-.292.342-.556.613-.791a3.21 3.21 0 011.05-.58c.421-.149.922-.226 1.488-.226.646 0 1.233.086 1.74.253.51.166.961.404 1.344.71.383.304.722.679 1.002 1.11.28.437.516.925.699 1.451l.065.188 1.945-.842-.056-.164a6.812 6.812 0 00-.913-1.814 5.315 5.315 0 00-1.386-1.33 6.243 6.243 0 00-1.887-.812c-.707-.181-1.518-.276-2.411-.276-.991 0-1.884.125-2.656.369m21.116 4.762l2.712 5.779h-5.409l2.697-5.779zm.204-5.131l-8.85 18.941h2.231l2.724-5.812h7.444l2.633 5.812h3.387l-8.605-18.867-.036-.077h-.931l.003.003zm20.96 5.131l2.712 5.779h-5.407l2.695-5.779zm.2-5.131l-8.847 18.941h2.232l2.724-5.812h7.441l2.632 5.812h3.387l-8.602-18.867-.035-.077h-.932v.003zm-47.327-29.968l-1.951 4.51-2.376-4.51h-1.398l3.161 5.946-.416.94a3.45 3.45 0 01-.183.366c-.074.131-.153.25-.248.36-.094.11-.194.202-.309.277a.664.664 0 01-.36.11c-.106 0-.2-.012-.286-.03a1.363 1.363 0 01-.233-.077 2.09 2.09 0 01-.194-.096 1.272 1.272 0 00-.159-.077l-.513 1.157a1.342 1.342 0 00.766.244c.195 0 .392-.036.599-.107.203-.071.403-.178.598-.327.192-.146.377-.33.548-.553.171-.227.322-.488.457-.795l3.158-7.335h-.658l-.003-.003zm-10.138 5.813a1.805 1.805 0 01-.684-.36 6.621 6.621 0 01-.25-.23v-3.625c.07-.104.165-.203.277-.295.112-.092.236-.172.365-.244.136-.068.274-.122.422-.163.147-.042.289-.06.433-.06.251 0 .484.06.702.173.221.116.413.273.575.476.162.199.292.437.386.708.094.27.144.559.144.868 0 .408-.047.782-.138 1.127a2.96 2.96 0 01-.386.89c-.168.25-.366.446-.602.583-.233.14-.492.208-.778.208-.174 0-.33-.018-.469-.056m-1.291-8.992l-.87.348v8.47c.313.248.672.435 1.079.557.404.122.837.182 1.297.182.46 0 .923-.096 1.342-.292a3.546 3.546 0 001.093-.797c.313-.333.558-.729.737-1.18.18-.45.272-.935.272-1.452 0-.381-.062-.741-.186-1.074a2.868 2.868 0 00-.507-.884 2.438 2.438 0 00-.778-.595 2.263 2.263 0 00-.991-.22c-.189 0-.386.033-.595.105a2.94 2.94 0 00-1.132.687 2.314 2.314 0 00-.395.5v-4.358h-.363l-.003.003zM80.878 47.442h1.683V37.341h-1.683v10.101zm12.066-10.101v7.389h-.076l-6.56-7.389h-.943v10.101h.764v-7.974h.061l7.105 8.21h.395V37.34h-.746zm2.47 0v.654h3.624v9.447h1.683v-9.447h3.623v-.654h-8.93zm23.422 0l-3.82 7.748h-.083l-3.894-7.748h-1.722v10.101h.746V39.23h.115l4.154 8.212h.345l4.106-8.28h.053v8.28h1.693V37.341h-1.693zm26.361.63h1.48c.307 0 .59.051.849.152.26.101.484.244.672.423.189.181.333.398.437.651.103.256.153.535.153.839 0 .33-.065.627-.195.892a1.96 1.96 0 01-.548.672c-.233.185-.51.33-.828.432a3.457 3.457 0 01-1.047.151h-.973v-4.211zm-1.683-.63v10.101h1.683v-4.747h1.177l3.481 4.747h1.955l-3.644-4.899c.363-.092.696-.217.996-.377.301-.164.56-.351.773-.572a2.5 2.5 0 00.498-.74c.121-.274.18-.568.18-.884 0-.38-.077-.731-.23-1.056-.153-.324-.38-.6-.681-.832a3.335 3.335 0 00-1.132-.548 5.83 5.83 0 00-1.577-.193H143.514zm8.042 0v.654h3.623v9.447h1.683v-9.447h3.624v-.654h-8.93zm10.654 0v10.101h6.96v-.657h-5.277V42.26h3.532v-.655h-3.532v-3.61h5.277v-.655h-6.96zm16.597 0v7.389h-.076l-6.56-7.389h-.943v10.101h.764v-7.974h.061l7.105 8.21h.395V37.34h-.746zm-105.429-.024a2.989 2.989 0 00-1.023.568c-.28.241-.489.527-.63.857-.145.33-.216.687-.216 1.077 0 .39.08.725.236 1.023.162.297.366.568.625.809.257.24.548.461.879.654.33.197.666.384 1.008.56.342.178.678.353 1.008.535.33.178.625.366.882.565.253.202.462.422.622.663.159.241.238.518.238.827 0 .26-.059.488-.17.681-.118.197-.272.36-.463.497a2.14 2.14 0 01-.649.304 2.68 2.68 0 01-.731.104c-.327 0-.637-.048-.926-.146a2.713 2.713 0 01-1.412-1.07 3.354 3.354 0 01-.427-.884l-.897.371c.13.375.301.708.508 1.003.206.291.453.541.742.74.29.203.623.358 1 .465.377.107.808.16 1.291.16.596 0 1.117-.077 1.563-.229.448-.152.822-.36 1.126-.618.3-.262.527-.569.678-.923.15-.35.227-.728.227-1.13 0-.354-.08-.675-.242-.964a3.163 3.163 0 00-.643-.79 5.704 5.704 0 00-.91-.67 23.48 23.48 0 00-1.038-.586c-.354-.187-.7-.372-1.038-.556a7.1 7.1 0 01-.911-.568 2.884 2.884 0 01-.643-.625 1.2 1.2 0 01-.241-.726 1.395 1.395 0 01.472-1.041 1.81 1.81 0 01.592-.348c.236-.089.513-.134.828-.134.357 0 .678.05.964.15.283.094.534.237.752.421.215.182.4.402.56.658.153.256.283.541.383.848l.861-.396a3.81 3.81 0 00-.474-1.006 2.853 2.853 0 00-.717-.731 3.138 3.138 0 00-.982-.45 4.862 4.862 0 00-1.267-.151c-.525 0-.988.068-1.395.205m53.209 2.1l1.816 3.998h-3.688l1.872-3.998zm.233-2.308l-4.826 10.327h.843l1.577-3.367h4.298l1.524 3.367h1.713l-4.708-10.327h-.421zm9.861 2.308l1.818 3.998h-3.69l1.872-3.998zm.235-2.308l-4.825 10.327h.843l1.58-3.367h4.295l1.524 3.367h1.716l-4.711-10.327h-.422zM0 20.399h3.322V.455H0V20.4zm52.462 0h3.323V.455h-3.323V20.4zm34.742 0h3.326V.455h-3.326V20.4zm82.028 0h3.326V.455h-3.326V20.4zM25.78.452v14.593h-.147L12.676.452h-1.863V20.4h1.504V4.652h.12l14.03 16.214h.775V.452H25.78zm8.756 0V20.4h3.325V10.173h6.975V8.879h-6.975V1.746h9.646V.452H34.536zm43.704 0v14.593h-.148L65.136.452h-1.863V20.4h1.503V4.652h.121l14.027 16.214h.775V.452h-1.46zm17.676 0v1.294h7.157v18.653h3.323V1.746h7.158V.452H95.916zm37.424 0l-6.83 10.11-6.854-10.11h-3.399l7.901 11.645v8.302h3.322v-8.62L135.145.452h-1.805zm29.463 0l-6.931 15.869-7.47-15.869H144.9l9.645 20.414h.867L164.383.452h-1.58zm17.24 0V20.4h13.283v-1.294h-9.958V.452h-3.325zm18.357 0V20.4h13.283v-1.294h-9.958V.452H198.4zm24.795 4.108l3.594 7.897h-7.291l3.697-7.897zm.463-4.557l-9.525 20.396h1.669l3.113-6.648h8.484l3.01 6.648h3.384L224.492.003h-.834zm18.304.407c-.802.271-1.471.646-2.019 1.119a4.66 4.66 0 00-1.244 1.69 5.278 5.278 0 00-.425 2.12c0 .762.156 1.437.469 2.023a6.185 6.185 0 001.229 1.594c.507.476 1.088.907 1.737 1.294.651.387 1.314.755 1.989 1.103.678.354 1.339.702 1.99 1.056.652.348 1.233.723 1.737 1.119.507.395.917.833 1.229 1.308.313.476.472 1.02.472 1.633 0 .512-.115.958-.345 1.345a3.126 3.126 0 01-.911.979 4.18 4.18 0 01-1.282.6 5.226 5.226 0 01-1.448.203 5.722 5.722 0 01-1.825-.286 5.384 5.384 0 01-1.559-.818 5.739 5.739 0 01-1.23-1.303 6.579 6.579 0 01-.843-1.743l-1.774.738c.259.74.592 1.4.999 1.978a6.007 6.007 0 001.468 1.466 6.457 6.457 0 001.978.92c.746.208 1.595.315 2.547.315 1.174 0 2.202-.149 3.087-.452.884-.3 1.624-.711 2.223-1.226a5.038 5.038 0 001.341-1.82c.298-.7.448-1.44.448-2.234a3.84 3.84 0 00-.478-1.904 6.384 6.384 0 00-1.267-1.564 11.3 11.3 0 00-1.796-1.315 49.52 49.52 0 00-2.048-1.157c-.696-.372-1.38-.738-2.049-1.1a15.092 15.092 0 01-1.796-1.119c-.527-.387-.949-.797-1.264-1.234a2.37 2.37 0 01-.478-1.434 2.754 2.754 0 01.932-2.055 3.524 3.524 0 011.17-.693c.466-.176 1.014-.262 1.639-.262.705 0 1.339.098 1.902.294.56.197 1.055.473 1.482.833.428.363.793.794 1.103 1.303.31.506.56 1.065.761 1.675l1.701-.78a7.638 7.638 0 00-.941-1.987 5.605 5.605 0 00-1.415-1.442 6.176 6.176 0 00-1.937-.89c-.734-.199-1.571-.3-2.505-.3-1.032 0-1.952.134-2.751.407" fill="#fff"/></svg>