<svg width="300" height="600" viewBox="0 0 300 600" fill="none" xmlns="http://www.w3.org/2000/svg"><path d="M0 0h398v617H0V0z" fill="#CDC2AF"/><path d="M0 0h398v617H0V0z" fill="#CDC2AF"/><g opacity=".7"><mask id="a" maskUnits="userSpaceOnUse" x="0" y="-19" width="215" height="446"><path d="M0 427h214.434V-19H0v446z" fill="#fff"/></mask><g mask="url(#a)"><mask id="b" maskUnits="userSpaceOnUse" x="-205" y="-5" width="419" height="419"><path d="M-204.727 413.279h418.16V-4.881h-418.16v418.16z" fill="#fff"/></mask><g mask="url(#b)"><mask id="c" maskUnits="userSpaceOnUse" x="-205" y="-5" width="419" height="419"><path d="M-204.727 413.279h418.16V-4.881h-418.16v418.16z" fill="#fff"/></mask><g opacity=".3" mask="url(#c)"><mask id="d" maskUnits="userSpaceOnUse" x="-220" y="-7" width="449" height="434"><path d="M-219.481 426.392h447.666V-6.52h-447.666v432.912z" fill="#fff"/></mask><g mask="url(#d)"><path d="M-101.504 40.985c-.15.116-.26.203-.266.209-.47.445 2.464 4.503 8.803 12.174 5.469 6.624 12.945 15.628 20.898 25.212 4.359 5.25 8.857 10.671 13.252 15.97-.323-.166-.635-.348-.96-.51-19.983-9.895-46.145-8.826-70.046 2.835l-.039-.045a896.978 896.978 0 01-9.213-11.628c-1.268-1.702-2.448-3.435-2.902-4.596-.654-1.653-.744-2.941-.547-3.943a195.574 195.574 0 0141.022-35.676m181.632-16a65.178 65.178 0 00-15.434-1.873c-6.216 0-12.463.899-18.557 2.732-20.927 6.299-37.683 24.18-41.7 44.494-.037.184-.053.373-.088.561-.037-.186-.053-.375-.09-.561C.248 50.026-16.51 32.146-37.435 25.846a64.37 64.37 0 00-18.56-2.732c-5.194 0-10.367.64-15.427 1.872 23.289-9.858 48.894-15.31 75.775-15.31 26.881 0 52.488 5.452 75.777 15.312zm71.1 51.67c.197 1.004.107 2.294-.545 3.947-.456 1.161-1.634 2.894-2.902 4.596a904.44 904.44 0 01-9.252 11.675c-23.907-11.667-50.073-12.73-70.048-2.837-.323.162-.637.344-.958.51 4.393-5.299 8.891-10.72 13.25-15.97 7.955-9.582 15.427-18.588 20.9-25.212 6.337-7.671 9.274-11.727 8.81-12.168-.013-.01-.123-.099-.275-.217a195.604 195.604 0 0141.022 35.674m-41.026 290.76c.145-.113.252-.199.27-.213.47-.444-2.473-4.513-8.83-12.206-5.485-6.64-12.98-15.669-20.947-25.269-4.332-5.221-8.803-10.608-13.172-15.876.321.166.633.346.956.506 19.977 9.897 46.141 8.836 70.046-2.837a906.661 906.661 0 019.252 11.677c1.268 1.702 2.446 3.435 2.902 4.596.652 1.653.744 2.946.545 3.947a195.524 195.524 0 01-41.022 35.677m-181.714 15.958c11.137 2.728 22.857 2.554 34.073-.824 20.927-6.3 37.683-24.181 41.696-44.494.037-.184.053-.375.09-.561.035.184.051.375.088.561 4.017 20.313 20.771 38.196 41.7 44.494 11.216 3.376 22.947 3.55 34.089.817-23.315 9.885-48.957 15.356-75.877 15.356-26.92 0-52.552-5.469-75.86-15.349m-71.017-51.637c-.197-1.001-.107-2.294.545-3.944.454-1.162 1.634-2.895 2.902-4.597a892.225 892.225 0 019.252-11.675c23.903 11.667 50.063 12.73 70.048 2.835.323-.16.635-.34.956-.506-4.369 5.268-8.84 10.655-13.172 15.876-7.968 9.602-15.462 18.631-20.945 25.269-6.358 7.695-9.299 11.766-8.822 12.214 0 0 .11.09.254.201a195.516 195.516 0 01-41.018-35.673zm-18.438-84.045c-.183.754-.381 1.505-.529 2.265-3.896 20.022 4.66 42.155 21.332 55.391l-3.807 4.664a2332.712 2332.712 0 00-8.054 9.895c-15.7-21.183-27.198-45.662-33.263-72.215h24.321zm45.262-114.566c3.783 4.58 7.56 9.153 10.032 12.215.948 1.17 2.458 2.966 4.295 5.154 7.351 8.742 21.04 25.015 22.756 30.347.983 3.06.66 6.124-.963 9.11-2.456 4.517-7.86 8.47-13.772 10.063-18.035 4.863-41.401-7.89-50.246-22.551-8.578-14.225-9.145-32.133-1.415-44.555.742-1.194 1.598-2.442 2.753-4.011.815-1.122 1.657-2.282 2.622-3.304.389-.417.766-.833 1.13-1.241 1.154-1.276 2.237-2.482 3.677-3.599.152-.118.377-.315.659-.561 2.938-2.564 4.83-3.58 5.647-3.011.982 1.608 4.167 5.465 12.822 15.946m74.866-14.25c-14.444 9.537-31.85 12.599-48.173 8.349-8.711-2.27-20.699-6.985-29.415-16.404l-.008-.011c14.471-10.27 32.207-13.65 48.793-9.264 11.325 2.995 21.482 9.139 28.805 17.33m-87.687 172.335c-.818.561-2.71-.449-5.647-3.011-.283-.246-.508-.442-.66-.561-1.434-1.118-2.521-2.323-3.67-3.597-.373-.412-.744-.825-1.143-1.249-.959-1.018-1.801-2.18-2.675-3.378-1.102-1.503-1.958-2.753-2.694-3.932-7.732-12.425-7.162-30.331 1.416-44.558 8.842-14.663 32.21-27.424 50.245-22.549 5.911 1.594 11.316 5.545 13.772 10.063 1.623 2.986 1.946 6.051.963 9.113-1.716 5.329-15.405 21.603-22.756 30.346-1.839 2.188-3.349 3.982-4.295 5.154-2.474 3.062-6.249 7.636-10.032 12.216-8.656 10.478-11.843 14.339-12.822 15.945m11.791 4.267c6.872-6.377 16.513-11.395 27.72-14.314 16.322-4.246 33.73-1.19 48.172 8.349-7.323 8.191-17.48 14.336-28.805 17.33-16.582 4.39-34.318 1.006-48.793-9.264l1.704-2.101m37.764 73.99c-1.608-2.955-1.918-5.987-.932-9.014 1.74-5.324 15.63-21.587 23.091-30.322 1.875-2.196 3.415-3.998 4.376-5.172 6.81-8.298 21.336-25.902 24.277-29.435 1.227.807 4.123 2.908 5.133 3.68 1.453 1.113 2.55 2.313 3.712 3.581.38.415.768.835 1.17 1.263 1.003 1.047 1.871 2.229 2.72 3.382 1.107 1.481 1.98 2.728 2.736 3.929 7.849 12.418 7.269 30.318-1.438 44.539-7.962 12.996-26.6 24.693-43.025 24.693-2.671 0-5.289-.309-7.792-.975-6.048-1.61-11.558-5.594-14.03-10.149M26.095 125.739l-3.697 4.465c-4.535 5.461-9.672 11.65-13.61 16.58l1.44 1.15.012-.017 15.032 11.401.084.069L28 156.042c-.397-.27-4.064-1.861-1.977-7.142.457-1.163 1.635-2.894 2.903-4.596a908.594 908.594 0 019.252-11.675c23.8 10.95 49.6 11.8 69.431 2.171-4.213 5.158-8.515 10.426-12.683 15.524-7.812 9.561-15.15 18.538-20.521 25.138-6.213 7.64-9.088 11.684-8.625 12.132.012.012.137.11.336.262.526.409 1.706 1.319 2.3 1.829 8.602 7.365 18.61 12.279 29.08 14.544-10.466 2.264-20.478 7.122-29.08 14.488-.576.489-1.702 1.362-2.251 1.786-.236.182-.385.305-.398.315-.454.438 2.417 4.468 8.613 12.089 5.356 6.583 12.675 15.538 20.472 25.08 4.191 5.129 8.521 10.426 12.757 15.614-19.831-9.629-45.635-8.774-69.431 2.173a897.234 897.234 0 01-9.252-11.677c-1.268-1.702-2.446-3.432-2.903-4.596-2.087-5.282 1.58-6.872 1.977-7.142l-2.644-3.345-.084.07-15.032 11.398-.013-.014-1.44 1.149c3.94 4.93 9.076 11.12 13.611 16.58l3.697 4.466c-11.566 9.049-19.278 22.256-21.744 36.102-2.464-13.846-10.176-27.055-21.742-36.102l3.697-4.466c4.535-5.46 9.672-11.65 13.61-16.58l-1.44-1.149s-.008.012-.012.014l-15.03-11.398-.084-.07-2.644 3.345c.398.27 4.064 1.86 1.975 7.142-.455 1.164-1.633 2.894-2.903 4.596a866.914 866.914 0 01-9.252 11.675c-23.806-10.95-49.606-11.802-69.43-2.171 4.237-5.19 8.565-10.485 12.756-15.614 7.797-9.54 15.116-18.497 20.472-25.08 6.196-7.621 9.067-11.651 8.613-12.089-.013-.01-.162-.133-.398-.315-.549-.424-1.675-1.297-2.25-1.786-8.603-7.366-18.611-12.222-29.078-14.488 10.471-2.265 20.475-7.179 29.077-14.544.594-.51 1.774-1.42 2.3-1.829.199-.152.324-.25.349-.275.454-.439-2.425-4.479-8.638-12.119-5.37-6.602-12.71-15.579-20.521-25.138-4.168-5.1-8.472-10.366-12.683-15.524 19.83 9.629 45.635 8.777 69.431-2.171a889.731 889.731 0 019.252 11.675c1.27 1.702 2.448 3.433 2.903 4.596 2.089 5.281-1.578 6.872-1.975 7.142l2.644 3.345.084-.069 15.03-11.401s.01.01.013.017l1.44-1.15c-3.94-4.93-9.076-11.122-13.611-16.58l-3.697-4.465c11.566-9.047 19.278-22.254 21.742-36.1 2.466 13.846 10.178 27.051 21.744 36.1zm100.011-13.652c-6.929 6.813-16.854 12.138-28.39 15.141-16.323 4.246-33.733 1.19-48.173-8.349 7.32-8.189 17.476-14.335 28.8-17.33 16.604-4.381 34.325-1.006 48.796 9.264l-1.033 1.274zm24.915 16.892c1.096 1.489 1.952 2.739 2.694 3.931 7.732 12.424 7.164 30.33-1.416 44.557-7.537 12.494-25.613 23.606-41.958 23.606-2.835 0-5.62-.336-8.285-1.055-5.911-1.595-11.316-5.546-13.772-10.063-1.623-2.986-1.946-6.05-.963-9.11 1.716-5.33 15.405-21.603 22.756-30.347 1.837-2.188 3.351-3.984 4.295-5.153 2.474-3.065 6.249-7.636 10.034-12.216 8.656-10.481 11.841-14.338 12.82-15.946.82-.569 2.71.447 5.647 3.011.281.246.508.443.66.561 1.428 1.113 2.511 2.311 3.654 3.579.375.415.758.837 1.159 1.265.959 1.021 1.801 2.18 2.675 3.38zm-26.612 146.289c-3.786-4.579-7.563-9.153-10.035-12.215-.946-1.172-2.458-2.966-4.295-5.154-7.351-8.742-21.04-25.015-22.756-30.346-.983-3.06-.66-6.127.963-9.113 2.456-4.516 7.86-8.469 13.772-10.063 18.025-4.875 41.399 7.888 50.245 22.549 8.579 14.227 9.146 32.133 1.416 44.558-.735 1.179-1.592 2.429-2.751 4.008-.817 1.122-1.659 2.284-2.622 3.302-.397.426-.778.85-1.157 1.268-1.141 1.267-2.222 2.466-3.65 3.576-.151.119-.379.315-.659.561-2.413 2.104-4.124 3.162-5.109 3.162a.908.908 0 01-.538-.151c-.982-1.606-4.165-5.467-12.82-15.946m-74.87 14.252c14.44-9.539 31.848-12.597 48.173-8.347 12.056 3.138 22.385 8.941 29.404 16.39.004.009.013.017.021.025-14.479 10.27-32.203 13.647-48.795 9.264-11.325-2.994-21.48-9.141-28.8-17.332m38.127 79.957c-2.474 4.555-7.982 8.539-14.032 10.149-17.86 4.75-41.56-8.609-50.815-23.718-8.707-14.221-9.287-32.121-1.438-44.539.758-1.201 1.629-2.448 2.745-3.937.842-1.145 1.71-2.327 2.712-3.376.405-.426.792-.85 1.173-1.265 1.162-1.268 2.26-2.464 3.708-3.577 1.005-.772 3.898-2.871 5.135-3.68a10267.09 10267.09 0 0124.275 29.435c.961 1.174 2.5 2.974 4.373 5.168 7.46 8.737 21.353 25.002 23.094 30.326.986 3.025.676 6.059-.932 9.014m65.001-59.46l-3.808-4.664c16.673-13.236 25.229-35.369 21.335-55.391-.148-.76-.348-1.511-.531-2.265h24.323c-6.065 26.553-17.563 51.034-33.263 72.215a2466.686 2466.686 0 00-8.054-9.895m46.202-105.814a195.77 195.77 0 01-2.877 33.472h-29.858c-6.978-14.96-20.689-27.213-37.007-32.202a62.736 62.736 0 00-4.916-1.277 61.317 61.317 0 004.916-1.261c16.398-5.012 30.17-17.365 37.116-32.428h29.712a195.79 195.79 0 012.916 33.696m-43.744-108.83c1.86-2.277 3.763-4.612 5.592-6.88 15.655 21.124 27.137 45.525 33.214 71.99h-24.22c.161-.68.344-1.356.479-2.04 3.894-20.022-4.662-42.155-21.335-55.391l3.796-4.65c.809-.986 1.638-2.002 2.474-3.026M87.674 38.92c1.607 2.956 1.916 5.99.931 9.012-1.743 5.328-15.636 21.593-23.094 30.33-1.874 2.194-3.412 3.995-4.373 5.168a11405.532 11405.532 0 01-24.275 29.436c-1.237-.809-4.13-2.909-5.135-3.681-1.448-1.112-2.546-2.308-3.706-3.574-.38-.42-.768-.842-1.177-1.272-1-1.045-1.868-2.229-2.716-3.38-1.108-1.48-1.98-2.728-2.737-3.928-7.848-12.419-7.269-30.318 1.438-44.54 9.258-15.115 32.954-28.466 50.815-23.716 6.05 1.608 11.558 5.59 14.032 10.147m-166.646-.002c2.474-4.557 7.982-8.537 14.03-10.147 17.852-4.75 41.559 8.603 50.817 23.717 8.707 14.22 9.285 32.12 1.438 44.539-.758 1.2-1.629 2.447-2.745 3.936-.842 1.145-1.71 2.327-2.712 3.374-.405.426-.792.85-1.173 1.266-1.162 1.267-2.26 2.466-3.714 3.578-1.006.774-3.898 2.872-5.133 3.681-2.939-3.534-17.465-21.138-24.276-29.436-.96-1.173-2.5-2.976-4.375-5.171-7.461-8.736-21.35-25-23.091-30.325-.988-3.023-.678-6.058.932-9.014m-73.051 49.574c1.831 2.265 3.732 4.598 5.592 6.878l2.462 3.015 3.807 4.663c-16.672 13.236-25.228 35.369-21.332 55.391.133.686.315 1.36.477 2.04h-24.22c6.077-26.465 17.559-50.866 33.214-71.987zm-38.148 115.707a195.79 195.79 0 012.914-33.696h29.712c6.946 15.065 20.716 27.416 37.116 32.428a62.41 62.41 0 004.916 1.264 62.05 62.05 0 00-4.916 1.274c-16.316 4.987-30.031 17.242-37.009 32.202h-29.856a195.77 195.77 0 01-2.877-33.472zM4.353 413.279c115.472 0 209.08-93.609 209.08-209.08 0-115.472-93.608-209.08-209.08-209.08-115.472 0-209.08 93.608-209.08 209.08 0 115.471 93.608 209.08 209.08 209.08z" fill="#fff"/></g></g></g></g></g><rect x="91" y="275" width="118.091" height="32.804" rx="2" fill="#fff" fill-opacity=".67"/><path d="M105.886 296v-9.1h1.599v7.644h4.784V296h-6.383zm8.036 0v-9.1h6.747v1.43h-5.148v2.366h4.563v1.443h-4.563v2.431h5.213V296h-6.812zm7.929 0l4.004-9.165h1.482l4.004 9.165h-1.69l-.923-2.197h-4.303l-.936 2.197h-1.638zm3.159-3.614h3.133l-1.573-3.64-1.56 3.64zm7.891 3.614v-9.1h4.056c1.144 0 2.041.338 2.626.91.481.507.754 1.17.754 1.963v.026c0 1.495-.897 2.392-2.158 2.756l2.457 3.445h-1.898l-2.236-3.172H134.5V296h-1.599zm1.599-4.589h2.34c1.144 0 1.872-.585 1.872-1.521v-.026c0-.988-.689-1.508-1.885-1.508H134.5v3.055zm7.796 4.589v-9.1h1.482l4.875 6.292V286.9h1.573v9.1h-1.339l-5.018-6.474V296h-1.573zm14.168 0v-9.1h1.703l2.769 4.303 2.769-4.303h1.703v9.1h-1.599v-6.526l-2.873 4.29h-.052l-2.847-4.264v6.5h-1.573zm15.628.156c-2.795 0-4.745-2.119-4.745-4.68v-.026c0-2.548 1.976-4.706 4.771-4.706s4.745 2.119 4.745 4.68v.026c0 2.548-1.976 4.706-4.771 4.706zm.026-1.482c1.807 0 3.068-1.43 3.068-3.198v-.026c0-1.768-1.274-3.224-3.094-3.224-1.807 0-3.068 1.43-3.068 3.198v.026c0 1.768 1.274 3.224 3.094 3.224zm6.677 1.326v-9.1h4.056c1.144 0 2.041.338 2.626.91.481.507.754 1.17.754 1.963v.026c0 1.495-.897 2.392-2.158 2.756L186.53 296h-1.898l-2.236-3.172h-2.002V296h-1.599zm1.599-4.589h2.34c1.144 0 1.872-.585 1.872-1.521v-.026c0-.988-.689-1.508-1.885-1.508h-2.327v3.055zm7.795 4.589v-9.1h6.747v1.43h-5.148v2.366h4.563v1.443h-4.563v2.431h5.213V296h-6.812z" fill="#000"/></svg>