<svg width="184" height="75" viewBox="0 0 184 75" fill="none" xmlns="http://www.w3.org/2000/svg"><path d="M.75.102h4.355V26H.75V.102zm15.406 0h2.442L35.57 19.047h.196V.102h1.914v26.503h-1.016L18.285 5.552h-.156V26h-1.973V.102zm49.274 0v1.68H52.793v9.257h9.14v1.68h-9.14V26h-4.355V.102H65.43zm7.75 0h4.355V26H73.18V.102zm15.406 0h2.441L108 19.047h.195V.102h1.914v26.503h-1.015L90.714 5.552h-.155V26h-1.973V.102zm32.555 0h4.355V26h-4.355V.102zm35.757 0v1.68h-9.375V26h-4.355V1.781h-9.375V.101h23.105zm26.266 0v1.68h-13.652v9.257h9.14v1.68h-9.14V24.32h13.652V26h-18.008V.102h18.008zm-164.43 48l9.785 20.605 9.083-20.605h2.07L27.914 74.606h-1.133L14.145 48.102h4.59zm28.551 0h4.356V74h-4.356V48.102zm23.883 24.863c.638 0 1.27-.085 1.894-.254a5.854 5.854 0 001.68-.781 4.248 4.248 0 001.192-1.27c.3-.508.449-1.094.449-1.758 0-.794-.209-1.497-.625-2.109a6.777 6.777 0 00-1.602-1.7 15.327 15.327 0 00-2.285-1.464c-.846-.456-1.712-.912-2.598-1.367a63.31 63.31 0 01-2.617-1.426 13.823 13.823 0 01-2.265-1.68 8.431 8.431 0 01-1.622-2.07c-.403-.768-.605-1.647-.605-2.637s.182-1.907.547-2.754a6.134 6.134 0 011.64-2.187c.717-.625 1.596-1.114 2.637-1.465 1.055-.352 2.26-.527 3.614-.527 1.224 0 2.317.13 3.28.39.964.26 1.81.645 2.54 1.153a7.26 7.26 0 011.855 1.875c.508.742.918 1.601 1.23 2.578l-2.226 1.015a10.021 10.021 0 00-.996-2.168 6.799 6.799 0 00-1.445-1.699 5.927 5.927 0 00-1.953-1.074c-.73-.26-1.556-.39-2.48-.39-.821 0-1.537.117-2.15.35-.611.222-1.126.522-1.542.9a3.7 3.7 0 00-.918 1.25 3.537 3.537 0 00-.293 1.406c0 .677.208 1.302.625 1.875.417.56.97 1.093 1.66 1.601.69.495 1.471.977 2.344 1.445.885.47 1.784.944 2.695 1.426.912.482 1.803.983 2.676 1.504.885.521 1.673 1.094 2.363 1.719a7.85 7.85 0 011.66 2.031c.417.73.625 1.55.625 2.461a7.31 7.31 0 01-.586 2.91 6.572 6.572 0 01-1.757 2.364c-.782.664-1.752 1.19-2.91 1.581-1.16.391-2.507.587-4.043.587-1.25 0-2.364-.137-3.34-.41a8.638 8.638 0 01-2.598-1.192 8.013 8.013 0 01-1.914-1.895 10.426 10.426 0 01-1.309-2.578l2.324-.957a8.709 8.709 0 001.094 2.266 7.752 7.752 0 001.621 1.7 7.176 7.176 0 002.032 1.054 7.672 7.672 0 002.402.37zm19.039-24.863h4.356V74h-4.356V48.102zm28.531 26.504c-2.005 0-3.88-.359-5.625-1.075-1.731-.716-3.242-1.693-4.531-2.93a14.146 14.146 0 01-3.027-4.355c-.729-1.667-1.094-3.444-1.094-5.332 0-1.237.163-2.428.488-3.574a13.153 13.153 0 011.426-3.203 13.25 13.25 0 012.207-2.696 13.843 13.843 0 012.891-2.09 14.261 14.261 0 013.418-1.347 15.053 15.053 0 013.847-.488c1.341 0 2.624.162 3.848.488 1.224.312 2.363.762 3.418 1.348a13.219 13.219 0 012.891 2.09 13.25 13.25 0 012.207 2.695c.625.99 1.1 2.057 1.425 3.203.339 1.146.508 2.337.508 3.574 0 1.263-.169 2.474-.508 3.633a12.773 12.773 0 01-1.425 3.262 13.707 13.707 0 01-2.207 2.773 13.91 13.91 0 01-2.891 2.149 14.37 14.37 0 01-3.418 1.386 14.914 14.914 0 01-3.848.489zm0-1.29c1.485 0 2.793-.306 3.926-.918a8.48 8.48 0 002.891-2.597c.781-1.107 1.367-2.416 1.757-3.926.404-1.51.606-3.164.606-4.96 0-1.785-.202-3.419-.606-4.903-.39-1.485-.976-2.76-1.757-3.828a8.066 8.066 0 00-2.891-2.5c-1.133-.6-2.441-.899-3.926-.899-1.51 0-2.838.3-3.984.899-1.133.586-2.09 1.419-2.871 2.5-.768 1.067-1.348 2.343-1.738 3.828-.391 1.484-.586 3.118-.586 4.902 0 1.797.195 3.45.586 4.961.39 1.51.97 2.819 1.738 3.926.781 1.107 1.738 1.972 2.871 2.597 1.146.612 2.474.918 3.984.918zm24.157-25.214h2.441l16.973 18.945h.195V48.102h1.914v26.504h-1.016L145.023 53.55h-.156V74h-1.972V48.102z" fill="#fff"/></svg>