<?xml version="1.0" encoding="UTF-8"?>
<svg id="Layer_1" data-name="Layer 1" xmlns="http://www.w3.org/2000/svg" xmlns:xlink="http://www.w3.org/1999/xlink" viewBox="0 0 205.76 198.03">
  <defs>
    <style>
      .cls-1 {
        fill: none;
      }

      .cls-2 {
        isolation: isolate;
      }

      .cls-3 {
        fill: #fff;
      }
    </style>
    <clipPath id="clippath">
      <rect class="cls-1" x="59.74" y="52.73" width="93.07" height="93.07"/>
    </clipPath>
    <clipPath id="clippath-2">
      <rect class="cls-1" width="220.85" height="212.23"/>
    </clipPath>
    <clipPath id="clippath-3">
      <rect class="cls-1" y="0" width="220.85" height="212.23"/>
    </clipPath>
  </defs>
  <g class="cls-2">
    <g>
      <path class="cls-3" d="M195.83,88.56c-4.32,0-8.09,2.74-9.44,6.84h-28.93v-15.05h17.19c5.83,0,10.57-4.74,10.57-10.57v-9.13c4.1-1.34,6.84-5.12,6.84-9.44,0-5.47-4.45-9.93-9.93-9.93s-9.93,4.45-9.93,9.93c0,4.32,2.74,8.09,6.84,9.44v9.13c0,2.43-1.97,4.4-4.4,4.4h-17.19v-8.85c0-10.35-8.42-18.78-18.78-18.78h-8.85v-12.78c0-2.43,1.97-4.4,4.4-4.4h9.13c1.34,4.1,5.12,6.84,9.44,6.84,5.47,0,9.93-4.45,9.93-9.93s-4.45-9.93-9.93-9.93c-4.32,0-8.09,2.74-9.44,6.84h-9.13c-5.83,0-10.57,4.74-10.57,10.57v12.78h-15.09v-24.52c4.1-1.34,6.84-5.12,6.84-9.44,0-5.47-4.45-9.93-9.93-9.93s-9.93,4.45-9.93,9.93c0,4.32,2.74,8.09,6.84,9.44v24.52h-15.05v-12.78c0-5.83-4.74-10.57-10.57-10.57h-9.13c-1.34-4.1-5.12-6.84-9.44-6.84-5.47,0-9.93,4.45-9.93,9.93s4.45,9.93,9.93,9.93c4.32,0,8.09-2.74,9.44-6.84h9.13c2.43,0,4.4,1.97,4.4,4.4v12.78h-8.85c-10.35,0-18.78,8.42-18.78,18.78v8.85h-17.19c-2.43,0-4.4-1.97-4.4-4.4v-9.13c4.1-1.34,6.84-5.12,6.84-9.44,0-5.47-4.45-9.93-9.93-9.93s-9.93,4.45-9.93,9.93c0,4.32,2.74,8.09,6.84,9.44v9.13c0,5.83,4.74,10.57,10.57,10.57h17.19v15.05h-28.93c-1.34-4.1-5.12-6.84-9.44-6.84-5.47,0-9.93,4.45-9.93,9.93s4.45,9.93,9.93,9.93c4.32,0,8.09-2.74,9.44-6.84h28.93v15.1h-17.19c-5.83,0-10.57,4.74-10.57,10.57v9.13c-4.1,1.34-6.84,5.12-6.84,9.44,0,5.47,4.45,9.93,9.93,9.93s9.93-4.45,9.93-9.93c0-4.32-2.74-8.09-6.84-9.44v-9.13c0-2.43,1.97-4.4,4.4-4.4h17.19v8.85c0,10.35,8.42,18.78,18.78,18.78h8.85v12.78c0,2.43-1.97,4.4-4.4,4.4h-9.13c-1.34-4.1-5.12-6.84-9.44-6.84-5.47,0-9.93,4.45-9.93,9.93s4.45,9.93,9.93,9.93c4.32,0,8.09-2.74,9.44-6.84h9.13c5.83,0,10.57-4.74,10.57-10.57v-12.78h15.05v24.52c-4.1,1.34-6.84,5.12-6.84,9.44,0,5.47,4.45,9.93,9.93,9.93s9.93-4.45,9.93-9.93c0-4.32-2.74-8.09-6.84-9.44v-24.52h15.09v12.78c0,5.83,4.74,10.57,10.57,10.57h9.13c1.34,4.1,5.12,6.84,9.44,6.84,5.47,0,9.93-4.45,9.93-9.93s-4.45-9.93-9.93-9.93c-4.32,0-8.09,2.74-9.44,6.84h-9.13c-2.43,0-4.4-1.97-4.4-4.4v-12.78h8.85c10.35,0,18.78-8.42,18.78-18.78v-8.85h17.19c2.43,0,4.4,1.97,4.4,4.4v9.13c-4.1,1.34-6.84,5.12-6.84,9.44,0,5.47,4.45,9.93,9.93,9.93s9.93-4.45,9.93-9.93c0-4.32-2.74-8.09-6.84-9.44v-9.13c0-5.83-4.74-10.57-10.57-10.57h-17.19v-15.1h28.93c1.34,4.1,5.12,6.84,9.44,6.84,5.47,0,9.93-4.45,9.93-9.93s-4.45-9.93-9.93-9.93M199.59,98.48c0,2.07-1.68,3.76-3.76,3.76s-3.76-1.68-3.76-3.76,1.69-3.76,3.76-3.76,3.76,1.68,3.76,3.76M178.39,51.22c0-2.07,1.68-3.76,3.76-3.76s3.76,1.68,3.76,3.76-1.68,3.76-3.76,3.76-3.76-1.68-3.76-3.76M151.3,131.68c0,6.95-5.65,12.61-12.61,12.61h-66.35c-6.95,0-12.61-5.66-12.61-12.61v-66.35c0-6.95,5.65-12.61,12.61-12.61h66.35c6.95,0,12.61,5.66,12.61,12.61v66.35ZM149.05,26.29c0-2.07,1.69-3.76,3.76-3.76s3.76,1.68,3.76,3.76-1.68,3.76-3.76,3.76-3.76-1.68-3.76-3.76M101.74,12.6c0-2.07,1.68-3.76,3.76-3.76s3.76,1.68,3.76,3.76-1.69,3.76-3.76,3.76-3.76-1.68-3.76-3.76M58.23,22.53c2.07,0,3.76,1.68,3.76,3.76s-1.69,3.76-3.76,3.76-3.76-1.68-3.76-3.76,1.68-3.76,3.76-3.76M28.89,47.46c2.07,0,3.76,1.68,3.76,3.76s-1.68,3.76-3.76,3.76-3.76-1.68-3.76-3.76,1.68-3.76,3.76-3.76M18.96,98.48c0,2.07-1.69,3.76-3.76,3.76s-3.76-1.68-3.76-3.76,1.68-3.76,3.76-3.76,3.76,1.68,3.76,3.76M32.65,145.8c0,2.07-1.68,3.76-3.76,3.76s-3.76-1.68-3.76-3.76,1.68-3.76,3.76-3.76,3.76,1.68,3.76,3.76M58.23,166.97c2.07,0,3.76,1.68,3.76,3.76s-1.69,3.76-3.76,3.76-3.76-1.68-3.76-3.76,1.68-3.76,3.76-3.76M109.25,184.41c0,2.07-1.69,3.76-3.76,3.76s-3.76-1.68-3.76-3.76,1.68-3.76,3.76-3.76,3.76,1.68,3.76,3.76M149.05,170.73c0-2.07,1.69-3.76,3.76-3.76s3.76,1.68,3.76,3.76-1.68,3.76-3.76,3.76-3.76-1.68-3.76-3.76M182.15,149.56c-2.07,0-3.76-1.68-3.76-3.76s1.68-3.76,3.76-3.76,3.76,1.68,3.76,3.76-1.68,3.76-3.76,3.76"/>
      <rect class="cls-3" x="122.93" y="75.96" width="8.57" height="44.01"/>
      <path class="cls-3" d="M103.93,109.41l3.57,10.56h9.64l-16.32-44.01h-10.25l-16.61,44.01h9.64l3.64-10.56h16.68ZM95.67,85.29l5.58,16.2h-11.28l5.7-16.2Z"/>
    </g>
  </g>
</svg>