<?xml version="1.0" encoding="UTF-8"?>
<svg id="Layer_2" data-name="Layer 2" xmlns="http://www.w3.org/2000/svg" xmlns:xlink="http://www.w3.org/1999/xlink" viewBox="0 0 837.51 375.13">
  <defs>
    <style>
      .cls-1 {
        fill: none;
      }

      .cls-2 {
        fill: #e24c25;
      }

      .cls-3 {
        fill: #e35225;
      }

      .cls-4 {
        fill: #ee7222;
      }

      .cls-5 {
        fill: #ef7422;
      }

      .cls-6 {
        fill: #e75f24;
      }

      .cls-7 {
        fill: #f37c21;
      }

      .cls-8 {
        fill: #f07722;
      }

      .cls-9 {
        fill: #e96424;
      }

      .cls-10 {
        fill: #010101;
      }

      .cls-11 {
        fill: #e45525;
      }

      .cls-12 {
        fill: #e86324;
      }

      .cls-13 {
        fill: #f07821;
      }

      .cls-14 {
        fill: #ed7123;
      }

      .cls-15 {
        fill: #e55625;
      }

      .cls-16 {
        fill: url(#linear-gradient-2);
      }

      .cls-17 {
        fill: #e65c24;
      }

      .cls-18 {
        fill: #eb6b23;
      }

      .cls-19 {
        fill: #ea6724;
      }

      .cls-20 {
        fill: #e14826;
      }

      .cls-21 {
        fill: #ea6823;
      }

      .cls-22 {
        fill: #e65b25;
      }

      .cls-23 {
        fill: #e24d25;
      }

      .cls-24 {
        fill: #e76024;
      }

      .cls-25 {
        fill: url(#linear-gradient);
      }

      .cls-26 {
        fill: #e75e24;
      }

      .cls-27 {
        fill: #f27c21;
      }

      .cls-28 {
        fill: #f37d20;
      }

      .cls-29 {
        fill: #f27b21;
      }

      .cls-30 {
        fill: #e45325;
      }

      .cls-31 {
        fill: #e35125;
      }

      .cls-32 {
        fill: #e14b25;
      }

      .cls-33 {
        fill: #ee7122;
      }

      .cls-34 {
        fill: #f47f20;
      }

      .cls-35 {
        fill: #e04726;
      }

      .cls-36 {
        fill: #eb6923;
      }

      .cls-37 {
        fill: #ec6d23;
      }

      .cls-38 {
        fill: #e55725;
      }

      .cls-39 {
        clip-path: url(#clippath-1);
      }

      .cls-40 {
        clip-path: url(#clippath-3);
      }

      .cls-41 {
        clip-path: url(#clippath-2);
      }

      .cls-42 {
        fill: #f17921;
      }

      .cls-43 {
        fill: #e24f25;
      }

      .cls-44 {
        fill: #ed7023;
      }

      .cls-45 {
        fill: #ec6c23;
      }

      .cls-46 {
        fill: #020202;
      }

      .cls-47 {
        fill: #e04426;
      }

      .cls-48 {
        fill: #e96624;
      }

      .cls-49 {
        fill: #fff;
      }

      .cls-50 {
        fill: #e9372d;
      }

      .cls-51 {
        fill: #e14a25;
      }

      .cls-52 {
        fill: #e55925;
      }

      .cls-53 {
        fill: #e14926;
      }

      .cls-54 {
        fill: #e35025;
      }

      .cls-55 {
        fill: #545654;
      }

      .cls-56 {
        fill: #ee7322;
      }

      .cls-57 {
        fill: #e86224;
      }

      .cls-58 {
        fill: #e75d24;
      }

      .cls-59 {
        opacity: .62;
      }

      .cls-60 {
        opacity: .56;
      }

      .cls-61 {
        fill: #e24e25;
      }

      .cls-62 {
        fill: #ed6f23;
      }

      .cls-63 {
        fill: #f47e20;
      }

      .cls-64 {
        fill: #e96524;
      }

      .cls-65 {
        fill: #df4326;
      }

      .cls-66 {
        fill: #f27a21;
      }

      .cls-67 {
        fill: #e86124;
      }

      .cls-68 {
        fill: #f48020;
      }

      .cls-69 {
        fill: #ec6e23;
      }

      .cls-70 {
        fill: #e04626;
      }

      .cls-71 {
        fill: #e55825;
      }

      .cls-72 {
        fill: #e04526;
      }

      .cls-73 {
        fill: #e65a25;
      }

      .cls-74 {
        fill: #e45425;
      }

      .cls-75 {
        fill: #ef7522;
      }

      .cls-76 {
        fill: #f58020;
      }

      .cls-77 {
        fill: #eb6a23;
      }

      .cls-78 {
        fill: #f07622;
      }

      .cls-79 {
        clip-path: url(#clippath);
      }
    </style>
    <clipPath id="clippath">
      <path class="cls-1" d="M753.52,250.59v-.14s-3-.7-3-.7l-4.06-41.89-21.43,34.05-64.53-18.86,29.95,19.68c-313.16-54.6-537.27,13.69-657.73,73.39,0,0,298.06-134.55,674.35-41.28l-28.76,40.66,50.81-29.13,28.03,31.64-4.08-42.08,38.75-16.88-38.3-8.46Z"/>
    </clipPath>
    <clipPath id="clippath-1">
      <path class="cls-1" d="M497.29,172.69l-16.26.28,11.44-56.5-10.32-8.85h29.52l-2.97,15.73h29.19l10.75-49.55h-58.95c-13.19,0-24.55,9.3-27.14,22.23l-22.33,111.19,81.14-1.17,2.47-10.9,7.51-35.18-31.1.64-2.96,12.09Z"/>
    </clipPath>
    <clipPath id="clippath-2">
      <path class="cls-1" d="M573.93,73.8c-6.96-.19-13.06,5.3-14.49,12.11l-25.32,120.14,68.93.71c7.82.35,14.71-5.07,16.21-12.75l24.18-120.21h-69.52ZM589.39,172.84l-14.44-.12,13.46-65.1,13.85.05-12.87,65.18Z"/>
    </clipPath>
    <clipPath id="clippath-3">
      <polygon class="cls-1" points="713.51 73.8 699.18 144.14 693.14 73.8 657.1 73.8 630.32 208.11 665.31 209.75 676.8 148.99 683.06 211.49 718.53 213.56 748.11 73.8 713.51 73.8"/>
    </clipPath>
    <linearGradient id="linear-gradient" x1="144.75" y1="16.69" x2="307.02" y2="16.69" gradientUnits="userSpaceOnUse">
      <stop offset=".26" stop-color="#f58020"/>
      <stop offset="1" stop-color="#df4326"/>
    </linearGradient>
    <linearGradient id="linear-gradient-2" x1="513.51" x2="675.78" xlink:href="#linear-gradient"/>
  </defs>
  <g class="cls-59">
    <path class="cls-46" d="M5.4,316.82L75,95.6l-35.13-33.07h167.06l-4.45,10.09s7-10.09,25.98-10.09h39.42v16.32l9.79-16.32h63.34l-21.09,104.08,30.41-2.97,20.99-101.11h60.06l-19.14,99.86,23.61-.69,15.16-73.5s4.74-25.67,30.75-25.67h219.26l2.23,12.89,3.56-12.89h56.64l-29.46,145.15,21.38-37.56,7.24,71.5,61.91,18.18-56.3,28.13,3.87,73.3-46.51-54.98-73.94,42.2,27.01-56.39s-20.71-3.52-43.88-8.19c-1.6.77-.38,45.01-.38,45.01-200.29-19.59-336.17-13.68-468.91,2.1,0,0,.61-12.96,2.65-41.35-74.17,15.21-74.17,18.77-144.78,43.37l-8.17-5.89-9.78-10.28Z"/>
  </g>
  <polygon class="cls-49" points="290.93 73.8 326.17 73.8 304.18 183.01 344.4 178.88 337.63 213.12 262.33 223.05 290.93 73.8"/>
  <polygon class="cls-49" points="381.72 73.8 416.19 73.8 395 176.17 432.96 175.15 426.77 208.3 354.07 211.14 381.72 73.8"/>
  <g>
    <polygon class="cls-1" points="218.93 158.97 221.24 114.39 203.24 160.6 218.93 158.97"/>
    <polygon class="cls-1" points="218.93 190.52 210.33 191.39 218.93 190.58 218.93 190.52"/>
    <path class="cls-49" d="M235.34,73.8c-13.27,0-28.43,7.83-34.15,19.81l-80.57,165.82,45.11-15,20.05-41.68-9.54-8.18,34.09-3.18,8.6-.87v.07l.71-.07-.71.27v41.53l33.82-7.02V73.8h-17.41ZM218.93,158.97l-15.68,1.63,17.99-46.22-2.31,44.58Z"/>
    <polygon class="cls-10" points="218.93 190.58 218.93 190.79 219.64 190.52 218.93 190.58"/>
  </g>
  <polygon class="cls-49" points="188.55 73.8 93.96 73.8 93.96 73.8 93.96 73.8 67.05 73.8 88.63 90.87 70.7 148.29 23.35 299.97 63.49 280.67 95.04 182.09 140.41 177.27 158.13 141.32 106.2 146.39 114.76 119.65 101.3 107.63 171.93 107.63 188.55 73.8"/>
  <g>
    <g class="cls-79">
      <polygon class="cls-65" points="32.72 213.71 269.84 186.55 284.9 318.01 32.72 318.01 32.72 213.71"/>
      <polygon class="cls-65" points="269.84 186.55 272.77 186.21 287.87 318.01 284.9 318.01 269.84 186.55"/>
      <polygon class="cls-47" points="272.77 186.21 275.71 185.87 290.85 318.01 287.87 318.01 272.77 186.21"/>
      <polygon class="cls-72" points="275.71 185.87 278.64 185.54 293.82 318.01 290.85 318.01 275.71 185.87"/>
      <polygon class="cls-70" points="278.64 185.54 281.57 185.2 296.79 318.01 293.82 318.01 278.64 185.54"/>
      <polygon class="cls-35" points="281.57 185.2 284.51 184.86 299.76 318.01 296.79 318.01 281.57 185.2"/>
      <polygon class="cls-20" points="284.51 184.86 287.44 184.53 302.73 318.01 299.76 318.01 284.51 184.86"/>
      <polygon class="cls-53" points="287.44 184.53 290.37 184.19 305.71 318.01 302.73 318.01 287.44 184.53"/>
      <polygon class="cls-51" points="290.37 184.19 293.31 183.86 308.68 318.01 305.71 318.01 290.37 184.19"/>
      <polygon class="cls-32" points="293.31 183.86 296.24 183.52 311.65 318.01 308.68 318.01 293.31 183.86"/>
      <polygon class="cls-2" points="296.24 183.52 299.17 183.18 314.62 318.01 311.65 318.01 296.24 183.52"/>
      <polygon class="cls-23" points="299.17 183.18 302.11 182.85 317.59 318.01 314.62 318.01 299.17 183.18"/>
      <polygon class="cls-61" points="302.11 182.85 305.04 182.51 320.57 318.01 317.59 318.01 302.11 182.85"/>
      <polygon class="cls-43" points="305.04 182.51 307.97 182.18 323.54 318.01 320.57 318.01 305.04 182.51"/>
      <polygon class="cls-54" points="307.97 182.18 310.91 181.84 326.51 318.01 323.54 318.01 307.97 182.18"/>
      <polygon class="cls-31" points="310.91 181.84 313.21 181.58 313.85 181.58 329.48 318.01 326.51 318.01 310.91 181.84"/>
      <polygon class="cls-3" points="316.82 181.58 332.45 318.01 329.48 318.01 313.85 181.58 316.82 181.58"/>
      <polygon class="cls-30" points="319.79 181.58 335.43 318.01 332.45 318.01 316.82 181.58 319.79 181.58"/>
      <polygon class="cls-30" points="322.77 181.58 338.4 318.01 335.43 318.01 319.79 181.58 322.77 181.58"/>
      <polygon class="cls-74" points="325.74 181.58 341.37 318.01 338.4 318.01 322.77 181.58 325.74 181.58"/>
      <polygon class="cls-11" points="328.71 181.58 344.34 318.01 341.37 318.01 325.74 181.58 328.71 181.58"/>
      <polygon class="cls-15" points="331.68 181.58 347.31 318.01 344.34 318.01 328.71 181.58 331.68 181.58"/>
      <polygon class="cls-38" points="334.65 181.58 350.29 318.01 347.31 318.01 331.68 181.58 334.65 181.58"/>
      <polygon class="cls-71" points="337.63 181.58 353.26 318.01 350.29 318.01 334.65 181.58 337.63 181.58"/>
      <polygon class="cls-52" points="340.6 181.58 356.23 318.01 353.26 318.01 337.63 181.58 340.6 181.58"/>
      <polygon class="cls-73" points="343.57 181.58 359.2 318.01 356.23 318.01 340.6 181.58 343.57 181.58"/>
      <polygon class="cls-22" points="346.54 181.58 362.17 318.01 359.2 318.01 343.57 181.58 346.54 181.58"/>
      <polygon class="cls-17" points="349.51 181.58 365.14 318.01 362.17 318.01 346.54 181.58 349.51 181.58"/>
      <polygon class="cls-17" points="352.49 181.58 368.12 318.01 365.14 318.01 349.51 181.58 352.49 181.58"/>
      <polygon class="cls-58" points="355.46 181.58 371.09 318.01 368.12 318.01 352.49 181.58 355.46 181.58"/>
      <polygon class="cls-26" points="358.43 181.58 374.06 318.01 371.09 318.01 355.46 181.58 358.43 181.58"/>
      <polygon class="cls-6" points="361.4 181.58 377.03 318.01 374.06 318.01 358.43 181.58 361.4 181.58"/>
      <polygon class="cls-24" points="364.37 181.58 380 318.01 377.03 318.01 361.4 181.58 364.37 181.58"/>
      <polygon class="cls-67" points="367.34 181.58 382.98 318.01 380 318.01 364.37 181.58 367.34 181.58"/>
      <polygon class="cls-57" points="370.32 181.58 385.95 318.01 382.98 318.01 367.34 181.58 370.32 181.58"/>
      <polygon class="cls-57" points="373.29 181.58 388.92 318.01 385.95 318.01 370.32 181.58 373.29 181.58"/>
      <polygon class="cls-12" points="376.26 181.58 391.89 318.01 388.92 318.01 373.29 181.58 376.26 181.58"/>
      <polygon class="cls-9" points="379.23 181.58 394.86 318.01 391.89 318.01 376.26 181.58 379.23 181.58"/>
      <polygon class="cls-64" points="382.2 181.58 397.84 318.01 394.86 318.01 379.23 181.58 382.2 181.58"/>
      <polygon class="cls-48" points="385.18 181.58 400.81 318.01 397.84 318.01 382.2 181.58 385.18 181.58"/>
      <polygon class="cls-19" points="388.15 181.58 403.78 318.01 400.81 318.01 385.18 181.58 388.15 181.58"/>
      <polygon class="cls-21" points="391.12 181.58 406.75 318.01 403.78 318.01 388.15 181.58 391.12 181.58"/>
      <polygon class="cls-21" points="394.09 181.58 409.72 318.01 406.75 318.01 391.12 181.58 394.09 181.58"/>
      <polygon class="cls-36" points="397.06 181.58 412.7 318.01 409.72 318.01 394.09 181.58 397.06 181.58"/>
      <polygon class="cls-77" points="400.04 181.58 415.67 318.01 412.7 318.01 397.06 181.58 400.04 181.58"/>
      <polygon class="cls-18" points="403.01 181.58 418.64 318.01 415.67 318.01 400.04 181.58 403.01 181.58"/>
      <polygon class="cls-45" points="405.98 181.58 421.61 318.01 418.64 318.01 403.01 181.58 405.98 181.58"/>
      <polygon class="cls-37" points="408.95 181.58 424.58 318.01 421.61 318.01 405.98 181.58 408.95 181.58"/>
      <polygon class="cls-37" points="411.92 181.58 427.56 318.01 424.58 318.01 408.95 181.58 411.92 181.58"/>
      <polygon class="cls-69" points="414.9 181.58 430.53 318.01 427.56 318.01 411.92 181.58 414.9 181.58"/>
      <polygon class="cls-62" points="417.87 181.58 433.5 318.01 430.53 318.01 414.9 181.58 417.87 181.58"/>
      <polygon class="cls-44" points="420.84 181.58 436.47 318.01 433.5 318.01 417.87 181.58 420.84 181.58"/>
      <polygon class="cls-14" points="423.81 181.58 439.44 318.01 436.47 318.01 420.84 181.58 423.81 181.58"/>
      <polygon class="cls-33" points="426.78 181.58 442.42 318.01 439.44 318.01 423.81 181.58 426.78 181.58"/>
      <polygon class="cls-4" points="429.76 181.58 445.39 318.01 442.42 318.01 426.78 181.58 429.76 181.58"/>
      <polygon class="cls-56" points="432.73 181.58 448.36 318.01 445.39 318.01 429.76 181.58 432.73 181.58"/>
      <polygon class="cls-5" points="435.7 181.58 451.33 318.01 448.36 318.01 432.73 181.58 435.7 181.58"/>
      <polygon class="cls-75" points="438.67 181.58 454.3 318.01 451.33 318.01 435.7 181.58 438.67 181.58"/>
      <polygon class="cls-75" points="441.64 181.58 457.27 318.01 454.3 318.01 438.67 181.58 441.64 181.58"/>
      <polygon class="cls-78" points="444.62 181.58 460.25 318.01 457.27 318.01 441.64 181.58 444.62 181.58"/>
      <polygon class="cls-8" points="447.59 181.58 463.22 318.01 460.25 318.01 444.62 181.58 447.59 181.58"/>
      <polygon class="cls-13" points="450.56 181.58 466.19 318.01 463.22 318.01 447.59 181.58 450.56 181.58"/>
      <polygon class="cls-42" points="453.53 181.58 469.16 318.01 466.19 318.01 450.56 181.58 453.53 181.58"/>
      <polygon class="cls-42" points="456.5 181.58 472.13 318.01 469.16 318.01 453.53 181.58 456.5 181.58"/>
      <polygon class="cls-66" points="459.47 181.58 475.11 318.01 472.13 318.01 456.5 181.58 459.47 181.58"/>
      <polygon class="cls-29" points="462.45 181.58 478.08 318.01 475.11 318.01 459.47 181.58 462.45 181.58"/>
      <polygon class="cls-27" points="465.42 181.58 481.05 318.01 478.08 318.01 462.45 181.58 465.42 181.58"/>
      <polygon class="cls-7" points="468.39 181.58 484.02 318.01 481.05 318.01 465.42 181.58 468.39 181.58"/>
      <polygon class="cls-28" points="471.36 181.58 486.99 318.01 484.02 318.01 468.39 181.58 471.36 181.58"/>
      <polygon class="cls-63" points="474.33 181.58 489.97 318.01 486.99 318.01 471.36 181.58 474.33 181.58"/>
      <polygon class="cls-34" points="477.31 181.58 492.94 318.01 489.97 318.01 474.33 181.58 477.31 181.58"/>
      <polygon class="cls-68" points="480.28 181.58 495.91 318.01 492.94 318.01 477.31 181.58 480.28 181.58"/>
      <polygon class="cls-76" points="483.25 181.58 498.88 318.01 495.91 318.01 480.28 181.58 483.25 181.58"/>
      <polygon class="cls-76" points="791.82 316.06 774.72 318.01 498.88 318.01 483.25 181.58 791.82 181.58 791.82 316.06"/>
    </g>
    <polygon class="cls-50" points="741.16 235.27 743.23 256.67 764.23 261.31 744.52 269.9 746.59 291.3 732.33 275.21 705.61 289.98 723.52 265.26 703.11 244.61 730.26 253.8 741.16 235.27"/>
  </g>
  <g class="cls-60">
    <path class="cls-55" d="M763.44,62.53l-29.46,145.15,21.38-37.56,7.24,71.49,61.91,18.18-56.3,28.13,3.87,73.3-46.51-54.98-73.94,42.2,27.01-56.39s-20.71-3.52-43.88-8.19c-1.6.77-.38,45.01-.38,45.01-89.07-8.71-165.4-12.38-234.39-12.38-86.14,0-160.81,5.72-234.52,14.48,0,0,.61-12.96,2.65-41.35-74.17,15.21-74.17,18.77-144.78,43.37l-8.17-5.89-9.78-10.28L75,95.6l-35.13-33.07h167.06l-4.45,10.09s7-10.09,25.98-10.09h39.42v16.32l9.79-16.32h63.34l-21.09,104.08,30.41-2.97,20.99-101.11h60.06l-19.14,99.86,23.61-.69,15.16-73.5s4.74-25.67,30.75-25.67h219.26l2.23,12.89,3.56-12.89h56.64M769.28,57.76h-287.53c-15.51,0-24.36,8.1-29.06,14.89-4.76,6.89-6.22,13.8-6.37,14.61l-14.39,69.78-13.89.41,18.02-94.02,1.09-5.67h-69.72l-.79,3.8-20.27,97.67-20.49,2,19.81-97.76,1.16-5.72h-71.87l-1.39,2.32-.93,1.55v-3.86h-44.19c-6.11,0-11.15.96-15.24,2.35l1.04-2.35H27.84l8.76,8.25,32.95,31.02L.84,315.39l-.84,2.68,1.94,2.04,9.78,10.28.31.32.36.26,8.17,5.89,2.02,1.45,2.35-.82c16.45-5.73,29.33-10.41,39.69-14.18,33.56-12.2,46.89-17.05,98.31-27.75-1.67,23.81-2.2,35.06-2.21,35.18l-.26,5.63,5.59-.67c84.05-9.99,156.21-14.45,233.96-14.45,72.39,0,148.91,4.04,233.92,12.36l5.38.53-.15-5.41c-.41-14.98-.58-31.5-.3-39.19,13.49,2.67,25.73,4.88,32.77,6.12l-24.29,50.71-6.6,13.78,13.27-7.58,70.49-40.23,43.95,51.95,9.16,10.83-.75-14.16-3.71-70.17,53.5-26.73,10.86-5.43-11.65-3.42-58.83-17.27-6.92-68.3-1.51-14.87-7.39,12.99-6.62,11.62,23.52-115.9,1.16-5.72h0Z"/>
  </g>
  <g>
    <path class="cls-49" d="M209.26,282.53v25.81l-4.2.51v-11.29l-12.06,1.46v11.29l-4.2.51v-25.81l4.2-.51v11.07l12.06-1.46v-11.07l4.2-.51Z"/>
    <path class="cls-49" d="M238.39,303.86c-2.01-.94-3.6-2.37-4.77-4.27-1.17-1.91-1.76-4.13-1.76-6.65s.58-4.84,1.76-6.96c1.17-2.11,2.76-3.83,4.77-5.14,2.01-1.31,4.21-2.08,6.6-2.3,2.42-.22,4.63.14,6.64,1.08,2.01.94,3.59,2.36,4.75,4.26,1.16,1.9,1.74,4.11,1.74,6.64s-.58,4.85-1.74,6.98c-1.16,2.12-2.74,3.84-4.75,5.16-2.01,1.31-4.22,2.08-6.64,2.3-2.39.22-4.59-.14-6.6-1.08ZM249.54,299.68c1.33-.9,2.37-2.11,3.12-3.63.75-1.52,1.13-3.23,1.13-5.14s-.38-3.54-1.13-4.91-1.79-2.37-3.12-3.02c-1.33-.64-2.85-.89-4.55-.73s-3.22.68-4.55,1.57c-1.33.89-2.37,2.09-3.12,3.59s-1.13,3.21-1.13,5.12.38,3.55,1.13,4.93,1.79,2.4,3.12,3.05,2.85.91,4.55.75,3.22-.69,4.55-1.59Z"/>
    <path class="cls-49" d="M307.92,274.17v25.81l-4.22.27v-17.68l-7.86,18.17-2.93.19-7.89-17.18v17.68l-4.23.27v-25.81l4.56-.29,9.04,19.67,9.01-20.81,4.52-.29Z"/>
    <path class="cls-49" d="M336.24,276.31v7.58l8.91-.33v3.45l-8.91.33v7.91l10.02-.37v3.45l-14.25.53v-25.85l14.25-.53v3.45l-10.02.37Z"/>
    <path class="cls-49" d="M370.37,277.92c1.18-2.02,2.77-3.61,4.79-4.76,2.02-1.15,4.23-1.74,6.63-1.77,2.75-.03,5.19.61,7.33,1.93,2.14,1.32,3.69,3.22,4.66,5.68l-5.09.06c-.67-1.35-1.6-2.36-2.79-3.01-1.19-.65-2.56-.97-4.12-.95-1.71.02-3.23.42-4.57,1.21-1.34.78-2.38,1.9-3.14,3.34-.75,1.45-1.13,3.12-1.13,5.03s.38,3.57,1.13,5c.75,1.43,1.8,2.52,3.14,3.28s2.86,1.13,4.57,1.11c1.56-.02,2.93-.37,4.12-1.05,1.19-.68,2.12-1.71,2.79-3.08l5.09-.06c-.97,2.49-2.52,4.41-4.66,5.78-2.14,1.36-4.59,2.06-7.33,2.1-2.43.03-4.64-.5-6.65-1.61-2-1.1-3.6-2.65-4.77-4.64s-1.76-4.25-1.76-6.77.59-4.8,1.76-6.82Z"/>
    <path class="cls-49" d="M422.42,296.08c-2.02-1.16-3.62-2.75-4.79-4.79-1.18-2.04-1.76-4.32-1.76-6.84s.59-4.78,1.76-6.77c1.17-1.99,2.77-3.53,4.79-4.62,2.02-1.09,4.23-1.62,6.63-1.59,2.42.04,4.65.64,6.66,1.79,2.02,1.16,3.61,2.75,4.77,4.77s1.75,4.3,1.75,6.82-.58,4.79-1.75,6.79c-1.16,2-2.75,3.55-4.77,4.64-2.02,1.1-4.24,1.62-6.66,1.59-2.4-.04-4.61-.63-6.63-1.79ZM433.62,293.09c1.34-.76,2.38-1.86,3.14-3.29s1.13-3.11,1.13-5.01-.38-3.58-1.13-5.03c-.75-1.45-1.8-2.57-3.14-3.35-1.34-.79-2.86-1.2-4.57-1.22-1.71-.03-3.23.33-4.57,1.08-1.34.75-2.38,1.83-3.14,3.26-.75,1.42-1.13,3.09-1.13,5s.38,3.59,1.13,5.05,1.8,2.59,3.14,3.39,2.86,1.21,4.57,1.24c1.71.03,3.23-.34,4.57-1.1Z"/>
    <path class="cls-49" d="M492.12,273.92v25.81l-4.23-.19v-17.68l-7.86,17.32-2.93-.13-7.9-18.04v17.68l-4.23-.19v-25.81l4.56.21,9.05,20.65,9.01-19.83,4.53.21Z"/>
    <path class="cls-49" d="M520.43,275.75v25.81l-4.22-.3v-25.81l4.22.3Z"/>
    <path class="cls-49" d="M565.61,305.41l-4.21-.39-12.68-20.46v19.27l-4.21-.39v-25.85l4.21.39,12.68,20.42v-19.24l4.21.39v25.85Z"/>
    <path class="cls-49" d="M608.13,291.91c-.66-1.37-1.58-2.46-2.76-3.26-1.18-.8-2.54-1.3-4.09-1.49-1.7-.21-3.21-.01-4.53.59-1.33.6-2.36,1.56-3.11,2.88-.75,1.32-1.12,2.91-1.12,4.76s.37,3.54,1.12,5.06c.75,1.52,1.79,2.74,3.11,3.67,1.33.93,2.84,1.5,4.53,1.71,2.29.28,4.14-.13,5.57-1.24,1.42-1.11,2.3-2.75,2.62-4.91l-9.62-1.19v-3.38l14.12,1.75v3.31c-.27,1.97-.98,3.73-2.12,5.27-1.14,1.54-2.63,2.7-4.46,3.48-1.83.78-3.86,1.02-6.1.75-2.41-.3-4.61-1.13-6.6-2.51s-3.57-3.13-4.74-5.28c-1.17-2.15-1.75-4.49-1.75-7.01s.58-4.72,1.75-6.58c1.17-1.86,2.75-3.23,4.75-4.11,2-.88,4.2-1.17,6.58-.87,2.73.34,5.15,1.31,7.28,2.93s3.67,3.72,4.62,6.31l-5.05-.63Z"/>
  </g>
  <g>
    <polygon class="cls-1" points="574.95 172.72 589.39 172.84 602.26 107.67 588.41 107.62 574.95 172.72"/>
    <g class="cls-39">
      <rect class="cls-76" x="440.23" y="73.8" width="108.42" height="133.42"/>
    </g>
    <g class="cls-41">
      <rect class="cls-66" x="574.95" y="107.62" width=".64" height="65.22"/>
      <rect class="cls-42" x="575.59" y="107.62" width="1.32" height="65.22"/>
      <rect class="cls-42" x="576.91" y="107.62" width="1.32" height="65.22"/>
      <rect class="cls-13" x="578.22" y="107.62" width="1.32" height="65.22"/>
      <rect class="cls-8" x="579.54" y="107.62" width="1.32" height="65.22"/>
      <rect class="cls-78" x="580.85" y="107.62" width="1.32" height="65.22"/>
      <rect class="cls-75" x="582.17" y="107.62" width="1.32" height="65.22"/>
      <rect class="cls-75" x="583.48" y="107.62" width="1.32" height="65.22"/>
      <rect class="cls-5" x="584.8" y="107.62" width="1.32" height="65.22"/>
      <rect class="cls-56" x="586.11" y="107.62" width="1.32" height="65.22"/>
      <rect class="cls-4" x="587.43" y="107.62" width="1.32" height="65.22"/>
      <rect class="cls-33" x="588.75" y="107.62" width="1.32" height="65.22"/>
      <rect class="cls-14" x="590.06" y="107.62" width="1.32" height="65.22"/>
      <rect class="cls-44" x="591.38" y="107.62" width="1.32" height="65.22"/>
      <rect class="cls-62" x="592.69" y="107.62" width="1.32" height="65.22"/>
      <rect class="cls-69" x="594.01" y="107.62" width="1.32" height="65.22"/>
      <rect class="cls-37" x="595.32" y="107.62" width="1.32" height="65.22"/>
      <rect class="cls-37" x="596.64" y="107.62" width="1.32" height="65.22"/>
      <rect class="cls-45" x="597.96" y="107.62" width="1.32" height="65.22"/>
      <rect class="cls-18" x="599.27" y="107.62" width="1.32" height="65.22"/>
      <rect class="cls-77" x="600.59" y="107.62" width="1.32" height="65.22"/>
      <rect class="cls-36" x="601.9" y="107.62" width=".36" height="65.22"/>
      <rect class="cls-76" x="534.13" y="73.62" width="29.62" height="133.49"/>
      <rect class="cls-76" x="563.75" y="73.62" width="1.32" height="133.49"/>
      <rect class="cls-68" x="565.06" y="73.62" width="1.32" height="133.49"/>
      <rect class="cls-34" x="566.38" y="73.62" width="1.32" height="133.49"/>
      <rect class="cls-63" x="567.7" y="73.62" width="1.32" height="133.49"/>
      <rect class="cls-28" x="569.01" y="73.62" width="1.32" height="133.49"/>
      <rect class="cls-7" x="570.33" y="73.62" width="1.32" height="133.49"/>
      <rect class="cls-27" x="571.64" y="73.62" width="1.32" height="133.49"/>
      <rect class="cls-29" x="572.96" y="73.62" width="1.32" height="133.49"/>
      <rect class="cls-66" x="574.27" y="73.62" width="1.32" height="133.49"/>
      <rect class="cls-42" x="575.59" y="73.62" width="1.32" height="133.49"/>
      <rect class="cls-42" x="576.91" y="73.62" width="1.32" height="133.49"/>
      <rect class="cls-13" x="578.22" y="73.62" width="1.32" height="133.49"/>
      <rect class="cls-8" x="579.54" y="73.62" width="1.32" height="133.49"/>
      <rect class="cls-78" x="580.85" y="73.62" width="1.32" height="133.49"/>
      <rect class="cls-75" x="582.17" y="73.62" width="1.32" height="133.49"/>
      <rect class="cls-75" x="583.48" y="73.62" width="1.32" height="133.49"/>
      <rect class="cls-5" x="584.8" y="73.62" width="1.32" height="133.49"/>
      <rect class="cls-56" x="586.11" y="73.62" width="1.32" height="133.49"/>
      <rect class="cls-4" x="587.43" y="73.62" width="1.32" height="133.49"/>
      <rect class="cls-33" x="588.75" y="73.62" width="1.32" height="133.49"/>
      <rect class="cls-14" x="590.06" y="73.62" width="1.32" height="133.49"/>
      <rect class="cls-44" x="591.38" y="73.62" width="1.32" height="133.49"/>
      <rect class="cls-62" x="592.69" y="73.62" width="1.32" height="133.49"/>
      <rect class="cls-69" x="594.01" y="73.62" width="1.32" height="133.49"/>
      <rect class="cls-37" x="595.32" y="73.62" width="1.32" height="133.49"/>
      <rect class="cls-37" x="596.64" y="73.62" width="1.32" height="133.49"/>
      <rect class="cls-45" x="597.96" y="73.62" width="1.32" height="133.49"/>
      <rect class="cls-18" x="599.27" y="73.62" width="1.32" height="133.49"/>
      <rect class="cls-77" x="600.59" y="73.62" width="1.32" height="133.49"/>
      <rect class="cls-36" x="601.9" y="73.62" width="1.32" height="133.49"/>
      <rect class="cls-21" x="603.22" y="73.62" width="1.32" height="133.49"/>
      <rect class="cls-21" x="604.53" y="73.62" width="1.32" height="133.49"/>
      <rect class="cls-19" x="605.85" y="73.62" width="1.32" height="133.49"/>
      <rect class="cls-48" x="607.16" y="73.62" width="1.32" height="133.49"/>
      <rect class="cls-64" x="608.48" y="73.62" width="1.32" height="133.49"/>
      <rect class="cls-9" x="609.8" y="73.62" width="1.32" height="133.49"/>
      <rect class="cls-12" x="611.11" y="73.62" width="1.32" height="133.49"/>
      <rect class="cls-57" x="612.43" y="73.62" width="1.32" height="133.49"/>
      <rect class="cls-57" x="613.74" y="73.62" width="1.32" height="133.49"/>
      <rect class="cls-67" x="615.06" y="73.62" width="1.32" height="133.49"/>
      <rect class="cls-24" x="616.37" y="73.62" width="1.32" height="133.49"/>
      <rect class="cls-6" x="617.69" y="73.62" width="1.32" height="133.49"/>
      <rect class="cls-26" x="619" y="73.62" width="1.32" height="133.49"/>
      <rect class="cls-58" x="620.32" y="73.62" width="1.32" height="133.49"/>
      <rect class="cls-17" x="621.64" y="73.62" width="1.32" height="133.49"/>
      <rect class="cls-17" x="622.95" y="73.62" width="1.32" height="133.49"/>
      <rect class="cls-22" x="624.27" y="73.62" width="1.32" height="133.49"/>
      <rect class="cls-73" x="625.58" y="73.62" width="1.32" height="133.49"/>
      <rect class="cls-52" x="626.9" y="73.62" width="1.32" height="133.49"/>
      <rect class="cls-71" x="628.21" y="73.62" width="1.32" height="133.49"/>
      <rect class="cls-38" x="629.53" y="73.62" width="1.32" height="133.49"/>
      <rect class="cls-15" x="630.85" y="73.62" width="1.32" height="133.49"/>
      <rect class="cls-11" x="632.16" y="73.62" width="1.32" height="133.49"/>
      <rect class="cls-74" x="633.48" y="73.62" width="1.32" height="133.49"/>
      <rect class="cls-30" x="634.79" y="73.62" width="1.32" height="133.49"/>
      <rect class="cls-30" x="636.11" y="73.62" width="1.32" height="133.49"/>
      <rect class="cls-3" x="637.42" y="73.62" width="1.32" height="133.49"/>
      <rect class="cls-31" x="638.74" y="73.62" width="1.32" height="133.49"/>
      <rect class="cls-54" x="640.05" y="73.62" width="1.32" height="133.49"/>
      <rect class="cls-43" x="641.37" y="73.62" width="1.32" height="133.49"/>
      <rect class="cls-61" x="642.69" y="73.62" width=".76" height="133.49"/>
    </g>
    <g class="cls-40">
      <rect class="cls-38" x="630.32" y="73.8" width=".52" height="139.76"/>
      <rect class="cls-15" x="630.85" y="73.8" width="1.32" height="139.76"/>
      <rect class="cls-11" x="632.16" y="73.8" width="1.32" height="139.76"/>
      <rect class="cls-74" x="633.48" y="73.8" width="1.32" height="139.76"/>
      <rect class="cls-30" x="634.79" y="73.8" width="1.32" height="139.76"/>
      <rect class="cls-30" x="636.11" y="73.8" width="1.32" height="139.76"/>
      <rect class="cls-3" x="637.42" y="73.8" width="1.32" height="139.76"/>
      <rect class="cls-31" x="638.74" y="73.8" width="1.32" height="139.76"/>
      <rect class="cls-54" x="640.05" y="73.8" width="1.32" height="139.76"/>
      <rect class="cls-43" x="641.37" y="73.8" width="1.32" height="139.76"/>
      <rect class="cls-61" x="642.69" y="73.8" width="1.32" height="139.76"/>
      <rect class="cls-23" x="644" y="73.8" width="1.32" height="139.76"/>
      <rect class="cls-2" x="645.32" y="73.8" width="1.32" height="139.76"/>
      <rect class="cls-32" x="646.63" y="73.8" width="1.32" height="139.76"/>
      <rect class="cls-51" x="647.95" y="73.8" width="1.32" height="139.76"/>
      <rect class="cls-53" x="649.26" y="73.8" width="1.32" height="139.76"/>
      <rect class="cls-20" x="650.58" y="73.8" width="1.32" height="139.76"/>
      <rect class="cls-35" x="651.89" y="73.8" width="1.32" height="139.76"/>
      <rect class="cls-70" x="653.21" y="73.8" width="1.32" height="139.76"/>
      <rect class="cls-72" x="654.53" y="73.8" width="1.32" height="139.76"/>
      <rect class="cls-47" x="655.84" y="73.8" width="1.32" height="139.76"/>
      <rect class="cls-65" x="657.16" y="73.8" width="1.32" height="139.76"/>
      <rect class="cls-65" x="658.47" y="73.8" width="89.64" height="139.76"/>
    </g>
  </g>
  <g>
    <path class="cls-49" d="M321.87,0h4.57v24.48c0,.82.21,1.46.62,1.92.42.46,1,.7,1.74.7.36,0,.72-.07,1.06-.17.4-.11.78-.24,1.14-.38l.66,3.63c-.76.34-1.55.59-2.37.74-.81.17-1.63.26-2.45.27-1.58,0-2.8-.44-3.68-1.31-.87-.87-1.31-2.11-1.31-3.72V0Z"/>
    <path class="cls-49" d="M348.33,31.28c-1.74,0-3.28-.42-4.61-1.27-1.31-.82-2.39-1.95-3.16-3.3v13.15h-4.57V8.75h4.03v3.97c.8-1.3,1.91-2.39,3.22-3.17,1.31-.79,2.8-1.18,4.46-1.18,1.5,0,2.87.31,4.11.93,1.23.61,2.33,1.46,3.24,2.49.93,1.07,1.66,2.3,2.14,3.64.51,1.39.77,2.87.77,4.35.01,1.53-.23,3.05-.71,4.5-.47,1.4-1.14,2.61-1.99,3.64-.84,1.02-1.88,1.85-3.05,2.45-1.18.61-2.47.91-3.88.91ZM346.84,27.31c.92.01,1.83-.21,2.64-.63.79-.42,1.48-.99,2.04-1.69.58-.72,1.02-1.54,1.31-2.41.3-.9.46-1.84.46-2.79,0-.98-.17-1.96-.52-2.87-.33-.87-.8-1.67-1.41-2.37-.6-.68-1.32-1.22-2.14-1.61-.84-.4-1.77-.6-2.7-.59-.62,0-1.24.12-1.83.34-1.27.45-2.4,1.25-3.24,2.31-.41.5-.7,1.09-.87,1.71v5.79c.28.68.64,1.32,1.08,1.9.42.57.92,1.08,1.47,1.52.54.42,1.13.76,1.77,1.02.62.25,1.28.38,1.95.38Z"/>
    <path class="cls-49" d="M373.88,29.72c-.78.36-1.59.68-2.41.95-1.06.36-2.17.54-3.28.53-.69,0-1.37-.1-2.03-.3-.61-.18-1.18-.49-1.68-.89-.5-.41-.89-.94-1.14-1.54-.28-.63-.42-1.4-.42-2.3v-13.82h-2.87v-3.59h2.87V1.48h4.57v7.27h4.74v3.59h-4.73v12.34c.06.79.3,1.36.73,1.72s.96.53,1.6.53c.62,0,1.24-.11,1.83-.34.58-.23,1.01-.41,1.29-.55l.95,3.68Z"/>
    <path class="cls-49" d="M397.02,12.77c-1.77.06-3.34.47-4.72,1.25-1.37.77-2.35,1.88-2.93,3.32v13.53h-4.57V8.75h4.24v4.95c.75-1.52,1.72-2.74,2.93-3.66,1.2-.92,2.5-1.42,3.88-1.5h.68c.16,0,.32.01.48.04v4.18Z"/>
    <path class="cls-49" d="M409.94,31.28c-1.69,0-3.23-.3-4.61-.91-1.34-.57-2.55-1.42-3.55-2.47-.99-1.05-1.76-2.29-2.28-3.63-.54-1.4-.82-2.89-.81-4.4,0-1.51.27-3.01.81-4.42.52-1.36,1.29-2.61,2.28-3.68,1-1.07,2.21-1.91,3.55-2.49,1.38-.61,2.94-.91,4.65-.91,1.69,0,3.22.31,4.59.93,1.32.59,2.51,1.43,3.51,2.47.97,1.04,1.73,2.26,2.22,3.6.51,1.37.77,2.83.77,4.29,0,.34-.01.65-.04.95s-.06.54-.08.74h-17.41c.07.92.3,1.82.68,2.66.36.77.85,1.46,1.45,2.05,1.18,1.15,2.77,1.8,4.42,1.8.61,0,1.22-.08,1.81-.23.58-.15,1.13-.37,1.64-.68.49-.29.94-.66,1.33-1.08.38-.41.69-.88.91-1.4l3.9,1.14c-.75,1.66-1.99,3.02-3.72,4.08-1.73,1.06-3.74,1.59-6.04,1.59ZM416.54,18.14c-.07-.89-.31-1.77-.68-2.58-.35-.75-.83-1.43-1.43-2.01-.59-.55-1.28-.99-2.04-1.29-.78-.31-1.61-.47-2.45-.46-2.53-.03-4.83,1.45-5.86,3.76-.37.82-.59,1.69-.67,2.58h13.13Z"/>
    <path class="cls-49" d="M431.41,31.28c-1,0-1.99-.17-2.93-.53-.86-.33-1.65-.82-2.33-1.46-.65-.62-1.18-1.37-1.54-2.2-.38-.87-.57-1.8-.56-2.75,0-1.04.22-1.99.66-2.83.46-.86,1.1-1.62,1.89-2.2.82-.62,1.79-1.1,2.91-1.44,1.12-.34,2.36-.51,3.72-.51,1.02,0,2.03.09,3.03.27.92.16,1.83.41,2.7.74v-1.52c0-1.63-.46-2.91-1.37-3.83s-2.23-1.37-3.95-1.37c-1.17,0-2.33.22-3.42.66-1.12.44-2.28,1.06-3.47,1.88l-1.41-2.96c2.79-1.92,5.7-2.88,8.72-2.88s5.32.78,6.98,2.33c1.66,1.55,2.49,3.78,2.49,6.68v7.99c0,.99.4,1.49,1.21,1.52v3.97c-.44.08-.82.14-1.14.17-.32.03-.63.04-.93.04-.89,0-1.57-.23-2.05-.68-.48-.45-.78-1.03-.89-1.73l-.12-1.39c-.94,1.27-2.17,2.29-3.59,2.98-1.43.69-3,1.05-4.59,1.04ZM432.66,27.86c1.08,0,2.14-.2,3.14-.61.98-.41,1.75-.98,2.31-1.71.58-.51.87-1.04.87-1.61v-2.92c-.8-.32-1.63-.56-2.47-.72-.84-.17-1.7-.25-2.56-.25-1.63,0-2.97.36-4.01,1.08s-1.56,1.67-1.56,2.85c-.02,1.05.42,2.06,1.21,2.77.8.75,1.83,1.12,3.07,1.12Z"/>
    <path class="cls-49" d="M449.94,0h4.57v24.48c0,.82.21,1.46.62,1.92s1,.7,1.74.7c.36,0,.72-.07,1.06-.17.4-.11.78-.24,1.14-.38l.67,3.63c-.76.34-1.55.59-2.37.74-.81.17-1.63.26-2.45.27-1.58,0-2.8-.44-3.68-1.31-.87-.87-1.31-2.11-1.31-3.72V0Z"/>
    <path class="cls-49" d="M475.32,29.72c-.78.36-1.59.68-2.41.95-1.06.36-2.17.54-3.28.53-.69,0-1.38-.1-2.04-.3-.61-.18-1.18-.49-1.68-.89-.5-.41-.89-.94-1.14-1.54-.28-.63-.42-1.4-.42-2.3v-13.82h-2.87v-3.59h2.87V1.48h4.57v7.27h4.74v3.59h-4.74v12.34c.06.79.3,1.36.73,1.71.43.35.96.53,1.6.53.62,0,1.24-.11,1.83-.34.58-.23,1.01-.41,1.29-.55l.96,3.68Z"/>
    <path class="cls-49" d="M480.05,36.06c.42.08.82.16,1.23.21.32.05.65.08.98.08.33,0,.65-.07.93-.23.26-.16.53-.43.81-.82.28-.39.56-.95.86-1.67.29-.72.63-1.64,1.02-2.77l-8.93-22.11h4.69l6.73,18.01,5.98-18.01h4.32l-9.85,27.22c-.44,1.27-1.24,2.37-2.31,3.19-1.09.86-2.5,1.29-4.22,1.29-.35,0-.69-.02-1.04-.06-.41-.05-.81-.15-1.2-.27v-4.06Z"/>
  </g>
  <rect class="cls-25" x="144.75" y="15.49" width="162.27" height="2.39"/>
  <rect class="cls-16" x="513.51" y="15.49" width="162.27" height="2.39"/>
</svg>