<?xml version="1.0" encoding="UTF-8"?>
<svg id="Layer_1" data-name="Layer 1" xmlns="http://www.w3.org/2000/svg" xmlns:xlink="http://www.w3.org/1999/xlink" viewBox="0 0 166.85 186.81">
  <defs>
    <style>
      .cls-1 {
        fill: none;
      }

      .cls-2 {
        fill: #081249;
      }

      .cls-3 {
        fill: #fff;
      }
    </style>
    <clipPath id="clippath">
      <rect class="cls-1" x="2.55" y="1.47" width="161.74" height="181.69"/>
    </clipPath>
    <clipPath id="clippath-1">
      <path class="cls-1" d="M164.3,77.49v-16.17l-24.26-18.58V12.79h-24.26v14.13L83.43,1.47,2.55,61.32v16.17h16.17v26.65l-2.52,1.02c-5.12,2.08-7.58,7.9-5.5,13.02l-.33-.81c-6.22,2.52-9.22,9.61-6.69,15.84l2.29,5.63c2.52,6.22,9.61,9.22,15.84,6.69l-5.71-14.08,5.38,13.27c2.08,5.12,7.91,7.58,13.02,5.5l5.47-2.22.27.57-5.82,2.89s9.11,32.43,25.38,31.68c.85-.04,1.66-.39,2.26-1l5.47-5.52c3.55-3.59,3.07-9.49-1.01-12.46-.46-.33-.99-.54-1.54-.61-2.13-.29-8.03-1.46-12.66-6h94.82l1.93-78.42L83.43,28.97l64.7,48.52h16.17Z"/>
    </clipPath>
  </defs>
  <line class="cls-2" x1="129.12" y1="86.26" x2="119.64" y2="90.11"/>
  <line class="cls-2" x1="30.34" y1="113.64" x2="20.86" y2="117.49"/>
  <line class="cls-2" x1="34.91" y1="124.91" x2="25.43" y2="128.76"/>
  <line class="cls-2" x1="39.48" y1="136.17" x2="30" y2="140.02"/>
  <line class="cls-2" x1="113.15" y1="66.61" x2="108.06" y2="75.49"/>
  <line class="cls-2" x1="131.1" y1="111.97" x2="121.27" y2="109.15"/>
  <path class="cls-3" d="M0,62.41v16.17c0,1.38,1.17,2.55,2.55,2.55h15.55c.74,0,1.45-.07,2.09-.48,1.26-.81,2.43-1.82,3.63-2.72,2.49-1.87,4.98-3.74,7.47-5.6,7.02-5.27,14.05-10.53,21.07-15.8,7.05-5.29,14.1-10.58,21.15-15.87,2.48-1.86,4.96-3.72,7.44-5.58,1.17-.88,2.52-1.69,3.59-2.69.05-.04.11-.08.16-.12h-2.58c3.02,2.27,6.04,4.53,9.06,6.8,6.82,5.11,13.63,10.22,20.45,15.33l21.61,16.21c4.3,3.23,8.61,6.45,12.91,9.68,1.44,1.08,3.1.85,4.85.85h13.28c1.38,0,2.55-1.17,2.55-2.55v-15.31c0-1.36-.31-2.34-1.47-3.23-5.82-4.47-11.65-8.92-17.48-13.39-2.19-1.68-4.39-3.36-6.58-5.04.42.73.84,1.47,1.26,2.21V13.89c0-1.38-1.17-2.55-2.55-2.55h-24.26c-1.38,0-2.55,1.17-2.55,2.55v14.13c1.45-.6,2.91-1.2,4.36-1.81-9.43-7.42-18.87-14.84-28.3-22.26-1.35-1.06-2.7-2.12-4.05-3.19-.82-.65-2.13-1.12-3.1-.4-2.68,1.99-5.37,3.97-8.05,5.96-6.44,4.77-12.88,9.53-19.33,14.3-7.79,5.77-15.58,11.53-23.38,17.3-6.71,4.96-13.42,9.93-20.12,14.89-3.28,2.43-6.59,4.84-9.85,7.29-.05.04-.1.07-.14.1-1.11.82-1.67,2.21-.92,3.49.64,1.09,2.38,1.74,3.49.92,2.68-1.99,5.37-3.97,8.05-5.96,6.44-4.77,12.88-9.53,19.33-14.3,7.79-5.77,15.59-11.53,23.38-17.3,6.71-4.96,13.42-9.93,20.12-14.89,2.22-1.65,4.45-3.29,6.68-4.94,1.04-.77,2.23-1.47,3.18-2.35.04-.04.1-.07.14-.1-1.03-.13-2.06-.27-3.1-.4,9.43,7.42,18.87,14.84,28.3,22.26,1.35,1.06,2.7,2.12,4.05,3.18,1.65,1.3,4.36.59,4.36-1.81v-14.13c-.85.85-1.7,1.7-2.55,2.55h24.26c-.85-.85-1.7-1.7-2.55-2.55v26.74c0,1.06-.07,2.14,0,3.2.11,1.68,1.83,2.64,3.06,3.58,4.16,3.19,8.33,6.38,12.49,9.57,3.32,2.55,6.65,5.09,9.97,7.64-.42-.73-.84-1.47-1.26-2.21v16.17c.85-.85,1.7-1.7,2.55-2.55h-16.17c.43.12.86.23,1.29.35-7.31-5.48-14.61-10.96-21.92-16.44-11.6-8.7-23.19-17.39-34.79-26.09-2.66-2-5.33-4-7.99-5.99-.65-.49-1.93-.49-2.58,0-7.31,5.48-14.61,10.96-21.92,16.44-11.6,8.7-23.19,17.4-34.79,26.09-2.66,2-5.33,4-7.99,5.99.43-.12.86-.23,1.29-.35H2.55c.85.85,1.7,1.7,2.55,2.55v-16.17c0-3.29-5.11-3.29-5.11,0"/>
  <path class="cls-3" d="M53.39,162.01h83.07c3.82,0,7.68.16,11.5,0,.05,0,.11,0,.16,0,1.38,0,2.55-1.17,2.55-2.55v-80.87c0-3.29-5.11-3.29-5.11,0v80.87c.85-.85,1.7-1.7,2.55-2.55h-83.07c-3.82,0-7.68-.16-11.5,0-.05,0-.11,0-.16,0-3.29,0-3.29,5.11,0,5.11"/>
  <path class="cls-3" d="M16.17,78.58v26.65c0,3.29,5.11,3.29,5.11,0v-26.65c0-3.29-5.11-3.29-5.11,0"/>
  <path class="cls-3" d="M111.62,137.52c-6.92-1.83-13.78-3.5-20.97-3.91-10.54-.6-21.27,1.06-31.13,4.83-2.29.87-4.54,1.83-6.81,2.75,1.05.59,2.09,1.19,3.14,1.78-2.05-5.06-4.11-10.12-6.16-15.18-3.28-8.08-6.56-16.17-9.84-24.25-.76-1.88-1.52-3.75-2.28-5.63-.59,1.05-1.19,2.09-1.78,3.14,7.2-2.92,14.24-5.92,20.64-10.41,8.7-6.1,16.08-13.95,21.59-23.03,1.07-1.75,2.26-3.49,3.18-5.32.6-1.18,1.08-2.43,1.61-3.64.22-.49.49-.99.66-1.49.03-.09.23-.39.21-.42.45.55-.78.07-.66.12-.09-.04-.25-.62-.02-.08.13.3.25.61.37.91.48,1.18.96,2.37,1.44,3.55,4.02,9.9,8.04,19.81,12.05,29.71,4.68,11.52,9.35,23.04,14.02,34.56,1.48,3.65,2.97,7.31,4.45,10.97.33.82.68,1.64,1,2.48.03.09.26.67.24.67-.22-.06.13-.56.13-.55.04-.52.48.28.09-.09-.34-.31-1.42-.4-1.85-.52-1.11-.31-2.22-.63-3.34-.94-3.17-.89-4.52,4.03-1.36,4.93,2.54.72,6.2,2.48,8.75,1.19,2.38-1.2,3.13-3.91,2.17-6.27-1.11-2.74-2.22-5.47-3.33-8.21-4.59-11.3-9.17-22.61-13.76-33.91-4.46-10.98-8.91-21.97-13.37-32.95-.95-2.33-1.88-4.67-2.84-7-.36-.87-.76-1.65-1.49-2.27-2.15-1.84-5.65-1.34-7.12,1.13-1.09,1.85-1.63,4.01-2.66,5.88-4.06,7.38-9.06,14.25-15.21,20.02-6.9,6.47-14.94,11.18-23.66,14.72l-3.32,1.35c-1.16.47-2.35,1.74-1.78,3.14,2.05,5.06,4.11,10.12,6.16,15.18,3.28,8.08,6.56,16.17,9.84,24.25.76,1.88,1.52,3.75,2.28,5.63.47,1.16,1.74,2.35,3.14,1.78,6.34-2.57,12.63-5.03,19.4-6.31,9.88-1.87,20.18-1.56,29.94.84,2.29.56,4.58,1.2,6.86,1.8,3.18.84,4.54-4.09,1.36-4.93"/>
  <path class="cls-3" d="M35.17,153.78c6.3-2.56,12.6-5.11,18.9-7.67,1.16-.47,2.35-1.74,1.78-3.14-2.05-5.06-4.11-10.12-6.16-15.18-3.28-8.08-6.56-16.17-9.84-24.25-.76-1.88-1.52-3.75-2.28-5.63-.47-1.16-1.74-2.35-3.14-1.78-4.46,1.81-8.93,3.62-13.39,5.43-1.81.74-3.63,1.46-5.44,2.21-4.03,1.66-7.17,5.02-7.96,9.41-.89,4.97,1.74,9.61,3.55,14.08,2.22,5.47,4.44,10.95,6.66,16.42.78,1.92,1.46,4.04,2.7,5.71,3.33,4.51,9.33,6.43,14.61,4.4,1.29-.49,2.17-1.72,1.78-3.14-.34-1.23-1.85-2.28-3.14-1.78-3.5,1.34-7.47.37-9.46-2.97-.13-.22-.24-.44-.36-.66-.05-.1-.32-.7-.06-.09-.01-.03-.02-.05-.03-.08-.07-.16-.13-.31-.19-.47-.26-.65-.53-1.31-.79-1.96-2.06-5.07-4.12-10.14-6.17-15.22-.91-2.25-1.83-4.5-2.74-6.75-.55-1.35-1.28-2.8-1.44-4.26-.19-1.73.23-3.45,1.15-4.91.45-.72,1.06-1.39,1.74-1.91.32-.24.67-.44,1.02-.63.22-.12.95-.45.46-.25,1.54-.66,3.12-1.26,4.68-1.9,4.73-1.92,9.46-3.84,14.19-5.76-1.05-.59-2.09-1.19-3.14-1.78,2.05,5.06,4.11,10.12,6.16,15.19,3.28,8.08,6.56,16.17,9.84,24.25.76,1.88,1.52,3.75,2.28,5.63.59-1.05,1.19-2.09,1.78-3.14-6.3,2.56-12.6,5.11-18.9,7.67-1.28.52-2.18,1.7-1.78,3.14.33,1.21,1.86,2.3,3.14,1.78"/>
  <path class="cls-3" d="M24.27,145.95c-3.33-8.21-6.66-16.42-9.99-24.63-.48-1.18-.96-2.36-1.43-3.54-.43-1.06-1.24-1.87-2.46-1.87-1.83,0-4,1.76-5.3,2.91-1.36,1.21-2.52,2.75-3.31,4.4-1.69,3.53-2.05,7.69-.69,11.4,1.86,5.08,3.78,10.52,8.69,13.42,3.81,2.25,8.59,2.65,12.72,1.05,1.28-.5,2.17-1.72,1.78-3.14-.34-1.23-1.85-2.29-3.14-1.78-3.33,1.29-7.03,1-9.88-1.28-.68-.54-1.31-1.2-1.82-1.91-.29-.41-.54-.84-.77-1.29-.1-.19-.47-1.02-.25-.49-.41-.95-.78-1.92-1.17-2.88-1.03-2.54-2.21-5.02-1.83-7.84.48-3.63,2.96-6.4,6.26-7.8-.43.12-.86.23-1.29.35-.82-.62-1.64-1.25-2.46-1.88,3.33,8.21,6.66,16.42,9.99,24.63.48,1.18.96,2.36,1.43,3.53.52,1.28,1.7,2.18,3.14,1.78,1.21-.33,2.3-1.86,1.78-3.14"/>
  <path class="cls-3" d="M128.44,83.8l-8.29,3.36c-.4.16-.8.32-1.2.49-.64.26-1.16.55-1.53,1.17-.32.55-.46,1.35-.26,1.97.2.62.58,1.21,1.17,1.53.57.3,1.35.51,1.97.26l8.29-3.36c.4-.16.8-.32,1.2-.49.64-.26,1.16-.55,1.53-1.17.32-.55.46-1.35.26-1.97-.2-.62-.58-1.21-1.17-1.53-.57-.3-1.35-.51-1.97-.26"/>
  <path class="cls-3" d="M29.66,111.18c-2.76,1.12-5.52,2.24-8.29,3.36-.4.16-.8.32-1.2.49-.64.26-1.16.55-1.53,1.17-.32.55-.46,1.35-.26,1.97.2.62.58,1.21,1.17,1.53.57.3,1.35.51,1.97.26,2.76-1.12,5.52-2.24,8.29-3.36.4-.16.8-.32,1.2-.49.64-.26,1.16-.55,1.53-1.17.32-.55.46-1.35.26-1.97-.2-.62-.58-1.21-1.17-1.53-.57-.3-1.35-.51-1.97-.26"/>
  <path class="cls-3" d="M34.23,122.44c-2.76,1.12-5.52,2.24-8.29,3.36-.4.16-.8.32-1.2.49-.64.26-1.16.55-1.53,1.17-.32.55-.46,1.35-.26,1.97.2.62.58,1.21,1.17,1.53.57.3,1.35.51,1.97.26,2.76-1.12,5.52-2.24,8.29-3.36.4-.16.8-.32,1.2-.49.64-.26,1.16-.55,1.53-1.17.32-.55.46-1.35.26-1.97-.2-.62-.58-1.21-1.17-1.53-.57-.3-1.35-.51-1.97-.26"/>
  <path class="cls-3" d="M38.81,133.71l-8.29,3.36c-.4.16-.8.32-1.2.49-.64.26-1.16.55-1.53,1.17-.32.55-.46,1.35-.26,1.97.2.62.58,1.21,1.17,1.53.57.3,1.35.51,1.97.26,2.76-1.12,5.52-2.24,8.29-3.36.4-.16.8-.32,1.2-.49.64-.26,1.16-.55,1.53-1.17.32-.55.46-1.35.26-1.97-.2-.62-.58-1.21-1.17-1.53-.57-.3-1.35-.51-1.97-.26"/>
  <path class="cls-3" d="M110.95,65.32c-1.49,2.59-2.97,5.19-4.46,7.78-.21.37-.42.73-.63,1.1-.66,1.16-.31,2.85.92,3.49,1.22.64,2.78.32,3.49-.92,1.49-2.59,2.97-5.19,4.46-7.78.21-.37.42-.73.63-1.1.66-1.16.31-2.85-.92-3.49-1.22-.64-2.78-.32-3.49.92"/>
  <path class="cls-3" d="M131.78,109.51c-2.86-.82-5.73-1.64-8.59-2.47-.42-.12-.83-.24-1.25-.36-1.28-.37-2.84.45-3.14,1.78-.31,1.36.41,2.75,1.78,3.14l8.59,2.47c.42.12.83.24,1.25.36,1.28.37,2.84-.45,3.14-1.78.31-1.36-.41-2.75-1.78-3.14"/>
  <path class="cls-3" d="M99.39,88.36c2.56-1,5.17-1.07,7.47-.13,1.26.51,2.26,1.2,3.16,2.09.49.49.8.83,1.15,1.35.23.34.44.7.64,1.06.1.18.19.37.28.56-.11-.82-.13-.94-.05-.37.42,1.51.85,2.75.85,4.18,0,1.34-.18,2.36-.71,3.69-.35.89-1.11,2.1-1.85,2.88-.43.46-.89.89-1.31,1.19-.33.24-.69.46-1.04.66-.18.1-.37.2-.55.29-.51.21-.37.22.42.04-3.29,0-3.29,5.11,0,5.11,1.44,0,3.13-1.21,4.24-2.06,1.28-.98,2.36-2.09,3.29-3.41,1.71-2.41,2.63-5.45,2.61-8.4,0-1.49-.24-3.04-.71-4.45-.02-.05-.03-.1-.05-.15-.09-.36-.13-.4-.12-.11v.19c-.04-.23-.07-.45-.1-.68-.11-.41-.33-.81-.51-1.19-.33-.7-.72-1.38-1.18-2-1.86-2.55-4.33-4.43-7.31-5.48-3.19-1.12-6.84-1.03-9.97.2-1.28.5-2.18,1.71-1.78,3.14.34,1.22,1.85,2.29,3.14,1.78"/>
  <path class="cls-3" d="M31.96,153.23c1.15,4.1,2.76,8.1,4.5,11.98,3.03,6.71,6.98,13.58,12.96,18.07,2.79,2.09,6.13,3.47,9.65,3.52,2.14.03,3.81-.77,5.29-2.26,1.18-1.19,2.35-2.37,3.53-3.56,1.03-1.04,2.09-2.03,2.89-3.27,1.49-2.31,1.97-5.14,1.49-7.82-.47-2.64-2.02-5.02-4.16-6.61-1.3-.96-2.69-1.08-4.19-1.41-1.44-.31-2.87-.75-4.22-1.32.46.19-.48-.23-.65-.31-.44-.21-.87-.44-1.29-.68-.44-.25-.88-.52-1.3-.8-.19-.13-.92-.65-.77-.54-3.93-3.04-5.97-7.41-6.7-12.34-.2-1.37-1.93-2.12-3.14-1.78-1.46.4-1.99,1.77-1.78,3.14,1.26,8.38,6.47,15.05,14.29,18.25,1.17.48,2.36.88,3.59,1.18.89.22,1.92.24,2.78.54,1.63.57,2.56,2.84,2.65,4.41.09,1.68-.55,3.19-1.71,4.39-.9.94-1.84,1.85-2.76,2.78-.84.85-1.66,1.9-2.61,2.63-.48.37-.98.31-1.57.29-.16,0-1.13-.11-.62-.04-.39-.06-.77-.14-1.15-.24-.38-.1-.75-.22-1.13-.34-.15-.05-.3-.11-.44-.17.43.17-.05-.02-.15-.07-.69-.32-1.36-.69-2-1.11-2.29-1.48-4.75-4.18-6.39-6.48-2.01-2.82-3.7-5.86-5.19-8.98-1.42-2.97-2.36-5.29-3.51-8.55-.44-1.27-.88-2.55-1.24-3.85-.89-3.16-5.82-1.82-4.93,1.36"/>
</svg>