<svg width="72" height="72" viewBox="0 0 72 72" fill="none" xmlns="http://www.w3.org/2000/svg"><path d="M44.263 56.98c.065.156.22.253.377.253a.446.446 0 00.155-.032.408.408 0 00.221-.539l-1.032-2.49c-.253.11-.5.214-.76.318l1.033 2.49h.006zM36.337 16.096a.421.421 0 00.072-.213V14.04a.407.407 0 00-.41-.409.407.407 0 00-.408.409v1.841c0 .078.026.15.071.214h.682-.007zM36.007 58.647a.407.407 0 00-.41.409v4.909c0 .227.189.078.416.078v.33a.407.407 0 00.409-.408v-4.91a.413.413 0 00-.415-.408zM26.121 10.013a.41.41 0 00-.753.325l3.148 7.211c.253-.104.507-.2.766-.298l-3.161-7.244v.006zM46.353 59.879a.408.408 0 00-.539-.22.408.408 0 00-.22.538l1.493 3.606c.064.155.22.253.376.253a.448.448 0 00.156-.033.408.408 0 00.22-.538l-1.492-3.606h.006zM57.616 27.465a.408.408 0 00.22-.538.408.408 0 00-.538-.22l-3.077 1.27c.11.254.214.5.318.76l3.077-1.272zM56.74 44.995c.051.02.103.033.155.033a.408.408 0 00.377-.253.418.418 0 00-.221-.539L54.532 43.2c-.097.253-.2.506-.311.758l2.512 1.038h.006zM55.889 36.312c.065.039.13.065.214.065h9.483a.407.407 0 00.41-.41.407.407 0 00-.41-.408h-9.483a.415.415 0 00-.214.065v.688zM47.788 8.593a.418.418 0 00-.22-.538.418.418 0 00-.54.22l-3.797 9.164c.254.097.507.201.76.311l3.797-9.163v.006zM12.508 35.559h-1.526c.228 0 .41.182.41.409a.407.407 0 01-.41.409h1.526a.407.407 0 00.409-.41.407.407 0 00-.41-.408zM9.127 24.404a.418.418 0 00-.539.221.418.418 0 00.22.538l8.66 3.58c.097-.253.201-.506.311-.759l-8.652-3.58zM23.595 6.278a.409.409 0 00.539.214.41.41 0 00.214-.539L22.99 2.847a.41.41 0 00-.753.324l1.357 3.107zM48.36 6.155a.408.408 0 00.532-.22l.954-2.303a.418.418 0 00-.221-.538.418.418 0 00-.539.22l-.954 2.302a.418.418 0 00.22.539h.007zM36 11.557a.407.407 0 00.409-.409V.408a.407.407 0 00-.41-.408.407.407 0 00-.408.409v10.733c0 .227.182.408.409.408v.007zM58.9 26.486c.066.156.222.253.377.253a.448.448 0 00.156-.032l9.607-3.976a.408.408 0 00.22-.538.408.408 0 00-.538-.22l-9.607 3.975a.408.408 0 00-.22.538h.006zM58.479 13.91a.408.408 0 00.292-.122l2.68-2.679a.403.403 0 000-.577.404.404 0 00-.577 0l-2.681 2.678a.403.403 0 000 .578.425.425 0 00.292.123h-.006z" fill="#fff"/><path d="M10.574 35.968c0-.227.182-.41.409-.41H6.089a.407.407 0 00-.41.41c0 .227.182.409.41.409h4.894a.407.407 0 01-.409-.41zM5.46 22.887l-1.974-.817a.418.418 0 00-.539.22.418.418 0 00.221.538l1.973.817c.052.02.104.033.156.033a.408.408 0 00.377-.253.418.418 0 00-.221-.538h.006zM14.092 14.657a.418.418 0 00.292.116.43.43 0 00.292-.116.403.403 0 000-.578l-3.544-3.54a.404.404 0 00-.578 0 .403.403 0 000 .577l3.544 3.54h-.006z" fill="#fff"/><path d="M10.983 36.377a.409.409 0 100-.818.409.409 0 000 .818zM2.863 35.559H.409a.407.407 0 00-.409.409c0 .227.182.409.409.409h2.454a.407.407 0 00.409-.41.407.407 0 00-.41-.408zM50.352 22.206l5.427-5.422a.403.403 0 000-.577.41.41 0 00-.578 0l-5.427 5.421c.195.189.39.383.578.578zM64.263 47.22l-5.485-2.27a.418.418 0 00-.539.22.418.418 0 00.221.539l5.485 2.27a.408.408 0 00.532-.22.417.417 0 00-.22-.54h.006zM56.252 55.625a.404.404 0 00-.578 0 .403.403 0 000 .577l2.006 2.004a.408.408 0 00.584 0 .403.403 0 000-.577l-2.005-2.004h-.007zM50.352 49.73c-.188.194-.383.389-.578.577L54 54.529a.418.418 0 00.292.116.43.43 0 00.292-.116.403.403 0 000-.577L50.36 49.73h-.007zM22.232 21.635l-4.582-4.579a.404.404 0 00-.578 0 .403.403 0 000 .578l4.583 4.578c.188-.194.383-.389.577-.577zM16.11 35.559h-.908a.407.407 0 00-.409.409c0 .227.182.409.409.409h.909v-.818zM66.99 48.348l-1.247-.512a.418.418 0 00-.539.22.418.418 0 00.22.538l1.247.513a.408.408 0 00.532-.22.418.418 0 00-.22-.539h.006zM71.585 35.559H68.32a.407.407 0 00-.409.409c0 .227.182.409.41.409h3.264a.407.407 0 00.41-.41.407.407 0 00-.41-.408zM53.624 28.671s.013.019.019.025c0-.012-.013-.031-.019-.044v.019zM16.611 33.983c.182-1.79.61-3.489 1.227-5.09l-.377-.156a19.678 19.678 0 00-1.259 5.2 19.247 19.247 0 00-.09 1.616h.408c.013-.52.04-1.044.091-1.57zM21.934 22.498l-.285-.286a19.95 19.95 0 00-3.876 5.772l.377.156a19.512 19.512 0 013.778-5.642h.006zM37.98 16.596c1.791.182 3.492.61 5.095 1.226l.156-.383a19.875 19.875 0 00-6.894-1.349.398.398 0 01-.344.195.422.422 0 01-.344-.195c-2.22.04-4.362.441-6.368 1.161l.163.37a19.44 19.44 0 018.535-1.031v.006zM43.835 53.79l.162.382a19.917 19.917 0 004.57-2.795c.422-.344.818-.7 1.207-1.077l-.292-.292a19.663 19.663 0 01-5.647 3.775v.006zM54.155 28.892a19.388 19.388 0 011.234 9.054 19.67 19.67 0 01-1.227 5.09l.383.156a19.823 19.823 0 001.35-6.887.398.398 0 01.006-.688 19.701 19.701 0 00-1.35-6.887l-.376.156h-.007l-.013.006z" fill="#fff"/><path d="M50.06 49.438l.292.292a19.499 19.499 0 003.869-5.779l-.383-.156a19.399 19.399 0 01-3.784 5.643h.006zM49.482 21.914l.292-.292a19.52 19.52 0 00-5.783-3.866l-.156.383a19.53 19.53 0 015.647 3.775zM53.838 28.14h.006l.377-.156a19.889 19.889 0 00-2.798-4.565 19.012 19.012 0 00-1.077-1.207l-.292.292a19.586 19.586 0 013.778 5.649l.006-.013zM28.685 17.919l-.163-.37a20.052 20.052 0 00-6.29 4.08l.286.285a19.636 19.636 0 016.167-3.995zM16.52 36.376h-.409c.013.519.033 1.044.085 1.557.02.227.22.389.448.37a.348.348 0 00.181-.072l-.227-.337c-.052-.5-.071-1.005-.084-1.518h.006zM34.014 55.333a19.465 19.465 0 01-7.257-2.218l-.228-.337a.41.41 0 00-.136.142.41.41 0 00.169.558 19.73 19.73 0 007.406 2.263c.688.072 1.376.104 2.064.104 2.487 0 4.92-.467 7.2-1.355l-.163-.383a19.438 19.438 0 01-9.062 1.232l.007-.006z" fill="#fff"/><path d="M16.52 35.559h-.409v.818h.41v-.818zM18.156 28.14l-.377-.156c-.11.247-.214.5-.311.76l.376.155c.098-.253.201-.506.312-.76zM50.352 49.73l-.292-.292c-.188.194-.383.39-.578.578l.293.292c.2-.189.389-.383.577-.578zM22.518 21.914l-.286-.286c-.195.189-.39.384-.578.578l.286.286c.188-.195.383-.39.578-.578zM43.075 54.107l.162.383c.254-.097.507-.207.76-.318l-.162-.383c-.254.11-.5.215-.76.312v.006zM36 16.291c.149 0 .266-.078.344-.195h-.682a.398.398 0 00.344.195H36zM53.845 43.796l.383.156c.11-.253.214-.507.311-.76l-.383-.156c-.097.253-.2.507-.311.76zM50.06 22.498l.292-.292c-.188-.201-.383-.39-.577-.578l-.293.293c.195.188.39.383.578.577zM53.837 28.14c.11.247.215.5.312.753h.007l.376-.156a18.847 18.847 0 00-.318-.76l-.377.157h-.006l.006.006zM43.835 18.14l.155-.383c-.253-.11-.506-.214-.759-.312l-.156.383c.253.098.506.201.76.312zM29.45 17.627l-.162-.37c-.26.091-.512.195-.765.299l.162.37c.253-.104.506-.201.766-.292v-.007zM55.694 35.968c0 .15.084.273.195.344v-.688a.404.404 0 00-.202.344h.007z" fill="#fff"/><path d="M17.014 37.855a22.288 22.288 0 01-.084-1.479h-.41c.014.513.033 1.018.085 1.518l.227.337a.394.394 0 00.182-.376zM53.837 28.14a19.673 19.673 0 00-3.777-5.649l-.292.292c.35.37.694.746 1.019 1.148a19.2 19.2 0 012.83 4.721.408.408 0 01.22-.512zM18.155 28.14l.383.155a19.03 19.03 0 013.694-5.506l-.299-.298a19.252 19.252 0 00-3.778 5.642v.007zM34.014 55.333c3.187.324 6.27-.143 9.062-1.232l-.156-.377a19.05 19.05 0 01-8.86 1.194 18.98 18.98 0 01-7.102-2.173.41.41 0 00-.422.026l.227.337a19.465 19.465 0 007.257 2.218l-.006.007zM48.047 50.748a19.13 19.13 0 01-4.368 2.672l.155.376a19.576 19.576 0 005.648-3.774l-.292-.292c-.37.35-.747.694-1.15 1.018h.007zM55.383 37.946a19.387 19.387 0 00-1.233-9.054.413.413 0 01-.15.032.408.408 0 01-.363-.226 18.948 18.948 0 011.337 9.209 18.834 18.834 0 01-1.201 4.974l.377.156a19.343 19.343 0 001.226-5.091h.007zM53.468 43.64a18.893 18.893 0 01-3.694 5.512l.286.286a19.402 19.402 0 003.784-5.643l-.376-.155zM22.518 21.914l.298.298a19.191 19.191 0 016.037-3.91l-.169-.383a19.636 19.636 0 00-6.166 3.995zM16.611 33.983c-.052.525-.078 1.05-.09 1.57h.409c.012-.513.038-1.019.09-1.531a19.362 19.362 0 011.201-4.974l-.383-.156a19.343 19.343 0 00-1.227 5.091zM43.834 18.14l-.155.376a18.911 18.911 0 015.517 3.69l.286-.286a19.271 19.271 0 00-5.648-3.774v-.007zM37.98 16.596a19.452 19.452 0 00-8.536 1.031l.17.383a18.988 18.988 0 018.32-1.006c1.734.175 3.402.584 4.98 1.2l.155-.376a19.389 19.389 0 00-5.095-1.226l.006-.006z" fill="#fff"/><path d="M49.19 49.73l.293.292c.194-.188.389-.383.577-.578l-.285-.285c-.189.194-.383.39-.578.578l-.007-.007zM17.845 28.9l.383.155c.097-.253.2-.506.311-.76l-.383-.155c-.11.246-.214.5-.311.76zM16.52 36.377h.41v-.818h-.41v.818zM28.685 17.92l.168.382c.253-.104.507-.201.766-.292l-.168-.383c-.26.091-.513.195-.766.292zM43.076 17.828l-.156.377c.253.097.506.2.76.311l.155-.376c-.246-.11-.5-.215-.76-.312zM42.92 53.731l.156.377c.253-.098.506-.202.76-.312l-.157-.377c-.253.11-.5.215-.76.319v-.007zM21.934 22.498l.298.299c.188-.195.383-.39.578-.578l-.299-.299c-.194.189-.39.383-.577.578zM49.482 21.914l-.286.286c.195.188.39.383.578.577l.292-.292a24.02 24.02 0 00-.578-.578l-.006.007zM54.007 28.925a.411.411 0 00.15-.032 15.311 15.311 0 00-.312-.753.412.412 0 00-.221.512c0 .013.013.033.02.046a.408.408 0 00.363.227zM54.156 43.037l-.377-.156c-.097.253-.2.506-.311.76l.376.155c.11-.246.215-.5.312-.76z" fill="#fff"/><path d="M36 71.935c-19.85 0-36-16.135-36-35.967C0 16.135 16.15 0 36 0s36 16.136 36 35.968C72 55.8 55.85 71.935 36 71.935zM36 .817C16.604.817.818 16.583.818 35.967c0 19.385 15.78 35.145 35.175 35.145 19.396 0 35.176-15.766 35.176-35.144C71.17 16.589 55.396.818 36 .818z" fill="#fff"/><path d="M71.597 36.395a.404.404 0 00-.428.39c-.058 1.16-.545 3.288-1.409 6.141a32.965 32.965 0 01-2.48 6.044c-7.808 14.612-18.265 15.546-23.887 15.87-7.335.422-16.195-3.113-17.007-13.528-.33-4.242.48-7.484 2.415-9.644a10.592 10.592 0 011.902-1.667 9.691 9.691 0 011.117-.661c.383-.195 1.525-.707.07-1.395-.538-.252-1.59-.486-2.174-.61a36.025 36.025 0 00-3.297-.538 27.63 27.63 0 00-1.597-.142 31.775 31.775 0 00-1.558-.059c-.52-.006-1.012 0-1.519.026a36.05 36.05 0 00-1.48.104 23.417 23.417 0 00-4.206.81c-.448.13-.89.273-1.324.435-.435.163-.864.331-1.285.513-.422.181-.838.382-1.253.596-.416.214-.818.435-1.214.675-.396.24-.792.493-1.175.752a24.11 24.11 0 00-3.291 2.743c-.344.344-.688.707-1.02 1.07a28.46 28.46 0 00-.98 1.148 32.972 32.972 0 00-1.843 2.53c-.052.084-.11.168-.162.253a.403.403 0 00.123.564.404.404 0 00.565-.123c2.415-3.742 5.44-6.609 8.977-8.516 5.258-2.834 11.496-3.502 18.578-1.984-12.346.402-17.54 5.966-19.577 9.436-2.11 3.593-2.818 7.99-1.941 12.063a.41.41 0 00.402.324c.026 0 .059 0 .085-.007a.404.404 0 00.311-.486c-.837-3.878-.162-8.055 1.85-11.479 1.85-3.145 6.413-8.08 17.013-8.93-4.342 1.712-7.679 5.538-9.366 9.384-2.48 5.636-2.928 13.541 1.655 18.503.65.707 1.402 1.336 2.226 1.88C26.932 71.197 31.157 72 35.312 72c3.667 0 7.29-.623 10.327-1.381a.412.412 0 00-.201-.798c-11.463 2.853-18.065.687-21.577-1.628a10.87 10.87 0 01-2.077-1.757c-3.122-3.38-4.797-10.137-1.506-17.621 1.714-3.898 5.187-7.783 9.685-9.229-.597.39-1.2.876-1.766 1.505-2.09 2.334-2.979 5.785-2.628 10.266.37 4.754 2.447 8.567 6.01 11.019 2.811 1.932 6.511 3.203 10.516 3.203.448 0 .902-.012 1.363-.038 5.368-.312 16.52-1.187 24.55-16.2a33.744 33.744 0 002.538-6.194c.616-2.037 1.363-4.786 1.44-6.337a.404.404 0 00-.389-.428v.013z" fill="#fff"/><path d="M43.127 22.193c-1.804 1.472-3.304 3.216-4.706 5.052l.026.039c.04-.02.085-.033.117-.059.467-.305.941-.61 1.48-.772 1.026-.304 2.058-.577 3.129-.557a6.821 6.821 0 012.038.343c.733.247 1.376.649 1.973 1.129.078.065.156.123.221.214-.045 0-.084.006-.13 0-.344-.065-.688-.169-1.038-.169-1.097 0-2.194.026-3.272.234-.675.13-1.35.266-2.019.428-.46.11-.915.266-1.376.395-.013 0-.026.013-.078.046.078.026.13.052.182.065.844.149 1.662.395 2.428.765a7.684 7.684 0 012.42 1.822c.494.552.903 1.161 1.137 1.868.11.324.162.668.24.999.026.123.039.253.059.376-.014.006-.02.013-.033.02l-.136-.137a8.543 8.543 0 00-1.234-1.284 11.332 11.332 0 00-2.168-1.394 15.34 15.34 0 00-2.33-.934c-.5-.156-1.013-.272-1.519-.402-.058-.013-.123-.007-.182-.013 0 .013 0 .026-.006.032.09.072.182.15.273.22a5.348 5.348 0 011.804 2.66c.318 1.024.312 2.069.208 3.12-.007.09-.02.174-.026.265h-.033c-.058-.175-.123-.344-.181-.519a7.938 7.938 0 00-.513-1.264c-.52-.98-1.104-1.913-1.928-2.653a4.338 4.338 0 00-1.149-.752c-.136-.059-.156-.046-.156.11 0 .37-.006.74 0 1.11.013 1.97.013 3.942.046 5.914.026 1.433.084 2.866.149 4.3.052 1.167.11 2.34.188 3.508.065.992.156 1.985.234 2.97.045.565.097 1.135.156 1.7.078.687.162 1.374.246 2.062.059.473.137.947.195 1.42.013.123.078.577.188.577.85 0 1.707-.428 2.558-.428h.181c.124.007.208.091.208.201 0 .117-.084.201-.214.208h-9.886c-.11-.013-.175-.078-.182-.195 0-.123.065-.2.182-.214h.143c.967 0 1.09.422 2.058.422.123 0 1.077-.09 1.097-.214.077-.538.149-1.511.22-2.05.085-.668.163-1.342.234-2.01.058-.577.117-1.154.162-1.738.078-1.031.156-2.069.22-3.1.053-.765.105-1.53.13-2.296.079-2.095.163-4.19.202-6.284.039-1.94.026-3.872.032-5.811 0-.214-.039-.233-.24-.136-.766.37-1.37.934-1.882 1.602a10.556 10.556 0 00-1.59 2.905c-.072.201-.137.396-.208.597-.007.026-.033.045-.059.09a.378.378 0 01-.02-.09c-.025-.61-.084-1.226-.058-1.83.059-1.244.448-2.386 1.253-3.365.286-.35.623-.655.98-.934a.243.243 0 00.091-.123c-.052 0-.104-.013-.15 0-.538.143-1.083.266-1.615.44-.559.183-1.11.39-1.656.623-1.246.539-2.395 1.233-3.355 2.206-.228.233-.429.492-.643.739-.04.045-.085.09-.15.155-.006-.058-.013-.084-.013-.11a5.152 5.152 0 011.085-2.756c.772-.986 1.72-1.764 2.862-2.276.734-.331 1.5-.584 2.298-.714.059-.006.117-.032.175-.052v-.039c-.084-.032-.162-.064-.246-.09-.637-.175-1.266-.363-1.909-.513-.584-.136-1.181-.227-1.778-.324a11.103 11.103 0 00-2.123-.156c-.526.013-1.058.078-1.584.124-.065 0-.136.032-.201.045-.013 0-.026-.007-.058-.02.032-.032.052-.064.078-.084.428-.324.85-.661 1.33-.908a6.378 6.378 0 011.402-.512 6.73 6.73 0 012.389-.117c.286.033.565.091.85.156.662.149 1.325.318 1.935.629.311.162.61.35.915.525.02.013.039.026.065.046.013-.163-1.123-1.576-2.155-2.698a24.454 24.454 0 00-2.512-2.406c.02-.04 0 0 .013-.033 1.07.247 2.09.63 3.038 1.187a8.748 8.748 0 012.81 2.575c.052.078.104.162.156.24.02.032.058.052.11.104.013-.085.02-.13.026-.182.052-.765.078-1.537.163-2.302.097-.921.246-1.83.506-2.724l.214-.7c.013-.04.046-.072.091-.11.701 1.938.863 3.955.987 5.991a9.051 9.051 0 012.655-2.646 9.51 9.51 0 013.453-1.4l.006.026z" fill="#fff"/></svg>