<svg width="218" height="11" viewBox="0 0 218 11" fill="none" xmlns="http://www.w3.org/2000/svg"><path d="M5.667 10.168c-2.856 0-4.984-2.226-4.984-5.04V5.1C.683 2.314 2.77.032 5.723.032c1.82 0 2.912.63 3.85 1.526L8.467 2.832C7.67 2.104 6.843 1.628 5.71 1.628c-1.848 0-3.22 1.526-3.22 3.444V5.1c0 1.918 1.358 3.472 3.234 3.472 1.19 0 1.974-.476 2.814-1.26l1.106 1.12c-.994 1.078-2.156 1.736-3.976 1.736zm10.482 0c-3.01 0-5.11-2.282-5.11-5.04V5.1c0-2.744 2.128-5.068 5.138-5.068s5.11 2.282 5.11 5.04V5.1c0 2.744-2.128 5.068-5.138 5.068zm.028-1.596c1.946 0 3.304-1.54 3.304-3.444V5.1c0-1.904-1.372-3.472-3.332-3.472-1.946 0-3.304 1.54-3.304 3.444V5.1c0 1.904 1.372 3.472 3.332 3.472zM22.193 10L26.505.13H28.1L32.413 10h-1.82l-.994-2.366h-4.634L23.957 10h-1.764zm3.402-3.892h3.374l-1.694-3.92-1.68 3.92zm12.058 4.032c-1.512 0-2.912-.504-4.088-1.568L34.6 7.34c.952.826 1.876 1.274 3.094 1.274 1.064 0 1.736-.504 1.736-1.232v-.028c0-.686-.392-1.092-2.212-1.498-2.086-.49-3.262-1.134-3.262-2.926v-.028c0-1.68 1.4-2.842 3.346-2.842 1.442 0 2.548.434 3.556 1.232l-.924 1.302c-.896-.658-1.764-1.008-2.66-1.008-1.008 0-1.596.504-1.596 1.162v.028c0 .756.448 1.092 2.338 1.54 2.058.532 3.136 1.232 3.136 2.87v.028c0 1.848-1.442 2.926-3.5 2.926zM45.66 10V1.796h-3.122V.2h7.966v1.596h-3.122V10H45.66zm4.826 0L54.798.13h1.596L60.706 10h-1.82l-.994-2.366h-4.634L52.25 10h-1.764zm3.402-3.892h3.374l-1.694-3.92-1.68 3.92zM62.666 10V.2h1.722v8.232h5.152V10h-6.874zm13.412 0V.2H77.8v8.232h5.152V10h-6.874zm9.032 0V.2h1.722V10H85.11zm7.846.07L88.895.2h1.903l2.954 7.532L96.694.2h1.862l-4.06 9.87h-1.54zm7.658-.07V.2h1.722V10h-1.722zm4.625 0V.2h1.596l5.25 6.776V.2h1.694V10h-1.442l-5.404-6.972V10h-1.694zm15.988.168c-3.066 0-5.082-2.184-5.082-5.04V5.1c0-2.744 2.086-5.068 5.054-5.068 1.694 0 2.758.476 3.766 1.33l-1.092 1.302c-.756-.644-1.512-1.036-2.744-1.036-1.792 0-3.178 1.568-3.178 3.444V5.1c0 2.016 1.33 3.5 3.332 3.5.938 0 1.764-.294 2.366-.742v-1.82h-2.506V4.526h4.172v4.116c-.98.826-2.352 1.526-4.088 1.526zM132.315 10V.2h4.368c1.232 0 2.198.364 2.828.98.518.546.812 1.26.812 2.114v.028c0 1.61-.966 2.576-2.324 2.968l2.646 3.71h-2.044l-2.408-3.416h-2.156V10h-1.722zm1.722-4.942h2.52c1.232 0 2.016-.63 2.016-1.638v-.028c0-1.064-.742-1.624-2.03-1.624h-2.506v3.29zM142.712 10V.2h7.266v1.54h-5.544v2.548h4.914v1.554h-4.914V8.46h5.614V10h-7.336zm9.659 0V.2h3.654c3.08 0 5.208 2.114 5.208 4.872V5.1c0 2.758-2.128 4.9-5.208 4.9h-3.654zm3.654-8.232h-1.932v6.664h1.932c2.058 0 3.402-1.386 3.402-3.304V5.1c0-1.918-1.344-3.332-3.402-3.332zM163.602 10V.2h7.266v1.54h-5.544v2.548h4.914v1.554h-4.914V8.46h5.614V10h-7.336zm9.659 0V.2h7.294v1.568h-5.572v2.674h4.942V6.01h-4.942V10h-1.722zm9.566 0V.2h1.722V10h-1.722zm4.625 0V.2h1.596l5.25 6.776V.2h1.694V10h-1.442l-5.404-6.972V10h-1.694zm11.341 0V.2h7.266v1.54h-5.544v2.548h4.914v1.554h-4.914V8.46h5.614V10h-7.336zm9.659 0V.2h3.654c3.08 0 5.208 2.114 5.208 4.872V5.1c0 2.758-2.128 4.9-5.208 4.9h-3.654zm3.654-8.232h-1.932v6.664h1.932c2.058 0 3.402-1.386 3.402-3.304V5.1c0-1.918-1.344-3.332-3.402-3.332z" fill="#fff"/></svg>