<svg width="147" height="26" viewBox="0 0 147 26" fill="none" xmlns="http://www.w3.org/2000/svg"><path d="M3.7 23.496c1.345 0 2.581-.057 3.71-.17a41.314 41.314 0 002.956-.394c.98-.16 1.874-.347 2.683-.564l-.496 2.769a16.22 16.22 0 00-.615-.035l-.923-.034-1.06-.034c-.364 0-.712-.005-1.042-.017-.33 0-.627-.006-.889-.017H.095v-.068c.068-.24.13-.536.188-.889.068-.353.125-.792.17-1.316.046-.524.08-1.145.103-1.863.023-.729.034-1.578.034-2.546V7.192c0-.968-.011-1.811-.034-2.529a34.607 34.607 0 00-.102-1.88A13.03 13.03 0 00.283 1.45 7.862 7.862 0 00.095.562V.493h4.101v.069c-.068.239-.136.535-.205.888-.057.353-.108.798-.154 1.333-.034.524-.068 1.15-.102 1.88-.023.718-.034 1.561-.034 2.53v16.303zm12.647 1.436c.069-.24.131-.536.188-.889.057-.353.108-.792.154-1.316s.08-1.145.102-1.863c.023-.729.035-1.578.035-2.546V7.192c0-.968-.012-1.811-.035-2.529a34.7 34.7 0 00-.102-1.88c-.046-.535-.097-.98-.154-1.333a7.883 7.883 0 00-.188-.888V.493h4.085v.069c-.069.239-.137.535-.205.888a18.39 18.39 0 00-.154 1.333c-.034.524-.069 1.15-.103 1.88-.023.718-.034 1.561-.034 2.53v11.125c0 .968.011 1.817.034 2.546.034.718.069 1.339.103 1.863.045.524.097.963.154 1.316.068.353.136.65.205.889V25h-4.085v-.068zm12.75-6.614c0 .968.01 1.817.033 2.546.035.718.069 1.339.103 1.863.046.524.097.963.154 1.316.068.353.136.65.205.889V25H25.49v-.068c.069-.24.131-.536.188-.889.069-.353.125-.792.171-1.316.046-.524.08-1.145.103-1.863.022-.729.034-1.578.034-2.546V7.192c0-.968-.012-1.811-.034-2.529a34.587 34.587 0 00-.103-1.88c-.046-.535-.102-.98-.17-1.333a7.839 7.839 0 00-.189-.888V.493h2.871c.969-.011 1.909-.017 2.82-.017L33.78.442c.82-.023 1.56-.04 2.221-.051.661-.023 1.22-.046 1.675-.069.456-.034.78-.068.974-.102l-.837 2.273a12.55 12.55 0 00-1.316-.274 24.864 24.864 0 00-1.59-.188 19.582 19.582 0 00-3.16-.068c-.411.011-.816.028-1.214.051-.456.023-.934.046-1.436.069v8.63a67.312 67.312 0 003.23-.103c.98-.057 1.823-.114 2.53-.17.82-.069 1.56-.149 2.221-.24l-.512 2.478c-.855-.102-1.72-.2-2.598-.29-.752-.08-1.561-.148-2.427-.205a31.166 31.166 0 00-2.444-.103v6.238zM41.793.493c1.424 0 2.837-.006 4.238-.017a2374.6 2374.6 0 003.88-.034 142.04 142.04 0 003.007-.086c.832-.034 1.396-.08 1.692-.136l-.837 2.273a12.55 12.55 0 00-1.316-.274 24.868 24.868 0 00-1.59-.188 19.586 19.586 0 00-3.127-.068c-.376.011-.74.028-1.093.051l-1.248.069v9.33a63.529 63.529 0 003.179-.102 95.297 95.297 0 002.41-.17 32.348 32.348 0 002.05-.24l-.53 2.478c-.786-.103-1.59-.2-2.41-.29a52.82 52.82 0 00-2.306-.206 29.224 29.224 0 00-2.393-.102v10.715c1.344 0 2.58-.057 3.708-.17a41.317 41.317 0 002.957-.394c.98-.16 1.874-.347 2.683-.564l-.496 2.769a16.22 16.22 0 00-.615-.035l-.923-.034-1.06-.034c-.364 0-.711-.005-1.042-.017-.33 0-.626-.006-.888-.017h-7.93v-.068c.068-.24.131-.536.188-.889.068-.353.125-.792.17-1.316.046-.524.08-1.145.103-1.863.023-.729.035-1.578.035-2.546V7.192c0-.968-.012-1.811-.035-2.529a34.587 34.587 0 00-.102-1.88c-.046-.535-.103-.98-.171-1.333a7.839 7.839 0 00-.188-.888V.493zM69.172 4.39h-.376a4.595 4.595 0 00-.444-.889 3.688 3.688 0 00-.787-.923 3.916 3.916 0 00-1.179-.735c-.456-.193-.997-.29-1.623-.29-.559 0-1.054.085-1.487.256-.433.171-.798.41-1.094.718a3.102 3.102 0 00-.65 1.094 4.205 4.205 0 00-.221 1.401c0 .82.227 1.606.683 2.358.467.74 1.048 1.476 1.743 2.205.695.73 1.447 1.458 2.256 2.188.81.729 1.561 1.486 2.256 2.272.695.787 1.27 1.613 1.726 2.478.467.855.7 1.778.7 2.769 0 .74-.13 1.487-.392 2.239a5.663 5.663 0 01-1.18 2c-.535.592-1.224 1.076-2.067 1.452-.844.364-1.846.547-3.008.547-.65 0-1.27-.063-1.863-.188a12.479 12.479 0 01-1.623-.427c-.49-.183-.935-.376-1.334-.581a10.206 10.206 0 01-.956-.564l.392-3.777h.428c.125.535.33 1.048.615 1.538.285.478.632.905 1.043 1.282.421.364.9.66 1.435.888a4.656 4.656 0 001.76.325c.581 0 1.1-.086 1.556-.256a3.715 3.715 0 001.196-.735c.33-.32.58-.695.752-1.128.182-.433.273-.906.273-1.419 0-.718-.13-1.378-.393-1.982a7.602 7.602 0 00-1.042-1.743 13.389 13.389 0 00-1.453-1.59 73.052 73.052 0 00-1.658-1.538 55.815 55.815 0 01-1.675-1.606 14.038 14.038 0 01-1.452-1.743 9.476 9.476 0 01-1.026-2 6.83 6.83 0 01-.393-2.358c0-.9.171-1.71.513-2.427.353-.73.815-1.35 1.384-1.863A6.277 6.277 0 0162.473.46a6.374 6.374 0 012.255-.41c.57 0 1.094.045 1.573.137.478.09.906.199 1.281.324.388.126.724.25 1.009.376l.7.308-.12 3.196zm12.15-2.393c-1.344 0-2.557.063-3.64.188a42.77 42.77 0 00-2.802.376c-.912.17-1.726.359-2.444.564l.496-2.769c.136.012.341.023.615.035a127.16 127.16 0 001.965.068c.376 0 .73.006 1.06.017.33 0 .62.006.871.017h10.869c.263-.011.559-.017.89-.017.33-.011.677-.017 1.042-.017a255.058 255.058 0 001.982-.068c.273-.012.479-.023.615-.035l.496 2.769c-.73-.205-1.55-.393-2.461-.564a42.773 42.773 0 00-2.803-.376 31.871 31.871 0 00-3.64-.188v16.32c0 .97.011 1.818.034 2.547.034.718.069 1.339.103 1.863.045.524.097.963.154 1.316.068.353.136.65.205.889V25h-4.085v-.068c.069-.24.131-.536.188-.889.057-.353.109-.792.154-1.316.046-.524.08-1.145.103-1.863.022-.729.034-1.578.034-2.546V1.998zm24.456 11.245v5.076c0 .968.012 1.817.034 2.546.023.718.057 1.339.103 1.863.046.524.097.963.154 1.316.068.353.137.65.205.889V25h-4.102v-.068c.069-.24.131-.536.188-.889.069-.353.12-.792.154-1.316.046-.524.08-1.145.103-1.863.034-.729.051-1.578.051-2.546v-4.734l-7.64-10.39a14.595 14.595 0 00-.785-.975 9.75 9.75 0 00-.718-.769 8.252 8.252 0 00-.615-.564 6.134 6.134 0 00-.428-.324V.493h5.179c0 .262.108.695.324 1.299.228.592.633 1.293 1.214 2.102l5.605 7.673 5.486-8.015c.194-.285.387-.575.581-.871.194-.297.37-.581.53-.855a5.81 5.81 0 00.376-.752c.102-.228.154-.421.154-.58h3.332v.068c-.25.216-.587.54-1.008.974-.422.421-.877.985-1.367 1.692l-7.11 10.014zm15.364 10.254c1.344 0 2.581-.057 3.709-.17a41.284 41.284 0 002.956-.394c.98-.16 1.874-.347 2.683-.564l-.495 2.769a16.246 16.246 0 00-.616-.035l-.922-.034-1.06-.034c-.365 0-.712-.005-1.043-.017-.33 0-.626-.006-.888-.017h-7.93v-.068c.068-.24.131-.536.188-.889.068-.353.125-.792.171-1.316.046-.524.08-1.145.103-1.863.022-.729.034-1.578.034-2.546V7.192c0-.968-.012-1.811-.034-2.529a34.342 34.342 0 00-.103-1.88 13.25 13.25 0 00-.171-1.333 7.95 7.95 0 00-.188-.888V.493h4.102v.069c-.069.239-.137.535-.205.888-.057.353-.109.798-.154 1.333-.034.524-.069 1.15-.103 1.88a80.45 80.45 0 00-.034 2.53v16.303zM133.635.493c1.424 0 2.837-.006 4.238-.017 1.413-.011 2.706-.023 3.879-.034 1.174-.023 2.177-.051 3.008-.086.832-.034 1.396-.08 1.692-.136l-.837 2.273a12.568 12.568 0 00-1.316-.274 24.87 24.87 0 00-1.59-.188 19.575 19.575 0 00-3.127-.068c-.376.011-.741.028-1.094.051l-1.247.069v9.33a63.495 63.495 0 003.178-.102 95.3 95.3 0 002.41-.17 32.374 32.374 0 002.051-.24l-.53 2.478c-.786-.103-1.589-.2-2.41-.29a52.718 52.718 0 00-2.307-.206 29.202 29.202 0 00-2.392-.102v10.715c1.344 0 2.58-.057 3.708-.17a41.319 41.319 0 002.957-.394c.98-.16 1.874-.347 2.683-.564l-.496 2.769a16.166 16.166 0 00-.615-.035l-.923-.034-1.059-.034c-.365 0-.712-.005-1.043-.017-.33 0-.627-.006-.889-.017h-7.929v-.068c.068-.24.131-.536.188-.889.068-.353.125-.792.171-1.316.045-.524.079-1.145.102-1.863.023-.729.034-1.578.034-2.546V7.192c0-.968-.011-1.811-.034-2.529a35.488 35.488 0 00-.102-1.88 13.25 13.25 0 00-.171-1.333 7.95 7.95 0 00-.188-.888V.493z" fill="#fff"/></svg>