<svg width="164" height="27" viewBox="0 0 164 27" fill="none" xmlns="http://www.w3.org/2000/svg"><path d="M.84 1.493c1.424 0 2.837-.006 4.239-.017 1.412-.011 2.706-.023 3.879-.034 1.174-.023 2.176-.051 3.008-.086.832-.034 1.396-.08 1.692-.136l-.838 2.273a12.55 12.55 0 00-1.316-.274 24.865 24.865 0 00-1.589-.188 19.583 19.583 0 00-3.127-.068c-.376.011-.741.028-1.094.051l-1.248.069v9.33a63.53 63.53 0 003.179-.102 95.331 95.331 0 002.41-.17 32.336 32.336 0 002.05-.24l-.53 2.478c-.785-.103-1.589-.2-2.409-.29a52.82 52.82 0 00-2.307-.206 29.223 29.223 0 00-2.393-.102v10.715c1.345 0 2.58-.057 3.709-.17a41.316 41.316 0 002.956-.394c.98-.16 1.874-.347 2.683-.564l-.495 2.769a16.22 16.22 0 00-.615-.035l-.923-.034-1.06-.034c-.364 0-.712-.005-1.042-.017-.33 0-.627-.006-.889-.017H.84v-.068c.069-.24.131-.536.188-.889.069-.353.126-.792.171-1.316.046-.524.08-1.145.103-1.863.023-.729.034-1.578.034-2.546V8.192c0-.968-.011-1.811-.034-2.529a34.614 34.614 0 00-.103-1.88c-.045-.535-.102-.98-.17-1.333a7.863 7.863 0 00-.189-.888v-.069zm20.765 23.003c1.344 0 2.58-.057 3.708-.17a41.317 41.317 0 002.957-.394c.98-.16 1.874-.347 2.683-.564l-.496 2.769a16.22 16.22 0 00-.615-.035l-.923-.034-1.06-.034c-.364 0-.712-.005-1.042-.017-.33 0-.627-.006-.889-.017h-7.93v-.068c.069-.24.132-.536.188-.889.069-.353.126-.792.171-1.316.046-.524.08-1.145.103-1.863.023-.729.034-1.578.034-2.546V8.192c0-.968-.011-1.811-.034-2.529a34.587 34.587 0 00-.103-1.88c-.045-.535-.102-.98-.17-1.333a7.839 7.839 0 00-.189-.888v-.069H22.1v.069c-.068.239-.137.535-.205.888-.057.353-.108.798-.154 1.333-.034.524-.068 1.15-.102 1.88-.023.718-.034 1.561-.034 2.53v16.303zM34.097 1.493c1.424 0 2.837-.006 4.238-.017 1.413-.011 2.706-.023 3.88-.034 1.173-.023 2.176-.051 3.008-.086.831-.034 1.395-.08 1.692-.136l-.838 2.273a12.544 12.544 0 00-1.316-.274 24.868 24.868 0 00-1.59-.188 19.584 19.584 0 00-3.127-.068c-.375.011-.74.028-1.093.051l-1.248.069v9.33a63.529 63.529 0 003.179-.102 95.297 95.297 0 002.41-.17 32.348 32.348 0 002.05-.24l-.53 2.478c-.786-.103-1.589-.2-2.41-.29a52.807 52.807 0 00-2.306-.206 29.222 29.222 0 00-2.393-.102v10.715c1.344 0 2.58-.057 3.709-.17a41.313 41.313 0 002.956-.394c.98-.16 1.874-.347 2.683-.564l-.495 2.769a16.227 16.227 0 00-.616-.035l-.922-.034-1.06-.034c-.365 0-.712-.005-1.042-.017-.33 0-.627-.006-.89-.017h-7.929v-.068c.069-.24.131-.536.188-.889.069-.353.126-.792.171-1.316.046-.524.08-1.145.103-1.863.022-.729.034-1.578.034-2.546V8.192c0-.968-.012-1.811-.034-2.529a34.7 34.7 0 00-.103-1.88c-.046-.535-.103-.98-.17-1.333a7.883 7.883 0 00-.189-.888v-.069zM72.823 23.13c0 .125-.017.256-.051.393a.57.57 0 01-.189.342c-.512.387-1.07.746-1.674 1.076a12.972 12.972 0 01-4.187 1.385 15.29 15.29 0 01-2.58.205c-2.074 0-3.966-.302-5.675-.906-1.709-.615-3.178-1.481-4.409-2.598a11.595 11.595 0 01-2.837-4.016c-.672-1.572-1.008-3.315-1.008-5.23 0-1.082.137-2.147.41-3.195a12.926 12.926 0 011.23-2.99 12.08 12.08 0 011.983-2.598 12.657 12.657 0 012.683-2.068 13.71 13.71 0 013.333-1.35c1.219-.33 2.535-.496 3.947-.496.547 0 1.105.028 1.675.085.57.046 1.134.12 1.692.223a16.64 16.64 0 011.606.341c.524.137 1.02.29 1.487.462l1.162 3.161-.136.069a9.526 9.526 0 00-1.538-1.111 12.2 12.2 0 00-3.948-1.47 10.795 10.795 0 00-2.188-.222c-1.435 0-2.751.228-3.947.684a8.612 8.612 0 00-3.094 1.948c-.854.854-1.52 1.903-2 3.144-.478 1.242-.717 2.655-.717 4.239 0 1.743.228 3.36.684 4.853.455 1.493 1.133 2.786 2.033 3.88.9 1.093 2.023 1.954 3.367 2.58 1.356.615 2.934.923 4.734.923.797 0 1.51-.063 2.136-.188a8.374 8.374 0 001.59-.461c.432-.194.757-.4.974-.616.228-.227.341-.433.341-.615v-.666c0-.798-.011-1.487-.034-2.068a22.42 22.42 0 00-.102-1.504 14.677 14.677 0 00-.154-1.11 7.86 7.86 0 00-.205-.855v-.069h4.101v.069c-.068.239-.136.524-.205.854-.057.32-.108.7-.153 1.145-.046.444-.08.968-.103 1.572a54.588 54.588 0 00-.034 2.068v.7zM94.527 26v-.068c.023-.057.04-.143.051-.257.011-.114.017-.216.017-.307 0-.353-.051-.74-.154-1.162-.09-.433-.273-.969-.547-1.607l-2.067-4.648a74.803 74.803 0 00-2.547-.035H83.231c-.832 0-1.584.012-2.256.035l-1.966 4.511c-.17.422-.353.883-.547 1.385a4.19 4.19 0 00-.29 1.52c0 .149.011.274.034.377a.657.657 0 00.068.188V26h-3.486v-.068c.205-.217.462-.598.77-1.145.307-.559.643-1.254 1.007-2.085L86.358.98h1.367l9.28 20.884c.216.49.439.969.666 1.436.24.456.462.866.667 1.23.205.365.387.672.547.923.16.25.267.41.325.479V26h-4.683zm-11.074-9.553h2.033c.695-.012 1.373-.017 2.034-.017.672-.012 1.316-.017 1.931-.017.615-.012 1.174-.023 1.675-.035L86.324 5.526l-4.717 10.92h1.846zm18.833-14.954l17.602 18.73V8.194c0-.969-.011-1.812-.034-2.53a34.342 34.342 0 00-.103-1.88 13 13 0 00-.17-1.333 7.95 7.95 0 00-.188-.888v-.069h3.042v.069a7.73 7.73 0 00-.188.888c-.057.353-.109.798-.154 1.333-.046.524-.08 1.15-.103 1.88a80.45 80.45 0 00-.034 2.53v18.149h-.598L103.755 7.628v11.69c0 .968.012 1.817.035 2.546.022.718.057 1.339.102 1.863.046.524.097.963.154 1.316.057.353.12.65.188.889V26h-3.042v-.068c.068-.24.131-.536.188-.889.068-.353.125-.792.171-1.316.045-.524.08-1.145.102-1.863.023-.729.035-1.578.035-2.546V8.192c0-.968-.012-1.811-.035-2.529a34.449 34.449 0 00-.102-1.88 13.25 13.25 0 00-.171-1.333 7.95 7.95 0 00-.188-.888v-.069h1.094zm44.741 3.76l-.154.068c-.889-.82-1.96-1.475-3.213-1.965-1.242-.49-2.609-.735-4.101-.735-1.436 0-2.752.228-3.948.684a8.606 8.606 0 00-3.093 1.948c-.855.854-1.521 1.903-2 3.144-.478 1.242-.718 2.655-.718 4.239 0 1.743.228 3.372.684 4.887.456 1.504 1.134 2.809 2.034 3.914.9 1.105 2.022 1.977 3.366 2.615 1.356.626 2.934.94 4.734.94.65 0 1.299-.069 1.948-.205a9.338 9.338 0 001.863-.598 9.9 9.9 0 001.692-.975 8.855 8.855 0 001.453-1.316l.188.12-1.367 3.486c-.855.33-1.801.581-2.837.752a17.749 17.749 0 01-3.111.274c-2.107 0-4.039-.302-5.793-.906-1.743-.615-3.247-1.481-4.512-2.598a11.862 11.862 0 01-2.939-4.016c-.695-1.572-1.043-3.315-1.043-5.23 0-1.082.137-2.147.41-3.195a12.91 12.91 0 011.231-2.99 12.065 12.065 0 011.982-2.598 12.667 12.667 0 012.683-2.068 13.709 13.709 0 013.333-1.35c1.219-.33 2.535-.496 3.948-.496 2.198 0 4.238.336 6.118 1.008l1.162 3.162zm3.862-3.76c1.424 0 2.837-.006 4.238-.017 1.413-.011 2.706-.023 3.88-.034 1.173-.023 2.176-.051 3.008-.086.831-.034 1.395-.08 1.692-.136l-.838 2.273a12.514 12.514 0 00-1.316-.274 24.917 24.917 0 00-1.589-.188 19.575 19.575 0 00-3.128-.068c-.376.011-.74.028-1.093.051l-1.248.069v9.33a63.538 63.538 0 003.179-.102 95.18 95.18 0 002.409-.17 32.287 32.287 0 002.051-.24l-.53 2.478c-.786-.103-1.589-.2-2.409-.29a52.998 52.998 0 00-2.307-.206 29.245 29.245 0 00-2.393-.102v10.715c1.345 0 2.581-.057 3.709-.17a41.284 41.284 0 002.956-.394c.98-.16 1.874-.347 2.683-.564l-.495 2.769a16.246 16.246 0 00-.616-.035l-.922-.034-1.06-.034c-.365 0-.712-.005-1.042-.017-.331 0-.627-.006-.889-.017h-7.93v-.068c.069-.24.131-.536.188-.889.069-.353.125-.792.171-1.316.046-.524.08-1.145.103-1.863.022-.729.034-1.578.034-2.546V8.192c0-.968-.012-1.811-.034-2.529a34.342 34.342 0 00-.103-1.88c-.046-.535-.102-.98-.171-1.333a7.73 7.73 0 00-.188-.888v-.069z" fill="#fff"/></svg>