<svg width="205" height="26" viewBox="0 0 205 26" fill="none" xmlns="http://www.w3.org/2000/svg"><path d="M.221.493C1.645.493 3.058.487 4.46.476A2375.1 2375.1 0 008.34.442C9.512.419 10.515.39 11.347.356c.831-.034 1.395-.08 1.692-.136L12.2 2.493a12.55 12.55 0 00-1.316-.274 24.878 24.878 0 00-1.59-.188 19.583 19.583 0 00-3.127-.068c-.376.011-.74.028-1.093.051l-1.248.069v9.33a63.53 63.53 0 003.179-.102 95.318 95.318 0 002.41-.17 32.333 32.333 0 002.05-.24l-.53 2.478c-.786-.103-1.589-.2-2.41-.29a52.82 52.82 0 00-2.306-.206 29.223 29.223 0 00-2.393-.102v10.715c1.345 0 2.58-.057 3.709-.17a41.318 41.318 0 002.956-.394c.98-.16 1.874-.347 2.683-.564l-.495 2.769a16.22 16.22 0 00-.615-.035l-.923-.034-1.06-.034c-.365 0-.712-.005-1.042-.017-.33 0-.627-.006-.89-.017H.222v-.068c.069-.24.131-.536.188-.889.069-.353.126-.792.171-1.316.046-.524.08-1.145.103-1.863.022-.729.034-1.578.034-2.546V7.192c0-.968-.012-1.811-.034-2.529a34.607 34.607 0 00-.103-1.88A13.03 13.03 0 00.41 1.45 7.862 7.862 0 00.22.562V.493zm26.302 13.792l-6.05 7.673c-.228.273-.45.558-.667.855-.216.284-.41.564-.58.837-.172.273-.314.53-.428.769-.103.228-.154.421-.154.581h-3.315v-.068c.25-.217.603-.547 1.06-.992a15.33 15.33 0 001.486-1.674l7.52-9.451L17.67 2.664a9.965 9.965 0 00-1.248-1.368c-.41-.376-.717-.62-.923-.734V.493h5.35c0 .137.017.313.05.53.046.216.126.473.24.769.114.285.268.604.462.957.205.353.467.735.786 1.145l4.939 6.477 5.451-6.819c.205-.25.405-.524.599-.82a9.24 9.24 0 00.53-.855c.159-.284.284-.546.375-.786.103-.239.154-.438.154-.598h3.316v.069c-.114.09-.24.199-.377.324-.136.126-.296.28-.478.462-.17.182-.365.398-.581.65-.216.25-.462.546-.735.888l-7.126 8.989L36.417 22.3a18.703 18.703 0 001.521 1.76c.479.456.826.746 1.043.872V25h-5.315c0-.262-.108-.695-.325-1.299-.216-.604-.62-1.304-1.213-2.102l-5.605-7.314zm35.12-10.032l-.155.068c-.888-.82-1.96-1.475-3.213-1.965-1.242-.49-2.609-.735-4.101-.735-1.436 0-2.752.228-3.948.684a8.612 8.612 0 00-3.093 1.948c-.855.854-1.521 1.903-2 3.144-.478 1.242-.718 2.655-.718 4.239 0 1.743.228 3.372.684 4.887.456 1.504 1.134 2.809 2.034 3.914.9 1.105 2.022 1.977 3.366 2.615 1.356.626 2.934.94 4.734.94.65 0 1.3-.069 1.949-.205a9.355 9.355 0 001.862-.598 9.906 9.906 0 001.692-.975 8.873 8.873 0 001.453-1.316l.188.12-1.367 3.486c-.855.33-1.8.581-2.837.752a17.735 17.735 0 01-3.11.274c-2.108 0-4.04-.302-5.794-.906-1.743-.615-3.247-1.481-4.512-2.598a11.866 11.866 0 01-2.94-4.016c-.694-1.572-1.042-3.315-1.042-5.23 0-1.082.137-2.147.41-3.195a12.926 12.926 0 011.231-2.99 12.08 12.08 0 011.982-2.598 12.657 12.657 0 012.683-2.068 13.71 13.71 0 013.333-1.35c1.22-.33 2.535-.496 3.948-.496 2.199 0 4.238.336 6.118 1.008l1.162 3.162zm7.467 19.243c1.345 0 2.58-.057 3.709-.17a41.313 41.313 0 002.956-.394c.98-.16 1.875-.347 2.683-.564l-.495 2.769a16.22 16.22 0 00-.615-.035l-.923-.034-1.06-.034c-.364 0-.712-.005-1.042-.017-.33 0-.627-.006-.889-.017h-7.93v-.068c.069-.24.131-.536.188-.889.069-.353.126-.792.171-1.316.046-.524.08-1.145.103-1.863.023-.729.034-1.578.034-2.546V7.192c0-.968-.011-1.811-.034-2.529a34.598 34.598 0 00-.103-1.88c-.045-.535-.102-.98-.17-1.333a7.86 7.86 0 00-.189-.888V.493h4.102v.069c-.068.239-.137.535-.205.888a18.39 18.39 0 00-.154 1.333c-.034.524-.068 1.15-.103 1.88-.022.718-.034 1.561-.034 2.53v16.303zM99.137 7.192c0-.968-.011-1.811-.034-2.529a34.598 34.598 0 00-.102-1.88c-.046-.535-.097-.98-.154-1.333a7.86 7.86 0 00-.188-.888V.493h3.042v.069c-.069.239-.137.535-.205.888-.057.353-.109.798-.154 1.333-.034.524-.069 1.15-.103 1.88a80.45 80.45 0 00-.034 2.53v9.228c0 1.63-.233 3.02-.701 4.17-.467 1.15-1.116 2.096-1.948 2.837-.832.729-1.828 1.259-2.99 1.59-1.163.34-2.433.512-3.812.512-1.378 0-2.666-.16-3.862-.479-1.185-.319-2.222-.831-3.11-1.538-.877-.718-1.567-1.64-2.068-2.768-.501-1.14-.752-2.524-.752-4.153v-9.4c0-.968-.011-1.811-.034-2.529a34.598 34.598 0 00-.103-1.88c-.045-.535-.102-.98-.17-1.333a7.86 7.86 0 00-.189-.888V.493h4.102v.069c-.069.239-.137.535-.205.888-.057.353-.108.798-.154 1.333-.046.524-.08 1.15-.103 1.88-.022.718-.034 1.561-.034 2.53v9.587c0 1.356.2 2.478.598 3.366.41.878.946 1.578 1.607 2.102.66.513 1.413.872 2.256 1.077.843.205 1.703.308 2.58.308.878 0 1.738-.103 2.58-.308a5.763 5.763 0 002.24-1.076c.66-.525 1.19-1.225 1.589-2.102.41-.89.615-2.011.615-3.367V7.192zm17.534-2.802h-.376a4.586 4.586 0 00-.444-.889 3.702 3.702 0 00-.786-.923 3.917 3.917 0 00-1.179-.735c-.456-.193-.997-.29-1.624-.29-.558 0-1.054.085-1.487.256-.433.171-.797.41-1.093.718a3.098 3.098 0 00-.65 1.094 4.207 4.207 0 00-.222 1.401c0 .82.228 1.606.684 2.358.467.74 1.048 1.476 1.743 2.205a41.5 41.5 0 002.256 2.188c.809.729 1.561 1.486 2.256 2.272a12.62 12.62 0 011.726 2.478c.467.855.7 1.778.7 2.769 0 .74-.131 1.487-.393 2.239a5.646 5.646 0 01-1.179 2c-.535.592-1.225 1.076-2.068 1.452-.843.364-1.846.547-3.008.547-.649 0-1.27-.063-1.862-.188a12.432 12.432 0 01-1.624-.427c-.49-.183-.934-.376-1.333-.581a10.312 10.312 0 01-.957-.564l.393-3.777h.427c.126.535.331 1.048.616 1.538a5.63 5.63 0 001.042 1.282c.422.364.9.66 1.436.888a4.652 4.652 0 001.76.325c.581 0 1.099-.086 1.555-.256a3.71 3.71 0 001.196-.735c.331-.32.581-.695.752-1.128.183-.433.274-.906.274-1.419 0-.718-.131-1.378-.393-1.982a7.597 7.597 0 00-1.043-1.743 13.334 13.334 0 00-1.453-1.59 73.424 73.424 0 00-1.657-1.538 55.464 55.464 0 01-1.675-1.606 13.99 13.99 0 01-1.453-1.743 9.493 9.493 0 01-1.025-2 6.83 6.83 0 01-.393-2.358c0-.9.171-1.71.513-2.427.353-.73.814-1.35 1.384-1.863A6.276 6.276 0 01109.972.46a6.373 6.373 0 012.256-.41c.57 0 1.094.045 1.572.137.479.09.906.199 1.282.324.387.126.724.25 1.008.376l.701.308-.12 3.196zm5.862 20.542c.069-.24.131-.536.188-.889.057-.353.108-.792.154-1.316s.08-1.145.103-1.863c.022-.729.034-1.578.034-2.546V7.192c0-.968-.012-1.811-.034-2.529a34.342 34.342 0 00-.103-1.88c-.046-.535-.097-.98-.154-1.333a7.73 7.73 0 00-.188-.888V.493h4.085v.069c-.069.239-.137.535-.205.888-.057.353-.109.798-.154 1.333-.034.524-.069 1.15-.103 1.88a80.45 80.45 0 00-.034 2.53v11.125c0 .968.011 1.817.034 2.546.034.718.069 1.339.103 1.863.045.524.097.963.154 1.316.068.353.136.65.205.889V25h-4.085v-.068zM133.214.493v.069a1.02 1.02 0 00-.051.256 3.244 3.244 0 00-.017.307c0 .354.046.747.137 1.18.102.421.29.951.564 1.589l7.57 17.073 7.315-16.936c.171-.422.353-.883.547-1.385.193-.5.29-1.008.29-1.52 0-.137-.011-.251-.034-.342a1.05 1.05 0 00-.068-.222V.493h3.503v.069c-.216.216-.478.603-.786 1.162a27.173 27.173 0 00-1.008 2.067l-9.793 21.739h-1.367l-9.28-20.901c-.216-.49-.444-.963-.683-1.419a28.961 28.961 0 00-.65-1.23 16.2 16.2 0 00-.547-.94 5.82 5.82 0 00-.324-.478V.493h4.682zm21.653 24.439c.069-.24.131-.536.188-.889.057-.353.108-.792.154-1.316s.08-1.145.103-1.863c.022-.729.034-1.578.034-2.546V7.192c0-.968-.012-1.811-.034-2.529a34.342 34.342 0 00-.103-1.88c-.046-.535-.097-.98-.154-1.333a7.73 7.73 0 00-.188-.888V.493h4.085v.069c-.069.239-.137.535-.205.888-.057.353-.109.798-.154 1.333-.034.524-.069 1.15-.103 1.88a80.45 80.45 0 00-.034 2.53v11.125c0 .968.011 1.817.034 2.546.034.718.069 1.339.103 1.863.045.524.097.963.154 1.316.068.353.136.65.205.889V25h-4.085v-.068zm15.586-22.935a31.87 31.87 0 00-3.64.188 42.8 42.8 0 00-2.803.376c-.911.17-1.726.359-2.444.564l.496-2.769c.137.012.342.023.615.035a129.57 129.57 0 001.966.068c.376 0 .729.006 1.059.017.331 0 .621.006.872.017h10.869c.262-.011.558-.017.889-.017.33-.011.677-.017 1.042-.017a258.263 258.263 0 001.982-.068c.274-.012.479-.023.616-.035l.495 2.769a28.576 28.576 0 00-2.461-.564 42.76 42.76 0 00-2.802-.376 31.89 31.89 0 00-3.641-.188v16.32c0 .97.012 1.818.035 2.547.034.718.068 1.339.102 1.863.046.524.097.963.154 1.316.068.353.137.65.205.889V25h-4.084v-.068c.068-.24.131-.536.188-.889.057-.353.108-.792.153-1.316.046-.524.08-1.145.103-1.863.023-.729.034-1.578.034-2.546V1.998zm24.456 11.245v5.076c0 .968.011 1.817.034 2.546.023.718.057 1.339.102 1.863.046.524.097.963.154 1.316.069.353.137.65.205.889V25h-4.101v-.068c.068-.24.131-.536.188-.889.068-.353.119-.792.154-1.316.045-.524.079-1.145.102-1.863.034-.729.051-1.578.051-2.546v-4.734l-7.639-10.39a14.594 14.594 0 00-.786-.975 9.788 9.788 0 00-.718-.769 8.333 8.333 0 00-.615-.564 6.217 6.217 0 00-.427-.324V.493h5.178c0 .262.108.695.325 1.299.228.592.632 1.293 1.213 2.102l5.606 7.673 5.485-8.015c.194-.285.388-.575.581-.871.194-.297.371-.581.53-.855.16-.273.285-.524.376-.752.103-.228.154-.421.154-.58h3.333v.068c-.251.216-.587.54-1.009.974-.421.421-.877.985-1.367 1.692l-7.109 10.014z" fill="#fff"/></svg>