<svg width="133" height="9" viewBox="0 0 133 9" fill="none" xmlns="http://www.w3.org/2000/svg"><path d="M3.45.88c.86 0 1.57.213 2.13.64.56.42.947.997 1.16 1.73h-.96a2.322 2.322 0 00-.87-1.11c-.4-.28-.89-.42-1.47-.42-.46 0-.873.113-1.24.34-.36.22-.646.54-.86.96-.206.413-.31.9-.31 1.46 0 .553.104 1.037.31 1.45.214.413.5.733.86.96.367.22.78.33 1.24.33.58 0 1.07-.137 1.47-.41.4-.28.69-.653.87-1.12h.96c-.213.733-.6 1.313-1.16 1.74-.56.42-1.27.63-2.13.63-.66 0-1.243-.15-1.75-.45A3.214 3.214 0 01.51 6.34C.23 5.793.09 5.173.09 4.48c0-.7.14-1.323.42-1.87.287-.547.684-.97 1.19-1.27.507-.307 1.09-.46 1.75-.46zm7.937-.02c.654 0 1.24.153 1.76.46.527.307.94.737 1.24 1.29.3.547.45 1.167.45 1.86 0 .693-.15 1.317-.45 1.87-.3.547-.713.973-1.24 1.28-.52.307-1.106.46-1.76.46a3.507 3.507 0 01-1.78-.46 3.272 3.272 0 01-1.24-1.28c-.3-.553-.45-1.177-.45-1.87 0-.693.15-1.313.45-1.86.3-.553.714-.983 1.24-1.29a3.507 3.507 0 011.78-.46zm0 .85c-.486 0-.923.113-1.31.34-.38.22-.68.54-.9.96-.213.413-.32.9-.32 1.46 0 .553.107 1.04.32 1.46.22.42.52.743.9.97.387.22.824.33 1.31.33.48 0 .91-.113 1.29-.34.387-.227.687-.547.9-.96.22-.42.33-.907.33-1.46 0-.56-.11-1.047-.33-1.46a2.241 2.241 0 00-.9-.96 2.47 2.47 0 00-1.29-.34zm9.01 4.66h-3.1L16.707 8h-.98l2.61-6.92h1.03l2.6 6.92h-.98l-.59-1.63zm-.26-.71l-1.29-3.56-1.29 3.56h2.58zm7.412.51c0 .333-.08.643-.24.93-.16.287-.404.52-.73.7-.327.18-.73.27-1.21.27a2.99 2.99 0 01-1.25-.25 2.326 2.326 0 01-.87-.7c-.214-.3-.337-.64-.37-1.02h.97c.02.2.086.397.2.59.12.187.286.343.5.47.22.12.483.18.79.18.4 0 .706-.107.92-.32.213-.213.32-.487.32-.82 0-.287-.077-.52-.23-.7-.147-.18-.33-.32-.55-.42-.22-.107-.52-.22-.9-.34a10.265 10.265 0 01-1.08-.41 1.934 1.934 0 01-.69-.59c-.187-.26-.28-.603-.28-1.03 0-.367.086-.69.26-.97.18-.28.433-.497.76-.65.333-.153.723-.23 1.17-.23.693 0 1.243.17 1.65.51.406.333.643.76.71 1.28h-.98a1.325 1.325 0 00-.43-.74c-.234-.213-.55-.32-.95-.32-.367 0-.66.097-.88.29-.22.187-.33.453-.33.8 0 .273.07.497.21.67.146.167.326.3.54.4.213.093.506.2.88.32.453.147.816.287 1.09.42.28.133.516.337.71.61.193.267.29.623.29 1.07zM33.292.95v.74h-1.99V8h-.91V1.69h-1.99V.95h4.89zm5.235 5.42h-3.1L34.837 8h-.98l2.61-6.92h1.03l2.6 6.92h-.98l-.59-1.63zm-.26-.71l-1.29-3.56-1.29 3.56h2.58zm3.86 1.63h2.5V8h-3.41V.95h.91v6.34zm7.207 0h2.5V8h-3.41V.95h.91v6.34zM53.87.95V8h-.91V.95h.91zm2.123 0l2.15 6.04 2.18-6.04h.99L58.724 8h-1.15L54.994.95h1zm7.35 0V8h-.91V.95h.91zM70.486 8h-.91l-3.66-5.57V8h-.91V.95h.91l3.66 5.58V.95h.91V8zM75.349.88c.82 0 1.507.203 2.06.61.56.407.937.96 1.13 1.66h-.96a2.147 2.147 0 00-.84-1.03c-.386-.26-.847-.39-1.38-.39-.48 0-.91.113-1.29.34-.38.22-.68.537-.9.95-.213.413-.32.9-.32 1.46 0 .573.11 1.07.33 1.49.22.413.523.733.91.96.394.22.844.33 1.35.33.434 0 .83-.093 1.19-.28.36-.187.653-.457.88-.81.234-.36.373-.78.42-1.26h-2.77v-.68h3.54v.84a3.5 3.5 0 01-.52 1.52 3.118 3.118 0 01-1.16 1.08c-.487.267-1.04.4-1.66.4-.68 0-1.28-.15-1.8-.45a3.241 3.241 0 01-1.22-1.27c-.287-.547-.43-1.17-.43-1.87 0-.7.143-1.32.43-1.86.293-.547.7-.973 1.22-1.28.52-.307 1.117-.46 1.79-.46zM86.543 8l-1.84-2.88h-.99V8h-.91V.95h2.32c.8 0 1.4.193 1.8.58.4.38.6.887.6 1.52 0 .573-.16 1.037-.48 1.39-.32.347-.783.563-1.39.65L87.573 8h-1.03zm-2.83-3.54h1.33c1.033 0 1.55-.453 1.55-1.36s-.517-1.36-1.55-1.36h-1.33v2.72zm6.03-2.77V4.1h2.68v.7h-2.68v2.46h2.98V8h-3.89V.95h3.89v.74h-2.98zm10.289 2.78c0 .713-.144 1.337-.43 1.87-.287.527-.71.937-1.27 1.23-.554.287-1.22.43-2 .43h-2.24V.95h2.24c.78 0 1.446.143 2 .43.56.28.983.687 1.27 1.22.286.527.43 1.15.43 1.87zm-3.77 2.71c.92 0 1.623-.237 2.11-.71.486-.473.73-1.14.73-2 0-.86-.244-1.527-.73-2-.48-.48-1.184-.72-2.11-.72h-1.26v5.43h1.26zm6.108-5.49V4.1h2.68v.7h-2.68v2.46h2.98V8h-3.89V.95h3.89v.74h-2.98zm8.338-.74v.74h-3.08v2.44h2.61v.71h-2.61V8h-.91V.95h3.99zm2.189 0V8h-.91V.95h.91zM120.04 8h-.91l-3.66-5.57V8h-.91V.95h.91l3.66 5.58V.95h.91V8zm2.573-6.31V4.1h2.68v.7h-2.68v2.46h2.98V8h-3.89V.95h3.89v.74h-2.98zm10.289 2.78c0 .713-.144 1.337-.43 1.87a2.98 2.98 0 01-1.27 1.23c-.554.287-1.22.43-2 .43h-2.24V.95h2.24c.78 0 1.446.143 2 .43.56.28.983.687 1.27 1.22.286.527.43 1.15.43 1.87zm-3.77 2.71c.92 0 1.623-.237 2.11-.71.486-.473.73-1.14.73-2 0-.86-.244-1.527-.73-2-.48-.48-1.184-.72-2.11-.72h-1.26v5.43h1.26z" fill="#fff"/></svg>