<svg width="118" height="16" viewBox="0 0 118 16" fill="none" xmlns="http://www.w3.org/2000/svg"><path d="M.412.996c.814 0 1.621-.003 2.422-.01C3.641.98 4.38.973 5.051.966A81.17 81.17 0 006.77.919c.475-.02.797-.046.966-.078l-.478 1.299a7.171 7.171 0 00-.752-.157c-.248-.039-.55-.074-.908-.107a11.191 11.191 0 00-1.787-.04c-.215.007-.424.017-.625.03l-.713.04v5.331c.67-.006 1.276-.026 1.816-.058.54-.033 1-.065 1.377-.098.443-.039.833-.085 1.172-.137L6.535 8.36c-.45-.058-.908-.114-1.377-.166a30.196 30.196 0 00-1.318-.117 16.71 16.71 0 00-1.367-.058v6.123c.768 0 1.474-.033 2.119-.098.644-.065 1.207-.14 1.69-.225.56-.09 1.07-.198 1.532-.322l-.283 1.582a9.289 9.289 0 00-.351-.02 145.034 145.034 0 00-1.133-.04c-.208.002-.407-.002-.596-.008-.189 0-.358-.003-.508-.01H.412v-.04c.04-.136.075-.305.108-.507.039-.202.071-.452.097-.752.026-.3.046-.654.059-1.064.013-.417.02-.902.02-1.455V4.824c0-.553-.007-1.035-.02-1.445a19.776 19.776 0 00-.059-1.074 7.445 7.445 0 00-.097-.762 4.493 4.493 0 00-.108-.508V.996zm15.03 7.881l-3.458 4.385c-.13.156-.257.319-.38.488a6.393 6.393 0 00-.332.479c-.098.156-.18.302-.245.439a.842.842 0 00-.087.332H9.045v-.04c.143-.123.345-.312.605-.566.267-.253.55-.572.85-.957l4.297-5.4-4.414-5.8a5.695 5.695 0 00-.713-.782c-.234-.215-.41-.355-.527-.42V.996h3.056c0 .078.01.18.03.303.026.124.071.27.136.44.065.162.153.344.264.546.117.202.267.42.45.654L15.9 6.641l3.116-3.897c.117-.143.23-.3.341-.469.118-.169.219-.332.303-.488.091-.163.163-.312.215-.45a.909.909 0 00.088-.34h1.894v.038a4.26 4.26 0 00-.214.186c-.079.071-.17.16-.274.263-.098.105-.208.228-.332.371-.124.144-.264.313-.42.508L16.545 7.5l4.55 5.957c.313.404.603.739.87 1.006.273.26.472.426.596.498V15h-3.038c0-.15-.061-.397-.185-.742s-.355-.746-.694-1.201l-3.203-4.18zM35.51 3.145l-.088.039a5.769 5.769 0 00-1.836-1.123c-.71-.28-1.49-.42-2.344-.42-.82 0-1.572.13-2.256.39a4.92 4.92 0 00-1.767 1.114 5.09 5.09 0 00-1.143 1.796c-.273.71-.41 1.517-.41 2.422 0 .996.13 1.927.39 2.793.261.86.648 1.605 1.163 2.237a5.463 5.463 0 001.924 1.494c.774.358 1.676.537 2.705.537.37 0 .742-.04 1.113-.117a5.342 5.342 0 001.064-.342c.345-.156.668-.342.967-.557.306-.221.583-.472.83-.752l.108.069-.782 1.992a8.18 8.18 0 01-1.62.43 10.13 10.13 0 01-1.778.156c-1.204 0-2.308-.173-3.31-.518-.997-.351-1.856-.846-2.579-1.484a6.78 6.78 0 01-1.68-2.295c-.396-.899-.595-1.895-.595-2.988 0-.619.078-1.228.234-1.827a7.386 7.386 0 01.703-1.709 6.903 6.903 0 011.133-1.484c.45-.456.96-.85 1.534-1.182a7.833 7.833 0 011.904-.771A8.598 8.598 0 0131.35.762c1.256 0 2.422.192 3.496.576l.664 1.807zm4.267 10.996c.769 0 1.475-.033 2.12-.098a23.63 23.63 0 001.689-.225c.56-.09 1.07-.198 1.533-.322l-.283 1.582a9.287 9.287 0 00-.352-.02 145.214 145.214 0 00-1.133-.04c-.208.002-.406-.002-.595-.008-.189 0-.358-.003-.508-.01h-4.531v-.04c.039-.136.075-.305.107-.507.04-.202.072-.452.098-.752.026-.3.045-.654.059-1.064.012-.417.019-.902.019-1.455V4.824c0-.553-.007-1.035-.02-1.445a19.898 19.898 0 00-.058-1.074 7.45 7.45 0 00-.098-.762 4.474 4.474 0 00-.107-.508V.996h2.343v.04a6.14 6.14 0 00-.117.507c-.032.202-.061.456-.087.762-.02.3-.04.657-.06 1.074-.012.41-.019.892-.019 1.445v9.317zm17.158-9.317c0-.553-.006-1.035-.019-1.445a19.694 19.694 0 00-.059-1.074c-.026-.306-.055-.56-.087-.762a4.474 4.474 0 00-.108-.508V.996H58.4v.04c-.039.136-.078.305-.117.507-.032.202-.062.456-.088.762-.02.3-.039.657-.058 1.074-.013.41-.02.892-.02 1.445v5.274c0 .93-.133 1.725-.4 2.382-.267.658-.638 1.198-1.114 1.622a4.36 4.36 0 01-1.709.908 7.693 7.693 0 01-2.177.293 8.54 8.54 0 01-2.207-.274 4.843 4.843 0 01-1.778-.879 4.217 4.217 0 01-1.181-1.582c-.287-.65-.43-1.442-.43-2.373v-5.37c0-.554-.006-1.036-.02-1.446a19.898 19.898 0 00-.058-1.074 7.45 7.45 0 00-.098-.762 4.474 4.474 0 00-.107-.508V.996h2.344v.04a6.14 6.14 0 00-.117.507c-.033.202-.062.456-.088.762-.026.3-.046.657-.059 1.074-.013.41-.02.892-.02 1.445v5.479c0 .774.114 1.416.342 1.924.235.5.54.901.918 1.2a3.38 3.38 0 001.29.616c.481.117.973.176 1.474.176s.993-.059 1.475-.176a3.293 3.293 0 001.279-.615c.377-.3.68-.7.908-1.201.234-.508.351-1.15.351-1.924V4.824zm10.02-1.601h-.215a2.62 2.62 0 00-.254-.508 2.105 2.105 0 00-.449-.527 2.239 2.239 0 00-.674-.42c-.26-.111-.57-.166-.927-.166a2.3 2.3 0 00-.85.146 1.742 1.742 0 00-.625.41 1.774 1.774 0 00-.371.625c-.085.241-.127.508-.127.801 0 .469.13.918.39 1.348.267.423.6.843.997 1.26.397.416.826.833 1.289 1.25.462.416.892.849 1.289 1.298.397.45.726.921.986 1.416.267.489.4 1.016.4 1.582 0 .424-.074.85-.224 1.28a3.236 3.236 0 01-.674 1.142 3.47 3.47 0 01-1.182.83c-.481.209-1.054.313-1.718.313-.372 0-.726-.036-1.065-.108a7.132 7.132 0 01-.928-.244 7.035 7.035 0 01-.761-.332 5.848 5.848 0 01-.547-.322l.224-2.158h.245c.071.306.188.599.351.879.163.273.362.517.596.732.24.208.514.378.82.508a2.66 2.66 0 001.006.185c.332 0 .628-.048.889-.146.267-.104.495-.244.683-.42.19-.182.332-.397.43-.645.104-.247.156-.517.156-.81 0-.41-.075-.788-.224-1.133a4.34 4.34 0 00-.596-.996 7.65 7.65 0 00-.83-.908 41.747 41.747 0 00-.947-.88c-.326-.299-.645-.605-.958-.917a8.024 8.024 0 01-.83-.996 5.415 5.415 0 01-.585-1.143c-.15-.41-.225-.86-.225-1.347 0-.515.098-.977.293-1.387a3.42 3.42 0 01.79-1.065 3.642 3.642 0 012.412-.908c.326 0 .626.026.9.078.273.052.517.114.732.186.221.071.413.143.576.215l.4.175-.068 1.827zm3.35 11.738c.039-.137.075-.306.107-.508.033-.202.062-.452.088-.752.026-.3.046-.654.059-1.064.013-.417.02-.902.02-1.455V4.824c0-.553-.007-1.035-.02-1.445a19.796 19.796 0 00-.059-1.074c-.026-.306-.055-.56-.088-.762a4.474 4.474 0 00-.107-.508V.996h2.334v.04c-.04.136-.078.305-.117.507-.033.202-.062.456-.088.762-.02.3-.04.657-.059 1.074-.013.41-.02.892-.02 1.445v6.358c0 .553.007 1.038.02 1.455.02.41.04.765.059 1.064.026.3.055.55.088.752.038.202.078.371.117.508V15h-2.334v-.04zM76.408.996v.04a.572.572 0 00-.03.146c-.006.065-.009.123-.009.175 0 .202.026.427.078.674.059.241.166.544.322.908l4.327 9.756 4.18-9.677c.097-.241.201-.505.312-.791.11-.287.166-.577.166-.87a.823.823 0 00-.059-.322V.996h2.002v.04c-.123.123-.273.344-.449.663-.176.32-.368.713-.576 1.182l-5.596 12.422h-.781L74.992 3.359c-.124-.28-.254-.55-.39-.81-.13-.26-.254-.495-.371-.703a9.492 9.492 0 00-.313-.537 3.37 3.37 0 00-.186-.274V.996h2.676zm12.373 13.965c.04-.137.075-.306.108-.508.032-.202.062-.452.088-.752.026-.3.045-.654.058-1.064.013-.417.02-.902.02-1.455V4.824c0-.553-.007-1.035-.02-1.445a19.898 19.898 0 00-.058-1.074c-.026-.306-.056-.56-.088-.762a4.493 4.493 0 00-.108-.508V.996h2.334v.04a6.176 6.176 0 00-.117.507c-.032.202-.062.456-.088.762-.02.3-.039.657-.058 1.074-.014.41-.02.892-.02 1.445v6.358c0 .553.007 1.038.02 1.455.02.41.039.765.058 1.064.026.3.056.55.088.752.04.202.078.371.117.508V15h-2.334v-.04zm8.906-13.106c-.768 0-1.461.036-2.08.108-.618.065-1.152.137-1.601.215-.521.097-.987.205-1.397.322l.284-1.582c.078.006.195.013.351.02a72.815 72.815 0 001.123.039c.215 0 .417.003.606.01.189 0 .355.003.498.01H101.682c.149-.007.319-.01.507-.01.189-.007.388-.01.596-.01a145.985 145.985 0 001.133-.04c.156-.006.273-.013.352-.019l.283 1.582a16.402 16.402 0 00-1.407-.322c-.449-.078-.983-.15-1.601-.215a18.224 18.224 0 00-2.08-.108v9.327c0 .553.006 1.038.02 1.455.019.41.038.765.058 1.064.026.3.055.55.088.752.039.202.078.371.117.508V15h-2.334v-.04c.04-.136.075-.305.108-.507.032-.202.061-.452.087-.752.026-.3.046-.654.059-1.064.013-.417.02-.902.02-1.455V1.855zm13.975 6.426v2.9c0 .554.007 1.04.02 1.456.013.41.032.765.058 1.064.026.3.056.55.088.752.039.202.078.371.117.508V15h-2.343v-.04c.039-.136.074-.305.107-.507a6.27 6.27 0 00.088-.752c.026-.3.045-.654.058-1.064.02-.417.03-.902.03-1.455V8.477l-4.365-5.938c-.15-.202-.3-.387-.45-.557a5.568 5.568 0 00-.41-.439 4.71 4.71 0 00-.351-.322 3.59 3.59 0 00-.245-.186V.996h2.959c0 .15.062.397.186.742.13.339.361.74.693 1.201l3.203 4.385 3.135-4.58c.111-.163.222-.329.332-.498.111-.17.212-.332.303-.488.091-.156.163-.3.215-.43a.851.851 0 00.088-.332h1.904v.04c-.143.123-.335.308-.576.556-.241.24-.501.563-.781.967l-4.063 5.722z" fill="#fff"/></svg>