<svg width="85" height="16" viewBox="0 0 85 16" fill="none" xmlns="http://www.w3.org/2000/svg"><path d="M2.4 14.14c.769 0 1.475-.032 2.12-.097.644-.065 1.207-.14 1.689-.225.56-.09 1.071-.198 1.533-.322l-.283 1.582a9.288 9.288 0 00-.352-.02 145.041 145.041 0 00-1.133-.04c-.208.002-.406-.002-.595-.008-.189 0-.358-.003-.508-.01H.34v-.04c.04-.136.076-.305.108-.507.04-.202.072-.452.098-.752.026-.3.045-.654.059-1.064.013-.417.019-.902.019-1.455V4.824c0-.553-.006-1.035-.02-1.445a19.775 19.775 0 00-.058-1.074 7.445 7.445 0 00-.098-.762 4.493 4.493 0 00-.107-.508V.996h2.344v.04c-.04.136-.079.305-.118.507-.032.202-.061.456-.087.762-.02.3-.04.657-.06 1.074-.012.41-.019.892-.019 1.445v9.317zm7.227.82c.039-.136.075-.305.107-.507.033-.202.062-.452.088-.752.026-.3.046-.654.059-1.064.013-.417.02-.902.02-1.455V4.824c0-.553-.007-1.035-.02-1.445a19.777 19.777 0 00-.059-1.074c-.026-.306-.055-.56-.088-.762a4.493 4.493 0 00-.107-.508V.996h2.334v.04a6.14 6.14 0 00-.117.507c-.033.202-.062.456-.088.762-.02.3-.04.657-.059 1.074-.013.41-.02.892-.02 1.445v6.358c0 .553.007 1.038.02 1.455.02.41.04.765.059 1.064.026.3.055.55.088.752.039.202.078.371.117.508V15H9.627v-.04zm7.285-3.778c0 .553.007 1.038.02 1.455.02.41.039.765.058 1.064.026.3.056.55.088.752.04.202.078.371.117.508V15h-2.343v-.04c.039-.136.074-.305.107-.507.039-.202.072-.452.098-.752.026-.3.045-.654.058-1.064.013-.417.02-.902.02-1.455V4.824c0-.553-.007-1.035-.02-1.445a19.694 19.694 0 00-.058-1.074 7.453 7.453 0 00-.098-.762 4.518 4.518 0 00-.107-.508V.996h1.64c.554-.006 1.09-.01 1.611-.01.521-.006 1.016-.013 1.485-.02.469-.012.892-.022 1.27-.028.377-.014.696-.027.956-.04a6.4 6.4 0 00.557-.058l-.478 1.299a7.173 7.173 0 00-.752-.157 14.21 14.21 0 00-.909-.107 11.19 11.19 0 00-1.806-.04c-.235.007-.466.017-.694.03l-.82.04v4.93c.67-.006 1.286-.025 1.846-.058.56-.032 1.041-.065 1.445-.097.469-.04.892-.085 1.27-.137l-.293 1.416a93.96 93.96 0 00-1.485-.166 34.94 34.94 0 00-1.386-.117c-.495-.04-.96-.059-1.397-.059v3.565zM24.168.996c.814 0 1.621-.003 2.422-.01.807-.006 1.546-.013 2.217-.02.67-.012 1.243-.028 1.718-.048.476-.02.798-.046.967-.078l-.478 1.299a7.173 7.173 0 00-.752-.157 14.21 14.21 0 00-.909-.107 11.19 11.19 0 00-1.787-.04c-.214.007-.423.017-.625.03l-.712.04v5.331a36.31 36.31 0 001.816-.058c.54-.033 1-.065 1.377-.098.443-.039.833-.085 1.172-.137L30.29 8.36a72.79 72.79 0 00-1.377-.166 30.2 30.2 0 00-1.318-.117c-.476-.039-.931-.058-1.367-.058v6.123c.768 0 1.474-.033 2.119-.098.644-.065 1.207-.14 1.69-.225.559-.09 1.07-.198 1.532-.322l-.283 1.582a9.282 9.282 0 00-.351-.02 144.729 144.729 0 00-1.133-.04c-.209.002-.407-.002-.596-.008-.189 0-.358-.003-.508-.01H24.168v-.04c.039-.136.075-.305.107-.507.04-.202.072-.452.098-.752.026-.3.046-.654.059-1.064.013-.417.02-.902.02-1.455V4.824c0-.553-.007-1.035-.02-1.445a19.694 19.694 0 00-.059-1.074 7.425 7.425 0 00-.098-.762 4.518 4.518 0 00-.107-.508V.996zm15.645 2.227h-.215a2.631 2.631 0 00-.254-.508 2.108 2.108 0 00-.45-.527 2.239 2.239 0 00-.673-.42c-.26-.111-.57-.166-.928-.166a2.3 2.3 0 00-.85.146 1.74 1.74 0 00-.625.41 1.771 1.771 0 00-.37.625c-.085.241-.128.508-.128.801 0 .469.13.918.39 1.348.268.423.6.843.997 1.26.397.416.827.833 1.29 1.25.461.416.891.849 1.288 1.298.397.45.726.921.987 1.416.266.489.4 1.016.4 1.582 0 .424-.075.85-.225 1.28a3.237 3.237 0 01-.674 1.142 3.47 3.47 0 01-1.181.83c-.482.209-1.055.313-1.719.313-.371 0-.726-.036-1.064-.108a7.13 7.13 0 01-.928-.244 7.028 7.028 0 01-.762-.332 5.832 5.832 0 01-.547-.322l.225-2.158h.244c.072.306.189.599.352.879.162.273.36.517.595.732a3.1 3.1 0 00.82.508 2.66 2.66 0 001.007.185c.332 0 .628-.048.888-.146.267-.104.495-.244.684-.42.188-.182.332-.397.43-.645.104-.247.156-.517.156-.81 0-.41-.075-.788-.225-1.133a4.34 4.34 0 00-.596-.996 7.64 7.64 0 00-.83-.908 41.968 41.968 0 00-.947-.88c-.325-.299-.645-.605-.957-.917a8.016 8.016 0 01-.83-.996 5.41 5.41 0 01-.586-1.143c-.15-.41-.225-.86-.225-1.347 0-.515.098-.977.293-1.387a3.42 3.42 0 01.791-1.065 3.642 3.642 0 012.412-.908c.326 0 .625.026.899.078.273.052.518.114.732.186.222.071.414.143.576.215l.4.175-.068 1.827zm6.943-1.368c-.768 0-1.462.036-2.08.108a24.44 24.44 0 00-1.602.215c-.52.097-.986.205-1.396.322L41.96.918c.078.006.195.013.352.02a72.815 72.815 0 001.122.039c.215 0 .417.003.606.01.189 0 .355.003.498.01h6.211c.15-.007.319-.01.508-.01.189-.007.387-.01.595-.01a145.066 145.066 0 001.133-.04c.157-.006.274-.013.352-.019L53.62 2.5a16.364 16.364 0 00-1.406-.322c-.45-.078-.983-.15-1.602-.215a18.216 18.216 0 00-2.08-.108v9.327c0 .553.007 1.038.02 1.455.02.41.039.765.058 1.064.026.3.056.55.088.752.04.202.078.371.117.508V15h-2.334v-.04c.04-.136.075-.305.108-.507.032-.202.062-.452.088-.752.026-.3.045-.654.058-1.064.013-.417.02-.902.02-1.455V1.855zM60.73 8.281v2.9c0 .554.007 1.04.02 1.456.013.41.033.765.059 1.064.026.3.055.55.088.752.038.202.078.371.117.508V15H58.67v-.04c.039-.136.075-.305.107-.507.04-.202.069-.452.088-.752.026-.3.046-.654.059-1.064.02-.417.03-.902.03-1.455V8.477l-4.366-5.938a8.34 8.34 0 00-.45-.557 5.586 5.586 0 00-.41-.439 4.726 4.726 0 00-.351-.322 3.518 3.518 0 00-.244-.186V.996h2.959c0 .15.062.397.185.742.13.339.362.74.694 1.201l3.203 4.385 3.135-4.58c.11-.163.22-.329.332-.498.11-.17.211-.332.302-.488a3.3 3.3 0 00.215-.43.84.84 0 00.088-.332h1.904v.04a9.93 9.93 0 00-.576.556 7.11 7.11 0 00-.781.967L60.73 8.28zm8.78 5.86c.768 0 1.474-.033 2.119-.098.644-.065 1.208-.14 1.69-.225.56-.09 1.07-.198 1.533-.322l-.284 1.582a9.307 9.307 0 00-.351-.02 145.286 145.286 0 00-1.133-.04c-.208.002-.407-.002-.596-.008-.189 0-.358-.003-.507-.01h-4.532v-.04c.04-.136.075-.305.108-.507a7.43 7.43 0 00.097-.752c.026-.3.046-.654.059-1.064.013-.417.02-.902.02-1.455V4.824c0-.553-.007-1.035-.02-1.445a19.796 19.796 0 00-.059-1.074 7.421 7.421 0 00-.097-.762 4.474 4.474 0 00-.108-.508V.996h2.344v.04c-.04.136-.078.305-.117.507-.033.202-.062.456-.088.762-.02.3-.04.657-.059 1.074-.013.41-.02.892-.02 1.445v9.317zM76.648.996c.814 0 1.621-.003 2.422-.01.808-.006 1.547-.013 2.217-.02.67-.012 1.244-.028 1.719-.048.475-.02.797-.046.967-.078l-.479 1.299a7.17 7.17 0 00-.752-.157 14.21 14.21 0 00-.908-.107 11.192 11.192 0 00-1.787-.04c-.215.007-.423.017-.625.03l-.713.04v5.331c.67-.006 1.276-.026 1.816-.058.54-.033 1-.065 1.377-.098.443-.039.834-.085 1.172-.137l-.302 1.416c-.45-.058-.909-.114-1.378-.166a30.195 30.195 0 00-1.318-.117c-.475-.039-.93-.058-1.367-.058v6.123c.768 0 1.475-.033 2.12-.098.644-.065 1.207-.14 1.689-.225.56-.09 1.07-.198 1.533-.322l-.283 1.582a9.282 9.282 0 00-.352-.02 145.286 145.286 0 00-1.133-.04c-.208.002-.407-.002-.596-.008-.188 0-.358-.003-.507-.01h-4.532v-.04c.04-.136.075-.305.108-.507.039-.202.072-.452.097-.752.027-.3.046-.654.06-1.064.012-.417.019-.902.019-1.455V4.824c0-.553-.007-1.035-.02-1.445a19.694 19.694 0 00-.059-1.074 7.453 7.453 0 00-.097-.762 4.493 4.493 0 00-.108-.508V.996z" fill="#fff"/></svg>