<svg width="94" height="16" viewBox="0 0 94 16" fill="none" xmlns="http://www.w3.org/2000/svg"><path d="M.623.996c.814 0 1.621-.003 2.422-.01C3.852.98 4.59.973 5.262.966A81.17 81.17 0 006.98.919c.476-.02.798-.046.967-.078L7.47 2.139a7.171 7.171 0 00-.752-.157c-.248-.039-.55-.074-.908-.107a11.191 11.191 0 00-1.788-.04c-.214.007-.423.017-.625.03l-.712.04v5.331c.67-.006 1.276-.026 1.816-.058.54-.033 1-.065 1.377-.098.443-.039.833-.085 1.172-.137L6.746 8.36c-.45-.058-.908-.114-1.377-.166a30.197 30.197 0 00-1.318-.117 16.71 16.71 0 00-1.367-.058v6.123c.768 0 1.474-.033 2.119-.098.644-.065 1.207-.14 1.69-.225.56-.09 1.07-.198 1.532-.322l-.283 1.582a9.288 9.288 0 00-.351-.02 144.985 144.985 0 00-1.133-.04c-.209.002-.407-.002-.596-.008-.189 0-.358-.003-.508-.01H.623v-.04c.04-.136.075-.305.107-.507.04-.202.072-.452.098-.752.026-.3.046-.654.059-1.064.013-.417.02-.902.02-1.455V4.824C.906 4.271.9 3.79.886 3.38a19.775 19.775 0 00-.059-1.074 7.445 7.445 0 00-.098-.762 4.493 4.493 0 00-.107-.508V.996zm11.865 13.145c.769 0 1.475-.033 2.12-.098.644-.065 1.207-.14 1.689-.225.56-.09 1.07-.198 1.533-.322l-.283 1.582a9.282 9.282 0 00-.352-.02 145.286 145.286 0 00-1.133-.04c-.208.002-.406-.002-.595-.008-.189 0-.358-.003-.508-.01h-4.531v-.04c.039-.136.075-.305.107-.507.04-.202.072-.452.098-.752.026-.3.045-.654.058-1.064.013-.417.02-.902.02-1.455V4.824c0-.553-.007-1.035-.02-1.445a19.694 19.694 0 00-.058-1.074 7.453 7.453 0 00-.098-.762 4.493 4.493 0 00-.107-.508V.996h2.343v.04c-.039.136-.078.305-.117.507-.032.202-.062.456-.088.762-.02.3-.039.657-.058 1.074-.013.41-.02.892-.02 1.445v9.317zM19.627.996c.814 0 1.621-.003 2.422-.01.807-.006 1.546-.013 2.217-.02.67-.012 1.243-.028 1.718-.048.476-.02.798-.046.967-.078l-.478 1.299a7.173 7.173 0 00-.752-.157 14.21 14.21 0 00-.909-.107 11.192 11.192 0 00-1.787-.04c-.214.007-.423.017-.625.03l-.712.04v5.331c.67-.006 1.276-.026 1.816-.058.54-.033 1-.065 1.377-.098.443-.039.833-.085 1.172-.137L25.75 8.36c-.45-.058-.908-.114-1.377-.166a30.195 30.195 0 00-1.318-.117c-.476-.039-.931-.058-1.367-.058v6.123c.768 0 1.474-.033 2.119-.098.644-.065 1.207-.14 1.69-.225.559-.09 1.07-.198 1.532-.322l-.283 1.582a9.282 9.282 0 00-.351-.02 144.729 144.729 0 00-1.133-.04c-.209.002-.407-.002-.596-.008-.189 0-.358-.003-.508-.01H19.627v-.04c.039-.136.075-.305.107-.507.04-.202.072-.452.098-.752.026-.3.046-.654.059-1.064.013-.417.02-.902.02-1.455V4.824c0-.553-.007-1.035-.02-1.445a19.694 19.694 0 00-.059-1.074 7.453 7.453 0 00-.098-.762 4.518 4.518 0 00-.107-.508V.996zM41.756 13.36c0 .072-.01.147-.03.225a.326.326 0 01-.107.195 7.76 7.76 0 01-.957.616 7.41 7.41 0 01-2.392.79 8.727 8.727 0 01-1.475.118c-1.185 0-2.266-.173-3.242-.518-.977-.351-1.817-.846-2.52-1.484a6.625 6.625 0 01-1.62-2.295c-.385-.899-.577-1.895-.577-2.988 0-.619.078-1.228.234-1.827a7.386 7.386 0 01.703-1.709 6.903 6.903 0 011.133-1.484c.45-.456.96-.85 1.534-1.182a7.833 7.833 0 011.904-.771A8.598 8.598 0 0136.6.762c.312 0 .631.016.957.049.325.026.647.068.966.126.32.053.625.118.918.196.3.078.583.166.85.263l.664 1.807-.078.04a5.442 5.442 0 00-.879-.636 6.968 6.968 0 00-2.256-.84 6.169 6.169 0 00-1.25-.126c-.82 0-1.572.13-2.256.39a4.92 4.92 0 00-1.767 1.114 5.09 5.09 0 00-1.143 1.796c-.273.71-.41 1.517-.41 2.422 0 .996.13 1.92.39 2.774.261.853.648 1.591 1.163 2.216a5.413 5.413 0 001.924 1.475c.774.352 1.676.527 2.705.527.455 0 .862-.035 1.22-.107s.661-.16.909-.264c.247-.11.433-.227.556-.351.13-.13.195-.248.195-.352v-.38c0-.456-.006-.85-.019-1.182a12.824 12.824 0 00-.059-.86 8.366 8.366 0 00-.087-.634 4.487 4.487 0 00-.118-.489v-.039h2.344v.04c-.039.136-.078.299-.117.488-.033.182-.062.4-.088.654-.026.254-.046.553-.059.898-.013.339-.02.733-.02 1.182v.4zM54.158 15v-.04a.57.57 0 00.03-.146c.006-.065.01-.123.01-.175 0-.202-.03-.423-.089-.664a5.105 5.105 0 00-.312-.918L52.615 10.4c-.364-.013-.85-.02-1.455-.02h-3.457c-.475 0-.905.007-1.289.02l-1.123 2.579c-.098.24-.202.504-.313.79-.11.287-.166.577-.166.87 0 .084.007.156.02.215a.38.38 0 00.04.107V15h-1.993v-.04c.117-.123.264-.34.44-.653.175-.32.367-.716.575-1.192L49.49.703h.782l5.302 11.934c.124.28.25.553.381.82.137.26.264.495.38.703.118.208.222.384.313.527.092.144.153.235.186.274V15h-2.676zM47.83 9.541h1.162c.397-.006.785-.01 1.162-.01.384-.006.752-.01 1.104-.01.351-.006.67-.013.957-.02l-2.744-6.2-2.696 6.24h1.055zM58.592.996L68.65 11.7V4.824c0-.553-.006-1.035-.02-1.445a19.898 19.898 0 00-.058-1.074 7.45 7.45 0 00-.097-.762 4.496 4.496 0 00-.108-.508V.996h1.739v.04c-.04.136-.075.305-.108.507-.032.202-.062.456-.088.762-.026.3-.045.657-.058 1.074-.014.41-.02.892-.02 1.445v10.371h-.342L59.432 4.502v6.68c0 .553.006 1.038.02 1.455.012.41.032.765.058 1.064.026.3.055.55.088.752.032.202.068.371.107.508V15h-1.738v-.04c.039-.136.075-.305.107-.507.04-.202.072-.452.098-.752.026-.3.045-.654.059-1.064.012-.417.019-.902.019-1.455V4.824c0-.553-.007-1.035-.02-1.445a19.898 19.898 0 00-.058-1.074 7.45 7.45 0 00-.098-.762 4.474 4.474 0 00-.107-.508V.996h.625zm25.566 2.149l-.088.039a5.77 5.77 0 00-1.836-1.123c-.71-.28-1.49-.42-2.343-.42-.82 0-1.573.13-2.256.39a4.921 4.921 0 00-1.768 1.114 5.09 5.09 0 00-1.142 1.796c-.274.71-.41 1.517-.41 2.422 0 .996.13 1.927.39 2.793.26.86.648 1.605 1.162 2.237a5.464 5.464 0 001.924 1.494c.775.358 1.676.537 2.705.537.371 0 .742-.04 1.113-.117a5.34 5.34 0 001.065-.342c.345-.156.667-.342.967-.557.306-.221.582-.472.83-.752l.107.069-.781 1.992a8.183 8.183 0 01-1.621.43c-.586.104-1.179.156-1.778.156-1.204 0-2.307-.173-3.31-.518-.996-.351-1.856-.846-2.578-1.484a6.778 6.778 0 01-1.68-2.295c-.397-.899-.596-1.895-.596-2.988 0-.619.079-1.228.235-1.827a7.382 7.382 0 01.703-1.709 6.903 6.903 0 011.133-1.484c.449-.456.96-.85 1.533-1.182a7.834 7.834 0 011.904-.771 8.598 8.598 0 012.256-.283c1.257 0 2.422.192 3.496.576l.664 1.807zM86.365.996c.814 0 1.621-.003 2.422-.01.807-.006 1.546-.013 2.217-.02.67-.012 1.243-.028 1.719-.048.475-.02.797-.046.966-.078l-.478 1.299a7.17 7.17 0 00-.752-.157 14.21 14.21 0 00-.908-.107 11.192 11.192 0 00-1.787-.04c-.215.007-.423.017-.625.03l-.713.04v5.331c.67-.006 1.276-.026 1.816-.058.54-.033 1-.065 1.377-.098.443-.039.834-.085 1.172-.137l-.303 1.416c-.449-.058-.908-.114-1.377-.166a30.195 30.195 0 00-1.318-.117c-.475-.039-.931-.058-1.367-.058v6.123c.768 0 1.474-.033 2.119-.098.644-.065 1.208-.14 1.69-.225.56-.09 1.07-.198 1.533-.322l-.284 1.582a9.295 9.295 0 00-.351-.02 145.286 145.286 0 00-1.133-.04c-.208.002-.407-.002-.596-.008-.188 0-.358-.003-.507-.01h-4.532v-.04c.04-.136.075-.305.108-.507.039-.202.071-.452.097-.752.026-.3.046-.654.059-1.064.013-.417.02-.902.02-1.455V4.824c0-.553-.007-1.035-.02-1.445a19.694 19.694 0 00-.059-1.074 7.453 7.453 0 00-.097-.762 4.493 4.493 0 00-.108-.508V.996z" fill="#fff"/></svg>