<?xml version="1.0" encoding="UTF-8"?>
<svg id="Layer_1" data-name="Layer 1" xmlns="http://www.w3.org/2000/svg" viewBox="0 0 697.69 105.45">
  <defs>
    <style>
      .cls-1 {
        fill: #ff8c00;
      }

      .cls-2 {
        fill: #ff4e00;
      }

      .cls-3 {
        fill: #fff;
      }
    </style>
  </defs>
  <path class="cls-3" d="M93.35,30.8L56.6,2.55c-4.43-3.4-10.6-3.4-15.03,0L4.82,30.8c-3.02,2.32-4.82,5.97-4.82,9.78v39.98c0,3.83,1.51,7.42,4.24,10.12,2.72,2.69,6.33,4.17,10.17,4.17h10.68s-5.99-7.16-7.14-9h-3.54c-1.43,0-2.83-.57-3.84-1.57-1.01-1-1.57-2.32-1.57-3.72v-39.98c0-1.03.49-2.01,1.3-2.64h0S47.06,9.69,47.06,9.69c1.19-.92,2.86-.92,4.06,0l36.75,28.25c.81.63,1.3,1.61,1.3,2.64v39.98c0,1.48-.52,2.8-1.45,3.72-.99.98-2.47,1.57-3.96,1.57h-3.54c-1.16,1.84-7.14,9-7.14,9h10.68c3.86,0,7.61-1.52,10.28-4.17,2.66-2.63,4.12-6.22,4.12-10.12v-39.98c0-3.8-1.8-7.46-4.82-9.78Z"/>
  <g>
    <path class="cls-2" d="M49.09,31.94s0,0,0,0c-7.34,0-14.69,2.64-20.49,7.91-12.7,11.54-13.25,30.8-1.84,43.56l16.53,19.36c1.52,1.78,3.66,2.67,5.8,2.67s4.28-.89,5.8-2.67l16.53-19.36c11.41-12.76,10.86-32.02-1.84-43.56-5.8-5.27-13.14-7.91-20.49-7.91h0ZM61.57,60.3c.6,6.84-4.39,12.92-11.21,13.6-.43.04-.86.06-1.28.06-6.39,0-11.85-4.84-12.47-11.36-.64-6.78,4.22-13,11.27-13.68h0c.42-.04.83-.06,1.24-.06,6.52,0,11.88,5,12.45,11.43Z"/>
    <polygon class="cls-1" points="49.09 29.56 49.09 31.94 49.09 31.94 49.09 29.56 49.09 29.56"/>
  </g>
  <g>
    <path class="cls-3" d="M123.27,37.04h10.51v18.99h20.8v-18.99h10.51v48.65h-10.51v-20.65h-20.8v20.65h-10.51v-48.65Z"/>
    <path class="cls-3" d="M172.66,66.92c0-10.89,8.86-19.52,20.04-19.52s20.12,8.63,20.12,19.52-8.86,19.52-20.12,19.52-20.04-8.63-20.04-19.52ZM202.54,66.92c0-5.86-4.2-10.21-9.83-10.21s-9.83,4.35-9.83,10.21,4.2,10.21,9.83,10.21,9.83-4.28,9.83-10.21Z"/>
    <path class="cls-3" d="M219.35,48.15h9.83v5.03c2.18-3.38,6.61-5.78,11.11-5.78,5.93,0,9.61,2.48,11.56,6.68,2.7-4.5,7.88-6.68,12.16-6.68,10.59,0,13.89,7.28,13.89,16.89v21.4h-10.06v-20.12c0-4.96-1.2-8.63-6.53-8.63-4.96,0-7.66,3.98-7.66,8.93v19.82h-10.06v-20.12c0-4.96-1.13-8.63-6.53-8.63-5.1,0-7.66,4.35-7.66,9.31v19.44h-10.06v-37.54Z"/>
    <path class="cls-3" d="M283.91,66.92c0-10.81,8.41-19.52,19.44-19.52,10.21,0,18.24,8.71,18.24,19.37,0,1.8-.23,3.6-.23,3.6h-27.25c1.2,5.18,5.48,7.66,10.44,7.66,3.6,0,7.36-1.05,10.13-2.93l3.75,7.21c-4.2,2.78-9.08,4.13-13.96,4.13-10.96,0-20.57-7.13-20.57-19.52ZM312.14,63.69c-.75-4.73-4.5-7.88-9.08-7.88s-8.11,3.15-9.08,7.88h18.17Z"/>
    <path class="cls-2" d="M346.3,37.04h10.36l21.17,48.65h-10.66l-3.3-7.73h-24.7l-3.3,7.73h-10.74l21.17-48.65ZM360.56,69.77l-5.63-13.89c-1.5-3.68-3.38-8.56-3.45-8.71-.08.15-1.95,5.03-3.45,8.71l-5.63,13.89h18.17Z"/>
    <path class="cls-2" d="M382.4,36.29h10.06v49.4h-10.06v-49.4Z"/>
    <path class="cls-2" d="M398.99,66.92c0-10.81,8.41-19.52,19.44-19.52,10.21,0,18.24,8.71,18.24,19.37,0,1.8-.23,3.6-.23,3.6h-27.25c1.2,5.18,5.48,7.66,10.44,7.66,3.6,0,7.36-1.05,10.14-2.93l3.75,7.21c-4.2,2.78-9.08,4.13-13.96,4.13-10.96,0-20.57-7.13-20.57-19.52ZM427.22,63.69c-.75-4.73-4.5-7.88-9.08-7.88s-8.11,3.15-9.08,7.88h18.17Z"/>
    <path class="cls-2" d="M443.28,48.15h9.91v7.21c1.05-3.08,4.88-7.96,13.14-7.96v10.96c-8.71,0-12.99,3.98-12.99,12.91v14.41h-10.06v-37.54Z"/>
    <path class="cls-2" d="M475.86,73.6v-17.34h-5.48v-8.11h5.48v-7.21l10.06-2.25v9.46h10.36v8.11h-10.36v17.19c0,3.23,1.58,4.28,3.38,4.28,2.4,0,4.5-1.35,4.8-1.58l2.85,7.43c-2.25,1.5-5.56,2.85-9.53,2.85-7.51,0-11.56-4.35-11.56-12.84Z"/>
    <path class="cls-2" d="M499.95,81.33l3.6-7.73c2.55,1.95,6.08,3.98,11.71,3.98,2.33,0,6.16-.9,6.16-3.15s-3.23-2.78-6.46-3.68c-7.43-1.95-13.51-4.43-13.51-11.64,0-7.66,7.51-11.71,14.56-11.71,6.16,0,10.06,1.5,13.96,3.75l-3.38,7.51c-3.68-1.8-7.13-2.63-10.44-2.63-2.33,0-4.5,1.05-4.5,2.63,0,2.1,3.15,2.78,6.61,3.53,6.38,1.5,13.36,4.28,13.36,11.94,0,9.23-9.38,12.31-16.37,12.31-8.03,0-13.21-3.15-15.31-5.11Z"/>
    <path class="cls-2" d="M537.34,80.58c0-3.38,2.63-5.93,5.93-5.93s6.01,2.55,6.01,5.93-2.63,5.86-6.01,5.86-5.93-2.63-5.93-5.86Z"/>
    <path class="cls-2" d="M555.5,66.92c0-10.89,8.86-19.52,20.04-19.52,5.18,0,9.68,1.73,13.44,4.8l-6.08,7.06c-1.73-1.58-4.13-2.55-7.13-2.55-5.86,0-10.06,4.28-10.06,10.21s3.98,10.21,10.36,10.21c3.15,0,6.23-1.2,8.18-3.08l5.33,7.51c-3.6,3.08-8.63,4.88-14.04,4.88-11.19,0-20.04-8.63-20.04-19.52Z"/>
    <path class="cls-2" d="M592.44,66.92c0-10.89,8.86-19.52,20.04-19.52s20.12,8.63,20.12,19.52-8.86,19.52-20.12,19.52-20.04-8.63-20.04-19.52ZM622.32,66.92c0-5.86-4.2-10.21-9.83-10.21s-9.83,4.35-9.83,10.21,4.2,10.21,9.83,10.21,9.83-4.28,9.83-10.21Z"/>
    <path class="cls-2" d="M639.13,48.15h9.83v5.03c2.18-3.38,6.61-5.78,11.11-5.78,5.93,0,9.61,2.48,11.56,6.68,2.7-4.5,7.88-6.68,12.16-6.68,10.58,0,13.89,7.28,13.89,16.89v21.4h-10.06v-20.12c0-4.96-1.2-8.63-6.53-8.63-4.95,0-7.66,3.98-7.66,8.93v19.82h-10.06v-20.12c0-4.96-1.13-8.63-6.53-8.63-5.11,0-7.66,4.35-7.66,9.31v19.44h-10.06v-37.54Z"/>
  </g>
</svg>