<?xml version="1.0" encoding="UTF-8"?>
<svg id="Layer_1" data-name="Layer 1" xmlns="http://www.w3.org/2000/svg" viewBox="0 0 765.98 114.17">
  <defs>
    <style>
      .cls-1 {
        fill: #004fff;
      }

      .cls-2 {
        fill: #fff;
      }

      .cls-3 {
        fill: #00c9ff;
      }

      .cls-4 {
        fill: #0c214c;
      }
    </style>
  </defs>
  <g>
    <path class="cls-4" d="M181.83,42.83l-11.55,34.87h-9.07l-11.62-34.87-.42,35.51h-8.15l1.49-44.3h11.98l11.41,34.87,11.41-34.87h11.84l1.42,44.3h-8.36l-.35-35.51Z"/>
    <path class="cls-4" d="M213.58,79.41c-9.57,0-16.51-6.52-16.51-17.37s7.3-17.51,16.94-17.51,16.51,6.66,16.51,17.44-7.37,17.44-16.94,17.44ZM213.72,51.27c-5.46,0-8.43,4.39-8.43,10.7s3.12,10.63,8.58,10.63,8.36-4.25,8.36-10.56-3.12-10.77-8.5-10.77Z"/>
    <path class="cls-4" d="M245.9,78.34h-8.36v-32.46l8.36-1.21v5.32c2.05-3.47,4.68-5.39,8.5-5.39,1.98,0,4.04.42,5.81,1.49l-1.84,7.51c-1.56-.85-3.12-1.28-4.68-1.28-2.91,0-5.6,1.84-7.8,5.81v20.2Z"/>
    <path class="cls-4" d="M277.51,79.41c-7.3,0-11.13-3.19-10.84-11.06l.5-15.38-5.1-.57.21-5.32,5.1-1.63.14-7.23h8.08l-.14,7.65h9.21l-.21,6.88h-9.5l-.43,15.1c-.07,3.05,1.49,4.47,4.32,4.47,1.7,0,3.4-.43,5.1-.99l1.13,6.8c-2.48.85-4.75,1.28-7.58,1.28Z"/>
    <path class="cls-4" d="M289.48,74.02c0-2.98,2.41-5.67,6.03-6.88-3.62-1.84-5.95-5.53-5.95-10.06,0-6.73,5.32-12.47,14.39-12.47,3.69,0,6.95,1.06,9.21,2.06l8.79-.78.35,7.3-6.24-1.06c.85.92,1.49,3.4,1.49,5.1,0,6.66-5.6,11.91-13.68,11.91-1.56,0-2.69-.14-4.47-.57-1.13.43-2.55,1.49-2.55,2.83,0,1.77,1.49,2.55,6.73,2.55,0,0,3.9,0,3.4,0,9.36,0,14.67,2.62,14.67,9,0,7.73-8.72,13.04-19.07,13.04-8.65,0-15.52-3.19-15.52-9.07,0-3.4,2.48-6.45,7.37-7.23-2.83-.99-4.96-3.05-4.96-5.67ZM294.66,85.22c0,3.05,3.76,5.17,9.28,5.17s10.14-2.13,10.14-5.53c0-3.05-2.98-3.76-9.07-3.76-2.06,0-4.89-.14-6.24-.28-2.34.85-4.11,2.41-4.11,4.39ZM304.01,63.67c3.76,0,5.88-2.69,5.88-6.8,0-3.9-2.06-6.59-6.24-6.59-3.69,0-6.02,2.76-6.02,6.88,0,3.9,2.34,6.52,6.38,6.52Z"/>
    <path class="cls-4" d="M344.05,74.59c-2.34,2.83-5.17,4.82-9.21,4.82-5.88,0-10.14-4.04-10.14-9.21,0-6.03,4.39-11.13,19.35-11.62v-.78c0-4.39-1.84-6.24-6.52-6.24-3.33,0-7.37,1.49-10.84,3.47l-1.7-6.59c3.19-1.98,8.29-3.83,13.68-3.83,10.06,0,13.96,4.46,13.75,13.47v11.69c0,2.48.42,2.83,2.91,2.98l-.64,6.31c-6.24.71-9.14-1.21-10.35-4.47h-.28ZM344.05,62.96c-8.15.99-11.13,2.62-11.13,6.09,0,2.48,1.91,4.25,4.89,4.25,2.62,0,4.75-1.21,6.24-2.83v-7.51Z"/>
    <path class="cls-4" d="M359.15,74.02c0-2.98,2.41-5.67,6.03-6.88-3.62-1.84-5.95-5.53-5.95-10.06,0-6.73,5.32-12.47,14.39-12.47,3.69,0,6.95,1.06,9.21,2.06l8.79-.78.35,7.3-6.24-1.06c.85.92,1.49,3.4,1.49,5.1,0,6.66-5.6,11.91-13.68,11.91-1.56,0-2.69-.14-4.47-.57-1.13.43-2.55,1.49-2.55,2.83,0,1.77,1.49,2.55,6.73,2.55,0,0,3.9,0,3.4,0,9.36,0,14.67,2.62,14.67,9,0,7.73-8.72,13.04-19.07,13.04-8.65,0-15.52-3.19-15.52-9.07,0-3.4,2.48-6.45,7.37-7.23-2.83-.99-4.96-3.05-4.96-5.67ZM364.32,85.22c0,3.05,3.76,5.17,9.28,5.17s10.14-2.13,10.14-5.53c0-3.05-2.98-3.76-9.07-3.76-2.06,0-4.89-.14-6.24-.28-2.34.85-4.11,2.41-4.11,4.39ZM373.68,63.67c3.76,0,5.88-2.69,5.88-6.8,0-3.9-2.06-6.59-6.24-6.59-3.69,0-6.02,2.76-6.02,6.88,0,3.9,2.34,6.52,6.38,6.52Z"/>
    <path class="cls-4" d="M402.88,63.81c.35,5.32,3.97,8.93,9.78,8.93,3.47,0,7.23-1.13,10.21-2.98l1.06,6.95c-3.12,1.7-7.44,2.69-11.84,2.69-10.49,0-17.44-6.66-17.44-17.08s7.09-17.72,16.87-17.72c8.65,0,13.47,5.25,13.47,13.25,0,1.77-.28,4.04-.71,5.46-.07,0-21.4.28-21.4.28v.21ZM417.13,58.64v-.57c0-4.39-1.91-7.16-6.24-7.16-4.61,0-7.37,3.76-7.8,7.8l14.03-.07Z"/>
    <path class="cls-1" d="M470.35,78.34h-8.72l-3.69-10.49h-17.86l-3.62,10.49h-8.72l16.16-44.3h10.49l15.95,44.3ZM449.09,41.49l-6.73,19.21h13.4l-6.66-19.21Z"/>
    <path class="cls-1" d="M496.64,31l8.36-1.13v48.48h-8.36v-3.19c-2.2,2.13-5.17,4.25-9.21,4.25-8.65,0-14.25-7.02-14.25-17.15s7.23-17.65,16.51-17.65c2.34,0,4.89.42,6.95,1.06v-14.67ZM490.48,51.27c-5.6,0-8.79,4.61-8.79,10.63,0,6.38,3.19,10.42,8.22,10.42,2.76,0,4.89-.99,6.73-2.69,0,.28,0-16.44,0-16.44-1.63-1.21-3.69-1.91-6.17-1.91Z"/>
    <path class="cls-1" d="M530.8,78.41h-8.93l-12.47-32.75h8.93l8.22,23.89,7.87-23.89h9l-12.62,32.75Z"/>
    <path class="cls-1" d="M552,39.71c-3.26,0-5.1-1.98-5.1-5.03s1.84-5.03,5.1-5.03,5.17,2.06,5.17,5.03-1.84,5.03-5.17,5.03ZM547.81,78.34v-32.46l8.36-1.21v33.67h-8.36Z"/>
    <path class="cls-1" d="M575.24,79.48c-4.25,0-9.43-1.21-12.69-3.05l1.84-6.52c3.26,1.84,7.44,3.05,11.06,3.05,3.26,0,5.39-1.35,5.39-3.61,0-2.55-2.76-3.47-6.59-4.39-6.17-1.42-11.06-3.97-11.06-10.14s5.17-10.21,13.04-10.21c4.04,0,8.86,1.06,11.91,2.62l-1.84,6.52c-3.19-1.63-7.37-2.69-10.28-2.69s-4.89,1.13-4.89,3.26c0,2.48,2.76,3.33,6.59,4.25,6.24,1.49,11.13,3.9,11.13,10.28s-5.25,10.63-13.61,10.63Z"/>
    <path class="cls-1" d="M610.25,79.41c-9.57,0-16.51-6.52-16.51-17.37s7.3-17.51,16.94-17.51,16.51,6.66,16.51,17.44-7.37,17.44-16.94,17.44ZM610.4,51.27c-5.46,0-8.43,4.39-8.43,10.7s3.12,10.63,8.58,10.63,8.36-4.25,8.36-10.56-3.12-10.77-8.5-10.77Z"/>
    <path class="cls-1" d="M642.57,78.34h-8.36v-32.46l8.36-1.21v5.32c2.05-3.47,4.68-5.39,8.5-5.39,1.98,0,4.04.42,5.81,1.49l-1.84,7.51c-1.56-.85-3.12-1.28-4.68-1.28-2.91,0-5.6,1.84-7.8,5.81v20.2Z"/>
    <path class="cls-1" d="M672.27,79.48c-4.25,0-9.43-1.21-12.69-3.05l1.84-6.52c3.26,1.84,7.44,3.05,11.06,3.05,3.26,0,5.39-1.35,5.39-3.61,0-2.55-2.76-3.47-6.59-4.39-6.17-1.42-11.06-3.97-11.06-10.14s5.17-10.21,13.04-10.21c4.04,0,8.86,1.06,11.91,2.62l-1.84,6.52c-3.19-1.63-7.37-2.69-10.28-2.69s-4.89,1.13-4.89,3.26c0,2.48,2.76,3.33,6.59,4.25,6.24,1.49,11.13,3.9,11.13,10.28s-5.25,10.63-13.61,10.63Z"/>
    <path class="cls-1" d="M693.06,78.92c-1.81,0-3.08-1.31-3.08-3s1.27-2.96,3.08-2.96,3,1.27,3,2.96-1.23,3-3,3Z"/>
    <path class="cls-1" d="M708.38,78.92c-5.77,0-9.2-3.58-9.2-9.39s3.77-9.51,9.36-9.51c2.42,0,4.5.54,6.12,1.5l-.96,3.66c-1.46-.92-3.16-1.42-4.81-1.42-3.27,0-5.04,2.23-5.04,5.66,0,3.62,2.04,5.74,5.04,5.74,1.85,0,3.54-.5,4.93-1.39l.73,3.7c-1.54.92-3.77,1.46-6.16,1.46Z"/>
    <path class="cls-1" d="M726.13,78.92c-5.2,0-8.97-3.54-8.97-9.43s3.97-9.51,9.2-9.51,8.97,3.62,8.97,9.47-4,9.47-9.2,9.47ZM726.21,63.64c-2.96,0-4.58,2.39-4.58,5.81s1.69,5.77,4.66,5.77,4.54-2.31,4.54-5.74-1.69-5.85-4.62-5.85Z"/>
    <path class="cls-1" d="M761.44,78.34v-10.78c0-2.62-1.04-3.54-2.93-3.54-1.58,0-2.81.81-3.7,1.58v12.74h-4.54v-10.78c0-2.62-1-3.54-2.89-3.54-1.62,0-2.85.65-3.7,1.46v12.86h-4.54v-17.67l4.54-.62v2.5c1.66-1.66,3.46-2.54,5.66-2.54s3.97,1.04,4.85,3.04c1.77-1.93,3.89-3.04,6.31-3.04,3.35,0,5.47,2.31,5.47,6.16v12.17h-4.54Z"/>
  </g>
  <g>
    <circle class="cls-1" cx="57.09" cy="57.09" r="57.09"/>
    <g>
      <polygon class="cls-2" points="93.66 99.71 57.09 68.41 20.51 99.71 57.09 2.32 93.66 99.71"/>
      <polygon class="cls-3" points="93.66 99.71 57.09 68.41 57.09 2.32 93.66 99.71"/>
    </g>
  </g>
</svg>