<?xml version="1.0" encoding="UTF-8"?><svg id="Layer_1" xmlns="http://www.w3.org/2000/svg" width="1193.61" height="208.89" viewBox="0 0 1193.61 208.89"><defs><style>.cls-1{fill:#fff;}</style></defs><path class="cls-1" d="M39.84,44.17l1.13,1.01L1.63,135.41H0L39.84,44.17ZM23,84.13h38.83v1.51H23v-1.51ZM36.57,39.39h11.56l42.23,96.01h-11.56L36.57,39.39Z"/><path class="cls-1" d="M96.01,87.4c0-27.9,21.11-48.89,49.14-48.89s49.01,21.62,49.01,48.76-20.48,49.01-49.01,49.01-49.14-20.99-49.14-48.89h0ZM183.35,87.4c0-28.53-14.2-47.38-38.2-47.38s-38.46,18.73-38.46,47.38,14.33,47.38,38.46,47.38,38.2-18.73,38.2-47.38ZM157.59,134.4l1.38-.63c5.28,9.17,11.81,20.61,26.64,20.61,8.29,0,17.34-5.03,17.34-15.33h1.51c0,11.31-10.05,16.84-18.85,16.84-16.09,0-22.62-12.06-28.03-21.49h.01Z"/><path class="cls-1" d="M213.63,96.95v-57.56h10.43v60.07c0,20.23,9.93,34.94,29.78,34.94s31.29-13.45,31.29-37.07v-57.94h1.51v57.68c0,25.26-13.57,39.21-34.06,39.21-26.01,0-38.96-13.07-38.96-39.34h0Z"/><path class="cls-1" d="M337.79,44.17l1.13,1.01-39.34,90.23h-1.63s39.84-91.24,39.84-91.24ZM320.95,84.13h38.83v1.51h-38.83v-1.51ZM334.53,39.39h11.56l42.23,96.01h-11.56s-42.23-96.01-42.23-96.01Z"/><path class="cls-1" d="M426.26,39.39h26.14c15.21,0,27.65,6.16,27.77,20.61.13,16.21-11.31,24.13-40.34,24.13h-2.89l-.25,51.28h-10.43V39.39ZM440.09,82.63c23,0,30.54-8.55,30.41-22.62-.13-12.44-6.41-19.1-20.48-19.1h-13.32l.25,41.72h3.14ZM468.74,101.48c-5.78-11.44-7.29-17.34-19.98-17.34h-9.05v-1.51h9.93c21.74,0,24.13,7.29,29.41,17.72l17.97,35.06h-11.06l-17.22-33.93Z"/><path class="cls-1" d="M507.19,39.39h10.43v96.01h-10.43V39.39ZM511.09,39.39h49.89v1.51h-49.89v-1.51h0ZM511.09,76.09h43.61v1.51h-43.61v-1.51h0ZM511.09,133.9h51.15v1.51h-51.15v-1.51Z"/><path class="cls-1" d="M568.77,107.26h1.51c0,15.96,11.69,27.4,29.66,27.52,14.33,0,27.65-8.04,27.65-25.26,0-30.66-52.91-13.95-52.91-47.25,0-14.08,11.56-23.75,29.16-23.75,16.46,0,25.39,9.68,25.39,19.23h-1.51c0-8.42-7.79-17.47-23.75-17.72-14.2-.25-24.26,6.66-24.26,16.46,0,27.15,53.29,11.69,53.29,46.37,0,21.49-14.96,33.43-32.93,33.43-18.98,0-31.29-11.81-31.29-29.03h-.01ZM629.22,57.74c0,3.64-1.01,6.54-2.14,8.29l-1.26-.75c1.13-1.76,1.89-4.15,1.89-7.54,0,0,1.51,0,1.51,0Z"/><path class="cls-1" d="M647.31,39.39h10.43v96.01h-10.43V39.39ZM651.21,39.39h49.89v1.51h-49.89v-1.51ZM651.21,76.09h43.61v1.51h-43.61v-1.51ZM651.21,133.9h51.15v1.51h-51.15v-1.51Z"/><path class="cls-1" d="M718.06,39.39h26.14c15.21,0,27.65,6.16,27.77,20.61.13,16.21-11.31,24.13-40.34,24.13h-2.89l-.25,51.28h-10.43V39.39ZM731.88,82.63c23,0,30.54-8.55,30.41-22.62-.13-12.44-6.41-19.1-20.48-19.1h-13.32l.25,41.72h3.14ZM760.54,101.48c-5.78-11.44-7.29-17.34-19.98-17.34h-9.05v-1.51h9.93c21.74,0,24.13,7.29,29.41,17.72l17.97,35.06h-11.06l-17.22-33.93Z"/><path class="cls-1" d="M790.44,39.39h11.31l37.07,86.34h-1.51l36.07-86.34h1.63l-40.22,96.01h-3.14l-41.22-96.01h0Z"/><path class="cls-1" d="M885.32,39.39h10.43v96.01h-10.43V39.39ZM889.22,39.39h49.89v1.51h-49.89v-1.51ZM889.22,76.09h43.61v1.51h-43.61v-1.51ZM889.22,133.9h51.15v1.51h-51.15v-1.51Z"/><path class="cls-1" d="M338.35,167.92v18.27h11.34v1.3h-12.76v-19.57h1.43,0Z"/><path class="cls-1" d="M359.44,183.8c.49.84,1.16,1.48,2.03,1.93.86.45,1.84.68,2.93.68s2.09-.22,2.96-.68c.86-.45,1.54-1.09,2.04-1.93s.74-1.81.74-2.93v-12.95h1.4v13.03c0,1.4-.31,2.6-.93,3.61s-1.47,1.79-2.55,2.33c-1.08.54-2.3.81-3.66.81s-2.55-.27-3.63-.81c-1.08-.54-1.93-1.32-2.55-2.33s-.93-2.21-.93-3.61v-13.03h1.43v12.95c0,1.12.24,2.1.73,2.93h-.01Z"/><path class="cls-1" d="M392.61,187.48l-6.12-8.93-5.86,8.93h-1.75l6.82-10.06-6.53-9.51h1.78l5.83,8.46,5.57-8.46h1.69l-6.5,9.59,6.88,9.98h-1.81Z"/><path class="cls-1" d="M403.94,183.8c.49.84,1.16,1.48,2.03,1.93.86.45,1.84.68,2.93.68s2.09-.22,2.96-.68c.86-.45,1.54-1.09,2.04-1.93s.74-1.81.74-2.93v-12.95h1.4v13.03c0,1.4-.31,2.6-.93,3.61s-1.47,1.79-2.55,2.33c-1.08.54-2.3.81-3.66.81s-2.55-.27-3.63-.81c-1.08-.54-1.93-1.32-2.55-2.33s-.93-2.21-.93-3.61v-13.03h1.43v12.95c0,1.12.24,2.1.73,2.93h-.01Z"/><path class="cls-1" d="M437.02,187.48l-5.42-8.32c-.41.07-.92.11-1.54.11h-3.21v8.21h-1.43v-19.57h4.72c1.09,0,2.13.2,3.13.61,1,.4,1.82,1.02,2.45,1.85s.95,1.86.95,3.09-.29,2.27-.87,3.24c-.58.96-1.49,1.67-2.71,2.11l5.6,8.68h-1.67ZM434,176.65c.81-.88,1.21-1.93,1.21-3.14,0-.77-.2-1.49-.6-2.15-.4-.66-.97-1.18-1.7-1.57-.74-.39-1.59-.58-2.56-.58h-3.5v8.76h3.12c1.88,0,3.23-.44,4.04-1.32h0Z"/><path class="cls-1" d="M461.03,167.92l-7.72,12.59v6.97h-1.43v-6.97l-7.72-12.59h1.75l6.73,11.08,6.67-11.08h1.72,0Z"/><path class="cls-1" d="M496.2,188.36l-4.75-11.77-4.87,11.79-8.16-20.42h1.63l6.67,17.25,4.02-10.31-2.8-6.94h1.43l6.88,17.09,6.73-17.09h1.52l-8.31,20.39h0Z"/><path class="cls-1" d="M521.23,181h-9.12l-2.74,6.48h-1.43l8.74-20.42h.12l8.74,20.42h-1.6l-2.71-6.48ZM520.71,179.74l-3.99-9.62-4.08,9.62h8.07Z"/><path class="cls-1" d="M543.59,167.92v1.3h-6.09v18.27h-1.43v-18.27h-6.03v-1.3h13.55Z"/><path class="cls-1" d="M564.19,167.92v1.3h-11.34v7.77h10.2v1.3h-10.2v7.91h11.74v1.3h-13.17v-19.57h12.77Z"/><path class="cls-1" d="M584.56,187.48l-5.42-8.32c-.41.07-.92.11-1.54.11h-3.21v8.21h-1.43v-19.57h4.72c1.09,0,2.13.2,3.13.61,1,.4,1.82,1.02,2.45,1.85s.95,1.86.95,3.09-.29,2.27-.87,3.24c-.58.96-1.49,1.67-2.71,2.11l5.6,8.68h-1.67ZM581.54,176.65c.81-.88,1.21-1.93,1.21-3.14,0-.77-.2-1.49-.6-2.15-.4-.66-.97-1.18-1.7-1.57-.74-.39-1.59-.58-2.56-.58h-3.5v8.76h3.12c1.88,0,3.23-.44,4.04-1.32h-.01Z"/><path class="cls-1" d="M605.92,167.92v1.3h-10.17v8.07h9.01v1.27h-9.01v8.93h-1.43v-19.57h11.6Z"/><path class="cls-1" d="M625.67,187.48l-5.42-8.32c-.41.07-.92.11-1.54.11h-3.21v8.21h-1.43v-19.57h4.72c1.09,0,2.13.2,3.13.61,1,.4,1.82,1.02,2.45,1.85s.95,1.86.95,3.09-.29,2.27-.87,3.24c-.58.96-1.49,1.67-2.71,2.11l5.6,8.68h-1.67ZM622.66,176.65c.81-.88,1.21-1.93,1.21-3.14,0-.77-.2-1.49-.6-2.15-.4-.66-.97-1.18-1.7-1.57-.74-.39-1.59-.58-2.56-.58h-3.5v8.76h3.12c1.88,0,3.23-.44,4.04-1.32h-.01Z"/><path class="cls-1" d="M635.35,172.72c.95-1.53,2.23-2.76,3.85-3.66,1.61-.91,3.37-1.36,5.27-1.36s3.67.45,5.3,1.36,2.92,2.13,3.88,3.66c.95,1.53,1.43,3.2,1.43,5s-.48,3.47-1.43,5-2.24,2.75-3.88,3.64c-1.63.89-3.4,1.34-5.3,1.34s-3.69-.43-5.3-1.29-2.89-2.06-3.83-3.58-1.41-3.22-1.41-5.1.48-3.47,1.43-5h-.01ZM636.6,182.08c.82,1.32,1.91,2.37,3.29,3.16,1.38.78,2.89,1.17,4.55,1.17s3.21-.39,4.62-1.16,2.52-1.82,3.34-3.16c.82-1.33,1.22-2.79,1.22-4.37s-.41-3.04-1.24-4.37-1.94-2.39-3.34-3.18-2.92-1.18-4.58-1.18-3.21.4-4.6,1.2c-1.4.8-2.5,1.87-3.29,3.21-.8,1.34-1.19,2.79-1.19,4.35s.41,3,1.22,4.33h0Z"/><path class="cls-1" d="M680.63,167.92v20.03h-.06l-15.94-16.97.03,16.51h-1.4v-19.98h.09l15.94,17.11-.03-16.7h1.37Z"/><path class="cls-1" d="M702.02,167.92v1.3h-6.09v18.27h-1.43v-18.27h-6.03v-1.3h13.55Z"/><path class="cls-1" d="M733.61,167.92v1.3h-6.09v18.27h-1.43v-18.27h-6.03v-1.3h13.55Z"/><path class="cls-1" d="M740.52,172.72c.95-1.53,2.23-2.76,3.85-3.66,1.61-.91,3.37-1.36,5.27-1.36s3.67.45,5.3,1.36,2.92,2.13,3.88,3.66c.95,1.53,1.43,3.2,1.43,5s-.48,3.47-1.43,5-2.24,2.75-3.88,3.64c-1.63.89-3.4,1.34-5.3,1.34s-3.69-.43-5.3-1.29-2.89-2.06-3.83-3.58-1.41-3.22-1.41-5.1.48-3.47,1.43-5h-.01ZM741.77,182.08c.82,1.32,1.91,2.37,3.29,3.16,1.38.78,2.89,1.17,4.55,1.17s3.21-.39,4.62-1.16,2.52-1.82,3.34-3.16c.82-1.33,1.22-2.79,1.22-4.37s-.41-3.04-1.24-4.37-1.94-2.39-3.34-3.18-2.92-1.18-4.58-1.18-3.21.4-4.6,1.2c-1.4.8-2.5,1.87-3.29,3.21-.8,1.34-1.19,2.79-1.19,4.35s.41,3,1.22,4.33h0Z"/><path class="cls-1" d="M783.01,188.36l-4.75-11.77-4.87,11.79-8.16-20.42h1.63l6.67,17.25,4.02-10.31-2.8-6.94h1.43l6.88,17.09,6.73-17.09h1.52l-8.31,20.39h0Z"/><path class="cls-1" d="M816.31,167.92v20.03h-.06l-15.94-16.97.03,16.51h-1.4v-19.98h.09l15.94,17.11-.03-16.7h1.37Z"/><path class="cls-1" d="M841.14,187.48h-1.43v-9.2h-12.47v9.2h-1.43v-19.57h1.43v9.09h12.47v-9.09h1.43v19.57h0Z"/><path class="cls-1" d="M850.76,172.72c.95-1.53,2.23-2.76,3.85-3.66,1.61-.91,3.37-1.36,5.27-1.36s3.67.45,5.3,1.36,2.92,2.13,3.88,3.66c.95,1.53,1.43,3.2,1.43,5s-.48,3.47-1.43,5-2.24,2.75-3.88,3.64c-1.63.89-3.4,1.34-5.3,1.34s-3.69-.43-5.3-1.29-2.89-2.06-3.83-3.58-1.41-3.22-1.41-5.1.48-3.47,1.43-5h-.01ZM852.01,182.08c.82,1.32,1.91,2.37,3.29,3.16,1.38.78,2.89,1.17,4.55,1.17s3.21-.39,4.62-1.16,2.52-1.82,3.34-3.16c.82-1.33,1.22-2.79,1.22-4.37s-.41-3.04-1.24-4.37-1.94-2.39-3.34-3.18-2.92-1.18-4.58-1.18-3.21.4-4.6,1.2c-1.4.8-2.5,1.87-3.29,3.21-.8,1.34-1.19,2.79-1.19,4.35s.41,3,1.22,4.33h0Z"/><path class="cls-1" d="M898.49,167.47v20.01h-1.4v-16.07l-8.51,11.33h-.06l-8.45-11.19v15.93h-1.4v-20.01h.03l9.85,13.25,9.91-13.25h.03Z"/><path class="cls-1" d="M920.76,167.92v1.3h-11.34v7.77h10.2v1.3h-10.2v7.91h11.74v1.3h-13.17v-19.57h12.77Z"/><path class="cls-1" d="M937.54,169.32c-.86-.22-1.69-.33-2.51-.33-1.36,0-2.45.32-3.26.95-.82.63-1.22,1.45-1.22,2.44,0,.7.22,1.29.66,1.78s1,.89,1.68,1.21,1.55.68,2.62,1.06c1.17.4,2.13.82,2.9,1.24s1.41,1,1.94,1.72c.52.73.79,1.66.79,2.8s-.27,2.04-.82,2.88c-.54.84-1.31,1.48-2.29,1.94s-2.1.69-3.37.69c-2.2,0-4.37-.67-6.53-2.01l.67-1.1c.72.51,1.6.96,2.65,1.35,1.05.39,2.07.58,3.06.58.87,0,1.71-.16,2.49-.48.79-.32,1.43-.81,1.92-1.46.5-.65.74-1.44.74-2.36,0-.86-.23-1.59-.69-2.18s-1.03-1.06-1.72-1.42c-.69-.36-1.56-.72-2.61-1.09-1.17-.4-2.13-.79-2.89-1.17s-1.39-.88-1.91-1.5c-.52-.62-.77-1.41-.77-2.34s.25-1.73.74-2.44c.5-.71,1.18-1.26,2.07-1.65.88-.39,1.87-.6,2.96-.62.93,0,1.9.12,2.9.36s1.89.54,2.67.91l-.55,1.05c-.7-.31-1.48-.58-2.33-.8h.01Z"/><path class="cls-1" d="M1113.23,165.29c.19.46.63.73,1.1.73.15,0,.31-.03.45-.09.61-.25.89-.95.64-1.55l-2.99-7.22c-.73.32-1.46.62-2.19.91l2.99,7.22Z"/><path class="cls-1" d="M1090.26,46.69c.11-.18.2-.39.2-.62v-5.35c0-.66-.53-1.19-1.19-1.19s-1.19.53-1.19,1.19v5.35c0,.23.08.43.2.62.66,0,1.32,0,1.98,0Z"/><path class="cls-1" d="M1089.3,170.13h0c-.66,0-1.19.53-1.19,1.19v14.24c0,.66.54.23,1.2.23v.96c.66,0,1.19-.53,1.19-1.19v-14.24c0-.66-.54-1.19-1.2-1.19Z"/><path class="cls-1" d="M1060.65,29.05c-.26-.6-.96-.88-1.56-.61-.6.26-.88.96-.61,1.56l9.13,20.92c.73-.3,1.47-.59,2.22-.86l-9.17-21.01h0Z"/><path class="cls-1" d="M1119.29,173.7c-.25-.61-.95-.89-1.55-.64-.61.25-.89.95-.64,1.55l4.33,10.45c.19.46.63.73,1.1.73.15,0,.31-.03.45-.09.61-.25.89-.95.64-1.55l-4.33-10.45h0Z"/><path class="cls-1" d="M1151.92,79.67c.61-.25.89-.95.64-1.55-.25-.61-.95-.89-1.55-.64l-8.92,3.7c.32.73.63,1.46.91,2.19l8.92-3.69h0Z"/><path class="cls-1" d="M1149.38,130.52c.15.06.3.09.45.09.47,0,.91-.28,1.1-.73.25-.61-.04-1.3-.64-1.55l-7.29-3.02c-.29.74-.59,1.47-.9,2.2l7.29,3.02h0Z"/><path class="cls-1" d="M1146.92,105.33c.18.11.38.2.62.2h27.48c.66,0,1.19-.53,1.19-1.19s-.53-1.19-1.19-1.19h-27.48c-.23,0-.43.08-.61.2.01.66.01,1.32,0,1.98h-.01Z"/><path class="cls-1" d="M1123.45,24.93c.25-.61-.04-1.3-.64-1.55-.61-.25-1.3.04-1.55.64l-11.01,26.59c.74.29,1.47.59,2.2.9l11.01-26.58h0Z"/><path class="cls-1" d="M1021.19,103.15h-4.42c.66,0,1.19.53,1.19,1.19s-.53,1.19-1.19,1.19h4.42c.66,0,1.19-.53,1.19-1.19s-.53-1.19-1.19-1.19Z"/><path class="cls-1" d="M1011.38,70.78c-.61-.25-1.3.04-1.55.64-.25.61.04,1.3.64,1.55l25.09,10.39c.29-.74.59-1.47.91-2.2l-25.09-10.39h0Z"/><path class="cls-1" d="M1053.33,18.22c.19.45.63.71,1.09.71.16,0,.32-.03.48-.1.6-.26.88-.96.61-1.56l-3.93-9c-.26-.6-.96-.88-1.56-.61-.6.26-.88.96-.61,1.56l3.93,9h0Z"/><path class="cls-1" d="M1125.09,17.86c.15.06.3.09.45.09.47,0,.91-.28,1.1-.73l2.76-6.67c.25-.61-.04-1.3-.64-1.55-.61-.25-1.3.04-1.55.64l-2.76,6.67c-.25.61.04,1.3.64,1.55h0Z"/><path class="cls-1" d="M1089.27,33.52c.66,0,1.19-.53,1.19-1.19V1.19c0-.66-.53-1.19-1.19-1.19s-1.19.53-1.19,1.19v31.14c0,.66.53,1.19,1.19,1.19Z"/><path class="cls-1" d="M1155.65,76.84c.19.46.63.73,1.1.73.15,0,.31-.03.45-.09l27.84-11.53c.61-.25.89-.95.64-1.55-.25-.61-.95-.89-1.55-.64l-27.84,11.53c-.61.25-.89.95-.64,1.55h0Z"/><path class="cls-1" d="M1154.43,40.36c.3,0,.61-.12.84-.35l7.77-7.77c.46-.46.46-1.22,0-1.68-.46-.46-1.22-.46-1.68,0l-7.77,7.77c-.46.46-.46,1.22,0,1.68.23.23.54.35.84.35h0Z"/><path class="cls-1" d="M1015.58,104.33c0-.66.53-1.19,1.19-1.19h-14.18c-.66,0-1.19.53-1.19,1.19s.53,1.19,1.19,1.19h14.18c-.66,0-1.19-.53-1.19-1.19Z"/><path class="cls-1" d="M1000.76,66.38l-5.71-2.37c-.61-.25-1.3.04-1.55.64-.25.61.04,1.3.64,1.55l5.71,2.37c.15.06.3.09.45.09.47,0,.91-.28,1.1-.73.25-.61-.04-1.3-.64-1.55Z"/><path class="cls-1" d="M1025.78,42.52c.23.23.54.35.84.35s.61-.12.84-.35c.46-.46.46-1.22,0-1.68l-10.28-10.28c-.46-.46-1.22-.46-1.68,0s-.46,1.22,0,1.68l10.28,10.28h0Z"/><circle class="cls-1" cx="1016.77" cy="104.33" r="1.19"/><path class="cls-1" d="M993.23,103.15h-7.11c-.66,0-1.19.53-1.19,1.19s.53,1.19,1.19,1.19h7.11c.66,0,1.19-.53,1.19-1.19s-.53-1.19-1.19-1.19Z"/><path class="cls-1" d="M1130.87,64.41l15.72-15.72c.46-.46.46-1.22,0-1.68s-1.22-.46-1.68,0l-15.72,15.72c.57.55,1.13,1.11,1.68,1.68Z"/><path class="cls-1" d="M1171.19,136.98l-15.89-6.58c-.61-.25-1.3.04-1.55.64-.25.61.04,1.3.64,1.55l15.89,6.58c.15.06.3.09.45.09.47,0,.91-.28,1.1-.73.25-.61-.04-1.3-.64-1.55h0Z"/><path class="cls-1" d="M1147.98,161.36c-.46-.46-1.22-.46-1.68,0-.46.46-.46,1.22,0,1.68l5.82,5.82c.23.23.54.35.84.35s.61-.12.84-.35c.46-.46.46-1.22,0-1.68l-5.82-5.82h0Z"/><path class="cls-1" d="M1130.87,144.26c-.55.57-1.11,1.13-1.68,1.68l12.25,12.25c.23.23.54.35.84.35s.61-.12.84-.35c.46-.46.46-1.22,0-1.68l-12.25-12.25h0Z"/><path class="cls-1" d="M1049.37,62.75l-13.29-13.29c-.46-.46-1.22-.46-1.68,0-.46.46-.46,1.22,0,1.68l13.29,13.29c.55-.57,1.11-1.13,1.68-1.68Z"/><path class="cls-1" d="M1031.63,103.15h-2.64c-.66,0-1.19.53-1.19,1.19s.53,1.19,1.19,1.19h2.64c-.02-.79-.01-1.58,0-2.38Z"/><path class="cls-1" d="M1179.08,140.25l-3.61-1.49c-.61-.25-1.3.04-1.55.64-.25.61.04,1.3.64,1.55l3.61,1.49c.15.06.3.09.45.09.47,0,.91-.28,1.1-.73.25-.61-.04-1.3-.64-1.55h0Z"/><path class="cls-1" d="M1192.42,103.15h-9.46c-.66,0-1.19.53-1.19,1.19s.53,1.19,1.19,1.19h9.46c.66,0,1.19-.53,1.19-1.19s-.53-1.19-1.19-1.19Z"/><path class="cls-1" d="M1140.36,83.17s.03.05.05.08c-.02-.05-.04-.09-.06-.13,0,.02,0,.04.01.05Z"/><path class="cls-1" d="M1033.09,98.59c.53-5.19,1.76-10.13,3.56-14.76l-1.09-.45c-1.85,4.74-3.11,9.79-3.66,15.09-.16,1.56-.24,3.12-.27,4.68h1.19c.03-1.51.11-3.03.27-4.56Z"/><path class="cls-1" d="M1048.51,65.26l-.82-.82c-4.64,4.83-8.47,10.47-11.23,16.74l1.09.45c2.69-6.13,6.43-11.65,10.96-16.37Z"/><path class="cls-1" d="M1095.02,48.15c5.19.53,10.13,1.76,14.76,3.56l.46-1.11c-4.79-1.86-9.85-3.1-15.1-3.64-1.64-.17-3.26-.25-4.88-.28-.21.33-.57.57-.99.57s-.78-.24-.99-.57c-6.43.11-12.65,1.27-18.46,3.37l.47,1.08c7.68-2.75,16.08-3.87,24.73-2.98Z"/><path class="cls-1" d="M1111.98,156.04l.46,1.12c4.7-2.07,9.16-4.78,13.25-8.11,1.22-.99,2.38-2.04,3.5-3.11l-.84-.84c-4.76,4.56-10.3,8.28-16.37,10.95h0Z"/><path class="cls-1" d="M1141.89,83.82c3.16,8.09,4.51,17.03,3.57,26.26-.53,5.19-1.76,10.13-3.56,14.76l1.11.46c1.86-4.79,3.1-9.85,3.64-15.1.17-1.63.25-3.26.28-4.88-.34-.21-.57-.57-.57-.99s.24-.78.57-.99c-.11-6.9-1.44-13.64-3.92-19.98l-1.09.45h-.03,0Z"/><path class="cls-1" d="M1130.03,143.41l.84.84c4.74-4.92,8.52-10.58,11.22-16.76l-1.11-.46c-2.69,6.13-6.43,11.65-10.96,16.37h.01Z"/><path class="cls-1" d="M1128.35,63.58l.84-.84c-4.92-4.74-10.58-8.52-16.75-11.22l-.46,1.11c6.13,2.69,11.65,6.42,16.37,10.96h0Z"/><path class="cls-1" d="M1140.98,81.63s.01-.01.02-.01l1.09-.45c-2.07-4.7-4.77-9.16-8.1-13.25-.99-1.22-2.04-2.38-3.11-3.5l-.84.84c4.56,4.76,8.28,10.3,10.95,16.38h-.01Z"/><path class="cls-1" d="M1068.07,51.99l-.47-1.07c-6.79,2.77-12.97,6.8-18.23,11.84l.82.82c5.15-4.93,11.21-8.88,17.87-11.59h.01Z"/><path class="cls-1" d="M1032.82,105.52h-1.19c.03,1.51.1,3.02.25,4.52.06.65.65,1.13,1.3,1.07.2-.02.38-.1.53-.21l-.65-.98c-.14-1.45-.21-2.92-.24-4.4h0Z"/><path class="cls-1" d="M1083.52,160.52c-7.6-.78-14.69-3.03-21.02-6.44l-.65-.98c-.16.1-.3.23-.4.41-.31.58-.1,1.3.48,1.61,6.66,3.59,13.88,5.8,21.47,6.57,2,.2,3.99.31,5.98.31,7.2,0,14.26-1.35,20.86-3.94l-.46-1.12c-8.09,3.16-17.02,4.51-26.26,3.57h0Z"/><path class="cls-1" d="M1032.82,103.15h-1.19c-.02.79-.02,1.58,0,2.38h1.19c-.02-.79-.01-1.58,0-2.38Z"/><path class="cls-1" d="M1037.55,81.63l-1.09-.45c-.32.72-.62,1.46-.91,2.2l1.09.45c.29-.74.59-1.47.9-2.2h.01Z"/><path class="cls-1" d="M1130.87,144.26l-.84-.84c-.55.57-1.11,1.13-1.68,1.68l.84.84c.57-.55,1.13-1.11,1.68-1.68Z"/><path class="cls-1" d="M1050.19,63.58l-.82-.82c-.57.55-1.13,1.11-1.68,1.68l.82.82c.55-.57,1.11-1.13,1.68-1.68Z"/><path class="cls-1" d="M1109.78,156.95l.46,1.12c.74-.29,1.47-.59,2.19-.91l-.46-1.12c-.72.32-1.46.62-2.2.91h.01Z"/><path class="cls-1" d="M1089.27,47.26c.42,0,.78-.23.99-.57-.66,0-1.32,0-1.98,0,.21.34.57.57.99.57Z"/><path class="cls-1" d="M1140.99,127.04l1.11.46c.32-.73.62-1.46.9-2.2l-1.11-.46c-.29.74-.59,1.47-.9,2.2Z"/><path class="cls-1" d="M1130.03,65.26l.84-.84c-.55-.57-1.11-1.13-1.68-1.68l-.84.84c.57.55,1.13,1.11,1.68,1.68Z"/><path class="cls-1" d="M1140.98,81.63c.32.72.62,1.45.91,2.19h.03l1.09-.45c-.29-.74-.59-1.47-.91-2.19l-1.09.45s-.01.01-.02.01h-.01Z"/><path class="cls-1" d="M1111.98,52.62l.46-1.11c-.73-.32-1.46-.62-2.2-.9l-.46,1.11c.74.29,1.47.59,2.2.9Z"/><path class="cls-1" d="M1070.29,51.13l-.47-1.08c-.75.27-1.48.56-2.22.86l.47,1.07c.73-.3,1.47-.59,2.22-.85Z"/><path class="cls-1" d="M1146.35,104.33c0,.43.24.78.57.99.01-.66.01-1.32,0-1.98-.34.21-.57.57-.57.99Z"/><path class="cls-1" d="M1034.24,109.81c-.14-1.42-.21-2.85-.24-4.28h-1.19c.03,1.48.1,2.95.24,4.4l.65.98c.35-.24.58-.64.53-1.09h0Z"/><path class="cls-1" d="M1140.98,81.63c-2.67-6.07-6.39-11.62-10.95-16.38l-.84.84c1.02,1.07,2.01,2.17,2.95,3.32,3.43,4.21,6.17,8.82,8.21,13.7-.21-.58.06-1.23.63-1.48Z"/><path class="cls-1" d="M1037.55,81.63l1.11.46c2.63-5.98,6.28-11.36,10.71-15.97l-.86-.86c-4.53,4.72-8.27,10.24-10.96,16.37Z"/><path class="cls-1" d="M1083.52,160.52c9.23.94,18.17-.41,26.26-3.57l-.45-1.08c-8.07,3.15-16.82,4.37-25.69,3.47-7.28-.74-14.2-2.86-20.58-6.3-.4-.22-.86-.16-1.21.07l.65.98c6.33,3.41,13.43,5.66,21.02,6.44h0Z"/><path class="cls-1" d="M1124.19,147.21c-3.91,3.18-8.17,5.77-12.66,7.75l.45,1.09c6.07-2.67,11.61-6.39,16.37-10.95l-.84-.84c-1.07,1.02-2.17,2.01-3.32,2.95Z"/><path class="cls-1" d="M1145.46,110.08c.94-9.24-.41-18.17-3.57-26.26-.14.05-.29.09-.43.09-.44,0-.84-.25-1.05-.65,3.45,8.35,4.81,17.47,3.87,26.71-.51,5.02-1.7,9.86-3.47,14.43l1.09.45c1.8-4.63,3.03-9.58,3.56-14.76h0Z"/><path class="cls-1" d="M1139.9,126.59c-2.58,5.89-6.19,11.29-10.71,15.98l.84.84c4.53-4.72,8.27-10.24,10.96-16.37,0,0-1.09-.45-1.09-.45Z"/><path class="cls-1" d="M1050.19,63.58l.86.86c5.05-4.83,10.98-8.69,17.5-11.34l-.48-1.11c-6.66,2.71-12.72,6.65-17.87,11.59h-.01Z"/><path class="cls-1" d="M1033.09,98.59c-.16,1.53-.23,3.05-.27,4.56h1.19c.03-1.48.11-2.96.26-4.44.52-5.07,1.72-9.9,3.49-14.43l-1.11-.46c-1.8,4.63-3.03,9.58-3.56,14.76h0Z"/><path class="cls-1" d="M1111.98,52.62l-.45,1.09c5.89,2.58,11.29,6.19,15.98,10.71l.84-.84c-4.72-4.53-10.24-8.27-16.37-10.96Z"/><path class="cls-1" d="M1095.02,48.15c-8.65-.89-17.05.24-24.73,2.98l.48,1.11c7.5-2.68,15.69-3.77,24.13-2.91,5.02.51,9.85,1.7,14.43,3.47l.45-1.09c-4.63-1.8-9.58-3.03-14.76-3.56Z"/><path class="cls-1" d="M1127.51,144.25l.84.84c.57-.55,1.13-1.11,1.68-1.68l-.84-.84c-.55.57-1.11,1.13-1.68,1.68Z"/><path class="cls-1" d="M1036.65,83.82l1.11.46c.29-.74.59-1.47.91-2.2l-1.11-.46c-.32.72-.62,1.46-.9,2.2h-.01Z"/><path class="cls-1" d="M1032.82,105.52h1.19c-.02-.79-.02-1.58,0-2.38h-1.19c-.02.79-.02,1.59,0,2.38Z"/><path class="cls-1" d="M1068.07,51.99l.48,1.11c.73-.3,1.47-.59,2.22-.85l-.48-1.11c-.75.27-1.49.56-2.22.85Z"/><path class="cls-1" d="M1109.78,51.71l-.45,1.09c.74.29,1.47.59,2.2.9l.45-1.09c-.72-.32-1.46-.62-2.2-.9Z"/><path class="cls-1" d="M1109.33,155.87l.45,1.08c.74-.29,1.47-.59,2.2-.91l-.45-1.09c-.73.32-1.46.63-2.19.91h-.01Z"/><path class="cls-1" d="M1048.51,65.26l.86.86c.55-.57,1.11-1.13,1.68-1.68l-.86-.86c-.57.55-1.13,1.11-1.68,1.68Z"/><path class="cls-1" d="M1128.35,63.58l-.84.84c.57.55,1.13,1.11,1.68,1.68l.84-.84c-.55-.57-1.11-1.13-1.68-1.68Z"/><path class="cls-1" d="M1141.46,83.91c.14,0,.29-.03.43-.09-.29-.74-.59-1.46-.91-2.19-.57.25-.84.9-.63,1.48.02.05.04.09.06.13.21.41.61.65,1.05.65v.02Z"/><path class="cls-1" d="M1141.89,124.84l-1.09-.45c-.29.74-.59,1.47-.91,2.2l1.09.45c.32-.72.62-1.46.9-2.2h.01Z"/><path class="cls-1" d="M1089.27,208.67c-57.53,0-104.33-46.8-104.33-104.33S1031.74,0,1089.27,0s104.33,46.8,104.33,104.33-46.8,104.33-104.33,104.33h0ZM1089.27,2.38c-56.22,0-101.96,45.74-101.96,101.96s45.74,101.96,101.96,101.96,101.96-45.74,101.96-101.96S1145.49,2.38,1089.27,2.38Z"/><path class="cls-1" d="M1192.45,105.57c-.66-.04-1.21.47-1.25,1.13-.17,3.37-1.58,9.54-4.08,17.82-1.88,6.24-4.3,12.13-7.18,17.53-22.63,42.38-52.94,45.09-69.22,46.03-21.26,1.23-46.94-9.02-49.28-39.25-.95-12.3,1.4-21.72,6.99-27.98,1.61-1.81,3.49-3.45,5.51-4.83,1.04-.71,2.12-1.35,3.24-1.92,1.11-.57,4.42-2.04.2-4.05-1.56-.74-4.61-1.41-6.3-1.76-1.61-.33-3.22-.63-4.84-.9-1.57-.25-3.15-.47-4.73-.65s-3.08-.31-4.62-.41-3-.15-4.51-.17-2.93,0-4.4.07-2.86.17-4.29.31-2.79.32-4.18.55c-1.36.22-2.72.48-4.07.79s-2.65.64-3.96,1.02-2.58.8-3.84,1.26-2.51.95-3.73,1.49-2.43,1.11-3.62,1.72-2.36,1.27-3.51,1.96-2.29,1.42-3.4,2.19-2.22,1.58-3.29,2.42-2.14,1.73-3.18,2.65-2.07,1.89-3.07,2.88c-1.01,1.01-2,2.04-2.95,3.11s-1.92,2.2-2.84,3.33-1.85,2.35-2.73,3.56-1.77,2.5-2.62,3.78c-.16.24-.32.48-.47.72-.36.55-.2,1.29.35,1.64.55.36,1.29.2,1.64-.35,7.01-10.86,15.76-19.17,26.02-24.71,15.24-8.23,33.32-10.15,53.84-5.75-35.78,1.16-50.83,17.3-56.75,27.38-6.12,10.42-8.17,23.18-5.63,34.99.12.56.61.94,1.16.94.08,0,.17,0,.25-.03.64-.14,1.05-.77.91-1.41-2.42-11.24-.47-23.38,5.36-33.29,5.35-9.12,18.59-23.43,49.31-25.91-12.59,4.96-22.25,16.07-27.16,27.23-7.18,16.34-8.49,39.28,4.8,53.68,1.89,2.04,4.06,3.88,6.46,5.46,10.19,6.72,22.43,9.05,34.49,9.05,10.63,0,21.12-1.81,29.93-4,.64-.16,1.02-.8.87-1.44-.16-.64-.81-1.03-1.44-.87-33.23,8.27-52.35,2-62.54-4.72-2.24-1.48-4.26-3.19-6.02-5.09-9.05-9.81-13.91-29.41-4.37-51.11,4.97-11.31,15.03-22.57,28.07-26.78-1.73,1.12-3.49,2.53-5.12,4.36-6.06,6.77-8.63,16.79-7.62,29.79,1.07,13.8,7.09,24.85,17.41,31.97,8.14,5.61,18.87,9.3,30.48,9.3,1.3,0,2.62-.04,3.94-.11,15.56-.9,47.89-3.44,71.14-46.99,2.96-5.54,5.43-11.58,7.36-17.96,1.78-5.9,3.95-13.89,4.18-18.39.03-.66-.47-1.21-1.13-1.25l.03-.03Z"/><g id="_72Ko8r"><path class="cls-1" d="M1109.94,64.38c-5.24,4.27-9.57,9.34-13.63,14.66l.08.11c.11-.06.24-.1.34-.17,1.36-.89,2.73-1.77,4.28-2.24,2.98-.89,5.96-1.67,9.06-1.63,2.02.03,3.99.35,5.91,1,2.13.71,3.98,1.88,5.72,3.27.23.18.46.36.65.62-.12,0-.25.02-.37,0-1.01-.18-1.99-.49-3.01-.49-3.17-.02-6.36.08-9.48.69-1.96.38-3.91.78-5.85,1.24-1.34.32-2.66.76-3.98,1.15-.04.01-.08.05-.23.13.23.08.37.15.52.18,2.45.42,4.81,1.16,7.04,2.22,2.66,1.27,5.05,3.09,7.02,5.29,1.44,1.6,2.62,3.37,3.3,5.42.31.94.48,1.93.69,2.91.08.36.11.73.17,1.09-.03.02-.06.04-.09.06-.13-.13-.27-.25-.39-.4-1.07-1.35-2.24-2.62-3.57-3.72-1.93-1.6-4.04-2.92-6.28-4.04-2.18-1.09-4.43-2-6.76-2.71-1.45-.45-2.94-.79-4.41-1.17-.17-.04-.35-.02-.53-.03,0,.03-.02.07-.03.1.26.22.53.43.79.64,2.54,2.04,4.27,4.61,5.22,7.72.91,2.97.9,6,.61,9.05-.02.26-.06.51-.08.77-.03,0-.07.01-.1.02-.18-.5-.36-1-.53-1.51-.41-1.25-.87-2.5-1.49-3.66-1.5-2.85-3.2-5.55-5.58-7.7-1-.9-2.1-1.65-3.34-2.18-.4-.17-.46-.13-.46.32,0,1.07-.02,2.15-.02,3.22.04,5.72.04,11.44.13,17.16.07,4.16.25,8.31.43,12.47.14,3.39.32,6.78.54,10.17.19,2.88.44,5.75.68,8.62.14,1.64.28,3.28.46,4.92.22,2,.46,3.99.72,5.98.18,1.37.39,2.74.57,4.11.05.36.22,1.67.55,1.67,2.47,0,4.94-1.24,7.42-1.24h.52c.36.03.59.26.6.59,0,.35-.24.59-.62.61-.26,0-.52,0-.79,0h-27.15c-.24,0-.48,0-.71,0-.33-.04-.52-.23-.52-.57s.18-.58.52-.62c.14-.02.27,0,.41,0,2.81,0,3.15,1.23,5.96,1.23.36,0,3.12-.26,3.17-.62.22-1.57.44-4.37.64-5.95.24-1.94.47-3.89.68-5.84.18-1.68.33-3.35.46-5.03.23-3,.45-6,.65-9,.15-2.22.29-4.44.37-6.66.22-6.08.47-12.15.59-18.23.11-5.62.08-11.24.1-16.86,0-.63-.11-.67-.7-.39-2.22,1.07-3.96,2.71-5.45,4.64-1.98,2.56-3.52,5.38-4.62,8.43-.21.57-.39,1.15-.59,1.73-.03.08-.08.14-.16.26-.03-.13-.05-.2-.06-.27-.07-1.77-.25-3.55-.17-5.31.17-3.61,1.29-6.92,3.62-9.76.84-1.02,1.8-1.9,2.84-2.7.1-.07.19-.16.27-.35-.14,0-.29-.03-.43,0-1.57.41-3.15.78-4.69,1.28-1.62.53-3.23,1.13-4.79,1.8-3.61,1.56-6.94,3.58-9.72,6.4-.66.67-1.25,1.43-1.87,2.14-.12.14-.25.26-.44.46-.02-.17-.05-.25-.04-.32.28-2.97,1.3-5.65,3.14-8,2.23-2.87,4.98-5.11,8.29-6.6,2.13-.96,4.34-1.69,6.66-2.06.17-.03.34-.09.51-.14v-.12c-.24-.09-.47-.19-.71-.26-1.84-.5-3.67-1.05-5.53-1.48-1.7-.39-3.43-.65-5.15-.93-2.04-.34-4.09-.5-6.15-.45-1.53.04-3.06.23-4.59.36-.2.02-.39.09-.58.12-.03,0-.07-.02-.16-.05.09-.1.15-.18.22-.24,1.25-.93,2.46-1.92,3.86-2.63,1.3-.66,2.65-1.15,4.06-1.49,2.28-.55,4.6-.62,6.92-.34.83.1,1.65.27,2.46.45,1.92.43,3.84.92,5.61,1.82.91.47,1.77,1.02,2.66,1.53.06.04.12.08.19.12.03-.47-3.26-4.57-6.24-7.82-2.27-2.47-4.66-4.83-7.29-6.99.05-.11,0,.02.04-.09,3.11.71,6.05,1.83,8.81,3.44,3.26,1.91,5.99,4.37,8.15,7.47.16.22.29.46.45.69.06.09.16.16.32.3.03-.24.06-.38.07-.52.15-2.23.23-4.46.47-6.68.28-2.67.72-5.31,1.47-7.9.2-.68.41-1.36.63-2.03.04-.12.13-.21.26-.31,2.02,5.62,2.51,11.48,2.86,17.39,2.05-3.12,4.6-5.67,7.69-7.68,3.08-2,6.4-3.39,10.01-4.07h.02Z"/></g></svg>