<svg width="224" height="36" viewBox="0 0 224 36" fill="none" xmlns="http://www.w3.org/2000/svg"><path d="M.745 1.556c1.943 0 3.87-.007 5.783-.023 1.928-.015 3.693-.031 5.294-.047 1.602-.03 2.97-.07 4.105-.116 1.135-.047 1.905-.109 2.309-.187l-1.143 3.102a17.124 17.124 0 00-1.796-.373 33.937 33.937 0 00-2.169-.257c-.84-.093-1.81-.14-2.915-.14-.373 0-.824.016-1.352.047-.514.016-1.011.039-1.493.07l-1.703.093V16.46a86.744 86.744 0 004.338-.14c1.29-.078 2.387-.155 3.289-.233a44.144 44.144 0 002.798-.326l-.723 3.381a173.49 173.49 0 00-3.288-.396 71.93 71.93 0 00-3.149-.28 39.898 39.898 0 00-3.265-.14v14.623c1.835 0 3.522-.078 5.061-.233a56.423 56.423 0 004.035-.537 37.58 37.58 0 003.662-.77l-.677 3.779a22.106 22.106 0 00-.84-.047 347.14 347.14 0 00-2.705-.093c-.497 0-.972-.008-1.422-.024-.451 0-.856-.008-1.213-.023H.745v-.093c.093-.327.178-.731.256-1.213.093-.482.171-1.08.233-1.796a47.13 47.13 0 00.14-2.542c.031-.995.047-2.153.047-3.475V10.7c0-1.322-.016-2.472-.047-3.452a47.223 47.223 0 00-.14-2.565 17.78 17.78 0 00-.233-1.82A10.729 10.729 0 00.745 1.65v-.094zM29.08 32.948c1.834 0 3.521-.078 5.06-.233a56.434 56.434 0 004.035-.537 37.583 37.583 0 003.662-.77l-.677 3.779a22.131 22.131 0 00-.84-.047 347.628 347.628 0 00-2.705-.093c-.497 0-.971-.008-1.422-.024-.451 0-.855-.008-1.213-.023H24.16v-.093c.093-.327.178-.731.256-1.213.093-.482.171-1.08.233-1.796.063-.715.11-1.562.14-2.542.031-.995.047-2.153.047-3.475V10.7c0-1.322-.016-2.472-.047-3.452a47.226 47.226 0 00-.14-2.565 17.78 17.78 0 00-.233-1.82 10.738 10.738 0 00-.256-1.212v-.094h5.597v.094c-.093.326-.187.73-.28 1.212a25.205 25.205 0 00-.21 1.82c-.046.715-.093 1.57-.14 2.565-.03.98-.046 2.13-.046 3.452v22.249zM46.129 1.556c1.943 0 3.871-.007 5.784-.023 1.928-.015 3.692-.031 5.294-.047 1.601-.03 2.97-.07 4.104-.116 1.135-.047 1.905-.109 2.31-.187l-1.144 3.102a17.124 17.124 0 00-1.795-.373 33.932 33.932 0 00-2.17-.257c-.839-.093-1.81-.14-2.915-.14-.373 0-.824.016-1.352.047-.513.016-1.01.039-1.493.07l-1.702.093V16.46a86.742 86.742 0 004.338-.14c1.29-.078 2.386-.155 3.288-.233a44.144 44.144 0 002.799-.326l-.723 3.381c-1.073-.14-2.17-.272-3.289-.396a71.952 71.952 0 00-3.148-.28 39.898 39.898 0 00-3.265-.14v14.623c1.834 0 3.521-.078 5.06-.233a56.434 56.434 0 004.035-.537 37.583 37.583 0 003.662-.77l-.677 3.779a22.131 22.131 0 00-.84-.047 347.14 347.14 0 00-2.705-.093c-.497 0-.971-.008-1.422-.024-.451 0-.855-.008-1.213-.023H46.13v-.093c.093-.327.179-.731.256-1.213.094-.482.171-1.08.234-1.796.062-.715.108-1.562.14-2.542.03-.995.046-2.153.046-3.475V10.7c0-1.322-.015-2.472-.047-3.452a47.226 47.226 0 00-.14-2.565 17.78 17.78 0 00-.233-1.82 10.738 10.738 0 00-.256-1.212v-.094zm52.847 29.526c0 .171-.023.35-.07.536a.777.777 0 01-.256.467c-.7.528-1.462 1.018-2.286 1.469-.808.435-1.687.816-2.635 1.143-.949.326-1.975.575-3.079.746-1.088.187-2.262.28-3.521.28-2.83 0-5.411-.412-7.743-1.236-2.332-.84-4.338-2.021-6.017-3.545-1.664-1.524-2.954-3.35-3.872-5.48-.917-2.146-1.376-4.525-1.376-7.137 0-1.477.187-2.93.56-4.361.389-1.43.948-2.791 1.68-4.082a16.485 16.485 0 012.705-3.545 17.27 17.27 0 013.661-2.822 18.71 18.71 0 014.548-1.842c1.663-.45 3.46-.676 5.387-.676.746 0 1.508.039 2.286.116.777.063 1.547.164 2.309.304.761.124 1.492.28 2.192.466a22.27 22.27 0 012.029.63l1.586 4.314-.187.093a12.991 12.991 0 00-2.099-1.515 16.643 16.643 0 00-5.387-2.006 14.732 14.732 0 00-2.985-.303c-1.96 0-3.755.31-5.388.933-1.632.606-3.04 1.492-4.22 2.658-1.167 1.166-2.077 2.597-2.73 4.292-.653 1.694-.98 3.622-.98 5.783 0 2.38.312 4.587.934 6.624.622 2.037 1.547 3.801 2.775 5.294 1.228 1.492 2.76 2.666 4.594 3.521 1.85.84 4.004 1.26 6.46 1.26 1.089 0 2.06-.086 2.916-.257.855-.17 1.578-.38 2.169-.63.59-.264 1.034-.544 1.33-.84.31-.31.466-.59.466-.839v-.91c0-1.088-.016-2.028-.047-2.821a30.597 30.597 0 00-.14-2.053 19.938 19.938 0 00-.21-1.515c-.078-.42-.17-.809-.28-1.166v-.094h5.597v.094c-.093.326-.186.715-.28 1.166-.077.435-.147.956-.21 1.562a33.906 33.906 0 00-.14 2.146c-.03.808-.046 1.749-.046 2.822v.956zM128.595 35v-.093c.031-.078.054-.195.07-.35.015-.156.023-.296.023-.42 0-.482-.07-1.01-.21-1.586-.124-.59-.373-1.321-.746-2.192l-2.822-6.344c-.871-.03-2.029-.046-3.475-.046h-8.256c-1.135 0-2.161.015-3.078.046l-2.682 6.157a122.39 122.39 0 00-.747 1.89 5.725 5.725 0 00-.396 2.075c0 .202.015.373.047.513.031.125.062.21.093.257V35h-4.758v-.093c.28-.296.63-.817 1.05-1.563.419-.762.878-1.71 1.376-2.845L117.447.857h1.866l12.664 28.5c.295.668.598 1.32.909 1.958.327.622.63 1.182.91 1.68.28.497.528.917.746 1.259.218.342.365.56.443.653V35h-6.39zm-15.113-13.037h2.776c.948-.015 1.873-.023 2.775-.023.917-.016 1.796-.024 2.635-.024.84-.015 1.602-.03 2.286-.046L117.4 7.06l-6.436 14.903h2.518zm25.701-20.407l24.022 25.561V10.7c0-1.322-.016-2.472-.047-3.452a47.317 47.317 0 00-.14-2.565c-.062-.731-.14-1.338-.233-1.82a10.62 10.62 0 00-.257-1.212v-.094h4.152v.094c-.094.326-.179.73-.257 1.212a24.917 24.917 0 00-.21 1.82c-.062.715-.109 1.57-.14 2.565-.031.98-.047 2.13-.047 3.452v24.767h-.816L141.189 9.93v15.952c0 1.322.015 2.48.046 3.475.031.98.078 1.827.14 2.542.062.715.132 1.314.21 1.796.078.482.163.886.257 1.213V35h-4.152v-.093c.094-.327.179-.731.257-1.213.093-.482.171-1.08.233-1.796.062-.715.109-1.562.14-2.542.031-.995.047-2.153.047-3.475V10.7c0-1.322-.016-2.472-.047-3.452a47.317 47.317 0 00-.14-2.565c-.062-.731-.14-1.338-.233-1.82a10.62 10.62 0 00-.257-1.212v-.094h1.493zm61.057 5.131l-.21.094c-1.213-1.12-2.674-2.014-4.385-2.682-1.694-.669-3.56-1.003-5.597-1.003-1.959 0-3.755.31-5.387.933-1.633.606-3.04 1.492-4.222 2.658-1.166 1.166-2.075 2.597-2.728 4.292-.653 1.694-.98 3.622-.98 5.783 0 2.38.311 4.602.933 6.67.622 2.053 1.547 3.833 2.775 5.341 1.229 1.508 2.76 2.698 4.595 3.568 1.85.855 4.003 1.283 6.46 1.283.886 0 1.772-.093 2.659-.28a12.778 12.778 0 002.542-.816 13.544 13.544 0 002.309-1.33 12.14 12.14 0 001.982-1.795l.257.163-1.866 4.758c-1.166.45-2.457.793-3.872 1.026a24.194 24.194 0 01-4.244.373c-2.877 0-5.512-.412-7.906-1.236-2.379-.84-4.432-2.021-6.157-3.545a16.183 16.183 0 01-4.012-5.48c-.948-2.146-1.422-4.525-1.422-7.137 0-1.477.186-2.93.559-4.361a17.64 17.64 0 011.68-4.082 16.451 16.451 0 012.705-3.545 17.277 17.277 0 013.661-2.822 18.717 18.717 0 014.548-1.842c1.664-.45 3.46-.676 5.388-.676 3 0 5.783.458 8.349 1.376l1.586 4.314zm5.27-5.13c1.944 0 3.872-.008 5.784-.024 1.928-.015 3.693-.031 5.294-.047 1.602-.03 2.97-.07 4.105-.116 1.135-.047 1.905-.109 2.309-.187l-1.143 3.102a17.129 17.129 0 00-1.796-.373 33.968 33.968 0 00-2.169-.257 26.71 26.71 0 00-2.915-.14c-.373 0-.824.016-1.353.047-.513.016-1.01.039-1.492.07l-1.703.093V16.46a86.706 86.706 0 004.338-.14c1.291-.078 2.387-.155 3.289-.233a44.095 44.095 0 002.798-.326l-.723 3.381c-1.073-.14-2.169-.272-3.288-.396a71.979 71.979 0 00-3.149-.28 39.892 39.892 0 00-3.265-.14v14.623c1.835 0 3.522-.078 5.061-.233a56.491 56.491 0 004.035-.537 37.584 37.584 0 003.661-.77l-.676 3.779a22.1 22.1 0 00-.84-.047 348.262 348.262 0 00-2.705-.093c-.497 0-.972-.008-1.423-.024-.45 0-.855-.008-1.212-.023H205.51v-.093c.094-.327.179-.731.257-1.213.093-.482.171-1.08.233-1.796.062-.715.109-1.562.14-2.542.031-.995.047-2.153.047-3.475V10.7c0-1.322-.016-2.472-.047-3.452a47.317 47.317 0 00-.14-2.565c-.062-.731-.14-1.338-.233-1.82a10.62 10.62 0 00-.257-1.212v-.094z" fill="#fff"/></svg>