<svg width="67" height="67" viewBox="0 0 67 67" fill="none" xmlns="http://www.w3.org/2000/svg"><path d="M41.195 53.014a.385.385 0 00.5.209.38.38 0 00.205-.5l-.962-2.314c-.233.105-.466.2-.704.295l.961 2.314v-.005zM33.82 14.975a.354.354 0 00.062-.2V13.06a.382.382 0 00-.76 0v1.715a.41.41 0 00.06.2h.638zM33.511 54.568c-.209 0-.38.171-.38.38v4.567c0 .21.176.071.385.071v.31c.21 0 .38-.172.38-.38v-4.568c0-.209-.175-.38-.385-.38zM24.31 9.315a.38.38 0 00-.504-.195c-.195.086-.28.309-.195.504l2.93 6.71c.234-.095.472-.19.715-.275l-2.945-6.74v-.004zM43.14 55.713a.381.381 0 00-.704.295l1.389 3.35a.386.386 0 00.5.21.38.38 0 00.204-.5l-1.389-3.35v-.005zM53.617 25.554a.38.38 0 10-.295-.704l-2.864 1.184c.105.233.2.466.295.703l2.864-1.183zM52.804 41.86a.385.385 0 00.5-.21.38.38 0 00-.205-.498l-2.341-.97c-.09.238-.19.47-.29.703l2.34.97-.004.005zM52.014 33.78a.355.355 0 00.2.062h8.825c.209 0 .38-.171.38-.38 0-.21-.171-.38-.38-.38h-8.825a.395.395 0 00-.196.061v.637h-.004zM44.478 7.993a.381.381 0 00-.704-.295l-3.535 8.527c.238.09.471.19.704.29l3.535-8.526v.004zM11.641 33.081h-1.417c.209 0 .38.172.38.38 0 .21-.171.38-.38.38h1.417c.21 0 .38-.17.38-.38 0-.208-.17-.38-.38-.38zM8.492 22.702a.381.381 0 10-.295.704l8.055 3.331c.095-.237.19-.47.29-.703l-8.055-3.332h.005zM21.96 5.84a.384.384 0 00.505.196.38.38 0 00.195-.504l-1.26-2.89a.38.38 0 00-.505-.194.38.38 0 00-.195.503l1.26 2.89zM45 5.727a.386.386 0 00.5-.21l.89-2.138a.38.38 0 10-.704-.295l-.89 2.14a.38.38 0 00.205.498v.005zM33.502 10.75c.209 0 .38-.171.38-.38V.38a.382.382 0 00-.76 0v9.99c0 .209.17.38.38.38zM54.816 24.646a.386.386 0 00.5.21l8.939-3.698a.38.38 0 10-.295-.704l-8.94 3.698a.38.38 0 00-.204.499v-.005zM54.426 12.946c.1 0 .195-.038.271-.114l2.498-2.496a.381.381 0 000-.537.382.382 0 00-.538 0l-2.498 2.495a.381.381 0 00.272.652h-.005zM9.843 33.462c0-.21.171-.38.38-.38H5.671c-.21 0-.381.17-.381.38 0 .209.171.38.38.38h4.553a.382.382 0 01-.38-.38zM5.08 21.29l-1.831-.76a.381.381 0 10-.295.704l1.832.76a.385.385 0 00.5-.21.38.38 0 00-.206-.498v.005zM13.117 13.64a.394.394 0 00.542 0 .381.381 0 000-.538l-3.302-3.298a.382.382 0 00-.537 0 .381.381 0 000 .537l3.301 3.298h-.004z" fill="#fff"/><path d="M10.224 33.842a.38.38 0 100-.76.38.38 0 000 .76zM2.664 33.081H.381c-.21 0-.381.172-.381.38 0 .21.171.38.38.38h2.284c.21 0 .38-.17.38-.38 0-.208-.17-.38-.38-.38zM46.86 20.66l5.048-5.043a.381.381 0 000-.537.382.382 0 00-.537 0l-5.048 5.042c.181.176.362.357.538.542v-.005zM59.806 43.932l-5.1-2.11a.382.382 0 10-.295.703l5.1 2.11a.386.386 0 00.5-.21.38.38 0 00-.205-.498v.005zM52.351 51.754a.382.382 0 00-.537 0 .381.381 0 000 .537l1.87 1.868a.379.379 0 00.542 0 .381.381 0 000-.537l-1.87-1.868h-.005zM46.86 46.27c-.175.18-.356.36-.542.537l3.935 3.93c.076.076.171.11.271.11s.195-.039.271-.11a.381.381 0 000-.537l-3.934-3.93zM20.69 20.126l-4.267-4.263a.382.382 0 00-.538 0 .381.381 0 000 .537l4.268 4.263a18.9 18.9 0 01.537-.537zM14.996 33.081h-.847c-.21 0-.38.172-.38.38 0 .21.17.38.38.38h.847a20.078 20.078 0 010-.76zM62.337 44.982l-1.16-.48a.381.381 0 10-.295.703l1.16.48a.386.386 0 00.5-.21.38.38 0 00-.205-.498v.005zM66.619 33.081h-3.04c-.21 0-.38.172-.38.38 0 .21.17.38.38.38h3.04c.21 0 .38-.17.38-.38 0-.208-.17-.38-.38-.38zM49.906 26.676l.015.025c-.005-.015-.015-.03-.02-.044v.02h.005z" fill="#fff"/><path d="M15.461 31.618a18.04 18.04 0 011.147-4.734l-.352-.142c-.595 1.52-1 3.141-1.175 4.842-.053.5-.076.998-.086 1.502h.38a17 17 0 01.086-1.463v-.005zM20.415 20.93l-.262-.261a18.528 18.528 0 00-3.606 5.37l.347.142a18.016 18.016 0 013.52-5.251zM35.347 15.441c1.666.171 3.255.566 4.739 1.145l.147-.356a18.678 18.678 0 00-4.848-1.17 19.305 19.305 0 00-1.565-.09.368.368 0 01-.637-.004 18.394 18.394 0 00-5.928 1.079l.152.347a18.083 18.083 0 017.94-.956v.005zM40.79 50.048l.147.356a18.637 18.637 0 004.254-2.6c.39-.318.765-.655 1.122-.998l-.27-.27a18.215 18.215 0 01-5.258 3.512h.005zM50.397 26.885a18.041 18.041 0 010 13.155l.356.147c.6-1.535.995-3.16 1.17-4.843.053-.523.081-1.046.091-1.564a.371.371 0 01-.186-.318c0-.138.077-.252.186-.318a18.319 18.319 0 00-1.256-6.407l-.352.148h-.01zM46.59 45.999l.272.27a18.26 18.26 0 003.601-5.374l-.357-.147a18.11 18.11 0 01-3.52 5.251h.005zM46.047 20.393l.271-.271a18.282 18.282 0 00-5.38-3.598l-.148.357c1.97.86 3.74 2.062 5.257 3.517v-.005zM50.106 26.181l.01-.005.346-.142a18.608 18.608 0 00-2.602-4.249c-.319-.39-.656-.765-.999-1.121l-.271.27a18.096 18.096 0 013.516 5.252v-.005zM26.694 16.672l-.152-.342a18.667 18.667 0 00-5.852 3.797l.262.261a18.199 18.199 0 015.738-3.716h.004zM15.376 33.847h-.38c.009.484.032.97.08 1.45.019.208.21.36.419.341a.36.36 0 00.17-.066l-.208-.314a17.284 17.284 0 01-.077-1.411h-.004zM31.656 51.483c-2.44-.247-4.72-.969-6.75-2.067l-.21-.313a.383.383 0 00-.128.133.384.384 0 00.157.518 18.48 18.48 0 006.893 2.11 18.33 18.33 0 008.616-1.164l-.147-.362a18.133 18.133 0 01-8.43 1.145z" fill="#fff"/><path d="M15.376 33.081h-.38c-.005.252-.005.51 0 .76h.38c-.004-.25 0-.508 0-.76zM16.898 26.181l-.347-.142c-.1.232-.2.465-.29.703l.352.142c.09-.237.19-.47.29-.703h-.005zM46.86 46.27l-.27-.272c-.177.186-.358.362-.538.538l.27.27c.186-.175.367-.356.543-.537h-.005zM20.957 20.393l-.261-.262c-.186.176-.362.357-.538.537l.262.262c.176-.186.357-.361.537-.537zM40.087 50.338l.147.361c.238-.09.471-.19.704-.294l-.147-.357c-.233.105-.466.2-.704.29zM33.501 15.156a.378.378 0 00.32-.18h-.638c.066.108.18.184.318.184v-.004zM50.105 40.747l.357.148c.1-.233.2-.466.29-.704l-.356-.147c-.09.238-.19.47-.29.703zM46.59 20.93l.27-.271a19.098 19.098 0 00-.537-.542l-.271.27c.185.176.361.357.537.538v.004zM50.105 26.181c.1.233.2.466.29.703h.01l.352-.147c-.09-.238-.19-.47-.295-.703l-.347.142-.01.005zM40.796 16.876l.147-.357c-.233-.1-.466-.2-.704-.29l-.147.357c.238.09.476.19.704.29zM27.408 16.4l-.152-.346c-.238.085-.476.18-.714.275l.152.343c.238-.096.471-.19.714-.276v.005zM51.828 33.462c0 .138.076.252.186.318v-.636a.371.371 0 00-.186.318zM15.834 35.22a18.824 18.824 0 01-.076-1.373h-.381c.01.475.033.945.076 1.411l.21.314a.375.375 0 00.17-.352z" fill="#fff"/><path d="M50.105 26.181a18.096 18.096 0 00-3.515-5.251l-.272.27a17.746 17.746 0 013.582 5.46.378.378 0 01.205-.474v-.005zM16.898 26.181l.357.147a17.724 17.724 0 013.44-5.123l-.276-.275a18.11 18.11 0 00-3.52 5.251zM31.657 51.483a18.01 18.01 0 008.43-1.145l-.143-.347a17.673 17.673 0 01-8.25 1.112 17.648 17.648 0 01-6.608-2.02.372.372 0 00-.39.024l.21.313a18.15 18.15 0 006.75 2.068v-.005zM44.71 47.215a17.863 17.863 0 01-4.063 2.486l.143.347a18.119 18.119 0 005.257-3.513l-.271-.27a16.77 16.77 0 01-1.066.945v.005zM51.543 35.306a17.956 17.956 0 00-1.146-8.421.359.359 0 01-.138.028.386.386 0 01-.338-.209 17.611 17.611 0 011.242 8.564 17.983 17.983 0 01-1.114 4.629l.352.142c.58-1.487.976-3.07 1.147-4.733h-.005zM49.758 40.6a17.575 17.575 0 01-3.435 5.128l.267.266a18.112 18.112 0 003.52-5.251l-.352-.143zM20.957 20.393l.276.275a17.796 17.796 0 015.619-3.635l-.157-.357a18.176 18.176 0 00-5.738 3.717zM15.463 31.618c-.053.49-.076.979-.086 1.463h.38a17.711 17.711 0 011.204-6.055l-.357-.147a18.09 18.09 0 00-1.146 4.734l.005.005zM40.795 16.876l-.143.352a17.598 17.598 0 015.134 3.43l.266-.265a18.129 18.129 0 00-5.257-3.517zM35.347 15.441a18.082 18.082 0 00-7.94.955l.157.357a17.58 17.58 0 017.745-.932c1.613.167 3.164.547 4.634 1.112l.143-.351a18.14 18.14 0 00-4.739-1.146v.005zM45.781 46.265l.271.27c.186-.175.362-.356.538-.536l-.266-.267c-.176.181-.357.362-.543.537v-.004z" fill="#fff"/><path d="M16.608 26.884l.357.148c.09-.238.19-.47.29-.704l-.356-.147c-.1.233-.2.466-.29.703zM15.377 33.847h.38a20.506 20.506 0 010-.76h-.38c-.005.256-.005.508 0 .76zM26.694 16.671l.157.357c.238-.095.471-.19.714-.276l-.157-.357c-.238.086-.476.181-.714.276zM40.086 16.586l-.143.352c.238.09.471.19.705.29l.142-.352c-.233-.1-.466-.2-.704-.29zM39.943 49.99l.143.347c.238-.09.471-.19.704-.29l-.142-.346c-.234.104-.467.2-.705.294v-.004zM20.414 20.93l.276.275c.176-.185.357-.36.538-.537l-.276-.275c-.186.175-.362.356-.538.537zM46.048 20.393l-.267.266c.181.176.362.356.538.542l.271-.271a19.032 19.032 0 00-.538-.537h-.004zM50.257 26.913a.36.36 0 00.138-.029c-.09-.237-.19-.47-.29-.703a.378.378 0 00-.205.475c.005.015.015.029.02.043a.38.38 0 00.337.21v.004zM50.396 40.044l-.352-.143c-.09.238-.19.47-.29.704l.352.142c.1-.233.2-.465.29-.703z" fill="#fff"/><path d="M33.502 66.929C15.03 66.929.005 51.916.005 33.467.005 15.017 15.034 0 33.502 0 51.971 0 67 15.013 67 33.462c0 18.449-15.03 33.462-33.498 33.462v.005zm0-66.169C15.452.76.766 15.431.766 33.462c0 18.03 14.686 32.701 32.736 32.701 18.05 0 32.737-14.67 32.737-32.701C66.239 15.432 51.552.76 33.502.76z" fill="#fff"/><path d="M66.628 33.861a.382.382 0 00-.4.361c-.057 1.084-.509 3.061-1.313 5.718-.604 2-1.38 3.892-2.307 5.622-7.265 13.592-16.999 14.461-22.227 14.76-6.827.395-15.072-2.893-15.823-12.588-.305-3.945.447-6.968 2.245-8.978a9.827 9.827 0 012.807-2.167c.357-.185 1.422-.656.067-1.297-.5-.238-1.48-.452-2.022-.566a36.342 36.342 0 00-3.073-.494c-.51-.057-.99-.1-1.485-.133a24.881 24.881 0 00-1.446-.052c-.48-.005-.942 0-1.413.023-.471.024-.918.053-1.375.1a21.786 21.786 0 00-3.915.756 20.734 20.734 0 00-2.432.884c-.395.176-.78.356-1.16.551-.381.195-.757.409-1.128.627-.371.219-.737.457-1.09.704-.352.247-.713.508-1.056.774-.347.271-.69.556-1.018.851-.328.295-.666.608-.985.922a23.47 23.47 0 00-.946.998c-.305.342-.619.703-.914 1.07-.3.37-.594.755-.875 1.14-.28.385-.571.803-.842 1.212-.052.076-.1.157-.152.233a.383.383 0 00.114.527.384.384 0 00.528-.114c2.25-3.483 5.062-6.15 8.354-7.927 4.895-2.638 10.7-3.255 17.284-1.844-11.49.37-16.318 5.55-18.221 8.783-1.965 3.34-2.622 7.432-1.808 11.225.038.18.195.3.371.3.029 0 .052 0 .08-.01a.384.384 0 00.296-.452 15.08 15.08 0 011.717-10.678c1.718-2.928 5.966-7.514 15.833-8.308-4.039 1.592-7.145 5.152-8.72 8.735-2.308 5.242-2.726 12.599 1.541 17.214a11.224 11.224 0 002.075 1.753C25.067 66.254 28.995 67 32.868 67c3.411 0 6.78-.58 9.61-1.283a.378.378 0 00.276-.461.379.379 0 00-.462-.276c-10.666 2.652-16.808.642-20.08-1.516a10.375 10.375 0 01-1.932-1.635c-2.907-3.146-4.468-9.433-1.404-16.39 1.599-3.632 4.824-7.239 9.016-8.589a8.253 8.253 0 00-1.646 1.398C24.3 40.42 23.477 43.632 23.8 47.8c.343 4.425 2.279 7.97 5.59 10.256 2.612 1.801 6.056 2.98 9.786 2.98.419 0 .842-.015 1.266-.038 4.995-.29 15.376-1.103 22.84-15.075a31.86 31.86 0 002.365-5.76c.57-1.891 1.27-4.453 1.342-5.898a.382.382 0 00-.362-.399v-.005z" fill="#fff"/><path d="M40.139 20.65c-1.68 1.368-3.073 2.993-4.377 4.7l.024.033c.038-.02.076-.034.11-.052.437-.286.875-.57 1.374-.718.956-.285 1.913-.537 2.912-.523.647.01 1.28.114 1.898.319.685.228 1.28.603 1.836 1.05.072.057.148.114.21.2-.038 0-.081.004-.12 0-.323-.058-.637-.157-.965-.157-1.018-.005-2.04.023-3.045.218-.628.124-1.256.247-1.879.4-.433.104-.852.246-1.28.37-.014 0-.028.014-.076.043.072.024.12.047.167.057.79.138 1.541.37 2.26.713a7.245 7.245 0 012.255 1.696c.461.514.842 1.084 1.06 1.735.1.304.153.618.224.931.024.114.038.233.052.352-.01.005-.019.014-.028.02-.043-.044-.086-.082-.124-.13a7.773 7.773 0 00-1.146-1.192 10.326 10.326 0 00-2.018-1.293c-.699-.351-1.422-.641-2.169-.87-.466-.142-.942-.251-1.413-.375-.052-.014-.114-.005-.171-.01 0 .01-.005.02-.01.034.086.071.171.138.257.21a4.988 4.988 0 011.68 2.475c.294.955.29 1.925.195 2.904-.01.08-.02.161-.029.247-.01 0-.024 0-.033.005-.057-.162-.12-.324-.172-.485a7.868 7.868 0 00-.475-1.174c-.48-.912-1.028-1.777-1.794-2.471a3.885 3.885 0 00-1.07-.699c-.129-.057-.148-.043-.148.105 0 .342-.01.689-.005 1.031.01 1.835.01 3.669.043 5.503.024 1.336.081 2.667.138 3.997.048 1.089.105 2.177.176 3.265.062.922.143 1.844.22 2.766.042.527.09 1.055.147 1.578.071.641.147 1.278.228 1.92.057.442.128.879.185 1.321.015.114.072.537.176.537.795 0 1.59-.394 2.38-.394h.166c.119.01.19.085.19.19 0 .109-.076.19-.2.195h-9.201c-.104-.01-.166-.072-.166-.186s.057-.185.166-.2c.043-.004.09 0 .133 0 .904 0 1.014.395 1.913.395.114 0 1.004-.085 1.018-.2.072-.503.143-1.402.205-1.905.076-.623.152-1.25.218-1.873.058-.537.11-1.074.148-1.616.076-.96.143-1.924.21-2.884.047-.713.095-1.421.118-2.134.072-1.949.148-3.897.19-5.846.039-1.8.024-3.602.034-5.408 0-.2-.038-.214-.224-.123-.713.342-1.27.87-1.75 1.487a9.799 9.799 0 00-1.485 2.704c-.066.185-.128.37-.19.556-.01.024-.029.043-.052.086-.01-.043-.02-.062-.02-.086-.018-.565-.08-1.136-.052-1.701.057-1.16.414-2.22 1.161-3.127.267-.328.576-.609.913-.865a.224.224 0 00.086-.114c-.047 0-.095-.01-.138 0-.504.133-1.009.247-1.503.408-.519.172-1.037.362-1.537.58-1.16.5-2.226 1.145-3.12 2.053-.215.214-.4.456-.6.69-.038.042-.081.085-.138.147-.005-.053-.015-.081-.015-.105.09-.95.42-1.81 1.01-2.566.718-.917 1.598-1.64 2.663-2.115a8.433 8.433 0 012.136-.66c.058-.01.11-.03.167-.048v-.038c-.076-.029-.152-.062-.228-.086-.59-.161-1.18-.337-1.775-.475-.547-.123-1.099-.21-1.656-.3a10.177 10.177 0 00-1.974-.142c-.49.014-.98.071-1.47.114-.062.005-.124.029-.186.038-.01 0-.023-.005-.052-.014.029-.033.048-.057.072-.076.4-.3.79-.613 1.236-.846.414-.214.852-.37 1.304-.48a6.24 6.24 0 012.222-.11c.266.034.528.086.79.143.618.138 1.232.295 1.798.585.29.152.57.328.851.49.02.009.038.023.062.037.01-.152-1.046-1.463-2.003-2.509a23.22 23.22 0 00-2.34-2.243c.014-.033 0 .005.014-.029.999.228 1.941.585 2.826 1.103a8.192 8.192 0 012.617 2.395c.052.071.095.147.142.219.02.028.053.047.1.095.01-.076.02-.124.02-.167.047-.712.075-1.43.151-2.143.09-.855.233-1.706.471-2.533.062-.219.134-.437.2-.651a.236.236 0 01.086-.1c.652 1.801.804 3.683.918 5.58a8.347 8.347 0 012.47-2.462 8.89 8.89 0 013.215-1.307l.005-.01z" fill="#fff"/></svg>