<svg width="200" height="36" viewBox="0 0 200 36" fill="none" xmlns="http://www.w3.org/2000/svg"><path d="M4.93 32.948c1.835 0 3.521-.078 5.06-.233a56.42 56.42 0 004.035-.537 37.583 37.583 0 003.662-.77l-.676 3.779a22.119 22.119 0 00-.84-.047 347.068 347.068 0 00-2.705-.093c-.498 0-.972-.008-1.423-.024-.45 0-.855-.008-1.213-.023H.01v-.093c.093-.327.179-.731.257-1.213.093-.482.17-1.08.233-1.796.062-.715.109-1.562.14-2.542.03-.995.046-2.153.046-3.475V10.7C.685 9.377.67 8.227.64 7.247a47.226 47.226 0 00-.14-2.565 17.78 17.78 0 00-.233-1.82A10.73 10.73 0 00.009 1.65v-.094h5.597v.094c-.093.326-.186.73-.28 1.212a25.178 25.178 0 00-.21 1.82c-.046.715-.093 1.57-.14 2.565-.03.98-.046 2.13-.046 3.452v22.249zm17.258 1.959c.093-.327.179-.731.257-1.213.077-.482.147-1.08.21-1.796.062-.715.108-1.562.14-2.542.03-.995.046-2.153.046-3.475V10.7c0-1.322-.015-2.472-.047-3.452a47.226 47.226 0 00-.14-2.565 25.205 25.205 0 00-.21-1.82 10.716 10.716 0 00-.256-1.212v-.094h5.574v.094c-.093.326-.187.73-.28 1.212a25.205 25.205 0 00-.21 1.82c-.046.715-.093 1.57-.14 2.565-.03.98-.046 2.13-.046 3.452V25.88c0 1.322.015 2.48.046 3.475.047.98.094 1.827.14 2.542.062.715.132 1.314.21 1.796.093.482.187.886.28 1.213V35h-5.574v-.093zm17.398-9.026c0 1.322.016 2.48.047 3.475.046.98.093 1.827.14 2.542.062.715.132 1.314.21 1.796.093.482.186.886.28 1.213V35h-5.598v-.093c.093-.327.179-.731.257-1.213.093-.482.17-1.08.233-1.796.062-.715.109-1.562.14-2.542.031-.995.047-2.153.047-3.475V10.7c0-1.322-.016-2.472-.047-3.452a47.226 47.226 0 00-.14-2.565 17.78 17.78 0 00-.233-1.82 10.738 10.738 0 00-.257-1.212v-.094h3.918c1.322-.015 2.605-.023 3.848-.023 1.244-.015 2.426-.031 3.545-.047 1.12-.03 2.13-.054 3.032-.07.902-.03 1.664-.062 2.286-.093a15.286 15.286 0 001.33-.14L51.48 4.285a17.124 17.124 0 00-1.795-.373 33.937 33.937 0 00-2.17-.257 26.723 26.723 0 00-4.314-.093c-.56.016-1.112.039-1.656.07-.622.031-1.275.062-1.959.093v11.778a91.715 91.715 0 004.408-.14 157.59 157.59 0 003.452-.233 57.01 57.01 0 003.032-.327l-.7 3.382c-1.166-.14-2.348-.272-3.545-.396a83.255 83.255 0 00-3.312-.28 42.49 42.49 0 00-3.335-.14v8.512zM56.914 1.556c1.944 0 3.872-.007 5.784-.023 1.928-.015 3.693-.031 5.294-.047 1.602-.03 2.97-.07 4.105-.116 1.135-.047 1.904-.109 2.309-.187l-1.143 3.102a17.124 17.124 0 00-1.796-.373 33.937 33.937 0 00-2.169-.257c-.84-.093-1.811-.14-2.915-.14-.373 0-.824.016-1.353.047-.513.016-1.01.039-1.492.07l-1.703.093V16.46a86.746 86.746 0 004.338-.14 130.72 130.72 0 003.288-.233 44.139 44.139 0 002.8-.326l-.724 3.381a173.49 173.49 0 00-3.288-.396 71.961 71.961 0 00-3.149-.28 39.9 39.9 0 00-3.265-.14v14.623c1.835 0 3.522-.078 5.061-.233a56.419 56.419 0 004.035-.537 37.583 37.583 0 003.661-.77l-.676 3.779a22.119 22.119 0 00-.84-.047 346.51 346.51 0 00-2.705-.093c-.498 0-.972-.008-1.423-.024-.45 0-.855-.008-1.212-.023H56.914v-.093c.094-.327.18-.731.257-1.213.093-.482.17-1.08.233-1.796.062-.715.109-1.562.14-2.542.031-.995.047-2.153.047-3.475V10.7c0-1.322-.016-2.472-.047-3.452a47.215 47.215 0 00-.14-2.565 17.78 17.78 0 00-.233-1.82 10.719 10.719 0 00-.257-1.212v-.094zm37.362 5.318h-.513a6.272 6.272 0 00-.607-1.213 5.035 5.035 0 00-1.072-1.26c-.436-.404-.972-.738-1.61-1.002-.621-.264-1.36-.397-2.215-.397-.762 0-1.438.117-2.03.35-.59.233-1.088.56-1.492.98-.388.42-.684.917-.886 1.492a5.738 5.738 0 00-.303 1.913c0 1.12.31 2.192.933 3.218.637 1.01 1.43 2.014 2.379 3.009a56.62 56.62 0 003.078 2.985 38.57 38.57 0 013.078 3.102 17.2 17.2 0 012.356 3.381 7.751 7.751 0 01.956 3.779c0 1.01-.179 2.029-.536 3.055a7.726 7.726 0 01-1.61 2.728c-.73.809-1.67 1.47-2.821 1.983-1.15.497-2.52.746-4.105.746-.886 0-1.734-.085-2.542-.257a17.003 17.003 0 01-2.216-.583 16.763 16.763 0 01-1.819-.793c-.528-.28-.964-.536-1.306-.77l.537-5.153h.583c.17.73.45 1.43.84 2.099a7.71 7.71 0 001.422 1.749 7.403 7.403 0 001.959 1.212c.73.296 1.531.444 2.402.444.793 0 1.5-.117 2.122-.35a5.068 5.068 0 001.633-1.003c.45-.435.793-.948 1.026-1.54.249-.59.373-1.235.373-1.935 0-.98-.179-1.881-.536-2.705a10.37 10.37 0 00-1.423-2.38 18.277 18.277 0 00-1.982-2.168c-.73-.7-1.485-1.4-2.262-2.099a76.038 76.038 0 01-2.286-2.192 19.138 19.138 0 01-1.982-2.38 12.926 12.926 0 01-1.4-2.728c-.357-.98-.536-2.052-.536-3.218 0-1.228.233-2.332.7-3.312a8.164 8.164 0 011.889-2.542 8.566 8.566 0 012.682-1.61A8.699 8.699 0 0188.212.95c.778 0 1.493.062 2.146.187.653.124 1.236.272 1.749.443.529.17.987.342 1.376.513l.956.42-.163 4.36zm16.582-3.265c-1.835 0-3.491.085-4.968.256a58.403 58.403 0 00-3.825.513c-1.243.234-2.355.49-3.335.77l.677-3.778c.186.015.466.031.839.047.373.015.785.03 1.236.046l1.446.047c.513 0 .995.008 1.446.023.451 0 .848.008 1.19.023h14.832c.358-.015.762-.023 1.213-.023.451-.015.925-.023 1.423-.023a348.634 348.634 0 002.705-.093c.373-.016.653-.032.84-.047l.676 3.778a39.142 39.142 0 00-3.358-.77 58.403 58.403 0 00-3.825-.513c-1.477-.17-3.133-.256-4.968-.256V25.88c0 1.322.016 2.48.047 3.475.047.98.093 1.827.14 2.542.062.715.132 1.314.21 1.796.093.482.186.886.28 1.213V35h-5.574v-.093c.093-.327.179-.731.256-1.213.078-.482.148-1.08.21-1.796.062-.715.109-1.562.14-2.542.031-.995.047-2.153.047-3.475V3.61zm33.373 15.346v6.926c0 1.322.016 2.48.047 3.475.031.98.078 1.827.14 2.542.062.715.132 1.314.21 1.796.093.482.186.886.28 1.213V35h-5.598v-.093c.094-.327.179-.731.257-1.213.093-.482.163-1.08.21-1.796.062-.715.109-1.562.14-2.542.046-.995.07-2.153.07-3.475v-6.46l-10.425-14.18a19.919 19.919 0 00-1.073-1.329 13.477 13.477 0 00-.979-1.05 11.214 11.214 0 00-.84-.77 8.43 8.43 0 00-.583-.442v-.094h7.066c0 .358.148.949.444 1.773.311.808.862 1.765 1.655 2.869l7.65 10.471 7.486-10.938c.265-.389.529-.785.793-1.19.265-.404.506-.792.723-1.165.218-.374.389-.716.513-1.027.14-.31.21-.575.21-.793h4.548v.094c-.342.295-.801.738-1.376 1.33-.575.574-1.197 1.344-1.866 2.308l-9.702 13.667zm20.967 13.993c1.834 0 3.521-.078 5.061-.233a56.379 56.379 0 004.034-.537 37.608 37.608 0 003.662-.77l-.677 3.779a22.02 22.02 0 00-.839-.047 337.356 337.356 0 00-2.706-.093c-.497 0-.971-.008-1.422-.024-.451 0-.855-.008-1.213-.023h-10.821v-.093c.093-.327.179-.731.256-1.213.094-.482.171-1.08.234-1.796a47.33 47.33 0 00.139-2.542c.032-.995.047-2.153.047-3.475V10.7c0-1.322-.015-2.472-.047-3.452a47.426 47.426 0 00-.139-2.565 17.78 17.78 0 00-.234-1.82 10.642 10.642 0 00-.256-1.212v-.094h5.597v.094c-.093.326-.187.73-.28 1.212a24.917 24.917 0 00-.21 1.82c-.046.715-.093 1.57-.14 2.565-.031.98-.046 2.13-.046 3.452v22.249zm17.048-31.392c1.943 0 3.871-.007 5.784-.023 1.928-.015 3.692-.031 5.294-.047 1.601-.03 2.969-.07 4.104-.116 1.135-.047 1.905-.109 2.309-.187l-1.142 3.102a17.183 17.183 0 00-1.796-.373 33.968 33.968 0 00-2.169-.257c-.84-.093-1.811-.14-2.915-.14-.374 0-.824.016-1.353.047-.513.016-1.011.039-1.493.07l-1.702.093V16.46a86.786 86.786 0 004.338-.14c1.29-.078 2.386-.155 3.288-.233a44.22 44.22 0 002.799-.326l-.723 3.381c-1.073-.14-2.169-.272-3.289-.396a71.926 71.926 0 00-3.148-.28 39.892 39.892 0 00-3.265-.14v14.623c1.835 0 3.521-.078 5.061-.233a56.379 56.379 0 004.034-.537 37.608 37.608 0 003.662-.77l-.676 3.779a22.226 22.226 0 00-.84-.047 348.262 348.262 0 00-2.705-.093c-.498 0-.972-.008-1.423-.024-.451 0-.855-.008-1.213-.023h-10.821v-.093c.093-.327.179-.731.256-1.213.094-.482.172-1.08.234-1.796.062-.715.109-1.562.14-2.542.031-.995.046-2.153.046-3.475V10.7c0-1.322-.015-2.472-.046-3.452a47.317 47.317 0 00-.14-2.565c-.062-.731-.14-1.338-.234-1.82a10.642 10.642 0 00-.256-1.212v-.094z" fill="#fff"/></svg>