<svg width="307" height="15" viewBox="0 0 307 15" fill="none" xmlns="http://www.w3.org/2000/svg"><path d="M7.045.902c1.583 0 2.889.392 3.919 1.177 1.03.773 1.741 1.834 2.134 3.183h-1.766a4.272 4.272 0 00-1.6-2.042c-.737-.515-1.638-.773-2.705-.773-.846 0-1.606.209-2.281.626-.662.404-1.19.993-1.582 1.766-.38.76-.57 1.655-.57 2.686 0 1.018.19 1.907.57 2.667.392.76.92 1.35 1.582 1.766.675.405 1.435.607 2.281.607 1.067 0 1.968-.251 2.704-.754a4.378 4.378 0 001.6-2.06h1.767c-.393 1.349-1.104 2.415-2.134 3.2-1.03.773-2.336 1.16-3.919 1.16-1.214 0-2.287-.277-3.219-.828a5.914 5.914 0 01-2.189-2.337C1.122 9.941.864 8.8.864 7.525c0-1.288.258-2.435.773-3.44.527-1.006 1.257-1.785 2.19-2.337.931-.564 2.004-.846 3.218-.846zM21.278.865c1.202 0 2.282.282 3.238.846a5.986 5.986 0 012.281 2.374c.552 1.005.828 2.146.828 3.421 0 1.276-.276 2.422-.828 3.44a6.018 6.018 0 01-2.28 2.355c-.957.564-2.037.846-3.239.846-1.201 0-2.293-.282-3.274-.846a6.02 6.02 0 01-2.281-2.355c-.552-1.018-.828-2.164-.828-3.44 0-1.275.276-2.416.828-3.421a5.987 5.987 0 012.28-2.374c.982-.564 2.074-.846 3.275-.846zm0 1.564c-.895 0-1.698.208-2.41.625-.698.405-1.25.994-1.655 1.766-.393.76-.589 1.656-.589 2.686 0 1.018.197 1.913.589 2.686.405.773.956 1.367 1.655 1.784.712.405 1.515.607 2.41.607.883 0 1.675-.208 2.373-.625a4.265 4.265 0 001.656-1.766c.405-.773.607-1.668.607-2.686 0-1.03-.202-1.925-.607-2.686-.392-.772-.944-1.36-1.655-1.766-.7-.417-1.49-.625-2.374-.625zM37.486 11h-5.703L30.698 14h-1.803l4.801-12.73h1.895L40.374 14H38.57l-1.085-2.999zm-.479-1.306l-2.373-6.549-2.373 6.55h4.746zm13.266.938c0 .614-.147 1.184-.442 1.711-.294.528-.742.957-1.343 1.288-.6.331-1.342.497-2.225.497-.859 0-1.625-.153-2.3-.46a4.278 4.278 0 01-1.6-1.288 3.741 3.741 0 01-.681-1.876h1.784c.037.368.16.73.368 1.085.221.344.528.632.92.865.405.22.89.33 1.453.33.736 0 1.3-.195 1.693-.588.392-.392.589-.895.589-1.508 0-.528-.142-.957-.424-1.288a2.754 2.754 0 00-1.011-.773c-.405-.196-.957-.404-1.656-.625-.822-.27-1.484-.521-1.987-.754a3.559 3.559 0 01-1.27-1.086c-.343-.478-.514-1.11-.514-1.895 0-.674.16-1.269.478-1.784.331-.515.797-.914 1.398-1.196.613-.282 1.33-.423 2.153-.423 1.275 0 2.287.313 3.035.938a3.521 3.521 0 011.306 2.355h-1.803c-.098-.515-.362-.969-.79-1.361-.43-.393-1.013-.589-1.748-.589-.675 0-1.215.178-1.62.534-.404.343-.606.834-.606 1.471 0 .503.128.914.386 1.233a3 3 0 00.993.736c.393.171.932.368 1.62.588.833.27 1.502.528 2.004.773.515.245.95.62 1.306 1.122.356.49.534 1.147.534 1.969zM60.47 1.031v1.361h-3.66V14h-1.675V2.392h-3.66V1.031h8.995zM69.733 11H64.03L62.944 14h-1.802l4.801-12.73h1.895L72.62 14h-1.803l-1.085-2.999zm-.479-1.306l-2.373-6.549-2.373 6.55h4.746zm6.735 2.999h4.6V14h-6.274V1.03h1.674v11.664zm12.522 0h4.599V14h-6.273V1.03h1.674v11.664zM96.395 1.03v7.781c0 1.276.282 2.22.847 2.833.564.601 1.342.902 2.336.902.981 0 1.747-.307 2.299-.92.552-.613.828-1.552.828-2.815V1.031h1.674v7.781c0 1.766-.441 3.097-1.324 3.992-.871.883-2.042 1.325-3.514 1.325-1.46 0-2.63-.442-3.514-1.325-.87-.895-1.306-2.226-1.306-3.992V1.031h1.674zM114.205 14l-3.256-5.133L107.987 14h-1.931l3.955-6.604-4.029-6.365h2.005l3.183 5.04 2.98-5.04h1.931l-3.973 6.494L116.192 14h-1.987zm5.275-12.97v7.782c0 1.276.282 2.22.846 2.833.565.601 1.343.902 2.337.902.981 0 1.747-.307 2.299-.92.552-.613.828-1.552.828-2.815V1.031h1.674v7.781c0 1.766-.441 3.097-1.324 3.992-.871.883-2.042 1.325-3.514 1.325-1.46 0-2.631-.442-3.514-1.325-.871-.895-1.306-2.226-1.306-3.992V1.031h1.674zM136.94 14l-3.384-5.298h-1.822V14h-1.674V1.03h4.268c1.472 0 2.576.356 3.312 1.068.735.699 1.103 1.63 1.103 2.796 0 1.055-.294 1.907-.883 2.557-.588.638-1.441 1.036-2.557 1.196L138.835 14h-1.895zm-5.206-6.512h2.447c1.901 0 2.851-.834 2.851-2.502 0-1.668-.95-2.502-2.851-2.502h-2.447v5.004zm18.268-6.457l-4.25 8.057V14h-1.692V9.088l-4.268-8.057h1.95l3.182 6.273 3.165-6.273h1.913zm7.907 11.663h4.599V14h-6.273V1.03h1.674v11.664zm7.977-11.663V14h-1.674V1.03h1.674zm3.537 0l3.955 11.111 4.011-11.111h1.821L174.445 14h-2.115l-4.746-12.97h1.839zm13.152 0V14h-1.674V1.03h1.674zM195.347 14h-1.674L186.94 3.753V14h-1.674V1.03h1.674l6.733 10.266V1.03h1.674V14zM203.926.902c1.509 0 2.772.374 3.79 1.122 1.03.748 1.723 1.766 2.079 3.054h-1.766a3.953 3.953 0 00-1.546-1.895c-.711-.478-1.557-.717-2.538-.717-.883 0-1.674.208-2.373.625-.7.405-1.251.987-1.656 1.748-.393.76-.589 1.655-.589 2.686 0 1.054.203 1.968.607 2.74.405.761.963 1.35 1.674 1.767.724.404 1.552.607 2.484.607.797 0 1.527-.172 2.189-.515a4.195 4.195 0 001.619-1.49c.429-.663.687-1.435.772-2.318h-5.095V7.065h6.512V8.61a6.428 6.428 0 01-.957 2.796 5.73 5.73 0 01-2.134 1.987c-.895.49-1.913.736-3.053.736-1.251 0-2.355-.276-3.312-.828a5.967 5.967 0 01-2.244-2.336c-.527-1.006-.791-2.153-.791-3.44 0-1.288.264-2.429.791-3.422a5.935 5.935 0 012.244-2.355c.957-.564 2.055-.846 3.293-.846zM223.783 14l-3.385-5.298h-1.821V14h-1.674V1.03h4.268c1.471 0 2.575.356 3.311 1.068.736.699 1.104 1.63 1.104 2.796 0 1.055-.295 1.907-.883 2.557-.589.638-1.441 1.036-2.557 1.196L225.678 14h-1.895zm-5.206-6.512h2.446c1.901 0 2.852-.834 2.852-2.502 0-1.668-.951-2.502-2.852-2.502h-2.446v5.004zm10.725-5.096v4.434h4.93v1.287h-4.93v4.526h5.482V14h-7.156V1.03h7.156v1.362h-5.482zm18.559 5.114c0 1.312-.264 2.46-.791 3.44-.528.97-1.306 1.723-2.337 2.263-1.017.527-2.244.791-3.679.791h-4.121V1.03h4.121c1.435 0 2.662.264 3.679.792 1.031.515 1.809 1.263 2.337 2.244.527.969.791 2.116.791 3.44zm-6.936 4.986c1.693 0 2.987-.436 3.882-1.307.895-.87 1.343-2.097 1.343-3.679 0-1.582-.448-2.808-1.343-3.679-.883-.883-2.177-1.325-3.882-1.325h-2.317v9.99h2.317zm10.869-10.1v4.434h4.93v1.287h-4.93v4.526h5.482V14h-7.156V1.03h7.156v1.362h-5.482zm14.972-1.361v1.361H261.1v4.489h4.801v1.306H261.1V14h-1.674V1.03h7.34zm3.657 0V14h-1.674V1.03h1.674zM283.196 14h-1.674l-6.733-10.247V14h-1.674V1.03h1.674l6.733 10.266V1.03h1.674V14zm4.366-11.608v4.434h4.93v1.287h-4.93v4.526h5.482V14h-7.156V1.03h7.156v1.362h-5.482zm18.559 5.114c0 1.312-.264 2.46-.791 3.44-.527.97-1.306 1.723-2.336 2.263-1.018.527-2.245.791-3.68.791h-4.12V1.03h4.12c1.435 0 2.662.264 3.68.792 1.03.515 1.809 1.263 2.336 2.244.527.969.791 2.116.791 3.44zm-6.935 4.986c1.692 0 2.986-.436 3.881-1.307.895-.87 1.343-2.097 1.343-3.679 0-1.582-.448-2.808-1.343-3.679-.883-.883-2.177-1.325-3.881-1.325h-2.318v9.99h2.318z" fill="#fff"/></svg>