<svg width="280" height="36" viewBox="0 0 280 36" fill="none" xmlns="http://www.w3.org/2000/svg"><path d="M.971 1.556c1.943 0 3.871-.007 5.784-.023 1.928-.015 3.692-.031 5.294-.047 1.601-.03 2.97-.07 4.105-.116 1.134-.047 1.904-.109 2.308-.187L17.32 4.285a17.113 17.113 0 00-1.796-.373 33.928 33.928 0 00-2.17-.257c-.839-.093-1.81-.14-2.914-.14-.373 0-.824.016-1.353.047-.513.016-1.01.039-1.493.07l-1.702.093V16.46a86.743 86.743 0 004.338-.14c1.29-.078 2.386-.155 3.288-.233a44.144 44.144 0 002.799-.326l-.723 3.381a173.49 173.49 0 00-3.289-.396 71.931 71.931 0 00-3.148-.28 39.898 39.898 0 00-3.265-.14v14.623c1.835 0 3.522-.078 5.06-.233a56.423 56.423 0 004.035-.537 37.58 37.58 0 003.662-.77l-.676 3.779a22.11 22.11 0 00-.84-.047 347.14 347.14 0 00-2.705-.093c-.498 0-.972-.008-1.423-.024-.45 0-.855-.008-1.213-.023H.971v-.093c.093-.327.179-.731.257-1.213.093-.482.17-1.08.233-1.796a47.13 47.13 0 00.14-2.542c.03-.995.046-2.153.046-3.475V10.7c0-1.322-.015-2.472-.046-3.452a47.223 47.223 0 00-.14-2.565 17.78 17.78 0 00-.233-1.82A10.73 10.73 0 00.97 1.65v-.094zm35.892 18.821L28.607 30.85c-.31.373-.614.762-.91 1.166-.294.389-.559.77-.792 1.143a10.59 10.59 0 00-.583 1.05c-.14.31-.21.574-.21.792h-4.524v-.093c.342-.296.824-.747 1.445-1.353.638-.606 1.314-1.368 2.03-2.286l10.261-12.896L24.783 4.518c-.576-.746-1.143-1.368-1.703-1.865-.56-.513-.98-.848-1.26-1.003v-.094h7.3c0 .187.024.428.07.723.063.296.171.646.327 1.05.155.389.365.824.63 1.306.28.482.637 1.003 1.073 1.563l6.74 8.838 7.44-9.305c.279-.342.551-.715.815-1.12.28-.404.521-.792.723-1.165.218-.39.39-.747.514-1.073.14-.327.21-.599.21-.817h4.524v.094c-.156.124-.327.272-.513.443-.187.17-.404.38-.653.63-.234.248-.498.544-.793.886-.296.342-.63.746-1.003 1.213l-9.725 12.267 10.868 14.226c.746.964 1.438 1.765 2.075 2.402.653.622 1.128 1.019 1.423 1.19V35h-7.253c0-.358-.148-.948-.443-1.773-.296-.823-.848-1.78-1.656-2.868l-7.65-9.982zM84.79 6.687l-.21.094c-1.213-1.12-2.674-2.014-4.385-2.682-1.694-.669-3.56-1.003-5.597-1.003-1.959 0-3.755.31-5.387.933-1.633.606-3.04 1.492-4.221 2.658-1.167 1.166-2.076 2.597-2.73 4.292-.652 1.694-.979 3.622-.979 5.783 0 2.38.311 4.602.933 6.67.622 2.053 1.547 3.833 2.776 5.341 1.228 1.508 2.76 2.698 4.594 3.568 1.85.855 4.004 1.283 6.46 1.283.886 0 1.773-.093 2.659-.28a12.763 12.763 0 002.542-.816 13.508 13.508 0 002.309-1.33 12.105 12.105 0 001.982-1.795l.257.163-1.866 4.758c-1.166.45-2.457.793-3.872 1.026a24.2 24.2 0 01-4.244.373c-2.877 0-5.512-.412-7.906-1.236-2.38-.84-4.431-2.021-6.157-3.545a16.191 16.191 0 01-4.012-5.48c-.948-2.146-1.422-4.525-1.422-7.137 0-1.477.186-2.93.56-4.361.388-1.43.948-2.791 1.679-4.082a16.482 16.482 0 012.705-3.545 17.27 17.27 0 013.661-2.822 18.71 18.71 0 014.548-1.842c1.664-.45 3.46-.676 5.388-.676 3 0 5.783.458 8.349 1.376l1.586 4.314zm10.191 26.26c1.835 0 3.522-.077 5.061-.233a56.414 56.414 0 004.035-.536 37.522 37.522 0 003.661-.77l-.676 3.779a22.02 22.02 0 00-.839-.047 348.262 348.262 0 00-2.706-.093c-.497 0-.972-.008-1.422-.024-.451 0-.856-.008-1.213-.023H90.061v-.093c.093-.327.178-.731.256-1.213.093-.482.171-1.08.233-1.796.063-.715.11-1.562.14-2.542.031-.995.047-2.153.047-3.475V10.7c0-1.322-.016-2.472-.047-3.452a47.226 47.226 0 00-.14-2.565c-.062-.731-.14-1.338-.233-1.82a10.719 10.719 0 00-.256-1.212v-.094h5.597v.094c-.094.326-.187.73-.28 1.212a25.149 25.149 0 00-.21 1.82c-.047.715-.093 1.57-.14 2.565-.031.98-.047 2.13-.047 3.452v22.249zM135.958 10.7c0-1.322-.016-2.472-.047-3.452a46.317 46.317 0 00-.14-2.565 24.917 24.917 0 00-.21-1.82 10.642 10.642 0 00-.256-1.212v-.094h4.151v.094c-.093.326-.186.73-.28 1.212a26.082 26.082 0 00-.21 1.82c-.046.715-.093 1.57-.139 2.565-.032.98-.047 2.13-.047 3.452v12.593c0 2.224-.319 4.12-.956 5.691-.638 1.57-1.524 2.86-2.659 3.871-1.135.995-2.495 1.718-4.081 2.17-1.586.466-3.32.699-5.201.699-1.881 0-3.638-.218-5.271-.653-1.617-.435-3.032-1.135-4.244-2.099-1.198-.98-2.138-2.239-2.822-3.778-.684-1.555-1.027-3.444-1.027-5.667V10.699c0-1.322-.015-2.472-.046-3.452a47.317 47.317 0 00-.14-2.565c-.062-.731-.14-1.338-.233-1.82a10.84 10.84 0 00-.257-1.212v-.094h5.597v.094c-.093.326-.186.73-.279 1.212a24.917 24.917 0 00-.21 1.82c-.063.715-.109 1.57-.14 2.565-.031.98-.047 2.13-.047 3.452v13.083c0 1.85.272 3.382.816 4.595.56 1.197 1.291 2.153 2.193 2.868.901.7 1.927 1.19 3.078 1.47 1.151.28 2.324.42 3.522.42 1.197 0 2.371-.14 3.521-.42a7.86 7.86 0 003.055-1.47c.902-.715 1.625-1.671 2.169-2.868.56-1.213.84-2.745.84-4.595V10.7zm23.928-3.825h-.513a6.235 6.235 0 00-.606-1.213 5.044 5.044 0 00-1.073-1.26c-.435-.404-.972-.738-1.609-1.002-.622-.264-1.361-.397-2.216-.397-.762 0-1.438.117-2.029.35a4.153 4.153 0 00-1.492.98c-.389.42-.685.917-.887 1.492a5.74 5.74 0 00-.303 1.913c0 1.12.311 2.192.933 3.218.637 1.01 1.43 2.014 2.379 3.009.948.995 1.974 1.99 3.078 2.985a38.66 38.66 0 013.079 3.102 17.223 17.223 0 012.355 3.381 7.746 7.746 0 01.956 3.779c0 1.01-.178 2.029-.536 3.055a7.723 7.723 0 01-1.609 2.728c-.731.809-1.672 1.47-2.822 1.983-1.151.497-2.519.746-4.105.746-.886 0-1.733-.085-2.542-.257a16.987 16.987 0 01-2.215-.583 16.824 16.824 0 01-1.82-.793c-.528-.28-.963-.536-1.306-.77l.537-5.153h.583c.171.73.451 1.43.84 2.099a7.681 7.681 0 001.422 1.749 7.393 7.393 0 001.959 1.212 6.354 6.354 0 002.402.444c.793 0 1.501-.117 2.123-.35a5.072 5.072 0 001.632-1.003 4.312 4.312 0 001.026-1.54c.249-.59.373-1.235.373-1.935 0-.98-.178-1.881-.536-2.705a10.379 10.379 0 00-1.423-2.38 18.273 18.273 0 00-1.982-2.168c-.731-.7-1.485-1.4-2.262-2.099a76.176 76.176 0 01-2.286-2.192 19.223 19.223 0 01-1.982-2.38 12.91 12.91 0 01-1.399-2.728c-.358-.98-.537-2.052-.537-3.218 0-1.228.233-2.332.7-3.312a8.172 8.172 0 011.889-2.542 8.566 8.566 0 012.682-1.61 8.697 8.697 0 013.078-.559c.778 0 1.493.062 2.146.187a13.61 13.61 0 011.749.443c.529.17.987.342 1.376.513l.956.42-.163 4.36zm8 28.033c.093-.327.178-.731.256-1.213.078-.482.148-1.08.21-1.796.062-.715.109-1.562.14-2.542.031-.995.047-2.153.047-3.475V10.7c0-1.322-.016-2.472-.047-3.452a47.317 47.317 0 00-.14-2.565 24.917 24.917 0 00-.21-1.82 10.864 10.864 0 00-.256-1.212v-.094h5.573v.094c-.093.326-.186.73-.279 1.212a24.917 24.917 0 00-.21 1.82c-.047.715-.094 1.57-.14 2.565-.031.98-.047 2.13-.047 3.452V25.88c0 1.322.016 2.48.047 3.475.046.98.093 1.827.14 2.542.062.715.132 1.314.21 1.796.093.482.186.886.279 1.213V35h-5.573v-.093zm14.576-33.35v.093a1.345 1.345 0 00-.07.35 4.14 4.14 0 00-.024.42c0 .481.063 1.018.187 1.609.14.575.396 1.298.77 2.169l10.331 23.298 9.982-23.112c.233-.575.482-1.205.746-1.889a5.704 5.704 0 00.397-2.076c0-.186-.016-.342-.047-.466a1.43 1.43 0 00-.093-.303v-.094h4.781v.094c-.296.295-.653.824-1.073 1.586-.42.761-.878 1.702-1.376 2.822L193.61 35.723h-1.866L179.08 7.2a31.369 31.369 0 00-.933-1.935 39.143 39.143 0 00-.886-1.68c-.28-.513-.529-.94-.746-1.282a8.373 8.373 0 00-.443-.653v-.094h6.39zm29.548 33.35c.094-.327.179-.731.257-1.213.078-.482.148-1.08.21-1.796.062-.715.109-1.562.14-2.542.031-.995.046-2.153.046-3.475V10.7c0-1.322-.015-2.472-.046-3.452a47.317 47.317 0 00-.14-2.565 24.917 24.917 0 00-.21-1.82 10.62 10.62 0 00-.257-1.212v-.094h5.574v.094c-.093.326-.186.73-.279 1.212a24.917 24.917 0 00-.21 1.82c-.047.715-.094 1.57-.14 2.565-.031.98-.047 2.13-.047 3.452V25.88c0 1.322.016 2.48.047 3.475.046.98.093 1.827.14 2.542.062.715.132 1.314.21 1.796.093.482.186.886.279 1.213V35h-5.574v-.093zm21.27-31.298c-1.835 0-3.49.085-4.968.256a58.27 58.27 0 00-3.824.513c-1.244.234-2.356.49-3.335.77l.676-3.778c.187.015.466.031.84.047.373.015.785.03 1.236.046l1.446.047c.513 0 .995.008 1.446.023.45 0 .847.008 1.189.023h14.833c.357-.015.762-.023 1.212-.023.451-.015.925-.023 1.423-.023a348.634 348.634 0 002.705-.093c.374-.016.653-.032.84-.047l.676 3.778a39.055 39.055 0 00-3.358-.77 58.403 58.403 0 00-3.825-.513c-1.477-.17-3.133-.256-4.967-.256V25.88c0 1.322.015 2.48.046 3.475.047.98.094 1.827.14 2.542.062.715.132 1.314.21 1.796.093.482.187.886.28 1.213V35h-5.574v-.093c.093-.327.179-.731.257-1.213a25.8 25.8 0 00.209-1.796c.063-.715.109-1.562.14-2.542.031-.995.047-2.153.047-3.475V3.61zm33.374 15.346v6.926c0 1.322.015 2.48.046 3.475.031.98.078 1.827.14 2.542.062.715.132 1.314.21 1.796.093.482.187.886.28 1.213V35h-5.597v-.093c.093-.327.178-.731.256-1.213.094-.482.163-1.08.21-1.796.062-.715.109-1.562.14-2.542.047-.995.07-2.153.07-3.475v-6.46l-10.425-14.18a19.607 19.607 0 00-1.073-1.329 13.286 13.286 0 00-.979-1.05 11.214 11.214 0 00-.84-.77 8.43 8.43 0 00-.583-.442v-.094h7.067c0 .358.147.949.443 1.773.311.808.863 1.765 1.656 2.869l7.649 10.471 7.487-10.938c.264-.389.528-.785.793-1.19.264-.404.505-.792.722-1.165.218-.374.389-.716.514-1.027.14-.31.209-.575.209-.793h4.548v.094c-.342.295-.8.738-1.376 1.33-.575.574-1.197 1.344-1.866 2.308l-9.701 13.667z" fill="#fff"/></svg>