<svg width="390" height="67" viewBox="0 0 390 67" fill="none" xmlns="http://www.w3.org/2000/svg"><path d="M13.019 14.169l.368.323L.533 43.434H0l13.019-29.265zM7.514 26.988h12.69v.485H7.513v-.485zm4.435-14.35h3.776l13.798 30.8h-3.776l-13.798-30.8zM31.368 28.038c0-8.95 6.9-15.68 16.055-15.68S63.438 19.293 63.438 28c0 8.708-6.69 15.724-16.016 15.724-9.324 0-16.054-6.73-16.054-15.68v-.006zm28.54 0c0-9.15-4.638-15.2-12.48-15.2-7.844 0-12.564 6.008-12.564 15.2 0 9.193 4.681 15.2 12.563 15.2 7.882 0 12.482-6.007 12.482-15.2zM51.49 43.115l.45-.2c1.724 2.943 3.86 6.612 8.706 6.612 2.71 0 5.664-1.611 5.664-4.92h.494c0 3.627-3.287 5.405-6.158 5.405-5.258 0-7.393-3.869-9.156-6.892v-.005zM69.805 31.1V12.637h3.408v19.27c0 6.492 3.244 11.207 9.732 11.207 6.487 0 10.225-4.316 10.225-11.892V12.638h.493v18.504c0 8.104-4.434 12.577-11.125 12.577-8.502 0-12.728-4.192-12.728-12.62h-.005zM110.371 14.169l.368.323-12.854 28.946h-.532l13.018-29.27zm-5.5 12.819h12.69v.485h-12.69v-.485zm4.435-14.35h3.776l13.799 30.8h-3.777l-13.798-30.8zM139.279 12.638h8.541c4.967 0 9.034 1.978 9.073 6.612.038 5.2-3.695 7.738-13.184 7.738h-.944l-.082 16.446h-3.409V12.638h.005zm4.517 13.865c7.514 0 9.979-2.742 9.94-7.258-.039-3.993-2.096-6.127-6.691-6.127h-4.353l.083 13.385h1.026-.005zm9.359 6.046c-1.888-3.67-2.382-5.561-6.531-5.561h-2.958v-.485h3.243c7.103 0 7.882 2.339 9.611 5.685l5.872 11.246h-3.611l-5.626-10.885zM165.719 12.638h3.408v30.8h-3.408v-30.8zm1.273 0h16.301v.485h-16.301v-.485zm0 11.769h14.249v.485h-14.249v-.485zm0 18.547h16.713v.484h-16.713v-.484zM185.84 34.408h.494c0 5.12 3.82 8.788 9.692 8.826 4.682 0 9.034-2.58 9.034-8.104 0-9.834-17.288-4.472-17.288-15.157 0-4.516 3.776-7.62 9.528-7.62 5.378 0 8.293 3.104 8.293 6.17h-.494c0-2.7-2.546-5.604-7.761-5.685-4.638-.08-7.925 2.14-7.925 5.281 0 8.708 17.41 3.75 17.41 14.877 0 6.892-4.885 10.723-10.758 10.723-6.202 0-10.225-3.788-10.225-9.311zm19.753-15.885c0 1.17-.329 2.096-.697 2.662l-.412-.243c.368-.565.615-1.33.615-2.419h.494zM211.505 12.638h3.408v30.8h-3.408v-30.8zm1.273 0h16.301v.485h-16.301v-.485zm0 11.769h14.249v.485h-14.249v-.485zm0 18.547h16.713v.484h-16.713v-.484zM234.623 12.638h8.54c4.968 0 9.035 1.978 9.073 6.612.039 5.2-3.694 7.738-13.183 7.738h-.944l-.082 16.446h-3.409V12.638h.005zm4.517 13.865c7.514 0 9.978-2.742 9.94-7.258-.039-3.993-2.097-6.127-6.691-6.127h-4.353l.083 13.385h1.026-.005zm9.359 6.046c-1.888-3.67-2.382-5.561-6.531-5.561h-2.959v-.485h3.244c7.103 0 7.882 2.339 9.61 5.685l5.873 11.246h-3.612l-5.625-10.885zM258.273 12.638h3.694l12.114 27.697h-.494l11.784-27.697h.533l-13.14 30.8h-1.026l-13.469-30.8h.004zM289.273 12.638h3.409v30.8h-3.409v-30.8zm1.274 0h16.301v.485h-16.301v-.485zm0 11.769h14.248v.485h-14.248v-.485zm0 18.547h16.713v.484h-16.713v-.484zM110.55 53.862v5.86h3.703v.414h-4.168v-6.274h.465zM117.444 58.958c.16.266.378.475.663.618.281.142.601.218.959.218s.683-.071.968-.218c.281-.143.504-.352.669-.618.159-.267.242-.58.242-.941v-4.155h.455v4.183c0 .447-.102.832-.305 1.16a2 2 0 01-.833.746 2.64 2.64 0 01-1.196.261 2.6 2.6 0 01-1.186-.26 2.033 2.033 0 01-.833-.747c-.203-.323-.305-.708-.305-1.16v-4.183h.465v4.154c0 .362.077.675.237.942zM128.279 60.141l-1.999-2.866-1.913 2.866h-.571l2.227-3.227-2.135-3.052h.581l1.903 2.714 1.82-2.714h.552l-2.126 3.076 2.247 3.198h-.591l.005.005zM131.983 58.958c.16.266.378.475.664.618.28.142.6.218.958.218s.683-.071.968-.218c.281-.143.504-.352.669-.618.159-.267.242-.58.242-.941v-4.155h.455v4.183c0 .447-.102.832-.305 1.16a2 2 0 01-.833.746 2.64 2.64 0 01-1.196.261 2.6 2.6 0 01-1.186-.26 2.033 2.033 0 01-.833-.747c-.203-.323-.305-.708-.305-1.16v-4.183h.465v4.154c0 .362.077.675.237.942zM142.794 60.141l-1.772-2.671c-.136.024-.3.033-.504.033h-1.045v2.633h-.465v-6.274h1.544c.354 0 .697.067 1.022.195.329.128.595.328.799.594.208.266.309.594.309.989s-.096.727-.285 1.04c-.189.31-.484.538-.886.676l1.83 2.785h-.547zm-.988-3.474c.262-.285.397-.618.397-1.008 0-.247-.063-.475-.193-.69a1.356 1.356 0 00-.557-.503 1.824 1.824 0 00-.838-.185h-1.142v2.809h1.016c.615 0 1.056-.143 1.317-.423zM150.638 53.862l-2.523 4.04v2.24h-.465v-2.24l-2.522-4.04h.571l2.198 3.556 2.179-3.556h.562zM162.131 60.422l-1.554-3.774-1.588 3.783-2.668-6.55h.533l2.179 5.533 1.312-3.308-.915-2.23h.464l2.247 5.48 2.198-5.48h.494l-2.716 6.54.014.006zM170.308 58.064h-2.983l-.895 2.077h-.465l2.856-6.55h.039l2.857 6.55h-.523l-.886-2.077zm-.17-.409l-1.302-3.084-1.332 3.084h2.639-.005zM177.614 53.862v.414h-1.99v5.86h-.465v-5.86h-1.971v-.414h4.43-.004zM184.343 53.862v.414h-3.703v2.49h3.331v.414h-3.331v2.538h3.839v.413h-4.304v-6.274h4.168v.005zM191.001 60.141l-1.772-2.671c-.136.024-.3.033-.504.033h-1.045v2.633h-.465v-6.274h1.544c.354 0 .697.067 1.022.195.329.128.595.328.799.594.208.266.31.594.31.989s-.097.727-.286 1.04c-.189.31-.484.538-.886.676l1.83 2.785h-.547zm-.988-3.474c.262-.285.397-.618.397-1.008 0-.247-.063-.475-.193-.69a1.356 1.356 0 00-.557-.503 1.824 1.824 0 00-.838-.185h-1.142v2.809h1.016c.615 0 1.056-.143 1.317-.423zM197.977 53.862v.414h-3.321v2.59h2.944v.409h-2.944v2.866h-.465v-6.274h3.791l-.005-.005zM204.435 60.141l-1.772-2.671c-.135.024-.3.033-.503.033h-1.046v2.633h-.465v-6.274h1.545c.353 0 .697.067 1.021.195.33.128.596.328.799.594.208.266.31.594.31.989s-.097.727-.286 1.04c-.188.31-.484.538-.886.676l1.831 2.785h-.548zm-.987-3.474c.261-.285.397-.618.397-1.008a1.29 1.29 0 00-.194-.69 1.356 1.356 0 00-.557-.503 1.822 1.822 0 00-.837-.185h-1.143v2.809h1.017c.615 0 1.055-.143 1.317-.423zM207.597 55.407c.309-.49.731-.884 1.258-1.174a3.516 3.516 0 011.724-.438c.625 0 1.201.148 1.733.438.533.29.954.684 1.269 1.174.31.494.464 1.026.464 1.606 0 .58-.154 1.113-.464 1.607-.31.494-.731.88-1.269 1.164a3.606 3.606 0 01-1.733.428 3.691 3.691 0 01-1.733-.413 3.222 3.222 0 01-1.254-1.15 2.993 2.993 0 01-.46-1.636c0-.599.155-1.112.465-1.606zm.406 2.999c.267.423.625.76 1.075 1.012.45.252.944.376 1.486.376.543 0 1.051-.124 1.511-.37.46-.248.823-.585 1.089-1.013.267-.428.402-.894.402-1.403 0-.508-.135-.974-.407-1.402a3.04 3.04 0 00-2.585-1.402c-.542 0-1.046.129-1.506.385a2.878 2.878 0 00-1.074 1.032 2.638 2.638 0 00-.393 1.397c0 .504.136.965.402 1.388zM222.393 53.862v6.426h-.019l-5.21-5.447.01 5.295h-.455V53.73h.029l5.209 5.49-.009-5.357h.445zM229.379 53.862v.414h-1.99v5.86h-.464v-5.86h-1.971v-.414h4.43-.005zM239.701 53.862v.414h-1.989v5.86h-.465v-5.86h-1.971v-.414h4.43-.005zM241.957 55.407c.31-.49.731-.884 1.259-1.174a3.512 3.512 0 011.723-.438c.625 0 1.201.148 1.734.438.532.29.953.684 1.268 1.174a2.96 2.96 0 01.465 1.606 2.96 2.96 0 01-.465 1.607c-.31.494-.731.88-1.268 1.164a3.613 3.613 0 01-1.734.428 3.697 3.697 0 01-1.733-.413 3.222 3.222 0 01-1.254-1.15 2.993 2.993 0 01-.46-1.636c0-.599.155-1.112.465-1.606zm.411 2.999a2.989 2.989 0 002.562 1.388c.542 0 1.05-.124 1.51-.37.46-.248.823-.585 1.09-1.013.266-.428.401-.894.401-1.403 0-.508-.135-.974-.406-1.402a3.037 3.037 0 00-2.586-1.402 3.04 3.04 0 00-1.505.385 2.88 2.88 0 00-1.075 1.032 2.637 2.637 0 00-.392 1.397c0 .504.135.965.401 1.388zM255.842 60.422l-1.554-3.774-1.588 3.783-2.668-6.55h.533l2.178 5.533 1.312-3.308-.915-2.23h.465l2.247 5.48 2.198-5.48h.494l-2.717 6.54.015.006zM266.726 53.862v6.426h-.019l-5.21-5.447.01 5.295h-.455V53.73h.029l5.209 5.49-.009-5.357h.445zM274.835 60.14h-.465v-2.95h-4.076v2.95h-.465v-6.273h.465v2.918h4.076v-2.918h.465v6.274zM277.977 55.407c.31-.49.732-.884 1.259-1.174a3.516 3.516 0 011.724-.438c.624 0 1.201.148 1.733.438.533.29.954.684 1.269 1.174.309.494.464 1.026.464 1.606 0 .58-.155 1.113-.464 1.607-.31.494-.732.88-1.269 1.164a3.609 3.609 0 01-1.733.428 3.691 3.691 0 01-1.733-.413 3.215 3.215 0 01-1.254-1.15 2.993 2.993 0 01-.46-1.636c0-.599.155-1.112.464-1.606zm.412 2.999c.266.423.625.76 1.075 1.012.45.252.944.376 1.486.376s1.051-.124 1.511-.37c.46-.248.823-.585 1.089-1.013.266-.428.402-.894.402-1.403 0-.508-.136-.974-.407-1.402a3.04 3.04 0 00-2.585-1.402c-.542 0-1.046.129-1.506.385a2.888 2.888 0 00-1.075 1.032 2.646 2.646 0 00-.392 1.397c0 .504.136.965.402 1.388zM293.577 53.724v6.417h-.456v-5.152l-2.779 3.63h-.019l-2.76-3.588v5.11h-.455v-6.417h.01l3.22 4.254 3.239-4.254zM300.849 53.862v.414h-3.704v2.49h3.331v.414h-3.331v2.538h3.84v.413h-4.304v-6.274h4.168v.005zM306.334 54.314a3.305 3.305 0 00-.818-.105c-.446 0-.799.1-1.065.304-.267.205-.402.466-.402.785 0 .223.073.413.213.57.145.157.324.285.547.39.223.104.508.218.857.342.382.128.697.261.949.4.252.137.46.318.634.55.17.234.257.533.257.899s-.087.656-.267.922a1.77 1.77 0 01-.745.623c-.32.147-.688.218-1.099.218-.717 0-1.428-.214-2.135-.646l.218-.352c.232.167.523.31.866.433.344.123.678.185.998.185.285 0 .556-.052.813-.157.257-.104.465-.261.629-.47.16-.21.242-.461.242-.756 0-.276-.072-.509-.222-.699a1.683 1.683 0 00-.562-.456 6.35 6.35 0 00-.852-.347 8.29 8.29 0 01-.944-.376 1.886 1.886 0 01-.625-.48c-.169-.2-.251-.451-.251-.75 0-.3.082-.557.242-.785.159-.228.387-.404.677-.532.291-.129.611-.195.969-.2.305 0 .62.038.949.114.329.076.615.176.871.29l-.179.338a5.027 5.027 0 00-.76-.257l-.005.005z" fill="#fff"/></svg>