<svg width="176" height="28" viewBox="0 0 176 28" fill="none" xmlns="http://www.w3.org/2000/svg"><path d="M.718.795C2.24.795 3.75.79 5.249.777 6.76.765 8.143.753 9.398.74c1.254-.024 2.327-.054 3.216-.09.89-.037 1.492-.086 1.809-.147l-.896 2.43a13.41 13.41 0 00-1.407-.292c-.462-.073-1.029-.14-1.699-.201-.658-.073-1.42-.11-2.284-.11-.293 0-.646.012-1.06.037-.402.012-.792.03-1.17.055l-1.334.073v9.977a68.012 68.012 0 003.4-.11c1.01-.06 1.87-.121 2.576-.182.828-.073 1.56-.159 2.193-.256l-.567 2.65c-.84-.11-1.7-.213-2.576-.31a56.612 56.612 0 00-2.467-.22c-.89-.073-1.742-.11-2.559-.11v11.458c1.438 0 2.76-.061 3.966-.183a44.275 44.275 0 003.161-.42 29.44 29.44 0 002.87-.603l-.53 2.96a17.331 17.331 0 00-.659-.036 272.065 272.065 0 00-2.12-.073c-.39 0-.76-.006-1.114-.019-.353 0-.67-.006-.95-.018H.718v-.073c.073-.256.14-.573.2-.95.074-.378.135-.847.183-1.407.049-.56.086-1.225.11-1.992.024-.78.036-1.688.036-2.723V7.959c0-1.036-.012-1.937-.036-2.705a37.01 37.01 0 00-.11-2.01A13.932 13.932 0 00.92 1.819a8.407 8.407 0 00-.201-.95V.794zM22.92 25.392c1.438 0 2.76-.061 3.966-.183a44.283 44.283 0 003.161-.42 29.445 29.445 0 002.87-.603l-.53 2.96a17.336 17.336 0 00-.659-.036 272.137 272.137 0 00-2.12-.073c-.39 0-.76-.006-1.114-.019-.354 0-.67-.006-.95-.018h-8.48v-.073c.074-.256.14-.573.201-.95.074-.378.134-.847.183-1.407.049-.56.085-1.225.11-1.992.024-.78.036-1.688.036-2.723V7.959c0-1.036-.012-1.937-.036-2.705-.024-.78-.061-1.45-.11-2.01a13.923 13.923 0 00-.183-1.425 8.403 8.403 0 00-.2-.95V.794h4.385v.073a11.48 11.48 0 00-.22.95c-.06.378-.115.853-.163 1.426-.037.56-.074 1.23-.11 2.01a86.573 86.573 0 00-.037 2.705v17.433zM36.278.795c1.523 0 3.034-.006 4.532-.018C42.321.765 43.704.753 44.958.74c1.255-.024 2.327-.054 3.217-.09.889-.037 1.492-.086 1.809-.147l-.896 2.43c-.402-.11-.87-.207-1.407-.292-.463-.073-1.03-.14-1.7-.201a20.94 20.94 0 00-2.283-.11c-.293 0-.646.012-1.06.037-.402.012-.792.03-1.17.055l-1.334.073v9.977a68.009 68.009 0 003.4-.11c1.01-.06 1.87-.121 2.576-.182.828-.073 1.56-.159 2.193-.256l-.567 2.65c-.84-.11-1.7-.213-2.576-.31a56.608 56.608 0 00-2.467-.22 31.27 31.27 0 00-2.559-.11v11.458c1.438 0 2.76-.061 3.966-.183a44.276 44.276 0 003.161-.42 29.445 29.445 0 002.869-.603l-.53 2.96a17.331 17.331 0 00-.658-.036 271.578 271.578 0 00-2.12-.073c-.39 0-.761-.006-1.114-.019-.354 0-.67-.006-.95-.018h-8.48v-.073c.074-.256.14-.573.201-.95.074-.378.135-.847.183-1.407.049-.56.086-1.225.11-1.992.024-.78.036-1.688.036-2.723V7.959c0-1.036-.012-1.937-.036-2.705-.024-.78-.061-1.45-.11-2.01a13.92 13.92 0 00-.183-1.425 8.403 8.403 0 00-.2-.95V.794zM77.687 23.93c0 .134-.018.274-.055.42a.608.608 0 01-.2.366c-.55.414-1.146.798-1.792 1.151a13.869 13.869 0 01-4.477 1.48c-.853.146-1.772.22-2.76.22-2.216 0-4.239-.323-6.066-.969-1.828-.658-3.399-1.584-4.715-2.778a12.398 12.398 0 01-3.033-4.294c-.719-1.681-1.078-3.545-1.078-5.592 0-1.157.146-2.296.438-3.417.305-1.12.743-2.187 1.316-3.198a12.916 12.916 0 012.12-2.778 13.53 13.53 0 012.869-2.21A14.662 14.662 0 0163.817.886c1.304-.354 2.71-.53 4.221-.53.585 0 1.182.03 1.791.091.61.049 1.212.128 1.81.238.596.097 1.169.219 1.717.365.56.146 1.09.31 1.59.494l1.243 3.38-.147.073a10.18 10.18 0 00-1.644-1.188 13.048 13.048 0 00-4.222-1.571 11.544 11.544 0 00-2.339-.238c-1.535 0-2.942.244-4.22.731a9.209 9.209 0 00-3.308 2.084c-.914.913-1.627 2.034-2.139 3.362-.511 1.328-.767 2.838-.767 4.532 0 1.864.244 3.594.73 5.19.488 1.596 1.213 2.978 2.175 4.148.963 1.17 2.163 2.09 3.6 2.76 1.45.657 3.138.986 5.062.986.853 0 1.615-.067 2.285-.201.67-.134 1.236-.299 1.699-.494.463-.207.81-.426 1.042-.657.243-.244.365-.463.365-.658v-.713c0-.853-.012-1.59-.036-2.211a24.012 24.012 0 00-.11-1.608 15.637 15.637 0 00-.165-1.188 8.43 8.43 0 00-.219-.914v-.073h4.386v.073c-.073.256-.146.56-.22.914-.06.341-.115.75-.164 1.224a26.634 26.634 0 00-.11 1.682c-.024.633-.036 1.37-.036 2.21v.75zM100.895 27v-.073c.024-.061.042-.152.055-.274.012-.122.018-.232.018-.33 0-.377-.055-.791-.165-1.242-.097-.463-.292-1.035-.584-1.718l-2.212-4.97a80.224 80.224 0 00-2.722-.037H88.816c-.89 0-1.694.013-2.412.037l-2.102 4.824c-.183.451-.378.945-.585 1.48a4.48 4.48 0 00-.31 1.627c0 .158.012.292.036.402a.706.706 0 00.073.2V27h-3.728v-.073c.22-.232.494-.64.823-1.224.329-.597.688-1.34 1.078-2.23L92.159.247h1.463l9.922 22.33c.232.525.469 1.036.713 1.536.256.487.493.926.713 1.316.219.39.414.718.585.986.17.268.286.439.347.512V27h-5.007zM89.053 16.785h2.175c.743-.012 1.468-.018 2.174-.018.72-.012 1.407-.019 2.065-.019.658-.012 1.255-.024 1.791-.036L92.123 5.108 87.08 16.785h1.973zM109.191.795l18.822 20.028V7.96c0-1.036-.012-1.937-.036-2.705a37.34 37.34 0 00-.11-2.01 14.026 14.026 0 00-.183-1.425 8.448 8.448 0 00-.201-.95V.794h3.253v.073c-.073.256-.14.573-.201.95-.061.378-.116.853-.165 1.426-.048.56-.085 1.23-.109 2.01a84.612 84.612 0 00-.037 2.705v19.407h-.639l-18.822-20.01v12.499c0 1.035.012 1.943.036 2.723.025.767.061 1.431.11 1.992.049.56.103 1.029.164 1.407.061.377.128.694.201.95V27h-3.252v-.073c.073-.256.14-.573.201-.95a13.8 13.8 0 00.182-1.407c.049-.56.086-1.225.11-1.992.024-.78.036-1.688.036-2.723V7.959c0-1.036-.012-1.937-.036-2.705-.024-.78-.061-1.45-.11-2.01a13.78 13.78 0 00-.182-1.425 8.448 8.448 0 00-.201-.95V.794h1.169zm47.841 4.02l-.165.074c-.95-.877-2.095-1.578-3.435-2.102-1.328-.524-2.79-.786-4.386-.786-1.535 0-2.942.244-4.221.731a9.213 9.213 0 00-3.308 2.084c-.913.913-1.626 2.034-2.138 3.362-.511 1.328-.767 2.838-.767 4.532 0 1.864.244 3.606.731 5.226.487 1.608 1.212 3.003 2.174 4.185.963 1.182 2.163 2.114 3.6 2.796 1.45.67 3.137 1.005 5.062 1.005.695 0 1.389-.073 2.083-.22a9.984 9.984 0 001.992-.639c.646-.292 1.249-.64 1.809-1.042a9.476 9.476 0 001.554-1.407l.201.128-1.462 3.728c-.914.353-1.925.621-3.034.804a18.96 18.96 0 01-3.325.293c-2.254 0-4.319-.323-6.195-.969-1.864-.658-3.472-1.584-4.825-2.778a12.696 12.696 0 01-3.143-4.294c-.743-1.681-1.114-3.545-1.114-5.592a13.5 13.5 0 01.438-3.417 13.82 13.82 0 011.316-3.198 12.885 12.885 0 012.12-2.778c.84-.852 1.797-1.59 2.869-2.21a14.659 14.659 0 013.563-1.444c1.304-.354 2.711-.53 4.221-.53 2.352 0 4.532.36 6.542 1.078l1.243 3.38zm4.13-4.02c1.523 0 3.033-.006 4.532-.018 1.51-.012 2.893-.024 4.148-.037 1.255-.024 2.327-.054 3.216-.09.889-.037 1.492-.086 1.809-.147l-.895 2.43c-.402-.11-.871-.207-1.407-.292-.463-.073-1.03-.14-1.7-.201a20.938 20.938 0 00-2.284-.11c-.292 0-.646.012-1.06.037-.402.012-.792.03-1.169.055l-1.334.073v9.977a68.082 68.082 0 003.399-.11c1.011-.06 1.87-.121 2.576-.182.829-.073 1.56-.159 2.193-.256l-.566 2.65c-.841-.11-1.7-.213-2.577-.31a56.614 56.614 0 00-2.467-.22 31.256 31.256 0 00-2.558-.11v11.458c1.437 0 2.759-.061 3.965-.183a44.23 44.23 0 003.161-.42 29.427 29.427 0 002.869-.603l-.53 2.96a17.284 17.284 0 00-.657-.036 270.467 270.467 0 00-2.12-.073c-.39 0-.762-.006-1.115-.019-.353 0-.67-.006-.95-.018h-8.479v-.073c.073-.256.14-.573.201-.95.073-.378.134-.847.183-1.407.048-.56.085-1.225.109-1.992.025-.78.037-1.688.037-2.723V7.959c0-1.036-.012-1.937-.037-2.705-.024-.78-.061-1.45-.109-2.01a14.026 14.026 0 00-.183-1.425 8.448 8.448 0 00-.201-.95V.794z" fill="#fff"/></svg>