<svg width="158" height="28" viewBox="0 0 158 28" fill="none" xmlns="http://www.w3.org/2000/svg"><path d="M4.4 25.392c1.437 0 2.759-.061 3.965-.183a44.277 44.277 0 003.161-.42 29.445 29.445 0 002.87-.603l-.53 2.96a17.31 17.31 0 00-.658-.036 272.137 272.137 0 00-2.12-.073c-.39 0-.762-.006-1.115-.019-.353 0-.67-.006-.95-.018H.544v-.073c.073-.256.14-.573.2-.95.074-.378.135-.847.184-1.407.048-.56.085-1.225.11-1.992.024-.78.036-1.688.036-2.723V7.959c0-1.036-.012-1.937-.037-2.705a37.01 37.01 0 00-.11-2.01 13.932 13.932 0 00-.182-1.425 8.407 8.407 0 00-.201-.95V.794H4.93v.073c-.074.256-.147.573-.22.95-.06.378-.115.853-.164 1.426-.037.56-.073 1.23-.11 2.01A86.682 86.682 0 004.4 7.96v17.433zm13.522 1.535c.073-.256.14-.573.201-.95.061-.378.116-.847.165-1.407.048-.56.085-1.225.11-1.992.024-.78.036-1.688.036-2.723V7.959c0-1.036-.012-1.937-.037-2.705-.024-.78-.06-1.45-.11-2.01a19.659 19.659 0 00-.164-1.425 8.403 8.403 0 00-.2-.95V.794h4.367v.073a11.48 11.48 0 00-.22.95c-.06.378-.115.853-.164 1.426a112.4 112.4 0 00-.11 2.01 86.543 86.543 0 00-.036 2.705v11.896c0 1.035.012 1.943.036 2.723.037.767.073 1.431.11 1.992.049.56.104 1.029.164 1.407.073.377.147.694.22.95V27h-4.368v-.073zm13.633-7.072c0 1.035.012 1.943.036 2.723.037.767.073 1.431.11 1.992.048.56.103 1.029.164 1.407.073.377.146.694.22.95V27h-4.386v-.073c.073-.256.14-.573.2-.95.074-.378.135-.847.183-1.407.05-.56.086-1.225.11-1.992.024-.78.037-1.688.037-2.723V7.959c0-1.036-.012-1.937-.037-2.705-.024-.78-.06-1.45-.11-2.01a13.92 13.92 0 00-.182-1.425 8.403 8.403 0 00-.201-.95V.794h3.07a256.51 256.51 0 013.015-.018c.974-.012 1.9-.024 2.778-.037.877-.024 1.669-.042 2.375-.054.707-.025 1.304-.05 1.791-.073.487-.037.834-.074 1.042-.11l-.896 2.43c-.402-.11-.87-.207-1.407-.292-.463-.073-1.03-.14-1.7-.201a20.941 20.941 0 00-3.38-.073c-.439.012-.871.03-1.297.055l-1.536.073v9.228a71.908 71.908 0 003.454-.11c1.048-.06 1.95-.121 2.705-.182a44.751 44.751 0 002.375-.256l-.548 2.65c-.913-.11-1.84-.214-2.777-.311a65.335 65.335 0 00-2.595-.22 33.296 33.296 0 00-2.613-.109v6.67zM45.132.795c1.523 0 3.033-.006 4.532-.018 1.51-.012 2.893-.024 4.148-.037 1.255-.024 2.327-.054 3.216-.09.89-.037 1.493-.086 1.81-.147l-.896 2.43a13.41 13.41 0 00-1.407-.292c-.463-.073-1.03-.14-1.7-.201-.657-.073-1.419-.11-2.284-.11-.292 0-.645.012-1.06.037-.402.012-.792.03-1.17.055l-1.333.073v9.977a68.013 68.013 0 003.399-.11c1.01-.06 1.87-.121 2.576-.182a34.64 34.64 0 002.193-.256l-.566 2.65c-.84-.11-1.7-.213-2.577-.31a56.628 56.628 0 00-2.467-.22c-.89-.073-1.742-.11-2.558-.11v11.458c1.437 0 2.76-.061 3.965-.183a44.28 44.28 0 003.161-.42 29.44 29.44 0 002.87-.603l-.53 2.96a17.331 17.331 0 00-.658-.036 272.137 272.137 0 00-2.12-.073c-.39 0-.761-.006-1.115-.019-.353 0-.67-.006-.95-.018h-8.479v-.073c.073-.256.14-.573.201-.95.073-.378.134-.847.183-1.407.049-.56.085-1.225.11-1.992.024-.78.036-1.688.036-2.723V7.959c0-1.036-.012-1.937-.037-2.705-.024-.78-.06-1.45-.11-2.01a13.923 13.923 0 00-.182-1.425 8.403 8.403 0 00-.201-.95V.794zm29.275 4.167h-.402a4.907 4.907 0 00-.475-.95 3.942 3.942 0 00-.841-.987 4.188 4.188 0 00-1.261-.786c-.487-.207-1.066-.31-1.736-.31-.597 0-1.127.09-1.59.273a3.258 3.258 0 00-1.17.768 3.315 3.315 0 00-.694 1.17c-.158.45-.237.95-.237 1.498 0 .877.243 1.718.73 2.522.5.792 1.121 1.577 1.865 2.357a44.38 44.38 0 002.412 2.34c.865.779 1.669 1.589 2.412 2.43.743.84 1.358 1.723 1.846 2.65.499.913.749 1.9.749 2.96 0 .791-.14 1.59-.42 2.393a6.056 6.056 0 01-1.261 2.139c-.573.633-1.31 1.15-2.212 1.553-.901.39-1.973.585-3.216.585a9.604 9.604 0 01-1.992-.201c-.62-.122-1.2-.275-1.736-.457a13.134 13.134 0 01-1.425-.622c-.414-.219-.755-.42-1.023-.603l.42-4.038h.457c.134.572.353 1.12.658 1.644a6.04 6.04 0 001.114 1.37 5.8 5.8 0 001.535.951c.573.232 1.2.347 1.883.347.62 0 1.175-.091 1.663-.274.499-.195.925-.457 1.279-.786.353-.34.621-.743.804-1.206.195-.462.292-.968.292-1.516 0-.768-.14-1.474-.42-2.12a8.125 8.125 0 00-1.115-1.864 14.312 14.312 0 00-1.553-1.7 78.284 78.284 0 00-1.773-1.644 59.628 59.628 0 01-1.79-1.718 15.004 15.004 0 01-1.554-1.864c-.45-.67-.816-1.382-1.096-2.138-.28-.767-.42-1.608-.42-2.522 0-.962.182-1.827.548-2.594a6.397 6.397 0 011.48-1.992A6.71 6.71 0 0167.243.759 6.816 6.816 0 0169.656.32c.609 0 1.169.049 1.68.146.512.098.97.214 1.371.348.414.134.774.268 1.078.402l.75.329-.128 3.417zm12.992-2.559c-1.437 0-2.735.067-3.892.201a45.735 45.735 0 00-2.997.402 29.1 29.1 0 00-2.613.603l.53-2.96c.146.012.365.024.658.037.292.012.615.024.968.036l1.133.037c.402 0 .78.006 1.133.018.353 0 .664.006.932.018h11.622c.28-.012.597-.018.95-.018.354-.012.726-.018 1.115-.018a272.697 272.697 0 002.12-.073c.292-.013.512-.025.658-.037l.53 2.96c-.78-.219-1.657-.42-2.632-.603-.84-.146-1.84-.28-2.996-.402a34.081 34.081 0 00-3.893-.2v17.45c0 1.036.012 1.944.037 2.724.036.767.073 1.431.11 1.992.048.56.103 1.029.164 1.407.073.377.146.694.22.95V27h-4.368v-.073c.073-.256.14-.573.2-.95.062-.378.116-.847.165-1.407s.085-1.225.11-1.992c.024-.78.036-1.688.036-2.723V2.403zm26.15 12.025v5.427c0 1.035.012 1.943.037 2.723.024.767.061 1.431.109 1.992.049.56.104 1.029.165 1.407.073.377.146.694.219.95V27h-4.386v-.073c.074-.256.141-.573.201-.95.074-.378.128-.847.165-1.407.049-.56.085-1.225.11-1.992.036-.78.054-1.688.054-2.723v-5.062l-8.168-11.11c-.28-.378-.56-.725-.841-1.042-.268-.317-.523-.59-.767-.822a8.892 8.892 0 00-.658-.603 6.579 6.579 0 00-.457-.348V.795h5.537c0 .28.116.743.347 1.39.244.633.676 1.382 1.298 2.247l5.994 8.205 5.866-8.57c.207-.305.414-.616.621-.933.207-.316.396-.62.566-.913a6.05 6.05 0 00.402-.804c.11-.244.165-.451.165-.622h3.563v.073a18.66 18.66 0 00-1.078 1.042c-.451.45-.938 1.054-1.462 1.81l-7.602 10.708zm16.428 10.964c1.438 0 2.76-.061 3.966-.183a44.23 44.23 0 003.161-.42 29.427 29.427 0 002.869-.603l-.53 2.96a17.24 17.24 0 00-.658-.036 276.114 276.114 0 00-2.119-.073c-.39 0-.762-.006-1.115-.019-.353 0-.67-.006-.95-.018h-8.479v-.073c.073-.256.14-.573.201-.95a13.8 13.8 0 00.182-1.407c.049-.56.086-1.225.11-1.992.024-.78.037-1.688.037-2.723V7.959a87.67 87.67 0 00-.037-2.705c-.024-.78-.061-1.45-.11-2.01a13.78 13.78 0 00-.182-1.425 8.448 8.448 0 00-.201-.95V.794h4.385v.073c-.073.256-.146.573-.219.95-.061.378-.116.853-.164 1.426-.037.56-.074 1.23-.11 2.01a87.67 87.67 0 00-.037 2.705v17.433zM143.336.795c1.522 0 3.033-.006 4.531-.018 1.511-.012 2.894-.024 4.149-.037 1.254-.024 2.327-.054 3.216-.09.889-.037 1.492-.086 1.809-.147l-.895 2.43c-.402-.11-.872-.207-1.408-.292a26.496 26.496 0 00-1.699-.201 20.938 20.938 0 00-2.284-.11c-.293 0-.646.012-1.06.037-.402.012-.792.03-1.17.055l-1.334.073v9.977a68.001 68.001 0 003.399-.11 103.11 103.11 0 002.577-.182 34.723 34.723 0 002.193-.256l-.567 2.65c-.84-.11-1.699-.213-2.576-.31a56.754 56.754 0 00-2.467-.22 31.28 31.28 0 00-2.559-.11v11.458c1.438 0 2.76-.061 3.966-.183a44.23 44.23 0 003.161-.42 29.427 29.427 0 002.869-.603l-.53 2.96a17.24 17.24 0 00-.658-.036 276.114 276.114 0 00-2.119-.073c-.39 0-.762-.006-1.115-.019-.353 0-.67-.006-.95-.018h-8.479v-.073c.073-.256.14-.573.201-.95a13.8 13.8 0 00.182-1.407c.049-.56.086-1.225.11-1.992.024-.78.037-1.688.037-2.723V7.959a87.67 87.67 0 00-.037-2.705c-.024-.78-.061-1.45-.11-2.01a13.78 13.78 0 00-.182-1.425 8.448 8.448 0 00-.201-.95V.794z" fill="#fff"/></svg>