<svg width="220" height="28" viewBox="0 0 220 28" fill="none" xmlns="http://www.w3.org/2000/svg"><path d="M.74.795C2.261.795 3.772.79 5.27.777 6.781.765 8.164.753 9.42.74a151.89 151.89 0 003.216-.09c.89-.037 1.493-.086 1.81-.147l-.896 2.43c-.402-.11-.87-.207-1.407-.292-.463-.073-1.03-.14-1.7-.201-.657-.073-1.419-.11-2.284-.11-.292 0-.645.012-1.06.037-.402.012-.791.03-1.169.055l-1.334.073v9.977a68.012 68.012 0 003.399-.11c1.011-.06 1.87-.121 2.576-.182a34.64 34.64 0 002.193-.256l-.566 2.65c-.84-.11-1.7-.213-2.577-.31a56.61 56.61 0 00-2.467-.22c-.889-.073-1.742-.11-2.558-.11v11.458c1.438 0 2.76-.061 3.965-.183a44.278 44.278 0 003.162-.42 29.445 29.445 0 002.869-.603l-.53 2.96a17.336 17.336 0 00-.658-.036 272.137 272.137 0 00-2.12-.073c-.39 0-.761-.006-1.115-.019-.353 0-.67-.006-.95-.018H.74v-.073c.073-.256.14-.573.201-.95.073-.378.134-.847.183-1.407.049-.56.085-1.225.11-1.992.024-.78.036-1.688.036-2.723V7.959a86.65 86.65 0 00-.036-2.705 37 37 0 00-.11-2.01A13.93 13.93 0 00.94 1.819a8.407 8.407 0 00-.2-.95V.794zm28.123 14.747l-6.47 8.205c-.243.293-.48.597-.712.914-.232.304-.439.603-.621.895a8.315 8.315 0 00-.457.823c-.11.243-.165.45-.165.621h-3.545v-.073a27.88 27.88 0 001.133-1.06c.5-.475 1.03-1.072 1.59-1.79l8.04-10.106-8.26-10.855a10.656 10.656 0 00-1.333-1.462c-.439-.402-.768-.664-.987-.786V.795h5.72c0 .147.018.335.055.567.048.231.134.505.255.822.122.305.287.646.494 1.023.219.378.5.786.84 1.225l5.281 6.926 5.83-7.292c.22-.268.432-.56.64-.877.219-.317.407-.621.566-.913.17-.305.305-.585.402-.841.11-.256.164-.47.164-.64h3.545v.073a8.004 8.004 0 00-.401.348c-.147.134-.317.298-.512.493-.183.195-.39.426-.621.694-.232.268-.494.585-.786.95l-7.62 9.613 8.515 11.147a19.964 19.964 0 001.627 1.882c.511.487.883.798 1.114.932V27h-5.683c0-.28-.116-.743-.347-1.389-.232-.646-.664-1.395-1.298-2.248l-5.993-7.82zM66.415 4.816l-.164.073c-.95-.877-2.096-1.578-3.436-2.102-1.328-.524-2.79-.786-4.385-.786-1.535 0-2.942.244-4.222.731a9.208 9.208 0 00-3.307 2.084c-.914.913-1.627 2.034-2.138 3.362-.512 1.328-.768 2.838-.768 4.532 0 1.864.244 3.606.731 5.226.488 1.608 1.212 3.003 2.175 4.185.962 1.182 2.162 2.114 3.6 2.796 1.45.67 3.137 1.005 5.062 1.005.694 0 1.389-.073 2.083-.22.694-.146 1.358-.359 1.992-.639.645-.292 1.248-.64 1.809-1.042A9.483 9.483 0 0067 22.614l.201.128-1.462 3.728c-.913.353-1.925.621-3.033.804a18.967 18.967 0 01-3.326.293c-2.254 0-4.319-.323-6.195-.969-1.864-.658-3.472-1.584-4.824-2.778a12.686 12.686 0 01-3.143-4.294c-.743-1.681-1.115-3.545-1.115-5.592 0-1.157.146-2.296.439-3.417.304-1.12.743-2.187 1.315-3.198a12.916 12.916 0 012.12-2.778 13.53 13.53 0 012.869-2.21A14.662 14.662 0 0154.409.886c1.304-.354 2.711-.53 4.222-.53 2.35 0 4.532.36 6.542 1.078l1.242 3.38zm7.986 20.576c1.438 0 2.76-.061 3.965-.183a44.276 44.276 0 003.162-.42 29.445 29.445 0 002.869-.603l-.53 2.96a17.331 17.331 0 00-.658-.036 271.578 271.578 0 00-2.12-.073c-.39 0-.761-.006-1.114-.019-.354 0-.67-.006-.95-.018h-8.48v-.073c.073-.256.14-.573.201-.95.073-.378.134-.847.183-1.407.049-.56.085-1.225.11-1.992.024-.78.036-1.688.036-2.723V7.959c0-1.036-.012-1.937-.036-2.705-.025-.78-.061-1.45-.11-2.01a13.952 13.952 0 00-.183-1.425 8.423 8.423 0 00-.2-.95V.794h4.385v.073a11.48 11.48 0 00-.22.95c-.06.378-.115.853-.164 1.426a112.4 112.4 0 00-.11 2.01 86.543 86.543 0 00-.036 2.705v17.433zm32.107-17.433c0-1.036-.012-1.937-.036-2.705a37.34 37.34 0 00-.11-2.01 19.793 19.793 0 00-.165-1.425 8.024 8.024 0 00-.201-.95V.794h3.253v.073c-.073.256-.146.573-.219.95-.061.378-.116.853-.165 1.426-.036.56-.073 1.23-.109 2.01a84.612 84.612 0 00-.037 2.705v9.867c0 1.743-.249 3.229-.749 4.46-.499 1.23-1.194 2.24-2.083 3.033-.889.78-1.955 1.346-3.198 1.7-1.243.365-2.601.548-4.075.548-1.474 0-2.85-.171-4.13-.512-1.267-.341-2.376-.89-3.326-1.645-.938-.767-1.675-1.754-2.211-2.96-.536-1.218-.804-2.699-.804-4.44V7.958c0-1.036-.012-1.937-.037-2.705-.024-.78-.06-1.45-.11-2.01a13.923 13.923 0 00-.182-1.425 8.403 8.403 0 00-.201-.95V.794h4.386v.073a11.48 11.48 0 00-.22.95c-.06.378-.115.853-.164 1.426-.049.56-.085 1.23-.11 2.01a86.883 86.883 0 00-.036 2.705V18.21c0 1.45.213 2.65.64 3.6.438.938 1.01 1.688 1.717 2.248.707.548 1.51.932 2.412 1.151.902.22 1.822.33 2.76.33.938 0 1.857-.11 2.759-.33a6.17 6.17 0 002.394-1.151c.706-.56 1.273-1.31 1.699-2.248.439-.95.658-2.15.658-3.6V7.96zm18.749-2.997h-.402a4.9 4.9 0 00-.475-.95 3.928 3.928 0 00-.841-.987 4.181 4.181 0 00-1.261-.786c-.487-.207-1.066-.31-1.736-.31-.596 0-1.126.09-1.589.273a3.262 3.262 0 00-1.17.768 3.318 3.318 0 00-.694 1.17 4.48 4.48 0 00-.238 1.498c0 .877.244 1.718.731 2.522a15.21 15.21 0 001.864 2.357c.743.78 1.547 1.56 2.412 2.34.865.779 1.669 1.589 2.412 2.43.743.84 1.359 1.723 1.846 2.65.499.913.749 1.9.749 2.96 0 .791-.14 1.59-.42 2.393a6.049 6.049 0 01-1.261 2.139c-.573.633-1.31 1.15-2.211 1.553-.902.39-1.974.585-3.216.585a9.598 9.598 0 01-1.992-.201c-.621-.122-1.2-.275-1.736-.457a13.189 13.189 0 01-1.426-.622c-.414-.219-.755-.42-1.023-.603l.42-4.038h.457c.134.572.354 1.12.658 1.644a6.04 6.04 0 001.115 1.37c.451.39.962.707 1.535.951.572.232 1.2.347 1.882.347.621 0 1.176-.091 1.663-.274a3.974 3.974 0 001.279-.786 3.39 3.39 0 00.804-1.206c.195-.462.293-.968.293-1.516 0-.768-.141-1.474-.421-2.12a8.15 8.15 0 00-1.114-1.864 14.328 14.328 0 00-1.554-1.7 77.403 77.403 0 00-1.772-1.644 60.115 60.115 0 01-1.791-1.718 14.968 14.968 0 01-1.553-1.864 10.109 10.109 0 01-1.097-2.138c-.28-.767-.42-1.608-.42-2.522 0-.962.183-1.827.548-2.594a6.405 6.405 0 011.48-1.992 6.717 6.717 0 012.102-1.261 6.81 6.81 0 012.412-.439c.609 0 1.169.049 1.681.146.512.098.969.214 1.371.348.414.134.773.268 1.078.402l.749.329-.128 3.417zm6.268 21.965c.073-.256.14-.573.201-.95.061-.378.116-.847.165-1.407.048-.56.085-1.225.109-1.992.025-.78.037-1.688.037-2.723V7.959c0-1.036-.012-1.937-.037-2.705-.024-.78-.061-1.45-.109-2.01a19.793 19.793 0 00-.165-1.425 8.448 8.448 0 00-.201-.95V.794h4.367v.073c-.073.256-.146.573-.219.95-.061.378-.116.853-.164 1.426-.037.56-.073 1.23-.11 2.01a87.984 87.984 0 00-.036 2.705v11.896c0 1.035.012 1.943.036 2.723.037.767.073 1.431.11 1.992.048.56.103 1.029.164 1.407.073.377.146.694.219.95V27h-4.367v-.073zM142.946.795v.073c-.024.061-.042.153-.055.275a3.387 3.387 0 00-.018.328c0 .378.049.798.146 1.261.11.451.311 1.018.603 1.7l8.096 18.255 7.821-18.109c.183-.45.377-.944.585-1.48.207-.536.31-1.078.31-1.627a1.56 1.56 0 00-.109-.603V.795h3.746v.073c-.232.232-.512.646-.841 1.243a29.479 29.479 0 00-1.078 2.211l-10.471 23.245h-1.462l-9.923-22.35a25.206 25.206 0 00-.73-1.516 31.448 31.448 0 00-.695-1.316 17.252 17.252 0 00-.585-1.005 6.16 6.16 0 00-.347-.512V.795h5.007zm23.153 26.132c.073-.256.14-.573.201-.95.061-.378.116-.847.165-1.407.048-.56.085-1.225.109-1.992.025-.78.037-1.688.037-2.723V7.959c0-1.036-.012-1.937-.037-2.705-.024-.78-.061-1.45-.109-2.01a19.793 19.793 0 00-.165-1.425 8.448 8.448 0 00-.201-.95V.794h4.368v.073c-.074.256-.147.573-.22.95-.061.378-.115.853-.164 1.426-.037.56-.073 1.23-.11 2.01a87.984 87.984 0 00-.036 2.705v11.896c0 1.035.012 1.943.036 2.723.037.767.073 1.431.11 1.992.049.56.103 1.029.164 1.407.073.377.146.694.22.95V27h-4.368v-.073zm16.666-24.524c-1.438 0-2.735.067-3.892.201a45.618 45.618 0 00-2.997.402c-.975.183-1.846.384-2.614.603l.53-2.96c.147.012.366.024.658.037a138.302 138.302 0 002.102.073c.402 0 .779.006 1.133.018.353 0 .664.006.932.018h11.622c.28-.012.597-.018.95-.018a32.4 32.4 0 011.115-.018 271.023 271.023 0 002.12-.073c.292-.013.511-.025.657-.037l.53 2.96c-.779-.219-1.656-.42-2.631-.603-.841-.146-1.84-.28-2.997-.402a34.078 34.078 0 00-3.892-.2v17.45c0 1.036.012 1.944.036 2.724.037.767.073 1.431.11 1.992.049.56.103 1.029.164 1.407.073.377.147.694.22.95V27h-4.368v-.073c.073-.256.14-.573.201-.95.061-.378.116-.847.165-1.407.048-.56.085-1.225.109-1.992.025-.78.037-1.688.037-2.723V2.403zm26.15 12.025v5.427c0 1.035.012 1.943.036 2.723.025.767.061 1.431.11 1.992.049.56.103 1.029.164 1.407.073.377.147.694.22.95V27h-4.386v-.073c.073-.256.14-.573.201-.95.073-.378.128-.847.164-1.407.049-.56.086-1.225.11-1.992.037-.78.055-1.688.055-2.723v-5.062l-8.169-11.11c-.28-.378-.56-.725-.84-1.042-.268-.317-.524-.59-.768-.822a8.878 8.878 0 00-.657-.603 6.746 6.746 0 00-.457-.348V.795h5.537c0 .28.115.743.347 1.39.243.633.676 1.382 1.297 2.247l5.994 8.205 5.866-8.57c.207-.305.414-.616.621-.933.207-.316.396-.62.567-.913.17-.293.304-.56.402-.804.109-.244.164-.451.164-.622h3.564v.073c-.268.232-.628.58-1.078 1.042-.451.45-.939 1.054-1.462 1.81l-7.602 10.708z" fill="#fff"/></svg>