<svg width="248" height="43" viewBox="0 0 248 43" fill="none" xmlns="http://www.w3.org/2000/svg"><g clip-path="url(#clip0_153_779)" fill="#fff"><path d="M8.279 9.093l.234.208L.339 27.875H0L8.279 9.093zm-3.5 8.227h8.068v.311H4.778v-.31zm2.82-9.21h2.4l8.775 19.768h-2.402L7.598 8.111zM19.947 17.995c0-5.744 4.387-10.064 10.21-10.064 5.821 0 10.183 4.45 10.183 10.04 0 5.588-4.254 10.09-10.184 10.09s-10.209-4.32-10.209-10.063v-.003zm18.15 0c0-5.872-2.95-9.756-7.938-9.756-4.987 0-7.989 3.856-7.989 9.756s2.977 9.755 7.99 9.755c5.011 0 7.936-3.855 7.936-9.755zm-5.355 9.676l.287-.128c1.096 1.888 2.453 4.243 5.535 4.243 1.724 0 3.602-1.034 3.602-3.157h.314c0 2.327-2.09 3.468-3.916 3.468-3.343 0-4.701-2.483-5.822-4.423v-.003zM44.389 19.959V8.111h2.167v12.367c0 4.167 2.063 7.193 6.188 7.193 4.126 0 6.502-2.77 6.502-7.633V8.111h.314v11.875c0 5.202-2.82 8.072-7.074 8.072-5.407 0-8.094-2.69-8.094-8.099h-.003zM70.185 9.093l.234.208-8.174 18.577h-.339l8.279-18.785zm-3.498 8.227h8.07v.311h-8.07v-.31zm2.82-9.21h2.402l8.774 19.768h-2.401L69.507 8.111zM88.567 8.11h5.431c3.159 0 5.745 1.27 5.77 4.244.024 3.337-2.35 4.966-8.383 4.966h-.6l-.053 10.555h-2.168V8.111h.004zm2.873 8.9c4.778 0 6.345-1.761 6.32-4.659-.024-2.562-1.333-3.932-4.254-3.932h-2.768l.052 8.59h.653-.003zm5.951 3.88c-1.2-2.356-1.515-3.57-4.153-3.57h-1.881v-.31h2.063c4.516 0 5.012 1.5 6.11 3.648l3.735 7.217h-2.297l-3.577-6.986zM105.38 8.11h2.167v19.768h-2.167V8.111zm.81 0h10.365v.312H106.19v-.311zm0 7.554h9.06v.311h-9.06v-.311zm0 11.903h10.627v.311H106.19v-.311zM118.175 22.083h.314c0 3.285 2.429 5.64 6.163 5.664 2.977 0 5.745-1.656 5.745-5.2 0-6.312-10.994-2.871-10.994-9.729 0-2.898 2.402-4.89 6.059-4.89 3.42 0 5.274 1.992 5.274 3.96h-.314c0-1.733-1.62-3.597-4.935-3.649-2.95-.051-5.04 1.373-5.04 3.39 0 5.588 11.071 2.406 11.071 9.548 0 4.423-3.107 6.881-6.841 6.881-3.944 0-6.502-2.43-6.502-5.975zm12.561-10.195c0 .75-.21 1.345-.444 1.708l-.261-.155c.234-.364.391-.855.391-1.553h.314zM134.495 8.11h2.168v19.768h-2.168V8.111zm.81 0h10.366v.312h-10.366v-.311zm0 7.554h9.06v.311h-9.06v-.311zm0 11.903h10.627v.311h-10.627v-.311zM149.196 8.11h5.431c3.159 0 5.745 1.27 5.77 4.244.024 3.337-2.349 4.966-8.384 4.966h-.6l-.052 10.555h-2.168V8.111h.003zm2.873 8.9c4.778 0 6.345-1.761 6.32-4.659-.024-2.562-1.333-3.932-4.254-3.932h-2.768l.052 8.59h.653-.003zm5.951 3.88c-1.201-2.356-1.515-3.57-4.153-3.57h-1.881v-.31h2.062c4.517 0 5.013 1.5 6.112 3.648l3.734 7.217h-2.297l-3.577-6.986zM164.236 8.11h2.349l7.702 17.776h-.314l7.494-17.775h.339l-8.356 19.767h-.653l-8.565-19.767h.004zM183.948 8.11h2.168v19.768h-2.168V8.111zm.81 0h10.366v.312h-10.366v-.311zm0 7.554h9.06v.311h-9.06v-.311zm0 11.903h10.628v.311h-10.628v-.311zM70.299 34.568v3.761h2.355v.265h-2.651v-4.026h.296zM74.683 37.838c.101.17.24.305.421.397.18.091.382.14.61.14.228 0 .434-.046.616-.14a1.06 1.06 0 00.425-.397 1.16 1.16 0 00.154-.604v-2.666h.289v2.684c0 .287-.065.534-.194.745a1.27 1.27 0 01-.53.479 1.668 1.668 0 01-.76.167c-.283 0-.53-.055-.754-.167a1.292 1.292 0 01-.53-.48 1.376 1.376 0 01-.194-.744v-2.684h.296v2.666c0 .232.05.433.15.604zM81.573 38.598l-1.272-1.84-1.216 1.84h-.363l1.416-2.072-1.358-1.958h.37l1.21 1.742 1.157-1.742h.351l-1.351 1.974 1.428 2.052h-.375l.003.004zM83.928 37.838c.101.17.24.305.422.397.178.091.381.14.61.14.227 0 .433-.046.615-.14a1.06 1.06 0 00.425-.397 1.16 1.16 0 00.154-.604v-2.666h.29v2.684c0 .287-.066.534-.195.745a1.27 1.27 0 01-.53.479 1.668 1.668 0 01-.76.167c-.283 0-.53-.055-.754-.167a1.292 1.292 0 01-.53-.48 1.376 1.376 0 01-.194-.744v-2.684h.296v2.666c0 .232.05.433.15.604zM90.803 38.598l-1.127-1.715c-.086.015-.19.022-.32.022h-.665v1.69h-.296v-4.027h.983c.224 0 .443.043.65.125.209.082.378.21.507.381.133.171.197.382.197.635s-.061.466-.181.668c-.12.198-.308.344-.564.433l1.164 1.788h-.348zm-.628-2.23a.93.93 0 00.252-.647.835.835 0 00-.123-.442.863.863 0 00-.354-.324 1.15 1.15 0 00-.532-.119h-.727v1.803h.647c.39 0 .67-.091.837-.271zM95.79 34.568l-1.604 2.593v1.437h-.296V37.16l-1.604-2.593h.363l1.398 2.282 1.386-2.282h.357zM103.099 38.778l-.989-2.422-1.009 2.428-1.697-4.204h.339l1.385 3.551.835-2.123-.582-1.43h.295l1.429 3.516 1.398-3.517h.314l-1.728 4.198.01.003zM108.299 37.265h-1.897l-.569 1.333h-.296l1.817-4.204h.024l1.817 4.204h-.333l-.563-1.333zm-.108-.263l-.828-1.98-.847 1.98h1.678-.003zM112.945 34.568v.265h-1.266v3.761h-.295v-3.76h-1.253v-.266h2.817-.003zM117.224 34.568v.265h-2.355v1.599h2.118v.265h-2.118v1.63h2.441v.265h-2.737v-4.027h2.651v.003zM121.457 38.598l-1.126-1.715a1.889 1.889 0 01-.321.022h-.665v1.69h-.295v-4.027h.982c.225 0 .443.043.65.125.209.082.378.21.507.381.133.171.198.382.198.635s-.062.466-.182.668c-.12.198-.308.344-.564.433l1.164 1.788h-.348zm-.628-2.23a.927.927 0 00.253-.647.836.836 0 00-.123-.442.875.875 0 00-.354-.324 1.152 1.152 0 00-.533-.119h-.727v1.803h.647c.391 0 .671-.091.837-.271zM125.894 34.568v.265h-2.112v1.663h1.872v.262h-1.872v1.84h-.296V34.57h2.411l-.003-.003zM130 38.598l-1.126-1.715a1.889 1.889 0 01-.321.022h-.665v1.69h-.295v-4.027h.982c.225 0 .443.043.649.125.21.082.379.21.508.381.133.171.197.382.197.635s-.061.466-.181.668c-.12.198-.308.344-.564.433l1.164 1.788H130zm-.628-2.23a.932.932 0 00.253-.647.836.836 0 00-.123-.442.875.875 0 00-.354-.324 1.152 1.152 0 00-.533-.119h-.727v1.803h.647c.391 0 .671-.091.837-.271zM132.01 35.559c.197-.314.465-.567.801-.753.335-.186.699-.281 1.096-.281.397 0 .763.095 1.102.28.339.187.607.44.807.754.197.317.295.659.295 1.031 0 .372-.098.714-.295 1.031a2.084 2.084 0 01-.807.747 2.279 2.279 0 01-1.102.275c-.397 0-.767-.088-1.102-.265a2.055 2.055 0 01-.798-.739 1.935 1.935 0 01-.292-1.049c0-.384.098-.714.295-1.031zm.259 1.925a1.89 1.89 0 001.629.89c.344 0 .668-.079.96-.237.293-.159.524-.376.693-.65.169-.275.255-.574.255-.9a1.66 1.66 0 00-.258-.9 1.932 1.932 0 00-1.644-.9c-.345 0-.665.083-.958.247a1.841 1.841 0 00-.683.662 1.71 1.71 0 00.006 1.788zM141.419 34.568v4.124h-.013l-3.312-3.496.006 3.398h-.289v-4.112h.018l3.313 3.524-.006-3.438h.283zM145.862 34.568v.265h-1.266v3.761h-.295v-3.76h-1.253v-.266h2.817-.003zM152.425 34.568v.265h-1.265v3.761h-.296v-3.76h-1.253v-.266h2.817-.003zM153.86 35.559c.197-.314.465-.567.8-.753a2.22 2.22 0 011.096-.281 2.253 2.253 0 011.909 1.034c.197.317.296.659.296 1.031 0 .372-.099.714-.296 1.031a2.088 2.088 0 01-.806.747 2.28 2.28 0 01-1.103.275c-.397 0-.766-.088-1.102-.265a2.059 2.059 0 01-.797-.739 1.936 1.936 0 01-.293-1.049c0-.384.099-.714.296-1.031zm.262 1.925c.169.271.397.488.683.65.286.161.601.24.945.24.345 0 .668-.079.961-.237.292-.159.523-.376.693-.65.169-.275.255-.574.255-.9 0-.326-.086-.625-.259-.9a1.921 1.921 0 00-1.644-.9 1.92 1.92 0 00-.957.247 1.841 1.841 0 00-.683.662c-.167.278-.25.574-.25.897 0 .323.086.62.256.89zM162.69 38.778l-.989-2.422-1.01 2.428-1.696-4.204h.339l1.385 3.551.834-2.123-.581-1.43h.295l1.429 3.516 1.397-3.517h.314l-1.727 4.198.01.003zM169.61 34.568v4.124h-.012l-3.313-3.496.006 3.398h-.289v-4.112h.018l3.313 3.524-.006-3.438h.283zM174.767 38.597h-.295v-1.894h-2.592v1.894h-.296v-4.026h.296v1.873h2.592V34.57h.295v4.026zM176.765 35.559c.197-.314.465-.567.801-.753.335-.186.699-.281 1.096-.281a2.252 2.252 0 011.909 1.034c.197.317.295.659.295 1.031 0 .372-.098.714-.295 1.031a2.09 2.09 0 01-.807.747 2.279 2.279 0 01-1.102.275c-.397 0-.767-.088-1.102-.265a2.055 2.055 0 01-.798-.739 1.935 1.935 0 01-.292-1.049c0-.384.098-.714.295-1.031zm.262 1.925a1.89 1.89 0 001.629.89c.344 0 .668-.079.96-.237.293-.159.524-.376.693-.65.169-.275.255-.574.255-.9a1.66 1.66 0 00-.258-.9 1.932 1.932 0 00-1.644-.9c-.345 0-.665.083-.958.247a1.841 1.841 0 00-.683.662 1.71 1.71 0 00.006 1.788zM186.685 34.48v4.118h-.289V35.29l-1.767 2.33h-.013l-1.754-2.303v3.28h-.29V34.48h.006l2.048 2.73 2.059-2.73zM191.309 34.568v.265h-2.355v1.599h2.118v.265h-2.118v1.63h2.441v.265h-2.737v-4.027h2.651v.003zM194.798 34.858a2.085 2.085 0 00-.521-.067c-.283 0-.508.064-.677.195a.612.612 0 00-.255.503c0 .144.046.266.135.366.092.1.206.183.348.25s.323.14.545.22c.243.082.443.168.603.256.16.089.293.205.404.354.107.15.163.342.163.577 0 .234-.056.42-.17.591-.113.171-.27.305-.474.4a1.64 1.64 0 01-.699.14c-.455 0-.908-.137-1.357-.415l.138-.225c.148.106.333.198.551.277.219.08.431.12.635.12.181 0 .354-.034.517-.101a.962.962 0 00.4-.302.779.779 0 00.154-.485.702.702 0 00-.142-.449 1.065 1.065 0 00-.357-.293 4.002 4.002 0 00-.542-.222 5.239 5.239 0 01-.6-.241 1.2 1.2 0 01-.397-.308.723.723 0 01-.16-.482c0-.193.052-.357.154-.504.101-.146.246-.26.431-.341.184-.083.388-.125.615-.128.194 0 .395.024.604.073.209.049.391.113.554.186l-.114.216a3.227 3.227 0 00-.483-.164l-.003.003zM231.301 34.029a.249.249 0 00.323.134.243.243 0 00.132-.32l-.622-1.486c-.151.067-.301.128-.455.19l.622 1.485v-.003zM226.529 9.612a.231.231 0 00.04-.128V8.383a.246.246 0 00-.493 0v1.101c0 .049.019.088.04.128h.413zM226.329 35.026a.246.246 0 00-.246.244V38.2c0 .135.114.046.249.046v.199c.136 0 .247-.11.247-.244V35.27a.249.249 0 00-.25-.244zM220.374 5.979a.246.246 0 00-.326-.125.242.242 0 00-.126.323l1.896 4.308c.151-.062.305-.123.462-.178l-1.906-4.325v-.003zM232.561 35.761a.248.248 0 00-.324-.131.244.244 0 00-.132.32l.899 2.15a.249.249 0 00.323.135.244.244 0 00.133-.32l-.899-2.151v-.003zM239.339 16.403a.244.244 0 00.133-.32.248.248 0 00-.324-.132l-1.853.76c.068.15.129.299.191.451l1.853-.76zM238.812 26.869a.25.25 0 00.324-.134.244.244 0 00-.133-.32l-1.514-.623c-.059.152-.124.302-.188.451l1.515.623-.004.003zM238.302 21.683c.037.025.08.04.129.04h5.711c.135 0 .246-.11.246-.244a.246.246 0 00-.246-.244h-5.711a.257.257 0 00-.126.04v.408h-.003zM233.426 5.13a.247.247 0 00-.456-.19l-2.287 5.474c.154.058.304.122.455.186l2.288-5.472v.003zM212.176 21.235h-.917c.135 0 .246.11.246.244a.246.246 0 01-.246.244h.917c.136 0 .247-.11.247-.244a.246.246 0 00-.247-.244zM210.138 14.572a.247.247 0 00-.323.131.244.244 0 00.132.32l5.213 2.14c.061-.153.123-.303.187-.452l-5.212-2.139h.003zM218.854 3.75a.248.248 0 00.326.124.242.242 0 00.126-.323l-.815-1.855a.247.247 0 00-.327-.125.243.243 0 00-.126.323l.816 1.855zM233.764 3.676a.25.25 0 00.323-.134l.576-1.373a.244.244 0 00-.133-.32.248.248 0 00-.323.13l-.576 1.373a.244.244 0 00.133.32v.004zM226.322 6.9c.136 0 .247-.11.247-.244V.244a.246.246 0 00-.493 0v6.412c0 .134.111.244.246.244zM240.115 15.82a.25.25 0 00.323.134l5.785-2.373a.243.243 0 00.132-.32.247.247 0 00-.323-.132l-5.785 2.374a.244.244 0 00-.132.32v-.003zM239.863 8.31a.248.248 0 00.176-.074l1.616-1.601a.244.244 0 000-.345.249.249 0 00-.348 0l-1.616 1.602a.242.242 0 000 .344.245.245 0 00.175.074h-.003z"/><path d="M211.013 21.479c0-.134.111-.244.246-.244h-2.946a.246.246 0 00-.247.244c0 .134.111.244.247.244h2.946a.246.246 0 01-.246-.244zM207.931 13.666l-1.185-.488a.248.248 0 00-.324.131.244.244 0 00.133.32l1.185.489a.249.249 0 00.323-.134.243.243 0 00-.132-.32v.002zM213.131 8.755a.256.256 0 00.351 0 .244.244 0 000-.345l-2.137-2.117a.249.249 0 00-.348 0 .244.244 0 000 .345l2.137 2.117h-.003z"/><path d="M211.259 21.723c.136 0 .246-.11.246-.244a.245.245 0 00-.246-.244.245.245 0 00-.246.244c0 .135.11.244.246.244zM206.367 21.235h-1.478a.245.245 0 00-.246.244c0 .134.11.244.246.244h1.478c.135 0 .246-.11.246-.244a.246.246 0 00-.246-.244zM234.968 13.26l3.266-3.236a.242.242 0 000-.345.248.248 0 00-.347 0l-3.267 3.237c.117.113.234.229.348.348v-.003zM243.345 28.2l-3.3-1.355a.248.248 0 00-.324.13.244.244 0 00.133.321l3.3 1.355a.25.25 0 00.323-.134.243.243 0 00-.132-.321v.003zM238.52 33.22a.249.249 0 00-.348 0 .244.244 0 000 .345l1.21 1.199a.246.246 0 00.351-.345l-1.21-1.199h-.003zM234.968 29.7c-.114.116-.231.232-.351.344l2.546 2.523a.256.256 0 00.351 0 .242.242 0 000-.345l-2.546-2.522zM218.032 12.919l-2.762-2.736a.249.249 0 00-.348 0 .244.244 0 000 .344l2.762 2.737c.114-.12.231-.232.348-.345zM214.347 21.235h-.548a.246.246 0 00-.246.244c0 .134.111.244.246.244h.548a13.231 13.231 0 010-.488zM244.982 28.873l-.751-.308a.247.247 0 00-.323.131.243.243 0 00.132.32l.751.308a.25.25 0 00.324-.134.244.244 0 00-.133-.32v.003zM247.754 21.235h-1.968a.246.246 0 00-.246.244c0 .134.111.244.246.244h1.968c.135 0 .246-.11.246-.244a.246.246 0 00-.246-.244zM236.938 17.123l.01.017c-.003-.01-.01-.02-.013-.03v.014h.003z"/><path d="M214.648 20.295c.111-1.068.367-2.087.742-3.038l-.227-.092a11.793 11.793 0 00-.761 3.108c-.034.32-.049.641-.055.965h.246c.006-.312.022-.623.055-.94v-.003zM217.854 13.434l-.17-.167a11.886 11.886 0 00-2.333 3.447l.224.091a11.557 11.557 0 012.279-3.37zM227.517 9.911c1.078.11 2.106.363 3.066.735l.096-.229a12.161 12.161 0 00-3.137-.75 12.628 12.628 0 00-1.013-.058.241.241 0 01-.413-.003 11.991 11.991 0 00-3.836.692l.099.223a11.79 11.79 0 015.138-.613v.003zM231.039 32.125l.096.229a12.081 12.081 0 002.752-1.669c.252-.204.496-.42.727-.64l-.176-.174c-.988.94-2.14 1.702-3.402 2.254h.003zM237.255 17.257a11.476 11.476 0 010 8.444l.231.094c.388-.985.643-2.029.757-3.108.034-.336.052-.672.059-1.004a.238.238 0 01-.12-.204c0-.089.049-.162.12-.205a11.689 11.689 0 00-.813-4.112l-.228.095h-.006zM234.792 29.526l.176.174a11.711 11.711 0 002.33-3.45l-.231-.095a11.613 11.613 0 01-2.278 3.37h.003zM234.441 13.09l.175-.174a11.841 11.841 0 00-3.481-2.31l-.096.23a11.672 11.672 0 013.402 2.257v-.003zM237.067 16.805l.006-.003.225-.091a11.917 11.917 0 00-1.684-2.727c-.206-.25-.425-.492-.647-.72l-.175.174c.948.979 1.721 2.12 2.275 3.37v-.003zM221.918 10.701l-.099-.22c-1.41.57-2.694 1.4-3.787 2.438l.17.168a11.784 11.784 0 013.712-2.386h.004zM214.593 21.726h-.246c.006.31.021.622.052.93a.247.247 0 00.271.22.235.235 0 00.111-.043l-.136-.201c-.03-.3-.043-.601-.049-.906h-.003zM225.128 33.046a11.698 11.698 0 01-4.368-1.327l-.136-.2a.249.249 0 00-.083.085.245.245 0 00.102.332 12.024 12.024 0 004.461 1.354 11.942 11.942 0 005.575-.747l-.095-.232c-1.681.65-3.538.928-5.456.735z"/><path d="M214.593 21.235h-.246c-.003.162-.003.326 0 .488h.246c-.003-.162 0-.326 0-.488zM215.579 16.805l-.225-.091c-.065.15-.129.299-.188.451l.228.092c.058-.153.123-.302.188-.452h-.003zM234.968 29.7l-.176-.174c-.114.119-.231.232-.348.345l.176.174c.12-.113.237-.23.351-.345h-.003zM218.204 13.09l-.17-.168c-.12.113-.234.229-.347.345l.169.167c.114-.119.231-.231.348-.344zM230.584 32.311l.095.232c.154-.058.305-.122.456-.19l-.095-.228a8.46 8.46 0 01-.456.186zM226.322 9.728c.09 0 .164-.05.207-.116h-.413a.24.24 0 00.206.119v-.003zM237.067 26.155l.231.095c.065-.15.13-.3.188-.452l-.231-.094c-.058.152-.123.302-.188.451zM234.792 13.434l.176-.174a12.54 12.54 0 00-.348-.347l-.176.173c.12.113.234.23.348.345v.003zM237.067 16.805c.065.15.13.3.188.452h.006l.228-.095a7.72 7.72 0 00-.191-.451l-.224.091-.007.003zM231.043 10.832l.095-.228c-.151-.064-.302-.129-.456-.186l-.095.228c.154.058.308.122.456.186zM222.379 10.527l-.099-.222c-.154.055-.308.116-.462.177l.099.22c.154-.062.305-.123.462-.178v.003zM238.182 21.479c0 .088.05.162.121.204v-.409a.239.239 0 00-.121.205zM214.888 22.607a12.3 12.3 0 01-.049-.881h-.246c.006.305.021.607.049.906l.135.2a.239.239 0 00.111-.225z"/><path d="M237.068 16.805a11.611 11.611 0 00-2.275-3.37l-.176.173a11.353 11.353 0 012.318 3.505.243.243 0 01.133-.305v-.003zM215.578 16.805l.231.095a11.361 11.361 0 012.226-3.288l-.179-.177a11.613 11.613 0 00-2.278 3.37zM225.128 33.046a11.744 11.744 0 005.456-.735l-.093-.223c-1.675.65-3.494.9-5.338.714a11.49 11.49 0 01-4.277-1.296.242.242 0 00-.252.015l.135.201a11.822 11.822 0 004.369 1.327v-.003zM233.576 30.307a11.559 11.559 0 01-2.629 1.595l.093.223a11.747 11.747 0 003.402-2.254l-.176-.174c-.222.21-.449.415-.69.607v.003zM237.997 22.662c.197-1.9-.083-3.74-.742-5.405a.232.232 0 01-.089.018.25.25 0 01-.219-.134 11.215 11.215 0 01.804 5.497 11.452 11.452 0 01-.721 2.97l.228.092c.376-.954.631-1.97.742-3.038h-.003zM236.843 26.06a11.28 11.28 0 01-2.223 3.292l.173.17a11.633 11.633 0 002.278-3.37l-.228-.091zM218.204 13.09l.179.177a11.526 11.526 0 013.636-2.334l-.102-.229a11.774 11.774 0 00-3.713 2.386zM214.648 20.295c-.034.314-.049.628-.055.94h.246a10.4 10.4 0 01.055-.916c.108-1.043.358-2.038.724-2.971l-.231-.095c-.376.955-.631 1.971-.742 3.039l.003.003zM231.043 10.832l-.093.226a11.386 11.386 0 013.322 2.203l.173-.171a11.76 11.76 0 00-3.402-2.258zM227.517 9.911a11.79 11.79 0 00-5.138.613l.102.229a11.461 11.461 0 015.012-.598c1.043.107 2.047.35 2.998.714l.093-.226a11.822 11.822 0 00-3.067-.735v.003z"/><path d="M234.269 29.697l.175.174c.12-.113.234-.23.348-.345l-.172-.171c-.114.116-.231.232-.351.345v-.003zM215.391 17.257l.231.094c.058-.152.123-.302.187-.451l-.231-.095c-.064.15-.129.3-.187.452zM214.593 21.726h.246a13.237 13.237 0 010-.488h-.246c-.003.165-.003.326 0 .488zM221.917 10.701l.102.23c.154-.062.304-.123.461-.178l-.101-.229c-.154.055-.308.116-.462.177zM230.584 10.646l-.093.226c.154.058.305.122.456.186l.092-.226c-.151-.064-.301-.128-.455-.186zM230.491 32.088l.093.223c.154-.058.304-.122.455-.186l-.092-.223c-.151.067-.302.129-.456.19v-.004zM217.854 13.435l.178.176c.114-.119.231-.231.348-.344l-.179-.177c-.12.113-.234.229-.347.345zM234.441 13.09l-.172.17c.117.114.234.23.347.348l.176-.173a12.414 12.414 0 00-.348-.345h-.003zM237.166 17.275a.237.237 0 00.09-.018c-.059-.153-.124-.302-.188-.452a.242.242 0 00-.133.305c.003.01.01.018.013.028a.246.246 0 00.218.134v.003zM237.255 25.704l-.227-.092c-.059.153-.124.302-.188.452l.228.091c.064-.15.129-.299.187-.451z"/><path d="M226.323 42.96c-11.954 0-21.677-9.636-21.677-21.478C204.646 9.64 214.372 0 226.323 0 238.275 0 248 9.637 248 21.479c0 11.842-9.725 21.478-21.677 21.478v.003zm0-42.472c-11.68 0-21.184 9.417-21.184 20.99 0 11.574 9.504 20.991 21.184 20.991 11.681 0 21.185-9.417 21.185-20.99 0-11.574-9.504-20.99-21.185-20.99z"/><path d="M247.759 21.735a.246.246 0 00-.258.232c-.037.695-.33 1.964-.85 3.67a19.628 19.628 0 01-1.493 3.608c-4.701 8.724-11 9.283-14.384 9.475-4.418.253-9.753-1.858-10.239-8.08-.198-2.533.289-4.473 1.453-5.763a6.312 6.312 0 011.816-1.391c.231-.12.921-.421.043-.833-.323-.153-.957-.29-1.308-.363a23.72 23.72 0 00-1.989-.317c-.33-.037-.64-.064-.961-.086-.32-.021-.625-.03-.936-.033a16.688 16.688 0 00-1.804.08 14.21 14.21 0 00-2.533.485 13.693 13.693 0 00-1.574.566 15.45 15.45 0 00-.751.354c-.246.125-.489.263-.729.403-.241.14-.478.293-.706.451-.227.159-.461.327-.683.498-.225.174-.446.357-.659.546-.212.189-.431.39-.637.591-.209.208-.416.421-.613.641a17.942 17.942 0 00-1.157 1.418c-.182.248-.37.516-.545.778-.034.05-.065.101-.099.15a.244.244 0 00.074.338.25.25 0 00.342-.073c1.456-2.236 3.276-3.947 5.406-5.088 3.168-1.693 6.924-2.09 11.185-1.184-7.435.238-10.56 3.563-11.791 5.638a10.09 10.09 0 00-1.17 7.205.242.242 0 00.24.192c.018 0 .034 0 .052-.006a.246.246 0 00.191-.29 9.615 9.615 0 011.111-6.854c1.112-1.88 3.861-4.823 10.246-5.332-2.614 1.021-4.624 3.306-5.643 5.606-1.493 3.365-1.764 8.087.997 11.05.391.42.844.799 1.343 1.125 2.118 1.385 4.661 1.864 7.167 1.864 2.207 0 4.387-.372 6.219-.824a.244.244 0 10-.12-.473c-6.903 1.703-10.877.412-12.995-.973a6.686 6.686 0 01-1.25-1.05c-1.881-2.019-2.891-6.054-.908-10.52 1.034-2.33 3.121-4.646 5.834-5.513a5.315 5.315 0 00-1.066.897c-1.259 1.394-1.791 3.456-1.582 6.132.222 2.84 1.475 5.116 3.617 6.583 1.691 1.156 3.92 1.912 6.333 1.912.271 0 .545-.009.819-.024 3.233-.186 9.951-.708 14.781-9.676a20.313 20.313 0 001.53-3.697c.37-1.215.822-2.859.868-3.786a.246.246 0 00-.234-.256v-.003z"/><path d="M230.618 13.254c-1.087.879-1.989 1.922-2.833 3.017l.016.022c.024-.013.049-.022.07-.034.284-.183.567-.366.89-.46.619-.184 1.238-.345 1.884-.336.419.006.828.073 1.229.204.443.147.828.388 1.188.674.046.037.096.074.136.128-.025 0-.053.004-.077 0-.21-.036-.413-.1-.625-.1-.659-.003-1.321.015-1.971.14-.406.08-.812.159-1.216.256-.28.067-.551.16-.828.238-.009 0-.018.01-.049.028.046.015.077.03.108.036a5.66 5.66 0 011.462.458c.554.262 1.05.638 1.459 1.089.299.33.545.696.687 1.113.064.196.098.397.144.598.016.074.025.15.034.226-.006.003-.012.01-.018.012-.028-.027-.056-.051-.08-.082a5.03 5.03 0 00-.742-.766c-.4-.33-.841-.6-1.306-.83a8.942 8.942 0 00-1.403-.558c-.302-.091-.61-.161-.915-.24-.034-.01-.074-.004-.111-.007 0 .006-.003.012-.006.022.056.045.111.088.166.134.527.418.887.948 1.087 1.59.191.612.188 1.235.126 1.863l-.018.159c-.006 0-.015 0-.022.003-.037-.104-.077-.208-.11-.311a5.142 5.142 0 00-.308-.754c-.311-.586-.665-1.14-1.161-1.586a2.509 2.509 0 00-.693-.449c-.083-.036-.095-.027-.095.067 0 .22-.006.443-.003.662.006 1.178.006 2.355.028 3.533.015.857.052 1.711.089 2.565.031.699.068 1.398.114 2.096.04.592.092 1.184.141 1.775.028.34.059.678.096 1.013.046.412.095.82.148 1.233.037.283.083.564.12.848.009.073.046.344.114.344.514 0 1.028-.253 1.539-.253h.108c.077.006.123.055.123.122 0 .07-.049.122-.129.125H223.25c-.067-.006-.107-.045-.107-.119 0-.073.037-.119.107-.128.028-.003.059 0 .087 0 .584 0 .655.253 1.237.253.074 0 .65-.054.659-.128.046-.323.092-.9.132-1.223.05-.4.099-.802.142-1.202.037-.345.071-.69.095-1.037.05-.616.093-1.236.136-1.852.031-.457.061-.912.077-1.37.046-1.25.095-2.5.123-3.752.025-1.156.015-2.312.022-3.471 0-.128-.025-.137-.145-.08-.462.22-.822.559-1.133.956a6.269 6.269 0 00-.961 1.735c-.043.12-.083.238-.123.357-.006.015-.018.028-.034.055-.006-.027-.012-.04-.012-.055-.012-.363-.052-.729-.034-1.092.037-.744.268-1.425.751-2.007.173-.21.373-.39.591-.555a.14.14 0 00.056-.074c-.031 0-.062-.006-.089 0-.327.086-.653.159-.973.263-.336.11-.671.232-.995.372-.751.32-1.44.735-2.019 1.318-.139.137-.259.293-.388.442-.025.028-.053.055-.089.095-.004-.034-.01-.052-.01-.067.059-.61.271-1.163.653-1.648a4.5 4.5 0 011.724-1.357 5.488 5.488 0 011.382-.424c.037-.006.071-.019.108-.03v-.025c-.049-.018-.098-.04-.148-.055-.381-.104-.763-.217-1.148-.305-.354-.08-.711-.134-1.071-.192a6.639 6.639 0 00-1.278-.092c-.317.01-.634.046-.951.073-.04.003-.08.019-.12.025-.007 0-.016-.003-.034-.01a.367.367 0 01.046-.048c.259-.192.511-.394.8-.543.268-.137.551-.238.844-.308a4.07 4.07 0 011.438-.07c.172.02.341.054.511.091.4.088.797.19 1.163.375.188.098.37.21.552.315.012.006.024.015.04.024.006-.098-.678-.94-1.297-1.61-.471-.51-.969-.995-1.514-1.44.009-.022 0 .002.009-.019a6.45 6.45 0 011.829.708c.677.393 1.243.9 1.693 1.537.034.046.062.095.092.14.013.019.034.031.065.062.006-.05.012-.08.012-.107.031-.458.05-.918.099-1.376a9.354 9.354 0 01.305-1.626c.04-.14.086-.28.129-.418.009-.024.028-.043.055-.064.422 1.156.521 2.364.595 3.581a5.372 5.372 0 011.597-1.58 5.781 5.781 0 012.082-.839l.003-.006z"/></g><defs><clipPath id="clip0_153_779"><path fill="#fff" d="M0 0h248v43H0z"/></clipPath></defs></svg>