<svg width="259" height="12" viewBox="0 0 259 12" fill="none" xmlns="http://www.w3.org/2000/svg"><path d="M5.582.32c1.29 0 2.355.32 3.195.96.84.63 1.42 1.495 1.74 2.595h-1.44A3.483 3.483 0 007.772 2.21c-.6-.42-1.335-.63-2.205-.63-.69 0-1.31.17-1.86.51-.54.33-.97.81-1.29 1.44-.31.62-.465 1.35-.465 2.19 0 .83.155 1.555.465 2.175.32.62.75 1.1 1.29 1.44.55.33 1.17.495 1.86.495.87 0 1.605-.205 2.205-.615a3.57 3.57 0 001.305-1.68h1.44c-.32 1.1-.9 1.97-1.74 2.61-.84.63-1.905.945-3.195.945-.99 0-1.865-.225-2.625-.675A4.821 4.821 0 011.172 8.51c-.42-.82-.63-1.75-.63-2.79 0-1.05.21-1.985.63-2.805A4.692 4.692 0 012.957 1.01C3.717.55 4.592.32 5.582.32zM17.488.29c.98 0 1.86.23 2.64.69.79.46 1.41 1.105 1.86 1.935.45.82.675 1.75.675 2.79s-.225 1.975-.675 2.805c-.45.82-1.07 1.46-1.86 1.92-.78.46-1.66.69-2.64.69-.98 0-1.87-.23-2.67-.69-.79-.46-1.41-1.1-1.86-1.92-.45-.83-.675-1.765-.675-2.805 0-1.04.225-1.97.675-2.79A4.882 4.882 0 0114.818.98c.8-.46 1.69-.69 2.67-.69zm0 1.275c-.73 0-1.385.17-1.965.51-.57.33-1.02.81-1.35 1.44-.32.62-.48 1.35-.48 2.19 0 .83.16 1.56.48 2.19.33.63.78 1.115 1.35 1.455.58.33 1.235.495 1.965.495.72 0 1.365-.17 1.935-.51.58-.34 1.03-.82 1.35-1.44.33-.63.495-1.36.495-2.19 0-.84-.165-1.57-.495-2.19-.32-.63-.77-1.11-1.35-1.44-.57-.34-1.215-.51-1.935-.51zm13.515 6.99h-4.65L25.468 11h-1.47L27.913.62h1.545l3.9 10.38h-1.47l-.885-2.445zm-.39-1.065l-1.935-5.34-1.935 5.34h3.87zm11.116.765c0 .5-.12.965-.36 1.395-.24.43-.605.78-1.095 1.05s-1.095.405-1.815.405c-.7 0-1.325-.125-1.875-.375-.54-.26-.975-.61-1.305-1.05a3.05 3.05 0 01-.555-1.53h1.455c.03.3.13.595.3.885.18.28.43.515.75.705.33.18.725.27 1.185.27.6 0 1.06-.16 1.38-.48.32-.32.48-.73.48-1.23 0-.43-.115-.78-.345-1.05-.22-.27-.495-.48-.825-.63-.33-.16-.78-.33-1.35-.51-.67-.22-1.21-.425-1.62-.615-.4-.2-.745-.495-1.035-.885-.28-.39-.42-.905-.42-1.545 0-.55.13-1.035.39-1.455.27-.42.65-.745 1.14-.975.5-.23 1.085-.345 1.755-.345 1.04 0 1.865.255 2.475.765.61.5.965 1.14 1.065 1.92h-1.47c-.08-.42-.295-.79-.645-1.11-.35-.32-.825-.48-1.425-.48-.55 0-.99.145-1.32.435-.33.28-.495.68-.495 1.2 0 .41.105.745.315 1.005.22.25.49.45.81.6.32.14.76.3 1.32.48.68.22 1.225.43 1.635.63.42.2.775.505 1.065.915.29.4.435.935.435 1.605zm8.616-7.83v1.11H47.36V11h-1.365V1.535H43.01V.425h7.335zm7.852 8.13h-4.65L52.662 11h-1.47L55.107.62h1.545l3.9 10.38h-1.47l-.885-2.445zm-.39-1.065l-1.935-5.34-1.935 5.34h3.87zm5.791 2.445h3.75V11h-5.115V.425h1.365v9.51zm10.81 0h3.75V11h-5.115V.425h1.365v9.51zm6.73-9.51V6.77c0 1.04.23 1.81.69 2.31.46.49 1.094.735 1.904.735.8 0 1.425-.25 1.875-.75.45-.5.675-1.265.675-2.295V.425h1.365V6.77c0 1.44-.36 2.525-1.08 3.255-.71.72-1.665 1.08-2.865 1.08-1.19 0-2.145-.36-2.865-1.08-.71-.73-1.065-1.815-1.065-3.255V.425h1.365zM95.958 11l-2.655-4.185L90.89 11h-1.575l3.225-5.385-3.285-5.19h1.635l2.595 4.11 2.43-4.11h1.575L94.25 5.72 97.58 11h-1.62zM100.56.425V6.77c0 1.04.23 1.81.69 2.31.46.49 1.095.735 1.905.735.8 0 1.425-.25 1.875-.75.45-.5.675-1.265.675-2.295V.425h1.365V6.77c0 1.44-.36 2.525-1.08 3.255-.71.72-1.665 1.08-2.865 1.08-1.19 0-2.145-.36-2.865-1.08-.71-.73-1.065-1.815-1.065-3.255V.425h1.365zM115.097 11l-2.76-4.32h-1.485V11h-1.365V.425h3.48c1.2 0 2.1.29 2.7.87.6.57.9 1.33.9 2.28 0 .86-.24 1.555-.72 2.085-.48.52-1.175.845-2.085.975l2.88 4.365h-1.545zm-4.245-5.31h1.995c1.55 0 2.325-.68 2.325-2.04 0-1.36-.775-2.04-2.325-2.04h-1.995v4.08zM126.048.425l-3.465 6.57V11h-1.38V6.995l-3.48-6.57h1.59l2.595 5.115 2.58-5.115h1.56zm7.047 9.51h3.75V11h-5.115V.425h1.365v9.51zm6.804-9.51V11h-1.365V.425h1.365zm3.185 0l3.225 9.06 3.27-9.06h1.485L147.179 11h-1.725L141.584.425h1.5zm11.024 0V11h-1.365V.425h1.365zM164.822 11h-1.365l-5.49-8.355V11h-1.365V.425h1.365l5.49 8.37V.425h1.365V11zM172.117.32c1.23 0 2.26.305 3.09.915.84.61 1.405 1.44 1.695 2.49h-1.44a3.222 3.222 0 00-1.26-1.545c-.58-.39-1.27-.585-2.07-.585-.72 0-1.365.17-1.935.51-.57.33-1.02.805-1.35 1.425-.32.62-.48 1.35-.48 2.19 0 .86.165 1.605.495 2.235.33.62.785 1.1 1.365 1.44.59.33 1.265.495 2.025.495.65 0 1.245-.14 1.785-.42.54-.28.98-.685 1.32-1.215.35-.54.56-1.17.63-1.89h-4.155v-1.02h5.31v1.26c-.09.84-.35 1.6-.78 2.28-.43.68-1.01 1.22-1.74 1.62-.73.4-1.56.6-2.49.6-1.02 0-1.92-.225-2.7-.675a4.861 4.861 0 01-1.83-1.905c-.43-.82-.645-1.755-.645-2.805 0-1.05.215-1.98.645-2.79.44-.82 1.05-1.46 1.83-1.92.78-.46 1.675-.69 2.685-.69zM188.908 11l-2.76-4.32h-1.485V11h-1.365V.425h3.48c1.2 0 2.1.29 2.7.87.6.57.9 1.33.9 2.28 0 .86-.24 1.555-.72 2.085-.48.52-1.175.845-2.085.975l2.88 4.365h-1.545zm-4.245-5.31h1.995c1.55 0 2.325-.68 2.325-2.04 0-1.36-.775-2.04-2.325-2.04h-1.995v4.08zm9.045-4.155V5.15h4.02V6.2h-4.02v3.69h4.47V11h-5.835V.425h5.835v1.11h-4.47zm15.433 4.17c0 1.07-.215 2.005-.645 2.805-.43.79-1.065 1.405-1.905 1.845-.83.43-1.83.645-3 .645h-3.36V.425h3.36c1.17 0 2.17.215 3 .645.84.42 1.475 1.03 1.905 1.83.43.79.645 1.725.645 2.805zm-5.655 4.065c1.38 0 2.435-.355 3.165-1.065s1.095-1.71 1.095-3-.365-2.29-1.095-3c-.72-.72-1.775-1.08-3.165-1.08h-1.89V9.77h1.89zm9.162-8.235V5.15h4.02V6.2h-4.02v3.69h4.47V11h-5.835V.425h5.835v1.11h-4.47zm12.508-1.11v1.11h-4.62v3.66h3.915V6.26h-3.915V11h-1.365V.425h5.985zm3.282 0V11h-1.365V.425h1.365zM239.153 11h-1.365l-5.49-8.355V11h-1.365V.425h1.365l5.49 8.37V.425h1.365V11zm3.86-9.465V5.15h4.02V6.2h-4.02v3.69h4.47V11h-5.835V.425h5.835v1.11h-4.47zm15.433 4.17c0 1.07-.215 2.005-.645 2.805-.43.79-1.065 1.405-1.905 1.845-.83.43-1.83.645-3 .645h-3.36V.425h3.36c1.17 0 2.17.215 3 .645.84.42 1.475 1.03 1.905 1.83.43.79.645 1.725.645 2.805zm-5.655 4.065c1.38 0 2.435-.355 3.165-1.065s1.095-1.71 1.095-3-.365-2.29-1.095-3c-.72-.72-1.775-1.08-3.165-1.08h-1.89V9.77h1.89z" fill="#fff"/></svg>