<svg width="328" height="40" viewBox="0 0 328 40" fill="none" xmlns="http://www.w3.org/2000/svg">
<path d="M16.0258 30.6581L6.81293 5.38065H6.15486V25.5484C6.15486 26.7355 6.3097 27.5484 6.61938 27.9871C6.95486 28.4 7.71615 28.6581 8.90325 28.7613L10.0645 28.8774V30.3871C9.5226 30.3613 8.81293 30.3355 7.93551 30.3097C7.05809 30.2839 6.20647 30.271 5.38067 30.271C4.73551 30.271 4.07744 30.2839 3.40647 30.3097C2.73551 30.3097 2.10325 30.3226 1.5097 30.3484C0.916152 30.3484 0.412926 30.3613 2.31266e-05 30.3871V28.8774L1.5097 28.7613C2.38712 28.6581 3.04518 28.5161 3.48389 28.3355C3.9226 28.129 4.21938 27.8194 4.37422 27.4065C4.52906 26.9677 4.60647 26.3484 4.60647 25.5484V7.81936C4.60647 7.01936 4.51615 6.41291 4.33551 6C4.18067 5.56129 3.87099 5.23871 3.40647 5.03226C2.94196 4.82581 2.27099 4.68388 1.39357 4.60646L2.31266e-05 4.49033V2.98065C0.438733 2.98065 0.980668 2.99355 1.62583 3.01936C2.2968 3.04517 3.00647 3.07097 3.75486 3.09678C4.50325 3.09678 5.25164 3.09678 6.00002 3.09678H6.54196C7.23873 3.09678 7.85809 3.08387 8.40002 3.05807C8.94196 3.03226 9.38067 3.00646 9.71615 2.98065L18.271 26.7871L17.1097 26.8645L24.7355 2.98065C25.4581 3.03226 26.0774 3.07097 26.5936 3.09678C27.1355 3.09678 27.6774 3.09678 28.2194 3.09678H28.6452C29.3936 3.09678 30.142 3.09678 30.8903 3.09678C31.6387 3.07097 32.3355 3.04517 32.9807 3.01936C33.6516 2.99355 34.2065 2.98065 34.6452 2.98065V4.49033L33.2516 4.60646C32.3742 4.68388 31.7032 4.82581 31.2387 5.03226C30.7742 5.23871 30.4516 5.56129 30.271 6C30.1162 6.41291 30.0387 7.01936 30.0387 7.81936V25.5484C30.0387 26.3484 30.1162 26.9677 30.271 27.4065C30.4516 27.8194 30.7742 28.129 31.2387 28.3355C31.7032 28.5161 32.3742 28.6581 33.2516 28.7613L34.6452 28.8774V30.3871C34.2065 30.3613 33.6516 30.3484 32.9807 30.3484C32.3355 30.3226 31.6387 30.3097 30.8903 30.3097C30.142 30.2839 29.3936 30.271 28.6452 30.271H28.2581H28.0258C27.4065 30.271 26.7742 30.2839 26.1291 30.3097C25.4839 30.3097 24.8903 30.3226 24.3484 30.3484C23.8065 30.3484 23.3549 30.3613 22.9936 30.3871V28.8774L23.8452 28.8C24.5678 28.671 25.1097 28.5161 25.471 28.3355C25.8581 28.129 26.1162 27.8194 26.2452 27.4065C26.3742 26.9677 26.4387 26.3484 26.4387 25.5484L26.4774 4.8H25.7807L17.4194 30.6581H16.0258ZM51.0079 20.4774V15.1742C51.0079 13.9355 50.6337 13.0065 49.8853 12.3871C49.1627 11.7677 48.0789 11.4581 46.6337 11.4581C45.6014 11.4581 44.724 11.6 44.0014 11.8839C43.3047 12.1677 42.9563 12.529 42.9563 12.9677C42.9563 13.2 43.0337 13.4581 43.1885 13.7419C43.3692 14 43.5369 14.2968 43.6918 14.6323C43.8724 14.9419 43.9627 15.2774 43.9627 15.6387C43.9627 16.129 43.7821 16.529 43.4208 16.8387C43.0595 17.1484 42.5821 17.3032 41.9885 17.3032C41.2918 17.3032 40.724 17.071 40.2853 16.6065C39.8724 16.1419 39.666 15.5484 39.666 14.8258C39.666 13.871 40.0014 13.0323 40.6724 12.3097C41.3692 11.5613 42.3111 10.9806 43.4982 10.5677C44.7111 10.129 46.0789 9.90968 47.6014 9.90968C50.0272 9.90968 51.7821 10.4903 52.866 11.6516C53.9498 12.7871 54.4918 14.5806 54.4918 17.0323V20.4774H51.0079ZM44.6595 30.929C42.9047 30.929 41.5111 30.4774 40.4789 29.5742C39.4466 28.6452 38.9305 27.3936 38.9305 25.8194C38.9305 24.6065 39.2143 23.6258 39.7821 22.8774C40.3756 22.129 41.124 21.5355 42.0272 21.0968C42.9563 20.6581 43.9369 20.2968 44.9692 20.0129C46.0014 19.729 46.9821 19.471 47.9111 19.2387C48.8401 18.9806 49.5885 18.671 50.1563 18.3097C50.7498 17.9484 51.0595 17.4581 51.0853 16.8387L51.2401 18.7355C51.0079 19.2258 50.5692 19.6258 49.924 19.9355C49.2789 20.2452 48.5434 20.529 47.7176 20.7871C46.9176 21.0452 46.1305 21.3548 45.3563 21.7161C44.6079 22.0774 43.9756 22.5548 43.4595 23.1484C42.9434 23.7161 42.6853 24.4903 42.6853 25.471C42.6853 26.4516 42.9692 27.2258 43.5369 27.7936C44.1305 28.3613 44.9563 28.6452 46.0143 28.6452C47.0466 28.6452 48.0143 28.3613 48.9176 27.7936C49.8466 27.2258 50.6595 26.4 51.3563 25.3161V26.9419C50.5305 28.2839 49.5627 29.2903 48.453 29.9613C47.3434 30.6065 46.0789 30.929 44.6595 30.929ZM54.4918 27.1742C54.4918 27.7936 54.595 28.2581 54.8014 28.5677C55.0337 28.8516 55.3692 28.9936 55.8079 28.9936C56.2466 28.9936 56.6853 28.8774 57.124 28.6452C57.5885 28.4129 58.0401 28.1419 58.4789 27.8323L59.2143 29.071C58.5434 29.6645 57.8466 30.1161 57.124 30.4258C56.4272 30.7613 55.6143 30.929 54.6853 30.929C53.4466 30.929 52.5176 30.6452 51.8982 30.0774C51.3047 29.4839 51.0079 28.5936 51.0079 27.4065V20.4774H54.4918V27.1742ZM68.0689 30.271C66.8302 30.271 65.7334 30.2839 64.7786 30.3097C63.8237 30.3355 62.856 30.3613 61.8753 30.3871V28.8774L63.3076 28.7613C64.4173 28.6581 65.1915 28.3871 65.6302 27.9484C66.0947 27.5097 66.3269 26.7226 66.3269 25.5871V20.4774H69.8108V25.5871C69.8108 26.3355 69.914 26.929 70.1205 27.3677C70.3269 27.8065 70.6753 28.129 71.1656 28.3355C71.656 28.5419 72.314 28.6839 73.1398 28.7613L74.8431 28.8774V30.3871C74.1463 30.3613 73.4366 30.3484 72.714 30.3484C72.0173 30.3226 71.2947 30.3097 70.5463 30.3097C69.7979 30.2839 68.9721 30.271 68.0689 30.271ZM66.3269 20.4774V15.3677C66.3269 14.2323 66.0947 13.4323 65.6302 12.9677C65.1915 12.5032 64.3915 12.2194 63.2302 12.1161L61.8753 12V10.4903C62.3398 10.5161 62.7786 10.5419 63.1915 10.5677C63.6044 10.5677 64.0302 10.5677 64.4689 10.5677C65.5269 10.5677 66.5076 10.529 67.4108 10.4516C68.314 10.3484 69.114 10.2065 69.8108 10.0258V10.4903V20.4774H66.3269ZM77.2431 16.5677C76.7269 16.5677 76.2882 16.4129 75.9269 16.1032C75.5915 15.7936 75.4237 15.4065 75.4237 14.9419C75.4237 14.5806 75.4882 14.271 75.6173 14.0129C75.7721 13.7548 75.914 13.5097 76.0431 13.2774C76.1721 13.0452 76.2366 12.8129 76.2366 12.5806C76.2366 12.0387 75.8366 11.7677 75.0366 11.7677C74.3915 11.7677 73.7076 11.9355 72.985 12.271C72.2624 12.6065 71.6044 13.0452 71.0108 13.5871C70.4173 14.129 69.9786 14.7355 69.6947 15.4065L69.5786 13.7806C70.3011 12.5419 71.2044 11.5871 72.2882 10.9161C73.3979 10.2452 74.5592 9.90968 75.7721 9.90968C76.985 9.90968 77.9398 10.2581 78.6366 10.9548C79.3592 11.6258 79.7205 12.5161 79.7205 13.6258C79.7205 14.5032 79.4882 15.2129 79.0237 15.7548C78.585 16.2968 77.9915 16.5677 77.2431 16.5677ZM92.2797 30.929C90.37 30.929 88.9377 30.3742 87.9829 29.2645C87.028 28.129 86.5506 26.4258 86.5506 24.1548V20.4774H90.0345V25.2C90.0345 26.4645 90.2797 27.4065 90.77 28.0258C91.2603 28.6194 92.0216 28.9161 93.0539 28.9161C94.0345 28.9161 94.8345 28.6065 95.4539 27.9871C96.0732 27.3677 96.5377 26.4645 96.8474 25.2774L98.0474 25.5871C97.6603 27.3936 97.0022 28.7355 96.0732 29.6129C95.1442 30.4903 93.8797 30.929 92.2797 30.929ZM86.5506 20.4774V4.56775C87.2216 4.51613 87.841 4.45162 88.4087 4.3742C89.0022 4.29678 89.5442 4.18065 90.0345 4.02581V20.4774H86.5506ZM81.8668 12.0774V10.5677H96.9248V12.0774H81.8668ZM106.178 30.271C104.94 30.271 103.843 30.2839 102.888 30.3097C101.933 30.3355 100.965 30.3613 99.9847 30.3871V28.8774L101.417 28.7613C102.527 28.6581 103.301 28.3871 103.74 27.9484C104.204 27.5097 104.436 26.7226 104.436 25.5871V20.4774H107.92V25.5871C107.92 26.7226 108.114 27.5355 108.501 28.0258C108.888 28.4903 109.585 28.7613 110.591 28.8387L111.017 28.8774V30.3871C110.243 30.3613 109.481 30.3355 108.733 30.3097C107.985 30.2839 107.133 30.271 106.178 30.271ZM117.327 20.4774V17.071C117.327 15.3419 116.991 14.0516 116.32 13.2C115.649 12.3226 114.643 11.8839 113.301 11.8839C111.907 11.8839 110.669 12.3226 109.585 13.2C108.501 14.0774 107.585 15.4065 106.836 17.1871L106.604 16.3355C107.404 14.1677 108.462 12.5548 109.778 11.4968C111.094 10.4387 112.656 9.90968 114.462 9.90968C116.501 9.90968 118.062 10.5548 119.146 11.8452C120.256 13.1097 120.811 14.929 120.811 17.3032V20.4774H117.327ZM119.069 30.271C118.14 30.271 117.288 30.2839 116.514 30.3097C115.765 30.3355 115.004 30.3613 114.23 30.3871V28.8774L114.656 28.8387C115.688 28.7613 116.385 28.4903 116.746 28.0258C117.133 27.5355 117.327 26.7226 117.327 25.5871V20.4774H120.811V25.5871C120.811 26.7226 121.03 27.5097 121.469 27.9484C121.933 28.3871 122.72 28.6581 123.83 28.7613L125.262 28.8774V30.3871C124.281 30.3613 123.314 30.3355 122.359 30.3097C121.404 30.2839 120.307 30.271 119.069 30.271ZM104.436 20.4774V5.34194C104.436 4.20646 104.204 3.40646 103.74 2.94194C103.301 2.47742 102.501 2.19355 101.34 2.09033L99.9847 1.9742V0.46452C100.449 0.490326 100.888 0.516132 101.301 0.541939C101.714 0.541939 102.14 0.541939 102.578 0.541939C103.636 0.541939 104.617 0.503229 105.52 0.42581C106.423 0.322584 107.223 0.180649 107.92 3.8147e-06V0.46452V20.4774H104.436ZM141.336 20.4774V15.1742C141.336 13.9355 140.962 13.0065 140.213 12.3871C139.491 11.7677 138.407 11.4581 136.962 11.4581C135.93 11.4581 135.052 11.6 134.33 11.8839C133.633 12.1677 133.284 12.529 133.284 12.9677C133.284 13.2 133.362 13.4581 133.517 13.7419C133.697 14 133.865 14.2968 134.02 14.6323C134.201 14.9419 134.291 15.2774 134.291 15.6387C134.291 16.129 134.11 16.529 133.749 16.8387C133.388 17.1484 132.91 17.3032 132.317 17.3032C131.62 17.3032 131.052 17.071 130.613 16.6065C130.201 16.1419 129.994 15.5484 129.994 14.8258C129.994 13.871 130.33 13.0323 131.001 12.3097C131.697 11.5613 132.639 10.9806 133.826 10.5677C135.039 10.129 136.407 9.90968 137.93 9.90968C140.355 9.90968 142.11 10.4903 143.194 11.6516C144.278 12.7871 144.82 14.5806 144.82 17.0323V20.4774H141.336ZM134.988 30.929C133.233 30.929 131.839 30.4774 130.807 29.5742C129.775 28.6452 129.259 27.3936 129.259 25.8194C129.259 24.6065 129.542 23.6258 130.11 22.8774C130.704 22.129 131.452 21.5355 132.355 21.0968C133.284 20.6581 134.265 20.2968 135.297 20.0129C136.33 19.729 137.31 19.471 138.239 19.2387C139.168 18.9806 139.917 18.671 140.484 18.3097C141.078 17.9484 141.388 17.4581 141.413 16.8387L141.568 18.7355C141.336 19.2258 140.897 19.6258 140.252 19.9355C139.607 20.2452 138.871 20.529 138.046 20.7871C137.246 21.0452 136.459 21.3548 135.684 21.7161C134.936 22.0774 134.304 22.5548 133.788 23.1484C133.271 23.7161 133.013 24.4903 133.013 25.471C133.013 26.4516 133.297 27.2258 133.865 27.7936C134.459 28.3613 135.284 28.6452 136.342 28.6452C137.375 28.6452 138.342 28.3613 139.246 27.7936C140.175 27.2258 140.988 26.4 141.684 25.3161V26.9419C140.859 28.2839 139.891 29.2903 138.781 29.9613C137.671 30.6065 136.407 30.929 134.988 30.929ZM144.82 27.1742C144.82 27.7936 144.923 28.2581 145.13 28.5677C145.362 28.8516 145.697 28.9936 146.136 28.9936C146.575 28.9936 147.013 28.8774 147.452 28.6452C147.917 28.4129 148.368 28.1419 148.807 27.8323L149.542 29.071C148.871 29.6645 148.175 30.1161 147.452 30.4258C146.755 30.7613 145.942 30.929 145.013 30.929C143.775 30.929 142.846 30.6452 142.226 30.0774C141.633 29.4839 141.336 28.5936 141.336 27.4065V20.4774H144.82V27.1742ZM167.601 20.7097V7.81936C167.601 6.63226 167.395 5.84517 166.982 5.45807C166.595 5.04517 165.743 4.7871 164.427 4.68388L162.066 4.49033V2.98065C162.633 2.98065 163.304 2.99355 164.079 3.01936C164.879 3.04517 165.717 3.07097 166.595 3.09678C167.472 3.09678 168.337 3.09678 169.188 3.09678H169.382H169.808C170.556 3.09678 171.304 3.09678 172.053 3.09678C172.801 3.07097 173.498 3.04517 174.143 3.01936C174.788 2.99355 175.343 2.98065 175.808 2.98065V4.49033L174.414 4.60646C173.537 4.68388 172.866 4.82581 172.401 5.03226C171.937 5.23871 171.614 5.56129 171.433 6C171.279 6.41291 171.201 7.01936 171.201 7.81936V20.7097H167.601ZM160.595 39.6387V38.1677C162.375 38.1161 163.769 37.7806 164.775 37.1613C165.808 36.5677 166.53 35.5871 166.943 34.2194C167.382 32.8774 167.601 31.0323 167.601 28.6839V20.7097H171.201V27.0968C171.201 30.1419 170.853 32.5806 170.156 34.4129C169.485 36.271 168.375 37.6 166.827 38.4C165.279 39.2258 163.201 39.6387 160.595 39.6387ZM187.637 30.929C185.908 30.929 184.334 30.5677 182.915 29.8452C181.521 29.0968 180.412 27.9613 179.586 26.4387C178.76 24.8903 178.347 22.8903 178.347 20.4387C178.347 17.9871 178.76 15.9871 179.586 14.4387C180.412 12.8903 181.521 11.7548 182.915 11.0323C184.334 10.2839 185.908 9.90968 187.637 9.90968C189.392 9.90968 190.966 10.2839 192.36 11.0323C193.753 11.7548 194.863 12.8903 195.689 14.4387C196.515 15.9871 196.928 17.9871 196.928 20.4387C196.928 22.8903 196.515 24.8903 195.689 26.4387C194.863 27.9613 193.753 29.0968 192.36 29.8452C190.966 30.5677 189.392 30.929 187.637 30.929ZM187.637 29.4194C189.263 29.4194 190.592 28.7097 191.624 27.2903C192.657 25.871 193.173 23.5871 193.173 20.4387C193.173 17.2903 192.657 15.0065 191.624 13.5871C190.592 12.1419 189.263 11.4194 187.637 11.4194C186.012 11.4194 184.682 12.1419 183.65 13.5871C182.618 15.0065 182.102 17.2903 182.102 20.4387C182.102 23.5871 182.618 25.871 183.65 27.2903C184.682 28.7097 186.012 29.4194 187.637 29.4194ZM206.678 30.271C205.44 30.271 204.343 30.2839 203.388 30.3097C202.433 30.3355 201.465 30.3613 200.485 30.3871V28.8774L201.917 28.7613C203.027 28.6581 203.801 28.3871 204.24 27.9484C204.704 27.5097 204.936 26.7226 204.936 25.5871V20.4774H208.42V25.5871C208.42 26.7226 208.614 27.5355 209.001 28.0258C209.388 28.4903 210.085 28.7613 211.091 28.8387L211.517 28.8774V30.3871C210.743 30.3613 209.981 30.3355 209.233 30.3097C208.485 30.2839 207.633 30.271 206.678 30.271ZM217.827 20.4774V17.071C217.827 15.3419 217.491 14.0516 216.82 13.2C216.149 12.3226 215.143 11.8839 213.801 11.8839C212.407 11.8839 211.169 12.3226 210.085 13.2C209.001 14.0774 208.085 15.4065 207.336 17.1871L207.104 16.3355C207.904 14.1677 208.962 12.5548 210.278 11.4968C211.594 10.4387 213.156 9.90968 214.962 9.90968C217.001 9.90968 218.562 10.5548 219.646 11.8452C220.756 13.1097 221.311 14.929 221.311 17.3032V20.4774H217.827ZM219.569 30.271C218.64 30.271 217.788 30.2839 217.014 30.3097C216.265 30.3355 215.504 30.3613 214.73 30.3871V28.8774L215.156 28.8387C216.188 28.7613 216.885 28.4903 217.246 28.0258C217.633 27.5355 217.827 26.7226 217.827 25.5871V20.4774H221.311V25.5871C221.311 26.7226 221.53 27.5097 221.969 27.9484C222.433 28.3871 223.22 28.6581 224.33 28.7613L225.762 28.8774V30.3871C224.781 30.3613 223.814 30.3355 222.859 30.3097C221.904 30.2839 220.807 30.271 219.569 30.271ZM204.936 20.4774V5.34194C204.936 4.20646 204.704 3.40646 204.24 2.94194C203.801 2.47742 203.001 2.19355 201.84 2.09033L200.485 1.9742V0.46452C200.949 0.490326 201.388 0.516132 201.801 0.541939C202.214 0.541939 202.64 0.541939 203.078 0.541939C204.136 0.541939 205.117 0.503229 206.02 0.42581C206.923 0.322584 207.723 0.180649 208.42 3.8147e-06V0.46452V20.4774H204.936ZM234.944 30.271C233.705 30.271 232.608 30.2839 231.654 30.3097C230.699 30.3355 229.731 30.3613 228.75 30.3871V28.8774L230.183 28.7613C231.292 28.6581 232.066 28.3871 232.505 27.9484C232.97 27.5097 233.202 26.7226 233.202 25.5871V20.4774H236.686V25.5871C236.686 26.7226 236.879 27.5226 237.266 27.9871C237.654 28.4516 238.363 28.7355 239.395 28.8387L239.976 28.8774V30.3871C239.176 30.3613 238.376 30.3355 237.576 30.3097C236.802 30.2839 235.925 30.271 234.944 30.271ZM233.202 20.4774V15.3677C233.202 14.2323 232.97 13.4323 232.505 12.9677C232.066 12.5032 231.266 12.2194 230.105 12.1161L228.75 12V10.4903C229.215 10.5161 229.654 10.5419 230.066 10.5677C230.479 10.5677 230.905 10.5677 231.344 10.5677C232.402 10.5677 233.383 10.529 234.286 10.4516C235.189 10.3484 235.989 10.2065 236.686 10.0258V10.4903V20.4774H233.202ZM246.092 20.4774V17.071C246.092 15.3419 245.757 14.0516 245.086 13.2C244.415 12.3226 243.408 11.8839 242.066 11.8839C240.673 11.8839 239.434 12.3226 238.35 13.2C237.266 14.0774 236.35 15.4065 235.602 17.1871L235.37 16.3355C236.17 14.1677 237.228 12.5548 238.544 11.4968C239.86 10.4387 241.421 9.90968 243.228 9.90968C245.266 9.90968 246.828 10.5548 247.912 11.8452C249.021 13.1097 249.576 14.929 249.576 17.3032V20.4774H246.092ZM247.834 30.271C246.905 30.271 246.054 30.2839 245.279 30.3097C244.531 30.3355 243.77 30.3613 242.995 30.3871V28.8774L243.421 28.8387C244.454 28.7613 245.15 28.4903 245.512 28.0258C245.899 27.5355 246.092 26.7226 246.092 25.5871V20.4774H249.576V25.5871C249.576 26.7226 249.795 27.5097 250.234 27.9484C250.699 28.3871 251.486 28.6581 252.595 28.7613L254.028 28.8774V30.3871C253.047 30.3613 252.079 30.3355 251.125 30.3097C250.17 30.2839 249.073 30.271 247.834 30.271ZM266.824 30.929C265.714 30.929 264.772 30.8 263.998 30.5419C263.25 30.3097 262.63 30.0903 262.14 29.8839C261.675 29.6516 261.262 29.5355 260.901 29.5355C260.333 29.5355 259.908 29.9355 259.624 30.7355H258.114C258.191 30.1419 258.243 29.4839 258.269 28.7613C258.295 28.0129 258.308 27.1742 258.308 26.2452C258.308 25.2903 258.308 24.2065 258.308 22.9936H259.779C260.088 25.1613 260.798 26.7742 261.908 27.8323C263.017 28.8903 264.501 29.4194 266.359 29.4194C267.753 29.4194 268.824 29.1226 269.572 28.529C270.32 27.9097 270.695 27.0581 270.695 25.9742C270.695 24.9419 270.308 24.1161 269.533 23.4968C268.785 22.8516 267.469 22.271 265.585 21.7548C263.237 21.1097 261.508 20.271 260.398 19.2387C259.314 18.2065 258.772 16.9161 258.772 15.3677C258.772 13.6903 259.327 12.3613 260.437 11.3806C261.546 10.4 263.017 9.90968 264.85 9.90968C265.856 9.90968 266.708 10.0258 267.404 10.2581C268.101 10.4903 268.682 10.7355 269.146 10.9936C269.637 11.2258 270.075 11.3419 270.462 11.3419C270.72 11.3419 270.94 11.2516 271.12 11.071C271.301 10.8645 271.456 10.5548 271.585 10.1419H273.095C273.043 10.6839 273.004 11.2645 272.979 11.8839C272.953 12.4774 272.927 13.1742 272.901 13.9742C272.901 14.7484 272.914 15.6903 272.94 16.8H271.43C271.198 15.1484 270.527 13.8452 269.417 12.8903C268.308 11.9097 266.953 11.4194 265.353 11.4194C264.243 11.4194 263.366 11.6774 262.72 12.1936C262.101 12.7097 261.791 13.4581 261.791 14.4387C261.791 15.4452 262.217 16.2839 263.069 16.9548C263.92 17.6258 265.366 18.2581 267.404 18.8516C269.65 19.471 271.262 20.2581 272.243 21.2129C273.25 22.1677 273.753 23.4194 273.753 24.9677C273.753 26.8258 273.133 28.2839 271.895 29.3419C270.682 30.4 268.991 30.929 266.824 30.929ZM288.887 30.929C287.158 30.929 285.584 30.5677 284.165 29.8452C282.771 29.0968 281.662 27.9613 280.836 26.4387C280.01 24.8903 279.597 22.8903 279.597 20.4387C279.597 17.9871 280.01 15.9871 280.836 14.4387C281.662 12.8903 282.771 11.7548 284.165 11.0323C285.584 10.2839 287.158 9.90968 288.887 9.90968C290.642 9.90968 292.216 10.2839 293.61 11.0323C295.003 11.7548 296.113 12.8903 296.939 14.4387C297.765 15.9871 298.178 17.9871 298.178 20.4387C298.178 22.8903 297.765 24.8903 296.939 26.4387C296.113 27.9613 295.003 29.0968 293.61 29.8452C292.216 30.5677 290.642 30.929 288.887 30.929ZM288.887 29.4194C290.513 29.4194 291.842 28.7097 292.874 27.2903C293.907 25.871 294.423 23.5871 294.423 20.4387C294.423 17.2903 293.907 15.0065 292.874 13.5871C291.842 12.1419 290.513 11.4194 288.887 11.4194C287.262 11.4194 285.932 12.1419 284.9 13.5871C283.868 15.0065 283.352 17.2903 283.352 20.4387C283.352 23.5871 283.868 25.871 284.9 27.2903C285.932 28.7097 287.262 29.4194 288.887 29.4194ZM308.397 30.271C307.158 30.271 306.062 30.2839 305.107 30.3097C304.152 30.3355 303.184 30.3613 302.203 30.3871V28.8774L303.636 28.7613C304.745 28.6581 305.52 28.3871 305.958 27.9484C306.423 27.5097 306.655 26.7226 306.655 25.5871V20.4774H310.139V25.5871C310.139 26.7226 310.332 27.5226 310.72 27.9871C311.107 28.4516 311.816 28.7355 312.849 28.8387L313.429 28.8774V30.3871C312.629 30.3613 311.829 30.3355 311.029 30.3097C310.255 30.2839 309.378 30.271 308.397 30.271ZM306.655 20.4774V15.3677C306.655 14.2323 306.423 13.4323 305.958 12.9677C305.52 12.5032 304.72 12.2194 303.558 12.1161L302.203 12V10.4903C302.668 10.5161 303.107 10.5419 303.52 10.5677C303.932 10.5677 304.358 10.5677 304.797 10.5677C305.855 10.5677 306.836 10.529 307.739 10.4516C308.642 10.3484 309.442 10.2065 310.139 10.0258V10.4903V20.4774H306.655ZM319.545 20.4774V17.071C319.545 15.3419 319.21 14.0516 318.539 13.2C317.868 12.3226 316.862 11.8839 315.52 11.8839C314.126 11.8839 312.887 12.3226 311.803 13.2C310.72 14.0774 309.803 15.4065 309.055 17.1871L308.823 16.3355C309.623 14.1677 310.681 12.5548 311.997 11.4968C313.313 10.4387 314.874 9.90968 316.681 9.90968C318.72 9.90968 320.281 10.5548 321.365 11.8452C322.474 13.1097 323.029 14.929 323.029 17.3032V20.4774H319.545ZM321.287 30.271C320.358 30.271 319.507 30.2839 318.732 30.3097C317.984 30.3355 317.223 30.3613 316.449 30.3871V28.8774L316.874 28.8387C317.907 28.7613 318.603 28.4903 318.965 28.0258C319.352 27.5355 319.545 26.7226 319.545 25.5871V20.4774H323.029V25.5871C323.029 26.7226 323.249 27.5097 323.687 27.9484C324.152 28.3871 324.939 28.6581 326.049 28.7613L327.481 28.8774V30.3871C326.5 30.3613 325.532 30.3355 324.578 30.3097C323.623 30.2839 322.526 30.271 321.287 30.271Z" fill="white"/>
</svg>
