<svg width="326" height="87" viewBox="0 0 326 87" fill="none" xmlns="http://www.w3.org/2000/svg">
<path d="M6.00001 30.1548C5.27743 30.1548 4.52904 30.1677 3.75485 30.1935C3.00646 30.1935 2.30969 30.2064 1.66453 30.2323C1.01936 30.2323 0.464526 30.2452 9.77516e-06 30.271V28.7613L1.39356 28.6452C2.29678 28.5419 2.96775 28.4 3.40646 28.2194C3.87098 28.0129 4.18065 27.7032 4.33549 27.2903C4.51614 26.8516 4.60646 26.2323 4.60646 25.4323V12.5419H8.20646V25.4323C8.20646 26.3355 8.28388 27.0194 8.43872 27.4839C8.59356 27.9484 8.91614 28.2581 9.40646 28.4129C9.89678 28.5677 10.6323 28.6452 11.6129 28.6452H13.3548C14.5936 28.6452 15.6387 28.5419 16.4903 28.3355C17.3419 28.129 18.0645 27.7548 18.6581 27.2129C19.2516 26.6452 19.7807 25.8581 20.2452 24.8516C20.7355 23.8452 21.2 22.5419 21.6387 20.9419H23.1871C22.9807 22.5161 22.8258 24.0774 22.7226 25.6258C22.6194 27.1484 22.5548 28.6968 22.529 30.271C21.4194 30.2194 20.0903 30.1935 18.5419 30.1935C17.0194 30.1677 15.2 30.1548 13.0839 30.1548H6.38711H6.00001ZM6.00001 2.98064H6.42582H6.61936C7.49678 2.98064 8.3742 2.98064 9.25162 2.98064C10.129 2.95484 10.9548 2.92903 11.729 2.90322C12.5032 2.87742 13.1742 2.86451 13.7419 2.86451V4.37419L11.3807 4.56774C10.0903 4.67097 9.23872 4.92903 8.82582 5.34193C8.41291 5.72903 8.20646 6.51613 8.20646 7.70322V12.5419H4.60646V7.70322C4.60646 6.90322 4.51614 6.29677 4.33549 5.88387C4.18065 5.44516 3.87098 5.12258 3.40646 4.91613C2.96775 4.70968 2.29678 4.56774 1.39356 4.49032L9.77516e-06 4.37419V2.86451C0.464526 2.86451 1.01936 2.87742 1.66453 2.90322C2.30969 2.92903 3.00646 2.95484 3.75485 2.98064C4.52904 2.98064 5.27743 2.98064 6.00001 2.98064ZM32.6308 10.4516V20.3613H29.1469V15.329C29.1469 14.1935 28.9275 13.3935 28.4888 12.929C28.0501 12.4645 27.2372 12.1806 26.0501 12.0774L24.6953 11.9613V10.4516C25.1856 10.4774 25.6243 10.5032 26.0114 10.529C26.4243 10.529 26.8501 10.529 27.2888 10.529C28.3727 10.529 29.3533 10.4903 30.2308 10.4129C31.134 10.3097 31.934 10.1677 32.6308 9.9871V10.4516ZM32.6308 20.3613V23.9613C32.6308 25.6387 32.9533 26.8903 33.5985 27.7161C34.2695 28.5419 35.263 28.9548 36.5791 28.9548C37.9469 28.9548 39.1598 28.5161 40.2179 27.6387C41.2759 26.7355 42.1791 25.4064 42.9275 23.6516L43.0824 24.5419C42.334 26.6581 41.3146 28.2581 40.0243 29.3419C38.734 30.4 37.1985 30.929 35.4179 30.929C33.4049 30.929 31.8566 30.3097 30.7727 29.071C29.6888 27.8064 29.1469 26.0129 29.1469 23.6903V20.3613H32.6308ZM41.8049 30.271V20.3613H45.2888V25.3935C45.2888 26.529 45.5082 27.329 45.9469 27.7935C46.3856 28.2323 47.1985 28.5161 48.3856 28.6452L49.7404 28.7613V30.271C49.2759 30.2452 48.8372 30.2323 48.4243 30.2323C48.0114 30.2064 47.5856 30.1935 47.1469 30.1935C46.0888 30.1935 45.1082 30.2323 44.2049 30.3097C43.3017 30.4129 42.5017 30.5548 41.8049 30.7355V30.271ZM45.2888 10.4516V20.3613H41.8049V15.2903C41.8049 14.1548 41.6114 13.3677 41.2243 12.929C40.863 12.4645 40.1404 12.1677 39.0566 12.0387L38.2437 11.9613V10.4516C38.7082 10.4774 39.1082 10.5032 39.4437 10.529C39.7791 10.529 40.1275 10.529 40.4888 10.529C41.4179 10.529 42.2824 10.4903 43.0824 10.4129C43.9082 10.3097 44.6437 10.1677 45.2888 9.9871V10.4516ZM65.4191 30.271V28.7613C66.09 28.7355 66.5545 28.6452 66.8126 28.4903C67.0707 28.3097 67.1739 28.0774 67.1223 27.7935C67.0707 27.5097 66.9158 27.2258 66.6578 26.9419L56.4771 14.0903C56.0126 13.5484 55.561 13.1226 55.1223 12.8129C54.7094 12.5032 54.2449 12.2839 53.7287 12.1548C53.2126 12 52.5804 11.9097 51.832 11.8839V10.3742C52.3997 10.4 53.1481 10.4387 54.0771 10.4903C55.0062 10.5161 55.8836 10.529 56.7094 10.529C57.2255 10.529 57.7545 10.5161 58.2965 10.4903C58.8384 10.4645 59.3804 10.4387 59.9223 10.4129C60.49 10.3871 61.0062 10.3742 61.4707 10.3742V11.8839C60.8513 11.9097 60.3997 12.0129 60.1158 12.1935C59.8578 12.3484 59.7416 12.5677 59.7674 12.8516C59.8191 13.1097 59.9739 13.3935 60.232 13.7032L70.3739 26.4774C70.9674 27.2 71.6384 27.7419 72.3868 28.1032C73.161 28.4645 73.9997 28.6839 74.9029 28.7613V30.271C74.4126 30.2452 73.7158 30.2194 72.8126 30.1935C71.9094 30.1419 71.032 30.1161 70.1804 30.1161C69.3545 30.1161 68.5029 30.1419 67.6255 30.1935C66.7481 30.2194 66.0126 30.2452 65.4191 30.271ZM51.4836 30.271V28.7613C52.2836 28.7097 53.0062 28.5677 53.6513 28.3355C54.2965 28.0774 54.9416 27.6903 55.5868 27.1742C56.232 26.6323 56.9158 25.9484 57.6384 25.1226L62.1674 19.7806L63.1739 20.7097L60.2707 24.0387C59.7029 24.7613 59.3287 25.4064 59.1481 25.9742C58.9674 26.5419 58.9416 27.0323 59.0707 27.4452C59.2255 27.8323 59.5223 28.1419 59.961 28.3742C60.4255 28.6064 60.9933 28.7355 61.6642 28.7613V30.271C61.1223 30.2194 60.3997 30.1935 59.4965 30.1935C58.6191 30.1677 57.6513 30.1548 56.5933 30.1548C56.0255 30.1548 55.4578 30.1677 54.89 30.1935C54.3223 30.1935 53.7545 30.2064 53.1868 30.2323C52.6449 30.2323 52.0771 30.2452 51.4836 30.271ZM64.49 20.4L63.4836 19.4323L66.5416 15.7161C67.1094 14.9677 67.4449 14.3097 67.5481 13.7419C67.6513 13.1742 67.5223 12.7355 67.161 12.4258C66.7997 12.0903 66.2062 11.9097 65.3804 11.8839V10.3742C65.9481 10.4 66.4642 10.4258 66.9287 10.4516C67.4191 10.4516 67.8836 10.4645 68.3223 10.4903C68.7868 10.4903 69.2642 10.4903 69.7545 10.4903C70.5545 10.4903 71.3029 10.4774 71.9997 10.4516C72.7223 10.4258 73.4062 10.4 74.0513 10.3742V11.8839C73.4062 11.9097 72.7868 12.0516 72.1933 12.3097C71.5997 12.5419 71.0062 12.9032 70.4126 13.3935C69.8449 13.8581 69.2384 14.4903 68.5933 15.2903L64.49 20.4ZM85.1308 10.4516V20.3613H81.6469V15.329C81.6469 14.1935 81.4275 13.3935 80.9888 12.929C80.5501 12.4645 79.7372 12.1806 78.5501 12.0774L77.1953 11.9613V10.4516C77.6856 10.4774 78.1243 10.5032 78.5114 10.529C78.9243 10.529 79.3501 10.529 79.7888 10.529C80.8727 10.529 81.8533 10.4903 82.7308 10.4129C83.634 10.3097 84.434 10.1677 85.1308 9.9871V10.4516ZM85.1308 20.3613V23.9613C85.1308 25.6387 85.4533 26.8903 86.0985 27.7161C86.7695 28.5419 87.763 28.9548 89.0791 28.9548C90.4469 28.9548 91.6598 28.5161 92.7179 27.6387C93.7759 26.7355 94.6791 25.4064 95.4275 23.6516L95.5824 24.5419C94.834 26.6581 93.8146 28.2581 92.5243 29.3419C91.234 30.4 89.6985 30.929 87.9179 30.929C85.9049 30.929 84.3566 30.3097 83.2727 29.071C82.1888 27.8064 81.6469 26.0129 81.6469 23.6903V20.3613H85.1308ZM94.3049 30.271V20.3613H97.7888V25.3935C97.7888 26.529 98.0082 27.329 98.4469 27.7935C98.8856 28.2323 99.6985 28.5161 100.886 28.6452L102.24 28.7613V30.271C101.776 30.2452 101.337 30.2323 100.924 30.2323C100.511 30.2064 100.086 30.1935 99.6469 30.1935C98.5888 30.1935 97.6082 30.2323 96.7049 30.3097C95.8017 30.4129 95.0017 30.5548 94.3049 30.7355V30.271ZM97.7888 10.4516V20.3613H94.3049V15.2903C94.3049 14.1548 94.1114 13.3677 93.7243 12.929C93.363 12.4645 92.6404 12.1677 91.5566 12.0387L90.7437 11.9613V10.4516C91.2082 10.4774 91.6082 10.5032 91.9437 10.529C92.2791 10.529 92.6275 10.529 92.9888 10.529C93.9179 10.529 94.7824 10.4903 95.5824 10.4129C96.4082 10.3097 97.1437 10.1677 97.7888 9.9871V10.4516ZM110.951 30.1548C109.713 30.1548 108.616 30.1677 107.661 30.1935C106.706 30.2194 105.738 30.2452 104.758 30.271V28.7613L106.19 28.6452C107.3 28.5419 108.074 28.271 108.513 27.8323C108.977 27.3935 109.209 26.6064 109.209 25.471V20.3613H112.693V25.471C112.693 26.2194 112.796 26.8129 113.003 27.2516C113.209 27.6903 113.558 28.0129 114.048 28.2194C114.538 28.4258 115.196 28.5677 116.022 28.6452L117.726 28.7613V30.271C117.029 30.2452 116.319 30.2323 115.596 30.2323C114.9 30.2064 114.177 30.1935 113.429 30.1935C112.68 30.1677 111.855 30.1548 110.951 30.1548ZM109.209 20.3613V15.2516C109.209 14.1161 108.977 13.3161 108.513 12.8516C108.074 12.3871 107.274 12.1032 106.113 12L104.758 11.8839V10.3742C105.222 10.4 105.661 10.4258 106.074 10.4516C106.487 10.4516 106.913 10.4516 107.351 10.4516C108.409 10.4516 109.39 10.4129 110.293 10.3355C111.196 10.2323 111.996 10.0903 112.693 9.90968V10.3742V20.3613H109.209ZM120.126 16.4516C119.609 16.4516 119.171 16.2968 118.809 15.9871C118.474 15.6774 118.306 15.2903 118.306 14.8258C118.306 14.4645 118.371 14.1548 118.5 13.8968C118.655 13.6387 118.796 13.3935 118.926 13.1613C119.055 12.929 119.119 12.6968 119.119 12.4645C119.119 11.9226 118.719 11.6516 117.919 11.6516C117.274 11.6516 116.59 11.8194 115.867 12.1548C115.145 12.4903 114.487 12.929 113.893 13.471C113.3 14.0129 112.861 14.6194 112.577 15.2903L112.461 13.6645C113.184 12.4258 114.087 11.471 115.171 10.8C116.28 10.129 117.442 9.79355 118.655 9.79355C119.867 9.79355 120.822 10.1419 121.519 10.8387C122.242 11.5097 122.603 12.4 122.603 13.5097C122.603 14.3871 122.371 15.0968 121.906 15.6387C121.467 16.1806 120.874 16.4516 120.126 16.4516ZM135.745 30.7355L128.893 14.8258C128.609 14.129 128.338 13.6 128.08 13.2387C127.822 12.8516 127.526 12.5677 127.19 12.3871C126.855 12.2064 126.416 12.0903 125.874 12.0387L124.79 11.9613V10.4516C125.384 10.4774 126.029 10.5032 126.726 10.529C127.448 10.5548 128.132 10.5677 128.777 10.5677H128.855H128.893C129.693 10.5677 130.48 10.5677 131.255 10.5677C132.029 10.5419 132.738 10.529 133.384 10.529C134.055 10.5032 134.609 10.4774 135.048 10.4516V11.9613L134.274 12.0387C133.242 12.1419 132.622 12.4258 132.416 12.8903C132.209 13.329 132.326 14.129 132.764 15.2903L137.68 26.6323L137.1 26.7871L140.506 18.0774C141.1 16.6065 141.448 15.4452 141.551 14.5935C141.655 13.7419 141.551 13.1226 141.242 12.7355C140.932 12.3484 140.429 12.1032 139.732 12L139.267 11.9613V10.4516C139.913 10.4774 140.596 10.5032 141.319 10.529C142.042 10.5548 142.726 10.5677 143.371 10.5677C144.171 10.5677 144.919 10.5548 145.616 10.529C146.313 10.5032 146.958 10.4774 147.551 10.4516V11.9613L146.932 12.0387C146.313 12.1419 145.758 12.3742 145.267 12.7355C144.777 13.071 144.3 13.6258 143.835 14.4C143.396 15.1742 142.88 16.271 142.287 17.6903L137.177 30.7355H135.745ZM130.442 39.5226C129.203 39.5226 128.196 39.2 127.422 38.5548C126.674 37.9097 126.3 37.071 126.3 36.0387C126.3 35.2387 126.532 34.5935 126.996 34.1032C127.487 33.6129 128.119 33.3677 128.893 33.3677C129.461 33.3677 129.9 33.5097 130.209 33.7935C130.545 34.1032 130.713 34.5032 130.713 34.9935C130.713 35.3548 130.648 35.6645 130.519 35.9226C130.416 36.2064 130.3 36.4516 130.171 36.6581C130.042 36.8903 129.977 37.1355 129.977 37.3935C129.977 37.8323 130.261 38.0516 130.829 38.0516C131.422 38.0516 131.951 37.8323 132.416 37.3935C132.88 36.9806 133.28 36.3742 133.616 35.5742L136.055 29.5355L137.332 30.3097L135.126 35.729C134.764 36.6064 134.351 37.329 133.887 37.8968C133.448 38.4645 132.945 38.8774 132.377 39.1355C131.835 39.3935 131.19 39.5226 130.442 39.5226ZM170.332 30.8129C168.603 30.8129 167.029 30.4516 165.61 29.729C164.216 28.9806 163.106 27.8452 162.281 26.3226C161.455 24.7742 161.042 22.7742 161.042 20.3226C161.042 17.871 161.455 15.871 162.281 14.3226C163.106 12.7742 164.216 11.6387 165.61 10.9161C167.029 10.1677 168.603 9.79355 170.332 9.79355C172.087 9.79355 173.661 10.1677 175.055 10.9161C176.448 11.6387 177.558 12.7742 178.384 14.3226C179.21 15.871 179.623 17.871 179.623 20.3226C179.623 22.7742 179.21 24.7742 178.384 26.3226C177.558 27.8452 176.448 28.9806 175.055 29.729C173.661 30.4516 172.087 30.8129 170.332 30.8129ZM170.332 29.3032C171.958 29.3032 173.287 28.5935 174.319 27.1742C175.352 25.7548 175.868 23.471 175.868 20.3226C175.868 17.1742 175.352 14.8903 174.319 13.471C173.287 12.0258 171.958 11.3032 170.332 11.3032C168.706 11.3032 167.377 12.0258 166.345 13.471C165.313 14.8903 164.797 17.1742 164.797 20.3226C164.797 23.471 165.313 25.7548 166.345 27.1742C167.377 28.5935 168.706 29.3032 170.332 29.3032ZM183.836 11.9613V10.4516H197.578V11.9613H183.836ZM190.184 30.1548C188.946 30.1548 187.849 30.1677 186.894 30.1935C185.939 30.2194 184.971 30.2452 183.991 30.271V28.7613L185.423 28.6452C186.558 28.5419 187.346 28.271 187.784 27.8323C188.223 27.3935 188.442 26.6064 188.442 25.471V20.3613H191.926V25.471C191.926 26.2194 192.029 26.8129 192.236 27.2516C192.442 27.6903 192.791 28.0129 193.281 28.2194C193.771 28.4258 194.429 28.5677 195.255 28.6452L196.958 28.7613V30.271C196.262 30.2452 195.565 30.2323 194.868 30.2323C194.171 30.2064 193.436 30.1935 192.662 30.1935C191.913 30.1677 191.088 30.1548 190.184 30.1548ZM188.442 20.3613V9.56129C188.442 6.46451 189.152 4.10322 190.571 2.47742C192.017 0.825805 194.029 -1.90735e-06 196.61 -1.90735e-06C198.339 -1.90735e-06 199.707 0.374191 200.713 1.12258C201.72 1.84516 202.223 2.8258 202.223 4.06451C202.223 4.83871 201.991 5.47097 201.526 5.96129C201.062 6.42581 200.442 6.65806 199.668 6.65806C199.1 6.65806 198.636 6.50322 198.275 6.19355C197.939 5.88387 197.771 5.48387 197.771 4.99355C197.771 4.63226 197.849 4.30968 198.004 4.0258C198.158 3.71613 198.313 3.43226 198.468 3.17419C198.649 2.91613 198.739 2.68387 198.739 2.47742C198.739 1.75484 198.146 1.39355 196.958 1.39355C195.229 1.39355 193.952 1.97419 193.126 3.13548C192.326 4.29677 191.926 6.10322 191.926 8.55484V20.3613H188.442ZM201.039 11.9613V10.4516H214.781V11.9613H201.039ZM207.387 30.1548C206.149 30.1548 205.052 30.1677 204.097 30.1935C203.142 30.2194 202.175 30.2452 201.194 30.271V28.7613L202.626 28.6452C203.762 28.5419 204.549 28.271 204.987 27.8323C205.426 27.3935 205.645 26.6064 205.645 25.471V20.3613H209.129V25.471C209.129 26.2194 209.233 26.8129 209.439 27.2516C209.645 27.6903 209.994 28.0129 210.484 28.2194C210.975 28.4258 211.633 28.5677 212.458 28.6452L214.162 28.7613V30.271C213.465 30.2452 212.768 30.2323 212.071 30.2323C211.375 30.2064 210.639 30.1935 209.865 30.1935C209.116 30.1677 208.291 30.1548 207.387 30.1548ZM205.645 20.3613V9.56129C205.645 6.46451 206.355 4.10322 207.775 2.47742C209.22 0.825805 211.233 -1.90735e-06 213.813 -1.90735e-06C215.542 -1.90735e-06 216.91 0.374191 217.916 1.12258C218.923 1.84516 219.426 2.8258 219.426 4.06451C219.426 4.83871 219.194 5.47097 218.729 5.96129C218.265 6.42581 217.645 6.65806 216.871 6.65806C216.304 6.65806 215.839 6.50322 215.478 6.19355C215.142 5.88387 214.975 5.48387 214.975 4.99355C214.975 4.63226 215.052 4.30968 215.207 4.0258C215.362 3.71613 215.516 3.43226 215.671 3.17419C215.852 2.91613 215.942 2.68387 215.942 2.47742C215.942 1.75484 215.349 1.39355 214.162 1.39355C212.433 1.39355 211.155 1.97419 210.329 3.13548C209.529 4.29677 209.129 6.10322 209.129 8.55484V20.3613H205.645ZM227.74 30.8129C225.882 30.8129 224.269 30.4 222.901 29.5742C221.533 28.7226 220.475 27.5097 219.727 25.9355C218.979 24.3613 218.604 22.5032 218.604 20.3613C218.604 18.2194 218.979 16.3613 219.727 14.7871C220.475 13.1871 221.546 11.9613 222.94 11.1097C224.333 10.2323 226.011 9.79355 227.972 9.79355C229.624 9.79355 231.056 10.129 232.269 10.8C233.508 11.4452 234.45 12.4645 235.095 13.8581C235.766 15.2516 236.075 17.0581 236.024 19.2774H220.888L220.85 17.8064H232.308C232.359 16.5677 232.217 15.4581 231.882 14.4774C231.572 13.4968 231.069 12.7226 230.372 12.1548C229.701 11.5613 228.837 11.2645 227.779 11.2645C226.437 11.2645 225.25 11.8323 224.217 12.9677C223.185 14.0774 222.579 15.8064 222.398 18.1548L222.437 18.271C222.411 18.5548 222.385 18.8516 222.359 19.1613C222.359 19.471 222.359 19.7935 222.359 20.129C222.359 22.8903 222.901 25.0194 223.985 26.5161C225.069 28.0129 226.617 28.7613 228.63 28.7613C229.921 28.7613 231.082 28.4387 232.114 27.7935C233.146 27.1484 233.985 26.1548 234.63 24.8129L236.024 25.6258C235.353 27.2258 234.295 28.4903 232.85 29.4194C231.404 30.3484 229.701 30.8129 227.74 30.8129ZM246.139 30.1548C244.9 30.1548 243.803 30.1677 242.848 30.1935C241.894 30.2194 240.926 30.2452 239.945 30.271V28.7613L241.378 28.6452C242.487 28.5419 243.261 28.271 243.7 27.8323C244.165 27.3935 244.397 26.6064 244.397 25.471V20.3613H247.881V25.471C247.881 26.2194 247.984 26.8129 248.19 27.2516C248.397 27.6903 248.745 28.0129 249.236 28.2194C249.726 28.4258 250.384 28.5677 251.21 28.6452L252.913 28.7613V30.271C252.216 30.2452 251.507 30.2323 250.784 30.2323C250.087 30.2064 249.365 30.1935 248.616 30.1935C247.868 30.1677 247.042 30.1548 246.139 30.1548ZM244.397 20.3613V15.2516C244.397 14.1161 244.165 13.3161 243.7 12.8516C243.261 12.3871 242.461 12.1032 241.3 12L239.945 11.8839V10.3742C240.41 10.4 240.848 10.4258 241.261 10.4516C241.674 10.4516 242.1 10.4516 242.539 10.4516C243.597 10.4516 244.578 10.4129 245.481 10.3355C246.384 10.2323 247.184 10.0903 247.881 9.90968V10.3742V20.3613H244.397ZM255.313 16.4516C254.797 16.4516 254.358 16.2968 253.997 15.9871C253.661 15.6774 253.494 15.2903 253.494 14.8258C253.494 14.4645 253.558 14.1548 253.687 13.8968C253.842 13.6387 253.984 13.3935 254.113 13.1613C254.242 12.929 254.307 12.6968 254.307 12.4645C254.307 11.9226 253.907 11.6516 253.107 11.6516C252.461 11.6516 251.778 11.8194 251.055 12.1548C250.332 12.4903 249.674 12.929 249.081 13.471C248.487 14.0129 248.048 14.6194 247.765 15.2903L247.648 13.6645C248.371 12.4258 249.274 11.471 250.358 10.8C251.468 10.129 252.629 9.79355 253.842 9.79355C255.055 9.79355 256.01 10.1419 256.707 10.8387C257.429 11.5097 257.79 12.4 257.79 13.5097C257.79 14.3871 257.558 15.0968 257.094 15.6387C256.655 16.1806 256.061 16.4516 255.313 16.4516ZM265.022 20.3613V15.2516C265.022 14.1161 264.79 13.3161 264.325 12.8516C263.886 12.3871 263.086 12.1032 261.925 12L260.57 11.8839V10.3742C261.035 10.4 261.473 10.4258 261.886 10.4516C262.299 10.4516 262.725 10.4516 263.164 10.4516C264.222 10.4516 265.203 10.4129 266.106 10.3355C267.009 10.2323 267.809 10.0903 268.506 9.90968V10.3742V20.3613H265.022ZM266.764 30.1548C265.525 30.1548 264.428 30.1677 263.473 30.1935C262.519 30.2194 261.551 30.2452 260.57 30.271V28.7613L262.003 28.6452C263.112 28.5419 263.886 28.271 264.325 27.8323C264.79 27.3935 265.022 26.6064 265.022 25.471V20.3613H268.506V25.471C268.506 26.6064 268.725 27.3935 269.164 27.8323C269.603 28.271 270.39 28.5419 271.525 28.6452L272.957 28.7613V30.271C271.951 30.2452 270.97 30.2194 270.015 30.1935C269.086 30.1677 268.003 30.1548 266.764 30.1548ZM266.764 5.69032C266.067 5.69032 265.461 5.44516 264.944 4.95484C264.428 4.43871 264.17 3.83226 264.17 3.13548C264.17 2.43871 264.415 1.84516 264.906 1.35484C265.422 0.838708 266.041 0.580643 266.764 0.580643C267.461 0.580643 268.054 0.838708 268.544 1.35484C269.061 1.84516 269.319 2.43871 269.319 3.13548C269.319 3.83226 269.061 4.43871 268.544 4.95484C268.054 5.44516 267.461 5.69032 266.764 5.69032ZM282.045 30.1548C280.806 30.1548 279.71 30.1677 278.755 30.1935C277.8 30.2194 276.832 30.2452 275.852 30.271V28.7613L277.284 28.6452C278.393 28.5419 279.168 28.271 279.606 27.8323C280.071 27.3935 280.303 26.6064 280.303 25.471V20.3613H283.787V25.471C283.787 26.6064 283.981 27.4064 284.368 27.871C284.755 28.3355 285.464 28.6194 286.497 28.7226L287.077 28.7613V30.271C286.277 30.2452 285.477 30.2194 284.677 30.1935C283.903 30.1677 283.026 30.1548 282.045 30.1548ZM280.303 20.3613V15.2516C280.303 14.1161 280.071 13.3161 279.606 12.8516C279.168 12.3871 278.368 12.1032 277.206 12L275.852 11.8839V10.3742C276.316 10.4 276.755 10.4258 277.168 10.4516C277.581 10.4516 278.006 10.4516 278.445 10.4516C279.503 10.4516 280.484 10.4129 281.387 10.3355C282.29 10.2323 283.09 10.0903 283.787 9.90968V10.3742V20.3613H280.303ZM293.193 20.3613V16.9548C293.193 15.2258 292.858 13.9355 292.187 13.0839C291.516 12.2064 290.51 11.7677 289.168 11.7677C287.774 11.7677 286.535 12.2064 285.452 13.0839C284.368 13.9613 283.452 15.2903 282.703 17.071L282.471 16.2194C283.271 14.0516 284.329 12.4387 285.645 11.3806C286.961 10.3226 288.522 9.79355 290.329 9.79355C292.368 9.79355 293.929 10.4387 295.013 11.729C296.122 12.9935 296.677 14.8129 296.677 17.1871V20.3613H293.193ZM294.935 30.1548C294.006 30.1548 293.155 30.1677 292.381 30.1935C291.632 30.2194 290.871 30.2452 290.097 30.271V28.7613L290.522 28.7226C291.555 28.6452 292.252 28.3742 292.613 27.9097C293 27.4194 293.193 26.6064 293.193 25.471V20.3613H296.677V25.471C296.677 26.6064 296.897 27.3935 297.335 27.8323C297.8 28.271 298.587 28.5419 299.697 28.6452L301.129 28.7613V30.271C300.148 30.2452 299.181 30.2194 298.226 30.1935C297.271 30.1677 296.174 30.1548 294.935 30.1548ZM312.368 39.5226C309.839 39.5226 307.826 39.0581 306.33 38.129C304.859 37.2 304.123 35.9613 304.123 34.4129C304.123 33.1742 304.562 32.0774 305.439 31.1226C306.317 30.1677 307.62 29.3548 309.349 28.6839L310.433 29.4194C309.555 29.7806 308.846 30.3613 308.304 31.1613C307.788 31.9871 307.53 32.8903 307.53 33.871C307.53 35.1871 308.007 36.2064 308.962 36.929C309.917 37.6774 311.246 38.0516 312.949 38.0516C314.317 38.0516 315.517 37.8194 316.549 37.3548C317.607 36.8903 318.433 36.2581 319.026 35.4581C319.646 34.6581 319.955 33.7419 319.955 32.7097C319.955 31.7548 319.659 31.0323 319.065 30.5419C318.497 30.0774 317.62 29.8452 316.433 29.8452H312.523C310.975 29.8452 309.736 29.5613 308.807 28.9935C307.904 28.4 307.452 27.6 307.452 26.5935C307.452 25.8452 307.71 25.1484 308.226 24.5032C308.768 23.8581 309.568 23.2516 310.626 22.6839L311.943 22.8774C311.375 23.2129 310.949 23.5613 310.665 23.9226C310.407 24.2839 310.278 24.6839 310.278 25.1226C310.278 25.6129 310.484 25.9871 310.897 26.2452C311.31 26.5032 311.904 26.6323 312.678 26.6323H317.052C319.065 26.6323 320.601 27.0581 321.659 27.9097C322.743 28.7355 323.284 29.9484 323.284 31.5484C323.284 33.071 322.807 34.4387 321.852 35.6516C320.923 36.8645 319.633 37.8064 317.981 38.4774C316.355 39.1742 314.484 39.5226 312.368 39.5226ZM312.717 23.071C310.394 23.071 308.575 22.4903 307.259 21.329C305.943 20.1419 305.284 18.5161 305.284 16.4516C305.284 14.3613 305.943 12.7355 307.259 11.5742C308.575 10.3871 310.381 9.79355 312.678 9.79355C315.001 9.79355 316.82 10.3871 318.136 11.5742C319.452 12.7355 320.11 14.3613 320.11 16.4516C320.11 18.5161 319.452 20.1419 318.136 21.329C316.82 22.4903 315.014 23.071 312.717 23.071ZM312.717 21.6387C313.981 21.6387 314.923 21.2129 315.543 20.3613C316.162 19.5097 316.472 18.2064 316.472 16.4516C316.472 14.671 316.162 13.3548 315.543 12.5032C314.923 11.6516 313.981 11.2258 312.717 11.2258C311.426 11.2258 310.472 11.6516 309.852 12.5032C309.233 13.3548 308.923 14.671 308.923 16.4516C308.923 18.2064 309.233 19.5097 309.852 20.3613C310.472 21.2129 311.426 21.6387 312.717 21.6387ZM323.672 14.9419C323.155 14.9419 322.781 14.7871 322.549 14.4774C322.317 14.1419 322.136 13.7548 322.007 13.3161C321.904 12.8774 321.788 12.5032 321.659 12.1935C321.53 11.8581 321.336 11.6903 321.078 11.6903C320.923 11.6903 320.691 11.7806 320.381 11.9613C320.072 12.1161 319.762 12.3484 319.452 12.6581C319.143 12.9419 318.859 13.2903 318.601 13.7032L317.943 12.6968C318.459 11.871 319.181 11.1871 320.11 10.6452C321.039 10.0774 321.955 9.79355 322.859 9.79355C323.659 9.79355 324.278 10.0387 324.717 10.529C325.181 10.9935 325.414 11.6645 325.414 12.5419C325.414 13.2903 325.259 13.8839 324.949 14.3226C324.639 14.7355 324.214 14.9419 323.672 14.9419ZM26.1543 77.8129C24.2446 77.8129 22.8124 77.2581 21.8575 76.1484C20.9027 75.0129 20.4253 73.3097 20.4253 71.0387V67.3613H23.9091V72.0839C23.9091 73.3484 24.1543 74.2903 24.6446 74.9097C25.1349 75.5032 25.8962 75.8 26.9285 75.8C27.9091 75.8 28.7091 75.4903 29.3285 74.871C29.9478 74.2516 30.4124 73.3484 30.722 72.1613L31.922 72.471C31.5349 74.2774 30.8769 75.6194 29.9478 76.4968C29.0188 77.3742 27.7543 77.8129 26.1543 77.8129ZM20.4253 67.3613V51.4516C21.0962 51.4 21.7156 51.3355 22.2833 51.2581C22.8769 51.1806 23.4188 51.0645 23.9091 50.9097V67.3613H20.4253ZM15.7414 58.9613V57.4516H30.7995V58.9613H15.7414ZM39.0609 67.3613V62.2516C39.0609 61.1161 38.8287 60.3161 38.3642 59.8516C37.9255 59.3871 37.1255 59.1032 35.9642 59L34.6093 58.8839V57.3742C35.0739 57.4 35.5126 57.4258 35.9255 57.4516C36.3384 57.4516 36.7642 57.4516 37.2029 57.4516C38.2609 57.4516 39.2416 57.4129 40.1448 57.3355C41.048 57.2323 41.848 57.0903 42.5448 56.9097V57.3742V67.3613H39.0609ZM40.8029 77.1548C39.5642 77.1548 38.4674 77.1677 37.5126 77.1935C36.5577 77.2194 35.59 77.2452 34.6093 77.271V75.7613L36.0416 75.6452C37.1513 75.5419 37.9255 75.271 38.3642 74.8323C38.8287 74.3935 39.0609 73.6064 39.0609 72.471V67.3613H42.5448V72.471C42.5448 73.6064 42.7642 74.3935 43.2029 74.8323C43.6416 75.271 44.4287 75.5419 45.5642 75.6452L46.9964 75.7613V77.271C45.99 77.2452 45.0093 77.2194 44.0545 77.1935C43.1255 77.1677 42.0416 77.1548 40.8029 77.1548ZM40.8029 52.6903C40.1061 52.6903 39.4997 52.4452 38.9835 51.9548C38.4674 51.4387 38.2093 50.8323 38.2093 50.1355C38.2093 49.4387 38.4545 48.8452 38.9448 48.3548C39.4609 47.8387 40.0803 47.5806 40.8029 47.5806C41.4997 47.5806 42.0932 47.8387 42.5835 48.3548C43.0997 48.8452 43.3577 49.4387 43.3577 50.1355C43.3577 50.8323 43.0997 51.4387 42.5835 51.9548C42.0932 52.4452 41.4997 52.6903 40.8029 52.6903ZM59.1543 77.8129C57.2446 77.8129 55.8124 77.2581 54.8575 76.1484C53.9027 75.0129 53.4253 73.3097 53.4253 71.0387V67.3613H56.9091V72.0839C56.9091 73.3484 57.1543 74.2903 57.6446 74.9097C58.1349 75.5032 58.8962 75.8 59.9285 75.8C60.9091 75.8 61.7091 75.4903 62.3285 74.871C62.9478 74.2516 63.4124 73.3484 63.722 72.1613L64.922 72.471C64.5349 74.2774 63.8769 75.6194 62.9478 76.4968C62.0188 77.3742 60.7543 77.8129 59.1543 77.8129ZM53.4253 67.3613V51.4516C54.0962 51.4 54.7156 51.3355 55.2833 51.2581C55.8769 51.1806 56.4188 51.0645 56.9091 50.9097V67.3613H53.4253ZM48.7414 58.9613V57.4516H63.7995V58.9613H48.7414ZM73.0529 77.1548C71.8142 77.1548 70.7174 77.1677 69.7626 77.1935C68.8077 77.2194 67.84 77.2452 66.8593 77.271V75.7613L68.2916 75.6452C69.4013 75.5419 70.1755 75.271 70.6142 74.8323C71.0787 74.3935 71.3109 73.6064 71.3109 72.471V67.3613H74.7948V72.471C74.7948 73.6064 75.0142 74.3935 75.4529 74.8323C75.8916 75.271 76.6787 75.5419 77.8142 75.6452L79.2464 75.7613V77.271C78.24 77.2452 77.2593 77.2194 76.3045 77.1935C75.3755 77.1677 74.2916 77.1548 73.0529 77.1548ZM71.3109 67.3613V52.2258C71.3109 51.0903 71.0787 50.2903 70.6142 49.8258C70.1755 49.3613 69.3755 49.0774 68.2142 48.9742L66.8593 48.8581V47.3484C67.3239 47.3742 67.7626 47.4 68.1755 47.4258C68.5884 47.4258 69.0142 47.4258 69.4529 47.4258C70.5109 47.4258 71.4916 47.3871 72.3948 47.3097C73.298 47.2064 74.098 47.0645 74.7948 46.8839V47.3484V67.3613H71.3109ZM91.4509 77.8129C89.5928 77.8129 87.9799 77.4 86.6122 76.5742C85.2444 75.7226 84.1864 74.5097 83.438 72.9355C82.6896 71.3613 82.3154 69.5032 82.3154 67.3613C82.3154 65.2194 82.6896 63.3613 83.438 61.7871C84.1864 60.1871 85.2573 58.9613 86.6509 58.1097C88.0444 57.2323 89.7218 56.7935 91.6831 56.7935C93.3347 56.7935 94.767 57.129 95.9799 57.8C97.2186 58.4452 98.1605 59.4645 98.8057 60.8581C99.4767 62.2516 99.7863 64.0581 99.7347 66.2774H84.5993L84.5605 64.8064H96.0186C96.0702 63.5677 95.9283 62.4581 95.5928 61.4774C95.2831 60.4968 94.7799 59.7226 94.0831 59.1548C93.4122 58.5613 92.5476 58.2645 91.4896 58.2645C90.1476 58.2645 88.9605 58.8323 87.9283 59.9677C86.896 61.0774 86.2896 62.8064 86.1089 65.1548L86.1476 65.271C86.1218 65.5548 86.096 65.8516 86.0702 66.1613C86.0702 66.471 86.0702 66.7935 86.0702 67.129C86.0702 69.8903 86.6122 72.0194 87.696 73.5161C88.7799 75.0129 90.3283 75.7613 92.3412 75.7613C93.6315 75.7613 94.7928 75.4387 95.8251 74.7935C96.8573 74.1484 97.696 73.1548 98.3412 71.8129L99.7347 72.6258C99.0638 74.2258 98.0057 75.4903 96.5605 76.4194C95.1154 77.3484 93.4122 77.8129 91.4509 77.8129ZM122.782 86.5226C120.253 86.5226 118.24 86.0581 116.744 85.129C115.273 84.2 114.537 82.9613 114.537 81.4129C114.537 80.1742 114.976 79.0774 115.853 78.1226C116.731 77.1677 118.034 76.3548 119.763 75.6839L120.847 76.4194C119.97 76.7806 119.26 77.3613 118.718 78.1613C118.202 78.9871 117.944 79.8903 117.944 80.871C117.944 82.1871 118.421 83.2064 119.376 83.929C120.331 84.6774 121.66 85.0516 123.363 85.0516C124.731 85.0516 125.931 84.8194 126.963 84.3548C128.021 83.8903 128.847 83.2581 129.44 82.4581C130.06 81.6581 130.37 80.7419 130.37 79.7097C130.37 78.7548 130.073 78.0323 129.479 77.5419C128.911 77.0774 128.034 76.8452 126.847 76.8452H122.937C121.389 76.8452 120.15 76.5613 119.221 75.9935C118.318 75.4 117.866 74.6 117.866 73.5935C117.866 72.8452 118.124 72.1484 118.64 71.5032C119.182 70.8581 119.982 70.2516 121.04 69.6839L122.357 69.8774C121.789 70.2129 121.363 70.5613 121.079 70.9226C120.821 71.2839 120.692 71.6839 120.692 72.1226C120.692 72.6129 120.899 72.9871 121.311 73.2452C121.724 73.5032 122.318 73.6323 123.092 73.6323H127.466C129.479 73.6323 131.015 74.0581 132.073 74.9097C133.157 75.7355 133.699 76.9484 133.699 78.5484C133.699 80.071 133.221 81.4387 132.266 82.6516C131.337 83.8645 130.047 84.8064 128.395 85.4774C126.77 86.1742 124.899 86.5226 122.782 86.5226ZM123.131 70.071C120.808 70.071 118.989 69.4903 117.673 68.329C116.357 67.1419 115.699 65.5161 115.699 63.4516C115.699 61.3613 116.357 59.7355 117.673 58.5742C118.989 57.3871 120.795 56.7935 123.092 56.7935C125.415 56.7935 127.234 57.3871 128.55 58.5742C129.866 59.7355 130.524 61.3613 130.524 63.4516C130.524 65.5161 129.866 67.1419 128.55 68.329C127.234 69.4903 125.428 70.071 123.131 70.071ZM123.131 68.6387C124.395 68.6387 125.337 68.2129 125.957 67.3613C126.576 66.5097 126.886 65.2064 126.886 63.4516C126.886 61.671 126.576 60.3548 125.957 59.5032C125.337 58.6516 124.395 58.2258 123.131 58.2258C121.84 58.2258 120.886 58.6516 120.266 59.5032C119.647 60.3548 119.337 61.671 119.337 63.4516C119.337 65.2064 119.647 66.5097 120.266 67.3613C120.886 68.2129 121.84 68.6387 123.131 68.6387ZM134.086 61.9419C133.57 61.9419 133.195 61.7871 132.963 61.4774C132.731 61.1419 132.55 60.7548 132.421 60.3161C132.318 59.8774 132.202 59.5032 132.073 59.1935C131.944 58.8581 131.75 58.6903 131.492 58.6903C131.337 58.6903 131.105 58.7806 130.795 58.9613C130.486 59.1161 130.176 59.3484 129.866 59.6581C129.557 59.9419 129.273 60.2903 129.015 60.7032L128.357 59.6968C128.873 58.871 129.595 58.1871 130.524 57.6452C131.453 57.0774 132.37 56.7935 133.273 56.7935C134.073 56.7935 134.692 57.0387 135.131 57.529C135.595 57.9935 135.828 58.6645 135.828 59.5419C135.828 60.2903 135.673 60.8839 135.363 61.3226C135.053 61.7355 134.628 61.9419 134.086 61.9419ZM149.215 77.8129C147.486 77.8129 145.912 77.4516 144.492 76.729C143.099 75.9806 141.989 74.8452 141.163 73.3226C140.338 71.7742 139.925 69.7742 139.925 67.3226C139.925 64.871 140.338 62.871 141.163 61.3226C141.989 59.7742 143.099 58.6387 144.492 57.9161C145.912 57.1677 147.486 56.7935 149.215 56.7935C150.97 56.7935 152.544 57.1677 153.938 57.9161C155.331 58.6387 156.441 59.7742 157.267 61.3226C158.092 62.871 158.505 64.871 158.505 67.3226C158.505 69.7742 158.092 71.7742 157.267 73.3226C156.441 74.8452 155.331 75.9806 153.938 76.729C152.544 77.4516 150.97 77.8129 149.215 77.8129ZM149.215 76.3032C150.841 76.3032 152.17 75.5935 153.202 74.1742C154.234 72.7548 154.751 70.471 154.751 67.3226C154.751 64.1742 154.234 61.8903 153.202 60.471C152.17 59.0258 150.841 58.3032 149.215 58.3032C147.589 58.3032 146.26 59.0258 145.228 60.471C144.196 61.8903 143.68 64.1742 143.68 67.3226C143.68 70.471 144.196 72.7548 145.228 74.1742C146.26 75.5935 147.589 76.3032 149.215 76.3032ZM173.623 77.8129C171.765 77.8129 170.152 77.4 168.784 76.5742C167.416 75.7226 166.358 74.5097 165.61 72.9355C164.861 71.3613 164.487 69.5032 164.487 67.3613C164.487 65.2194 164.861 63.3613 165.61 61.7871C166.358 60.1871 167.429 58.9613 168.823 58.1097C170.216 57.2323 171.894 56.7935 173.855 56.7935C175.507 56.7935 176.939 57.129 178.152 57.8C179.39 58.4452 180.332 59.4645 180.978 60.8581C181.649 62.2516 181.958 64.0581 181.907 66.2774H166.771L166.732 64.8064H178.19C178.242 63.5677 178.1 62.4581 177.765 61.4774C177.455 60.4968 176.952 59.7226 176.255 59.1548C175.584 58.5613 174.72 58.2645 173.661 58.2645C172.32 58.2645 171.132 58.8323 170.1 59.9677C169.068 61.0774 168.461 62.8064 168.281 65.1548L168.32 65.271C168.294 65.5548 168.268 65.8516 168.242 66.1613C168.242 66.471 168.242 66.7935 168.242 67.129C168.242 69.8903 168.784 72.0194 169.868 73.5161C170.952 75.0129 172.5 75.7613 174.513 75.7613C175.803 75.7613 176.965 75.4387 177.997 74.7935C179.029 74.1484 179.868 73.1548 180.513 71.8129L181.907 72.6258C181.236 74.2258 180.178 75.4903 178.732 76.4194C177.287 77.3484 175.584 77.8129 173.623 77.8129ZM196.151 77.8129C195.042 77.8129 194.1 77.6839 193.326 77.4258C192.577 77.1935 191.958 76.9742 191.468 76.7677C191.003 76.5355 190.59 76.4194 190.229 76.4194C189.661 76.4194 189.235 76.8194 188.951 77.6194H187.442C187.519 77.0258 187.571 76.3677 187.597 75.6452C187.622 74.8968 187.635 74.0581 187.635 73.129C187.635 72.1742 187.635 71.0903 187.635 69.8774H189.106C189.416 72.0452 190.126 73.6581 191.235 74.7161C192.345 75.7742 193.829 76.3032 195.687 76.3032C197.081 76.3032 198.151 76.0064 198.9 75.4129C199.648 74.7935 200.022 73.9419 200.022 72.8581C200.022 71.8258 199.635 71 198.861 70.3806C198.113 69.7355 196.797 69.1548 194.913 68.6387C192.564 67.9935 190.835 67.1548 189.726 66.1226C188.642 65.0903 188.1 63.8 188.1 62.2516C188.1 60.5742 188.655 59.2452 189.764 58.2645C190.874 57.2839 192.345 56.7935 194.177 56.7935C195.184 56.7935 196.035 56.9097 196.732 57.1419C197.429 57.3742 198.01 57.6194 198.474 57.8774C198.964 58.1097 199.403 58.2258 199.79 58.2258C200.048 58.2258 200.268 58.1355 200.448 57.9548C200.629 57.7484 200.784 57.4387 200.913 57.0258H202.422C202.371 57.5677 202.332 58.1484 202.306 58.7677C202.281 59.3613 202.255 60.0581 202.229 60.8581C202.229 61.6323 202.242 62.5742 202.268 63.6839H200.758C200.526 62.0323 199.855 60.729 198.745 59.7742C197.635 58.7935 196.281 58.3032 194.681 58.3032C193.571 58.3032 192.693 58.5613 192.048 59.0774C191.429 59.5935 191.119 60.3419 191.119 61.3226C191.119 62.329 191.545 63.1677 192.397 63.8387C193.248 64.5097 194.693 65.1419 196.732 65.7355C198.977 66.3548 200.59 67.1419 201.571 68.0968C202.577 69.0516 203.081 70.3032 203.081 71.8516C203.081 73.7097 202.461 75.1677 201.222 76.2258C200.01 77.2839 198.319 77.8129 196.151 77.8129ZM223.944 77.1548C222.705 77.1548 221.608 77.1677 220.653 77.1935C219.698 77.2194 218.731 77.2452 217.75 77.271V75.7613L219.182 75.6452C220.292 75.5419 221.066 75.271 221.505 74.8323C221.969 74.3935 222.202 73.6064 222.202 72.471V67.3613H225.685V72.471C225.685 73.6064 225.879 74.4194 226.266 74.9097C226.653 75.3742 227.35 75.6452 228.356 75.7226L228.782 75.7613V77.271C228.008 77.2452 227.247 77.2194 226.498 77.1935C225.75 77.1677 224.898 77.1548 223.944 77.1548ZM235.092 67.3613V63.9548C235.092 62.2258 234.756 60.9355 234.085 60.0839C233.414 59.2064 232.408 58.7677 231.066 58.7677C229.673 58.7677 228.434 59.2064 227.35 60.0839C226.266 60.9613 225.35 62.2903 224.602 64.071L224.369 63.2194C225.169 61.0516 226.227 59.4387 227.544 58.3806C228.86 57.3226 230.421 56.7935 232.227 56.7935C234.266 56.7935 235.827 57.4387 236.911 58.729C238.021 59.9935 238.576 61.8129 238.576 64.1871V67.3613H235.092ZM236.834 77.1548C235.905 77.1548 235.053 77.1677 234.279 77.1935C233.531 77.2194 232.769 77.2452 231.995 77.271V75.7613L232.421 75.7226C233.453 75.6452 234.15 75.3742 234.511 74.9097C234.898 74.4194 235.092 73.6064 235.092 72.471V67.3613H238.576V72.471C238.576 73.6064 238.795 74.3935 239.234 74.8323C239.698 75.271 240.485 75.5419 241.595 75.6452L243.027 75.7613V77.271C242.047 77.2452 241.079 77.2194 240.124 77.1935C239.169 77.1677 238.073 77.1548 236.834 77.1548ZM222.202 67.3613V52.2258C222.202 51.0903 221.969 50.2903 221.505 49.8258C221.066 49.3613 220.266 49.0774 219.105 48.9742L217.75 48.8581V47.3484C218.214 47.3742 218.653 47.4 219.066 47.4258C219.479 47.4258 219.905 47.4258 220.344 47.4258C221.402 47.4258 222.382 47.3871 223.285 47.3097C224.189 47.2064 224.989 47.0645 225.685 46.8839V47.3484V67.3613H222.202ZM255.56 77.8129C253.702 77.8129 252.089 77.4 250.722 76.5742C249.354 75.7226 248.296 74.5097 247.547 72.9355C246.799 71.3613 246.425 69.5032 246.425 67.3613C246.425 65.2194 246.799 63.3613 247.547 61.7871C248.296 60.1871 249.367 58.9613 250.76 58.1097C252.154 57.2323 253.831 56.7935 255.792 56.7935C257.444 56.7935 258.876 57.129 260.089 57.8C261.328 58.4452 262.27 59.4645 262.915 60.8581C263.586 62.2516 263.896 64.0581 263.844 66.2774H248.709L248.67 64.8064H260.128C260.18 63.5677 260.038 62.4581 259.702 61.4774C259.392 60.4968 258.889 59.7226 258.193 59.1548C257.522 58.5613 256.657 58.2645 255.599 58.2645C254.257 58.2645 253.07 58.8323 252.038 59.9677C251.005 61.0774 250.399 62.8064 250.218 65.1548L250.257 65.271C250.231 65.5548 250.205 65.8516 250.18 66.1613C250.18 66.471 250.18 66.7935 250.18 67.129C250.18 69.8903 250.722 72.0194 251.805 73.5161C252.889 75.0129 254.438 75.7613 256.451 75.7613C257.741 75.7613 258.902 75.4387 259.934 74.7935C260.967 74.1484 261.805 73.1548 262.451 71.8129L263.844 72.6258C263.173 74.2258 262.115 75.4903 260.67 76.4194C259.225 77.3484 257.522 77.8129 255.56 77.8129ZM273.959 77.1548C272.72 77.1548 271.624 77.1677 270.669 77.1935C269.714 77.2194 268.746 77.2452 267.766 77.271V75.7613L269.198 75.6452C270.308 75.5419 271.082 75.271 271.52 74.8323C271.985 74.3935 272.217 73.6064 272.217 72.471V67.3613H275.701V72.471C275.701 73.2194 275.804 73.8129 276.011 74.2516C276.217 74.6903 276.566 75.0129 277.056 75.2194C277.546 75.4258 278.204 75.5677 279.03 75.6452L280.733 75.7613V77.271C280.037 77.2452 279.327 77.2323 278.604 77.2323C277.908 77.2064 277.185 77.1935 276.437 77.1935C275.688 77.1677 274.862 77.1548 273.959 77.1548ZM272.217 67.3613V62.2516C272.217 61.1161 271.985 60.3161 271.52 59.8516C271.082 59.3871 270.282 59.1032 269.12 59L267.766 58.8839V57.3742C268.23 57.4 268.669 57.4258 269.082 57.4516C269.495 57.4516 269.92 57.4516 270.359 57.4516C271.417 57.4516 272.398 57.4129 273.301 57.3355C274.204 57.2323 275.004 57.0903 275.701 56.9097V57.3742V67.3613H272.217ZM283.133 63.4516C282.617 63.4516 282.178 63.2968 281.817 62.9871C281.482 62.6774 281.314 62.2903 281.314 61.8258C281.314 61.4645 281.378 61.1548 281.508 60.8968C281.662 60.6387 281.804 60.3935 281.933 60.1613C282.062 59.929 282.127 59.6968 282.127 59.4645C282.127 58.9226 281.727 58.6516 280.927 58.6516C280.282 58.6516 279.598 58.8194 278.875 59.1548C278.153 59.4903 277.495 59.929 276.901 60.471C276.308 61.0129 275.869 61.6194 275.585 62.2903L275.469 60.6645C276.191 59.4258 277.095 58.471 278.178 57.8C279.288 57.129 280.449 56.7935 281.662 56.7935C282.875 56.7935 283.83 57.1419 284.527 57.8387C285.249 58.5097 285.611 59.4 285.611 60.5097C285.611 61.3871 285.378 62.0968 284.914 62.6387C284.475 63.1806 283.882 63.4516 283.133 63.4516ZM298.17 77.8129C296.312 77.8129 294.699 77.4 293.331 76.5742C291.963 75.7226 290.905 74.5097 290.157 72.9355C289.408 71.3613 289.034 69.5032 289.034 67.3613C289.034 65.2194 289.408 63.3613 290.157 61.7871C290.905 60.1871 291.976 58.9613 293.37 58.1097C294.763 57.2323 296.441 56.7935 298.402 56.7935C300.053 56.7935 301.486 57.129 302.699 57.8C303.937 58.4452 304.879 59.4645 305.524 60.8581C306.195 62.2516 306.505 64.0581 306.453 66.2774H291.318L291.279 64.8064H302.737C302.789 63.5677 302.647 62.4581 302.312 61.4774C302.002 60.4968 301.499 59.7226 300.802 59.1548C300.131 58.5613 299.266 58.2645 298.208 58.2645C296.866 58.2645 295.679 58.8323 294.647 59.9677C293.615 61.0774 293.008 62.8064 292.828 65.1548L292.866 65.271C292.841 65.5548 292.815 65.8516 292.789 66.1613C292.789 66.471 292.789 66.7935 292.789 67.129C292.789 69.8903 293.331 72.0194 294.415 73.5161C295.499 75.0129 297.047 75.7613 299.06 75.7613C300.35 75.7613 301.512 75.4387 302.544 74.7935C303.576 74.1484 304.415 73.1548 305.06 71.8129L306.453 72.6258C305.783 74.2258 304.724 75.4903 303.279 76.4194C301.834 77.3484 300.131 77.8129 298.17 77.8129Z" fill="white"/>
</svg>
