<svg width="131" height="27" viewBox="0 0 131 27" fill="none" xmlns="http://www.w3.org/2000/svg">
<path d="M3.99999 20.1806C3.51827 20.1806 3.01934 20.1892 2.50321 20.2065C2.00429 20.2065 1.53977 20.2151 1.10966 20.2323C0.679556 20.2323 0.309664 20.2409 -1.38283e-05 20.2581V19.2516L0.929018 19.1742C1.53117 19.1054 1.97848 19.0108 2.27095 18.8903C2.58063 18.7527 2.78708 18.5462 2.89031 18.271C3.01074 17.9785 3.07095 17.5656 3.07095 17.0323V8.43871H5.47095V17.0323C5.47095 17.6344 5.52257 18.0903 5.62579 18.4C5.72902 18.7097 5.94407 18.9161 6.27095 19.0194C6.59784 19.1226 7.08816 19.1742 7.74192 19.1742H8.90321C9.72902 19.1742 10.4258 19.1054 10.9935 18.9677C11.5613 18.8301 12.043 18.5806 12.4387 18.2194C12.8344 17.8409 13.1871 17.3161 13.4968 16.6452C13.8236 15.9742 14.1333 15.1054 14.4258 14.0387H15.458C15.3204 15.0882 15.2172 16.129 15.1484 17.1613C15.0796 18.1763 15.0365 19.2086 15.0193 20.2581C14.2796 20.2237 13.3935 20.2065 12.3613 20.2065C11.3462 20.1892 10.1333 20.1806 8.72257 20.1806H4.25805H3.99999ZM3.99999 2.06452H4.28386H4.41289C4.99784 2.06452 5.58278 2.06452 6.16773 2.06452C6.75267 2.04731 7.30321 2.03011 7.81934 2.0129C8.33547 1.9957 8.78278 1.9871 9.16128 1.9871V2.99355L7.58708 3.12258C6.72687 3.1914 6.15913 3.36344 5.88386 3.63871C5.60859 3.89677 5.47095 4.42151 5.47095 5.2129V8.43871H3.07095V5.2129C3.07095 4.67957 3.01074 4.27527 2.89031 4C2.78708 3.70753 2.58063 3.49247 2.27095 3.35484C1.97848 3.21721 1.53117 3.12258 0.929018 3.07097L-1.38283e-05 2.99355V1.9871C0.309664 1.9871 0.679556 1.9957 1.10966 2.0129C1.53977 2.03011 2.00429 2.04731 2.50321 2.06452C3.01934 2.06452 3.51827 2.06452 3.99999 2.06452ZM20.3062 13.6516V10.2452C20.3062 9.48817 20.1514 8.95484 19.8417 8.64516C19.5492 8.33548 19.0159 8.14624 18.2417 8.07742L17.3385 8V6.99355C17.6482 7.01075 17.9406 7.02796 18.2159 7.04516C18.4912 7.04516 18.7751 7.04516 19.0675 7.04516C19.7729 7.04516 20.4267 7.01935 21.0288 6.96774C21.631 6.89892 22.1643 6.8043 22.6288 6.68387V6.99355V13.6516H20.3062ZM21.4675 20.1806C20.6417 20.1806 19.9105 20.1892 19.274 20.2065C18.6374 20.2237 17.9923 20.2409 17.3385 20.2581V19.2516L18.2933 19.1742C19.0331 19.1054 19.5492 18.9247 19.8417 18.6323C20.1514 18.3398 20.3062 17.8151 20.3062 17.0581V13.6516H22.6288V17.0581C22.6288 17.8151 22.7751 18.3398 23.0675 18.6323C23.36 18.9247 23.8847 19.1054 24.6417 19.1742L25.5966 19.2516V20.2581C24.9256 20.2409 24.2718 20.2237 23.6353 20.2065C23.0159 20.1892 22.2933 20.1806 21.4675 20.1806ZM21.4675 3.87097C21.003 3.87097 20.5987 3.70753 20.2546 3.38065C19.9105 3.03656 19.7385 2.63226 19.7385 2.16774C19.7385 1.70323 19.9019 1.30753 20.2288 0.980646C20.5729 0.636559 20.9858 0.464516 21.4675 0.464516C21.932 0.464516 22.3277 0.636559 22.6546 0.980646C22.9987 1.30753 23.1708 1.70323 23.1708 2.16774C23.1708 2.63226 22.9987 3.03656 22.6546 3.38065C22.3277 3.70753 21.932 3.87097 21.4675 3.87097ZM33.9395 20.6194C33.1997 20.6194 32.5718 20.5333 32.0556 20.3613C31.5567 20.2065 31.1438 20.0602 30.8169 19.9226C30.5072 19.7677 30.232 19.6903 29.9911 19.6903C29.6126 19.6903 29.3287 19.957 29.1395 20.4903H28.1331C28.1847 20.0946 28.2191 19.6559 28.2363 19.1742C28.2535 18.6753 28.2621 18.1161 28.2621 17.4968C28.2621 16.8602 28.2621 16.1376 28.2621 15.329H29.2427C29.4492 16.7742 29.9223 17.8495 30.6621 18.5548C31.4019 19.2602 32.3911 19.6129 33.6298 19.6129C34.5589 19.6129 35.2728 19.4151 35.7718 19.0194C36.2707 18.6065 36.5201 18.0387 36.5201 17.3161C36.5201 16.628 36.2621 16.0774 35.746 15.6645C35.247 15.2344 34.3696 14.8473 33.1137 14.5032C31.5481 14.0731 30.3954 13.514 29.6556 12.8258C28.9331 12.1376 28.5718 11.2774 28.5718 10.2452C28.5718 9.12688 28.9417 8.24086 29.6814 7.5871C30.4212 6.93333 31.4019 6.60645 32.6234 6.60645C33.2943 6.60645 33.8621 6.68387 34.3266 6.83871C34.7911 6.99355 35.1782 7.15699 35.4879 7.32903C35.8148 7.48387 36.1072 7.56129 36.3653 7.56129C36.5374 7.56129 36.6836 7.50108 36.804 7.38064C36.9244 7.24301 37.0277 7.03656 37.1137 6.76129H38.1201C38.0857 7.12258 38.0599 7.50968 38.0427 7.92258C38.0255 8.31828 38.0083 8.7828 37.9911 9.31613C37.9911 9.83226 37.9997 10.4602 38.0169 11.2H37.0105C36.8556 10.0989 36.4083 9.23011 35.6685 8.59355C34.9287 7.93979 34.0255 7.6129 32.9589 7.6129C32.2191 7.6129 31.6341 7.78495 31.204 8.12903C30.7911 8.47312 30.5847 8.97204 30.5847 9.62581C30.5847 10.2968 30.8685 10.8559 31.4363 11.3032C32.004 11.7505 32.9675 12.172 34.3266 12.5677C35.8234 12.9806 36.8986 13.5054 37.5524 14.1419C38.2234 14.7785 38.5589 15.6129 38.5589 16.6452C38.5589 17.8839 38.146 18.8559 37.3201 19.5613C36.5115 20.2667 35.3847 20.6194 33.9395 20.6194ZM47.9518 20.6194C46.6787 20.6194 45.7238 20.2495 45.0873 19.5097C44.4507 18.7527 44.1324 17.6172 44.1324 16.1032V13.6516H46.455V16.8C46.455 17.643 46.6185 18.271 46.9453 18.6839C47.2722 19.0796 47.7798 19.2774 48.4679 19.2774C49.1217 19.2774 49.655 19.071 50.0679 18.6581C50.4808 18.2452 50.7905 17.643 50.997 16.8516L51.797 17.0581C51.5389 18.2624 51.1002 19.157 50.4808 19.7419C49.8615 20.3269 49.0185 20.6194 47.9518 20.6194ZM44.1324 13.6516V3.04516C44.5798 3.01075 44.9927 2.96774 45.3712 2.91613C45.7669 2.86452 46.1281 2.7871 46.455 2.68387V13.6516H44.1324ZM41.0099 8.05161V7.04516H51.0486V8.05161H41.0099ZM60.1391 20.6194C58.9004 20.6194 57.8251 20.3441 56.9133 19.7935C56.0015 19.2258 55.2961 18.4172 54.7972 17.3677C54.2982 16.3183 54.0488 15.0796 54.0488 13.6516C54.0488 12.2237 54.2982 10.9849 54.7972 9.93548C55.2961 8.86882 56.0101 8.05161 56.9391 7.48387C57.8681 6.89892 58.9864 6.60645 60.2939 6.60645C61.395 6.60645 62.3499 6.83011 63.1585 7.27742C63.9843 7.70753 64.6122 8.3871 65.0423 9.31613C65.4896 10.2452 65.6961 11.4495 65.6617 12.929H55.5714L55.5456 11.9484H63.1843C63.2187 11.1226 63.124 10.3828 62.9004 9.72903C62.6939 9.07527 62.3585 8.55914 61.8939 8.18064C61.4466 7.78495 60.8703 7.5871 60.1649 7.5871C59.2703 7.5871 58.4789 7.96559 57.7907 8.72258C57.1025 9.46237 56.6982 10.6151 56.5778 12.1806L56.6036 12.2581C56.5864 12.4473 56.5692 12.6452 56.552 12.8516C56.552 13.0581 56.552 13.2731 56.552 13.4968C56.552 15.3376 56.9133 16.757 57.6359 17.7548C58.3585 18.7527 59.3907 19.2516 60.7326 19.2516C61.5929 19.2516 62.3671 19.0366 63.0552 18.6065C63.7434 18.1763 64.3025 17.514 64.7326 16.6194L65.6617 17.1613C65.2144 18.228 64.509 19.071 63.5456 19.6903C62.5821 20.3097 61.4466 20.6194 60.1391 20.6194ZM74.7548 20.6194C73.671 20.6194 72.7247 20.3441 71.9161 19.7935C71.1075 19.2258 70.4796 18.4258 70.0322 17.3935C69.5849 16.3613 69.3613 15.1484 69.3613 13.7548C69.3613 12.2925 69.6021 11.028 70.0839 9.96129C70.5828 8.89462 71.2796 8.06882 72.1742 7.48387C73.0688 6.89892 74.1183 6.60645 75.3226 6.60645C76.3204 6.60645 77.172 6.83871 77.8774 7.30323C78.5828 7.76774 79.0817 8.36129 79.3742 9.08387L79.0645 9.78065C78.8581 9.1957 78.4624 8.71398 77.8774 8.33548C77.3097 7.95699 76.6215 7.76774 75.8129 7.76774C74.557 7.76774 73.5849 8.28387 72.8968 9.31613C72.2086 10.3312 71.8645 11.7763 71.8645 13.6516C71.8645 15.4581 72.1828 16.8602 72.8193 17.8581C73.4731 18.8387 74.3849 19.329 75.5548 19.329C76.415 19.329 77.1634 19.0882 77.8 18.6065C78.4537 18.1075 78.9097 17.4538 79.1677 16.6452L79.4258 17.3419C79.1505 18.3054 78.5914 19.0968 77.7484 19.7161C76.9226 20.3183 75.9247 20.6194 74.7548 20.6194ZM78.9097 20.2581V13.6516H81.2322V17.0065C81.2322 17.7634 81.3785 18.2968 81.671 18.6065C81.9634 18.8989 82.5054 19.0882 83.2968 19.1742L84.2 19.2516V20.2581C83.8903 20.2409 83.5978 20.2323 83.3226 20.2323C83.0473 20.2151 82.7634 20.2065 82.471 20.2065C81.7656 20.2065 81.1118 20.2323 80.5097 20.2839C79.9075 20.3527 79.3742 20.4473 78.9097 20.5677V20.2581ZM78.9097 13.6516V3.56129C78.9097 2.8043 78.7634 2.27097 78.471 1.96129C78.1785 1.65161 77.6365 1.46237 76.8451 1.39355L75.9419 1.31613V0.309677C76.2688 0.326881 76.5613 0.344086 76.8193 0.36129C77.0946 0.36129 77.3785 0.36129 77.671 0.36129C78.3763 0.36129 79.0301 0.335484 79.6322 0.283871C80.2344 0.215054 80.7677 0.12043 81.2322 0V0.309677V13.6516H78.9097ZM102.096 6.68387C103.18 6.68387 104.126 6.96774 104.935 7.53548C105.743 8.08602 106.363 8.87742 106.793 9.90968C107.24 10.9419 107.464 12.1548 107.464 13.5484C107.464 15.0108 107.214 16.2839 106.716 17.3677C106.234 18.4344 105.546 19.2602 104.651 19.8452C103.756 20.4129 102.69 20.6968 101.451 20.6968C100.47 20.6968 99.6359 20.4817 98.9478 20.0516C98.2596 19.6215 97.7779 19.1226 97.5026 18.5548L97.8123 17.6C98.0187 18.1505 98.4058 18.6151 98.9736 18.9935C99.5413 19.3548 100.212 19.5355 100.986 19.5355C102.26 19.5355 103.24 19.028 103.928 18.0129C104.617 16.9806 104.961 15.5269 104.961 13.6516C104.961 11.8452 104.642 10.4516 104.006 9.47097C103.369 8.47312 102.466 7.97419 101.296 7.97419C100.436 7.97419 99.679 8.22366 99.0252 8.72258C98.3886 9.2043 97.9413 9.84946 97.6833 10.6581L97.4252 9.96129C97.7005 8.99785 98.251 8.21505 99.0768 7.6129C99.9026 6.99355 100.909 6.68387 102.096 6.68387ZM95.6187 13.6516V3.56129C95.6187 2.8043 95.4639 2.27097 95.1542 1.96129C94.8617 1.65161 94.3284 1.46237 93.5542 1.39355L92.651 1.31613V0.309677C92.9607 0.326881 93.2531 0.344086 93.5284 0.36129C93.8037 0.36129 94.0876 0.36129 94.38 0.36129C95.0854 0.36129 95.7392 0.335484 96.3413 0.283871C96.9435 0.215054 97.4768 0.12043 97.9413 0V0.309677V13.6516H95.6187ZM97.9413 18.8903C97.6144 19.028 97.2962 19.1914 96.9865 19.3806C96.6768 19.5527 96.3843 19.7505 96.1091 19.9742C95.851 20.1806 95.6101 20.4129 95.3865 20.671L94.6897 19.8452C94.9306 19.6215 95.1198 19.3978 95.2574 19.1742C95.3951 18.9333 95.4897 18.6667 95.5413 18.3742C95.5929 18.0817 95.6187 17.7204 95.6187 17.2903V13.6516H97.9413V20.2581V18.8903ZM116.872 20.5677L112.304 9.96129C112.115 9.49677 111.934 9.14409 111.762 8.90323C111.59 8.64516 111.392 8.45591 111.168 8.33548C110.945 8.21505 110.652 8.13763 110.291 8.10323L109.568 8.05161V7.04516C109.964 7.06237 110.394 7.07957 110.859 7.09677C111.34 7.11398 111.796 7.12258 112.226 7.12258H112.278H112.304C112.837 7.12258 113.362 7.12258 113.878 7.12258C114.394 7.10538 114.867 7.09677 115.297 7.09677C115.745 7.07957 116.115 7.06237 116.407 7.04516V8.05161L115.891 8.10323C115.203 8.17204 114.79 8.36129 114.652 8.67097C114.515 8.96344 114.592 9.49677 114.884 10.271L118.162 17.8323L117.775 17.9355L120.046 12.129C120.441 11.1484 120.674 10.3742 120.743 9.80645C120.811 9.23871 120.743 8.82581 120.536 8.56774C120.33 8.30968 119.994 8.14624 119.53 8.07742L119.22 8.05161V7.04516C119.65 7.06237 120.106 7.07957 120.588 7.09677C121.069 7.11398 121.525 7.12258 121.955 7.12258C122.489 7.12258 122.988 7.11398 123.452 7.09677C123.917 7.07957 124.347 7.06237 124.743 7.04516V8.05161L124.33 8.10323C123.917 8.17204 123.547 8.32688 123.22 8.56774C122.893 8.7914 122.575 9.16129 122.265 9.67742C121.973 10.1935 121.629 10.9247 121.233 11.871L117.826 20.5677H116.872ZM113.336 26.4258C112.51 26.4258 111.839 26.2108 111.323 25.7806C110.824 25.3505 110.575 24.7914 110.575 24.1032C110.575 23.5699 110.73 23.1398 111.039 22.8129C111.366 22.486 111.788 22.3226 112.304 22.3226C112.682 22.3226 112.975 22.4172 113.181 22.6065C113.405 22.8129 113.517 23.0796 113.517 23.4065C113.517 23.6473 113.474 23.8538 113.388 24.0258C113.319 24.2151 113.241 24.3785 113.155 24.5161C113.069 24.671 113.026 24.8344 113.026 25.0065C113.026 25.2989 113.216 25.4452 113.594 25.4452C113.99 25.4452 114.343 25.2989 114.652 25.0065C114.962 24.7312 115.229 24.3269 115.452 23.7935L117.078 19.7677L117.93 20.2839L116.459 23.8968C116.218 24.4817 115.943 24.9634 115.633 25.3419C115.34 25.7204 115.005 25.9957 114.626 26.1677C114.265 26.3398 113.835 26.4258 113.336 26.4258ZM128.794 20.6194C128.209 20.6194 127.727 20.4387 127.349 20.0774C126.987 19.7161 126.807 19.2602 126.807 18.7097C126.807 18.1591 126.987 17.7118 127.349 17.3677C127.727 17.0065 128.2 16.8258 128.768 16.8258C129.336 16.8258 129.809 17.0065 130.187 17.3677C130.566 17.729 130.755 18.1763 130.755 18.7097C130.755 19.2602 130.566 19.7161 130.187 20.0774C129.826 20.4387 129.362 20.6194 128.794 20.6194ZM128.794 10.4258C128.209 10.4258 127.727 10.2452 127.349 9.88387C126.987 9.52258 126.807 9.06667 126.807 8.51613C126.807 7.96559 126.987 7.51828 127.349 7.17419C127.727 6.8129 128.2 6.63226 128.768 6.63226C129.336 6.63226 129.809 6.8129 130.187 7.17419C130.566 7.53548 130.755 7.9828 130.755 8.51613C130.755 9.06667 130.566 9.52258 130.187 9.88387C129.826 10.2452 129.362 10.4258 128.794 10.4258Z" fill="white"/>
</svg>
