<svg width="291" height="21" viewBox="0 0 291 21" fill="none" xmlns="http://www.w3.org/2000/svg">
<path d="M7.18699 20.7721C5.8236 20.7721 4.59656 20.5384 3.50585 20.0709C2.41515 19.584 1.55817 18.9023 0.934906 18.0259C0.311646 17.1494 1.54982e-05 16.1269 1.54982e-05 14.9583H3.56428C3.64219 15.8347 3.98304 16.5554 4.58682 17.1202C5.21008 17.685 6.0768 17.9674 7.18699 17.9674C8.33612 17.9674 9.23206 17.6948 9.8748 17.1494C10.5175 16.5846 10.8389 15.8639 10.8389 14.9875C10.8389 14.3058 10.6344 13.7507 10.2254 13.3222C9.83584 12.8937 9.33918 12.5626 8.7354 12.3289C8.15109 12.0952 7.33306 11.842 6.28131 11.5693C4.95688 11.2187 3.87592 10.8681 3.03841 10.5175C2.22038 10.1475 1.51921 9.58263 0.934906 8.82304C0.350599 8.06344 0.0584462 7.05064 0.0584462 5.78464C0.0584462 4.61603 0.350599 3.59349 0.934906 2.71703C1.51921 1.84057 2.33724 1.16862 3.38899 0.701177C4.44074 0.233731 5.65805 7.76949e-06 7.04091 7.76949e-06C9.00807 7.76949e-06 10.6149 0.496668 11.8614 1.48999C13.1274 2.46383 13.8286 3.80774 13.9649 5.5217H10.2838C10.2254 4.78158 9.87479 4.14858 9.23206 3.62271C8.58932 3.09683 7.74208 2.83389 6.69032 2.83389C5.73596 2.83389 4.95688 3.07736 4.3531 3.56428C3.74932 4.0512 3.44742 4.75237 3.44742 5.66778C3.44742 6.29104 3.63245 6.80718 4.00251 7.21619C4.39205 7.60573 4.87897 7.91736 5.46328 8.15108C6.04759 8.38481 6.84614 8.63801 7.85894 8.91068C9.20284 9.28074 10.2935 9.6508 11.1311 10.0209C11.988 10.3909 12.7087 10.9655 13.293 11.7446C13.8968 12.5042 14.1987 13.5267 14.1987 14.8122C14.1987 15.8445 13.9162 16.8183 13.3514 17.7337C12.8061 18.6491 11.9978 19.3892 10.9265 19.9541C9.87479 20.4994 8.62827 20.7721 7.18699 20.7721ZM22.2772 10.3714C22.2772 8.38481 22.7349 6.60267 23.6503 5.02504C24.5852 3.44742 25.8414 2.22037 27.4191 1.34391C29.0162 0.447976 30.7593 7.76949e-06 32.6486 7.76949e-06C34.8105 7.76949e-06 36.729 0.535622 38.404 1.60685C40.0985 2.6586 41.3255 4.15832 42.0851 6.10601H38.0826C37.5568 5.03478 36.8264 4.23623 35.8915 3.71035C34.9566 3.18448 33.8756 2.92154 32.6486 2.92154C31.3047 2.92154 30.1069 3.22343 29.0551 3.82722C28.0034 4.431 27.1756 5.29772 26.5718 6.42738C25.9875 7.55704 25.6953 8.87173 25.6953 10.3714C25.6953 11.8712 25.9875 13.1859 26.5718 14.3155C27.1756 15.4452 28.0034 16.3216 29.0551 16.9449C30.1069 17.5487 31.3047 17.8506 32.6486 17.8506C33.8756 17.8506 34.9566 17.5876 35.8915 17.0618C36.8264 16.5359 37.5568 15.7373 38.0826 14.6661H42.0851C41.3255 16.6138 40.0985 18.1135 38.404 19.1653C36.729 20.217 34.8105 20.7429 32.6486 20.7429C30.7399 20.7429 28.9967 20.3047 27.4191 19.4282C25.8414 18.5323 24.5852 17.2955 23.6503 15.7179C22.7349 14.1402 22.2772 12.3581 22.2772 10.3714ZM67.4568 0.262946V20.5676H64.1263V11.6861H54.5729V20.5676H51.2423V0.262946H54.5729V8.96911H64.1263V0.262946H67.4568ZM80.4307 2.95076V8.91068H87.4424V11.6277H80.4307V17.8506H88.3188V20.5676H77.1002V0.233731H88.3188V2.95076H80.4307ZM104.312 0.262946C106.474 0.262946 108.363 0.681699 109.98 1.51921C111.616 2.33723 112.872 3.52532 113.748 5.08347C114.644 6.62215 115.092 8.42376 115.092 10.4883C115.092 12.5529 114.644 14.3447 113.748 15.8639C112.872 17.3831 111.616 18.5517 109.98 19.3698C108.363 20.1683 106.474 20.5676 104.312 20.5676H97.6799V0.262946H104.312ZM104.312 17.8506C106.688 17.8506 108.509 17.2078 109.775 15.9224C111.041 14.6369 111.674 12.8255 111.674 10.4883C111.674 8.13161 111.041 6.29104 109.775 4.96661C108.509 3.64218 106.688 2.97997 104.312 2.97997H101.01V17.8506H104.312ZM126.953 0.262946V13.2053C126.953 14.744 127.352 15.9029 128.151 16.682C128.969 17.461 130.099 17.8506 131.54 17.8506C133.001 17.8506 134.13 17.461 134.929 16.682C135.747 15.9029 136.156 14.744 136.156 13.2053V0.262946H139.487V13.1469C139.487 14.8024 139.126 16.2048 138.406 17.3539C137.685 18.503 136.721 19.36 135.513 19.9249C134.306 20.4897 132.972 20.7721 131.511 20.7721C130.05 20.7721 128.716 20.4897 127.508 19.9249C126.32 19.36 125.376 18.503 124.674 17.3539C123.973 16.2048 123.623 14.8024 123.623 13.1469V0.262946H126.953ZM152.412 17.8798H159.278V20.5676H149.082V0.262946H152.412V17.8798ZM170.652 2.95076V8.91068H177.664V11.6277H170.652V17.8506H178.541V20.5676H167.322V0.233731H178.541V2.95076H170.652ZM213.867 0.262946V2.97997H208.462V20.5676H205.132V2.97997H199.698V0.262946H213.867ZM231.76 20.7721C229.871 20.7721 228.128 20.3339 226.531 19.4574C224.953 18.5615 223.697 17.3247 222.762 15.7471C221.846 14.15 221.389 12.3581 221.389 10.3714C221.389 8.38481 221.846 6.60267 222.762 5.02504C223.697 3.44742 224.953 2.22037 226.531 1.34391C228.128 0.447976 229.871 7.76949e-06 231.76 7.76949e-06C233.669 7.76949e-06 235.412 0.447976 236.99 1.34391C238.587 2.22037 239.843 3.44742 240.758 5.02504C241.674 6.60267 242.132 8.38481 242.132 10.3714C242.132 12.3581 241.674 14.15 240.758 15.7471C239.843 17.3247 238.587 18.5615 236.99 19.4574C235.412 20.3339 233.669 20.7721 231.76 20.7721ZM231.76 17.8798C233.104 17.8798 234.302 17.5779 235.354 16.9741C236.405 16.3509 237.223 15.4744 237.808 14.3447C238.412 13.1956 238.713 11.8712 238.713 10.3714C238.713 8.87173 238.412 7.55704 237.808 6.42738C237.223 5.29772 236.405 4.431 235.354 3.82722C234.302 3.22343 233.104 2.92154 231.76 2.92154C230.416 2.92154 229.218 3.22343 228.167 3.82722C227.115 4.431 226.287 5.29772 225.683 6.42738C225.099 7.55704 224.807 8.87173 224.807 10.3714C224.807 11.8712 225.099 13.1956 225.683 14.3447C226.287 15.4744 227.115 16.3509 228.167 16.9741C229.218 17.5779 230.416 17.8798 231.76 17.8798ZM253.969 0.262946V13.2053C253.969 14.744 254.368 15.9029 255.167 16.682C255.985 17.461 257.115 17.8506 258.556 17.8506C260.017 17.8506 261.146 17.461 261.945 16.682C262.763 15.9029 263.172 14.744 263.172 13.2053V0.262946H266.502V13.1469C266.502 14.8024 266.142 16.2048 265.421 17.3539C264.701 18.503 263.737 19.36 262.529 19.9249C261.322 20.4897 259.987 20.7721 258.527 20.7721C257.066 20.7721 255.732 20.4897 254.524 19.9249C253.336 19.36 252.391 18.503 251.69 17.3539C250.989 16.2048 250.638 14.8024 250.638 13.1469V0.262946H253.969ZM286.644 20.5676L281.97 12.4457H279.428V20.5676H276.098V0.262946H283.109C284.667 0.262946 285.982 0.535622 287.053 1.08097C288.144 1.62633 288.952 2.35671 289.478 3.27213C290.024 4.18754 290.296 5.21007 290.296 6.33973C290.296 7.66416 289.907 8.87173 289.128 9.96243C288.368 11.0337 287.19 11.764 285.593 12.1536L290.618 20.5676H286.644ZM279.428 9.78714H283.109C284.356 9.78714 285.291 9.47551 285.914 8.85225C286.557 8.22899 286.878 7.39149 286.878 6.33973C286.878 5.28798 286.566 4.46995 285.943 3.88565C285.32 3.28186 284.375 2.97997 283.109 2.97997H279.428V9.78714Z" fill="white"/>
</svg>
