<?xml version="1.0" encoding="UTF-8"?>
<svg id="Capa_1" data-name="Capa 1" xmlns="http://www.w3.org/2000/svg" viewBox="0 0 936.26 935.42">
  <defs>
    <style>
      .cls-1 {
        fill: #fff;
      }
    </style>
  </defs>
  <path class="cls-1" d="M936.26,468.55v-.84h0c0-124.78-48.57-242.44-136.92-330.79C710.99,48.57,593.33,0,468.55,0,210.62,0,.84,209.78.42,467.29c0,.42-.42.84-.42,1.67,0,4.19.42,8.37.84,12.14,3.35,120.17,51.5,232.39,136.92,317.39,88.35,88.35,206.01,136.92,330.79,136.92s242.44-48.57,330.79-136.92c85.84-85.84,133.99-198.89,136.92-319.9,0-3.35,0-6.7,0-10.05ZM928.31,476.51c-.84,12.98-3.77,25.54-8.79,37.68-1.67-30.15-6.7-60.3-15.07-90.03,8.37-15.49,13.4-31.82,15.07-48.15,5.86,29.73,9.21,60.71,9.21,91.7,0,2.93-.42,5.86-.42,8.79ZM865.5,699.68c-6.28,8.37-13.82,16.75-21.77,24.7,5.44-12.14,10.47-24.7,14.24-37.68,11.72-10.05,22.19-20.94,30.57-32.24-6.7,15.91-14.24,30.57-23.03,45.22ZM470.64,927.89v-8.79c25.54,0,51.08-1.67,75.37-4.61-2.51,3.35-5.44,5.86-8.37,8.37-21.77,2.93-43.97,5.02-67,5.02ZM398.62,922.44c-2.93-2.51-5.86-5.02-8.37-7.96,24.29,2.93,49.83,4.61,75.37,4.61v8.79c-22.61,0-44.8-2.09-67-5.44ZM189.26,816.93c23.03,10.89,48.57,20.52,75.79,28.05,8.79,17.17,19.26,32.24,31.82,44.8-18-5.44-35.17-12.14-51.08-19.68-6.28-3.35-12.14-7.12-18.42-10.89-14.66-11.31-27.22-25.54-38.1-42.29ZM48.15,655.72c8.37,11.31,18.84,21.77,30.57,31.82,4.19,12.56,8.79,25.12,14.24,37.27-8.37-7.96-15.91-16.33-22.19-25.12-8.37-14.24-15.91-29.31-22.61-43.97ZM65.32,244.95c-1.67,7.54-2.51,14.66-2.51,22.19-7.12,10.47-13.82,21.35-20.1,33.08.42-5.02,1.67-10.47,2.93-15.49,5.86-13.82,12.56-26.8,19.68-39.78ZM97.14,195.12c.42,0,.84-.42.84-.84,13.4-17.59,29.31-32.66,46.48-46.48-5.02,11.31-7.54,23.45-7.54,35.17-24.7,21.77-48.15,46.9-68.67,76.21.84-12.14,4.19-23.87,9.63-35.59,5.86-9.63,12.56-19.26,19.26-28.47ZM178.38,109.71c6.28-5.02,12.56-9.63,18.84-14.24,18-11.31,38.1-20.52,59.04-28.05-6.28,6.7-11.72,13.4-15.49,20.94-27.64,10.47-54.43,24.29-79.56,41.03,5.02-6.7,10.89-12.98,17.17-19.68ZM757.89,109.71c6.7,6.28,12.56,12.98,17.59,19.68-25.12-17.17-52.34-30.57-79.56-41.03-3.77-7.12-8.79-13.82-15.07-20.52,20.94,7.12,41.03,16.75,59.46,28.05,5.44,4.61,11.72,9.21,17.59,13.82ZM838.28,194.29c.42.42.84.42,1.26.84,6.7,9.21,13.4,18.84,19.68,28.89,5.44,11.72,8.37,23.45,9.63,35.59-20.52-29.31-43.97-54.43-68.67-76.21,0-11.72-2.51-23.87-7.54-35.17,16.33,13.4,32.24,28.89,45.64,46.06ZM891.04,284.73c1.26,5.02,2.09,10.47,2.93,15.91-6.28-11.72-12.98-22.61-20.1-33.08h0c0-7.54-.84-15.07-2.51-22.19,7.12,12.56,13.4,25.96,19.68,39.36ZM914.91,364.71c0,18-4.19,35.59-12.56,51.92-5.02-16.33-10.89-32.66-18-48.57,7.96-15.07,12.98-30.15,14.24-46.06,5.86,12.14,11.31,25.12,15.91,38.52.42,1.26.42,2.51.42,4.19ZM857.54,484.88c7.54,32.66,11.31,64.48,11.72,95.47-19.26,16.75-43.13,32.24-70.35,46.06-.42-33.08-4.19-67.41-10.89-102.17,25.96-12.98,48.99-27.64,68.67-43.97,0,1.67.42,3.35.84,4.61ZM629.76,892.71c-22.61,6.28-46.9,11.72-72.44,15.07,7.12-11.31,12.98-25.96,17.59-42.71,31.4-4.19,61.97-10.47,90.03-18-9.63,18.01-21.35,33.08-35.17,45.64ZM306.92,893.13c-13.82-12.56-25.54-27.64-35.59-45.64,28.47,7.96,58.62,13.82,90.03,18,4.61,16.75,10.47,30.99,17.59,42.71-24.7-3.77-48.99-8.79-72.02-15.07ZM80.39,479.44c19.26,16.33,42.29,31.4,68.25,44.38-6.7,35.17-10.47,69.93-10.89,103.01-26.8-13.82-50.67-29.31-70.35-46.48,0-30.99,3.77-62.81,11.72-95.47.42-1.67.84-3.35,1.26-5.44ZM63.23,275.94c1.26,14.66,5.44,29.31,12.98,43.55-7.96,13.82-15.07,28.05-21.77,42.29-7.96-15.91-12.14-32.66-12.14-49.41,6.7-12.56,13.4-24.7,20.94-36.43ZM137.34,189.68c.84,12.14,4.19,23.87,10.05,35.17-24.29,25.12-45.64,52.76-64.06,82.49-1.26,2.09-2.51,4.19-3.77,6.7-7.54-14.66-11.31-30.15-11.31-45.64,20.52-30.15,43.97-56.11,69.09-78.72ZM232.81,123.52c.42,8.79,2.93,17.17,7.12,25.12-32.66,21.35-62.39,45.64-88.77,72.44-5.44-11.72-8.79-23.45-8.79-36.01,29.31-25.12,60.3-45.64,90.44-61.55ZM267.14,64.06c29.73-8.79,60.3-13.4,88.35-12.14-2.51,2.93-5.02,6.28-6.7,9.63-30.99,3.35-65.74,11.31-100.49,23.87,3.35-5.44,7.54-10.89,12.98-15.91,2.09-1.67,3.77-3.35,5.86-5.44ZM336.23,26.38c5.86-1.67,11.31-3.35,17.17-4.61h0c16.75-1.67,30.57,0,44.38,4.61-6.7,2.09-12.56,5.02-18.42,7.96-25.12-2.93-41.87-3.77-58.2-2.09,5.44-2.09,10.05-4.19,15.07-5.86ZM600.45,26.38c5.02,1.67,10.05,3.35,14.66,5.44-16.33-1.67-33.08-.84-58.62,2.09-5.44-2.93-11.72-5.44-18.42-7.96,13.82-4.61,27.64-6.28,44.8-4.61h0c5.86,1.67,11.72,3.35,17.59,5.02ZM675.4,69.51c5.02,5.02,9.63,10.47,12.98,15.91-34.75-12.56-69.51-20.52-100.49-23.87-1.67-3.35-4.19-6.28-6.7-9.63,28.05-1.26,58.62,2.93,88.35,12.14,1.67,2.09,3.77,3.77,5.86,5.44ZM794.31,185.49c-.42,12.14-3.35,24.29-8.79,35.59-26.38-27.22-56.11-51.5-88.77-72.44,4.19-8.37,6.28-16.75,7.12-25.12,29.73,15.91,61.13,36.43,90.44,61.97ZM868.43,268.82c-.42,15.49-4.19,30.99-11.31,45.64-1.26-2.09-2.51-4.19-3.77-6.7-18.42-29.73-39.78-57.36-64.06-82.49,5.86-11.31,9.21-23.45,10.05-35.17,25.12,22.19,48.57,48.15,69.09,78.72ZM363.45,54.85c19.68-19.68,60.71-32.24,104.68-32.24s85.42,12.56,104.68,32.24c7.54,7.54,11.31,15.49,11.31,23.87,0,30.99-52.34,56.11-116.4,56.11-44.38,0-85.42-12.56-104.68-32.24-7.54-7.54-11.31-15.49-11.31-23.87.42-7.96,4.19-15.91,11.72-23.87ZM415.37,10.47c5.02,1.26,10.05,3.77,15.07,7.96-8.37,1.26-16.33,3.35-23.87,5.44-9.63-3.77-19.26-6.28-29.73-7.12,12.56-2.93,25.12-5.02,38.52-6.28ZM378.11,123.1c-26.8,22.61-51.92,47.73-74.95,75.37-12.14-6.28-23.03-12.98-32.24-20.52,29.73-25.96,60.71-47.73,92.12-64.9,4.61,3.35,9.63,6.7,15.07,10.05ZM573.23,113.06c31.4,17.17,62.39,38.94,92.12,64.9-9.21,7.54-20.1,14.24-32.24,20.52-23.03-27.64-48.57-52.76-74.95-75.37,5.86-2.93,10.89-6.28,15.07-10.05ZM465.62,344.61c-27.64,0-54.43-1.67-80.39-5.02,7.12-38.52,15.49-74.53,23.45-105.52,18,2.51,37.27,3.77,56.53,3.77v106.77h.42ZM465.62,350.05v115.15c-33.92,0-67.41-2.09-99.24-6.28,5.02-39.36,11.31-77.88,18-113.89,26.38,2.93,53.6,4.61,81.23,5.02ZM465.62,470.22v51.92c-36.43,0-71.6-2.51-105.94-6.7,1.67-17.17,3.77-34.34,5.86-51.5,32.66,3.77,65.74,6.28,100.07,6.28ZM465.62,527.17v58.2c-38.1,0-75.37-2.51-111.38-7.54,1.26-18.84,3.35-38.1,5.02-57.36,34.34,4.19,69.93,6.7,106.36,6.7ZM470.64,527.17c36.43,0,72.02-2.51,106.36-6.7,2.09,19.26,3.77,38.52,5.02,57.78-35.59,4.61-72.86,7.12-111.38,7.12v-58.2h0ZM470.64,522.15v-51.92c34.34,0,67.83-2.09,99.66-6.28,2.09,17.17,4.19,34.34,5.86,51.5-33.5,4.19-68.67,6.28-105.52,6.7ZM470.64,465.2v-115.15c27.64,0,54.85-2.09,81.23-5.44,6.7,36.01,12.98,74.53,18,113.89-31.82,4.19-64.9,6.28-99.24,6.7ZM470.64,344.61v-106.77c19.26,0,38.52-1.26,56.53-3.77,8.37,30.99,16.33,67,23.45,105.52-25.12,3.35-52.34,5.02-79.98,5.02ZM532.2,233.65c18-2.51,35.59-6.28,51.5-10.89,15.07,29.73,30.15,64.48,43.97,101.33-22.61,6.28-46.9,11.31-72.44,14.66-7.12-38.52-15.07-74.11-23.03-105.1ZM589.14,221.5c15.49-4.61,30.15-10.05,43.13-16.75,23.87,28.89,45.64,60.3,65.32,93.37-19.26,9.21-40.62,17.59-64.06,24.29-14.24-36.43-29.31-70.76-44.38-100.91ZM636.88,202.24c12.14-6.28,23.45-13.4,32.66-20.94,28.05,24.7,54.43,52.76,78.3,82.91.42.42.84.84,1.26,1.67-13.4,10.89-28.89,20.94-46.9,30.15-19.68-33.5-41.45-64.9-65.32-93.79ZM553.55,125.62c26.8,22.19,51.92,47.73,75.37,75.37-12.56,5.86-26.8,11.31-41.87,15.91-17.59-34.34-36.01-62.81-53.18-83.33,6.7-2.51,13.4-5.02,19.68-7.96ZM528.01,134.83c17.17,19.68,35.17,48.15,53.18,83.33-15.91,4.19-32.66,7.96-50.67,10.47-10.05-37.68-20.94-68.25-30.99-87.93,10.05-1.26,19.68-3.35,28.47-5.86ZM494.09,141.53c10.47,19.68,21.35,50.25,31.82,87.93-17.59,2.09-36.01,3.35-55.27,3.77v-90.03c7.96-.42,15.91-1.26,23.45-1.67ZM465.62,232.81c-18.84,0-37.27-1.26-55.27-3.77,10.47-37.68,21.35-68.25,31.82-87.93,7.54.84,15.49,1.26,23.45,1.26v90.44h0ZM405.74,228.62c-17.59-2.51-34.75-5.86-50.67-10.47,18.01-35.17,36.43-63.65,53.18-83.33,8.79,2.51,18.42,4.61,28.47,5.86-10.05,19.68-20.94,50.25-30.99,87.93ZM349.63,216.9c-15.07-4.61-29.31-9.63-41.87-15.91,23.45-27.64,48.57-52.76,75.37-75.37,6.28,2.93,12.98,5.44,20.1,7.96-17.59,20.1-35.59,48.99-53.6,83.33ZM299.8,202.24c-23.87,28.89-45.64,60.3-65.32,93.79-17.59-8.79-33.5-19.26-46.9-30.15.42-.42.84-.84,1.26-1.67,23.87-30.57,50.25-58.2,78.3-82.91,9.21,7.54,20.1,14.66,32.66,20.94ZM304.41,204.75c12.98,6.28,27.64,11.72,43.13,16.75-15.49,30.15-30.57,64.48-44.38,101.33-23.45-6.7-44.8-15.07-64.06-24.29,19.26-33.5,41.45-64.9,65.32-93.79ZM352.98,222.76c16.33,4.61,33.5,7.96,51.5,10.89-8.37,30.99-15.91,67-23.45,105.52-25.54-3.35-49.83-8.37-72.44-14.66,13.82-37.27,28.89-71.6,44.38-101.75ZM380.2,344.19c-6.7,36.01-12.56,74.53-18,113.89-31.82-4.19-62.39-10.47-90.86-18.42,10.05-38.1,22.19-75.79,35.17-110.54,23.45,6.28,48.15,11.31,73.7,15.07ZM361.78,463.11c-2.09,17.17-4.19,34.34-5.86,51.5-34.34-4.61-67-11.31-97.14-19.68,3.77-16.75,7.54-33.5,12.14-50.25,28.05,7.96,58.62,14.24,90.86,18.42ZM355.08,519.63c-.84,8.37-1.67,16.75-2.51,25.12-.84,9.63-1.67,20.52-2.51,32.24-36.01-5.02-70.35-12.14-103.01-21.35,2.93-18.84,6.28-37.27,10.47-56.11,30.57,8.79,63.23,15.49,97.56,20.1ZM349.63,582.44c-2.09,30.57-4.19,67.41-4.61,105.52-38.1-5.02-74.53-12.56-108.03-22.19.84-33.5,3.77-68.67,9.21-104.26,32.24,8.79,67,15.91,103.42,20.94ZM353.82,582.86c36.01,4.61,73.28,7.12,111.8,7.54v105.52c-39.78,0-79.14-2.51-116.4-7.54.42-33.92,2.09-69.51,4.61-105.52ZM470.64,590.4c38.52,0,75.79-2.51,111.8-7.12,2.51,36.01,4.19,71.6,4.61,105.1-37.27,5.02-76.21,7.54-116.4,7.54v-105.52ZM586.63,582.44c36.43-5.02,71.18-11.72,103.42-20.94,5.44,35.17,8.37,69.93,9.21,103.42-33.5,9.63-69.93,17.17-108.03,22.61-.42-37.69-2.09-74.53-4.61-105.1ZM586.21,577.42c-.84-11.72-1.67-23.03-2.51-32.66-.84-8.37-1.67-16.75-2.51-25.12,34.34-4.61,67.41-11.31,97.98-19.68,4.19,18.84,7.54,37.68,10.47,56.53-32.24,8.79-67,15.91-103.42,20.94ZM580.77,514.61c-1.67-17.17-3.77-34.34-5.86-51.5,32.24-4.19,62.81-10.47,91.28-18.42,4.19,16.33,8.37,33.08,11.72,49.83-30.15,8.37-62.81,15.49-97.14,20.1ZM574.07,458.08c-5.02-39.36-11.31-77.88-18-113.89,25.54-3.35,50.25-8.37,73.28-15.07,12.98,34.75,24.7,72.02,35.17,110.54-28.05,7.96-58.62,14.24-90.44,18.42ZM654.88,385.64c-6.28-19.68-12.98-39.36-19.68-58.2,23.45-6.7,45.22-15.07,64.9-24.7,12.14,21.77,23.87,43.97,33.92,67,5.44,12.56,10.89,25.12,15.49,37.68-23.87,11.72-50.67,21.77-79.56,30.15-4.61-16.75-9.63-34.33-15.07-51.92ZM738.62,368.06c-10.47-23.45-21.77-45.64-33.92-67.41,18-9.21,33.92-19.26,47.32-30.57,23.87,30.99,44.8,63.65,61.55,97.14-16.75,13.82-36.85,26.8-59.46,38.52-5.02-12.56-10.05-25.12-15.49-37.69ZM755.79,266.73c2.93-2.51,6.28-5.44,8.79-8.37,9.21-9.21,16.75-18.84,22.19-28.47,23.45,24.7,44.38,51.5,61.97,80.39,1.67,2.93,3.77,6.28,5.44,9.21-8.79,15.49-20.94,30.57-36.85,44.38-17.17-33.5-37.68-66.16-61.55-97.14ZM752.86,262.54l-1.26-1.26c-23.87-30.57-50.25-58.62-78.3-83.33,2.09-1.67,3.77-3.35,5.44-5.02,6.28-6.28,11.31-12.98,15.49-19.68,32.66,21.35,62.39,45.64,88.77,72.86-7.12,12.98-17.17,25.12-30.15,36.43ZM669.54,174.61c-29.73-25.96-60.71-48.15-92.12-65.32.42-.42.84-.84,1.26-.84,3.35-3.35,5.86-6.7,7.96-10.05,36.85,14.24,71.6,31.82,103.42,51.92-5.02,8.79-11.72,16.75-20.52,24.29ZM358.01,108.45c.42.42.84.42,1.26.84-31.4,17.17-62.39,39.36-92.12,64.9-2.09-1.67-3.77-3.35-5.86-5.44-6.28-6.28-10.89-12.56-14.66-18.84,31.82-20.52,66.58-37.68,103.42-51.92,2.09,3.77,4.61,7.12,7.96,10.47ZM257.51,172.93c1.67,1.67,3.77,3.35,5.44,5.02-28.05,24.7-54.43,52.76-78.3,83.33-.42.42-.84.84-.84,1.26-2.93-2.51-5.86-5.02-8.37-7.96-9.21-9.21-16.75-18.84-22.19-28.89,26.38-27.22,56.11-51.5,88.77-72.86,4.19,7.12,9.21,13.82,15.49,20.1ZM172.09,258.35c2.93,2.93,5.86,5.44,8.79,8.37-23.87,30.99-44.8,63.65-61.55,97.14-3.35-2.93-6.7-5.86-9.63-9.21-11.31-11.31-20.52-23.03-27.22-35.17,1.67-2.93,3.35-6.28,5.44-9.21,18-28.89,38.94-55.69,62.39-80.39,5.02,9.63,12.56,19.26,21.77,28.47ZM184.66,270.08c13.4,11.31,29.31,21.35,47.32,30.57-12.56,21.77-23.87,43.97-33.92,67.41-5.44,12.56-10.89,25.12-15.49,37.68-22.61-11.31-42.71-24.29-59.46-38.52,16.75-33.5,37.69-66.16,61.55-97.14ZM202.66,370.15c10.47-23.03,21.77-45.64,33.92-67.41,19.68,9.63,41.45,18,64.9,24.7-7.12,18.84-13.4,38.1-19.68,58.2-5.44,17.59-10.47,35.17-15.07,52.76-28.89-8.37-55.69-18.42-79.56-30.15,4.61-12.98,10.05-25.54,15.49-38.1ZM265.05,443.01c-4.61,16.75-8.37,33.5-12.14,50.25-30.57-8.79-58.62-19.68-84.16-31.82,4.61-16.33,10.05-32.24,15.91-48.57,24.7,11.72,51.5,21.77,80.39,30.15ZM252.07,498.28c-4.19,18.84-7.54,37.68-10.05,56.11-3.77-1.26-7.96-2.09-11.72-3.35-27.64-8.79-52.76-18.84-75.79-30.15,3.77-18,7.96-36.43,12.98-54.43,25.96,12.14,54.02,23.03,84.58,31.82ZM241.18,559.83c-5.44,36.43-8.37,71.18-9.21,104.26-32.24-9.63-62.39-20.94-89.19-34.34.42-33.5,3.77-67.83,10.47-103.42,26.8,12.98,56.11,24.29,87.93,33.5ZM231.97,671.63c0,18.42.42,36.43,2.09,53.6,1.26,12.98,2.93,25.54,5.02,37.68-30.99-9.21-59.88-20.52-85.42-33.08-5.86-25.96-9.63-53.6-10.05-83.74v-7.96c26.38,12.98,56.11,24.29,88.35,33.5ZM238.67,724.81c-1.26-16.75-2.09-33.92-2.09-51.5,33.92,9.63,70.35,17.17,108.03,22.19,0,30.57.84,61.55,3.35,90.86-36.85-5.02-72.02-12.56-104.26-21.77-1.67-12.56-3.77-25.96-5.02-39.78ZM349.21,695.92c37.27,5.02,76.63,7.54,116.4,7.54v90.86c-38.94,0-76.63-2.51-112.64-7.54-2.51-27.64-3.77-58.2-3.77-90.86ZM465.62,799.34v38.1c-36.85,0-72.86-2.51-107.19-7.12-2.09-12.14-3.77-24.7-5.02-38.1,36.01,4.61,73.7,7.12,112.22,7.12ZM465.62,842.47v24.7c-34.34,0-68.25-2.51-100.49-6.7-2.09-7.96-4.19-16.33-5.86-25.12,34.75,4.61,70.35,7.12,106.36,7.12ZM470.64,842.47c36.43,0,71.6-2.51,105.94-7.12-1.67,8.79-3.35,17.17-5.86,25.12-32.24,4.19-65.74,6.28-100.49,6.7v-24.7h.42ZM470.64,837.44v-37.68c38.1,0,75.79-2.51,112.22-7.54-1.26,13.4-2.93,26.38-5.02,38.1-34.34,4.61-70.35,6.7-107.19,7.12ZM470.64,794.31v-90.86c39.78,0,78.72-2.51,116.4-7.54,0,32.24-1.26,62.81-3.77,90.86-36.01,4.61-73.69,7.54-112.64,7.54ZM591.23,695.5c38.1-5.02,74.53-12.56,108.03-22.19,0,17.59-.42,34.75-2.09,51.5-1.26,13.82-2.93,26.8-5.02,38.94-32.66,9.63-67.83,17.17-104.68,22.19,2.93-29.31,4.19-60.3,3.77-90.44ZM702.61,725.23c1.67-17.17,2.09-34.75,2.09-53.6,32.24-9.21,61.97-20.52,88.77-33.92v7.96c-.84,29.73-4.19,57.36-10.05,82.91-25.54,12.56-54.43,23.87-85.42,33.5,2.09-11.72,3.77-23.87,4.61-36.85ZM704.29,663.67c-.84-32.66-3.77-67.41-9.21-103.42,31.82-9.21,61.13-20.1,87.51-33.08,6.7,34.75,10.05,69.51,10.47,102.59-26.38,12.56-56.11,24.29-88.77,33.92ZM694.66,554.81c-2.93-18.42-6.28-37.27-10.47-56.53,30.57-8.79,59.04-19.68,84.58-31.82,5.02,18.42,9.63,36.85,13.4,55.27-26.38,12.56-55.69,23.87-87.51,33.08ZM683.35,493.25c-3.35-16.33-7.54-33.08-11.72-49.83,28.89-8.37,55.69-18.42,79.98-30.15,5.86,15.91,11.31,32.24,15.91,48.15-25.54,12.14-53.6,22.61-84.16,31.82ZM755.79,410.77c22.61-11.31,43.13-24.29,60.3-38.94,7.54,15.07,14.24,30.15,20.1,45.64-18,15.07-39.36,28.89-64.06,41.45-5.02-16.33-10.47-32.24-16.33-48.15ZM819.86,368.48c3.77-3.35,7.54-6.7,10.89-10.47,10.89-10.89,19.68-22.19,26.38-33.5,7.96,14.24,15.07,28.47,21.35,42.71-9.21,16.33-22.19,31.82-38.52,46.48-5.86-15.07-12.56-30.15-20.1-45.22ZM860.05,319.48c7.54-14.24,11.72-28.47,12.98-43.55,7.54,11.72,14.66,23.45,20.94,36.43,0,17.17-4.61,33.5-12.56,49.41-5.86-14.24-13.4-28.47-21.35-42.29ZM692.57,146.13c-31.82-20.52-66.58-37.68-103.42-51.92,1.67-3.77,2.93-7.54,3.35-11.31,28.89,5.86,66.58,18,106.77,38.52-.84,7.96-2.93,16.33-6.7,24.7ZM592.07,77.04c0-3.35-.84-6.7-2.09-10.05,31.82,3.77,67,12.14,102.17,25.54,3.77,7.54,5.86,15.07,6.28,22.61-39.78-20.1-77.46-32.24-106.36-38.1ZM576.16,47.32c-3.77-3.35-7.54-6.28-12.14-9.21,30.15-3.35,47.73-2.93,69.51,2.09,9.63,4.61,18,10.05,25.96,15.49-28.47-7.12-56.95-10.05-83.33-8.37ZM530.1,23.87c-18.42-5.44-39.78-8.37-61.97-8.37-10.89,0-21.77.84-31.82,2.09-3.35-3.35-7.12-6.28-10.47-7.96,13.82-1.26,28.05-2.09,42.29-2.09,30.99,0,61.97,2.93,91.7,9.21-10.05.42-19.68,2.93-29.73,7.12ZM372.24,38.1c-4.61,2.93-8.37,5.86-12.14,9.21-26.38-1.67-54.85,1.26-82.91,8.79,7.54-5.44,16.33-10.89,25.96-15.49,21.77-5.44,39.36-5.44,69.09-2.51ZM346.28,67c-1.26,3.35-1.67,6.7-2.09,10.05-28.89,5.44-66.16,17.59-106.36,38.1.42-7.54,2.51-15.07,6.28-22.61,35.59-13.4,70.76-21.35,102.17-25.54ZM344.61,82.49c.42,3.77,1.26,7.96,2.93,11.72-36.85,14.24-71.6,31.82-103.42,51.92-4.19-7.96-6.28-16.33-6.28-25.12,40.2-20.52,77.88-33.08,106.77-38.52ZM79.14,324.51c6.7,11.31,15.49,22.61,26.38,33.5,3.35,3.35,7.12,6.7,10.89,10.05-7.54,15.07-14.24,30.15-20.52,45.22-3.35-2.93-6.7-6.28-10.05-9.63-11.72-12.14-21.35-24.29-28.47-36.85,6.7-13.82,13.82-28.05,21.77-42.29ZM120.59,371.83c17.17,14.24,37.27,27.22,59.88,38.94-5.86,15.91-11.31,32.24-15.91,48.57-24.29-12.14-46.06-26.38-64.06-41.87,5.86-15.49,12.56-30.57,20.1-45.64ZM163.3,463.94c-5.02,18-9.63,36.43-13.4,54.43-26.38-13.4-49.41-28.47-68.25-44.38,4.61-17.17,10.05-34.34,16.75-51.5,18.42,15.49,40.2,29.31,64.9,41.45ZM137.76,635.62v10.89c.84,28.89,3.77,55.69,9.21,80.81-24.7-12.56-46.06-26.8-64.06-42.29-9.21-30.15-14.66-61.55-15.49-94.21,20.1,16.33,43.97,31.4,70.35,44.8ZM148.65,733.18c3.35,13.4,7.54,26.38,12.14,38.52-22.19-11.72-41.45-24.29-58.2-38.52-6.28-12.98-12.14-26.38-16.75-39.78,18.01,14.66,38.94,28.05,62.81,39.78ZM154.51,736.11c25.54,12.56,54.02,23.03,85,32.24,2.51,13.82,5.86,26.8,9.63,38.94-29.73-8.79-57.36-19.68-82.07-31.82-4.61-12.14-8.79-25.54-12.56-39.36ZM244.95,770.03c32.24,9.21,67.41,16.33,103.84,21.35,1.26,13.4,2.93,25.96,5.02,38.1-34.75-4.61-67.83-11.72-98.82-20.52-3.77-12.14-7.12-25.12-10.05-38.94ZM354.66,834.93c1.67,8.79,3.35,17.17,5.44,25.12-32.24-4.61-63.23-10.89-91.7-18.84-4.19-8.37-7.96-17.17-11.31-26.38,30.99,8.79,63.65,15.49,97.56,20.1ZM366.8,865.92c31.82,4.19,64.9,6.28,98.82,6.28v41.87c-27.22,0-54.02-1.67-79.98-5.02-7.54-11.31-13.82-25.54-18.84-43.13ZM470.64,872.2c33.92,0,67-2.09,98.82-6.28-5.02,17.17-11.31,31.82-18.84,42.71-25.96,3.35-52.76,5.02-79.98,5.44v-41.87ZM576.16,860.05c2.09-7.96,3.77-16.33,5.44-25.12,33.92-4.61,66.58-11.31,97.56-20.1-3.35,9.21-7.12,18-10.89,26.38-28.89,7.96-59.88,14.24-92.12,18.84ZM582.44,829.49c2.09-12.14,3.77-25.12,5.02-38.52,36.43-5.02,71.18-12.14,103.84-21.35-2.93,13.82-6.28,27.22-10.05,39.36-30.99,8.79-64.06,15.91-98.82,20.52ZM696.75,768.35c18.84-5.44,36.85-11.72,53.6-18.42,10.89-4.61,21.35-9.21,31.4-13.82-3.35,13.82-7.96,27.22-12.98,39.78-24.7,12.14-51.92,23.03-82.07,31.82,4.19-12.56,7.54-25.54,10.05-39.36ZM788.03,732.76c23.87-12.14,44.8-25.54,62.81-39.78-4.61,13.82-10.47,27.22-16.75,40.2-16.33,14.24-36.01,26.8-58.2,38.52,4.61-12.14,8.79-25.12,12.14-38.94ZM789.29,726.06c5.44-24.7,8.37-51.5,9.21-79.56v-10.89c26.8-13.4,50.25-28.47,70.35-44.8-.84,32.24-5.86,63.65-15.07,93.37-18,15.07-39.78,29.31-64.48,41.87ZM786.78,519.22c-3.77-18.42-7.96-36.85-13.4-55.27,24.7-12.14,46.48-26.38,64.9-41.45,6.7,17.59,12.14,35.17,16.75,52.34-19.26,16.33-41.87,31.4-68.25,44.38ZM842.05,419.14c4.19-3.77,7.96-7.12,11.72-10.89,11.31-11.31,20.1-22.61,27.22-34.34,6.7,16.33,12.56,33.08,17.59,49.83-9.63,16.75-23.03,33.08-39.78,47.73-4.19-17.59-10.05-35.17-16.75-52.34ZM899.41,311.53v-5.86c2.51,6.7,5.02,13.4,7.12,20.52-2.51-5.44-4.61-10.05-7.12-14.66ZM794.31,178.79c-29.73-25.12-60.71-45.22-90.44-60.71,0-7.54-1.67-15.49-5.02-22.61,28.89,11.72,57.78,26.8,83.74,45.64,7.12,12.14,10.89,24.7,11.72,37.68ZM672.05,59.88c-5.44-4.61-11.31-9.21-18-13.4h.42c15.49,6.7,30.57,14.66,45.22,23.03-9.21-3.77-18.42-7.12-27.64-9.63ZM282.22,46.48c.42,0,.84-.42,1.26-.42-6.7,4.19-12.98,8.79-18.42,13.4-9.63,2.93-18.84,6.28-28.05,10.05,14.66-8.79,29.73-16.33,45.22-23.03ZM237.83,95.05c-2.93,7.54-4.61,15.07-5.02,22.61-29.73,15.49-61.13,35.59-90.44,60.71.84-12.98,5.02-25.54,11.72-37.68,25.96-18.84,54.43-33.92,83.74-45.64ZM37.27,311.11c-2.51,4.61-4.61,9.21-6.7,14.24,2.09-6.7,4.61-13.4,7.12-20.1-.42,2.09-.42,3.77-.42,5.86ZM23.45,355.49c4.19-11.72,9.21-23.03,14.24-33.92,1.67,15.91,6.28,30.99,14.24,46.06-6.7,15.49-12.56,30.99-17.17,46.9-7.96-16.33-11.72-33.08-11.72-50.25,0-2.51,0-5.86.42-8.79ZM55.27,373.5c7.12,11.72,16.33,23.45,27.22,34.75,3.77,3.77,7.54,7.54,11.72,10.89-6.7,17.17-12.14,34.34-16.75,51.08-2.93-2.51-5.86-5.44-8.37-7.96-12.98-12.98-23.45-26.8-30.99-40.62,4.61-16.33,10.47-32.24,17.17-48.15ZM65.32,465.62c3.35,3.35,7.12,6.7,10.89,10.05-.84,2.51-1.26,5.44-2.09,7.96-7.54,31.4-11.31,62.39-11.72,92.12-2.51-2.51-5.02-4.61-7.54-7.12-14.24-14.24-25.54-29.31-33.08-44.38,1.26-31.82,5.86-64.06,14.66-95.47,7.12,12.56,16.75,24.7,28.89,36.85ZM49.41,574.07c4.19,4.19,8.37,7.96,12.98,12.14.42,31.82,5.02,62.81,13.4,92.12-16.33-15.07-29.31-31.82-38.52-48.99-4.61-12.14-8.37-24.29-12.14-36.43-2.51-17.59-3.77-35.59-3.77-53.18,7.54,11.31,16.75,23.03,28.05,34.34ZM98.4,736.53c2.93,5.86,5.86,11.31,9.21,16.75-6.7-8.79-13.4-17.59-19.68-26.38,3.35,3.35,6.7,6.28,10.47,9.63ZM124.78,771.7c-5.86-8.79-11.72-17.59-16.75-26.8,15.91,12.14,34.34,23.87,54.85,34.34,3.77,9.21,7.96,17.59,12.56,25.96-18.84-10.47-35.59-21.77-50.67-33.5ZM170.42,782.17c13.4,6.28,27.64,12.56,42.71,18,12.56,4.61,25.12,8.79,38.1,12.56,3.35,9.21,6.7,18,10.47,25.96-28.05-8.37-54.43-18.42-77.88-30.15-4.61-7.96-9.21-16.75-13.4-26.38ZM304.83,897.74q.42.42.84.84c-1.67-.42-2.93-1.26-4.61-1.67,1.26,0,2.51.42,3.77.84ZM315.3,900.67c21.77,5.44,44.38,10.05,67.83,12.98,2.09,2.51,3.77,5.02,6.28,7.54-25.12-4.19-49.83-10.89-74.11-19.26.42-.42,0-.84,0-1.26ZM553.13,913.65c23.45-2.93,46.48-7.54,67.83-12.98v1.26c-23.87,8.37-48.57,15.07-74.11,19.26,2.51-2.51,4.61-5.02,6.28-7.54ZM632.27,897.32c1.26-.42,2.51-.84,3.77-.84-1.26.42-2.93,1.26-4.19,1.67-.42-.42,0-.42.42-.84ZM710.57,858.8c-6.7,4.19-13.4,7.96-20.52,12.14-15.49,7.12-32.24,13.4-49.83,18.84,12.14-12.56,22.61-27.22,31.4-44.38,27.22-7.96,52.76-17.17,75.79-28.05-10.47,15.91-23.03,29.73-36.85,41.45ZM674.56,839.12c3.77-8.37,7.54-16.75,10.47-25.96,12.98-3.77,25.96-7.96,38.52-12.56,15.07-5.86,29.31-11.72,42.71-18-4.19,9.63-8.79,18.42-13.82,26.8-23.45,11.31-49.41,21.35-77.88,29.73ZM773.38,778.82c20.52-10.47,38.94-21.77,54.85-34.34-5.02,9.21-10.47,18-16.33,26.8-14.66,12.14-31.82,23.03-50.67,33.08,4.19-7.96,8.37-16.75,12.14-25.54ZM829.07,752.86c2.93-5.44,6.28-10.89,8.79-16.75,3.35-2.93,6.7-6.28,10.05-9.21-5.86,8.79-12.14,17.59-18.84,25.96ZM899.41,628.92c-8.79,17.17-21.77,33.5-38.52,48.57,8.37-29.31,12.56-59.88,12.98-91.28,4.61-3.77,8.79-7.96,12.98-11.72,11.31-11.31,20.52-23.03,28.05-34.75,0,18-1.26,36.01-3.77,53.6-3.35,11.72-7.12,23.87-11.72,35.59ZM873.87,576.16c-.42-30.15-4.19-60.71-11.72-92.12-.42-2.51-1.26-4.61-1.67-7.12,4.19-3.77,8.37-7.12,12.14-11.31,11.31-11.31,20.94-23.45,28.05-35.59,8.37,30.99,12.98,62.39,14.24,93.79-9.21,18.42-23.03,36.01-41.03,52.34ZM797.25,146.13c-3.77-2.93-7.12-5.86-10.89-8.79-.84-1.67-2.09-3.35-2.93-5.02,3.35,3.35,7.12,6.28,10.47,9.63,1.26,1.26,2.09,2.93,3.35,4.19ZM153.25,132.32c-1.26,1.67-2.09,3.35-2.93,5.02-3.77,2.51-7.12,5.44-10.89,8.37,1.26-1.26,2.09-2.51,3.35-3.77,3.35-3.35,7.12-6.28,10.47-9.63ZM18,371.41c.84,17.59,5.86,34.34,14.66,51.08-8.79,30.15-13.82,61.13-15.49,92.12-4.61-10.89-7.54-22.19-8.79-33.92,0-4.19-.42-8.37-.42-12.98,0-33.08,3.35-64.9,10.05-96.31ZM16.33,530.52c0,9.21,0,18.42.42,27.64-2.51-12.56-4.19-25.54-5.86-38.1,1.67,3.35,3.35,7.12,5.44,10.47ZM137.34,787.62c12.98,9.21,27.64,17.59,43.13,25.54,6.7,11.31,14.66,21.77,22.61,30.99-21.35-15.07-41.45-31.82-60.3-50.67-1.67-2.09-3.35-4.19-5.44-5.86ZM733.6,843.72c8.37-9.21,15.91-19.68,22.61-30.57,15.49-7.96,29.73-16.33,43.13-25.54-20.52,20.52-42.29,39.36-65.74,56.11ZM919.51,557.74c.42-9.21.84-18,.42-27.22,2.09-3.77,3.77-7.54,5.44-11.31-1.26,12.98-3.35,25.96-5.86,38.52Z"/>
</svg>