<svg xmlns="http://www.w3.org/2000/svg" width="68.78" height="68.78" viewBox="0 0 68.78 68.78">
  <g id="Group_1191" data-name="Group 1191" transform="translate(-238 -50)">
    <g id="lptrealty_logo_vertical-01" transform="translate(238 50)">
      <path id="Path_30" data-name="Path 30" d="M38.3,72.69A34.39,34.39,0,1,1,72.69,38.3,34.429,34.429,0,0,1,38.3,72.69Zm0-65.89A31.5,31.5,0,1,0,69.8,38.3,31.537,31.537,0,0,0,38.3,6.8Z" transform="translate(-3.91 -3.91)" fill="#5291fb"/>
      <path id="Path_31" data-name="Path 31" d="M195.61,292.66h4.031v21.6a2.457,2.457,0,0,0,.549,1.7,1.96,1.96,0,0,0,1.54.616,3.525,3.525,0,0,0,.935-.149,10.522,10.522,0,0,0,1.008-.335l.586,3.207a9.2,9.2,0,0,1-2.089.653,11.14,11.14,0,0,1-2.162.243,4.383,4.383,0,0,1-3.244-1.156,4.441,4.441,0,0,1-1.154-3.282Z" transform="translate(-183.591 -274.556)" fill="#5291fb"/>
      <path id="Path_32" data-name="Path 32" d="M405.256,430.667a7.416,7.416,0,0,1-4.068-1.119,8.289,8.289,0,0,1-2.786-2.91v11.6H394.37V410.785h3.556v3.507a8.434,8.434,0,0,1,2.84-2.8,7.515,7.515,0,0,1,3.94-1.044,8.029,8.029,0,0,1,3.629.821,9.244,9.244,0,0,1,2.859,2.2,10.2,10.2,0,0,1,1.887,3.208,10.97,10.97,0,0,1,.678,3.841,12.356,12.356,0,0,1-.623,3.973,9.845,9.845,0,0,1-1.76,3.208,8.6,8.6,0,0,1-2.7,2.163A7.345,7.345,0,0,1,405.256,430.667Zm-1.317-3.507a4.862,4.862,0,0,0,2.327-.559,5.815,5.815,0,0,0,1.8-1.493,6.856,6.856,0,0,0,1.155-2.126,7.646,7.646,0,0,0,.4-2.462,7.022,7.022,0,0,0-.458-2.536,6.856,6.856,0,0,0-1.247-2.089,5.806,5.806,0,0,0-1.887-1.418,5.489,5.489,0,0,0-2.383-.522,4.83,4.83,0,0,0-1.612.3,6.414,6.414,0,0,0-2.865,2.031,4.121,4.121,0,0,0-.77,1.511v5.109a7.56,7.56,0,0,0,.958,1.678,7.041,7.041,0,0,0,1.3,1.342,6.253,6.253,0,0,0,1.558.9,4.609,4.609,0,0,0,1.718.336Z" transform="translate(-369.889 -384.961)" fill="#5291fb"/>
      <path id="Path_33" data-name="Path 33" d="M745.036,338.4a20.217,20.217,0,0,1-2.126.839,8.851,8.851,0,0,1-2.9.466,6.045,6.045,0,0,1-1.8-.261,4.353,4.353,0,0,1-1.484-.783,3.556,3.556,0,0,1-1.008-1.362,5.071,5.071,0,0,1-.366-2.034v-12.2h-2.53V319.9h2.53V313.48h4.031V319.9h4.178v3.171h-4.178v10.891a2.036,2.036,0,0,0,.641,1.51,2.159,2.159,0,0,0,1.411.466,4.412,4.412,0,0,0,1.611-.3q.769-.3,1.136-.485Z" transform="translate(-687.128 -294.071)" fill="#5291fb"/>
      <path id="Path_34" data-name="Path 34" d="M523.2,792.8a1.843,1.843,0,0,0-.858.226,1.191,1.191,0,0,0-.533.6v2.462h-.832v-4.023h.771v.9a1.848,1.848,0,0,1,.533-.665,1.281,1.281,0,0,1,.707-.274h.125a.454.454,0,0,1,.087.008Z" transform="translate(-488.561 -742.617)" fill="#5291fb"/>
      <path id="Path_35" data-name="Path 35" d="M563.306,795.7a2.075,2.075,0,0,1-.839-.166,1.941,1.941,0,0,1-.646-.45,2.032,2.032,0,0,1-.416-.661,2.2,2.2,0,0,1-.146-.8,2.221,2.221,0,0,1,.147-.8,2.081,2.081,0,0,1,.416-.669,1.924,1.924,0,0,1,.646-.454,2.086,2.086,0,0,1,.846-.166,1.989,1.989,0,0,1,1.474.619,1.946,1.946,0,0,1,.405.654,2.214,2.214,0,0,1,.14.781c0,.063,0,.119-.008.173s-.009.1-.014.134h-3.167a1.387,1.387,0,0,0,.125.485,1.278,1.278,0,0,0,.265.376,1.155,1.155,0,0,0,.805.327,1.3,1.3,0,0,0,.329-.043,1.205,1.205,0,0,0,.3-.125,1.127,1.127,0,0,0,.242-.2.932.932,0,0,0,.165-.251l.71.207a1.659,1.659,0,0,1-.677.742A2.057,2.057,0,0,1,563.306,795.7Zm1.2-2.391a1.362,1.362,0,0,0-.125-.469,1.185,1.185,0,0,0-.26-.366,1.167,1.167,0,0,0-.37-.235,1.19,1.19,0,0,0-.446-.085,1.152,1.152,0,0,0-.443.085,1.187,1.187,0,0,0-.367.235,1.157,1.157,0,0,0-.257.366,1.436,1.436,0,0,0-.12.469Z" transform="translate(-526.315 -742.144)" fill="#5291fb"/>
      <path id="Path_36" data-name="Path 36" d="M636.247,795.691a1.449,1.449,0,0,1-.533-.1,1.289,1.289,0,0,1-.423-.266,1.245,1.245,0,0,1-.28-.4,1.223,1.223,0,0,1-.1-.5,1.089,1.089,0,0,1,.121-.515,1.193,1.193,0,0,1,.344-.4,1.656,1.656,0,0,1,.529-.262,2.35,2.35,0,0,1,.677-.092,3.066,3.066,0,0,1,.552.05,2.827,2.827,0,0,1,.492.135v-.275a.938.938,0,0,0-.251-.7.971.971,0,0,0-.719-.251,1.69,1.69,0,0,0-.622.119,3.053,3.053,0,0,0-.631.342l-.257-.538a2.758,2.758,0,0,1,1.588-.524,1.773,1.773,0,0,1,1.269.423,1.577,1.577,0,0,1,.454,1.215v1.458c0,.179.073.272.22.277v.72c-.081.016-.151.025-.208.031s-.114.008-.17.008a.5.5,0,0,1-.537-.439l-.023-.251a1.765,1.765,0,0,1-.653.542A1.893,1.893,0,0,1,636.247,795.691Zm.226-.623a1.478,1.478,0,0,0,.571-.112.985.985,0,0,0,.42-.313.39.39,0,0,0,.159-.292v-.531a2.5,2.5,0,0,0-.45-.131,2.46,2.46,0,0,0-.465-.046,1.251,1.251,0,0,0-.729.2.6.6,0,0,0-.283.519.659.659,0,0,0,.219.5.788.788,0,0,0,.562.208Z" transform="translate(-595.346 -742.139)" fill="#5291fb"/>
      <path id="Path_37" data-name="Path 37" d="M710.02,767.25h.831V771.7a.506.506,0,0,0,.113.35.4.4,0,0,0,.317.125.746.746,0,0,0,.192-.031c.073-.021.143-.044.208-.069l.121.661a1.91,1.91,0,0,1-.431.134,2.265,2.265,0,0,1-.446.05.9.9,0,0,1-.67-.239.917.917,0,0,1-.238-.677Z" transform="translate(-665.748 -719.39)" fill="#5291fb"/>
      <path id="Path_38" data-name="Path 38" d="M746.037,776.679a4.229,4.229,0,0,1-.439.173,1.825,1.825,0,0,1-.6.1,1.215,1.215,0,0,1-.37-.054.907.907,0,0,1-.307-.161.738.738,0,0,1-.208-.281,1.053,1.053,0,0,1-.075-.419v-2.516h-.522v-.654h.522V771.54h.831v1.323h.867v.654h-.866v2.247a.43.43,0,0,0,.133.314.445.445,0,0,0,.291.1.915.915,0,0,0,.333-.063,2.467,2.467,0,0,0,.234-.1Z" transform="translate(-697.148 -723.411)" fill="#5291fb"/>
      <path id="Path_39" data-name="Path 39" d="M788.947,797.61c.076.016.15.028.223.038a1.341,1.341,0,0,0,.177.016.329.329,0,0,0,.17-.043.509.509,0,0,0,.147-.15,1.545,1.545,0,0,0,.156-.3q.079-.2.184-.5l-1.624-4.023h.854l1.225,3.275,1.09-3.277h.786l-1.791,4.953a1.246,1.246,0,0,1-.42.581,1.2,1.2,0,0,1-.767.235,1.751,1.751,0,0,1-.188-.012,1.131,1.131,0,0,1-.219-.05Z" transform="translate(-739.195 -743.188)" fill="#5291fb"/>
    </g>
  </g>
</svg>
