<?xml version="1.0" encoding="UTF-8"?>
<svg id="Layer_1" data-name="Layer 1" xmlns="http://www.w3.org/2000/svg" viewBox="0 0 3002 3002">
  <defs>
    <style>
      .cls-1 {
        fill: none;
        stroke: #fff;
        stroke-miterlimit: 10;
        stroke-width: 16px;
      }
    </style>
  </defs>
  <path class="cls-1" d="M1178.91,959.41c.8,7.27,1.74,14.51,2.85,21.75,1.1,7.24,2.35,14.44,3.76,21.62,1.41,7.16,2.96,14.33,4.66,21.44,1.71,7.12,3.58,14.2,5.58,21.23,2.01,7.04,4.16,14.03,6.47,20.98,2.3,6.94,4.75,13.84,7.34,20.68,2.61,6.85,5.35,13.62,8.22,20.36,2.89,6.7,5.92,13.39,9.07,19.97,3.16,6.61,6.48,13.13,9.9,19.59,3.44,6.48,7.02,12.85,10.72,19.14,3.72,6.32,7.58,12.54,11.54,18.7,3.97,6.15,8.07,12.2,12.3,18.16,4.23,5.98,8.59,11.87,13.06,17.65,4.48,5.79,9.08,11.49,13.79,17.08,4.72,5.59,9.57,11.07,14.51,16.46,4.95,5.39,10.01,10.68,15.2,15.86,5.17,5.17,10.44,10.23,15.83,15.18,5.39,4.95,10.88,9.8,16.49,14.5,5.57,4.72,11.28,9.33,17.07,13.79,5.78,4.48,11.66,8.83,17.64,13.07,5.97,4.22,12.02,8.33,18.16,12.31,6.15,3.96,12.37,7.82,18.68,11.51,6.32,3.71,12.68,7.3,19.16,10.74,6.45,3.43,12.98,6.72,19.59,9.91,6.59,3.14,13.24,6.18,19.98,9.05,6.71,2.89,13.51,5.61,20.36,8.22,6.83,2.61,13.73,5.05,20.68,7.35,6.94,2.29,13.94,4.46,20.97,6.46,7.04,2,14.11,3.87,21.22,5.57,7.13,1.72,14.27,3.26,21.45,4.69,7.19,1.41,14.41,2.66,21.63,3.76,7.24,1.09,14.49,2.05,21.77,2.85,185.64,18.49,371.76,26.97,558.33,25.43-186.57-1.54-372.69,6.96-558.33,25.46-7.28.79-14.53,1.74-21.77,2.84-7.22,1.12-14.44,2.36-21.63,3.77-7.18,1.4-14.32,2.96-21.45,4.68-7.11,1.7-14.18,3.55-21.22,5.55-7.03,2.02-14.03,4.19-20.97,6.48-6.95,2.3-13.85,4.76-20.68,7.35-6.85,2.57-13.65,5.33-20.34,8.22-6.76,2.87-13.41,5.89-20,9.05-6.61,3.17-13.12,6.47-19.59,9.93-6.48,3.42-12.84,7.01-19.16,10.72-6.31,3.69-12.53,7.53-18.68,11.53-6.14,3.96-12.19,8.05-18.16,12.29-5.98,4.22-11.86,8.59-17.64,13.07-5.79,4.46-11.5,9.07-17.07,13.79-5.61,4.72-11.1,9.57-16.49,14.5-5.37,4.96-10.66,10.01-15.83,15.2-5.19,5.16-10.25,10.44-15.2,15.83-4.94,5.4-9.77,10.88-14.49,16.47-4.73,5.59-9.31,11.29-13.8,17.07-4.48,5.81-8.85,11.66-13.07,17.64-4.21,5.98-8.33,12.03-12.3,18.18-3.96,6.13-7.82,12.37-11.52,18.68-3.72,6.32-7.29,12.7-10.74,19.14-3.42,6.47-6.74,13.01-9.9,19.6-3.15,6.6-6.18,13.26-9.07,19.99-2.87,6.72-5.61,13.49-8.2,20.36-2.61,6.83-5.06,13.73-7.36,20.67-2.31,6.95-4.46,13.93-6.46,20.97-2.01,7.04-3.88,14.13-5.59,21.24-1.7,7.11-3.25,14.25-4.66,21.43-1.41,7.19-2.66,14.39-3.76,21.63-1.09,7.23-2.05,14.5-2.85,21.78-18.49,185.64-26.97,371.77-25.44,558.33,1.52-186.56-6.95-372.7-25.47-558.33-.8-7.28-1.74-14.55-2.83-21.78-1.11-7.24-2.35-14.44-3.76-21.62-1.41-7.19-2.96-14.33-4.66-21.44-1.73-7.12-3.58-14.2-5.57-21.24-2.02-7.04-4.17-14.04-6.49-20.97-2.31-6.94-4.75-13.84-7.35-20.67-2.59-6.87-5.33-13.64-8.21-20.36-2.88-6.74-5.89-13.39-9.06-20-3.16-6.59-6.48-13.12-9.9-19.59-3.44-6.44-7.02-12.82-10.72-19.14-3.72-6.31-7.56-12.55-11.53-18.68-3.99-6.15-8.1-12.2-12.31-18.18-4.23-5.98-8.58-11.85-13.05-17.64-4.49-5.8-9.09-11.48-13.8-17.07-4.72-5.59-9.55-11.09-14.52-16.47-4.94-5.39-10.02-10.67-15.2-15.85s-10.44-10.24-15.83-15.18c-5.39-4.95-10.89-9.78-16.48-14.52-5.59-4.7-11.29-9.31-17.07-13.79-5.79-4.46-11.66-8.85-17.64-13.05-5.98-4.24-12.04-8.35-18.18-12.29-6.15-4-12.37-7.84-18.68-11.55s-12.68-7.3-19.14-10.72c-6.46-3.45-12.99-6.74-19.59-9.91-6.61-3.16-13.25-6.2-19.99-9.05-6.72-2.91-13.51-5.65-20.34-8.22-6.85-2.61-13.74-5.05-20.7-7.37-6.94-2.27-13.92-4.46-20.97-6.48-7.04-2-14.11-3.85-21.21-5.55-7.13-1.72-14.27-3.28-21.46-4.66-7.16-1.41-14.38-2.67-21.62-3.78-7.24-1.1-14.48-2.06-21.75-2.85-185.66-18.48-371.79-26.98-558.36-25.44,186.57,1.52,372.69-6.96,558.36-25.45,7.25-.78,14.51-1.76,21.75-2.84,7.24-1.11,14.46-2.36,21.62-3.77,7.18-1.41,14.33-2.97,21.46-4.67,7.11-1.72,14.18-3.57,21.21-5.57,7.05-2,14.03-4.19,20.97-6.46,6.96-2.32,13.85-4.76,20.7-7.37,6.83-2.59,13.61-5.31,20.34-8.22,6.72-2.85,13.39-5.89,19.99-9.05,6.59-3.17,13.11-6.46,19.59-9.91,6.45-3.44,12.83-7.01,19.14-10.72,6.31-3.71,12.53-7.57,18.68-11.53,6.14-3.96,12.2-8.07,18.18-12.31,5.96-4.22,11.85-8.59,17.62-13.05,5.81-4.48,11.5-9.07,17.09-13.81,5.59-4.7,11.07-9.55,16.48-14.5,5.39-4.93,10.66-10.01,15.83-15.18,5.18-5.18,10.23-10.45,15.2-15.84,4.95-5.39,9.79-10.89,14.49-16.48,4.73-5.57,9.32-11.29,13.82-17.07,4.46-5.78,8.82-11.66,13.05-17.64,4.21-5.96,8.33-12.03,12.29-18.16,3.98-6.16,7.81-12.39,11.53-18.7,3.72-6.29,7.3-12.68,10.72-19.14,3.46-6.46,6.76-12.98,9.92-19.59,3.17-6.58,6.18-13.27,9.06-19.99,2.88-6.72,5.62-13.49,8.21-20.34,2.6-6.86,5.04-13.74,7.35-20.68,2.3-6.95,4.47-13.94,6.47-20.98,2.01-7.03,3.86-14.11,5.57-21.23,1.72-7.11,3.27-14.28,4.66-21.44,1.43-7.18,2.67-14.38,3.78-21.62,1.09-7.24,2.03-14.48,2.83-21.75,18.52-185.67,26.99-371.79,25.46-558.36-1.52,186.57,6.96,372.69,25.45,558.36Z"/>
  <path class="cls-1" d="M1178.91,959.41c.8,7.28,1.74,14.5,2.85,21.75,1.1,7.24,2.35,14.43,3.76,21.62,1.41,7.19,2.96,14.31,4.66,21.44,1.71,7.14,3.57,14.19,5.58,21.23,2.01,7.03,4.16,14.04,6.47,20.98s4.74,13.84,7.34,20.68c2.61,6.84,5.35,13.63,8.22,20.36,2.88,6.68,5.93,13.4,9.07,19.97h0c3.16,6.6,6.49,13.15,9.9,19.59v.02s0,0,0,0c3.45,6.48,7,12.81,10.71,19.11h0c3.72,6.32,7.57,12.53,11.54,18.7v.02c3.98,6.13,8.08,12.2,12.3,18.14,4.22,5.98,8.6,11.87,13.06,17.65,4.47,5.78,9.09,11.5,13.79,17.08,4.72,5.59,9.57,11.07,14.51,16.46,4.94,5.38,10.02,10.69,15.2,15.86h0c5.16,5.17,10.44,10.23,15.83,15.18h0c5.38,4.94,10.89,9.81,16.49,14.5,5.57,4.71,11.28,9.33,17.07,13.79,5.77,4.47,11.67,8.84,17.64,13.07,5.96,4.22,12.02,8.33,18.16,12.31,6.16,3.96,12.37,7.81,18.68,11.51h0c6.31,3.7,12.69,7.3,19.16,10.74h0s.03.01.03.01c6.43,3.42,12.96,6.72,19.56,9.9,6.59,3.14,13.24,6.18,19.98,9.05,6.71,2.88,13.52,5.61,20.36,8.22,6.82,2.61,13.75,5.05,20.68,7.35,6.93,2.29,13.95,4.47,20.97,6.46,7.04,2,14.11,3.87,21.22,5.57,7.13,1.72,14.27,3.26,21.45,4.69,7.2,1.41,14.4,2.66,21.63,3.76,7.25,1.09,14.48,2.05,21.77,2.85,185.64,18.49,371.76,26.97,558.33,25.43-186.57-1.54-372.69,6.96-558.33,25.46-7.28.79-14.53,1.73-21.77,2.84h0c-7.21,1.12-14.45,2.36-21.63,3.77-7.17,1.4-14.33,2.96-21.45,4.68-7.12,1.7-14.17,3.55-21.22,5.55h0c-7.03,2.02-14.02,4.19-20.96,6.48-6.94,2.3-13.85,4.76-20.68,7.35h0c-6.85,2.58-13.64,5.33-20.34,8.22h-.02c-6.76,2.88-13.38,5.88-19.98,9.05-6.61,3.17-13.12,6.46-19.59,9.93-6.47,3.41-12.85,7.02-19.16,10.72s-12.53,7.53-18.68,11.53c-6.13,3.95-12.21,8.06-18.16,12.29-5.96,4.21-11.87,8.6-17.64,13.07-5.78,4.45-11.5,9.08-17.07,13.79-5.6,4.72-11.11,9.58-16.49,14.5h-.01c-5.36,4.96-10.66,10.01-15.82,15.2-5.19,5.17-10.25,10.43-15.2,15.83-4.94,5.39-9.77,10.88-14.49,16.47-4.73,5.6-9.31,11.29-13.8,17.07-4.47,5.8-8.85,11.66-13.07,17.64-4.21,5.97-8.34,12.05-12.3,18.18-3.96,6.11-7.83,12.38-11.52,18.68v.02c-3.73,6.31-7.3,12.69-10.74,19.12-3.42,6.47-6.74,13.01-9.9,19.6h0c-3.14,6.6-6.18,13.28-9.06,19.99-2.87,6.73-5.61,13.49-8.2,20.36-2.62,6.83-5.05,13.72-7.36,20.67h0c-2.31,6.95-4.46,13.94-6.46,20.97v.02c-2.02,7.03-3.88,14.12-5.59,21.22v.03c-1.7,7.09-3.25,14.23-4.66,21.4h0c-1.41,7.21-2.66,14.38-3.76,21.63-1.09,7.22-2.06,14.51-2.85,21.78-18.5,185.64-26.97,371.77-25.44,558.33,1.52-186.56-6.95-372.69-25.47-558.33-.8-7.31-1.73-14.52-2.83-21.78-1.11-7.23-2.35-14.45-3.76-21.62-1.41-7.21-2.96-14.31-4.66-21.44-1.73-7.12-3.58-14.21-5.57-21.24-2.02-7.04-4.17-14.04-6.49-20.97v-.03c-2.32-6.93-4.76-13.82-7.35-20.64-2.59-6.88-5.32-13.63-8.21-20.36-2.87-6.73-5.9-13.4-9.06-20-3.16-6.57-6.48-13.14-9.9-19.59l-.02-.02c-3.44-6.43-7.01-12.82-10.7-19.12l-.02-.03h0c-3.71-6.3-7.54-12.53-11.51-18.65-3.98-6.13-8.1-12.21-12.31-18.18l-.02-.02c-4.21-5.96-8.57-11.84-13.03-17.62-4.48-5.78-9.11-11.49-13.8-17.07-4.73-5.6-9.54-11.08-14.52-16.47-4.94-5.39-10.02-10.67-15.2-15.85-5.16-5.17-10.45-10.24-15.83-15.18-5.38-4.93-10.9-9.79-16.48-14.52l-.02-.02h0c-5.59-4.69-11.28-9.29-17.05-13.77-5.79-4.46-11.66-8.85-17.64-13.05-5.99-4.25-12.02-8.34-18.18-12.29-6.16-4.01-12.36-7.83-18.68-11.55-6.31-3.7-12.68-7.3-19.14-10.72-6.46-3.45-12.99-6.74-19.59-9.91-6.6-3.16-13.26-6.2-19.99-9.05-6.72-2.91-13.51-5.65-20.34-8.22-6.85-2.61-13.74-5.06-20.7-7.37-6.95-2.28-13.92-4.46-20.97-6.48h0c-7.05-2-14.1-3.85-21.21-5.55-7.12-1.72-14.28-3.28-21.46-4.66-7.17-1.42-14.38-2.67-21.62-3.78-7.23-1.1-14.48-2.06-21.75-2.85-185.66-18.48-371.79-26.98-558.36-25.44,186.57,1.52,372.69-6.96,558.36-25.45,7.26-.78,14.51-1.76,21.75-2.84,7.25-1.11,14.45-2.36,21.62-3.77s14.34-2.97,21.46-4.67h0c7.11-1.72,14.18-3.57,21.21-5.57,7.06-2,14.03-4.18,20.97-6.46,6.95-2.31,13.86-4.76,20.7-7.37h.01c6.83-2.6,13.59-5.31,20.33-8.22,6.72-2.85,13.39-5.89,19.99-9.05,6.6-3.17,13.1-6.46,19.59-9.91h0c6.45-3.44,12.83-7.01,19.14-10.72h0c6.3-3.71,12.54-7.57,18.68-11.53,6.14-3.95,12.21-8.07,18.18-12.31,5.96-4.22,11.84-8.58,17.62-13.05,5.82-4.48,11.5-9.07,17.09-13.81h0c5.58-4.7,11.07-9.56,16.47-14.5h0c5.38-4.93,10.66-10.01,15.83-15.18h0c5.18-5.18,10.24-10.46,15.2-15.84h.01c4.94-5.4,9.78-10.89,14.48-16.48,4.72-5.56,9.32-11.3,13.82-17.07h0c4.45-5.76,8.83-11.67,13.05-17.64h0c4.21-5.96,8.33-12.05,12.29-18.16,3.97-6.15,7.82-12.4,11.53-18.7h0c3.72-6.3,7.29-12.68,10.72-19.14,3.46-6.45,6.76-12.99,9.92-19.59h0s0-.01,0-.01h0c3.16-6.59,6.17-13.26,9.05-19.98v-.02c2.89-6.72,5.62-13.48,8.21-20.32,2.6-6.85,5.04-13.74,7.35-20.68,2.3-6.95,4.46-13.93,6.47-20.98h0c2.01-7.04,3.87-14.11,5.57-21.23,1.72-7.11,3.27-14.27,4.66-21.44,1.43-7.21,2.67-14.35,3.78-21.62v-.03c1.09-7.23,2.04-14.45,2.83-21.72,18.52-185.67,26.99-371.79,25.46-558.36h0c-1.52,186.57,6.96,372.7,25.45,558.36M1178.91,959.41c-18.49-185.66-26.97-371.79-25.45-558.36h0c1.53,186.57-6.94,372.69-25.46,558.36-.79,7.27-1.74,14.49-2.83,21.72v.03c-1.11,7.27-2.35,14.41-3.78,21.62-1.39,7.17-2.94,14.33-4.66,21.44-1.7,7.12-3.56,14.19-5.57,21.22h0c-2.01,7.06-4.17,14.04-6.47,20.99-2.31,6.94-4.75,13.83-7.35,20.68-2.59,6.84-5.32,13.6-8.21,20.32v.02c-2.88,6.72-5.89,13.39-9.05,19.98h0s0,.01,0,.01h0c-3.16,6.6-6.46,13.14-9.92,19.59-3.43,6.46-7,12.84-10.72,19.14h0c-3.71,6.3-7.56,12.55-11.53,18.7-3.96,6.11-8.08,12.2-12.29,18.15h0c-4.22,5.98-8.6,11.89-13.05,17.65h0c-4.5,5.77-9.1,11.51-13.82,17.07-4.7,5.59-9.54,11.08-14.48,16.47h-.01c-4.96,5.39-10.02,10.67-15.2,15.85h0c-5.16,5.17-10.45,10.25-15.83,15.18h0c-5.4,4.94-10.89,9.8-16.47,14.49h0c-5.59,4.75-11.27,9.34-17.09,13.82-5.78,4.47-11.66,8.83-17.62,13.05-5.97,4.24-12.04,8.36-18.18,12.31-6.14,3.96-12.38,7.82-18.68,11.53h0c-6.31,3.71-12.7,7.28-19.14,10.72h0c-6.48,3.45-12.98,6.74-19.59,9.91-6.61,3.16-13.27,6.2-19.99,9.05-6.74,2.91-13.5,5.62-20.33,8.22h-.01c-6.84,2.61-13.75,5.06-20.7,7.37-6.95,2.28-13.91,4.46-20.97,6.46-7.03,2-14.1,3.85-21.21,5.57h0c-7.12,1.7-14.29,3.26-21.46,4.67s-14.38,2.66-21.62,3.77c-7.24,1.08-14.49,2.06-21.75,2.84-185.67,18.49-371.78,26.97-558.36,25.45,186.57-1.54,372.7,6.96,558.36,25.44,7.27.79,14.52,1.75,21.75,2.85,7.25,1.11,14.45,2.36,21.62,3.78,7.18,1.38,14.34,2.94,21.46,4.66,7.12,1.7,14.17,3.55,21.21,5.55h0c7.05,2.02,14.03,4.2,20.97,6.48,6.96,2.31,13.85,4.76,20.7,7.37,6.83,2.57,13.62,5.31,20.34,8.22,6.73,2.85,13.39,5.89,19.99,9.05,6.6,3.17,13.12,6.46,19.59,9.91,6.46,3.42,12.83,7.02,19.14,10.72,6.32,3.72,12.52,7.54,18.68,11.55,6.16,3.95,12.19,8.04,18.18,12.29,5.98,4.2,11.85,8.59,17.64,13.05,5.77,4.48,11.46,9.08,17.05,13.77h0s.02.02.02.02c5.57,4.73,11.1,9.59,16.48,14.52,5.38,4.94,10.66,10.01,15.83,15.18,5.18,5.18,10.26,10.46,15.2,15.85,4.97,5.39,9.79,10.87,14.52,16.47,4.69,5.58,9.32,11.29,13.8,17.07,4.46,5.78,8.82,11.66,13.03,17.62l.02.02c4.21,5.97,8.33,12.05,12.31,18.18,3.97,6.12,7.8,12.35,11.51,18.65h0s.02.03.02.03c3.69,6.3,7.26,12.69,10.7,19.12l.02.02c3.42,6.45,6.74,13.02,9.9,19.59,3.16,6.6,6.19,13.27,9.06,20,2.89,6.73,5.62,13.48,8.21,20.36,2.59,6.82,5.03,13.71,7.34,20.64v.03c2.33,6.93,4.48,13.93,6.5,20.97,1.99,7.03,3.84,14.12,5.57,21.24,1.7,7.13,3.25,14.23,4.66,21.44,1.41,7.17,2.65,14.39,3.76,21.62,1.1,7.26,2.03,14.47,2.83,21.78,18.52,185.64,26.99,371.77,25.47,558.33-1.53-186.56,6.94-372.69,25.44-558.33.79-7.27,1.76-14.56,2.85-21.78,1.1-7.25,2.35-14.42,3.76-21.63h0c1.41-7.17,2.96-14.31,4.66-21.4v-.03c1.71-7.1,3.57-14.19,5.59-21.22v-.02c2-7.03,4.15-14.02,6.46-20.96h0c2.31-6.96,4.74-13.85,7.36-20.68,2.59-6.87,5.33-13.63,8.2-20.36,2.88-6.71,5.92-13.39,9.06-19.98h0c3.16-6.6,6.48-13.14,9.9-19.61,3.44-6.43,7.01-12.81,10.73-19.12v-.02c3.7-6.3,7.57-12.57,11.53-18.68,3.96-6.13,8.09-12.21,12.3-18.18,4.22-5.98,8.6-11.84,13.07-17.64,4.49-5.78,9.07-11.47,13.8-17.07,4.72-5.59,9.55-11.08,14.49-16.47,4.95-5.4,10.01-10.66,15.2-15.83,5.16-5.19,10.46-10.24,15.82-15.2h0s.01,0,.01,0c5.38-4.92,10.89-9.78,16.49-14.5,5.57-4.71,11.29-9.34,17.07-13.79,5.77-4.47,11.68-8.86,17.64-13.07,5.95-4.23,12.03-8.34,18.16-12.29,6.15-4,12.37-7.83,18.68-11.53s12.69-7.31,19.16-10.72c6.47-3.47,12.98-6.76,19.59-9.93,6.6-3.17,13.22-6.17,19.98-9.05h.02c6.7-2.89,13.49-5.64,20.34-8.22h0c6.83-2.59,13.74-5.05,20.68-7.35,6.94-2.29,13.93-4.46,20.96-6.48h0s0,0,0,0c7.05-2,14.1-3.85,21.22-5.55,7.12-1.72,14.28-3.28,21.45-4.68,7.18-1.41,14.42-2.65,21.63-3.77h0c7.24-1.11,14.49-2.05,21.77-2.84,185.64-18.5,371.76-27,558.33-25.46-186.57,1.54-372.69-6.94-558.33-25.43-7.29-.8-14.52-1.76-21.77-2.85-7.23-1.1-14.43-2.35-21.63-3.76-7.18-1.43-14.32-2.97-21.45-4.69-7.11-1.7-14.18-3.57-21.22-5.57-7.02-1.99-14.04-4.17-20.97-6.46-6.93-2.3-13.86-4.74-20.68-7.35-6.84-2.61-13.65-5.34-20.36-8.22-6.74-2.87-13.39-5.91-19.98-9.05-6.6-3.18-13.13-6.48-19.56-9.9h-.03s0,0,0,0c-6.47-3.45-12.85-7.05-19.16-10.75h0c-6.31-3.7-12.52-7.55-18.68-11.51-6.14-3.98-12.2-8.09-18.16-12.31-5.97-4.23-11.87-8.6-17.64-13.07-5.79-4.46-11.5-9.08-17.07-13.79-5.6-4.69-11.11-9.56-16.49-14.5h0c-5.39-4.95-10.67-10.01-15.83-15.18h0c-5.18-5.17-10.26-10.48-15.2-15.86-4.94-5.39-9.79-10.87-14.51-16.46-4.7-5.58-9.32-11.3-13.79-17.08-4.46-5.78-8.84-11.67-13.06-17.65-4.22-5.94-8.32-12.01-12.29-18.14v-.02c-3.98-6.17-7.83-12.38-11.55-18.7h0c-3.71-6.3-7.26-12.63-10.71-19.12h0s0-.02,0-.02c-3.41-6.44-6.74-12.99-9.9-19.59h0c-3.14-6.57-6.19-13.29-9.07-19.97-2.87-6.73-5.61-13.52-8.22-20.36-2.6-6.84-5.03-13.74-7.34-20.68s-4.46-13.95-6.47-20.98c-2.01-7.04-3.87-14.09-5.58-21.23-1.7-7.13-3.25-14.25-4.66-21.44-1.41-7.19-2.66-14.38-3.76-21.62-1.11-7.25-2.05-14.47-2.85-21.75Z"/>
  <path class="cls-1" d="M2343.85,1727.01c.79,7.38,1.92,14.69,3.35,21.95,1.43,7.28,3.14,14.48,5.18,21.61,2.02,7.11,4.35,14.16,6.98,21.08,2.63,6.92,5.55,13.73,8.76,20.41,3.2,6.68,6.68,13.22,10.44,19.6,3.74,6.4,7.78,12.59,12.05,18.66,4.28,6.04,8.81,11.89,13.59,17.56,4.78,5.66,9.79,11.11,15.03,16.35s10.68,10.25,16.35,15.02c5.66,4.79,11.51,9.32,17.57,13.59,6.03,4.3,12.25,8.31,18.64,12.07,6.39,3.75,12.92,7.23,19.6,10.44,6.68,3.2,13.48,6.11,20.42,8.75,6.93,2.61,13.96,4.95,21.09,6.97,7.12,2.05,14.33,3.77,21.58,5.19,7.28,1.42,14.59,2.55,21.96,3.35,93.95,9.36,188.12,13.65,282.56,12.89-94.44-.79-188.61,3.5-282.56,12.86-7.37.8-14.68,1.92-21.96,3.36-7.25,1.41-14.46,3.14-21.58,5.18-7.13,2.02-14.16,4.35-21.09,6.97-6.94,2.63-13.73,5.55-20.42,8.76-6.68,3.2-13.21,6.68-19.6,10.43-6.39,3.75-12.61,7.77-18.65,12.06-6.05,4.28-11.9,8.82-17.56,13.59-5.67,4.77-11.11,9.79-16.35,15.04-5.24,5.23-10.25,10.68-15.03,16.34-4.78,5.67-9.31,11.52-13.59,17.58-4.27,6.04-8.31,12.25-12.05,18.65-3.76,6.37-7.24,12.91-10.44,19.59-3.21,6.68-6.13,13.5-8.76,20.41-2.63,6.94-4.96,13.97-6.98,21.08-2.04,7.13-3.77,14.33-5.18,21.61-1.43,7.27-2.56,14.58-3.35,21.95-9.37,93.95-13.66,188.14-12.88,282.56.77-94.42-3.52-188.61-12.89-282.56-.8-7.37-1.91-14.68-3.33-21.95-1.43-7.27-3.17-14.48-5.19-21.61-2.03-7.11-4.36-14.14-7-21.08-2.62-6.91-5.53-13.73-8.73-20.41-3.2-6.68-6.7-13.22-10.44-19.59-3.76-6.4-7.78-12.62-12.07-18.65-4.28-6.07-8.82-11.91-13.59-17.57-4.78-5.67-9.78-11.12-15.03-16.35-5.22-5.25-10.68-10.26-16.35-15.04-5.67-4.77-11.51-9.31-17.57-13.6-6.03-4.29-12.27-8.3-18.64-12.05-6.39-3.75-12.94-7.23-19.6-10.45-6.69-3.21-13.5-6.11-20.43-8.75-6.92-2.62-13.95-4.95-21.06-6.97-7.15-2.04-14.33-3.77-21.61-5.18-7.27-1.44-14.58-2.56-21.95-3.36-93.95-9.36-188.13-13.65-282.54-12.86,94.41.76,188.59-3.53,282.54-12.88,7.37-.81,14.68-1.94,21.95-3.35,7.28-1.43,14.46-3.16,21.61-5.18,7.11-2.03,14.14-4.38,21.06-6.99,6.93-2.64,13.74-5.54,20.43-8.74,6.66-3.2,13.21-6.7,19.6-10.45,6.37-3.76,12.61-7.77,18.64-12.05,6.06-4.29,11.9-8.82,17.57-13.61,5.67-4.77,11.13-9.77,16.35-15.02,5.25-5.24,10.25-10.69,15.03-16.35,4.77-5.67,9.31-11.52,13.59-17.56,4.29-6.05,8.31-12.26,12.07-18.65,3.74-6.39,7.24-12.93,10.44-19.61,3.2-6.67,6.11-13.49,8.73-20.41,2.64-6.92,4.97-13.97,7-21.08,2.02-7.13,3.76-14.33,5.19-21.61,1.42-7.26,2.53-14.57,3.33-21.95,9.39-93.95,13.7-188.12,12.96-282.54-.82,94.42,3.46,188.59,12.81,282.54Z"/>
  <path class="cls-1" d="M2343.85,1727.01h0c.79,7.39,1.92,14.7,3.35,21.95,1.43,7.28,3.14,14.48,5.18,21.61v.02c2.03,7.1,4.35,14.14,6.98,21.06,2.63,6.91,5.56,13.74,8.76,20.41,3.2,6.69,6.68,13.21,10.44,19.6h0s.01.01.01.01h0c3.74,6.4,7.77,12.58,12.04,18.65,4.28,6.05,8.81,11.89,13.59,17.56,4.78,5.66,9.79,11.11,15.03,16.35h0c5.24,5.24,10.68,10.25,16.35,15.02,5.66,4.78,11.52,9.32,17.57,13.59,6.04,4.3,12.24,8.31,18.64,12.07,6.39,3.75,12.92,7.23,19.6,10.44,6.68,3.19,13.49,6.11,20.42,8.75,6.93,2.61,13.96,4.95,21.09,6.97,7.13,2.05,14.33,3.77,21.58,5.19,7.28,1.42,14.59,2.55,21.96,3.35,93.95,9.36,188.13,13.65,282.56,12.89-94.44-.79-188.61,3.5-282.56,12.86-7.37.8-14.68,1.92-21.96,3.36-7.25,1.41-14.45,3.14-21.58,5.18-7.13,2.01-14.17,4.35-21.09,6.97-6.93,2.63-13.74,5.55-20.42,8.76-6.67,3.2-13.22,6.68-19.6,10.43-6.4,3.76-12.6,7.76-18.65,12.06h0c-6.05,4.28-11.9,8.82-17.56,13.59h0c-5.66,4.78-11.1,9.79-16.34,15.04h-.01c-5.23,5.23-10.25,10.68-15.02,16.34h0c-4.78,5.67-9.31,11.52-13.59,17.58-4.27,6.04-8.31,12.25-12.05,18.65-3.76,6.38-7.24,12.9-10.44,19.59h0s-.01.01-.01.01c-3.2,6.68-6.12,13.5-8.75,20.4-2.63,6.94-4.96,13.96-6.98,21.08v.02c-2.04,7.12-3.77,14.32-5.18,21.59v.02c-1.43,7.26-2.56,14.57-3.35,21.93-9.37,93.96-13.66,188.14-12.88,282.56.77-94.42-3.52-188.61-12.89-282.56-.8-7.38-1.91-14.68-3.33-21.95h-.01c-1.42-7.28-3.16-14.49-5.18-21.61h0c-2.04-7.13-4.36-14.13-7-21.08-2.63-6.92-5.52-13.72-8.73-20.41h0c-3.2-6.68-6.7-13.22-10.44-19.59-3.76-6.41-7.78-12.61-12.07-18.65-4.28-6.08-8.81-11.91-13.59-17.57v-.02s-.01,0-.01,0c-4.77-5.67-9.77-11.11-15.02-16.34-5.22-5.24-10.69-10.26-16.35-15.04-5.67-4.77-11.51-9.31-17.57-13.6-6.03-4.29-12.28-8.3-18.64-12.05-6.39-3.75-12.94-7.23-19.6-10.45-6.69-3.21-13.5-6.11-20.43-8.75-6.91-2.62-13.96-4.96-21.06-6.97-7.14-2.04-14.33-3.77-21.61-5.18h0s0,0,0,0c-7.28-1.44-14.59-2.56-21.95-3.36-93.95-9.36-188.13-13.65-282.54-12.86,94.41.76,188.59-3.53,282.54-12.88,7.37-.81,14.67-1.93,21.95-3.35h0s0,0,0,0h0c7.27-1.43,14.46-3.16,21.6-5.18,7.1-2.03,14.14-4.38,21.06-6.99h.01c6.93-2.64,13.73-5.54,20.42-8.74,6.66-3.2,13.21-6.7,19.6-10.45,6.37-3.76,12.61-7.78,18.64-12.05,6.06-4.29,11.9-8.82,17.57-13.61,5.67-4.77,11.12-9.76,16.35-15.02h0c5.25-5.23,10.26-10.7,15.03-16.35h0c4.77-5.67,9.31-11.52,13.59-17.56,4.29-6.05,8.31-12.26,12.07-18.65h0c3.74-6.4,7.24-12.93,10.44-19.61,3.2-6.69,6.1-13.49,8.73-20.41,2.64-6.93,4.96-13.97,7-21.08,2.02-7.13,3.76-14.33,5.19-21.61,1.42-7.26,2.53-14.56,3.33-21.95,9.39-93.96,13.7-188.12,12.96-282.54-.82,94.41,3.46,188.59,12.81,282.54M2343.85,1727.01c-9.35-93.95-13.63-188.13-12.81-282.54.74,94.42-3.57,188.58-12.96,282.54-.8,7.39-1.91,14.69-3.33,21.95-1.43,7.28-3.17,14.48-5.19,21.61-2.04,7.11-4.36,14.15-7,21.08-2.63,6.92-5.53,13.72-8.73,20.41-3.2,6.68-6.7,13.21-10.44,19.6h0c-3.76,6.4-7.78,12.61-12.07,18.66-4.28,6.04-8.82,11.89-13.59,17.55h0c-4.77,5.66-9.78,11.13-15.03,16.36h0c-5.23,5.26-10.68,10.25-16.35,15.02-5.67,4.79-11.51,9.32-17.57,13.61-6.03,4.27-12.27,8.29-18.64,12.05-6.39,3.75-12.94,7.25-19.6,10.45-6.69,3.2-13.49,6.1-20.42,8.74h-.01c-6.92,2.61-13.96,4.96-21.06,6.99-7.14,2.02-14.33,3.75-21.6,5.18h0s0,0,0,0h0c-7.28,1.42-14.58,2.54-21.95,3.35-93.95,9.35-188.13,13.64-282.54,12.88,94.41-.79,188.59,3.5,282.54,12.86,7.36.8,14.67,1.92,21.95,3.35h0c7.28,1.42,14.47,3.15,21.61,5.19,7.1,2.01,14.15,4.35,21.06,6.97,6.93,2.64,13.74,5.54,20.43,8.75,6.66,3.21,13.21,6.7,19.6,10.45,6.36,3.75,12.61,7.77,18.64,12.05,6.06,4.29,11.9,8.84,17.57,13.6,5.66,4.77,11.13,9.79,16.35,15.04,5.25,5.23,10.25,10.67,15.02,16.34h0s.01.02.01.02c4.78,5.66,9.31,11.49,13.59,17.57,4.29,6.04,8.31,12.24,12.07,18.65,3.74,6.37,7.24,12.91,10.44,19.59h0c3.21,6.69,6.1,13.49,8.73,20.41,2.64,6.95,4.96,13.95,7,21.07h0c2.02,7.13,3.76,14.34,5.18,21.61h.01c1.42,7.29,2.53,14.59,3.33,21.96,9.37,93.95,13.66,188.14,12.89,282.56-.78-94.42,3.51-188.61,12.88-282.56.79-7.37,1.92-14.67,3.35-21.93v-.02c1.41-7.27,3.14-14.47,5.18-21.59h0s0-.01,0-.01c2.02-7.11,4.35-14.14,6.98-21.08,2.63-6.9,5.55-13.72,8.75-20.4h.01s0,0,0,0c3.2-6.69,6.68-13.21,10.44-19.59,3.74-6.4,7.78-12.61,12.05-18.65,4.28-6.07,8.81-11.91,13.59-17.58h0c4.77-5.66,9.79-11.11,15.02-16.33h.01c5.24-5.25,10.68-10.27,16.34-15.04h0c5.66-4.77,11.51-9.31,17.56-13.59h0c6.05-4.3,12.25-8.3,18.65-12.06,6.38-3.75,12.93-7.23,19.6-10.43,6.68-3.2,13.49-6.12,20.42-8.76,6.92-2.62,13.96-4.96,21.09-6.97,7.13-2.04,14.33-3.77,21.58-5.18,7.28-1.44,14.59-2.56,21.96-3.36,93.95-9.36,188.12-13.65,282.56-12.86-94.43.76-188.61-3.53-282.56-12.89-7.37-.8-14.68-1.93-21.96-3.35-7.25-1.42-14.45-3.14-21.58-5.19-7.13-2.02-14.16-4.36-21.09-6.97-6.93-2.64-13.74-5.56-20.42-8.75-6.68-3.21-13.21-6.69-19.6-10.44-6.4-3.76-12.6-7.77-18.64-12.07-6.05-4.27-11.91-8.81-17.57-13.59-5.67-4.77-11.11-9.78-16.35-15.02h0c-5.24-5.24-10.25-10.69-15.03-16.35-4.78-5.67-9.31-11.51-13.59-17.56-4.27-6.07-8.3-12.25-12.04-18.65h0s-.01-.01-.01-.01h0c-3.76-6.39-7.24-12.91-10.44-19.6-3.2-6.67-6.13-13.5-8.76-20.41-2.63-6.92-4.95-13.96-6.97-21.06v-.02c-2.05-7.13-3.76-14.33-5.19-21.61-1.43-7.25-2.56-14.56-3.35-21.94h0Z"/>
  <path class="cls-1" d="M1946.94,685.03c.5,4.5,1.17,8.98,2.04,13.4.86,4.45,1.92,8.84,3.16,13.21,1.24,4.34,2.67,8.64,4.28,12.84,1.61,4.24,3.39,8.41,5.35,12.5,1.94,4.05,4.05,8.03,6.37,11.94,2.29,3.92,4.74,7.7,7.34,11.4,2.62,3.69,5.4,7.26,8.3,10.72,2.92,3.44,5.98,6.8,9.18,10,3.2,3.18,6.52,6.24,10,9.16,3.44,2.91,7.01,5.69,10.7,8.3,3.7,2.62,7.5,5.07,11.4,7.36,3.91,2.3,7.89,4.41,11.98,6.37,4.07,1.95,8.22,3.74,12.44,5.33,4.26,1.62,8.54,3.04,12.88,4.28,4.36,1.26,8.76,2.3,13.18,3.16,4.45.87,8.93,1.58,13.41,2.04,57.37,5.72,114.87,8.35,172.52,7.87-57.65-.48-115.15,2.15-172.52,7.87-4.48.48-8.96,1.16-13.41,2.02-4.42.87-8.82,1.92-13.18,3.18-4.34,1.24-8.62,2.66-12.88,4.28-4.22,1.59-8.37,3.38-12.44,5.33-4.09,1.96-8.09,4.07-11.98,6.37-3.9,2.29-7.7,4.73-11.4,7.36-3.67,2.61-7.26,5.39-10.7,8.3-3.48,2.92-6.8,5.98-10,9.16-3.2,3.2-6.25,6.56-9.18,10-2.9,3.46-5.68,7.03-8.3,10.72-2.6,3.72-5.05,7.5-7.34,11.38-2.32,3.91-4.43,7.9-6.39,11.98-1.94,4.11-3.72,8.24-5.33,12.46-1.61,4.24-3.04,8.54-4.28,12.86-1.24,4.38-2.29,8.76-3.16,13.22-.87,4.45-1.54,8.89-2.04,13.39-5.7,57.37-8.33,114.87-7.85,172.5.47-57.63-2.16-115.13-7.89-172.5-.5-4.5-1.16-8.94-2.03-13.39-.87-4.46-1.93-8.84-3.17-13.22-1.24-4.32-2.66-8.62-4.26-12.86-1.61-4.22-3.38-8.35-5.35-12.46-1.96-4.08-4.09-8.05-6.36-11.98-2.3-3.88-4.76-7.66-7.37-11.38-2.61-3.69-5.39-7.26-8.3-10.72-2.9-3.44-5.98-6.8-9.16-10-3.22-3.18-6.54-6.24-10-9.16-3.46-2.91-7.03-5.69-10.73-8.3-3.69-2.61-7.48-5.07-11.39-7.36-3.89-2.28-7.89-4.41-11.96-6.37-4.07-1.95-8.24-3.74-12.46-5.33-4.24-1.62-8.51-3.04-12.88-4.28-4.34-1.26-8.74-2.31-13.18-3.18-4.45-.86-8.91-1.54-13.41-2.02-57.35-5.72-114.87-8.35-172.51-7.87,57.64.48,115.16-2.15,172.51-7.87,4.5-.48,8.96-1.17,13.41-2.04,4.44-.86,8.83-1.92,13.18-3.16,4.35-1.26,8.64-2.66,12.86-4.28,4.22-1.61,8.39-3.38,12.47-5.33,4.07-1.98,8.07-4.09,11.95-6.38,3.91-2.3,7.7-4.74,11.39-7.37,3.7-2.61,7.27-5.39,10.71-8.3,3.47-2.92,6.8-5.97,9.98-9.16,3.21-3.2,6.26-6.56,9.19-10,2.92-3.44,5.68-7.03,8.29-10.71,2.61-3.71,5.06-7.49,7.35-11.39,2.31-3.91,4.42-7.89,6.37-11.96,1.96-4.09,3.74-8.24,5.35-12.48,1.61-4.22,3.03-8.52,4.28-12.84,1.22-4.37,2.27-8.76,3.14-13.21.87-4.42,1.56-8.9,2.04-13.4,5.76-57.39,8.39-114.89,7.94-172.55-.48,57.66,2.13,115.16,7.85,172.55Z"/>
  <path class="cls-1" d="M1946.94,685.03c.5,4.49,1.17,8.99,2.04,13.4h0c.87,4.45,1.92,8.83,3.16,13.21,1.24,4.34,2.67,8.64,4.28,12.84,1.61,4.25,3.39,8.41,5.35,12.5,1.94,4.05,4.05,8.03,6.37,11.94,2.29,3.92,4.74,7.7,7.34,11.4,2.62,3.69,5.39,7.26,8.3,10.72,2.92,3.44,5.98,6.8,9.18,10,3.21,3.19,6.52,6.24,10,9.16,3.45,2.91,7.01,5.68,10.7,8.3,3.7,2.62,7.5,5.07,11.4,7.36,3.91,2.3,7.89,4.41,11.98,6.37,4.07,1.95,8.22,3.74,12.44,5.33h0c4.26,1.62,8.53,3.04,12.88,4.28h.02c4.34,1.26,8.75,2.3,13.16,3.16h0c4.45.87,8.93,1.58,13.41,2.04,57.37,5.72,114.87,8.35,172.52,7.87-57.66-.48-115.15,2.15-172.52,7.87-4.48.48-8.96,1.16-13.41,2.02-4.42.87-8.82,1.92-13.18,3.18-4.34,1.24-8.62,2.66-12.88,4.28h-.01c-4.21,1.59-8.36,3.38-12.43,5.33h0c-4.08,1.96-8.09,4.07-11.97,6.37-3.9,2.29-7.7,4.74-11.4,7.36h0c-3.67,2.61-7.26,5.39-10.7,8.3-3.49,2.93-6.79,5.97-10,9.16h-.01c-3.19,3.2-6.26,6.56-9.17,10-2.9,3.46-5.68,7.03-8.3,10.72-2.6,3.72-5.05,7.49-7.34,11.38h-.01c-2.3,3.9-4.42,7.92-6.38,11.98-1.94,4.1-3.72,8.24-5.33,12.46-1.61,4.23-3.04,8.54-4.28,12.86v.02c-1.24,4.36-2.3,8.75-3.16,13.2h0c-.87,4.44-1.54,8.9-2.04,13.39-5.7,57.37-8.33,114.87-7.85,172.5.47-57.64-2.16-115.13-7.89-172.5-.5-4.51-1.16-8.93-2.03-13.39h0c-.87-4.46-1.93-8.84-3.17-13.22h0s0,0,0,0h0c-1.24-4.32-2.67-8.62-4.26-12.85-1.61-4.23-3.38-8.34-5.35-12.46-1.96-4.08-4.08-8.04-6.36-11.98-2.3-3.88-4.77-7.67-7.37-11.38-2.61-3.68-5.39-7.27-8.3-10.72-2.9-3.44-5.98-6.8-9.16-10-3.23-3.19-6.53-6.23-10-9.16-3.46-2.91-7.03-5.68-10.73-8.3h0c-3.68-2.61-7.49-5.07-11.39-7.36-3.89-2.28-7.89-4.41-11.96-6.37-4.08-1.95-8.23-3.74-12.46-5.33-4.24-1.62-8.51-3.04-12.88-4.28-4.34-1.26-8.74-2.31-13.18-3.18-4.45-.86-8.91-1.54-13.41-2.02-57.35-5.72-114.86-8.35-172.51-7.87,57.64.48,115.17-2.15,172.51-7.87h0c4.49-.48,8.96-1.17,13.4-2.04h0c4.44-.87,8.82-1.92,13.18-3.16,4.36-1.26,8.64-2.66,12.86-4.28h0c4.22-1.61,8.39-3.38,12.47-5.33,4.07-1.98,8.07-4.09,11.95-6.38h.01c3.91-2.3,7.69-4.74,11.38-7.37,3.71-2.62,7.27-5.39,10.71-8.3h0c3.47-2.92,6.8-5.97,9.98-9.16,3.21-3.2,6.26-6.55,9.19-10,2.92-3.44,5.68-7.03,8.29-10.71v-.02c2.62-3.7,5.06-7.47,7.35-11.37,2.31-3.9,4.43-7.89,6.37-11.96,1.96-4.09,3.74-8.24,5.35-12.48,1.61-4.22,3.03-8.51,4.28-12.84,1.22-4.37,2.27-8.76,3.14-13.21h0c.87-4.41,1.56-8.91,2.04-13.4,5.76-57.39,8.39-114.88,7.94-172.55-.48,57.67,2.13,115.16,7.85,172.55M1946.94,685.03c-5.72-57.39-8.33-114.88-7.85-172.55.45,57.67-2.18,115.16-7.94,172.55-.48,4.49-1.17,8.99-2.04,13.4h0c-.87,4.45-1.92,8.84-3.14,13.21-1.25,4.33-2.67,8.62-4.28,12.84-1.61,4.24-3.39,8.39-5.35,12.48-1.94,4.07-4.06,8.06-6.37,11.96-2.29,3.9-4.73,7.67-7.34,11.37v.02c-2.62,3.68-5.38,7.27-8.3,10.71-2.93,3.45-5.98,6.8-9.19,10-3.18,3.19-6.51,6.24-9.98,9.16h0c-3.44,2.91-7,5.68-10.71,8.3-3.69,2.63-7.47,5.07-11.38,7.36h-.01c-3.88,2.3-7.88,4.41-11.95,6.39-4.08,1.95-8.25,3.72-12.47,5.33h0c-4.22,1.62-8.5,3.02-12.86,4.28-4.36,1.24-8.74,2.29-13.18,3.16h0c-4.44.87-8.91,1.56-13.4,2.04h0c-57.34,5.72-114.87,8.35-172.51,7.87,57.65-.48,115.16,2.15,172.51,7.87,4.5.48,8.96,1.16,13.41,2.02,4.44.87,8.84,1.92,13.18,3.18,4.37,1.24,8.64,2.66,12.88,4.28,4.23,1.59,8.38,3.38,12.46,5.33,4.07,1.96,8.07,4.09,11.96,6.37,3.9,2.29,7.71,4.75,11.39,7.36h0c3.7,2.62,7.27,5.39,10.73,8.3,3.47,2.93,6.77,5.97,10,9.16,3.18,3.2,6.26,6.56,9.16,10,2.91,3.45,5.69,7.04,8.3,10.72,2.6,3.71,5.07,7.5,7.37,11.38,2.28,3.94,4.4,7.9,6.36,11.98,1.97,4.12,3.74,8.23,5.35,12.46,1.59,4.23,3.02,8.53,4.26,12.85v.02c1.24,4.37,2.3,8.75,3.17,13.21h0c.87,4.46,1.53,8.88,2.03,13.39,5.73,57.37,8.36,114.86,7.89,172.5-.48-57.63,2.15-115.13,7.85-172.5.5-4.49,1.17-8.95,2.04-13.39h0c.86-4.45,1.92-8.84,3.16-13.2v-.02h0c1.24-4.32,2.67-8.63,4.28-12.86,1.61-4.22,3.39-8.36,5.33-12.46,1.96-4.06,4.08-8.08,6.38-11.97h.01c2.29-3.9,4.74-7.67,7.34-11.39,2.62-3.69,5.4-7.26,8.3-10.72,2.91-3.44,5.98-6.8,9.17-9.99h.01c3.21-3.2,6.51-6.24,10-9.17,3.44-2.91,7.03-5.69,10.7-8.3h0c3.7-2.62,7.5-5.07,11.4-7.36,3.88-2.3,7.89-4.41,11.97-6.37h0c4.07-1.95,8.22-3.74,12.43-5.33h.01c4.26-1.62,8.54-3.04,12.88-4.28,4.36-1.26,8.76-2.31,13.18-3.18,4.45-.86,8.93-1.54,13.41-2.02,57.37-5.72,114.86-8.35,172.52-7.87-57.65.48-115.15-2.15-172.52-7.87-4.48-.46-8.96-1.17-13.41-2.04h0c-4.41-.86-8.82-1.9-13.16-3.16h-.02c-4.35-1.24-8.62-2.66-12.88-4.28h0c-4.22-1.59-8.37-3.38-12.44-5.33-4.09-1.96-8.07-4.07-11.98-6.37-3.9-2.29-7.7-4.74-11.4-7.36-3.69-2.62-7.25-5.39-10.7-8.3-3.48-2.92-6.79-5.97-10-9.16-3.2-3.2-6.26-6.56-9.18-10-2.91-3.46-5.68-7.03-8.3-10.72-2.6-3.7-5.05-7.48-7.34-11.4-2.32-3.91-4.43-7.89-6.37-11.94-1.96-4.09-3.74-8.25-5.35-12.5-1.61-4.2-3.04-8.5-4.28-12.84-1.24-4.38-2.29-8.76-3.16-13.21h0c-.87-4.41-1.54-8.91-2.04-13.4Z"/>
</svg>