<?xml version="1.0" encoding="UTF-8"?>
<svg id="Layer_2" data-name="Layer 2" xmlns="http://www.w3.org/2000/svg" xmlns:xlink="http://www.w3.org/1999/xlink" viewBox="0 0 182.71 146.24">
  <defs>
    <style>
      .cls-1 {
        fill: url(#radial-gradient);
      }

      .cls-2 {
        fill: #181616;
      }
    </style>
    <radialGradient id="radial-gradient" cx="97.41" cy="37.72" fx="40.88" fy="8.68" r="63.55" gradientTransform="translate(0 -2.16) scale(1 1.06)" gradientUnits="userSpaceOnUse">
      <stop offset=".37" stop-color="#ef3b2a"/>
      <stop offset=".69" stop-color="#dba389"/>
    </radialGradient>
  </defs>
  <g id="Layer_1-2" data-name="Layer 1">
    <g>
      <g>
        <path class="cls-2" d="M16.38,146.24c-3.6,0-6.62-.65-9.07-1.94-2.45-1.29-4.28-3.07-5.49-5.34-1.21-2.26-1.82-4.85-1.82-7.76h10.92c0,1.98.46,3.47,1.36,4.46.91.99,2.4,1.49,4.46,1.49,1.7,0,2.96-.43,3.79-1.3.83-.87,1.24-2.03,1.24-3.49,0-1.54-.42-2.71-1.27-3.52-.85-.81-2.22-1.21-4.12-1.21h-3.58v-8.01h3.58c1.62,0,2.82-.36,3.61-1.09.79-.73,1.18-1.8,1.18-3.21,0-1.25-.39-2.23-1.15-2.94-.77-.71-1.86-1.06-3.28-1.06-1.78,0-3.09.45-3.94,1.33-.85.89-1.27,2.22-1.27,4H.61c0-3.03.61-5.62,1.82-7.76,1.21-2.14,3-3.79,5.37-4.94s5.23-1.73,8.58-1.73,6.21.5,8.55,1.49c2.34.99,4.13,2.38,5.37,4.16,1.23,1.78,1.85,3.82,1.85,6.13s-.65,4.27-1.94,5.88c-1.29,1.62-3.03,2.77-5.22,3.46,2.55.69,4.48,1.86,5.79,3.52,1.31,1.66,1.97,3.82,1.97,6.49s-.67,4.8-2,6.76c-1.33,1.96-3.23,3.48-5.67,4.55-2.45,1.07-5.35,1.61-8.71,1.61Z"/>
        <path class="cls-2" d="M54.17,146.24c-2.91,0-5.36-.36-7.34-1.09-1.98-.73-3.59-1.75-4.82-3.06-1.23-1.31-2.13-2.79-2.7-4.43-.57-1.64-.87-3.39-.91-5.25h10.55c.08,1.62.59,2.91,1.52,3.88.93.97,2.16,1.46,3.7,1.46,1.9,0,3.25-.59,4.06-1.76.81-1.17,1.21-2.85,1.21-5.04,0-1.54-.22-2.76-.67-3.67-.45-.91-1.06-1.56-1.85-1.94-.79-.38-1.71-.58-2.76-.58s-2,.21-2.85.64c-.85.42-1.56,1.04-2.12,1.85h-9.89v-24.26h28.87v8.92h-18.38v5.95c.85-.65,1.85-1.12,3-1.43,1.15-.3,2.48-.46,3.97-.46,2.75,0,5.15.56,7.19,1.67,2.04,1.11,3.65,2.77,4.82,4.97,1.17,2.21,1.76,4.94,1.76,8.22s-.67,5.83-2,8.16-3.23,4.12-5.67,5.37c-2.45,1.25-5.35,1.88-8.71,1.88Z"/>
        <path class="cls-2" d="M91.35,146.24c-3.6,0-6.62-.65-9.07-1.94-2.45-1.29-4.28-3.07-5.49-5.34-1.21-2.26-1.82-4.85-1.82-7.76h10.92c0,1.98.46,3.47,1.36,4.46.91.99,2.4,1.49,4.46,1.49,1.7,0,2.96-.43,3.79-1.3.83-.87,1.24-2.03,1.24-3.49,0-1.54-.42-2.71-1.27-3.52-.85-.81-2.22-1.21-4.12-1.21h-3.58v-8.01h3.58c1.62,0,2.82-.36,3.61-1.09.79-.73,1.18-1.8,1.18-3.21,0-1.25-.39-2.23-1.15-2.94-.77-.71-1.86-1.06-3.28-1.06-1.78,0-3.09.45-3.94,1.33-.85.89-1.27,2.22-1.27,4h-10.92c0-3.03.61-5.62,1.82-7.76,1.21-2.14,3-3.79,5.37-4.94s5.23-1.73,8.58-1.73,6.21.5,8.55,1.49c2.34.99,4.13,2.38,5.37,4.16,1.23,1.78,1.85,3.82,1.85,6.13s-.65,4.27-1.94,5.88c-1.29,1.62-3.03,2.77-5.22,3.46,2.55.69,4.48,1.86,5.79,3.52,1.31,1.66,1.97,3.82,1.97,6.49s-.67,4.8-2,6.76c-1.33,1.96-3.23,3.48-5.67,4.55-2.45,1.07-5.35,1.61-8.71,1.61Z"/>
        <path class="cls-2" d="M129.14,146.24c-2.91,0-5.36-.36-7.34-1.09-1.98-.73-3.59-1.75-4.82-3.06-1.23-1.31-2.13-2.79-2.7-4.43-.57-1.64-.87-3.39-.91-5.25h10.55c.08,1.62.59,2.91,1.52,3.88.93.97,2.16,1.46,3.7,1.46,1.9,0,3.25-.59,4.06-1.76.81-1.17,1.21-2.85,1.21-5.04,0-1.54-.22-2.76-.67-3.67-.45-.91-1.06-1.56-1.85-1.94-.79-.38-1.71-.58-2.76-.58s-2,.21-2.85.64c-.85.42-1.56,1.04-2.12,1.85h-9.89v-24.26h28.87v8.92h-18.38v5.95c.85-.65,1.85-1.12,3-1.43,1.15-.3,2.48-.46,3.97-.46,2.75,0,5.15.56,7.19,1.67,2.04,1.11,3.65,2.77,4.82,4.97,1.17,2.21,1.76,4.94,1.76,8.22s-.67,5.83-2,8.16-3.23,4.12-5.67,5.37c-2.45,1.25-5.35,1.88-8.71,1.88Z"/>
        <path class="cls-2" d="M166.33,146.24c-3.6,0-6.62-.65-9.07-1.94-2.45-1.29-4.28-3.07-5.49-5.34-1.21-2.26-1.82-4.85-1.82-7.76h10.92c0,1.98.46,3.47,1.36,4.46.91.99,2.4,1.49,4.46,1.49,1.7,0,2.96-.43,3.79-1.3.83-.87,1.24-2.03,1.24-3.49,0-1.54-.42-2.71-1.27-3.52-.85-.81-2.22-1.21-4.12-1.21h-3.58v-8.01h3.58c1.62,0,2.82-.36,3.61-1.09.79-.73,1.18-1.8,1.18-3.21,0-1.25-.39-2.23-1.15-2.94-.77-.71-1.86-1.06-3.28-1.06-1.78,0-3.09.45-3.94,1.33-.85.89-1.27,2.22-1.27,4h-10.92c0-3.03.61-5.62,1.82-7.76,1.21-2.14,3-3.79,5.37-4.94s5.23-1.73,8.58-1.73,6.21.5,8.55,1.49c2.34.99,4.13,2.38,5.37,4.16,1.23,1.78,1.85,3.82,1.85,6.13s-.65,4.27-1.94,5.88c-1.29,1.62-3.03,2.77-5.22,3.46,2.55.69,4.48,1.86,5.79,3.52,1.31,1.66,1.97,3.82,1.97,6.49s-.67,4.8-2,6.76c-1.33,1.96-3.23,3.48-5.67,4.55-2.45,1.07-5.35,1.61-8.71,1.61Z"/>
      </g>
      <g>
        <path class="cls-2" d="M104.06,80.94c-10.55,6.27-25.7,6.48-36.43.47-4.67,1.3-9.63.74-14.81-1.14,2.87-.46,5.02-2.1,6.45-4.88-13.74-12.1-15.75-36.39-3.97-50.62-9.77,30.02,17.6,61.65,48.76,56.17Z"/>
        <path class="cls-1" d="M135.12,33.47c-9.49-4.56-28.74-13.8-38.17-18.34l-14.49,6.96v-8.16h-9.8v12.87l-12.97,6.23c5.33-44.3,70.61-43.93,75.43.44ZM133.54,67.58c-4.78,1.73-9.77,2.5-14.66,1.19-22.13,16.27-56.48.92-59.13-26.26l37.2-17.87c8.54,4.11,29.7,14.28,38,18.26-1,7.09-3.97,13.54-8.33,18.8.43,1.05.95,1.97,1.57,2.75,1.36,1.73,3.16,2.78,5.35,3.13ZM87.87,53.78c1.46-1.72,1.42-4.61-.1-6.28-.73-.8-1.8-1.32-3.2-1.3-1.41-.02-2.48.5-3.2,1.3-1.53,1.67-1.56,4.56-.1,6.28.07.08.14.15.21.21.71.74,1.74,1.21,3.09,1.19,1.34.02,2.38-.45,3.09-1.19.07-.06.14-.13.21-.21ZM100.68,53.78c1.46-1.72,1.42-4.6-.09-6.27-.04-.04-.08-.08-.12-.11-.72-.75-1.76-1.22-3.09-1.2-1.34-.02-2.38.45-3.09,1.2-.04.03-.08.07-.12.11-1.52,1.67-1.55,4.55-.09,6.27.07.08.14.15.21.21.71.74,1.74,1.21,3.09,1.19,1.44.02,2.51-.51,3.24-1.33.02-.02.04-.04.06-.07ZM113.49,53.78c1.46-1.72,1.43-4.61-.11-6.28-.03-.04-.07-.08-.11-.11-.71-.74-1.75-1.21-3.09-1.19-1.34-.02-2.38.45-3.09,1.19-.01,0-.03.03-.04.04-1.6,1.65-1.65,4.6-.17,6.35.07.08.14.15.21.21.71.74,1.74,1.21,3.09,1.19,1.44.02,2.52-.52,3.25-1.33.02-.03.04-.05.06-.07Z"/>
      </g>
    </g>
  </g>
</svg>