<?xml version="1.0" encoding="UTF-8"?>
<!-- Icon-only mark (crescent + house + chat bubble), no "35353" wordmark — used
     as the browser tab favicon. The wordmark lives in logo.svg. Coordinates are
     kept identical to logo.svg so the brand gradient maps the same way; the
     viewBox just crops to the icon and centers it in a square with light padding. -->
<svg xmlns="http://www.w3.org/2000/svg" viewBox="-6.23 -7.11 100 100">
  <defs>
    <linearGradient id="logoGrad" x1="78" y1="14" x2="20" y2="82" gradientUnits="userSpaceOnUse">
      <stop offset="0" stop-color="#F8835C"/>
      <stop offset="0.45" stop-color="#F37655"/>
      <stop offset="1" stop-color="#E12D13"/>
    </linearGradient>
  </defs>
  <path fill="#181616" d="M56.48,80.94c-10.55,6.27-25.7,6.48-36.43.47-4.67,1.3-9.63.74-14.81-1.14,2.87-.46,5.02-2.1,6.45-4.88C-2.06,63.3-4.06,39,7.72,24.77c-9.77,30.02,17.6,61.65,48.76,56.17Z"/>
  <path fill="url(#logoGrad)" d="M87.54,33.47c-9.49-4.56-28.74-13.8-38.17-18.34l-14.49,6.96v-8.16h-9.8v12.87l-12.97,6.23c5.33-44.3,70.61-43.93,75.43.44ZM85.96,67.58c-4.78,1.73-9.77,2.5-14.66,1.19-22.13,16.27-56.48.92-59.13-26.26l37.2-17.87c8.54,4.11,29.7,14.28,38,18.26-1,7.09-3.97,13.54-8.33,18.8.43,1.05.95,1.97,1.57,2.75,1.36,1.73,3.16,2.78,5.35,3.13ZM40.29,53.78c1.46-1.72,1.42-4.61-.1-6.28-.73-.8-1.8-1.32-3.2-1.3-1.41-.02-2.48.5-3.2,1.3-1.53,1.67-1.56,4.56-.1,6.28.07.08.14.15.21.21.71.74,1.74,1.21,3.09,1.19,1.34.02,2.38-.45,3.09-1.19.07-.06.14-.13.21-.21ZM53.1,53.78c1.46-1.72,1.42-4.6-.09-6.27-.04-.04-.08-.08-.12-.11-.72-.75-1.76-1.22-3.09-1.2-1.34-.02-2.38.45-3.09,1.2-.04.03-.08.07-.12.11-1.52,1.67-1.55,4.55-.09,6.27.07.08.14.15.21.21.71.74,1.74,1.21,3.09,1.19,1.44.02,2.51-.51,3.24-1.33.02-.02.04-.04.06-.07ZM65.91,53.78c1.46-1.72,1.43-4.61-.11-6.28-.03-.04-.07-.08-.11-.11-.71-.74-1.75-1.21-3.09-1.19-1.34-.02-2.38.45-3.09,1.19-.01,0-.03.03-.04.04-1.6,1.65-1.65,4.6-.17,6.35.07.08.14.15.21.21.71.74,1.74,1.21,3.09,1.19,1.44.02,2.52-.52,3.25-1.33.02-.03.04-.05.06-.07Z"/>
</svg>
