<svg width="216" height="26" viewBox="0 0 216 26" fill="none" xmlns="http://www.w3.org/2000/svg"><path d="M.6 1.193c1.384 0 2.756-.005 4.118-.016 1.372-.011 2.628-.022 3.768-.033 1.14-.023 2.114-.05 2.922-.083.808-.034 1.356-.078 1.644-.133l-.814 2.208c-.365-.1-.791-.188-1.278-.266-.42-.066-.935-.127-1.544-.183a19.023 19.023 0 00-3.038-.066c-.365.011-.72.028-1.063.05l-1.211.066v9.065a61.71 61.71 0 003.087-.1 92.59 92.59 0 002.341-.166 31.377 31.377 0 001.992-.232l-.514 2.407c-.764-.1-1.544-.194-2.341-.282a51.233 51.233 0 00-2.241-.2c-.808-.066-1.583-.1-2.324-.1v10.41c1.306 0 2.506-.055 3.602-.166a40.092 40.092 0 002.872-.382 26.76 26.76 0 002.607-.548l-.482 2.69a15.764 15.764 0 00-.598-.033 247.84 247.84 0 00-1.926-.066c-.353 0-.691-.006-1.012-.017-.321 0-.609-.006-.863-.017H.6v-.066c.066-.233.127-.52.182-.864.067-.343.122-.769.166-1.278.044-.51.078-1.112.1-1.81.022-.708.033-1.532.033-2.473V7.7c0-.94-.011-1.76-.033-2.457a33.622 33.622 0 00-.1-1.826c-.044-.52-.1-.952-.166-1.295a7.637 7.637 0 00-.182-.863v-.067zm27.25 13.398l-5.877 7.454c-.22.265-.437.542-.647.83-.21.277-.399.548-.564.814a7.543 7.543 0 00-.416.747c-.1.22-.149.41-.149.564h-3.22v-.066c.243-.21.586-.532 1.029-.963.453-.432.935-.974 1.444-1.627l7.305-9.18-7.504-9.862a9.682 9.682 0 00-1.212-1.328c-.399-.366-.697-.604-.897-.714v-.067h5.197c0 .133.016.305.05.515.044.21.121.46.232.747.11.277.26.587.448.93.2.343.454.714.764 1.112l4.798 6.292 5.296-6.624c.199-.243.392-.51.58-.797.2-.288.371-.564.515-.83a5.84 5.84 0 00.366-.764c.1-.232.149-.426.149-.58h3.22v.066a7.24 7.24 0 00-.365.315 15.18 15.18 0 00-.465.448c-.166.178-.354.388-.564.631-.21.244-.448.532-.714.864l-6.923 8.732 7.737 10.127a18.158 18.158 0 001.477 1.71c.465.443.803.725 1.013.847V25H34.79c0-.255-.105-.675-.316-1.262-.21-.586-.603-1.267-1.178-2.042l-5.446-7.105zm35.817-9.745l-.15.066c-.863-.797-1.904-1.433-3.12-1.91-1.207-.475-2.535-.713-3.985-.713-1.395 0-2.673.221-3.835.664a8.365 8.365 0 00-3.005 1.893c-.83.83-1.478 1.848-1.943 3.054-.464 1.207-.697 2.58-.697 4.118 0 1.693.222 3.276.664 4.748.443 1.46 1.102 2.728 1.976 3.801.874 1.074 1.964 1.92 3.27 2.54 1.317.61 2.85.913 4.599.913.63 0 1.262-.066 1.893-.199a9.087 9.087 0 001.81-.58 9.608 9.608 0 001.643-.947c.52-.376.99-.803 1.41-1.278l.183.116-1.328 3.387c-.83.32-1.748.564-2.755.73-.997.177-2.004.266-3.022.266-2.047 0-3.923-.294-5.628-.88-1.693-.598-3.154-1.439-4.383-2.524a11.525 11.525 0 01-2.855-3.901c-.675-1.527-1.013-3.22-1.013-5.08 0-1.052.133-2.086.398-3.105A12.558 12.558 0 0144.99 7.12c.52-.918 1.162-1.76 1.926-2.523a12.293 12.293 0 012.606-2.01 13.318 13.318 0 013.237-1.31c1.185-.322 2.463-.482 3.835-.482 2.136 0 4.117.326 5.944.98l1.129 3.07zm8.954 18.693c1.306 0 2.507-.055 3.603-.166a40.095 40.095 0 002.872-.382c.952-.155 1.82-.337 2.606-.548l-.48 2.69a15.76 15.76 0 00-.599-.033 247.84 247.84 0 00-1.926-.066c-.353 0-.691-.006-1.012-.017-.321 0-.609-.006-.863-.017h-7.703v-.066c.066-.233.127-.52.182-.864.067-.343.122-.769.166-1.278.044-.51.078-1.112.1-1.81a80.5 80.5 0 00.033-2.473V7.7c0-.94-.011-1.76-.033-2.457a33.553 33.553 0 00-.1-1.826c-.044-.52-.1-.952-.166-1.295a7.653 7.653 0 00-.182-.863v-.067h3.984v.067c-.066.232-.133.52-.2.863-.055.343-.104.775-.149 1.295-.033.51-.066 1.118-.1 1.826a78.847 78.847 0 00-.032 2.457V23.54zM103.49 7.701c0-.94-.011-1.76-.033-2.457a33.823 33.823 0 00-.099-1.826c-.045-.52-.094-.952-.15-1.295a7.667 7.667 0 00-.182-.863v-.067h2.955v.067c-.067.232-.133.52-.2.863-.055.343-.105.775-.149 1.295-.033.51-.066 1.118-.1 1.826a79.22 79.22 0 00-.033 2.457v8.965c0 1.583-.227 2.933-.68 4.05-.454 1.119-1.085 2.037-1.893 2.757-.808.708-1.776 1.223-2.905 1.544-1.13.332-2.363.498-3.702.498-1.34 0-2.59-.155-3.752-.465-1.151-.31-2.159-.808-3.022-1.494-.852-.698-1.522-1.594-2.009-2.69-.487-1.107-.73-2.451-.73-4.034v-9.13c0-.942-.011-1.76-.033-2.458a33.644 33.644 0 00-.1-1.826c-.044-.52-.1-.952-.166-1.295a7.63 7.63 0 00-.183-.863v-.067h3.985v.067c-.067.232-.133.52-.2.863-.055.343-.105.775-.149 1.295-.044.51-.077 1.118-.1 1.826a78.847 78.847 0 00-.033 2.457v9.314c0 1.317.194 2.407.581 3.27.399.852.919 1.533 1.56 2.042a5.745 5.745 0 002.192 1.046c.82.2 1.655.299 2.507.299.852 0 1.688-.1 2.507-.299a5.599 5.599 0 002.175-1.046c.642-.509 1.156-1.19 1.544-2.042.398-.863.597-1.953.597-3.27V7.7zm18.734-2.722h-.366a4.437 4.437 0 00-.431-.864 3.58 3.58 0 00-.764-.896 3.813 3.813 0 00-1.145-.714c-.443-.188-.969-.282-1.578-.282-.542 0-1.023.083-1.444.249-.42.166-.775.398-1.062.697a3.01 3.01 0 00-.631 1.062c-.144.41-.216.864-.216 1.362 0 .797.221 1.56.664 2.29a13.8 13.8 0 001.693 2.142 40.211 40.211 0 002.192 2.125 27.396 27.396 0 012.191 2.208 12.27 12.27 0 011.677 2.408c.454.83.681 1.726.681 2.69 0 .718-.128 1.443-.382 2.174a5.513 5.513 0 01-1.146 1.942c-.52.576-1.19 1.046-2.009 1.411-.819.355-1.793.532-2.921.532-.631 0-1.234-.061-1.81-.183-.564-.11-1.09-.249-1.577-.415a11.89 11.89 0 01-1.295-.565 10.04 10.04 0 01-.93-.547l.382-3.67h.415c.122.52.321 1.019.598 1.495.276.465.614.88 1.012 1.245.41.354.875.642 1.395.863.52.21 1.09.316 1.71.316.564 0 1.068-.083 1.511-.25a3.618 3.618 0 001.162-.713 3.07 3.07 0 00.73-1.096c.177-.42.266-.88.266-1.378 0-.697-.127-1.339-.382-1.926a7.35 7.35 0 00-1.013-1.693 12.983 12.983 0 00-1.411-1.544 71.64 71.64 0 00-1.61-1.494 53.165 53.165 0 01-1.627-1.56 13.593 13.593 0 01-1.411-1.694 9.154 9.154 0 01-.996-1.942 6.624 6.624 0 01-.382-2.291c0-.875.166-1.66.498-2.358a5.802 5.802 0 011.345-1.81c.564-.497 1.2-.88 1.909-1.145a6.19 6.19 0 012.191-.398 8.18 8.18 0 011.528.133 9.76 9.76 0 011.245.315c.376.122.702.243.979.365l.681.299-.116 3.105zm7.394 19.955a7.87 7.87 0 00.183-.864c.055-.343.105-.769.149-1.278.044-.51.077-1.112.1-1.81a80.88 80.88 0 00.033-2.473V7.7c0-.94-.011-1.76-.033-2.457a34.77 34.77 0 00-.1-1.826c-.044-.52-.094-.952-.149-1.295a7.871 7.871 0 00-.183-.863v-.067h3.968v.067c-.067.232-.133.52-.199.863-.056.343-.106.775-.15 1.295-.033.51-.066 1.118-.1 1.826a79.22 79.22 0 00-.033 2.457V18.51c0 .94.011 1.765.033 2.473.034.698.067 1.3.1 1.81.044.51.094.935.15 1.278.066.343.132.631.199.864V25h-3.968v-.066zm12.076-23.74v.066a.973.973 0 00-.05.249c-.011.11-.016.21-.016.299 0 .343.044.725.132 1.145.1.41.283.924.548 1.544l7.355 16.585 7.105-16.452c.166-.41.343-.858.531-1.345.189-.487.283-.98.283-1.477 0-.133-.011-.244-.034-.332a1.02 1.02 0 00-.066-.216v-.067h3.403v.067c-.21.21-.464.586-.763 1.129a26.6 26.6 0 00-.98 2.008l-9.513 21.118h-1.328L139.287 5.21a23.402 23.402 0 00-.664-1.378 28.934 28.934 0 00-.631-1.195 16.54 16.54 0 00-.531-.913 5.793 5.793 0 00-.316-.465v-.067h4.549zm22.734 23.74c.067-.233.127-.52.183-.864.055-.343.105-.769.149-1.278.044-.51.078-1.112.1-1.81a80.88 80.88 0 00.033-2.473V7.7c0-.94-.011-1.76-.033-2.457a33.714 33.714 0 00-.1-1.826c-.044-.52-.094-.952-.149-1.295a7.644 7.644 0 00-.183-.863v-.067h3.968v.067c-.067.232-.133.52-.199.863-.056.343-.105.775-.15 1.295-.033.51-.066 1.118-.099 1.826a78.912 78.912 0 00-.034 2.457V18.51c0 .94.012 1.765.034 2.473.033.698.066 1.3.099 1.81.045.51.094.935.15 1.278.066.343.132.631.199.864V25h-3.968v-.066zm16.841-22.28c-1.306 0-2.485.061-3.536.183-1.052.11-1.959.232-2.723.365-.885.166-1.677.349-2.374.548l.481-2.69c.133.012.332.023.598.034a123.798 123.798 0 001.909.066c.365 0 .709.006 1.03.017.32 0 .603.005.846.016H188.059c.254-.01.542-.016.863-.016.321-.011.659-.017 1.013-.017a248.677 248.677 0 001.926-.066c.265-.011.464-.022.597-.033l.482 2.689c-.709-.2-1.506-.382-2.391-.548a41.543 41.543 0 00-2.723-.365 30.956 30.956 0 00-3.536-.183V18.51c0 .94.011 1.765.033 2.473.034.698.067 1.3.1 1.81.044.51.094.935.149 1.278.067.343.133.631.2.864V25h-3.968v-.066a7.87 7.87 0 00.183-.864c.055-.343.105-.769.149-1.278.044-.51.077-1.112.1-1.81a80.88 80.88 0 00.033-2.473V2.654zm25.457 10.924v4.93c0 .942.011 1.766.033 2.474.022.698.055 1.3.099 1.81.045.51.094.935.15 1.278.066.343.133.631.199.864V25h-3.984v-.066c.066-.233.127-.52.182-.864.067-.343.116-.769.15-1.278.044-.51.077-1.112.099-1.81.034-.708.05-1.532.05-2.473V13.91l-7.421-10.094a14.176 14.176 0 00-.763-.946 9.444 9.444 0 00-.698-.747 7.962 7.962 0 00-.597-.548 6.102 6.102 0 00-.415-.315v-.067h5.03c0 .255.105.675.315 1.262.222.576.615 1.256 1.179 2.042l5.445 7.454 5.329-7.786c.189-.277.377-.559.565-.847.188-.287.36-.564.515-.83.154-.265.276-.509.365-.73.099-.222.149-.41.149-.565h3.237v.067c-.243.21-.57.525-.979.946-.41.41-.852.957-1.328 1.644l-6.906 9.728z" fill="#fff"/></svg>