<svg width="187" height="118" viewBox="0 0 187 118" fill="none" xmlns="http://www.w3.org/2000/svg"><path d="M101.7 60.08c.07.166.23.27.398.27a.437.437 0 00.398-.6l-1.079-2.624c-.263.116-.525.227-.792.33l1.079 2.625h-.004zM93.409 16.97a.422.422 0 00.07-.223V14.8a.432.432 0 00-.431-.434.432.432 0 00-.43.434v1.946c0 .082.028.157.069.223h.722zM93.06 61.845a.429.429 0 00-.426.434v5.177c0 .24.197.083.43.083v.347a.429.429 0 00.427-.434v-5.177c0-.24-.197-.43-.43-.43zM82.723 10.557a.43.43 0 00-.566-.223.435.435 0 00-.222.57l3.294 7.603c.267-.107.53-.214.8-.314l-3.31-7.636h.004zM103.882 63.139a.431.431 0 00-.562-.236.436.436 0 00-.234.566l1.563 3.802c.07.165.23.268.398.268a.437.437 0 00.398-.6l-1.563-3.8zM115.661 28.962a.437.437 0 00.234-.566.431.431 0 00-.562-.236l-3.221 1.343c.115.264.226.529.328.797l3.217-1.342.004.004zM114.742 47.445a.43.43 0 00.562-.235.436.436 0 00-.234-.567l-2.63-1.1a18.2 18.2 0 01-.328.798l2.63 1.095v.009zM113.856 38.288c.066.041.14.07.222.07h9.92c.238 0 .43-.194.43-.434a.432.432 0 00-.43-.434h-9.92a.417.417 0 00-.222.07v.728zM105.384 9.062a.43.43 0 10-.795-.33l-3.976 9.664c.267.104.534.215.792.33l3.975-9.66.004-.004zM68.482 37.494h-1.596c.238 0 .43.195.43.434 0 .24-.192.434-.43.434h1.596c.237 0 .43-.194.43-.434a.432.432 0 00-.43-.434zM64.94 25.73a.43.43 0 00-.562.236.434.434 0 00.234.567l9.054 3.776c.103-.268.214-.537.329-.797l-9.055-3.777v-.004zM80.08 6.624c.069.16.229.26.393.26a.435.435 0 00.394-.607l-1.42-3.273a.43.43 0 00-.566-.223.435.435 0 00-.221.57l1.42 3.273zM105.979 6.491a.428.428 0 00.562-.236l.997-2.425a.431.431 0 10-.796-.33l-.996 2.425a.434.434 0 00.233.566zM93.053 12.186c.238 0 .43-.195.43-.434V.434a.438.438 0 00-.43-.434.435.435 0 00-.43.434v11.322c0 .24.192.434.43.434v-.004zM117.007 27.933a.434.434 0 00.398.268c.053 0 .11-.012.164-.033l10.047-4.194a.436.436 0 00.233-.566.43.43 0 00-.562-.236l-10.046 4.195a.436.436 0 00-.234.566zM116.567 14.673a.421.421 0 00.304-.129l2.806-2.826a.434.434 0 000-.611.426.426 0 00-.607 0l-2.806 2.826a.434.434 0 00.303.74zM66.454 37.924c0-.24.193-.434.43-.434h-5.12a.432.432 0 00-.43.434c0 .24.193.434.43.434h5.12a.432.432 0 01-.43-.434zM61.105 24.131l-2.06-.86a.43.43 0 00-.561.236.436.436 0 00.234.566l2.06.86a.43.43 0 00.562-.236.436.436 0 00-.235-.566zM70.135 15.454a.42.42 0 00.607 0 .434.434 0 000-.612l-3.709-3.735a.426.426 0 00-.607 0 .434.434 0 000 .611l3.709 3.736z" fill="#fff"/><path d="M66.885 38.358c.238 0 .43-.194.43-.434a.432.432 0 00-.43-.434.432.432 0 00-.43.434c0 .24.192.434.43.434zM58.39 37.494h-2.565a.432.432 0 00-.43.434c0 .24.192.434.43.434h2.564c.238 0 .431-.194.431-.434a.432.432 0 00-.43-.434zM108.063 23.416l5.674-5.714a.434.434 0 000-.612.426.426 0 00-.607 0l-5.674 5.715c.205.198.406.405.607.611zM122.613 49.791l-5.735-2.392a.43.43 0 00-.562.235.436.436 0 00.234.566l5.735 2.393a.43.43 0 00.562-.236.434.434 0 00-.234-.566zM114.237 58.655a.426.426 0 00-.607 0 .434.434 0 000 .612l2.101 2.116a.421.421 0 00.607 0 .434.434 0 000-.612l-2.101-2.116zM108.063 52.436c-.197.207-.402.41-.607.612l4.422 4.454a.423.423 0 00.608 0 .434.434 0 000-.612l-4.419-4.45-.004-.004zM78.65 22.813l-4.796-4.83a.426.426 0 00-.607 0 .434.434 0 000 .611l4.796 4.83c.197-.206.402-.412.607-.61zM72.247 37.494h-.952a.432.432 0 00-.43.434c0 .24.192.434.43.434h.952c-.004-.29-.004-.574 0-.864v-.004zM125.462 50.982l-1.301-.542a.434.434 0 00-.328.802l1.3.541a.428.428 0 00.562-.235.434.434 0 00-.233-.566zM130.274 37.494h-3.417a.432.432 0 00-.431.434c0 .24.193.434.431.434h3.417a.432.432 0 00.431-.434.432.432 0 00-.431-.434zM111.488 30.235l.016.03c-.008-.017-.016-.034-.021-.05v.02h.005zM72.772 35.838a20.692 20.692 0 011.288-5.368l-.394-.165a21.035 21.035 0 00-1.32 5.487 21.424 21.424 0 00-.099 1.703h.43c.013-.55.042-1.103.095-1.657zM78.338 23.723l-.295-.298a20.942 20.942 0 00-4.054 6.087l.394.165a20.483 20.483 0 013.955-5.95v-.004zM95.123 17.503c1.87.195 3.655.64 5.329 1.298l.164-.401a20.689 20.689 0 00-5.448-1.322c-.59-.062-1.177-.091-1.76-.1a.424.424 0 01-.356.207.424.424 0 01-.357-.206 20.499 20.499 0 00-6.663 1.223l.168.392a20.2 20.2 0 018.927-1.087l-.004-.004z" fill="#fff"/><path d="M101.246 56.721l.168.405a20.849 20.849 0 004.784-2.946c.439-.36.857-.74 1.263-1.132l-.303-.306a20.47 20.47 0 01-5.908 3.98h-.004zM112.039 30.47a20.572 20.572 0 011.288 9.545 20.708 20.708 0 01-1.288 5.368l.398.165a21.097 21.097 0 001.415-7.26.42.42 0 01-.205-.36c0-.152.086-.284.209-.359a20.777 20.777 0 00-1.415-7.264l-.394.165h-.008zM107.76 52.13l.303.306a20.727 20.727 0 004.049-6.09l-.397-.166a20.494 20.494 0 01-3.955 5.95zM107.154 23.111l.303-.306a20.56 20.56 0 00-6.047-4.078l-.164.4a20.328 20.328 0 015.908 3.984zM111.713 29.673s.004 0 .009-.004l.393-.166a21.038 21.038 0 00-2.925-4.818 20.641 20.641 0 00-1.124-1.272l-.303.305a20.6 20.6 0 013.95 5.955zM85.396 18.896l-.168-.388a20.959 20.959 0 00-6.577 4.306l.296.297a20.43 20.43 0 016.449-4.21v-.005zM72.674 38.358h-.427c.012.55.037 1.099.09 1.64a.432.432 0 00.469.389.44.44 0 00.193-.075l-.234-.355a18.763 18.763 0 01-.087-1.6h-.004zM90.975 58.35a20.188 20.188 0 01-7.59-2.34l-.233-.355a.453.453 0 00-.144.149.44.44 0 00.173.587 20.602 20.602 0 007.75 2.388c.721.074 1.44.111 2.157.111 2.601 0 5.145-.491 7.528-1.43l-.168-.404a20.162 20.162 0 01-9.477 1.297l.004-.004z" fill="#fff"/><path d="M72.68 37.494h-.432c-.008.29-.008.575 0 .864h.428a29.597 29.597 0 010-.864h.004zM74.385 29.673l-.394-.166c-.115.265-.222.53-.329.798l.394.165c.103-.268.214-.537.33-.797zM108.064 52.436l-.304-.306c-.196.207-.397.414-.607.612l.304.306c.205-.199.41-.405.607-.612zM78.947 23.11l-.296-.297c-.205.199-.406.405-.607.612l.295.297c.197-.206.398-.413.608-.611zM100.453 57.051l.168.405c.267-.103.53-.214.792-.33l-.168-.405c-.263.116-.525.227-.792.33zM93.053 17.177a.425.425 0 00.357-.207 20.771 20.771 0 00-.715 0 .416.416 0 00.358.207zM111.714 46.18l.398.166c.115-.265.222-.53.329-.798l-.399-.165c-.102.268-.213.537-.328.797zM107.76 23.723l.304-.306a21.474 21.474 0 00-.607-.612l-.304.306c.205.198.411.405.607.611zM111.714 29.673c.115.26.222.529.328.793h.009l.394-.165a19.544 19.544 0 00-.329-.798l-.394.166s-.004 0-.008.004zM101.245 19.127l.164-.4a26.688 26.688 0 00-.792-.331l-.164.4c.267.104.533.216.792.331zM86.202 18.586l-.169-.392c-.27.099-.537.202-.8.314l.169.388c.266-.107.533-.215.8-.31zM113.652 37.924c0 .153.086.285.205.36.004-.24.004-.484 0-.724a.424.424 0 00-.21.36l.005.004zM73.192 39.916a21.833 21.833 0 01-.086-1.558h-.431c.012.537.037 1.07.086 1.599l.234.355a.427.427 0 00.193-.396h.004z" fill="#fff"/><path d="M111.715 29.673a20.656 20.656 0 00-3.95-5.955l-.304.306c.369.389.726.79 1.067 1.207a20.162 20.162 0 012.962 4.979.428.428 0 01.229-.537h-.004zM74.385 29.673l.398.165a20.145 20.145 0 013.864-5.806l-.308-.31a20.48 20.48 0 00-3.954 5.95zM90.977 58.35a20.167 20.167 0 009.476-1.298l-.16-.393a19.728 19.728 0 01-9.271 1.26 19.75 19.75 0 01-7.43-2.288.429.429 0 00-.439.024l.234.356a20.186 20.186 0 007.59 2.338zM105.651 53.51a20.126 20.126 0 01-4.57 2.819l.164.392a20.414 20.414 0 005.908-3.98l-.304-.305c-.386.372-.783.731-1.198 1.074zM113.326 40.015a20.565 20.565 0 00-1.288-9.546.402.402 0 01-.156.034.424.424 0 01-.377-.24 20.138 20.138 0 011.395 9.71 20.343 20.343 0 01-1.252 5.248l.394.165a20.587 20.587 0 001.288-5.367l-.004-.004zM111.321 46.015a19.931 19.931 0 01-3.865 5.81l.304.305a20.491 20.491 0 003.954-5.95l-.393-.165zM78.947 23.11l.308.31a20.058 20.058 0 016.314-4.123l-.173-.401a20.433 20.433 0 00-6.449 4.21v.005zM72.773 35.838a18.842 18.842 0 00-.094 1.657h.43c.013-.537.041-1.078.095-1.611a20.07 20.07 0 011.26-5.244l-.399-.165a20.647 20.647 0 00-1.288 5.367l-.004-.004zM101.245 19.128l-.164.397a19.756 19.756 0 015.768 3.892l.304-.306a20.328 20.328 0 00-5.908-3.983zM95.124 17.503a20.147 20.147 0 00-8.927 1.087l.177.4a19.717 19.717 0 018.705-1.057c1.81.186 3.557.616 5.21 1.26l.164-.396a20.254 20.254 0 00-5.329-1.298v.004z" fill="#fff"/><path d="M106.854 52.437l.303.305c.205-.198.41-.405.607-.611l-.303-.306c-.197.207-.402.409-.607.611zM74.06 30.47l.398.165c.103-.268.214-.537.329-.797l-.399-.166c-.115.265-.222.53-.328.798zM72.674 38.358h.431c-.004-.29-.004-.574 0-.864h-.43c-.01.29-.01.579 0 .864zM85.398 18.896l.172.4c.267-.107.533-.214.8-.31l-.177-.4c-.27.1-.537.202-.8.31h.005zM100.453 18.797l-.164.396c.267.104.533.215.792.33l.164-.396a26.958 26.958 0 00-.792-.33zM100.289 56.659l.16.392c.267-.103.529-.214.792-.33l-.164-.393a18.91 18.91 0 01-.792.33h.004zM78.338 23.722l.308.31c.197-.207.402-.413.607-.611l-.308-.31c-.205.198-.41.404-.607.611zM107.153 23.11l-.303.306c.205.199.406.405.607.612l.303-.306a21.474 21.474 0 00-.607-.611zM111.887 30.499a.422.422 0 00.156-.033 17.238 17.238 0 00-.329-.794.432.432 0 00-.23.537.213.213 0 01.021.05c.074.149.222.24.378.24h.004zM112.043 45.383l-.394-.166c-.103.269-.214.538-.329.798l.395.165c.115-.264.221-.529.328-.797z" fill="#fff"/><path d="M93.052 75.853c-20.763 0-37.653-17.012-37.653-37.924C55.4 17.016 72.29 0 93.052 0c20.762 0 37.652 17.012 37.652 37.924 0 20.913-16.89 37.925-37.653 37.925v.004zm0-74.99c-20.291 0-36.795 16.628-36.795 37.061 0 20.434 16.508 37.061 36.795 37.061 20.286 0 36.794-16.627 36.794-37.06 0-20.434-16.508-37.061-36.794-37.061z" fill="#fff"/><path d="M130.284 38.375a.43.43 0 00-.452.409c-.061 1.227-.57 3.467-1.473 6.48a35.158 35.158 0 01-2.592 6.37c-8.168 15.405-19.105 16.389-24.984 16.732-7.676.446-16.939-3.281-17.784-14.269-.345-4.47.505-7.896 2.523-10.173a10.94 10.94 0 013.159-2.454c.402-.207 1.596-.744.074-1.471-.562-.269-1.666-.513-2.273-.64a40.712 40.712 0 00-1.748-.327 32.377 32.377 0 00-1.706-.236 34.108 34.108 0 00-1.666-.148 35.518 35.518 0 00-1.629-.062c-.545-.009-1.058 0-1.587.024-.53.025-1.034.062-1.547.112a24.863 24.863 0 00-2.974.483 22.608 22.608 0 00-2.814.831 22.359 22.359 0 00-3.922 1.88c-.419.252-.825.517-1.227.798a24.436 24.436 0 00-2.33 1.843c-.37.33-.747.685-1.108 1.045a28.922 28.922 0 00-2.092 2.339c-.332.413-.669.855-.985 1.293-.324.45-.64.91-.943 1.376-.058.087-.115.174-.172.264a.44.44 0 00.127.6c.197.128.463.07.59-.128 2.528-3.947 5.69-6.967 9.39-8.984 5.502-2.991 12.025-3.69 19.43-2.09-12.914.421-18.342 6.289-20.48 9.95-2.206 3.789-2.949 8.425-2.03 12.718a.433.433 0 00.419.343c.028 0 .061 0 .09-.008a.433.433 0 00.328-.512c-.874-4.087-.168-8.496 1.932-12.103 1.932-3.314 6.708-8.517 17.796-9.417-4.54 1.805-8.028 5.838-9.8 9.896-2.593 5.942-3.065 14.276 1.731 19.512.681.743 1.465 1.409 2.33 1.987 3.68 2.442 8.098 3.29 12.447 3.29 3.836 0 7.622-.658 10.802-1.455a.433.433 0 00-.21-.839c-11.991 3.004-18.891.727-22.567-1.719a11.637 11.637 0 01-2.17-1.851c-3.266-3.566-5.017-10.69-1.576-18.578 1.797-4.111 5.424-8.202 10.133-9.731a9.066 9.066 0 00-1.85 1.582c-2.186 2.46-3.114 6.104-2.748 10.827.385 5.016 2.56 9.032 6.284 11.623 2.938 2.041 6.81 3.38 11 3.38.47 0 .943-.012 1.423-.041 5.616-.327 17.283-1.252 25.677-17.082a36.018 36.018 0 002.654-6.529c.644-2.144 1.428-5.05 1.51-6.686a.43.43 0 00-.406-.454h-.004z" fill="#fff"/><path d="M100.509 23.404c-1.892 1.554-3.455 3.392-4.92 5.326l.03.042c.04-.021.086-.038.123-.062.492-.323.984-.645 1.546-.814 1.075-.323 2.15-.608 3.27-.591.73.012 1.44.128 2.133.363.767.26 1.436.686 2.064 1.19.082.066.164.133.233.228-.045 0-.09.008-.135 0-.361-.066-.718-.178-1.087-.178-1.145-.004-2.293.029-3.422.248-.705.136-1.41.28-2.112.45-.484.116-.96.277-1.436.422-.017.004-.029.016-.082.05.082.028.135.057.189.065a9.688 9.688 0 012.539.806 8.198 8.198 0 012.535 1.922c.517.582.944 1.227 1.19 1.966.115.343.172.703.25 1.058.029.133.041.265.062.397a.189.189 0 00-.033.025c-.045-.05-.099-.091-.14-.145a8.854 8.854 0 00-1.288-1.351 11.827 11.827 0 00-2.268-1.467c-.788-.397-1.6-.727-2.441-.987-.525-.162-1.059-.29-1.592-.426-.062-.017-.127-.008-.189-.012 0 .012-.008.024-.008.037.094.078.189.157.287.235a5.68 5.68 0 011.887 2.806c.328 1.083.328 2.182.222 3.29-.008.09-.02.185-.029.276-.012 0-.025 0-.037.004-.065-.182-.131-.364-.193-.55a8.508 8.508 0 00-.537-1.33c-.541-1.033-1.153-2.017-2.014-2.797a4.433 4.433 0 00-1.206-.794c-.148-.062-.165-.05-.169.12 0 .388-.008.78-.008 1.17.013 2.078.013 4.156.05 6.235.024 1.512.09 3.02.155 4.533.054 1.231.115 2.466.197 3.698.066 1.045.16 2.09.246 3.132.05.595.103 1.194.164 1.79.078.726.169 1.45.259 2.173.061.5.144.995.205 1.495.016.129.078.608.197.608.89 0 1.785-.45 2.675-.45h.188c.132.008.214.095.214.214 0 .124-.086.215-.222.224-.094.004-.189 0-.283 0h-9.8c-.087 0-.173 0-.259-.005-.119-.012-.185-.082-.189-.206 0-.128.066-.211.189-.228.05-.004.099 0 .148 0 1.013 0 1.136.447 2.153.447.128 0 1.129-.095 1.145-.223.082-.57.16-1.591.23-2.161.086-.707.168-1.414.246-2.124.066-.608.119-1.22.168-1.83.082-1.092.16-2.183.234-3.274.053-.805.107-1.611.135-2.417.078-2.21.168-4.417.214-6.628.04-2.04.028-4.086.037-6.128 0-.227-.041-.243-.255-.14-.8.388-1.427.987-1.965 1.686a11.158 11.158 0 00-1.665 3.066c-.074.21-.144.421-.214.628-.008.029-.028.05-.057.095-.008-.05-.02-.074-.02-.1-.025-.644-.09-1.288-.062-1.929.061-1.314.468-2.516 1.309-3.545a6.1 6.1 0 011.025-.984.305.305 0 00.099-.128c-.054 0-.107-.012-.156 0-.567.149-1.137.281-1.69.463-.587.19-1.166.41-1.728.653-1.304.566-2.502 1.301-3.507 2.326-.238.244-.451.52-.677.777-.041.05-.09.095-.156.165-.008-.062-.017-.09-.012-.115a5.518 5.518 0 011.132-2.91c.804-1.04 1.797-1.855 2.99-2.4a9.571 9.571 0 012.405-.752c.061-.008.123-.033.184-.054v-.041c-.086-.033-.168-.07-.254-.095-.665-.182-1.325-.385-1.994-.537-.611-.14-1.239-.236-1.858-.34a11.418 11.418 0 00-2.22-.16c-.554.016-1.103.082-1.653.132-.07.004-.14.033-.21.045-.012 0-.024-.008-.057-.016.033-.037.054-.066.082-.087.452-.339.886-.698 1.391-.959a6.64 6.64 0 011.465-.54c.824-.203 1.661-.224 2.498-.125.3.033.595.095.886.161.694.157 1.387.335 2.023.661.328.17.64.368.96.558l.07.046c.012-.17-1.178-1.661-2.253-2.843a26.01 26.01 0 00-2.63-2.541c.021-.038 0 .004.017-.034 1.124.257 2.182.666 3.18 1.252a9.228 9.228 0 012.94 2.715c.058.083.107.17.165.252.024.033.057.058.115.108.012-.087.02-.136.024-.19.054-.81.086-1.624.168-2.43.103-.971.259-1.934.534-2.872.07-.248.148-.496.225-.74.013-.04.05-.078.095-.111.73 2.041.902 4.174 1.034 6.322a9.537 9.537 0 012.773-2.793 9.935 9.935 0 013.614-1.48l-.02.013zM7.929 86.047l.225.198L.372 104.22H.048l7.88-18.177v.004zm-3.332 7.959h7.68v.301h-7.68v-.302zm2.683-8.913h2.285l8.353 19.127h-2.285L7.28 85.093zM19.04 94.659c0-5.558 4.176-9.74 9.719-9.74 5.542 0 9.694 4.306 9.694 9.715s-4.053 9.764-9.694 9.764c-5.641 0-9.719-4.182-9.719-9.74zm17.275 0c0-5.682-2.81-9.438-7.556-9.438-4.747 0-7.606 3.731-7.606 9.438 0 5.706 2.835 9.438 7.606 9.438 4.77 0 7.556-3.732 7.556-9.438zm-5.095 9.363l.275-.124c1.042 1.827 2.338 4.107 5.272 4.107 1.64 0 3.43-.999 3.43-3.053h.299c0 2.252-1.99 3.355-3.73 3.355-3.183 0-4.475-2.405-5.542-4.281l-.004-.004zM42.303 96.56V85.091h2.063V97.06c0 4.029 1.965 6.959 5.891 6.959s6.19-2.678 6.19-7.385v-11.54h.3v11.49c0 5.034-2.683 7.811-6.736 7.811-5.144 0-7.704-2.604-7.704-7.835h-.004zM66.865 86.047l.226.198-7.779 17.975h-.324l7.881-18.177-.004.004zm-3.331 7.959h7.68v.301h-7.68v-.302zm2.683-8.913h2.285l8.352 19.127H74.57l-8.352-19.127zM84.36 85.093h5.17c3.007 0 5.468 1.227 5.493 4.107.024 3.231-2.236 4.805-7.98 4.805h-.57l-.05 10.215H84.36V85.093zm2.733 8.615c4.55 0 6.038-1.703 6.014-4.508-.025-2.48-1.268-3.806-4.053-3.806H86.42l.049 8.314h.624zm5.67 3.752c-1.145-2.277-1.44-3.454-3.952-3.454h-1.788v-.302h1.965c4.3 0 4.771 1.45 5.817 3.529l3.553 6.983H96.17l-3.405-6.76-.004.004zM100.37 85.093h2.064v19.127h-2.064V85.093zm.771 0h9.867v.301h-9.867v-.302zm0 7.31h8.624v.3h-8.624v-.3zm0 11.52h10.117v.301h-10.117v-.301zM112.548 98.613h.299c0 3.178 2.31 5.459 5.867 5.484 2.835 0 5.468-1.604 5.468-5.033 0-6.108-10.465-2.781-10.465-9.413 0-2.806 2.285-4.732 5.768-4.732 3.257 0 5.021 1.93 5.021 3.83h-.299c0-1.677-1.543-3.478-4.697-3.528-2.81-.05-4.796 1.326-4.796 3.281 0 5.409 10.539 2.326 10.539 9.24 0 4.28-2.958 6.66-6.51 6.66-3.754 0-6.191-2.355-6.191-5.785l-.004-.004zm11.954-9.863c0 .727-.197 1.302-.422 1.653l-.25-.149c.225-.351.373-.826.373-1.504h.299zM128.085 85.093h2.063v19.127h-2.063V85.093zm.771 0h9.867v.301h-9.867v-.302zm0 7.31h8.624v.3h-8.624v-.3zm0 11.52h10.117v.301h-10.117v-.301zM142.078 85.093h5.169c3.007 0 5.469 1.227 5.493 4.107.025 3.231-2.235 4.805-7.979 4.805h-.57l-.049 10.215h-2.064V85.093zm2.732 8.615c4.55 0 6.039-1.703 6.015-4.508-.025-2.48-1.268-3.806-4.054-3.806h-2.633l.049 8.314h.623zm5.67 3.752c-1.145-2.277-1.44-3.454-3.951-3.454h-1.788v-.302h1.965c4.299 0 4.771 1.45 5.817 3.529l3.553 6.983h-2.187l-3.405-6.76-.004.004zM156.396 85.093h2.235l7.331 17.201h-.299l7.134-17.201h.324l-7.954 19.127h-.62l-8.151-19.127zM175.164 85.093h2.064v19.127h-2.064V85.093zm.767 0h9.867v.301h-9.867v-.302zm0 7.31h8.624v.3h-8.624v-.3zm0 11.52h10.117v.301h-10.117v-.301zM19.863 112.979v4.48h2.761v.318H19.52v-4.798h.348-.004zM25 116.877c.118.206.282.363.492.471.209.111.447.165.713.165.267 0 .51-.054.723-.165a1.25 1.25 0 00.496-.471 1.42 1.42 0 00.18-.719v-3.174h.34v3.194c0 .343-.073.637-.225.885a1.51 1.51 0 01-.62.57 1.95 1.95 0 01-.89.198c-.332 0-.619-.066-.881-.198a1.51 1.51 0 01-.62-.57c-.152-.248-.226-.542-.226-.885v-3.194h.35v3.174c0 .276.057.516.175.719H25zM33.068 117.777l-1.49-2.19-1.427 2.19h-.426l1.661-2.467-1.587-2.331h.43l1.42 2.075 1.353-2.075h.41l-1.583 2.352 1.674 2.446h-.439.004zM35.83 116.877c.118.206.282.363.492.471.209.111.447.165.713.165.267 0 .51-.054.723-.165.209-.112.377-.269.496-.471.119-.207.18-.447.18-.719v-3.174h.341v3.194c0 .343-.074.637-.226.885a1.51 1.51 0 01-.62.57 1.95 1.95 0 01-.89.198c-.332 0-.619-.066-.881-.198a1.51 1.51 0 01-.62-.57c-.152-.248-.225-.542-.225-.885v-3.194h.348v3.174c0 .276.058.516.177.719h-.009zM43.877 117.777l-1.32-2.041a2.363 2.363 0 01-.378.029h-.78v2.012h-.348v-4.798h1.148c.267 0 .522.05.764.149.242.099.443.248.594.455.152.202.23.454.23.756s-.07.558-.213.793a1.226 1.226 0 01-.66.517l1.361 2.128h-.406.008zm-.734-2.653a1.1 1.1 0 00.295-.769c0-.19-.049-.363-.143-.528a1.035 1.035 0 00-.415-.385c-.18-.095-.39-.14-.623-.14h-.85v2.148h.76c.46 0 .787-.107.98-.322l-.004-.004zM49.724 112.979l-1.88 3.087v1.711h-.348v-1.711l-1.879-3.087h.427l1.637 2.715 1.624-2.715h.419zM58.285 117.992l-1.157-2.885L55.943 118l-1.986-5.008h.398l1.625 4.231.98-2.525-.681-1.702h.349l1.673 4.19 1.637-4.19h.37l-2.023 5v-.004zM64.377 116.19h-2.219l-.669 1.587h-.348l2.129-5.008h.028l2.13 5.008h-.39l-.66-1.587zm-.127-.31l-.972-2.359-.993 2.359h1.965zM69.818 112.979v.319h-1.481v4.479h-.349v-4.479H66.52v-.319h3.299zM74.834 112.979v.319h-2.76v1.905h2.481v.318h-2.482v1.938h2.86v.318h-3.208v-4.798h3.109zM79.791 117.777l-1.32-2.041a2.361 2.361 0 01-.378.029h-.78v2.012h-.348v-4.798h1.148c.267 0 .522.05.764.149.242.099.443.248.594.455.152.202.23.454.23.756s-.07.558-.213.793a1.226 1.226 0 01-.66.517l1.361 2.128h-.406.008zm-.734-2.653a1.1 1.1 0 00.296-.769c0-.19-.05-.363-.144-.528a1.036 1.036 0 00-.415-.385c-.18-.095-.39-.14-.623-.14h-.85v2.148h.76c.46 0 .787-.107.98-.322l-.004-.004zM84.989 112.979v.319h-2.474v1.979h2.19v.31h-2.19v2.19h-.349v-4.798h2.823zM89.8 117.777l-1.322-2.041a2.361 2.361 0 01-.377.029h-.78v2.012h-.348v-4.798h1.148c.267 0 .521.05.763.149.242.099.444.248.595.455.152.202.23.454.23.756s-.07.558-.213.793a1.226 1.226 0 01-.66.517l1.361 2.128h-.406.008zm-.735-2.653a1.1 1.1 0 00.295-.769c0-.19-.049-.363-.143-.528a1.036 1.036 0 00-.415-.385c-.18-.095-.39-.14-.623-.14h-.85v2.148h.76c.459 0 .787-.107.98-.322l-.004-.004zM92.155 114.161a2.57 2.57 0 01.936-.896c.394-.224.82-.335 1.284-.335.463 0 .894.111 1.292.335.398.223.71.52.944.896.23.376.348.785.348 1.228 0 .442-.115.851-.348 1.227a2.52 2.52 0 01-.944.892 2.636 2.636 0 01-1.292.327c-.464 0-.899-.108-1.293-.318a2.371 2.371 0 01-.93-.881 2.376 2.376 0 01-.345-1.247c0-.459.114-.852.348-1.228zm.304 2.294a2.215 2.215 0 001.908 1.057c.402 0 .779-.095 1.124-.285.344-.19.615-.446.812-.772.197-.327.3-.682.3-1.071 0-.388-.1-.743-.3-1.07a2.242 2.242 0 00-1.924-1.07c-.402 0-.78.099-1.12.293-.34.195-.607.459-.8.785a2.085 2.085 0 00-.291 1.067c0 .38.098.735.3 1.061l-.01.005zM103.18 112.98v4.913h-.013l-3.88-4.161.008 4.045h-.34v-4.896h.02l3.881 4.194-.009-4.095h.333zM108.385 112.98v.318h-1.481v4.479h-.348v-4.479h-1.469v-.318h3.298zM116.073 112.98v.318h-1.481v4.479h-.349v-4.479h-1.469v-.318h3.299zM117.758 114.161a2.58 2.58 0 01.935-.897 2.56 2.56 0 011.284-.335c.464 0 .895.112 1.293.335.398.223.709.521.943.897.23.376.349.785.349 1.227 0 .442-.115.851-.349 1.227a2.522 2.522 0 01-.943.893 2.637 2.637 0 01-1.293.326c-.463 0-.898-.107-1.292-.318a2.362 2.362 0 01-.931-.88 2.376 2.376 0 01-.345-1.248c0-.459.115-.851.349-1.227zm.303 2.293a2.217 2.217 0 001.908 1.058c.402 0 .78-.095 1.124-.285a2.12 2.12 0 00.812-.773c.197-.327.3-.682.3-1.07a2 2 0 00-.3-1.071 2.246 2.246 0 00-1.924-1.07 2.228 2.228 0 00-1.92 1.079c-.192.33-.291.686-.291 1.066s.099.735.3 1.062l-.009.004zM128.1 117.991l-1.157-2.884-1.186 2.892-1.986-5.008h.398l1.625 4.231.98-2.524-.681-1.703h.349l1.674 4.19 1.637-4.19h.369l-2.022 5v-.004zM136.206 112.979v4.913h-.012l-3.881-4.161.008 4.045h-.341v-4.896h.021l3.881 4.194-.008-4.095h.332zM142.248 117.777h-.349v-2.257h-3.036v2.257h-.348v-4.798h.348v2.232h3.036v-2.232h.349v4.798zM144.591 114.161a2.58 2.58 0 01.935-.897 2.56 2.56 0 011.284-.335c.464 0 .895.112 1.293.335.398.223.709.521.943.897.23.376.349.785.349 1.227 0 .442-.115.851-.349 1.227a2.522 2.522 0 01-.943.893 2.637 2.637 0 01-1.293.326c-.463 0-.898-.107-1.292-.318a2.362 2.362 0 01-.931-.88 2.376 2.376 0 01-.345-1.248c0-.459.115-.851.349-1.227zm.303 2.293a2.217 2.217 0 001.908 1.058c.402 0 .78-.095 1.124-.285a2.12 2.12 0 00.812-.773c.197-.327.3-.682.3-1.07a2 2 0 00-.3-1.071 2.246 2.246 0 00-1.924-1.07 2.228 2.228 0 00-1.92 1.079c-.192.33-.291.686-.291 1.066s.099.735.3 1.062l-.009.004zM156.209 112.872v4.904h-.34v-3.938l-2.072 2.777h-.013l-2.055-2.743v3.904h-.34v-4.904h.008l2.396 3.247 2.412-3.247h.008-.004zM161.628 112.979v.318h-2.761v1.905h2.482v.318h-2.482v1.938h2.86v.319h-3.208v-4.798h3.109zM165.714 113.326a2.47 2.47 0 00-.611-.082c-.332 0-.595.078-.796.231a.736.736 0 00-.299.599c0 .17.053.319.16.434.106.12.242.219.406.298.164.078.377.165.64.26.283.099.521.203.705.306a1.4 1.4 0 01.472.421c.127.178.193.405.193.686s-.066.5-.197.707c-.131.206-.32.363-.558.475a1.91 1.91 0 01-.82.169c-.534 0-1.063-.165-1.588-.491l.164-.269c.176.128.39.236.644.331.254.095.505.14.747.14.213 0 .414-.041.607-.12.193-.078.349-.198.468-.359a.942.942 0 00.18-.579.852.852 0 00-.168-.533 1.235 1.235 0 00-.419-.347 5.02 5.02 0 00-.635-.268 6.784 6.784 0 01-.702-.285 1.368 1.368 0 01-.464-.368.865.865 0 01-.188-.575c0-.231.061-.425.18-.599a1.16 1.16 0 01.505-.405c.213-.095.455-.148.718-.153.225 0 .463.029.705.087.242.058.46.132.649.223l-.136.257a3.478 3.478 0 00-.566-.195l.004.004z" fill="#fff"/></svg>