<svg width="171" height="26" viewBox="0 0 171 26" fill="none" xmlns="http://www.w3.org/2000/svg"><path d="M.21 1.193c1.383 0 2.755-.005 4.116-.016 1.373-.011 2.629-.022 3.769-.033 1.14-.023 2.114-.05 2.922-.083.808-.034 1.356-.078 1.643-.133l-.813 2.208c-.365-.1-.791-.188-1.278-.266a24.16 24.16 0 00-1.544-.183 19.023 19.023 0 00-3.038-.066c-.366.011-.72.028-1.063.05l-1.212.066v9.065a61.71 61.71 0 003.088-.1c.919-.055 1.699-.11 2.34-.166a31.373 31.373 0 001.993-.232l-.515 2.407c-.763-.1-1.544-.194-2.34-.282a51.233 51.233 0 00-2.242-.2c-.808-.066-1.582-.1-2.324-.1v10.41c1.306 0 2.507-.055 3.603-.166a40.093 40.093 0 002.872-.382 26.76 26.76 0 002.606-.548l-.481 2.69a15.764 15.764 0 00-.598-.033 247.743 247.743 0 00-1.926-.066c-.354 0-.691-.006-1.012-.017-.321 0-.61-.006-.864-.017H.21v-.066c.067-.233.127-.52.183-.864.066-.343.122-.769.166-1.278.044-.51.077-1.112.1-1.81.022-.708.033-1.532.033-2.473V7.7c0-.94-.011-1.76-.034-2.457a33.619 33.619 0 00-.1-1.826c-.043-.52-.099-.952-.165-1.295a7.638 7.638 0 00-.183-.863v-.067zM22.08 23.54c1.306 0 2.507-.055 3.603-.166a40.095 40.095 0 002.872-.382c.951-.155 1.82-.337 2.606-.548l-.481 2.69a15.76 15.76 0 00-.598-.033 247.84 247.84 0 00-1.926-.066c-.354 0-.691-.006-1.012-.017-.321 0-.61-.006-.864-.017H18.577v-.066c.067-.233.127-.52.183-.864.066-.343.121-.769.166-1.278.044-.51.077-1.112.1-1.81a80.5 80.5 0 00.033-2.473V7.7c0-.94-.012-1.76-.034-2.457a33.553 33.553 0 00-.1-1.826c-.044-.52-.099-.952-.165-1.295a7.653 7.653 0 00-.183-.863v-.067h3.984v.067c-.066.232-.132.52-.199.863-.055.343-.105.775-.15 1.295-.032.51-.066 1.118-.099 1.826a78.538 78.538 0 00-.033 2.457V23.54zM35.916 1.193c1.383 0 2.756-.005 4.117-.016 1.372-.011 2.629-.022 3.769-.033 1.14-.023 2.114-.05 2.921-.083.808-.034 1.356-.078 1.644-.133l-.813 2.208c-.366-.1-.792-.188-1.279-.266a24.16 24.16 0 00-1.544-.183 19.024 19.024 0 00-3.038-.066c-.365.011-.72.028-1.062.05l-1.212.066v9.065c1.14-.011 2.169-.044 3.088-.1.918-.055 1.699-.11 2.34-.166a31.384 31.384 0 001.993-.232l-.515 2.407c-.764-.1-1.544-.194-2.34-.282a51.239 51.239 0 00-2.242-.2 28.41 28.41 0 00-2.324-.1v10.41c1.306 0 2.507-.055 3.602-.166a40.095 40.095 0 002.872-.382c.952-.155 1.821-.337 2.607-.548l-.482 2.69a15.772 15.772 0 00-.597-.033 246.722 246.722 0 00-1.926-.066c-.354 0-.692-.006-1.013-.017-.32 0-.608-.006-.863-.017H35.916v-.066a7.63 7.63 0 00.182-.864c.067-.343.122-.769.166-1.278.045-.51.078-1.112.1-1.81a80.5 80.5 0 00.033-2.473V7.7c0-.94-.01-1.76-.033-2.457a33.758 33.758 0 00-.1-1.826c-.044-.52-.1-.952-.166-1.295a7.63 7.63 0 00-.182-.863v-.067zm39.319 21.018c0 .122-.017.249-.05.382a.554.554 0 01-.183.332c-.498.376-1.04.725-1.626 1.046a12.601 12.601 0 01-4.068 1.344c-.775.133-1.61.2-2.507.2-2.014 0-3.851-.294-5.511-.88-1.66-.598-3.088-1.439-4.284-2.524a11.264 11.264 0 01-2.755-3.901c-.653-1.527-.98-3.22-.98-5.08 0-1.052.133-2.086.398-3.105a12.558 12.558 0 011.196-2.905c.52-.918 1.162-1.76 1.926-2.523a12.293 12.293 0 012.606-2.01 13.318 13.318 0 013.237-1.31C63.82.954 65.097.794 66.47.794c.532 0 1.074.028 1.627.083.554.044 1.102.116 1.644.216.542.088 1.062.199 1.56.332.51.133.991.282 1.445.448l1.129 3.071-.133.067a9.249 9.249 0 00-1.494-1.08 11.853 11.853 0 00-3.835-1.427 10.487 10.487 0 00-2.125-.216c-1.395 0-2.673.221-3.835.664a8.365 8.365 0 00-3.005 1.893c-.83.83-1.478 1.848-1.943 3.054-.464 1.207-.697 2.58-.697 4.118 0 1.693.222 3.265.664 4.714.443 1.45 1.102 2.707 1.976 3.769.874 1.063 1.964 1.898 3.27 2.507 1.317.598 2.85.896 4.599.896.775 0 1.466-.06 2.075-.182a8.134 8.134 0 001.544-.449c.42-.188.736-.387.946-.597.222-.222.332-.42.332-.598v-.647c0-.775-.01-1.445-.033-2.01a21.871 21.871 0 00-.1-1.46c-.044-.42-.093-.78-.149-1.08a7.627 7.627 0 00-.199-.83v-.066h3.984v.067c-.066.232-.132.509-.199.83-.055.31-.105.68-.15 1.112-.044.432-.077.94-.099 1.527a52.909 52.909 0 00-.033 2.01v.68zM98.019 25v-.066a.974.974 0 00.05-.25c.01-.11.016-.21.016-.298a4.8 4.8 0 00-.15-1.13c-.088-.42-.265-.94-.53-1.56l-2.01-4.515a72.532 72.532 0 00-2.473-.034H87.045c-.808 0-1.538.012-2.191.034l-1.91 4.383c-.165.409-.342.857-.53 1.344a4.07 4.07 0 00-.283 1.478c0 .144.011.265.034.365a.64.64 0 00.066.183V25h-3.387v-.066c.2-.21.448-.582.747-1.113.299-.542.626-1.217.98-2.025l9.512-21.1h1.329l9.014 20.286c.21.476.426.941.648 1.395.232.443.448.841.647 1.195.199.354.376.653.531.897.155.243.26.398.316.465V25h-4.549zm-10.758-9.28h1.976c.675-.011 1.333-.017 1.975-.017.653-.01 1.279-.016 1.876-.016.598-.011 1.14-.023 1.627-.034L90.05 5.111 85.468 15.72h1.793zm19.995-14.527l17.1 18.196V7.7c0-.94-.011-1.76-.034-2.457a33.823 33.823 0 00-.099-1.826c-.044-.52-.1-.952-.166-1.295a7.429 7.429 0 00-.183-.863v-.067h2.955v.067c-.066.232-.127.52-.182.863-.056.343-.105.775-.15 1.295-.044.51-.077 1.118-.099 1.826a78.912 78.912 0 00-.034 2.457v17.631h-.581L108.684 7.153V18.51c0 .94.011 1.765.033 2.473.022.698.055 1.3.1 1.81.044.51.094.935.149 1.278.055.343.116.631.183.864V25h-2.955v-.066c.066-.233.127-.52.182-.864.067-.343.122-.769.166-1.278.044-.51.078-1.112.1-1.81a80.88 80.88 0 00.033-2.473V7.7c0-.94-.011-1.76-.033-2.457a33.714 33.714 0 00-.1-1.826c-.044-.52-.099-.952-.166-1.295a7.667 7.667 0 00-.182-.863v-.067h1.062zm45.163 3.653l-.149.066c-.864-.797-1.904-1.433-3.122-1.91-1.206-.475-2.534-.713-3.984-.713-1.394 0-2.673.221-3.835.664a8.366 8.366 0 00-3.005 1.893c-.83.83-1.477 1.848-1.942 3.054-.465 1.207-.697 2.58-.697 4.118 0 1.693.221 3.276.664 4.748.442 1.46 1.101 2.728 1.975 3.801a9.296 9.296 0 003.271 2.54c1.317.61 2.85.913 4.598.913.631 0 1.262-.066 1.893-.199a9.097 9.097 0 001.81-.58 9.623 9.623 0 001.643-.947c.52-.376.991-.803 1.411-1.278l.183.116-1.328 3.387c-.83.32-1.749.564-2.756.73-.996.177-2.003.266-3.022.266-2.047 0-3.923-.294-5.628-.88-1.693-.598-3.154-1.439-4.382-2.524a11.517 11.517 0 01-2.856-3.901c-.675-1.527-1.013-3.22-1.013-5.08 0-1.052.133-2.086.399-3.105a12.575 12.575 0 011.195-2.905c.52-.918 1.162-1.76 1.926-2.523a12.298 12.298 0 012.606-2.01 13.326 13.326 0 013.238-1.31c1.184-.322 2.462-.482 3.835-.482 2.136 0 4.117.326 5.943.98l1.129 3.07zm5.452-3.653c1.383 0 2.756-.005 4.117-.016 1.372-.011 2.629-.022 3.769-.033 1.14-.023 2.114-.05 2.922-.083.807-.034 1.355-.078 1.643-.133l-.813 2.208c-.366-.1-.792-.188-1.279-.266-.42-.066-.935-.127-1.544-.183a19.008 19.008 0 00-3.038-.066c-.365.011-.719.028-1.062.05l-1.212.066v9.065a61.728 61.728 0 003.088-.1c.918-.055 1.699-.11 2.341-.166a31.463 31.463 0 001.992-.232l-.515 2.407c-.764-.1-1.544-.194-2.341-.282a51.186 51.186 0 00-2.241-.2c-.808-.066-1.583-.1-2.324-.1v10.41c1.306 0 2.507-.055 3.602-.166a40.069 40.069 0 002.872-.382 26.772 26.772 0 002.607-.548l-.482 2.69a15.69 15.69 0 00-.597-.033 248.752 248.752 0 00-1.926-.066c-.354 0-.692-.006-1.013-.017-.321 0-.608-.006-.863-.017H157.871v-.066a7.87 7.87 0 00.183-.864c.066-.343.121-.769.166-1.278.044-.51.077-1.112.099-1.81a80.88 80.88 0 00.033-2.473V7.7c0-.94-.011-1.76-.033-2.457a33.823 33.823 0 00-.099-1.826c-.045-.52-.1-.952-.166-1.295a7.871 7.871 0 00-.183-.863v-.067z" fill="#fff"/></svg>