<svg width="213" height="13" viewBox="0 0 213 13" fill="none" xmlns="http://www.w3.org/2000/svg"><path d="M5.62.608c1.377 0 2.513.341 3.409 1.024.896.672 1.514 1.595 1.856 2.768H9.349a3.715 3.715 0 00-1.392-1.776c-.64-.448-1.424-.672-2.352-.672-.736 0-1.398.181-1.984.544-.576.352-1.035.864-1.376 1.536-.331.661-.496 1.44-.496 2.336 0 .885.165 1.659.496 2.32.341.661.8 1.173 1.376 1.536.586.352 1.248.528 1.984.528.928 0 1.712-.219 2.352-.656a3.808 3.808 0 001.392-1.792h1.536c-.342 1.173-.96 2.101-1.856 2.784-.896.672-2.032 1.008-3.408 1.008-1.056 0-1.99-.24-2.8-.72A5.143 5.143 0 01.917 9.344C.469 8.469.245 7.477.245 6.368c0-1.12.224-2.117.672-2.992.458-.875 1.093-1.552 1.904-2.032.81-.49 1.744-.736 2.8-.736zm12.7-.032c1.045 0 1.984.245 2.816.736a5.208 5.208 0 011.984 2.064c.48.875.72 1.867.72 2.976 0 1.11-.24 2.107-.72 2.992a5.236 5.236 0 01-1.984 2.048c-.832.49-1.77.736-2.816.736-1.046 0-1.995-.245-2.848-.736a5.235 5.235 0 01-1.984-2.048c-.48-.885-.72-1.883-.72-2.992 0-1.11.24-2.101.72-2.976a5.208 5.208 0 011.984-2.064c.853-.49 1.802-.736 2.848-.736zm0 1.36c-.779 0-1.478.181-2.096.544-.608.352-1.088.864-1.44 1.536-.342.661-.512 1.44-.512 2.336 0 .885.17 1.664.512 2.336.352.672.832 1.19 1.44 1.552.618.352 1.317.528 2.096.528.768 0 1.456-.181 2.064-.544a3.71 3.71 0 001.44-1.536c.352-.672.528-1.45.528-2.336 0-.896-.176-1.675-.528-2.336a3.586 3.586 0 00-1.44-1.536c-.608-.363-1.296-.544-2.064-.544zm14.416 7.456h-4.96L26.832 12h-1.568L29.44.928h1.648L35.248 12H33.68l-.944-2.608zm-.416-1.136L30.256 2.56l-2.064 5.696h4.128zm11.858.816c0 .533-.128 1.03-.384 1.488-.256.459-.646.832-1.168 1.12-.523.288-1.168.432-1.936.432-.747 0-1.414-.133-2-.4a3.721 3.721 0 01-1.392-1.12 3.255 3.255 0 01-.592-1.632h1.552c.032.32.138.635.32.944.192.299.458.55.8.752.352.192.773.288 1.264.288.64 0 1.13-.17 1.472-.512.341-.341.512-.779.512-1.312 0-.459-.123-.832-.368-1.12a2.395 2.395 0 00-.88-.672c-.352-.17-.832-.352-1.44-.544a16.445 16.445 0 01-1.728-.656 3.097 3.097 0 01-1.104-.944c-.299-.416-.448-.965-.448-1.648 0-.587.138-1.104.416-1.552A2.84 2.84 0 0138.29.944c.533-.245 1.157-.368 1.872-.368 1.11 0 1.99.272 2.64.816a3.062 3.062 0 011.136 2.048H42.37c-.086-.448-.315-.843-.688-1.184-.374-.341-.88-.512-1.52-.512-.587 0-1.056.155-1.408.464-.352.299-.528.725-.528 1.28 0 .437.112.795.336 1.072.234.267.522.48.864.64.341.15.81.32 1.408.512.725.235 1.306.459 1.744.672a2.92 2.92 0 011.136.976c.31.427.464.997.464 1.712zM53.368.72v1.184h-3.184V12h-1.456V1.904h-3.184V.72h7.824zm8.375 8.672h-4.96L55.839 12H54.27L58.447.928h1.648L64.255 12h-1.568l-.944-2.608zm-.416-1.136L59.263 2.56l-2.064 5.696h4.128zm6.178 2.608h4V12h-5.456V.72h1.456v10.144zm11.53 0h4V12H77.58V.72h1.456v10.144zM86.293.72V12h-1.456V.72h1.456zm3.397 0l3.44 9.664L96.618.72h1.584L94.058 12h-1.84L88.09.72h1.6zm11.758 0V12h-1.456V.72h1.456zM112.877 12h-1.456l-5.856-8.912V12h-1.456V.72h1.456l5.856 8.928V.72h1.456V12zM120.659.608c1.312 0 2.41.325 3.296.976.896.65 1.498 1.536 1.808 2.656h-1.536a3.44 3.44 0 00-1.344-1.648c-.619-.416-1.355-.624-2.208-.624-.768 0-1.456.181-2.064.544a3.74 3.74 0 00-1.44 1.52c-.342.661-.512 1.44-.512 2.336 0 .917.176 1.712.528 2.384a3.814 3.814 0 001.456 1.536c.629.352 1.349.528 2.16.528.693 0 1.328-.15 1.904-.448a3.65 3.65 0 001.408-1.296c.373-.576.597-1.248.672-2.016h-4.432V5.968h5.664v1.344a5.61 5.61 0 01-.832 2.432 4.999 4.999 0 01-1.856 1.728c-.779.427-1.664.64-2.656.64-1.088 0-2.048-.24-2.88-.72a5.183 5.183 0 01-1.952-2.032c-.459-.875-.688-1.872-.688-2.992 0-1.12.229-2.112.688-2.976a5.155 5.155 0 011.952-2.048c.832-.49 1.786-.736 2.864-.736zM138.569 12l-2.944-4.608h-1.584V12h-1.456V.72h3.712c1.28 0 2.24.31 2.88.928.64.608.96 1.419.96 2.432 0 .917-.256 1.659-.768 2.224-.512.555-1.253.901-2.224 1.04L140.217 12h-1.648zm-4.528-5.664h2.128c1.653 0 2.48-.725 2.48-2.176 0-1.45-.827-2.176-2.48-2.176h-2.128v4.352zm9.648-4.432V5.76h4.288v1.12h-4.288v3.936h4.768V12h-6.224V.72h6.224v1.184h-4.768zm16.462 4.448c0 1.141-.23 2.139-.688 2.992-.459.843-1.136 1.499-2.032 1.968-.886.459-1.952.688-3.2.688h-3.584V.72h3.584c1.248 0 2.314.23 3.2.688a4.559 4.559 0 012.032 1.952c.458.843.688 1.84.688 2.992zm-6.032 4.336c1.472 0 2.597-.379 3.376-1.136.778-.757 1.168-1.824 1.168-3.2 0-1.376-.39-2.443-1.168-3.2-.768-.768-1.894-1.152-3.376-1.152h-2.016v8.688h2.016zm9.772-8.784V5.76h4.288v1.12h-4.288v3.936h4.768V12h-6.224V.72h6.224v1.184h-4.768zM177.233.72v1.184h-4.928v3.904h4.176v1.136h-4.176V12h-1.456V.72h6.384zm3.502 0V12h-1.456V.72h1.456zM192.164 12h-1.456l-5.856-8.912V12h-1.456V.72h1.456l5.856 8.928V.72h1.456V12zm4.117-10.096V5.76h4.288v1.12h-4.288v3.936h4.768V12h-6.224V.72h6.224v1.184h-4.768zm16.462 4.448c0 1.141-.23 2.139-.688 2.992-.459.843-1.136 1.499-2.032 1.968-.886.459-1.952.688-3.2.688h-3.584V.72h3.584c1.248 0 2.314.23 3.2.688a4.559 4.559 0 012.032 1.952c.458.843.688 1.84.688 2.992zm-6.032 4.336c1.472 0 2.597-.379 3.376-1.136.778-.757 1.168-1.824 1.168-3.2 0-1.376-.39-2.443-1.168-3.2-.768-.768-1.894-1.152-3.376-1.152h-2.016v8.688h2.016z" fill="#fff"/></svg>