<svg width="157" height="26" viewBox="0 0 157 26" fill="none" xmlns="http://www.w3.org/2000/svg"><path d="M3.88 23.54c1.307 0 2.508-.056 3.603-.167a40.099 40.099 0 002.872-.382c.952-.155 1.82-.337 2.607-.548l-.482 2.69a15.772 15.772 0 00-.597-.033 246.867 246.867 0 00-1.926-.066c-.354 0-.692-.006-1.013-.017-.32 0-.609-.006-.863-.017H.378v-.066c.066-.233.127-.52.182-.864.067-.343.122-.769.166-1.278.045-.51.078-1.112.1-1.81.022-.708.033-1.532.033-2.473V7.7c0-.94-.01-1.76-.033-2.457a33.618 33.618 0 00-.1-1.826c-.044-.52-.1-.952-.166-1.295a7.637 7.637 0 00-.182-.863v-.067h3.984v.067c-.066.232-.133.52-.2.863-.054.343-.104.775-.149 1.295-.033.51-.066 1.118-.1 1.826a78.754 78.754 0 00-.032 2.457V23.54zm13.986 1.394a7.63 7.63 0 00.182-.864c.056-.343.106-.769.15-1.278.044-.51.077-1.112.1-1.81a80.5 80.5 0 00.033-2.473V7.7c0-.94-.011-1.76-.034-2.457a33.644 33.644 0 00-.1-1.826c-.043-.52-.093-.952-.149-1.295a7.63 7.63 0 00-.182-.863v-.067h3.968v.067c-.067.232-.133.52-.2.863-.055.343-.105.775-.149 1.295-.033.51-.066 1.118-.1 1.826a78.847 78.847 0 00-.033 2.457V18.51c0 .94.011 1.765.033 2.473.034.698.067 1.3.1 1.81.044.51.094.935.15 1.278.066.343.132.631.199.864V25h-3.968v-.066zm14.085-6.425c0 .94.01 1.765.033 2.473.033.698.066 1.3.1 1.81.044.51.093.935.149 1.278.066.343.133.631.199.864V25h-3.984v-.066c.066-.233.127-.52.182-.864.067-.343.122-.769.166-1.278.045-.51.078-1.112.1-1.81a80.5 80.5 0 00.033-2.473V7.7c0-.94-.011-1.76-.033-2.457a33.553 33.553 0 00-.1-1.826c-.044-.52-.1-.952-.166-1.295a7.653 7.653 0 00-.182-.863v-.067h2.789c.94-.01 1.854-.016 2.739-.016l2.523-.033c.797-.023 1.517-.04 2.159-.05a107.88 107.88 0 001.627-.067c.442-.033.758-.066.946-.1l-.814 2.209c-.365-.1-.791-.188-1.278-.266-.42-.066-.935-.127-1.544-.183a19.022 19.022 0 00-3.071-.066c-.399.011-.791.028-1.179.05-.443.022-.907.044-1.394.066v8.384a65.385 65.385 0 003.137-.1c.952-.055 1.771-.11 2.457-.166a40.507 40.507 0 002.158-.232l-.498 2.407c-.83-.1-1.67-.193-2.523-.282a59.634 59.634 0 00-2.357-.2c-.842-.066-1.633-.099-2.374-.099v6.06zM45.986 1.193c1.383 0 2.755-.005 4.117-.016 1.372-.011 2.628-.022 3.768-.033 1.14-.023 2.114-.05 2.922-.083.808-.034 1.356-.078 1.644-.133l-.814 2.208c-.365-.1-.791-.188-1.278-.266a24.16 24.16 0 00-1.544-.183 19.024 19.024 0 00-3.038-.066c-.365.011-.72.028-1.063.05l-1.212.066v9.065c1.14-.011 2.17-.044 3.088-.1.919-.055 1.7-.11 2.341-.166a31.384 31.384 0 001.992-.232l-.514 2.407c-.764-.1-1.544-.194-2.341-.282a51.239 51.239 0 00-2.241-.2 28.41 28.41 0 00-2.325-.1v10.41c1.306 0 2.507-.055 3.603-.166a40.095 40.095 0 002.872-.382c.952-.155 1.82-.337 2.606-.548l-.48 2.69a15.76 15.76 0 00-.599-.033 246.722 246.722 0 00-1.926-.066c-.353 0-.691-.006-1.012-.017-.321 0-.609-.006-.863-.017h-7.703v-.066a7.65 7.65 0 00.182-.864c.067-.343.122-.769.166-1.278.044-.51.078-1.112.1-1.81a80.5 80.5 0 00.033-2.473V7.7c0-.94-.011-1.76-.033-2.457a33.758 33.758 0 00-.1-1.826c-.044-.52-.1-.952-.166-1.295a7.65 7.65 0 00-.182-.863v-.067zM74.28 4.98h-.365a4.46 4.46 0 00-.432-.864 3.582 3.582 0 00-.763-.896 3.805 3.805 0 00-1.146-.714c-.443-.188-.968-.282-1.577-.282-.542 0-1.024.083-1.444.249a2.96 2.96 0 00-1.063.697 3.011 3.011 0 00-.63 1.062c-.145.41-.217.864-.217 1.362 0 .797.222 1.56.665 2.29a13.78 13.78 0 001.693 2.142 40.303 40.303 0 002.191 2.125 27.467 27.467 0 012.192 2.208 12.25 12.25 0 011.676 2.408c.454.83.681 1.726.681 2.69 0 .718-.127 1.443-.382 2.174a5.502 5.502 0 01-1.145 1.942c-.52.576-1.19 1.046-2.009 1.411-.819.355-1.793.532-2.922.532a8.72 8.72 0 01-1.81-.183c-.564-.11-1.09-.249-1.577-.415a11.924 11.924 0 01-1.294-.565 9.908 9.908 0 01-.93-.547l.382-3.67h.415c.121.52.32 1.019.597 1.495.277.465.615.88 1.013 1.245.41.354.874.642 1.395.863.52.21 1.09.316 1.71.316.564 0 1.068-.083 1.51-.25a3.609 3.609 0 001.162-.713c.321-.31.565-.675.73-1.096.178-.42.266-.88.266-1.378 0-.697-.127-1.339-.381-1.926a7.385 7.385 0 00-1.013-1.693 13.01 13.01 0 00-1.411-1.544 71.236 71.236 0 00-1.61-1.494 54.225 54.225 0 01-1.627-1.56c-.52-.532-.991-1.096-1.412-1.694a9.206 9.206 0 01-.996-1.942 6.636 6.636 0 01-.382-2.291c0-.875.166-1.66.498-2.358a5.813 5.813 0 011.345-1.81c.565-.497 1.201-.88 1.91-1.145a6.192 6.192 0 012.19-.398c.554 0 1.063.044 1.528.133.465.088.88.193 1.245.315.377.122.703.243.98.365l.68.299-.116 3.105zm13.504-2.325c-1.306 0-2.485.061-3.536.183-1.052.11-1.96.232-2.723.365-.885.166-1.677.349-2.374.548l.482-2.69c.132.012.332.023.597.034a123.308 123.308 0 001.91.066c.365 0 .708.006 1.029.017.32 0 .603.005.846.016H94.575c.255-.01.542-.016.863-.016.321-.011.659-.017 1.013-.017a247.766 247.766 0 001.926-.066c.265-.011.465-.022.597-.033l.482 2.689c-.709-.2-1.505-.382-2.39-.548a41.546 41.546 0 00-2.723-.365 30.966 30.966 0 00-3.537-.183V18.51c0 .94.011 1.765.034 2.473.033.698.066 1.3.1 1.81.044.51.093.935.149 1.278.066.343.133.631.199.864V25H87.32v-.066a7.63 7.63 0 00.183-.864c.055-.343.105-.769.15-1.278.043-.51.077-1.112.099-1.81a80.5 80.5 0 00.033-2.473V2.654zm25.457 10.924v4.93c0 .942.011 1.766.033 2.474.022.698.055 1.3.1 1.81.044.51.094.935.149 1.278.066.343.133.631.199.864V25h-3.984v-.066c.066-.233.127-.52.182-.864.067-.343.117-.769.15-1.278.044-.51.077-1.112.1-1.81a54.01 54.01 0 00.049-2.473V13.91l-7.421-10.094a14.176 14.176 0 00-.763-.946 9.444 9.444 0 00-.698-.747 7.962 7.962 0 00-.597-.548 6.102 6.102 0 00-.415-.315v-.067h5.03c0 .255.105.675.315 1.262.222.576.615 1.256 1.179 2.042l5.446 7.454 5.329-7.786c.188-.277.376-.559.564-.847.188-.287.36-.564.515-.83.155-.265.276-.509.365-.73.1-.222.149-.41.149-.565h3.238v.067c-.244.21-.57.525-.98.946-.409.41-.852.957-1.328 1.644l-6.906 9.728zm16.625 9.961c1.306 0 2.506-.055 3.602-.166a40.069 40.069 0 002.872-.382 26.772 26.772 0 002.607-.548l-.482 2.69a15.816 15.816 0 00-.597-.033 248.752 248.752 0 00-1.926-.066c-.354 0-.692-.006-1.013-.017-.321 0-.609-.006-.863-.017H126.364v-.066c.066-.233.127-.52.182-.864.067-.343.122-.769.166-1.278.045-.51.078-1.112.1-1.81a80.88 80.88 0 00.033-2.473V7.7c0-.94-.011-1.76-.033-2.457a32.72 32.72 0 00-.1-1.826c-.044-.52-.099-.952-.166-1.295a7.667 7.667 0 00-.182-.863v-.067h3.984v.067c-.066.232-.133.52-.199.863-.056.343-.105.775-.15 1.295-.033.51-.066 1.118-.099 1.826a79.22 79.22 0 00-.033 2.457V23.54zm13.835-22.346c1.384 0 2.756-.005 4.118-.016 1.372-.011 2.628-.022 3.768-.033 1.14-.023 2.114-.05 2.922-.083.808-.034 1.356-.078 1.644-.133l-.814 2.208c-.365-.1-.791-.188-1.278-.266a24.173 24.173 0 00-1.544-.183 19.034 19.034 0 00-3.038-.066c-.366.011-.72.028-1.063.05l-1.212.066v9.065c1.14-.011 2.17-.044 3.088-.1.919-.055 1.699-.11 2.341-.166a31.29 31.29 0 001.992-.232l-.514 2.407c-.764-.1-1.544-.194-2.341-.282a51.239 51.239 0 00-2.242-.2c-.807-.066-1.582-.1-2.324-.1v10.41c1.306 0 2.507-.055 3.603-.166a40.069 40.069 0 002.872-.382 26.686 26.686 0 002.606-.548l-.481 2.69a15.771 15.771 0 00-.598-.033 243.922 243.922 0 00-1.926-.066c-.354 0-.691-.006-1.012-.017-.321 0-.609-.006-.864-.017H143.702v-.066c.067-.233.128-.52.183-.864.066-.343.122-.769.166-1.278.044-.51.077-1.112.1-1.81a80.88 80.88 0 00.033-2.473V7.7c0-.94-.011-1.76-.033-2.457a34.77 34.77 0 00-.1-1.826c-.044-.52-.1-.952-.166-1.295a7.429 7.429 0 00-.183-.863v-.067z" fill="#fff"/></svg>