<?xml version="1.0" encoding="UTF-8"?>
<svg id="Layer_1" data-name="Layer 1" xmlns="http://www.w3.org/2000/svg" viewBox="0 0 1137.52 421.37">
  <defs>
    <style>
      .cls-1 {
        fill: #2dc495;
      }

      .cls-2 {
        fill: #2a3f34;
      }
    </style>
  </defs>
  <g>
    <path class="cls-1" d="M107.32,345.96c-23.99,0-43.6-9.95-56.76-26.19v21.21H10.32v-204.26h42.57v73.59c12.9-15.19,32.25-24.62,54.43-24.62,41.02,0,72.23,35.88,72.23,80.92s-31.22,79.35-72.23,79.35ZM93.65,308.51c23.73,0,41.28-19.64,41.28-42.95s-17.54-42.42-41.28-42.42-42.05,19.38-42.05,42.69,18.32,42.69,42.05,42.69Z"/>
    <path class="cls-1" d="M306.47,322.65c-9.03,11-25.8,22.26-48.5,22.26-30.44,0-52.89-21.21-52.89-55.78v-98.46h42.57v85.37c0,22.26,12.38,30.64,27.86,30.64,13.67,0,28.89-10.48,28.89-28.02v-87.99h42.57v150.31h-40.5v-18.33Z"/>
    <path class="cls-1" d="M460.23,398.59h-43.86l19.09-53.68-68.11-154.24h48.24l40.76,103.96,36.38-103.96h44.37l-76.88,207.93Z"/>
  </g>
  <g>
    <rect class="cls-1" x="359.73" y="55.2" width="175.43" height="46.58" transform="translate(75.55 339.38) rotate(-45)"/>
    <rect class="cls-1" x="539.81" y="-13.92" width="46.58" height="234.75" transform="translate(91.77 428.48) rotate(-45)"/>
  </g>
  <path class="cls-2" d="M405.65,123.68c1.18,7.9-5.02,13.32-12.44,14.13-18.6,1.77-37.46-7.45-53.2-16.23-16.02-9.42-31.01-21.02-43-35.41-6.91-8.86-16.13-21.17-11.88-33.43,7.56-16.25,31.42-8.43,43.81-3.51,22.78,9.68,43.26,24.62,59.6,43.12,4.03,4.66,1.5,2.63,4.55,8.02l-2.58,1.65c-1.75-2.39,2.55,2.36.56.16-18.05-19.41-40.94-34.59-65.52-44.35-8.09-2.87-22.57-7.74-29.97-3.02-5.41,5.66,5.02,19.85,9.16,25.06,17.36,21.57,59.61,52.84,87.94,52.95,5.47-.12,10.1-3.04,9.92-8.96,0,0,3.06-.18,3.06-.18h0Z"/>
  <path class="cls-2" d="M405.65,123.68c1.18,7.9-5.02,13.32-12.44,14.13-18.6,1.77-37.46-7.45-53.2-16.23-16.02-9.42-31.01-21.02-43-35.41-6.91-8.86-16.13-21.17-11.88-33.43,7.56-16.25,31.42-8.43,43.81-3.51,22.78,9.68,43.26,24.62,59.6,43.12,4.03,4.66,1.5,2.63,4.55,8.02l-2.58,1.65c-1.75-2.39,2.55,2.36.56.16-18.05-19.41-40.94-34.59-65.52-44.35-8.09-2.87-22.57-7.74-29.97-3.02-5.41,5.66,5.02,19.85,9.16,25.06,17.36,21.57,59.61,52.84,87.94,52.95,5.47-.12,10.1-3.04,9.92-8.96,0,0,3.06-.18,3.06-.18h0Z"/>
  <path class="cls-2" d="M213.88,108.41l-15.72-56.29,59.1-16.5c15.54-4.34,31.66,4.74,36,20.29h0c4.34,15.54-4.74,31.66-20.29,36l-59.1,16.5Z"/>
  <g>
    <path class="cls-2" d="M567.9,335.11h-13.91v-73.04h13.29v9.8c3.51-5.85,10.53-11.71,20.56-11.71s17.55,4.96,21.18,13.74c2.88-6.24,10.4-13.74,22.06-13.74,14.29,0,23.69,10.31,23.69,27.1v47.84h-13.79v-43.64c0-14.38-6.02-18.96-14.67-18.96-7.4,0-14.92,6.11-14.92,17.81v44.79h-13.79v-43.64c0-14.38-6.64-18.96-14.92-18.96-7.27,0-14.79,5.98-14.79,17.69v44.92Z"/>
    <path class="cls-2" d="M701.78,363.1h-14.04l9.9-26.59-33.59-74.44h15.54l24.44,57.26,21.31-57.26h14.29l-37.86,101.03Z"/>
    <path class="cls-2" d="M764.08,335.11h-13.79v-99.25h13.29v34.74c4.64-5.47,13.04-10.43,23.57-10.43,15.67,0,25.95,10.31,25.95,27.1v47.84h-13.79v-43.64c0-14.25-8.27-18.96-17.42-18.96-7.77,0-17.8,5.98-17.8,17.69v44.92Z"/>
    <path class="cls-2" d="M908.74,298.59c0,21.89-17.42,40.21-41.12,40.21s-40.99-18.32-40.99-40.21,17.42-40.21,40.99-40.21,41.12,18.32,41.12,40.21ZM841.18,298.59c0,15.27,11.16,28.12,26.45,28.12s26.57-12.98,26.57-28.12-11.16-28.12-26.57-28.12-26.45,12.85-26.45,28.12Z"/>
    <path class="cls-2" d="M971.8,326.45c-4.76,5.6-13.16,10.56-23.57,10.56-15.54,0-25.95-10.31-25.95-27.1v-47.84h13.79v43.64c0,14.25,8.27,18.96,17.42,18.96,7.77,0,17.8-5.98,17.8-17.69v-44.92h13.79v73.04h-13.29v-8.65Z"/>
    <path class="cls-2" d="M1039.24,263.09v12.85c-5.14-2.93-10.4-4.33-14.67-4.33-6.64,0-10.66,2.8-10.66,7.38,0,3.31,3.38,6.23,11.78,11.58,17.05,11.07,21.44,17.81,21.44,26.08,0,12.47-9.9,20.49-25.45,20.61-6.39,0-15.04-2.42-20.93-5.22v-12.85c7.27,3.94,14.67,6.11,19.3,6.11,8.65-.13,12.54-4.07,12.54-8.65,0-2.8-1.63-6.49-14.92-14.76-14.67-9.67-18.3-14.51-18.3-23.79,0-8.53,7.15-18.45,24.19-18.32,6.02,0,11.41,1.4,15.67,3.31Z"/>
    <path class="cls-2" d="M1099.41,338.92c-25.07,0-41.62-17.69-41.62-40.34s16.17-40.21,38.73-40.21,38.36,17.18,38.36,39.45v3.31h-62.42c1,15.27,11.16,25.58,26.95,25.58,11.28,0,19.81-4.45,25.95-10.69l8.27,9.03c-7.52,7.63-18.43,13.87-34.22,13.87ZM1073.21,290.19h46.38c-2.63-11.83-11.41-19.72-23.06-19.72s-20.56,7.76-23.31,19.72Z"/>
  </g>
</svg>