<?xml version="1.0" encoding="UTF-8"?>
<svg id="Layer_1" data-name="Layer 1" xmlns="http://www.w3.org/2000/svg" viewBox="0 0 347.21 348.73">
  <defs>
    <style>
      .cls-1 {
        fill: #fff;
        fill-rule: evenodd;
      }
    </style>
  </defs>
  <path class="cls-1" d="M179.31,101.07c11.79.43,23.25,2.18,34.2,5.07,11.56,3.03,22.64,7.39,33.01,12.88.09-.05.19-.09.33-.14l-5.26-49.92c-2.42-.28-4.59-1.37-6.2-3.03h0c-.47-.47-.9-.99-1.28-1.56l-54.75,36.71h-.05ZM249.79,118.21c1.89,0,3.6.76,4.83,1.99.14.14.28.28.38.43l19.28-7.39c-.05-.28-.05-.62-.05-.9,0-1.75.66-3.32,1.71-4.55l-29.17-39.55c-.71.28-1.47.47-2.23.62l5.21,49.35h.05,0ZM256.42,123.28c.14.57.24,1.18.24,1.75,0,1.89-.76,3.6-1.99,4.83h0c-.43.43-.9.76-1.37,1.09-.43,6.54-1.23,12.98-2.42,19.28-.66,3.55-1.47,7.1-2.37,10.56l28.61-42.91c-.28-.19-.57-.43-.8-.66h0c-.33-.33-.66-.71-.9-1.14l-18.9,7.25-.1-.05ZM245.86,130.62c-.33-.24-.62-.47-.9-.76h0c-1.14-1.14-1.89-2.7-1.99-4.4-9.8-5.16-20.32-9.33-31.31-12.22-10.8-2.84-22.02-4.5-33.58-4.88-.24.38-.57.76-.9,1.09h0c-1.23,1.23-2.94,1.99-4.83,1.99s-3.6-.76-4.83-1.99h0c-.28-.28-.57-.62-.8-.99-11.08.52-21.88,2.23-32.25,5.07-10.61,2.89-20.74,6.91-30.31,11.94-.09,1.7-.85,3.22-1.99,4.36-.28.28-.57.52-.9.76.38,6.25,1.18,12.36,2.32,18.38,1.14,6.06,2.7,12.03,4.59,17.86,1.23.28,2.32.95,3.22,1.8h0c1.23,1.23,1.99,2.94,1.99,4.83,0,1.52-.47,2.89-1.33,4.03,2.79,6.82,6.06,13.36,9.76,19.56,3.74,6.3,7.96,12.27,12.55,17.9.28-.05.62-.05.9-.05,1.89,0,3.6.76,4.83,1.99h0c1.23,1.23,1.99,2.94,1.99,4.83,0,.62-.09,1.18-.24,1.75,4.21,4.45,8.72,8.62,13.4,12.5,4.78,3.93,9.85,7.63,15.16,10.94.09.05.14.09.43.24h0l.52.28c.47-.09.99-.19,1.56-.19.85,0,1.66.14,2.42.43,5.59-3.46,10.89-7.25,15.96-11.37,4.93-4.03,9.61-8.34,13.97-12.98-.14-.52-.19-1.09-.19-1.66,0-1.89.76-3.6,1.99-4.83h0c1.23-1.23,2.94-1.99,4.83-1.99.28,0,.52,0,.8.05,4.59-5.64,8.81-11.6,12.55-17.9,3.74-6.25,7.01-12.88,9.85-19.75-.76-1.09-1.18-2.42-1.18-3.84,0-1.89.76-3.6,1.99-4.83h0c.8-.81,1.85-1.42,2.98-1.75,1.89-5.87,3.46-11.94,4.64-18.09,1.14-5.97,1.89-12.03,2.27-18.23l.05.14ZM252.53,122.29c-.71-.71-1.66-1.14-2.75-1.14s-2.04.43-2.75,1.14h0c-.71.71-1.14,1.66-1.14,2.75s.43,2.04,1.14,2.75c.71.71,1.66,1.14,2.75,1.14s2.04-.43,2.75-1.14h0c.71-.71,1.14-1.66,1.14-2.75s-.43-2.04-1.14-2.75ZM218.43,219.71c.24.66.33,1.37.33,2.13v.09l48.69,8.38c.33-.76.8-1.42,1.37-1.99h0c.14-.14.33-.28.47-.43l-25.15-48.4c-.71.38-1.47.71-2.27.81-2.94,7.1-6.39,14.02-10.32,20.6-3.93,6.58-8.34,12.88-13.17,18.8h.05ZM218.1,224.78c-.33.71-.8,1.33-1.33,1.89-.28.28-.57.52-.9.76l13.64,42.58c.62-.09,1.23-.14,1.85-.14,2.37,0,4.59.81,6.35,2.13l30.45-34.76c-.8-1.14-1.33-2.51-1.33-3.98l-48.74-8.38v-.09ZM213.13,228.57c-.38.09-.8.09-1.23.09s-.85-.05-1.28-.09c-4.59,4.83-9.52,9.38-14.68,13.64-5.12,4.17-10.56,8.05-16.24,11.6v.43c0,.52-.05,1.04-.19,1.56l42.34,19.8c.52-.99,1.18-1.89,1.94-2.7h0c.8-.81,1.75-1.52,2.79-1.99l-13.55-42.34h.1ZM214.64,219.1c-.71-.71-1.66-1.14-2.75-1.14s-2.04.43-2.75,1.14c-.71.71-1.14,1.66-1.14,2.75s.43,2.04,1.14,2.75h0c.71.71,1.66,1.14,2.75,1.14s2.04-.43,2.75-1.14c.71-.71,1.14-1.66,1.14-2.75s-.43-2.04-1.14-2.75h0ZM246.23,169.41c.57.76.99,1.61,1.18,2.56l28.42-1.75c.47-1.8,1.42-3.41,2.7-4.69h0c1.37-1.37,3.13-2.37,5.07-2.84l-3.93-43.53-33.49,50.2.05.05ZM247.46,174.95c-.19.9-.52,1.7-1.04,2.42l25.53,49.16c.52-.14,1.04-.19,1.61-.24l8.9-43.29c-1.47-.52-2.84-1.37-3.93-2.46h0c-1.89-1.85-3.03-4.45-3.08-7.25l-27.99,1.7v-.05ZM243.49,170.79s-.09-.09-.14-.09h0c-.66-.62-1.56-.99-2.56-.99-1.09,0-2.04.43-2.75,1.14h0c-.71.71-1.14,1.66-1.14,2.75s.43,2.04,1.14,2.75h0c.71.71,1.66,1.14,2.75,1.14s2.04-.43,2.75-1.14c.71-.71,1.14-1.66,1.14-2.75s-.43-2.04-1.14-2.75l-.05-.05ZM68.86,204.03l59.01,14.82c-4.55-5.68-8.76-11.7-12.46-17.95-3.93-6.63-7.39-13.55-10.32-20.65-1.33-.28-2.56-.95-3.46-1.85h0l-.05-.05-33.58,19.99c.62,1.33.95,2.84.95,4.4,0,.47-.05.9-.09,1.33v-.05ZM128.35,222.03l-60.29-15.16c-.38.85-.85,1.7-1.47,2.42l44.09,61.71c1.47-.76,3.13-1.18,4.93-1.18.71,0,1.37.05,2.04.19l14.3-42.15c-.57-.33-1.14-.71-1.61-1.18h0c-1.18-1.18-1.94-2.79-1.99-4.59v-.05ZM173.77,97.94c1.04.24,1.99.71,2.79,1.33l56.17-37.65c-.33-.99-.52-2.08-.52-3.22v-.09l-52.57-8c-.33.9-.9,1.7-1.56,2.37h0c-.9.9-2.08,1.56-3.36,1.85l-.9,43.43h-.05ZM167.9,99.37c.85-.71,1.85-1.18,2.94-1.42l.9-43.43c-1.28-.28-2.42-.95-3.32-1.85h0c-.66-.66-1.18-1.47-1.56-2.37l-52.1,8v.14c0,1.14-.19,2.27-.52,3.32l53.66,37.65v-.05ZM175.05,101.88c-.71-.71-1.66-1.14-2.75-1.14s-2.04.43-2.75,1.14c-.71.71-1.14,1.66-1.14,2.75s.43,2.04,1.14,2.75h0c.71.71,1.66,1.14,2.75,1.14s2.04-.43,2.75-1.14h0c.71-.71,1.14-1.66,1.14-2.75s-.43-2.04-1.14-2.75ZM136.4,228.52c-.38.05-.76.09-1.14.09h-.38l-14.35,42.34c.99.52,1.85,1.14,2.61,1.94h0c.52.52.95,1.04,1.37,1.66l41.63-19.28c-.05-.33-.09-.71-.09-1.09s.05-.81.09-1.18c-5.4-3.46-10.61-7.2-15.58-11.27-5.02-4.12-9.76-8.53-14.16-13.21ZM138.01,219c-.71-.71-1.66-1.14-2.75-1.14s-2.04.43-2.75,1.14c-.71.71-1.14,1.66-1.14,2.75s.43,2.04,1.14,2.75h0c.71.71,1.66,1.14,2.75,1.14s2.04-.43,2.75-1.14c.71-.71,1.14-1.66,1.14-2.75s-.43-2.04-1.14-2.75h0ZM243.87,319.79c1.52,0,2.94.47,4.07,1.33l61.85-54.23c-.09-.19-.19-.38-.28-.52l-67.54,13.4v.57c0,2.94-1.18,5.54-3.08,7.48-.95.95-2.08,1.7-3.32,2.23l8,29.74h.33-.05ZM249.88,323.34c.52.99.85,2.08.85,3.32,0,1.89-.76,3.6-1.99,4.83-1.23,1.23-2.94,1.99-4.83,1.99s-3.6-.76-4.83-1.99h0c-.57-.57-1.04-1.23-1.37-1.99l-57.5,12.46c0,1.89-.76,3.6-1.99,4.78-1.23,1.23-2.94,1.99-4.83,1.99s-3.6-.76-4.83-1.99c-1.23-1.23-1.99-2.94-1.99-4.83l-57.02-12.46c-.33.76-.8,1.42-1.37,1.99-1.23,1.23-2.94,1.99-4.83,1.99s-3.6-.76-4.83-1.99h0c-1.23-1.23-1.99-2.94-1.99-4.83,0-1.18.28-2.32.85-3.32l-61.85-54.23c-1.14.85-2.56,1.33-4.07,1.33-1.89,0-3.6-.76-4.83-1.99h0c-1.23-1.23-1.99-2.94-1.99-4.83s.76-3.6,1.99-4.83h0c.38-.38.76-.66,1.18-.95l-20.13-56.55c-.28.05-.57.05-.85.05-1.89,0-3.6-.76-4.83-1.99h0c-1.23-1.23-1.99-2.94-1.99-4.83s.76-3.6,1.99-4.83h0c1.14-1.14,2.65-1.85,4.31-1.99l10.42-73.22c-.9-.33-1.75-.9-2.42-1.56h0c-1.23-1.23-1.99-2.94-1.99-4.83s.76-3.6,1.99-4.83h0c1.23-1.23,2.94-1.99,4.83-1.99.99,0,1.99.24,2.84.62l39.41-52.57c-1.04-1.18-1.66-2.75-1.66-4.45,0-1.89.76-3.6,1.99-4.83h0c1.23-1.23,2.94-1.99,4.83-1.99s3.6.76,4.83,1.99h0c.33.33.66.76.95,1.14L166.52,6.77c0-1.85.8-3.55,1.99-4.78,1.23-1.23,2.94-1.99,4.83-1.99s3.6.76,4.83,1.99c1.23,1.23,1.99,2.94,1.99,4.83v.09l94.96,34.34c.33-.76.8-1.47,1.42-2.04h0c1.23-1.23,2.94-1.99,4.83-1.99s3.6.76,4.83,1.99,1.99,2.94,1.99,4.83-.76,3.6-1.99,4.83h0c-.14.14-.28.24-.43.38l39.45,52.62c.85-.38,1.8-.62,2.84-.62,1.89,0,3.6.76,4.83,1.99,1.23,1.23,1.99,2.94,1.99,4.83s-.76,3.6-1.99,4.83h0c-.66.66-1.52,1.23-2.42,1.56l10.42,73.22c1.66.14,3.17.85,4.31,1.99h0c1.23,1.23,1.99,2.94,1.99,4.83s-.76,3.6-1.99,4.83c-1.23,1.23-2.94,1.99-4.83,1.99-.28,0-.57,0-.85-.05l-20.13,56.55c.43.28.85.62,1.18.95h0c1.23,1.23,1.99,2.94,1.99,4.83s-.76,3.6-1.99,4.83c-1.23,1.23-2.94,1.99-4.83,1.99-1.52,0-2.94-.47-4.07-1.33l-61.85,54.23h.05ZM237.05,326.61c0-.24,0-.47.05-.76l-57.69-19.84c-.28.47-.62.9-.99,1.28-.9.9-2.08,1.56-3.41,1.85l-.19,26.1c1.28.28,2.42.95,3.32,1.85h0c.57.57,1.04,1.23,1.37,1.99l57.5-12.46h.05ZM238.04,323.06c.28-.47.62-.9.99-1.28h0c.47-.47,1.04-.9,1.66-1.23l-8-29.74c-.43.05-.85.09-1.28.09-2.94,0-5.54-1.18-7.48-3.08h0c-.43-.43-.8-.85-1.14-1.37l-42.39,15.16c.05.28.05.57.05.85,0,.24,0,.52-.05.76l57.69,19.84h-.05ZM246.61,323.91c-.71-.71-1.66-1.14-2.75-1.14s-2.04.43-2.75,1.14c-.43.43-.71.9-.9,1.47h0c-.14.38-.19.81-.19,1.23,0,1.09.43,2.04,1.14,2.75h0c.71.71,1.66,1.14,2.75,1.14s2.04-.43,2.75-1.14c.71-.71,1.14-1.66,1.14-2.75s-.43-2.04-1.14-2.75h0l-.05.05ZM315.76,256.8c.28,0,.57,0,.85.05l20.13-56.55c-.43-.28-.85-.62-1.18-.95h0c-1.23-1.23-1.99-2.94-1.99-4.83,0-.38.05-.76.09-1.09l-38.36-15.2c-.47.81-1.04,1.56-1.71,2.23-.8.81-1.75,1.52-2.79,2.04l24.34,74.36c.24,0,.43-.05.66-.05h-.05ZM308.9,263.47c0-.9.24-1.8.57-2.56l-31.21-22.69c-1.23,1.09-2.79,1.7-4.55,1.7-1.18,0-2.32-.28-3.32-.85l-30.6,34.91c.66.85,1.14,1.8,1.52,2.84l67.54-13.36h.05ZM311.22,258.5c.33-.28.66-.52,1.04-.76l-24.34-74.36c-.62.09-1.23.14-1.85.14h-.66l-8.9,43.34c.76.33,1.47.81,2.04,1.42h0c1.23,1.23,1.99,2.94,1.99,4.83,0,.99-.19,1.89-.57,2.75l31.21,22.69.05-.05ZM318.51,260.87c-.71-.71-1.66-1.14-2.75-1.14s-2.04.43-2.75,1.14c-.14.14-.24.28-.38.43l-.05.05-.05.05c-.43.62-.71,1.42-.71,2.23,0,1.09.43,2.04,1.14,2.75h0c.71.71,1.66,1.14,2.75,1.14s2.04-.43,2.75-1.14c.71-.71,1.14-1.66,1.14-2.75s-.43-2.04-1.14-2.75h.05ZM276.45,230.32c-.71-.71-1.66-1.14-2.75-1.14s-2.04.43-2.75,1.14c-.71.71-1.14,1.66-1.14,2.75s.43,2.04,1.14,2.75h0c.71.71,1.66,1.14,2.75,1.14s2.04-.43,2.75-1.14c.71-.71,1.14-1.66,1.14-2.75s-.43-2.04-1.14-2.75h0ZM334.71,190.63s.09-.14.14-.19l-50.82-71.99c-.43.19-.85.38-1.33.47l3.93,43.43c2.7.14,5.12,1.28,6.91,3.08,1.89,1.89,3.08,4.55,3.08,7.48,0,.85-.09,1.7-.28,2.46l38.36,15.2v.05ZM337.08,188.45c.28-.14.57-.28.9-.43l-10.42-73.22c-1.66-.14-3.17-.85-4.31-1.99h0c-.24-.24-.47-.52-.66-.81l-34.72,1.66c-.24,1.09-.76,2.13-1.42,2.94l50.68,71.8-.05.05ZM343.14,191.72c-.71-.71-1.66-1.14-2.75-1.14-.99,0-1.89.38-2.61.99l-.09.09-.05.05c-.71.71-1.14,1.66-1.14,2.75s.43,2.04,1.14,2.75h0c.71.71,1.66,1.14,2.75,1.14s2.04-.43,2.75-1.14c.71-.71,1.14-1.66,1.14-2.75s-.43-2.04-1.14-2.75h0ZM282.61,105.57c1.28.28,2.46.95,3.36,1.85.9.9,1.52,2.04,1.85,3.32l33.53-1.61c-.05-.38-.09-.76-.09-1.14,0-1.71.62-3.27,1.66-4.45l-39.74-53c-.28.09-.62.14-.95.19l.38,54.84h0ZM278.4,106c.38-.19.8-.33,1.23-.43l-.38-55.13c-1.04-.33-1.99-.9-2.7-1.66h0c-.28-.28-.52-.57-.71-.85l-22.73,7.67c.24.9.38,1.8.38,2.75,0,2.94-1.18,5.54-3.08,7.48h0c-.28.28-.62.57-.95.85l29.03,39.31h-.09ZM283.89,109.55c-.71-.71-1.66-1.14-2.75-1.14s-2.04.43-2.75,1.14h0c-.71.71-1.14,1.66-1.14,2.75s.43,2.04,1.14,2.75c.38.38.8.66,1.33.85t.09.05c.43.14.85.24,1.33.24.9,0,1.71-.28,2.37-.81l.05-.05h0c.09-.09.19-.19.28-.28h0c.71-.71,1.14-1.66,1.14-2.75s-.43-2.04-1.14-2.75h.05ZM330.82,105.29c-.71-.71-1.66-1.14-2.75-1.14s-2.04.43-2.75,1.14h0c-.71.71-1.14,1.66-1.14,2.75s.43,2.04,1.14,2.75c.71.71,1.66,1.14,2.75,1.14s2.04-.43,2.75-1.14h0c.71-.71,1.14-1.66,1.14-2.75s-.43-2.04-1.14-2.75ZM167.09,339.06c.33-.76.8-1.42,1.37-1.99h0c.9-.9,2.08-1.56,3.41-1.85l.19-26.1c-1.28-.28-2.42-.95-3.32-1.85-.38-.38-.71-.81-.99-1.28l-57.69,19.84c.05.24.05.47.05.76l57.02,12.46h-.05ZM176.05,339.21c-.71-.71-1.66-1.14-2.75-1.14s-2.04.43-2.75,1.14h0c-.71.71-1.14,1.66-1.14,2.75s.43,2.04,1.14,2.75c.71.71,1.66,1.14,2.75,1.14s2.04-.43,2.75-1.14c.71-.71,1.14-1.66,1.14-2.75s-.43-2.04-1.14-2.75h0ZM178.32,258.41c-.19.24-.33.43-.57.62-.9.9-2.08,1.56-3.36,1.85l.14,34.81c1.47.24,2.79.9,3.84,1.94h0c.38.38.66.76.95,1.18l42.01-15.06c-.38-1.09-.57-2.23-.57-3.46,0-.66.05-1.33.19-1.99l-42.67-19.99.05.09ZM171.45,260.87c-1.28-.28-2.46-.95-3.36-1.85-.28-.28-.57-.62-.8-.99l-41.44,19.18c.28.99.47,2.04.47,3.13,0,.66-.05,1.37-.19,1.99l42.01,16.01c.19-.24.38-.47.62-.71h0c.8-.81,1.8-1.37,2.89-1.7l-.14-35.05h-.05ZM175.67,251.44c-.71-.71-1.66-1.14-2.75-1.14s-2.04.43-2.75,1.14h0c-.71.71-1.14,1.66-1.14,2.75s.43,2.04,1.14,2.75c.71.71,1.66,1.14,2.75,1.14s2.04-.43,2.75-1.14c.71-.71,1.14-1.66,1.14-2.75s-.43-2.04-1.14-2.75h0ZM166.76,303.26c-.05-.24-.05-.52-.05-.76,0-.47.05-.99.14-1.42l-41.73-15.87c-.52.99-1.18,1.89-1.94,2.65-1.89,1.89-4.55,3.08-7.48,3.08-.43,0-.85-.05-1.28-.09l-8,29.74c.62.33,1.18.76,1.66,1.23h0c.38.38.71.81.99,1.28l57.69-19.84h0ZM176.33,299.75c-.71-.71-1.66-1.14-2.75-1.14s-2.04.43-2.75,1.14h0c-.71.71-1.14,1.66-1.14,2.75s.43,2.04,1.14,2.75c.71.71,1.66,1.14,2.75,1.14s2.04-.43,2.75-1.14c.71-.71,1.14-1.66,1.14-2.75s-.43-2.04-1.14-2.75h0ZM103.25,319.83h.33l8-29.74c-1.23-.52-2.37-1.28-3.32-2.23h0c-1.89-1.89-3.08-4.55-3.08-7.48v-.57l-67.54-13.4c-.09.19-.19.38-.28.52l61.85,54.23c1.14-.85,2.56-1.33,4.07-1.33h-.05ZM106,323.96c-.71-.71-1.66-1.14-2.75-1.14s-2.04.43-2.75,1.14c-.71.71-1.14,1.66-1.14,2.75s.43,2.04,1.14,2.75h0c.71.71,1.66,1.14,2.75,1.14s2.04-.43,2.75-1.14c.71-.71,1.14-1.66,1.14-2.75s-.43-2.04-1.14-2.75h0ZM31.36,256.84c.47,0,.95.05,1.37.14l20.13-45.33c-.66-.43-1.33-.95-1.85-1.47h0c-1.89-1.89-3.08-4.55-3.08-7.48v-.19l-34.76-5.49c-.33.9-.85,1.66-1.52,2.32-.38.38-.76.66-1.18.95l20.13,56.55c.28-.05.57-.05.85-.05l-.09.05ZM35.43,258.17c.28.19.52.43.76.66h0c1.18,1.18,1.94,2.84,1.99,4.69l67.54,13.36c.52-1.52,1.37-2.89,2.51-3.98h0l.14-.14-43.9-61.43c-1.71,1.18-3.84,1.89-6.06,1.89-.99,0-1.99-.14-2.89-.43l-20.13,45.33.05.05ZM34.1,260.92c-.71-.71-1.66-1.14-2.75-1.14s-2.04.43-2.75,1.14c-.71.71-1.14,1.66-1.14,2.75s.43,2.04,1.14,2.75h0c.71.71,1.66,1.14,2.75,1.14s2.04-.43,2.75-1.14c.71-.71,1.14-1.66,1.14-2.75s-.43-2.04-1.14-2.75h0ZM100.08,175.76c-.24-.71-.38-1.47-.38-2.27,0-1.18.33-2.32.85-3.32l-31.73-36.8c-.85.62-1.89.99-2.98,1.14l-5.02,57.83c1.94.47,3.69,1.47,5.07,2.84h0c.19.19.38.38.52.57l33.58-19.99h.09ZM109.27,170.74c-.71-.71-1.66-1.14-2.75-1.14s-2.04.43-2.75,1.14c-.71.71-1.14,1.66-1.14,2.75s.43,2.04,1.14,2.75h0c.71.71,1.66,1.14,2.75,1.14s2.04-.43,2.75-1.14c.71-.71,1.14-1.66,1.14-2.75s-.43-2.04-1.14-2.75h0ZM98.94,118.36c.57.14,1.09.33,1.56.62,10.04-5.3,20.74-9.57,31.97-12.6,10.51-2.84,21.5-4.64,32.82-5.21l-52.34-36.75c-.38.52-.76,1.04-1.23,1.47-1.66,1.66-3.84,2.75-6.3,3.03l-6.49,49.45h0ZM93.83,130.91c-.52-.28-.99-.66-1.37-1.09h0c-.9-.9-1.52-1.99-1.8-3.22l-18.85,1.66c-.09,1.09-.43,2.08-.95,2.98l28.89,33.53c-1.37-4.69-2.51-9.52-3.46-14.45-1.18-6.35-2.04-12.83-2.46-19.42h0ZM90.56,123.61c.28-1.33.95-2.51,1.85-3.46h0c.95-.95,2.18-1.61,3.5-1.89l6.49-49.45c-.9-.14-1.8-.43-2.61-.81l-30.41,54.61c.09.09.19.19.28.28h0c.66.66,1.23,1.52,1.56,2.42l19.23-1.66.09-.05ZM100.03,122.24c-.71-.71-1.66-1.14-2.75-1.14s-2.04.43-2.75,1.14c-.71.71-1.14,1.66-1.14,2.75h0c0,1.09.43,2.04,1.14,2.75h0c.71.71,1.66,1.14,2.75,1.14s2.04-.43,2.75-1.14c.71-.71,1.14-1.66,1.14-2.75s-.43-2.04-1.14-2.75h0ZM66.54,121.06c.09.05.24.05.33.09l30.45-54.75c-.19-.19-.43-.38-.62-.57h0c-1.89-1.89-3.08-4.55-3.08-7.48,0-.85.09-1.7.28-2.51l-21.5-7.86c-.33.57-.71,1.09-1.18,1.56-.9.9-2.08,1.56-3.41,1.85l-1.37,69.62.09.05ZM62.85,134.27c-.43-.14-.85-.28-1.23-.52l-49.45,56.69c.76,1.04,1.23,2.27,1.33,3.65l34.76,5.49c.52-1.66,1.42-3.17,2.65-4.36h0c1.8-1.8,4.21-2.94,6.91-3.08l5.02-57.83v-.05ZM59.39,131.81c-.85-1.14-1.33-2.56-1.33-4.07,0-.43.05-.85.14-1.28l-33.63-14.45c-.24.28-.47.57-.71.85-1.14,1.14-2.65,1.85-4.31,1.99l-10.42,73.22c.28.09.57.24.85.38l49.45-56.69-.05.05ZM59.35,123.76c.24-.28.47-.57.71-.85h0c.95-.95,2.13-1.61,3.5-1.89l1.37-69.57c-.47-.09-.9-.24-1.33-.43l-39.41,52.57c1.04,1.18,1.66,2.75,1.66,4.45,0,.43-.05.85-.14,1.28l33.63,14.45ZM67.63,124.99c-.71-.71-1.66-1.14-2.75-1.14s-2.04.43-2.75,1.14c-.71.71-1.14,1.66-1.14,2.75s.43,2.04,1.14,2.75h0c.62.62,1.47,1.04,2.37,1.14h.33c1.09,0,2.04-.43,2.75-1.14.71-.71,1.14-1.66,1.14-2.75s-.43-2.04-1.14-2.75h.05ZM21.74,105.28c-.71-.71-1.66-1.14-2.75-1.14s-2.04.43-2.75,1.14c-.71.71-1.14,1.66-1.14,2.75s.43,2.04,1.14,2.75h0c.71.71,1.66,1.14,2.75,1.14s2.04-.43,2.75-1.14c.71-.71,1.14-1.66,1.14-2.75s-.43-2.04-1.14-2.75h0ZM73.22,43.86c.05.28.05.62.05.9v.43l21.79,7.96c.47-.81,1.04-1.56,1.71-2.23h0c1.89-1.89,4.55-3.08,7.48-3.08s5.4,1.14,7.29,2.94l54.04-40.59-92.31,33.67h-.05ZM69.2,42.01c-.71-.71-1.66-1.14-2.75-1.14s-2.04.43-2.75,1.14c-.71.71-1.14,1.66-1.14,2.75s.43,2.04,1.14,2.75h0c.71.71,1.66,1.14,2.75,1.14s2.04-.43,2.75-1.14c.71-.71,1.14-1.66,1.14-2.75s-.43-2.04-1.14-2.75h0ZM274.61,45.23c-.05-.38-.09-.71-.09-1.09L179.46,9.8c-.05.09-.09.19-.14.24l56.55,40.4c1.85-1.66,4.31-2.65,6.96-2.65,2.94,0,5.54,1.18,7.48,3.08.62.62,1.14,1.28,1.56,1.99l22.73-7.67v.05ZM284.08,41.25c-.71-.71-1.66-1.14-2.75-1.14s-2.04.43-2.75,1.14h0c-.71.71-1.14,1.66-1.14,2.75s.43,2.04,1.14,2.75c.71.71,1.66,1.14,2.75,1.14s2.04-.43,2.75-1.14h0c.71-.71,1.14-1.66,1.14-2.75s-.43-2.04-1.14-2.75ZM174.77,41.11c1.28.28,2.46.95,3.36,1.85,1.14,1.14,1.89,2.65,1.99,4.4l52.57,8c.28-.95.71-1.85,1.23-2.65l-56.55-40.45c-.76.57-1.66.99-2.61,1.18v27.66ZM166.43,47.36c.09-1.7.85-3.27,1.99-4.4.9-.9,2.08-1.56,3.36-1.85V13.5c-1.28-.28-2.42-.9-3.32-1.8l-55.08,41.39c.43.71.76,1.47.99,2.27l52.1-8h-.05ZM176,45.09c-.71-.71-1.66-1.14-2.7-1.14h-.09c-1.04,0-1.99.43-2.7,1.14-.71.71-1.14,1.66-1.14,2.75s.43,2.04,1.14,2.75h0c.71.71,1.66,1.14,2.75,1.14s2.04-.43,2.75-1.14h0c.71-.71,1.14-1.66,1.14-2.75s-.43-2.04-1.14-2.75ZM176,4.07c-.71-.71-1.66-1.14-2.75-1.14s-2.04.43-2.75,1.14c-.71.71-1.14,1.66-1.14,2.75s.43,2.04,1.14,2.75h0c.71.71,1.66,1.14,2.7,1.14h.09c1.04,0,2.04-.43,2.7-1.14h0c.71-.71,1.14-1.66,1.14-2.75s-.43-2.04-1.14-2.75ZM108.32,54.28c-1.04-1.04-2.51-1.71-4.12-1.71s-3.08.66-4.12,1.71c-1.04,1.04-1.71,2.51-1.71,4.12s.66,3.08,1.71,4.12h0c1.04,1.04,2.51,1.7,4.12,1.7s3.08-.66,4.12-1.7c1.04-1.04,1.71-2.51,1.71-4.12s-.66-3.08-1.71-4.12h0ZM246.9,54.28c-1.04-1.04-2.51-1.71-4.12-1.71s-3.08.66-4.12,1.71h0c-1.04,1.04-1.71,2.51-1.71,4.12s.66,3.08,1.71,4.12c1.04,1.04,2.51,1.7,4.12,1.7s3.08-.66,4.12-1.7h0c1.04-1.04,1.71-2.51,1.71-4.12s-.66-3.08-1.71-4.12ZM290.14,168.84c-1.04-1.04-2.51-1.7-4.12-1.7s-3.08.66-4.12,1.7h0c-1.04,1.04-1.71,2.51-1.71,4.12s.66,3.08,1.71,4.12h0c1.04,1.04,2.51,1.7,4.12,1.7s3.08-.66,4.12-1.7c1.04-1.04,1.71-2.51,1.71-4.12s-.66-3.08-1.71-4.12ZM235.44,276.21c-1.04-1.04-2.51-1.7-4.12-1.7s-3.08.66-4.12,1.7c-1.04,1.04-1.71,2.51-1.71,4.12s.66,3.08,1.71,4.12h0c1.04,1.04,2.51,1.7,4.12,1.7s3.08-.66,4.12-1.7c1.04-1.04,1.71-2.51,1.71-4.12s-.66-3.08-1.71-4.12h0ZM119.78,276.21c-1.04-1.04-2.51-1.7-4.12-1.7s-3.08.66-4.12,1.7c-1.04,1.04-1.71,2.51-1.71,4.12s.66,3.08,1.71,4.12h0c1.04,1.04,2.51,1.7,4.12,1.7s3.08-.66,4.12-1.7c1.04-1.04,1.71-2.51,1.71-4.12s-.66-3.08-1.71-4.12h0ZM9.43,191.72c-.71-.71-1.66-1.14-2.75-1.14s-2.04.43-2.75,1.14c-.71.71-1.14,1.66-1.14,2.75s.43,2.04,1.14,2.75h0c.71.71,1.66,1.14,2.75,1.14s2.04-.43,2.75-1.14c.71-.71,1.14-1.66,1.14-2.75s-.43-2.04-1.14-2.75h0ZM62.52,198.49c-1.04-1.04-2.51-1.7-4.12-1.7s-3.08.66-4.12,1.7c-1.04,1.04-1.71,2.51-1.71,4.12s.66,3.08,1.71,4.12h0c1.04,1.04,2.51,1.7,4.12,1.7s3.08-.66,4.12-1.7c1.04-1.04,1.71-2.51,1.71-4.12s-.66-3.08-1.71-4.12h0Z"/>
</svg>