<?xml version="1.0" encoding="UTF-8"?>
<svg id="Layer_1" data-name="Layer 1" xmlns="http://www.w3.org/2000/svg" xmlns:xlink="http://www.w3.org/1999/xlink" viewBox="0 0 924.49 276.27">
  <defs>
    <style>
      .cls-1 {
        fill: none;
      }

      .cls-2 {
        fill: #fff;
      }

      .cls-3 {
        clip-path: url(#clippath);
      }
    </style>
    <clipPath id="clippath">
      <rect class="cls-1" width="924.49" height="276.27"/>
    </clipPath>
  </defs>
  <g class="cls-3">
    <g>
      <path class="cls-2" d="M21.95,62.66v63.13h69.59v19.1H0V43.56h86.99v19.1H21.95ZM85.56,103.16H27.52l7.68-18.55h50.36v18.55h0Z"/>
      <path class="cls-2" d="M106.03,43.56h21.95v82.24h63.07v19.1h-85.02V43.56Z"/>
      <path class="cls-2" d="M207.58,43.56h21.95v101.33h-21.95V43.56Z"/>
      <path class="cls-2" d="M245.99,43.56h100.72v19.91h-100.72v-19.91ZM307.22,144.89h-21.88v-62.93l21.88-12.91v75.84Z"/>
      <path class="cls-2" d="M535.44,144.89l-45.95-101.33h23.65l36.02,80.33L604.15,0l16.72,16.17-58.45,128.72h-26.98,0Z"/>
      <path class="cls-2" d="M624.75,43.56h21.95v101.33h-21.95V43.56Z"/>
      <path class="cls-2" d="M691.64,62.66v63.13h69.59v19.1h-91.54V43.56h86.99v19.1h-65.04,0ZM755.25,103.16h-58.04l7.68-18.55h50.36v18.55Z"/>
      <path class="cls-2" d="M762.2,43.56h23.38l22.15,75.98,21.14-75.98h29.36l21.07,75.84,22.36-75.84h22.83l-30.58,101.33h-28.81l-21.74-75.84-21.95,75.84h-28.55l-30.65-101.33Z"/>
      <path class="cls-2" d="M241.28,195.86h15.21l30.04,58.09,29.72-58.09h15.26v80.42h-8.84v-72.92l-31.82,60.68h-8.95l-31.77-60.89v73.13h-8.84v-80.42h0Z"/>
      <path class="cls-2" d="M364.63,195.85h64.07v7.98h-55.01v28.05h51.67l-3.18,7.71h-48.48v28.75h57.76v7.93h-66.82v-80.42h0Z"/>
      <path class="cls-2" d="M459.07,195.85h35.97c12.98,0,23.37,3.69,31.17,11.06,7.8,7.37,11.7,17.17,11.7,29.39s-3.83,21.79-11.49,29.13c-7.66,7.23-17.89,10.84-30.69,10.84h-36.67v-80.42h0ZM468.13,203.95v64.24h26.48c10.46,0,18.75-2.9,24.86-8.68,6.26-5.82,9.39-13.56,9.39-23.19s-3.2-17.71-9.6-23.57c-6.29-5.86-14.72-8.79-25.3-8.79h-25.83,0Z"/>
      <path class="cls-2" d="M564.41,195.85h9.06v80.42h-9.06v-80.42Z"/>
      <path class="cls-2" d="M603.03,276.27h-9.71l39.42-80.42h10.84l39.42,80.42h-9.92l-11.06-22.54h-48.06l-10.95,22.54h0ZM638.03,204.49l-20.17,41.31h40.29l-20.12-41.31Z"/>
      <path class="cls-2" d="M367.8,62.66v-19.1h86.99v101.33h-91.54v-19.1h69.59v-63.13h-65.04,0ZM369.23,84.61h50.36l7.68,18.55h-58.04v-18.55Z"/>
    </g>
  </g>
</svg>