<?xml version="1.0" encoding="UTF-8"?>
<svg id="Main_layer" data-name="Main layer" xmlns="http://www.w3.org/2000/svg" viewBox="0 0 374.49 374.49">
  <defs>
    <style>
      .cls-1 {
        stroke-miterlimit: 10;
      }

      .cls-1, .cls-2 {
        fill: none;
        stroke: #fff;
        stroke-width: 10px;
      }

      .cls-2 {
        stroke-linecap: round;
        stroke-linejoin: round;
      }
    </style>
  </defs>
  <g>
    <g>
      <polyline class="cls-1" points="369.5 4.99 369.48 5 268.48 106.01"/>
      <line class="cls-1" x1="190.87" y1="183.62" x2="190.87" y2="183.63"/>
      <line class="cls-1" x1="113.26" y1="261.23" x2="47.29" y2="327.2"/>
      <polyline class="cls-2" points="331.34 5 369.49 5 369.49 43.15"/>
    </g>
    <circle class="cls-1" cx="29.77" cy="344.72" r="24.77"/>
  </g>
  <g>
    <path class="cls-2" d="M217.25,158.81s-8.43-17.76-26.53-17.76c0,0-13.95-.91-21.51,9.43-9.07,12.42-1.4,30.03,13.74,32.72,2.33.41,4.96.65,7.91.65h.02c2.95,0,5.58.24,7.91.65,15.14,2.69,22.82,20.3,13.74,32.72-7.56,10.34-21.51,9.43-21.51,9.43-18.1,0-26.53-17.76-26.53-17.76"/>
    <line class="cls-2" x1="190.88" y1="125.11" x2="190.88" y2="141.05"/>
    <line class="cls-2" x1="190.88" y1="226.66" x2="190.88" y2="242.61"/>
  </g>
  <circle class="cls-2" cx="190.87" cy="183.61" r="109.76"/>
  <g>
    <g>
      <g>
        <polyline class="cls-1" points="369.37 227.54 369.36 227.55 269.83 327.07"/>
        <polyline class="cls-2" points="331.21 227.54 369.36 227.54 369.36 265.69"/>
      </g>
      <circle class="cls-1" cx="252.32" cy="344.59" r="24.77"/>
    </g>
    <g>
      <g>
        <polyline class="cls-1" points="146.95 5.12 146.94 5.13 47.42 104.66"/>
        <polyline class="cls-2" points="108.8 5.13 146.94 5.13 146.94 43.28"/>
      </g>
      <circle class="cls-1" cx="29.9" cy="122.17" r="24.77"/>
    </g>
  </g>
</svg>