<svg width="611" height="28" viewBox="0 0 611 28" fill="none" xmlns="http://www.w3.org/2000/svg"><path d="M12.632.808c3.164 0 5.775.784 7.836 2.354 2.06 1.545 3.482 3.666 4.267 6.364h-3.532c-.662-1.717-1.729-3.078-3.2-4.083-1.472-1.03-3.274-1.545-5.408-1.545-1.692 0-3.213.417-4.562 1.25-1.324.81-2.378 1.987-3.163 3.532-.76 1.52-1.14 3.31-1.14 5.371 0 2.036.38 3.814 1.14 5.334.785 1.52 1.84 2.698 3.163 3.532 1.35.809 2.87 1.214 4.562 1.214 2.134 0 3.936-.503 5.408-1.509 1.471-1.03 2.538-2.403 3.2-4.12h3.532c-.785 2.698-2.207 4.832-4.267 6.401-2.06 1.545-4.672 2.318-7.836 2.318-2.428 0-4.574-.552-6.438-1.656-1.864-1.128-3.323-2.685-4.378-4.672-1.03-2.01-1.545-4.291-1.545-6.842 0-2.575.515-4.868 1.545-6.88C2.871 5.162 4.33 3.604 6.194 2.5 8.058 1.372 10.204.808 12.632.808zM41.094.734c2.403 0 4.561.564 6.474 1.692 1.938 1.128 3.458 2.71 4.562 4.746 1.103 2.01 1.655 4.292 1.655 6.842s-.552 4.844-1.655 6.88c-1.104 2.01-2.624 3.58-4.562 4.708-1.913 1.128-4.07 1.692-6.474 1.692s-4.586-.564-6.548-1.692c-1.938-1.128-3.458-2.698-4.562-4.709-1.104-2.035-1.655-4.328-1.655-6.879 0-2.55.552-4.831 1.655-6.842 1.104-2.036 2.624-3.618 4.562-4.746C36.508 1.298 38.69.734 41.094.734zm0 3.127c-1.79 0-3.397.417-4.82 1.25-1.397.81-2.5 1.987-3.31 3.532-.785 1.52-1.177 3.311-1.177 5.371 0 2.036.392 3.826 1.177 5.371.81 1.545 1.913 2.735 3.31 3.568 1.423.81 3.03 1.214 4.82 1.214 1.765 0 3.347-.417 4.745-1.25 1.423-.834 2.526-2.011 3.311-3.532.81-1.545 1.214-3.335 1.214-5.37 0-2.06-.405-3.851-1.214-5.372-.785-1.545-1.888-2.722-3.31-3.531-1.399-.834-2.98-1.251-4.746-1.251zm32.41 17.143H62.1L59.93 27h-3.606l9.602-25.457h3.789L79.279 27h-3.605l-2.17-5.996zm-.957-2.612L67.802 5.296l-4.746 13.096h9.491zm26.528 1.876a6.905 6.905 0 01-.883 3.421c-.589 1.055-1.484 1.913-2.686 2.575-1.201.662-2.685.994-4.45.994-1.718 0-3.25-.307-4.6-.92-1.324-.638-2.39-1.496-3.2-2.575-.785-1.104-1.238-2.355-1.36-3.753h3.567c.074.736.32 1.46.736 2.17.442.688 1.055 1.264 1.84 1.73.809.441 1.778.662 2.906.662 1.471 0 2.6-.392 3.384-1.177.785-.785 1.177-1.79 1.177-3.017 0-1.054-.282-1.913-.846-2.575a5.508 5.508 0 00-2.023-1.545c-.81-.392-1.913-.81-3.31-1.25-1.644-.54-2.968-1.043-3.974-1.509-.98-.49-1.827-1.214-2.538-2.17-.687-.957-1.03-2.22-1.03-3.79 0-1.348.319-2.538.956-3.568.662-1.03 1.594-1.827 2.796-2.39 1.226-.565 2.66-.847 4.304-.847 2.55 0 4.574.625 6.07 1.876 1.496 1.226 2.367 2.796 2.612 4.709h-3.605c-.197-1.03-.724-1.937-1.582-2.722-.858-.785-2.023-1.177-3.495-1.177-1.349 0-2.428.355-3.237 1.066-.81.687-1.214 1.668-1.214 2.943 0 1.006.257 1.827.772 2.465a6 6 0 001.987 1.472c.785.343 1.864.735 3.237 1.177 1.668.54 3.004 1.054 4.01 1.545 1.03.49 1.9 1.238 2.612 2.244.711.98 1.067 2.293 1.067 3.936zm20.393-19.203v2.722h-7.321V27H108.8V3.787h-7.321V1.065h17.989zm18.521 19.939h-11.404L124.414 27h-3.605l9.602-25.457h3.789L143.764 27h-3.605l-2.17-5.996zm-.957-2.612l-4.745-13.096-4.746 13.096h9.491zm13.468 5.996h9.197V27h-12.544V1.065h3.347v23.323zm25.04 0h9.197V27h-12.545V1.065h3.348v23.323zm15.766-23.323v15.561c0 2.55.565 4.439 1.693 5.665 1.128 1.202 2.685 1.803 4.672 1.803 1.962 0 3.494-.613 4.598-1.84 1.104-1.226 1.655-3.102 1.655-5.628V1.066h3.348v15.56c0 3.532-.883 6.192-2.649 7.983-1.741 1.766-4.083 2.648-7.026 2.648-2.918 0-5.261-.882-7.026-2.648-1.742-1.79-2.612-4.451-2.612-7.983V1.066h3.347zM226.921 27l-6.511-10.264L214.487 27h-3.862l7.909-13.207-8.057-12.728h4.01l6.364 10.08 5.96-10.08h3.862l-7.946 12.986L230.894 27h-3.973zM237.47 1.065v15.561c0 2.55.564 4.439 1.692 5.665 1.128 1.202 2.685 1.803 4.672 1.803 1.962 0 3.495-.613 4.598-1.84 1.104-1.226 1.656-3.102 1.656-5.628V1.066h3.347v15.56c0 3.532-.883 6.192-2.648 7.983-1.742 1.766-4.084 2.648-7.027 2.648-2.918 0-5.26-.882-7.026-2.648-1.741-1.79-2.612-4.451-2.612-7.983V1.066h3.348zM272.386 27l-6.769-10.595h-3.642V27h-3.348V1.065h8.535c2.943 0 5.15.711 6.621 2.134 1.472 1.398 2.208 3.262 2.208 5.591 0 2.11-.589 3.814-1.766 5.114-1.177 1.275-2.882 2.072-5.114 2.391L276.175 27h-3.789zm-10.411-13.023h4.892c3.802 0 5.702-1.667 5.702-5.003 0-3.335-1.9-5.003-5.702-5.003h-4.892v10.006zm36.53-12.912l-8.498 16.113V27h-3.385v-9.822l-8.534-16.113h3.899l6.364 12.545 6.328-12.545h3.826zm15.812 23.323h9.197V27H310.97V1.065h3.347v23.323zm15.951-23.323V27h-3.348V1.065h3.348zm7.074 0l7.909 22.22 8.02-22.22h3.642L347.385 27h-4.231l-9.491-25.935h3.679zm26.3 0V27h-3.348V1.065h3.348zM389.183 27h-3.347L372.372 6.51V27h-3.348V1.065h3.348l13.464 20.527V1.065h3.347V27zM406.338.808c3.017 0 5.543.748 7.579 2.244 2.06 1.496 3.445 3.531 4.156 6.106h-3.531c-.613-1.57-1.643-2.832-3.09-3.789-1.423-.956-3.115-1.434-5.077-1.434-1.766 0-3.347.416-4.745 1.25-1.398.81-2.502 1.975-3.311 3.495-.785 1.52-1.177 3.31-1.177 5.371 0 2.11.404 3.936 1.214 5.481.809 1.52 1.925 2.698 3.347 3.532 1.447.81 3.103 1.214 4.966 1.214 1.595 0 3.054-.344 4.378-1.03 1.324-.687 2.404-1.68 3.237-2.98.859-1.324 1.374-2.87 1.545-4.635h-10.19V13.13h13.023v3.09c-.221 2.06-.858 3.924-1.913 5.592-1.054 1.668-2.477 2.992-4.267 3.973-1.79.981-3.826 1.471-6.107 1.471-2.501 0-4.709-.551-6.621-1.655-1.913-1.128-3.409-2.685-4.488-4.672-1.055-2.01-1.582-4.304-1.582-6.879 0-2.575.527-4.856 1.582-6.842 1.079-2.011 2.575-3.581 4.488-4.71 1.912-1.127 4.107-1.691 6.584-1.691zM446.046 27l-6.769-10.595h-3.642V27h-3.347V1.065h8.534c2.943 0 5.15.711 6.622 2.134 1.471 1.398 2.207 3.262 2.207 5.591 0 2.11-.589 3.814-1.766 5.114-1.177 1.275-2.881 2.072-5.113 2.391L449.835 27h-3.789zm-10.411-13.023h4.893c3.801 0 5.702-1.667 5.702-5.003 0-3.335-1.901-5.003-5.702-5.003h-4.893v10.006zm21.447-10.19v8.866h9.859v2.575h-9.859v9.05h10.963V27h-14.31V1.065h14.31v2.722h-10.963zm37.113 10.227c0 2.624-.527 4.917-1.582 6.88-1.054 1.937-2.612 3.445-4.672 4.524-2.035 1.055-4.488 1.582-7.357 1.582h-8.24V1.065h8.24c2.869 0 5.322.527 7.357 1.582 2.06 1.03 3.618 2.526 4.672 4.488 1.055 1.937 1.582 4.23 1.582 6.88zm-13.869 9.97c3.385 0 5.972-.871 7.763-2.612 1.79-1.742 2.685-4.194 2.685-7.358 0-3.163-.895-5.616-2.685-7.357-1.766-1.766-4.354-2.649-7.763-2.649h-4.635v19.975h4.635zM502.06 3.787v8.866h9.859v2.575h-9.859v9.05h10.963V27h-14.31V1.065h14.31v2.722H502.06zM532 1.065v2.722h-11.331v8.976h9.602v2.612h-9.602V27h-3.347V1.065H532zm7.314 0V27h-3.348V1.065h3.348zM564.855 27h-3.347L548.044 6.51V27h-3.348V1.065h3.348l13.464 20.527V1.065h3.347V27zm8.731-23.213v8.866h9.859v2.575h-9.859v9.05h10.963V27h-14.31V1.065h14.31v2.722h-10.963zm37.113 10.227c0 2.624-.527 4.917-1.582 6.88-1.054 1.937-2.611 3.445-4.672 4.524-2.035 1.055-4.488 1.582-7.357 1.582h-8.24V1.065h8.24c2.869 0 5.322.527 7.357 1.582 2.061 1.03 3.618 2.526 4.672 4.488 1.055 1.937 1.582 4.23 1.582 6.88zm-13.868 9.97c3.384 0 5.971-.871 7.762-2.612 1.79-1.742 2.685-4.194 2.685-7.358 0-3.163-.895-5.616-2.685-7.357-1.766-1.766-4.353-2.649-7.762-2.649h-4.636v19.975h4.636z" fill="#fff"/></svg>