<svg width="558" height="71" viewBox="0 0 558 71" fill="none" xmlns="http://www.w3.org/2000/svg"><path d="M.48 2.122c3.887 0 7.742-.015 11.566-.046 3.856-.031 7.385-.063 10.587-.094 3.203-.062 5.939-.14 8.208-.233 2.27-.093 3.809-.217 4.617-.373L33.173 7.58a34.246 34.246 0 00-3.591-.746 67.871 67.871 0 00-4.337-.513c-1.68-.187-3.622-.28-5.83-.28-.746 0-1.648.03-2.705.093-1.026.031-2.02.078-2.985.14l-3.404.187v25.463c3.202-.03 6.094-.124 8.674-.28 2.581-.155 4.773-.31 6.576-.466a88.267 88.267 0 005.597-.653l-1.446 6.763a347.78 347.78 0 00-6.576-.793 144.184 144.184 0 00-6.296-.56 79.82 79.82 0 00-6.53-.28v29.242c3.67 0 7.043-.156 10.121-.466 3.078-.311 5.768-.669 8.068-1.073 2.674-.435 5.115-.948 7.322-1.54l-1.352 7.556a44.273 44.273 0 00-1.679-.093c-.746-.031-1.586-.062-2.518-.094a713.78 713.78 0 00-2.892-.093c-.995 0-1.943-.015-2.845-.046-.902 0-1.71-.016-2.425-.047H.48v-.186c.187-.653.358-1.462.513-2.426.187-.964.342-2.16.467-3.59.124-1.431.217-3.125.28-5.084.062-1.99.093-4.306.093-6.95v-30.36c0-2.643-.031-4.944-.093-6.902-.063-1.99-.156-3.7-.28-5.13-.125-1.462-.28-2.674-.467-3.638A21.455 21.455 0 00.48 2.309v-.187zm71.775 37.636l-16.51 20.94a46.55 46.55 0 00-1.818 2.332c-.591.778-1.12 1.54-1.586 2.286a21.189 21.189 0 00-1.166 2.098c-.28.622-.42 1.15-.42 1.586h-9.047v-.186c.684-.591 1.648-1.493 2.891-2.705 1.275-1.213 2.627-2.737 4.058-4.571l20.52-25.79-21.08-27.703c-1.15-1.492-2.285-2.736-3.404-3.73-1.12-1.027-1.96-1.695-2.519-2.006v-.187h14.598c0 .373.046.855.14 1.446.124.59.341 1.29.652 2.099.311.777.731 1.648 1.26 2.611.56.964 1.274 2.006 2.145 3.125l13.478 17.676L89.324 10.47c.56-.684 1.104-1.43 1.633-2.238A25.23 25.23 0 0092.402 5.9c.436-.777.778-1.493 1.026-2.145.28-.653.42-1.197.42-1.633h9.048v.187a20.31 20.31 0 00-1.026.886 42.17 42.17 0 00-1.306 1.26 58.24 58.24 0 00-1.586 1.771c-.59.684-1.259 1.493-2.005 2.425L77.525 33.183 99.258 61.63c1.492 1.928 2.876 3.53 4.151 4.804 1.306 1.244 2.254 2.036 2.845 2.379V69H91.749c0-.715-.295-1.897-.886-3.544-.59-1.648-1.694-3.56-3.31-5.737L72.254 39.76zm95.84-27.376l-.42.187c-2.425-2.239-5.348-4.026-8.768-5.363-3.389-1.337-7.12-2.006-11.193-2.006-3.917 0-7.509.622-10.773 1.866-3.265 1.212-6.079 2.985-8.441 5.316-2.332 2.332-4.151 5.193-5.457 8.582-1.306 3.389-1.959 7.244-1.959 11.566 0 4.757.622 9.203 1.866 13.338 1.243 4.104 3.093 7.664 5.55 10.68 2.456 3.016 5.518 5.394 9.187 7.135 3.7 1.71 8.006 2.565 12.919 2.565 1.772 0 3.544-.186 5.316-.56a25.548 25.548 0 005.084-1.632 26.993 26.993 0 004.617-2.658 24.236 24.236 0 003.964-3.59l.513.325-3.731 9.514c-2.332.902-4.912 1.586-7.742 2.053a48.399 48.399 0 01-8.488.746c-5.752 0-11.022-.824-15.81-2.472-4.757-1.679-8.861-4.042-12.312-7.089-3.42-3.047-6.094-6.7-8.022-10.96-1.896-4.29-2.845-9.047-2.845-14.27 0-2.954.374-5.861 1.12-8.722a35.226 35.226 0 013.358-8.161 32.93 32.93 0 015.41-7.09 34.527 34.527 0 017.322-5.642c2.767-1.586 5.798-2.814 9.094-3.685 3.327-.901 6.918-1.352 10.773-1.352 6.001 0 11.566.917 16.696 2.752l3.172 8.627zm20.38 52.514c3.669 0 7.042-.156 10.12-.466 3.078-.311 5.768-.669 8.068-1.073 2.674-.435 5.115-.948 7.323-1.54l-1.353 7.556a44.293 44.293 0 00-1.679-.093c-.746-.031-1.586-.062-2.518-.094a715.93 715.93 0 00-2.892-.093c-.995 0-1.943-.015-2.845-.046-.901 0-1.71-.016-2.425-.047h-21.639v-.186c.186-.653.357-1.462.513-2.426.186-.964.342-2.16.466-3.59.124-1.431.218-3.125.28-5.084.062-1.99.093-4.306.093-6.95v-30.36c0-2.643-.031-4.944-.093-6.902a94.61 94.61 0 00-.28-5.13c-.124-1.462-.28-2.674-.466-3.638a21.7 21.7 0 00-.513-2.425v-.187h11.192v.187a29.33 29.33 0 00-.559 2.425c-.156.964-.296 2.176-.42 3.638-.093 1.43-.186 3.14-.28 5.13-.062 1.958-.093 4.26-.093 6.902v44.492zm81.942-44.492c0-2.643-.032-4.944-.094-6.902a93.6 93.6 0 00-.28-5.13c-.124-1.462-.264-2.674-.419-3.638a21.7 21.7 0 00-.513-2.425v-.187h8.301v.187a29.699 29.699 0 00-.56 2.425c-.155.964-.295 2.176-.419 3.638a277.51 277.51 0 00-.28 5.13c-.062 1.958-.093 4.26-.093 6.902v25.184c0 4.446-.638 8.24-1.912 11.38-1.275 3.14-3.047 5.72-5.317 7.741-2.27 1.99-4.99 3.436-8.162 4.338-3.171.932-6.638 1.399-10.4 1.399-3.762 0-7.275-.436-10.54-1.306-3.233-.87-6.063-2.27-8.488-4.197-2.394-1.96-4.275-4.478-5.643-7.556-1.368-3.109-2.052-6.886-2.052-11.333v-25.65c0-2.643-.031-4.944-.093-6.902a94.61 94.61 0 00-.28-5.13c-.124-1.462-.28-2.674-.466-3.638a21.7 21.7 0 00-.513-2.425v-.187h11.193v.187a28.884 28.884 0 00-.56 2.425c-.156.964-.295 2.176-.42 3.638a95.643 95.643 0 00-.28 5.13c-.062 1.958-.093 4.26-.093 6.902v26.164c0 3.7.544 6.762 1.632 9.187 1.12 2.394 2.581 4.306 4.384 5.736 1.804 1.4 3.856 2.379 6.156 2.939 2.301.56 4.649.839 7.043.839s4.741-.28 7.042-.84c2.301-.56 4.337-1.538 6.109-2.938 1.804-1.43 3.249-3.342 4.338-5.736 1.119-2.425 1.679-5.488 1.679-9.188V20.405zm47.849-7.649h-1.026c-.248-.715-.653-1.523-1.212-2.425-.529-.901-1.244-1.74-2.146-2.518-.87-.808-1.943-1.477-3.218-2.005-1.243-.529-2.72-.793-4.43-.793-1.524 0-2.876.233-4.058.7-1.181.466-2.176 1.119-2.984 1.958-.778.84-1.368 1.834-1.773 2.985-.404 1.15-.606 2.425-.606 3.824 0 2.239.622 4.384 1.866 6.436 1.274 2.021 2.86 4.026 4.757 6.016 1.896 1.99 3.948 3.98 6.156 5.97a77.298 77.298 0 016.156 6.203c1.897 2.145 3.467 4.399 4.71 6.762 1.275 2.332 1.912 4.85 1.912 7.555 0 2.021-.357 4.058-1.072 6.11a15.458 15.458 0 01-3.218 5.456c-1.462 1.617-3.343 2.938-5.643 3.964-2.301.995-5.037 1.493-8.208 1.493-1.773 0-3.467-.171-5.084-.513a33.99 33.99 0 01-4.43-1.166 33.503 33.503 0 01-3.638-1.586c-1.057-.56-1.928-1.072-2.612-1.539l1.073-10.307h1.166c.342 1.462.901 2.86 1.679 4.198a15.39 15.39 0 002.845 3.497 14.799 14.799 0 003.917 2.426c1.461.59 3.063.886 4.804.886 1.585 0 3-.233 4.244-.7 1.274-.497 2.363-1.166 3.264-2.005a8.623 8.623 0 002.052-3.078c.498-1.182.747-2.472.747-3.871 0-1.959-.358-3.762-1.073-5.41a20.75 20.75 0 00-2.845-4.757 36.533 36.533 0 00-3.964-4.337 198.559 198.559 0 00-4.524-4.198 151.19 151.19 0 01-4.57-4.384 38.28 38.28 0 01-3.965-4.757 25.863 25.863 0 01-2.798-5.456c-.715-1.959-1.072-4.104-1.072-6.436 0-2.456.466-4.664 1.399-6.623.963-1.99 2.223-3.684 3.777-5.083a17.132 17.132 0 015.364-3.218 17.388 17.388 0 016.156-1.12c1.554 0 2.984.125 4.29.374s2.472.544 3.498.886c1.057.342 1.974.684 2.752 1.026l1.912.84-.327 8.72zm15.997 56.059c.186-.653.357-1.462.513-2.426.155-.964.295-2.16.42-3.59.124-1.431.217-3.125.279-5.084.063-1.99.094-4.306.094-6.95v-30.36c0-2.643-.031-4.944-.094-6.902-.062-1.99-.155-3.7-.279-5.13-.125-1.462-.265-2.674-.42-3.638a21.7 21.7 0 00-.513-2.425v-.187h11.146v.187a29.33 29.33 0 00-.559 2.425c-.156.964-.296 2.176-.42 3.638-.093 1.43-.187 3.14-.28 5.13-.062 1.958-.093 4.26-.093 6.902v30.36c0 2.644.031 4.96.093 6.95.093 1.959.187 3.653.28 5.083.124 1.43.264 2.627.42 3.591.186.964.373 1.772.559 2.425V69h-11.146v-.186zm29.148-66.692v.187c-.062.155-.109.388-.14.7a8.53 8.53 0 00-.046.839c0 .964.124 2.036.373 3.218.28 1.15.793 2.596 1.539 4.337l20.66 46.59 19.961-46.217c.466-1.15.964-2.41 1.492-3.777.529-1.368.793-2.752.793-4.151 0-.373-.031-.684-.093-.933a2.907 2.907 0 00-.187-.606v-.187h9.561v.187c-.591.59-1.306 1.648-2.146 3.171-.839 1.524-1.756 3.405-2.751 5.643l-26.723 59.323h-3.731l-25.324-57.038a63.897 63.897 0 00-1.866-3.87 78.27 78.27 0 00-1.772-3.358 45.561 45.561 0 00-1.492-2.565c-.436-.684-.731-1.12-.886-1.306v-.187h12.778zM422.5 68.814a21.26 21.26 0 00.513-2.426c.156-.964.296-2.16.42-3.59.125-1.431.218-3.125.28-5.084.062-1.99.093-4.306.093-6.95v-30.36c0-2.643-.031-4.944-.093-6.902a93.6 93.6 0 00-.28-5.13c-.124-1.462-.264-2.674-.42-3.638-.155-.964-.326-1.772-.513-2.425v-.187h11.147v.187a29.286 29.286 0 00-.56 2.425c-.155.964-.295 2.176-.42 3.638-.093 1.43-.186 3.14-.279 5.13-.063 1.958-.094 4.26-.094 6.902v30.36c0 2.644.031 4.96.094 6.95.093 1.959.186 3.653.279 5.083a51.43 51.43 0 00.42 3.591c.187.964.373 1.772.56 2.425V69H422.5v-.186zm42.534-62.588c-3.669 0-6.98.171-9.934.513-2.954.311-5.503.653-7.649 1.026-2.487.467-4.71.98-6.669 1.54l1.353-7.556c.373.031.933.062 1.679.093.746.032 1.57.063 2.471.094l2.892.093c1.026 0 1.99.016 2.891.047.902 0 1.695.015 2.379.046h29.661a56.397 56.397 0 012.425-.046c.902-.031 1.85-.047 2.845-.047a697.492 697.492 0 005.41-.187 44.307 44.307 0 001.679-.093l1.353 7.555c-1.99-.56-4.229-1.072-6.716-1.539-2.145-.373-4.695-.715-7.649-1.026-2.953-.342-6.265-.513-9.933-.513v44.539c0 2.643.031 4.959.093 6.949.093 1.959.186 3.653.28 5.083.124 1.43.264 2.627.419 3.591.187.964.374 1.772.56 2.425V69h-11.146v-.186c.186-.653.357-1.462.513-2.426.155-.964.295-2.16.42-3.59.124-1.431.217-3.125.279-5.084.063-1.99.094-4.306.094-6.95V6.227zm66.737 30.688v13.85c0 2.644.032 4.96.094 6.95.062 1.959.155 3.653.28 5.083.124 1.43.264 2.627.419 3.591.187.964.373 1.772.56 2.425V69h-11.193v-.186a21.26 21.26 0 00.513-2.426c.187-.964.326-2.16.42-3.59.124-1.431.217-3.125.28-5.084.093-1.99.139-4.306.139-6.95V37.847L502.437 9.491a39.835 39.835 0 00-2.146-2.658 26.76 26.76 0 00-1.958-2.1 22.634 22.634 0 00-1.679-1.538c-.498-.404-.886-.7-1.166-.886v-.187h14.131c0 .715.295 1.897.886 3.545.622 1.616 1.725 3.529 3.311 5.736l15.297 20.94 14.971-21.873c.528-.777 1.057-1.57 1.585-2.378a53.233 53.233 0 001.446-2.332 15.8 15.8 0 001.026-2.052c.28-.622.42-1.15.42-1.586h9.094v.187c-.684.59-1.601 1.477-2.751 2.658-1.151 1.15-2.395 2.69-3.731 4.617l-19.402 27.33z" fill="#fff"/></svg>