<svg width="584" height="94" viewBox="0 0 584 94" fill="none" xmlns="http://www.w3.org/2000/svg"><path d="M24.724 4.294l.7.625L1.01 60.903H0l24.724-56.61zM14.27 29.09h24.1v.938h-24.1v-.938zm8.422-27.758h7.172l26.205 59.58h-7.172L22.693 1.332zM59.572 31.123C59.572 13.81 72.675.79 90.062.79s30.416 13.414 30.416 30.258-12.707 30.415-30.416 30.415c-17.71 0-30.49-13.02-30.49-30.332v-.01zm54.203 0c0-17.7-8.809-29.404-23.704-29.404-14.895 0-23.86 11.622-23.86 29.404 0 17.781 8.891 29.403 23.86 29.403s23.704-11.622 23.704-29.403zm-15.99 29.164l.856-.386c3.273 5.691 7.328 12.79 16.532 12.79 5.149 0 10.757-3.118 10.757-9.517h.938c0 7.015-6.243 10.454-11.695 10.454-9.986 0-14.041-7.484-17.388-13.332v-.009zM132.569 37.044V1.334h6.473v37.273c0 12.56 6.161 21.68 18.482 21.68s19.419-8.348 19.419-23.004V1.333h.938v35.794c0 15.676-8.423 24.328-21.13 24.328-16.146 0-24.172-8.11-24.172-24.411h-.01zM209.611 4.294l.699.625-24.412 55.993h-1.011l24.724-56.618zM199.166 29.09h24.099v.938h-24.099v-.938zm8.422-27.758h7.172l26.205 59.58h-7.172l-26.205-59.58zM264.513 1.333h16.22c9.433 0 17.157 3.825 17.23 12.79.074 10.058-7.015 14.968-25.037 14.968h-1.793l-.156 31.812h-6.473V1.333h.009zm8.579 26.82c14.27 0 18.95-5.305 18.876-14.04-.073-7.723-3.981-11.851-12.707-11.851h-8.266l.157 25.891h1.949-.009zm17.773 11.695c-3.586-7.098-4.524-10.757-12.404-10.757h-5.618v-.938h6.161c13.489 0 14.969 4.524 18.251 10.996l11.154 21.754h-6.86l-10.684-21.055zM314.725 1.333h6.473v59.58h-6.473V1.332zm2.418 0h30.958v.938h-30.958v-.938zm0 22.765h27.06v.938h-27.06v-.938zm0 35.876h31.74v.938h-31.74v-.938zM352.938 43.443h.938c0 9.902 7.255 17 18.408 17.074 8.891 0 17.157-4.993 17.157-15.677 0-19.023-32.834-8.651-32.834-29.32 0-8.735 7.172-14.739 18.095-14.739 10.216 0 15.751 6.004 15.751 11.935h-.938c0-5.223-4.836-10.84-14.739-10.997-8.809-.156-15.052 4.138-15.052 10.215 0 16.844 33.064 7.255 33.064 28.778 0 13.332-9.277 20.743-20.43 20.743-11.779 0-19.42-7.328-19.42-18.012zm37.515-30.727c0 2.261-.625 4.054-1.324 5.149l-.782-.47c.699-1.093 1.168-2.574 1.168-4.68h.938zM401.68 1.333h6.473v59.58h-6.473V1.332zm2.418 0h30.958v.938h-30.958v-.938zm0 22.765h27.06v.938h-27.06v-.938zm0 35.876h31.74v.938h-31.74v-.938zM445.583 1.333h16.22c9.434 0 17.157 3.825 17.231 12.79.073 10.058-7.016 14.968-25.037 14.968h-1.793l-.157 31.812h-6.473V1.333h.009zm8.579 26.82c14.27 0 18.95-5.305 18.877-14.04-.074-7.723-3.982-11.851-12.707-11.851h-8.266l.156 25.891h1.949-.009zm17.773 11.695c-3.586-7.098-4.523-10.757-12.403-10.757h-5.618v-.938h6.16c13.489 0 14.969 4.524 18.252 10.996l11.153 21.754h-6.859l-10.685-21.055zM490.5 1.333h7.016l23.005 53.575h-.938l22.38-53.575h1.011l-24.954 59.58h-1.949l-25.58-59.58h.009zM549.373 1.333h6.473v59.58h-6.473V1.332zm2.418 0h30.959v.938h-30.959v-.938zm0 22.765h27.06v.938h-27.06v-.938zm0 35.876h31.74v.938h-31.74v-.938zM209.951 81.075v11.337h7.034v.8h-7.917V81.075h.883zM223.044 90.931c.304.515.717.92 1.26 1.196.533.276 1.14.423 1.82.423.681 0 1.297-.138 1.839-.423.534-.276.957-.68 1.269-1.195.304-.515.46-1.122.46-1.821v-8.036h.864v8.091c0 .864-.193 1.61-.579 2.244a3.805 3.805 0 01-1.582 1.443c-.671.34-1.425.506-2.271.506-.846 0-1.581-.166-2.252-.506a3.866 3.866 0 01-1.582-1.443c-.386-.626-.579-1.37-.579-2.244v-8.09h.883v8.035c0 .699.147 1.306.45 1.82zM243.622 93.22l-3.798-5.543-3.632 5.544h-1.085l4.23-6.243-4.055-5.903h1.103l3.614 5.25 3.457-5.25h1.048l-4.036 5.949 4.266 6.188h-1.121l.009.009zM250.656 90.931c.304.515.718.92 1.26 1.196.533.276 1.14.423 1.821.423.68 0 1.296-.138 1.839-.423a3.17 3.17 0 001.268-1.195c.304-.515.46-1.122.46-1.821v-8.036h.865v8.091c0 .864-.194 1.61-.58 2.244a3.808 3.808 0 01-1.581 1.443c-.671.34-1.425.506-2.271.506-.846 0-1.582-.166-2.253-.506a3.87 3.87 0 01-1.581-1.443c-.387-.626-.58-1.37-.58-2.244v-8.09h.883v8.035c0 .699.147 1.306.45 1.82zM271.187 93.22l-3.365-5.166c-.257.046-.57.064-.956.064h-1.986v5.094h-.883V81.075h2.933c.671 0 1.324.129 1.94.377a3.444 3.444 0 011.517 1.15c.396.514.589 1.149.589 1.912 0 .763-.184 1.407-.543 2.013-.358.598-.919 1.04-1.682 1.306l3.475 5.388h-1.039zm-1.875-6.72a2.819 2.819 0 00.754-1.95c0-.477-.12-.919-.368-1.332a2.584 2.584 0 00-1.058-.975c-.459-.24-.993-.359-1.59-.359h-2.17v5.434h1.931c1.167 0 2.004-.276 2.501-.818zM286.083 81.075l-4.791 7.815v4.33h-.882v-4.33l-4.791-7.815h1.085l4.175 6.877 4.137-6.877h1.067zM307.912 93.763l-2.952-7.3-3.016 7.319-5.066-12.67h1.011l4.138 10.702 2.492-6.4-1.738-4.311h.883l4.266 10.6 4.174-10.6h.938l-5.158 12.65.028.01zM323.441 89.203h-5.664l-1.701 4.017h-.883l5.425-12.67h.074l5.425 12.67h-.993l-1.683-4.017zm-.322-.791l-2.473-5.967-2.529 5.967h5.011-.009zM337.316 81.075v.8h-3.779v11.337h-.883V81.875h-3.742v-.8h8.413-.009zM350.096 81.075v.8h-7.034v4.818h6.326v.8h-6.326v4.91h7.292v.8h-8.174V81.065h7.916v.01zM362.739 93.22l-3.365-5.166c-.258.046-.57.064-.956.064h-1.986v5.094h-.883V81.075h2.933c.671 0 1.324.129 1.94.377a3.45 3.45 0 011.517 1.15c.396.514.589 1.149.589 1.912 0 .763-.184 1.407-.543 2.013-.358.598-.919 1.04-1.683 1.306l3.476 5.388h-1.039zm-1.876-6.72a2.814 2.814 0 00.754-1.95c0-.477-.119-.919-.367-1.332a2.59 2.59 0 00-1.058-.975c-.46-.24-.993-.359-1.591-.359h-2.169v5.434h1.93c1.168 0 2.005-.276 2.501-.818zM375.988 81.075v.8h-6.307v5.011h5.59v.79h-5.59v5.545h-.883V81.084h7.199l-.009-.009zM388.254 93.22l-3.366-5.166c-.257.046-.57.064-.956.064h-1.986v5.094h-.883V81.075h2.934c.671 0 1.324.129 1.94.377a3.45 3.45 0 011.517 1.15c.395.514.588 1.149.588 1.912 0 .763-.184 1.407-.542 2.013-.359.598-.92 1.04-1.683 1.306l3.476 5.388h-1.039zm-1.876-6.72a2.814 2.814 0 00.754-1.95c0-.477-.12-.919-.368-1.332a2.581 2.581 0 00-1.057-.975c-.46-.24-.993-.359-1.591-.359h-2.17v5.434h1.931c1.168 0 2.004-.276 2.501-.818zM394.259 84.063a6.518 6.518 0 012.39-2.271 6.584 6.584 0 013.274-.846 6.67 6.67 0 013.291.846 6.565 6.565 0 012.409 2.27c.589.957.883 1.987.883 3.109a5.801 5.801 0 01-.883 3.107c-.588.956-1.388 1.701-2.409 2.253a6.752 6.752 0 01-3.291.827c-1.186 0-2.29-.266-3.292-.8a6.17 6.17 0 01-2.382-2.225c-.588-.947-.873-2.004-.873-3.162 0-1.159.294-2.152.883-3.108zm.772 5.802a5.64 5.64 0 002.041 1.958c.855.487 1.793.726 2.823.726s1.995-.239 2.869-.717a5.44 5.44 0 002.069-1.958 5.107 5.107 0 00.763-2.713c0-.983-.258-1.884-.773-2.712a5.768 5.768 0 00-2.068-1.977 5.694 5.694 0 00-2.842-.735 5.695 5.695 0 00-2.859.745 5.52 5.52 0 00-2.041 1.995 5.178 5.178 0 00-.745 2.703c0 .974.257 1.866.763 2.684zM422.357 81.075v12.43h-.037l-9.893-10.536.018 10.242h-.864V80.817h.055l9.894 10.62-.019-10.362h.846zM435.626 81.075v.8h-3.779v11.337h-.883V81.875h-3.742v-.8h8.413-.009zM455.229 81.075v.8h-3.779v11.337h-.883V81.875h-3.742v-.8h8.413-.009zM459.514 84.063a6.518 6.518 0 012.39-2.271 6.577 6.577 0 013.273-.846 6.67 6.67 0 013.292.846 6.565 6.565 0 012.409 2.27c.589.957.883 1.987.883 3.109a5.801 5.801 0 01-.883 3.107c-.588.956-1.388 1.701-2.409 2.253a6.753 6.753 0 01-3.292.827c-1.186 0-2.289-.266-3.291-.8a6.17 6.17 0 01-2.382-2.225c-.588-.947-.873-2.004-.873-3.162 0-1.159.294-2.152.883-3.108zm.781 5.802a5.64 5.64 0 002.041 1.958c.855.487 1.793.726 2.823.726s1.995-.239 2.869-.717a5.44 5.44 0 002.069-1.958 5.107 5.107 0 00.763-2.713c0-.983-.258-1.884-.773-2.712a5.76 5.76 0 00-2.068-1.977 5.694 5.694 0 00-2.842-.735 5.695 5.695 0 00-2.859.745 5.52 5.52 0 00-2.041 1.995 5.178 5.178 0 00-.745 2.703c0 .974.257 1.866.763 2.684zM485.883 93.763l-2.951-7.3-3.016 7.319-5.066-12.67h1.011l4.138 10.702 2.491-6.4-1.737-4.311h.882l4.267 10.6 4.174-10.6h.938l-5.158 12.65.027.01zM506.553 81.075v12.43h-.037l-9.894-10.536.019 10.242h-.865V80.817h.056l9.893 10.62-.018-10.362h.846zM521.955 93.22h-.883v-5.709h-7.742v5.71h-.883V81.084h.883v5.645h7.742v-5.645h.883v12.137zM527.922 84.063a6.518 6.518 0 012.39-2.271 6.584 6.584 0 013.274-.846 6.67 6.67 0 013.291.846 6.565 6.565 0 012.409 2.27c.589.957.883 1.987.883 3.109a5.801 5.801 0 01-.883 3.107c-.588.956-1.388 1.701-2.409 2.253a6.752 6.752 0 01-3.291.827c-1.186 0-2.29-.266-3.292-.8a6.16 6.16 0 01-2.381-2.225c-.589-.947-.874-2.004-.874-3.162 0-1.159.294-2.152.883-3.108zm.781 5.802a5.64 5.64 0 002.041 1.958c.856.487 1.793.726 2.823.726s1.996-.239 2.869-.717a5.44 5.44 0 002.069-1.958 5.098 5.098 0 00.763-2.713c0-.983-.257-1.884-.772-2.712a5.771 5.771 0 00-2.069-1.977 5.693 5.693 0 00-2.841-.735c-1.03 0-1.986.248-2.86.745a5.52 5.52 0 00-2.041 1.995 5.178 5.178 0 00-.745 2.703c0 .974.258 1.866.763 2.684zM557.548 80.808v12.413h-.865v-9.967l-5.277 7.024h-.037l-5.241-6.941v9.884h-.864V80.808h.018l6.115 8.23 6.151-8.23zM571.359 81.075v.8h-7.034v4.818h6.326v.8h-6.326v4.91h7.291v.8h-8.174V81.065h7.917v.01zM581.775 81.949a6.165 6.165 0 00-1.554-.203c-.846 0-1.517.194-2.023.589-.505.395-.763.9-.763 1.517 0 .432.138.8.405 1.103.276.304.616.552 1.039.754.423.203.965.423 1.627.662.727.248 1.324.506 1.802.773.479.266.874.615 1.205 1.066.322.45.487 1.03.487 1.738s-.165 1.269-.505 1.783c-.341.515-.81.92-1.416 1.205-.607.285-1.306.423-2.088.423-1.36 0-2.712-.414-4.054-1.25l.413-.681c.442.322.993.598 1.646.837.653.239 1.287.358 1.894.358.543 0 1.058-.1 1.545-.303a2.867 2.867 0 001.195-.91c.304-.405.46-.892.46-1.462 0-.533-.138-.984-.423-1.352a3.213 3.213 0 00-1.067-.883c-.432-.22-.965-.45-1.618-.67a15.576 15.576 0 01-1.793-.727 3.58 3.58 0 01-1.186-.929c-.322-.386-.478-.873-.478-1.452 0-.58.156-1.076.46-1.517.303-.442.735-.782 1.287-1.03a4.563 4.563 0 011.839-.386c.579 0 1.177.073 1.802.22.625.148 1.168.34 1.655.561l-.34.653a9.47 9.47 0 00-1.444-.497l-.009.01z" fill="#fff"/></svg>