<svg width="401" height="71" viewBox="0 0 401 71" fill="none" xmlns="http://www.w3.org/2000/svg"><path d="M10.386 64.896c3.669 0 7.042-.156 10.12-.466 3.078-.311 5.768-.669 8.069-1.073 2.674-.435 5.114-.948 7.322-1.54l-1.353 7.556a44.273 44.273 0 00-1.679-.093c-.746-.031-1.585-.062-2.518-.094-.902-.03-1.866-.062-2.892-.093a82.66 82.66 0 01-2.845-.046c-.901 0-1.71-.016-2.425-.047H.546v-.186c.186-.653.357-1.462.513-2.426.186-.964.342-2.16.466-3.59.124-1.431.218-3.125.28-5.084.062-1.99.093-4.306.093-6.95v-30.36c0-2.643-.03-4.944-.093-6.902-.062-1.99-.156-3.7-.28-5.13-.124-1.462-.28-2.674-.466-3.638a21.456 21.456 0 00-.513-2.425v-.187h11.193v.187a29.304 29.304 0 00-.56 2.425c-.155.964-.295 2.176-.42 3.638a287.74 287.74 0 00-.28 5.13c-.062 1.958-.093 4.26-.093 6.902v44.492zm34.512 3.918c.186-.653.357-1.462.513-2.426.155-.964.295-2.16.42-3.59a94.24 94.24 0 00.28-5.084c.061-1.99.093-4.306.093-6.95v-30.36c0-2.643-.032-4.944-.094-6.902-.062-1.99-.155-3.7-.28-5.13-.124-1.462-.264-2.674-.42-3.638a21.476 21.476 0 00-.512-2.425v-.187h11.146v.187a29.3 29.3 0 00-.56 2.425c-.155.964-.295 2.176-.42 3.638-.093 1.43-.186 3.14-.28 5.13-.061 1.958-.093 4.26-.093 6.902v30.36c0 2.644.032 4.96.094 6.95.093 1.959.186 3.653.28 5.083.124 1.43.264 2.627.42 3.591.186.964.372 1.772.559 2.425V69H44.898v-.186zm34.791-18.05c0 2.644.031 4.96.093 6.95.094 1.959.187 3.653.28 5.083.124 1.43.264 2.627.42 3.591.186.964.373 1.772.56 2.425V69H69.849v-.186c.186-.653.357-1.462.513-2.426.186-.964.342-2.16.466-3.59a94.23 94.23 0 00.28-5.084c.062-1.99.093-4.306.093-6.95v-30.36c0-2.643-.031-4.944-.093-6.902-.062-1.99-.156-3.7-.28-5.13-.124-1.462-.28-2.674-.466-3.638a21.476 21.476 0 00-.513-2.425v-.187h7.835a654.61 654.61 0 017.695-.046c2.487-.031 4.85-.063 7.089-.094a580.99 580.99 0 016.062-.14c1.804-.062 3.327-.124 4.571-.186 1.244-.093 2.13-.187 2.658-.28l-2.285 6.203a34.24 34.24 0 00-3.591-.746 67.871 67.871 0 00-4.337-.513c-1.68-.187-3.623-.28-5.83-.28-.746 0-1.679.03-2.798.093-1.12.031-2.223.078-3.312.14-1.243.062-2.549.124-3.917.187V30.01c3.202-.03 6.14-.124 8.814-.28a315.07 315.07 0 006.903-.466 114.07 114.07 0 006.063-.653l-1.4 6.763c-2.331-.28-4.694-.544-7.088-.793-2.052-.218-4.26-.404-6.623-.56a84.953 84.953 0 00-6.669-.28v17.023zM114.34 2.123c3.887 0 7.742-.015 11.566-.046 3.856-.031 7.385-.063 10.587-.094a387.37 387.37 0 008.208-.233c2.27-.093 3.809-.217 4.617-.373l-2.285 6.203a34.244 34.244 0 00-3.591-.746 67.819 67.819 0 00-4.337-.513c-1.679-.187-3.622-.28-5.83-.28-.746 0-1.648.03-2.705.093a87.64 87.64 0 00-2.985.14l-3.404.187v25.463c3.202-.03 6.094-.124 8.674-.28 2.581-.155 4.773-.31 6.576-.466a88.32 88.32 0 005.597-.653l-1.446 6.763a347.11 347.11 0 00-6.576-.793 144.17 144.17 0 00-6.296-.56 79.823 79.823 0 00-6.529-.28v29.242c3.669 0 7.042-.156 10.12-.466 3.078-.311 5.768-.669 8.068-1.073 2.674-.435 5.115-.948 7.322-1.54l-1.352 7.556a44.293 44.293 0 00-1.679-.093c-.746-.031-1.586-.062-2.518-.094a715.93 715.93 0 00-2.892-.093c-.995 0-1.943-.015-2.845-.046-.901 0-1.71-.016-2.425-.047h-21.64v-.186a21.26 21.26 0 00.513-2.426c.187-.964.342-2.16.467-3.59.124-1.431.217-3.125.28-5.084.062-1.99.093-4.306.093-6.95v-30.36c0-2.643-.031-4.944-.093-6.902-.063-1.99-.156-3.7-.28-5.13-.125-1.462-.28-2.674-.467-3.638-.155-.964-.326-1.772-.513-2.425v-.187zm74.713 10.633h-1.026c-.248-.715-.653-1.523-1.212-2.425-.529-.901-1.244-1.74-2.146-2.518-.87-.808-1.943-1.477-3.218-2.005-1.243-.529-2.72-.793-4.43-.793-1.524 0-2.876.233-4.058.7-1.181.466-2.176 1.119-2.984 1.958-.778.84-1.368 1.834-1.773 2.985-.404 1.15-.606 2.425-.606 3.824 0 2.239.622 4.384 1.866 6.436 1.274 2.021 2.86 4.026 4.757 6.016 1.896 1.99 3.948 3.98 6.156 5.97a77.298 77.298 0 016.156 6.203c1.896 2.145 3.467 4.399 4.71 6.762 1.275 2.332 1.912 4.85 1.912 7.555 0 2.021-.357 4.058-1.072 6.11a15.458 15.458 0 01-3.218 5.456c-1.462 1.617-3.343 2.938-5.643 3.964-2.301.995-5.037 1.493-8.209 1.493-1.772 0-3.466-.171-5.083-.513-1.586-.311-3.062-.7-4.431-1.166a33.57 33.57 0 01-3.637-1.586c-1.057-.56-1.928-1.072-2.612-1.539l1.073-10.307h1.166c.342 1.462.901 2.86 1.679 4.198a15.39 15.39 0 002.845 3.497 14.799 14.799 0 003.917 2.426c1.461.59 3.063.886 4.804.886 1.585 0 3-.233 4.244-.7 1.274-.497 2.363-1.166 3.264-2.005a8.623 8.623 0 002.052-3.078c.498-1.182.746-2.472.746-3.871 0-1.959-.357-3.762-1.072-5.41a20.75 20.75 0 00-2.845-4.757 36.533 36.533 0 00-3.964-4.337 198.559 198.559 0 00-4.524-4.198 151.19 151.19 0 01-4.57-4.384 38.28 38.28 0 01-3.965-4.757 25.863 25.863 0 01-2.798-5.456c-.715-1.959-1.073-4.104-1.073-6.436 0-2.456.467-4.664 1.4-6.623.963-1.99 2.223-3.684 3.777-5.083a17.132 17.132 0 015.364-3.218 17.388 17.388 0 016.156-1.12c1.554 0 2.984.125 4.29.374s2.472.544 3.498.886c1.057.342 1.974.684 2.752 1.026l1.912.84-.327 8.72zm33.159-6.529c-3.668 0-6.98.171-9.933.513-2.954.311-5.504.653-7.649 1.026-2.487.467-4.71.98-6.669 1.54l1.352-7.556c.374.031.933.062 1.679.093.747.032 1.571.063 2.472.094l2.892.093c1.026 0 1.99.016 2.891.047.902 0 1.695.015 2.379.046h29.661a56.363 56.363 0 012.425-.046c.902-.031 1.85-.047 2.845-.047a691.183 691.183 0 005.41-.187 44.307 44.307 0 001.679-.093l1.352 7.555c-1.99-.56-4.228-1.072-6.715-1.539-2.146-.373-4.695-.715-7.649-1.026-2.954-.342-6.265-.513-9.934-.513v44.539c0 2.643.031 4.959.094 6.949.093 1.959.186 3.653.279 5.083a51.43 51.43 0 00.42 3.591c.187.964.373 1.772.56 2.425V69h-11.146v-.186c.186-.653.357-1.462.513-2.426.155-.964.295-2.16.419-3.59.125-1.431.218-3.125.28-5.084.062-1.99.093-4.306.093-6.95V6.227zm66.738 30.688v13.85c0 2.644.031 4.96.093 6.95.063 1.959.156 3.653.28 5.083a51.43 51.43 0 00.42 3.591c.187.964.373 1.772.56 2.425V69H279.11v-.186c.186-.653.357-1.462.513-2.426.186-.964.326-2.16.419-3.59.125-1.431.218-3.125.28-5.084.094-1.99.14-4.306.14-6.95V37.847L259.615 9.491a39.832 39.832 0 00-2.145-2.658 26.57 26.57 0 00-1.959-2.1 22.436 22.436 0 00-1.679-1.538c-.497-.404-.886-.7-1.166-.886v-.187h14.131c0 .715.296 1.897.887 3.545.621 1.616 1.725 3.529 3.311 5.736l15.297 20.94 14.97-21.873c.529-.777 1.058-1.57 1.586-2.378a53.233 53.233 0 001.446-2.332 15.8 15.8 0 001.026-2.052c.28-.622.42-1.15.42-1.586h9.094v.187c-.684.59-1.601 1.477-2.752 2.658-1.15 1.15-2.394 2.69-3.731 4.617l-19.401 27.33zm41.927 27.982c3.669 0 7.042-.156 10.12-.466 3.078-.311 5.768-.669 8.069-1.073 2.673-.435 5.114-.948 7.322-1.54l-1.353 7.556a44.293 44.293 0 00-1.679-.093 304.7 304.7 0 00-2.518-.094 715.93 715.93 0 00-2.892-.093c-.995 0-1.943-.015-2.845-.046-.901 0-1.71-.016-2.425-.047h-21.639v-.186c.186-.653.357-1.462.513-2.426.186-.964.342-2.16.466-3.59.124-1.431.218-3.125.28-5.084.062-1.99.093-4.306.093-6.95v-30.36c0-2.643-.031-4.944-.093-6.902a94.61 94.61 0 00-.28-5.13c-.124-1.462-.28-2.674-.466-3.638a21.7 21.7 0 00-.513-2.425v-.187h11.193v.187a28.884 28.884 0 00-.56 2.425c-.156.964-.296 2.176-.42 3.638-.093 1.43-.186 3.14-.28 5.13-.062 1.958-.093 4.26-.093 6.902v44.492zm34.092-62.774c3.886 0 7.742-.015 11.566-.046 3.855-.031 7.384-.063 10.587-.094 3.202-.062 5.938-.14 8.208-.233 2.269-.093 3.808-.217 4.617-.373l-2.285 6.203a34.321 34.321 0 00-3.592-.746 67.819 67.819 0 00-4.337-.513c-1.679-.187-3.622-.28-5.829-.28-.747 0-1.648.03-2.705.093a87.64 87.64 0 00-2.985.14l-3.405.187v25.463c3.203-.03 6.094-.124 8.675-.28 2.58-.155 4.772-.31 6.576-.466a88.282 88.282 0 005.596-.653l-1.446 6.763c-2.145-.28-4.337-.544-6.575-.793a144.223 144.223 0 00-6.297-.56 79.804 79.804 0 00-6.529-.28v29.242c3.669 0 7.043-.156 10.121-.466 3.078-.311 5.767-.669 8.068-1.073 2.674-.435 5.114-.948 7.322-1.54l-1.353 7.556a44.168 44.168 0 00-1.679-.093 304.7 304.7 0 00-2.518-.094c-.902-.03-1.865-.062-2.891-.093-.995 0-1.944-.015-2.845-.046-.902 0-1.71-.016-2.426-.047h-21.639v-.186c.186-.653.357-1.462.513-2.426.186-.964.342-2.16.466-3.59.125-1.431.218-3.125.28-5.084.062-1.99.093-4.306.093-6.95v-30.36c0-2.643-.031-4.944-.093-6.902a93.6 93.6 0 00-.28-5.13c-.124-1.462-.28-2.674-.466-3.638a21.7 21.7 0 00-.513-2.425v-.187z" fill="#fff"/></svg>