<svg width="445" height="71" viewBox="0 0 445 71" fill="none" xmlns="http://www.w3.org/2000/svg"><path d="M.02 2.122c3.886 0 7.742-.015 11.566-.046 3.855-.031 7.384-.063 10.587-.094 3.202-.062 5.938-.14 8.208-.233 2.27-.093 3.808-.217 4.617-.373L32.713 7.58a34.246 34.246 0 00-3.591-.746 67.871 67.871 0 00-4.338-.513c-1.679-.187-3.622-.28-5.83-.28-.746 0-1.647.03-2.704.093a87.59 87.59 0 00-2.985.14L9.86 6.46v25.463c3.203-.03 6.094-.124 8.675-.28 2.58-.155 4.772-.31 6.576-.466a88.267 88.267 0 005.596-.653l-1.446 6.763a347.78 347.78 0 00-6.575-.793 144.184 144.184 0 00-6.296-.56 79.82 79.82 0 00-6.53-.28v29.242c3.67 0 7.043-.156 10.12-.466 3.079-.311 5.768-.669 8.069-1.073 2.674-.435 5.114-.948 7.322-1.54l-1.353 7.556a44.273 44.273 0 00-1.678-.093c-.747-.031-1.586-.062-2.519-.094a713.78 713.78 0 00-2.891-.093c-.995 0-1.944-.015-2.845-.046-.902 0-1.71-.016-2.425-.047H.02v-.186c.186-.653.357-1.462.513-2.426.186-.964.342-2.16.466-3.59.125-1.431.218-3.125.28-5.084.062-1.99.093-4.306.093-6.95v-30.36a221.2 221.2 0 00-.093-6.902c-.062-1.99-.155-3.7-.28-5.13C.875 6.91.72 5.698.533 4.734A21.455 21.455 0 00.02 2.309v-.187zm56.664 62.774c3.669 0 7.042-.156 10.12-.466 3.078-.311 5.768-.669 8.069-1.073 2.673-.435 5.114-.948 7.322-1.54l-1.353 7.556a44.285 44.285 0 00-1.679-.093 305.54 305.54 0 00-2.518-.094c-.902-.03-1.866-.062-2.892-.093a82.66 82.66 0 01-2.844-.046c-.902 0-1.71-.016-2.426-.047H46.844v-.186c.186-.653.357-1.462.513-2.426.186-.964.342-2.16.466-3.59a94.23 94.23 0 00.28-5.084c.062-1.99.093-4.306.093-6.95v-30.36c0-2.643-.03-4.944-.093-6.902-.062-1.99-.156-3.7-.28-5.13-.124-1.462-.28-2.674-.466-3.638a21.476 21.476 0 00-.513-2.425v-.187h11.193v.187a29.3 29.3 0 00-.56 2.425c-.155.964-.295 2.176-.42 3.638-.093 1.43-.186 3.14-.28 5.13-.062 1.958-.093 4.26-.093 6.902v44.492zM90.776 2.122c3.886 0 7.742-.015 11.566-.046 3.855-.031 7.384-.063 10.587-.094 3.202-.062 5.938-.14 8.208-.233 2.269-.093 3.808-.217 4.617-.373l-2.285 6.203a34.244 34.244 0 00-3.591-.746 67.948 67.948 0 00-4.338-.513c-1.679-.187-3.622-.28-5.829-.28-.747 0-1.648.03-2.705.093a87.64 87.64 0 00-2.985.14l-3.405.187v25.463c3.203-.03 6.094-.124 8.675-.28 2.58-.155 4.772-.31 6.576-.466a88.282 88.282 0 005.596-.653l-1.446 6.763c-2.145-.28-4.337-.544-6.575-.793a144.31 144.31 0 00-6.296-.56 79.847 79.847 0 00-6.53-.28v29.242c3.669 0 7.043-.156 10.121-.466 3.078-.311 5.767-.669 8.068-1.073 2.674-.435 5.114-.948 7.322-1.54l-1.353 7.556a44.213 44.213 0 00-1.678-.093c-.747-.031-1.586-.062-2.519-.094-.902-.03-1.865-.062-2.891-.093-.995 0-1.944-.015-2.845-.046-.902 0-1.71-.016-2.425-.047H90.776v-.186c.187-.653.358-1.462.513-2.426.186-.964.342-2.16.466-3.59a94.24 94.24 0 00.28-5.084c.062-1.99.093-4.306.093-6.95v-30.36c0-2.643-.03-4.944-.093-6.902-.062-1.99-.155-3.7-.28-5.13-.124-1.462-.28-2.674-.466-3.638a21.432 21.432 0 00-.513-2.425v-.187zm105.68 59.043c0 .342-.047.7-.14 1.073a1.552 1.552 0 01-.513.932 37.117 37.117 0 01-4.571 2.939 35.346 35.346 0 01-5.27 2.285c-1.896.653-3.948 1.15-6.156 1.492-2.176.373-4.523.56-7.042.56-5.659 0-10.82-.824-15.483-2.472-4.664-1.679-8.675-4.042-12.033-7.089-3.327-3.047-5.907-6.7-7.742-10.96-1.834-4.29-2.751-9.047-2.751-14.27 0-2.954.373-5.861 1.119-8.722a35.27 35.27 0 013.358-8.161 32.962 32.962 0 015.41-7.09 34.527 34.527 0 017.322-5.642c2.767-1.586 5.798-2.814 9.094-3.685 3.327-.901 6.918-1.352 10.773-1.352 1.493 0 3.016.078 4.571.233 1.554.125 3.093.327 4.617.606a45.43 45.43 0 014.384.933 44.55 44.55 0 014.057 1.26l3.172 8.627-.374.187c-1.212-1.088-2.611-2.099-4.197-3.032a33.31 33.31 0 00-10.773-4.01 29.468 29.468 0 00-5.97-.607c-3.917 0-7.508.622-10.773 1.866-3.264 1.212-6.078 2.985-8.441 5.316-2.332 2.332-4.151 5.193-5.457 8.582-1.306 3.389-1.958 7.244-1.958 11.566 0 4.757.621 9.172 1.865 13.245 1.244 4.073 3.094 7.602 5.55 10.586 2.456 2.985 5.519 5.333 9.187 7.043 3.7 1.678 8.006 2.518 12.919 2.518 2.176 0 4.119-.171 5.83-.513 1.71-.342 3.155-.762 4.337-1.26 1.181-.528 2.067-1.087 2.658-1.678.622-.622.933-1.182.933-1.68v-1.818c0-2.176-.031-4.057-.093-5.643a61.97 61.97 0 00-.28-4.104 40.47 40.47 0 00-.42-3.032 21.222 21.222 0 00-.56-2.332v-.186h11.193v.186c-.186.654-.373 1.43-.559 2.332-.156.871-.296 1.912-.42 3.125a67.947 67.947 0 00-.28 4.29 149.455 149.455 0 00-.093 5.644v1.912zM255.685 69v-.186c.062-.156.109-.39.14-.7.031-.311.047-.59.047-.84 0-.963-.14-2.02-.42-3.17-.249-1.182-.746-2.644-1.493-4.385l-5.643-12.685c-1.741-.062-4.057-.093-6.949-.093h-16.509c-2.27 0-4.322.03-6.156.093l-5.364 12.312c-.466 1.15-.963 2.41-1.492 3.778a11.446 11.446 0 00-.793 4.15c0 .405.031.747.094 1.026.062.25.124.42.186.514V69h-9.514v-.186c.56-.591 1.259-1.633 2.099-3.125.839-1.524 1.756-3.42 2.751-5.69L233.392.723h3.731l25.324 56.99a114.5 114.5 0 001.819 3.918c.653 1.244 1.26 2.363 1.819 3.358.56.995 1.057 1.835 1.493 2.519.435.684.73 1.119.886 1.306V69h-12.779zm-30.221-26.07h5.55c1.897-.031 3.747-.047 5.55-.047 1.834-.03 3.591-.047 5.27-.047 1.679-.03 3.202-.062 4.57-.093L233.299 13.13l-12.872 29.8h5.037zm51.394-40.808l48.037 51.115V20.404c0-2.643-.031-4.944-.094-6.902-.062-1.99-.155-3.7-.279-5.13-.125-1.462-.28-2.674-.467-3.638-.155-.964-.326-1.772-.513-2.425v-.187h8.302v.187c-.187.653-.358 1.461-.513 2.425-.156.964-.296 2.176-.42 3.638a94.61 94.61 0 00-.28 5.13c-.062 1.958-.093 4.26-.093 6.902v49.529h-1.632l-48.037-51.068v31.9c0 2.643.031 4.959.093 6.949.063 1.959.156 3.653.28 5.083a51.43 51.43 0 00.42 3.591c.155.964.326 1.772.513 2.425V69h-8.301v-.186c.186-.653.357-1.462.513-2.426.186-.964.342-2.16.466-3.59.124-1.431.218-3.125.28-5.084.062-1.99.093-4.306.093-6.95v-30.36c0-2.643-.031-4.944-.093-6.902a94.61 94.61 0 00-.28-5.13c-.124-1.462-.28-2.674-.466-3.638a21.7 21.7 0 00-.513-2.425v-.187h2.984zm122.097 10.26l-.42.187c-2.425-2.239-5.348-4.026-8.768-5.363-3.389-1.337-7.12-2.006-11.193-2.006-3.917 0-7.508.622-10.773 1.866-3.265 1.212-6.078 2.985-8.441 5.316-2.332 2.332-4.151 5.193-5.457 8.582-1.306 3.389-1.959 7.244-1.959 11.566 0 4.757.622 9.203 1.866 13.338 1.243 4.104 3.093 7.664 5.55 10.68 2.456 3.016 5.518 5.394 9.187 7.135 3.7 1.71 8.006 2.565 12.919 2.565 1.772 0 3.544-.186 5.316-.56a25.548 25.548 0 005.084-1.632 26.993 26.993 0 004.617-2.658 24.236 24.236 0 003.964-3.59l.513.325-3.731 9.514c-2.332.902-4.912 1.586-7.742 2.053a48.399 48.399 0 01-8.488.746c-5.752 0-11.022-.824-15.81-2.472-4.757-1.679-8.861-4.042-12.312-7.089-3.42-3.047-6.094-6.7-8.022-10.96-1.896-4.29-2.844-9.047-2.844-14.27 0-2.954.373-5.861 1.119-8.722a35.226 35.226 0 013.358-8.161 32.93 32.93 0 015.41-7.09 34.527 34.527 0 017.322-5.642c2.767-1.586 5.798-2.814 9.094-3.685 3.327-.901 6.918-1.352 10.773-1.352 6.001 0 11.566.917 16.696 2.752l3.172 8.627zm10.54-10.26c3.886 0 7.741-.015 11.566-.046 3.855-.031 7.384-.063 10.586-.094a387.37 387.37 0 008.208-.233c2.27-.093 3.809-.217 4.617-.373l-2.285 6.203a34.244 34.244 0 00-3.591-.746 67.819 67.819 0 00-4.337-.513c-1.679-.187-3.622-.28-5.83-.28-.746 0-1.648.03-2.705.093a87.457 87.457 0 00-2.984.14l-3.405.187v25.463a173.49 173.49 0 008.675-.28c2.58-.155 4.772-.31 6.575-.466a88.234 88.234 0 005.597-.653l-1.446 6.763a347.11 347.11 0 00-6.576-.793 144.03 144.03 0 00-6.296-.56 79.804 79.804 0 00-6.529-.28v29.242c3.669 0 7.042-.156 10.12-.466 3.078-.311 5.768-.669 8.069-1.073 2.673-.435 5.114-.948 7.322-1.54l-1.353 7.556a44.293 44.293 0 00-1.679-.093c-.746-.031-1.586-.062-2.518-.094a715.93 715.93 0 00-2.892-.093c-.995 0-1.943-.015-2.845-.046-.901 0-1.71-.016-2.425-.047h-21.639v-.186c.186-.653.357-1.462.513-2.426.186-.964.342-2.16.466-3.59.124-1.431.218-3.125.28-5.084.062-1.99.093-4.306.093-6.95v-30.36c0-2.643-.031-4.944-.093-6.902a94.61 94.61 0 00-.28-5.13c-.124-1.462-.28-2.674-.466-3.638a21.7 21.7 0 00-.513-2.425v-.187z" fill="#fff"/></svg>