<svg width="135" height="135" viewBox="0 0 135 135" fill="none" xmlns="http://www.w3.org/2000/svg"><path d="M82.588 106.818a.77.77 0 001 .422.77.77 0 00.408-1.006l-1.922-4.663c-.466.21-.932.402-1.408.594l1.922 4.663v-.01zM67.84 30.173a.718.718 0 00.123-.402v-3.457a.766.766 0 00-.761-.766.766.766 0 00-.762.766v3.457c0 .153.058.278.124.402h1.275zM67.22 109.949a.766.766 0 00-.761.767v9.202c0 .421.352.144.77.144v.622a.766.766 0 00.762-.766v-9.202a.774.774 0 00-.77-.767zM48.82 18.769a.767.767 0 10-1.399.622l5.861 13.521c.466-.191.942-.383 1.427-.555l-5.89-13.579v-.01zM86.48 112.257a.76.76 0 00-1-.411.769.769 0 00-.41 1.005l2.78 6.751a.77.77 0 00.703.479c.096 0 .2-.019.295-.058a.768.768 0 00.41-1.005l-2.779-6.751v-.01zM107.431 51.49a.769.769 0 00.409-1.006.76.76 0 00-.999-.412l-5.728 2.384c.21.47.4.939.59 1.418l5.728-2.385zM105.804 84.344a.77.77 0 00.999-.421.769.769 0 00-.409-1.006l-4.682-1.953c-.18.478-.38.948-.58 1.417l4.681 1.953-.009.01zM104.225 68.065a.705.705 0 00.399.125h17.651a.766.766 0 000-1.532h-17.651a.785.785 0 00-.39.124v1.283h-.009zM89.154 16.107a.77.77 0 00-.41-1.006.76.76 0 00-.999.412l-7.07 17.18c.477.181.943.382 1.409.583l7.07-17.179v.01zM23.481 66.657h-2.836a.766.766 0 010 1.533h2.836a.766.766 0 000-1.532zM17.181 45.744a.76.76 0 00-.999.411.77.77 0 00.41 1.006L32.7 53.873c.19-.478.38-.947.58-1.417l-16.108-6.712h.01zM44.118 11.769c.124.287.41.46.704.46.105 0 .21-.02.305-.068a.767.767 0 00.39-1.015l-2.522-5.822a.758.758 0 00-1.008-.393c-.39.173-.562.623-.39 1.016l2.521 5.822zM90.2 11.539a.77.77 0 00.999-.421l1.78-4.31a.77.77 0 00-.41-1.005.76.76 0 00-1 .412l-1.778 4.309a.77.77 0 00.409 1.005v.01zM67.202 21.66a.766.766 0 00.76-.766V.766a.766.766 0 00-.76-.766.766.766 0 00-.762.766v20.128c0 .422.343.767.762.767zM109.829 49.66a.77.77 0 00.999.421l17.878-7.45a.77.77 0 00.41-1.005.76.76 0 00-.999-.412l-17.879 7.45a.769.769 0 00-.409 1.005v-.009zM109.049 26.084c.2 0 .39-.076.542-.23l4.996-5.027a.772.772 0 000-1.082.76.76 0 00-1.075 0l-4.996 5.028a.772.772 0 00.543 1.311h-.01zM19.884 67.424c0-.422.343-.767.761-.767H11.54a.766.766 0 000 1.533h9.105a.766.766 0 01-.76-.766zM10.36 42.9l-3.664-1.532a.76.76 0 00-1 .411.77.77 0 00.41 1.006l3.663 1.532a.771.771 0 001-.421.77.77 0 00-.41-1.006v.01zM26.43 27.483c.153.153.343.22.543.22s.39-.077.542-.22a.772.772 0 000-1.082l-6.603-6.646a.76.76 0 00-1.075 0 .772.772 0 000 1.082l6.603 6.646h-.01z" fill="#fff"/><path d="M20.645 68.19c.42 0 .761-.343.761-.766a.764.764 0 00-.761-.767.764.764 0 00-.761.767c0 .423.34.766.761.766zM5.526 66.657H.958a.766.766 0 000 1.533h4.568a.766.766 0 000-1.532zM93.92 41.626l10.095-10.16a.772.772 0 000-1.082.76.76 0 00-1.075 0l-10.095 10.16c.361.355.723.718 1.075 1.092v-.01zM119.81 88.519l-10.2-4.252a.76.76 0 00-.999.412.769.769 0 00.409 1.005l10.2 4.252a.77.77 0 00.295.058c.295 0 .58-.182.704-.48a.769.769 0 00-.409-1.005v.01zM104.9 104.281a.76.76 0 00-1.075 0 .772.772 0 000 1.082l3.739 3.763a.755.755 0 001.085 0 .772.772 0 000-1.082l-3.74-3.763h-.009zM93.92 93.23c-.352.364-.714.728-1.085 1.082l7.869 7.919a.74.74 0 00.542.221c.2 0 .39-.077.543-.221a.772.772 0 000-1.082l-7.87-7.919zM41.578 40.554l-8.535-8.59a.76.76 0 00-1.075 0 .772.772 0 000 1.082l8.535 8.59c.352-.374.714-.728 1.075-1.082zM30.188 66.657h-1.693a.766.766 0 000 1.533h1.693c-.01-.508-.01-1.025 0-1.532zM124.872 90.635l-2.322-.967a.76.76 0 00-.999.412.77.77 0 00.41 1.005l2.321.968a.77.77 0 00.999-.421.769.769 0 00-.409-1.006v.01zM133.436 66.657h-6.08a.765.765 0 000 1.533h6.08a.765.765 0 000-1.532zM100.01 53.75s.019.03.029.05c-.01-.03-.029-.06-.039-.09v.04h.01zM31.121 63.708a36.576 36.576 0 012.293-9.538l-.704-.287a37.505 37.505 0 00-2.35 9.758 35.618 35.618 0 00-.171 3.026h.76c.02-.977.067-1.954.172-2.95v-.01zM41.026 42.172l-.524-.527a37.352 37.352 0 00-7.212 10.82l.695.288a36.317 36.317 0 017.04-10.581zM70.893 31.112c3.33.345 6.508 1.14 9.477 2.308l.295-.718a37.128 37.128 0 00-9.696-2.356 38.352 38.352 0 00-3.13-.182.735.735 0 01-1.275-.01c-4.13.067-8.126.824-11.856 2.174l.305.699a35.916 35.916 0 0115.88-1.925v.01zM81.78 100.843l.294.718a37.235 37.235 0 008.506-5.238 37.856 37.856 0 002.246-2.01l-.542-.547a36.414 36.414 0 01-10.515 7.077h.01zM100.99 54.17a36.547 36.547 0 012.293 16.969 36.551 36.551 0 01-2.293 9.538l.714.296a37.797 37.797 0 002.341-9.757c.104-1.054.161-2.107.18-3.15a.749.749 0 01-.371-.642c0-.278.152-.508.371-.642a37.139 37.139 0 00-2.512-12.908l-.704.297h-.019zM93.378 92.684l.542.546a36.813 36.813 0 007.203-10.83l-.714-.297a36.5 36.5 0 01-7.04 10.581h.009zM92.292 41.09l.543-.546a36.544 36.544 0 00-10.762-7.249l-.295.718A36.057 36.057 0 0192.292 41.1v-.01zM100.41 52.753l.019-.01.694-.287a37.539 37.539 0 00-5.205-8.56 37.91 37.91 0 00-1.998-2.26l-.542.545a36.496 36.496 0 017.032 10.582v-.01zM53.586 33.592l-.304-.69a37.304 37.304 0 00-11.704 7.651l.523.527a36.374 36.374 0 0111.476-7.488h.009zM30.95 68.199h-.761c.018.977.066 1.953.161 2.92a.769.769 0 00.838.69.718.718 0 00.342-.134l-.419-.632a35.075 35.075 0 01-.152-2.844h-.01zM63.51 103.735a35.752 35.752 0 01-13.502-4.165l-.418-.632a.769.769 0 00-.257.268.775.775 0 00.314 1.043 36.74 36.74 0 0013.787 4.252 36.89 36.89 0 003.835.201c4.624 0 9.153-.871 13.397-2.547l-.295-.728a36.018 36.018 0 01-16.861 2.308z" fill="#fff"/><path d="M30.95 66.657h-.761c-.01.508-.01 1.025 0 1.533h.761c-.01-.508 0-1.025 0-1.532zM33.995 52.753l-.695-.287c-.2.47-.4.938-.58 1.417l.704.288c.18-.48.38-.948.58-1.418h-.01zM93.92 93.23l-.542-.546c-.352.374-.714.728-1.075 1.082l.542.546c.371-.354.733-.718 1.085-1.082h-.01zM42.11 41.09l-.523-.527c-.371.354-.723.718-1.075 1.082l.523.527c.352-.373.714-.728 1.075-1.082zM80.371 101.427l.295.728c.476-.182.942-.383 1.408-.594l-.295-.718c-.466.211-.932.402-1.408.584zM67.202 30.537a.755.755 0 00.637-.364h-1.275c.134.22.362.374.638.374v-.01zM100.408 82.103l.714.297c.2-.47.399-.939.58-1.417l-.713-.297c-.181.479-.381.948-.581 1.417zM93.378 42.172l.542-.546a38.798 38.798 0 00-1.075-1.092l-.542.546c.37.354.723.718 1.075 1.082v.01zM100.408 52.753c.2.47.4.939.581 1.417h.019l.704-.297a26.598 26.598 0 00-.59-1.417l-.695.288-.019.01zM81.79 34.004l.294-.718a36.411 36.411 0 00-1.408-.585l-.295.719c.476.181.951.383 1.408.584zM55.013 33.046l-.304-.7c-.476.173-.952.365-1.428.556l.305.69c.476-.192.942-.383 1.427-.556v.01zM103.854 67.423a.75.75 0 00.371.642v-1.283a.75.75 0 00-.371.641zM31.863 70.966a38.218 38.218 0 01-.153-2.767h-.76c.018.958.066 1.906.151 2.844l.42.632a.758.758 0 00.342-.709z" fill="#fff"/><path d="M100.409 52.753a36.487 36.487 0 00-7.032-10.581l-.542.546c.657.689 1.294 1.397 1.893 2.144A35.816 35.816 0 01100 53.72a.764.764 0 01.409-.957v-.01zM33.995 52.753l.714.297a35.73 35.73 0 016.88-10.323l-.553-.555a36.507 36.507 0 00-7.04 10.58zM63.51 103.735a35.778 35.778 0 0016.86-2.308l-.286-.699c-5.176 2.04-10.8 2.825-16.499 2.241a35.105 35.105 0 01-13.216-4.07.74.74 0 00-.78.048l.419.632a36.1 36.1 0 0013.501 4.165v-.009zM89.619 95.136a35.688 35.688 0 01-8.126 5.008l.286.699a36.226 36.226 0 0010.514-7.077l-.543-.546c-.685.661-1.389 1.303-2.131 1.906v.01zM103.283 71.139a36.43 36.43 0 00-2.293-16.968.717.717 0 01-.276.057.772.772 0 01-.676-.421c2.217 5.39 3.092 11.29 2.483 17.255a36.475 36.475 0 01-2.226 9.327l.704.287a36.644 36.644 0 002.293-9.537h-.009zM99.715 81.806a35.435 35.435 0 01-6.87 10.332l.533.537a36.516 36.516 0 007.041-10.582l-.704-.287zM42.11 41.09l.552.555A35.568 35.568 0 0153.9 34.319l-.314-.718A36.326 36.326 0 0042.11 41.09zM31.12 63.708a34.242 34.242 0 00-.17 2.95h.76c.02-.958.067-1.916.172-2.873a35.91 35.91 0 012.236-9.327l-.714-.297a36.672 36.672 0 00-2.293 9.537l.01.01zM81.788 34.004l-.285.708a35.18 35.18 0 0110.267 6.914l.532-.536a36.247 36.247 0 00-10.514-7.086zM70.893 31.112a35.915 35.915 0 00-15.88 1.925l.314.718a34.916 34.916 0 0115.49-1.877 35.852 35.852 0 019.268 2.24l.285-.708a36.062 36.062 0 00-9.477-2.308v.01zM91.76 93.22l.542.546c.371-.354.723-.718 1.075-1.082l-.532-.536c-.353.364-.714.728-1.085 1.082v-.01z" fill="#fff"/><path d="M33.414 54.17l.714.297c.18-.478.38-.948.58-1.417l-.713-.297c-.2.47-.4.939-.58 1.417zM30.95 68.199h.76a41.19 41.19 0 010-1.532h-.76a41.19 41.19 0 000 1.532zM53.586 33.592l.314.718c.476-.192.942-.383 1.427-.555l-.314-.719c-.476.173-.951.364-1.427.556zM80.37 33.42l-.285.708c.476.182.942.383 1.408.584l.286-.708c-.467-.201-.933-.403-1.409-.585zM80.085 100.728l.285.699c.476-.182.942-.383 1.409-.584l-.286-.699c-.466.211-.932.402-1.408.594v-.01zM41.025 42.172l.552.555c.352-.373.714-.727 1.076-1.082l-.552-.555c-.371.354-.724.718-1.076 1.082zM92.293 41.09l-.533.536c.361.354.723.718 1.075 1.092l.542-.546a38.266 38.266 0 00-1.075-1.082h-.01zM100.714 54.228c.095 0 .18-.02.276-.058-.181-.478-.381-.948-.581-1.417a.764.764 0 00-.41.958c.01.029.03.057.039.086a.76.76 0 00.676.421v.01zM100.99 80.686l-.704-.288c-.181.48-.381.948-.58 1.418l.703.287c.2-.47.4-.938.581-1.417z" fill="#fff"/><path d="M67.202 134.856c-36.947 0-66.995-30.25-66.995-67.423S30.265 0 67.202 0c36.937 0 66.995 30.25 66.995 67.423 0 37.174-30.058 67.424-66.995 67.424v.009zm0-133.324c-36.1 0-65.473 29.56-65.473 65.891s29.373 65.892 65.473 65.892c36.1 0 65.473-29.561 65.473-65.892 0-36.33-29.373-65.89-65.473-65.89z" fill="#fff"/><path d="M133.456 68.228a.767.767 0 00-.8.728c-.114 2.183-1.018 6.166-2.626 11.52-1.208 4.03-2.759 7.842-4.615 11.328-14.529 27.386-33.997 29.139-44.454 29.742-13.654.795-30.143-5.832-31.646-25.366-.61-7.948.894-14.039 4.49-18.089a19.704 19.704 0 015.614-4.367c.714-.373 2.845-1.321.134-2.614-1-.479-2.96-.91-4.044-1.14a55.636 55.636 0 00-3.112-.574 71.912 71.912 0 00-3.035-.421 65.785 65.785 0 00-2.969-.268 49.593 49.593 0 00-2.892-.106c-.961-.01-1.884 0-2.826.048-.942.048-1.837.105-2.75.201-.894.096-1.789.21-2.683.355-.895.143-1.751.316-2.607.507-.857.192-1.703.412-2.54.66-.838.25-1.656.518-2.465.815-.809.297-1.608.613-2.398.967s-1.56.718-2.322 1.11c-.76.393-1.512.824-2.255 1.265-.742.44-1.475.919-2.179 1.417a54.476 54.476 0 00-2.112 1.56c-.695.547-1.38 1.121-2.036 1.715a59.751 59.751 0 00-1.97 1.858 47.232 47.232 0 00-1.893 2.01 58.514 58.514 0 00-1.827 2.155c-.6.747-1.19 1.523-1.75 2.298a68.433 68.433 0 00-1.685 2.442c-.105.153-.2.316-.305.47a.775.775 0 00.229 1.062.764.764 0 001.056-.23c4.5-7.019 10.124-12.39 16.708-15.972 9.791-5.315 21.4-6.56 34.568-3.715-22.978.746-32.636 11.184-36.442 17.696-3.93 6.731-5.243 14.976-3.616 22.618.076.364.39.603.742.603.057 0 .105 0 .162-.019a.773.773 0 00.59-.91c-1.55-7.268-.295-15.11 3.435-21.517 3.435-5.898 11.932-15.14 31.666-16.738-8.078 3.208-14.292 10.38-17.441 17.6-4.615 10.562-5.452 25.386 3.083 34.684a22.473 22.473 0 004.148 3.533C50.333 133.497 58.192 135 65.937 135c6.822 0 13.559-1.168 19.22-2.585a.764.764 0 00.552-.929.758.758 0 00-.923-.556c-21.332 5.344-33.616 1.293-40.162-3.054a20.803 20.803 0 01-3.864-3.294c-5.813-6.34-8.934-19.008-2.806-33.027 3.197-7.316 9.648-14.584 18.03-17.304a16.542 16.542 0 00-3.292 2.815c-3.891 4.376-5.537 10.85-4.89 19.248.685 8.915 4.557 16.058 11.18 20.664 5.223 3.63 12.112 6.004 19.572 6.004.837 0 1.684-.028 2.531-.076 9.99-.584 30.752-2.222 45.682-30.375a64.496 64.496 0 004.729-11.606c1.141-3.81 2.54-8.972 2.683-11.883a.768.768 0 00-.723-.805v-.01z" fill="#fff"/><path d="M80.474 41.607c-3.359 2.758-6.146 6.033-8.754 9.47l.048.068c.076-.039.152-.068.219-.106.875-.574 1.75-1.149 2.75-1.446 1.912-.574 3.825-1.082 5.823-1.053 1.294.02 2.56.23 3.796.642 1.37.46 2.56 1.216 3.673 2.116.143.115.295.23.419.402-.076 0-.162.01-.238 0-.647-.115-1.275-.316-1.931-.316-2.037-.01-4.082.048-6.09.44-1.256.25-2.512.498-3.758.805-.866.21-1.704.498-2.56.747-.029 0-.057.028-.152.086.142.048.238.096.333.115 1.58.278 3.083.747 4.52 1.436a14.502 14.502 0 014.51 3.419c.922 1.034 1.684 2.183 2.121 3.495.2.613.305 1.245.447 1.877.048.23.077.469.105.708-.019.01-.038.03-.057.039-.086-.087-.171-.163-.247-.259-.685-.871-1.437-1.695-2.293-2.403-1.237-1.035-2.598-1.887-4.035-2.605a27.435 27.435 0 00-4.339-1.752c-.932-.288-1.884-.508-2.826-.757-.104-.029-.228-.01-.342-.019 0 .02-.01.038-.02.067.172.144.343.278.515.421 1.627 1.312 2.74 2.978 3.358 4.99.59 1.924.58 3.878.39 5.85a83.22 83.22 0 00-.057.498.16.16 0 00-.066.01c-.114-.326-.238-.651-.343-.977-.266-.814-.561-1.609-.951-2.365-.961-1.839-2.055-3.582-3.587-4.98a7.77 7.77 0 00-2.141-1.407c-.257-.115-.295-.087-.295.21 0 .69-.02 1.389-.01 2.078.02 3.696.02 7.393.086 11.09.047 2.69.162 5.371.276 8.052.095 2.193.21 4.386.352 6.579.124 1.858.285 3.715.438 5.573.085 1.063.18 2.126.295 3.18.142 1.292.295 2.575.456 3.868.115.89.257 1.771.371 2.662.029.23.143 1.082.352 1.082 1.59 0 3.178-.795 4.758-.795h.333c.238.019.38.173.38.383 0 .22-.152.383-.4.393H57.706c-.21-.019-.333-.144-.333-.374 0-.229.114-.373.333-.402.086-.009.18 0 .266 0 1.808 0 2.027.795 3.825.795.229 0 2.008-.172 2.037-.402.142-1.015.285-2.825.409-3.84.152-1.255.304-2.519.437-3.773.115-1.082.22-2.164.295-3.256.153-1.934.286-3.878.419-5.812.095-1.437.19-2.863.238-4.3.143-3.926.295-7.852.38-11.778.077-3.63.048-7.258.067-10.897 0-.403-.076-.431-.447-.25-1.427.69-2.54 1.753-3.502 2.998a19.79 19.79 0 00-2.968 5.449c-.133.373-.257.746-.38 1.12-.02.048-.058.086-.106.172-.019-.086-.038-.124-.038-.172-.038-1.14-.161-2.289-.104-3.428.114-2.337.828-4.472 2.321-6.301.533-.66 1.152-1.226 1.827-1.743a.452.452 0 00.172-.23c-.096 0-.19-.019-.276 0-1.009.268-2.018.498-3.007.824a35.007 35.007 0 00-3.074 1.168c-2.321 1.005-4.453 2.308-6.241 4.137-.428.43-.8.92-1.2 1.388-.075.086-.16.173-.275.297-.01-.105-.029-.163-.029-.21.181-1.916.838-3.649 2.018-5.171 1.436-1.849 3.197-3.304 5.328-4.262 1.37-.622 2.788-1.091 4.272-1.33.114-.02.219-.058.333-.096v-.077c-.152-.058-.304-.125-.457-.173-1.18-.325-2.36-.68-3.549-.957-1.094-.249-2.198-.421-3.31-.603a20.198 20.198 0 00-3.95-.288c-.98.03-1.96.144-2.94.23-.123.01-.247.058-.37.077-.02 0-.048-.01-.105-.029.057-.067.095-.115.142-.153.8-.603 1.58-1.235 2.474-1.705.828-.43 1.703-.746 2.607-.967 1.465-.354 2.95-.402 4.444-.22.533.067 1.056.172 1.58.287 1.236.278 2.464.594 3.596 1.178.58.306 1.142.66 1.703.986.038.02.076.048.124.077.019-.306-2.094-2.95-4.006-5.056-1.456-1.6-2.997-3.122-4.681-4.52.028-.067 0 .01.028-.057 1.998.46 3.882 1.177 5.652 2.221 2.093 1.236 3.844 2.825 5.233 4.827.105.143.19.296.286.44.038.057.104.096.2.191.019-.153.038-.248.038-.335.095-1.436.152-2.882.304-4.318.18-1.724.466-3.438.942-5.104.124-.44.267-.881.4-1.312a.475.475 0 01.171-.201c1.303 3.629 1.608 7.421 1.836 11.242 1.313-2.011 2.95-3.668 4.939-4.96 1.979-1.293 4.11-2.193 6.432-2.634l.01-.019z" fill="#fff"/></svg>