<svg width="679" height="119" viewBox="0 0 679 119" fill="none" xmlns="http://www.w3.org/2000/svg"><path d="M22.666 25.166l.64.574L.927 77.144H0l22.666-51.978zm-9.584 22.768h22.093v.861H13.082v-.86zm7.721-25.486h6.575L51.4 77.152h-6.575L20.803 22.448zM54.612 49.8c0-15.896 12.012-27.85 27.951-27.85 15.94 0 27.884 12.317 27.884 27.783 0 15.465-11.65 27.926-27.884 27.926s-27.95-11.954-27.95-27.85V49.8zm49.69 0c0-16.251-8.075-26.998-21.73-26.998-13.656 0-21.874 10.671-21.874 26.998s8.151 26.998 21.874 26.998c13.722 0 21.73-10.67 21.73-26.998zM89.644 76.578l.784-.354c3 5.225 6.718 11.743 15.155 11.743 4.721 0 9.862-2.862 9.862-8.738h.86c0 6.442-5.723 9.599-10.722 9.599-9.154 0-12.871-6.872-15.94-12.241v-.009zM121.531 55.237v-32.79h5.934v34.225c0 11.532 5.648 19.906 16.943 19.906 11.295 0 17.802-7.665 17.802-21.122V22.448h.86v32.865c0 14.394-7.721 22.337-19.37 22.337-14.802 0-22.16-7.445-22.16-22.413h-.009zM192.159 25.166l.641.574-22.38 51.412h-.927l22.666-51.986zm-9.575 22.768h22.092v.861h-22.092v-.86zm7.721-25.486h6.574l24.023 54.704h-6.574l-24.023-54.704zM242.489 22.448h14.869c8.648 0 15.729 3.511 15.796 11.743.067 9.235-6.431 13.743-22.952 13.743h-1.644l-.143 29.21h-5.935V22.448h.009zm7.864 24.625c13.082 0 17.373-4.87 17.305-12.89-.067-7.092-3.65-10.883-11.649-10.883h-7.578l.144 23.773h1.787-.009zm16.294 10.739c-3.288-6.518-4.147-9.878-11.371-9.878h-5.15v-.86h5.647c12.366 0 13.723 4.153 16.732 10.096l10.225 19.974h-6.289l-9.794-19.332zM288.521 22.448h5.934v54.704h-5.934V22.448zm2.216 0h28.381v.86h-28.381v-.86zm0 20.902h24.807v.861h-24.807v-.86zm0 32.941h29.098v.861h-29.098v-.86zM323.552 61.112h.86c0 9.093 6.65 15.61 16.875 15.677 8.151 0 15.728-4.584 15.728-14.393 0-17.467-30.1-7.944-30.1-26.922 0-8.02 6.575-13.533 16.588-13.533 9.365 0 14.44 5.513 14.44 10.958h-.86c0-4.795-4.434-9.953-13.512-10.097-8.075-.143-13.799 3.8-13.799 9.38 0 15.465 30.312 6.66 30.312 26.423 0 12.241-8.505 19.045-18.73 19.045-10.798 0-17.802-6.728-17.802-16.538zM357.943 32.9c0 2.077-.574 3.723-1.214 4.727l-.717-.43c.641-1.005 1.071-2.364 1.071-4.297h.86zM368.235 22.448h5.934v54.704h-5.934V22.448zm2.217 0h28.381v.86h-28.381v-.86zm0 20.902h24.807v.861h-24.807v-.86zm0 32.941h29.098v.861h-29.098v-.86zM408.484 22.448h14.869c8.648 0 15.729 3.511 15.796 11.743.068 9.235-6.431 13.743-22.952 13.743h-1.644l-.143 29.21h-5.934V22.448h.008zm7.864 24.625c13.082 0 17.373-4.87 17.305-12.89-.067-7.092-3.649-10.883-11.649-10.883h-7.577l.143 23.773h1.787-.009zm16.294 10.739c-3.287-6.518-4.147-9.878-11.371-9.878h-5.15v-.86h5.647c12.366 0 13.723 4.153 16.732 10.096l10.225 19.974h-6.288l-9.795-19.332zM449.661 22.448h6.431l21.09 49.192h-.86l20.517-49.192h.927l-22.877 54.704h-1.787l-23.45-54.704h.009zM503.632 22.448h5.934v54.704h-5.934V22.448zm2.217 0h28.381v.86h-28.381v-.86zm0 20.902h24.807v.861h-24.807v-.86zm0 32.941h29.097v.861h-29.097v-.86zM192.47 95.666v10.409h6.449v.735h-7.258V95.666h.809zM204.473 104.716c.278.473.658.844 1.155 1.097a3.57 3.57 0 001.669.389c.624 0 1.188-.127 1.686-.389a2.909 2.909 0 001.163-1.097c.278-.473.421-1.03.421-1.672v-7.378h.793v7.429c0 .794-.177 1.477-.531 2.06a3.496 3.496 0 01-1.45 1.325c-.615.313-1.307.465-2.082.465-.776 0-1.45-.152-2.065-.465a3.544 3.544 0 01-1.45-1.325c-.354-.574-.531-1.258-.531-2.06v-7.429h.809v7.378c0 .642.135 1.199.413 1.672zM223.338 106.818l-3.482-5.091-3.329 5.091h-.995l3.878-5.732-3.718-5.42h1.012l3.313 4.82 3.169-4.82h.961l-3.701 5.462 3.912 5.682h-1.029l.009.008zM229.786 104.716c.278.473.657.844 1.154 1.097a3.573 3.573 0 001.669.389c.624 0 1.189-.127 1.686-.389a2.902 2.902 0 001.163-1.097c.279-.473.422-1.03.422-1.672v-7.378h.792v7.429c0 .794-.177 1.477-.531 2.06a3.49 3.49 0 01-1.45 1.325c-.615.313-1.306.465-2.082.465-.775 0-1.449-.152-2.065-.465a3.547 3.547 0 01-1.449-1.325c-.355-.574-.532-1.258-.532-2.06v-7.429h.81v7.378c0 .642.135 1.199.413 1.672zM248.608 106.818l-3.085-4.744a5.12 5.12 0 01-.877.059h-1.82v4.677h-.809V95.666h2.688c.616 0 1.214.118 1.779.346a3.166 3.166 0 011.391 1.055c.362.473.539 1.056.539 1.756 0 .701-.168 1.292-.497 1.849-.329.549-.843.954-1.543 1.199l3.187 4.947h-.953zm-1.719-6.171a2.59 2.59 0 00.691-1.79c0-.439-.11-.844-.337-1.224a2.373 2.373 0 00-.97-.895c-.421-.22-.91-.33-1.458-.33h-1.989v4.99h1.77c1.07 0 1.837-.253 2.293-.751zM262.263 95.666l-4.391 7.176v3.976h-.81v-3.976l-4.391-7.176h.995l3.826 6.315 3.793-6.315h.978zM282.274 107.316l-2.706-6.703-2.764 6.72-4.645-11.633h.927l3.793 9.826 2.285-5.875-1.593-3.96h.809l3.911 9.734 3.827-9.734h.86l-4.729 11.617.025.008zM296.511 103.129h-5.192l-1.56 3.689h-.809l4.973-11.633h.068l4.973 11.633h-.91l-1.543-3.689zm-.295-.726l-2.267-5.48-2.318 5.48h4.594-.009zM309.231 95.666v.734h-3.465v10.41h-.809V96.4h-3.431v-.734h7.713-.008zM320.947 95.666v.734h-6.448v4.424h5.799v.735h-5.799v4.508h6.684v.734h-7.494V95.658h7.258v.008zM332.537 106.818l-3.085-4.744a5.129 5.129 0 01-.877.059h-1.82v4.677h-.81V95.666h2.689c.616 0 1.214.118 1.779.346a3.166 3.166 0 011.391 1.055c.362.473.539 1.056.539 1.756 0 .701-.169 1.292-.497 1.849-.329.549-.843.954-1.543 1.199l3.186 4.947h-.952zm-1.72-6.171a2.587 2.587 0 00.692-1.79c0-.439-.11-.844-.338-1.224a2.37 2.37 0 00-.969-.895c-.421-.22-.91-.33-1.458-.33h-1.989v4.99h1.77c1.07 0 1.837-.253 2.292-.751zM344.683 95.666v.734h-5.782v4.601h5.125v.726h-5.125v5.091h-.809V95.674h6.6l-.009-.008zM355.928 106.818l-3.086-4.744a5.116 5.116 0 01-.876.059h-1.821v4.677h-.809V95.666h2.689c.615 0 1.214.118 1.778.346a3.16 3.16 0 011.391 1.055c.363.473.54 1.056.54 1.756 0 .701-.169 1.292-.498 1.849-.328.549-.843.954-1.542 1.199l3.186 4.947h-.952zm-1.72-6.171a2.59 2.59 0 00.691-1.79c0-.439-.109-.844-.337-1.224a2.377 2.377 0 00-.969-.895c-.422-.22-.911-.33-1.459-.33h-1.989v4.99h1.77c1.071 0 1.838-.253 2.293-.751zM361.432 98.41a5.986 5.986 0 012.192-2.085 6.023 6.023 0 013.001-.777c1.087 0 2.09.261 3.017.776a6.035 6.035 0 012.209 2.086 5.34 5.34 0 01.809 2.853c0 1.03-.27 1.976-.809 2.854a5.738 5.738 0 01-2.209 2.068 6.19 6.19 0 01-3.017.76 6.328 6.328 0 01-3.018-.735 5.641 5.641 0 01-2.183-2.043c-.54-.869-.801-1.84-.801-2.904 0-1.064.27-1.975.809-2.853zm.708 5.327a5.184 5.184 0 001.872 1.798 5.117 5.117 0 002.587.667c.944 0 1.829-.22 2.63-.659a4.986 4.986 0 001.897-1.798c.463-.76.699-1.587.699-2.49 0-.904-.236-1.73-.708-2.49a5.292 5.292 0 00-1.896-1.816 5.214 5.214 0 00-2.605-.675c-.944 0-1.821.228-2.621.684a5.068 5.068 0 00-1.872 1.832 4.766 4.766 0 00-.682 2.482c0 .894.236 1.713.699 2.465zM387.191 95.666v11.414h-.033l-9.07-9.675.017 9.405h-.793V95.43h.051l9.07 9.75-.017-9.514h.775zM399.355 95.666v.734h-3.465v10.41h-.809V96.4h-3.431v-.734h7.713-.008zM417.325 95.666v.734h-3.464v10.41h-.809V96.4h-3.431v-.734h7.713-.009zM421.254 98.41a5.975 5.975 0 012.191-2.085 6.025 6.025 0 013.001-.777c1.087 0 2.09.261 3.018.776a6.032 6.032 0 012.208 2.086 5.34 5.34 0 01.809 2.853c0 1.03-.27 1.976-.809 2.854a5.742 5.742 0 01-2.208 2.068 6.196 6.196 0 01-3.018.76 6.33 6.33 0 01-3.018-.735 5.648 5.648 0 01-2.183-2.043c-.539-.869-.801-1.84-.801-2.904 0-1.064.27-1.975.81-2.853zm.716 5.327a5.181 5.181 0 001.871 1.798 5.124 5.124 0 002.588.667c.944 0 1.829-.22 2.63-.659a4.976 4.976 0 001.896-1.798c.464-.76.7-1.587.7-2.49 0-.904-.236-1.73-.708-2.49a5.287 5.287 0 00-1.897-1.816 5.207 5.207 0 00-2.604-.675c-.944 0-1.821.228-2.622.684a5.065 5.065 0 00-1.871 1.832 4.767 4.767 0 00-.683 2.482c0 .894.236 1.713.7 2.465zM445.428 107.316l-2.705-6.703-2.765 6.72-4.645-11.633h.928l3.793 9.826 2.284-5.875-1.593-3.96h.809l3.911 9.734 3.827-9.734h.86l-4.729 11.617.025.008zM464.377 95.666v11.414h-.034l-9.069-9.675.016 9.405h-.792V95.43h.051l9.069 9.75-.017-9.514h.776zM478.496 106.818h-.809v-5.243h-7.098v5.243h-.809V95.674h.809v5.184h7.098v-5.184h.809v11.144zM483.966 98.41a5.986 5.986 0 012.192-2.085 6.023 6.023 0 013.001-.777c1.087 0 2.09.261 3.017.776a6.028 6.028 0 012.209 2.086 5.34 5.34 0 01.809 2.853c0 1.03-.27 1.976-.809 2.854a5.738 5.738 0 01-2.209 2.068 6.19 6.19 0 01-3.017.76 6.328 6.328 0 01-3.018-.735 5.641 5.641 0 01-2.183-2.043c-.539-.869-.801-1.84-.801-2.904 0-1.064.27-1.975.809-2.853zm.717 5.327a5.173 5.173 0 001.871 1.798 5.124 5.124 0 002.588.667c.944 0 1.829-.22 2.63-.659a4.976 4.976 0 001.896-1.798c.464-.76.7-1.587.7-2.49 0-.904-.236-1.73-.708-2.49a5.287 5.287 0 00-1.897-1.816 5.207 5.207 0 00-2.604-.675c-.944 0-1.821.228-2.622.684a5.065 5.065 0 00-1.871 1.832 4.767 4.767 0 00-.683 2.482c0 .894.236 1.713.7 2.465zM511.126 95.421v11.397h-.793v-9.151l-4.838 6.45h-.034l-4.804-6.374v9.075h-.793V95.421h.017l5.605 7.556 5.64-7.556zM523.786 95.666v.734h-6.448v4.424h5.799v.735h-5.799v4.508h6.684v.734h-7.494V95.658h7.258v.008zM533.336 96.468a5.649 5.649 0 00-1.425-.186c-.775 0-1.39.178-1.854.54-.464.364-.7.828-.7 1.394 0 .396.127.734.371 1.013.253.278.565.506.953.692.387.186.885.388 1.492.608.666.228 1.213.464 1.652.709a3.4 3.4 0 011.104.979c.295.414.447.946.447 1.596 0 .65-.152 1.165-.464 1.637a3.091 3.091 0 01-1.298 1.106c-.556.262-1.197.389-1.913.389-1.248 0-2.487-.38-3.718-1.148l.38-.625c.404.295.91.549 1.509.768.598.22 1.18.329 1.736.329.497 0 .969-.093 1.416-.278a2.64 2.64 0 001.096-.836c.278-.372.421-.819.421-1.342 0-.49-.126-.904-.387-1.241a2.963 2.963 0 00-.978-.811 11.12 11.12 0 00-1.484-.616 14.164 14.164 0 01-1.643-.667 3.282 3.282 0 01-1.088-.853c-.295-.354-.438-.802-.438-1.334 0-.531.143-.987.421-1.392.278-.406.675-.718 1.18-.946a4.18 4.18 0 011.686-.355c.531 0 1.079.068 1.652.203a8.181 8.181 0 011.518.515l-.312.6a8.66 8.66 0 00-1.324-.456l-.008.008z" fill="#fff"/></svg>