<svg width="510" height="65" viewBox="0 0 510 65" fill="none" xmlns="http://www.w3.org/2000/svg"><path d="M.558 1.856c3.553 0 7.078-.014 10.575-.043 3.524-.028 6.75-.057 9.679-.085 2.927-.057 5.429-.128 7.504-.213 2.075-.086 3.482-.2 4.221-.341l-2.089 5.67a31.305 31.305 0 00-3.283-.682 62.057 62.057 0 00-3.966-.469c-1.535-.17-3.311-.256-5.33-.256-.682 0-1.506.029-2.473.086a80.1 80.1 0 00-2.728.128l-3.113.17v23.281c2.928-.028 5.571-.114 7.93-.256 2.36-.142 4.364-.284 6.013-.426 1.933-.17 3.638-.37 5.117-.597l-1.322 6.182a318.24 318.24 0 00-6.012-.724c-1.763-.2-3.681-.37-5.757-.512a72.937 72.937 0 00-5.97-.256v26.735c3.355 0 6.44-.142 9.254-.427 2.814-.284 5.273-.61 7.376-.98 2.445-.398 4.676-.867 6.694-1.407l-1.236 6.907a40.697 40.697 0 00-1.535-.085 617.92 617.92 0 00-4.946-.17c-.91 0-1.777-.015-2.601-.043-.825 0-1.564-.015-2.217-.043H.558v-.17c.17-.597.327-1.337.47-2.218.17-.881.312-1.975.426-3.283.113-1.308.199-2.857.255-4.648.057-1.819.086-3.937.086-6.353V18.57c0-2.416-.029-4.52-.086-6.31a86.345 86.345 0 00-.255-4.69c-.114-1.337-.256-2.445-.427-3.326a19.616 19.616 0 00-.469-2.218v-.17zm65.621 34.41L51.086 55.41a42.41 42.41 0 00-1.663 2.132c-.54.71-1.023 1.407-1.45 2.09a19.334 19.334 0 00-1.065 1.918c-.256.569-.384 1.052-.384 1.45H38.25v-.17c.625-.54 1.507-1.365 2.644-2.474 1.165-1.108 2.402-2.501 3.71-4.178l18.76-23.58L44.092 7.271c-1.051-1.365-2.089-2.502-3.112-3.411-1.023-.938-1.791-1.55-2.303-1.834v-.17h13.346c0 .34.043.781.128 1.322.114.54.313 1.18.597 1.918.285.711.668 1.507 1.151 2.388.512.881 1.166 1.834 1.962 2.857L68.183 26.5 81.785 9.488a23.784 23.784 0 001.493-2.047c.511-.739.952-1.45 1.322-2.131.397-.711.71-1.365.938-1.962.255-.597.383-1.094.383-1.492h8.272v.17c-.284.228-.597.498-.938.81-.34.313-.739.697-1.194 1.152-.426.455-.91.995-1.45 1.62a77.548 77.548 0 00-1.833 2.217l-17.78 22.428 19.87 26.01c1.364 1.763 2.629 3.226 3.794 4.392 1.194 1.137 2.061 1.862 2.601 2.174V63h-13.26c0-.654-.27-1.734-.81-3.24-.54-1.507-1.55-3.255-3.028-5.245l-13.986-18.25zm87.624-25.03l-.384.17c-2.217-2.046-4.89-3.68-8.016-4.903-3.099-1.222-6.51-1.833-10.234-1.833-3.581 0-6.865.568-9.849 1.705-2.985 1.11-5.558 2.73-7.718 4.861-2.132 2.132-3.795 4.747-4.989 7.846-1.194 3.098-1.791 6.623-1.791 10.574 0 4.35.569 8.414 1.706 12.195 1.137 3.752 2.828 7.007 5.074 9.764 2.246 2.758 5.046 4.932 8.4 6.524 3.383 1.564 7.32 2.345 11.811 2.345 1.62 0 3.24-.17 4.861-.511a23.34 23.34 0 004.647-1.493 24.712 24.712 0 004.222-2.43 22.12 22.12 0 003.624-3.283l.469.298-3.411 8.699c-2.132.824-4.491 1.45-7.078 1.876a44.255 44.255 0 01-7.76.682c-5.259 0-10.077-.754-14.455-2.26-4.349-1.535-8.101-3.695-11.257-6.481-3.127-2.786-5.571-6.126-7.334-10.02-1.734-3.923-2.601-8.272-2.601-13.048 0-2.7.341-5.358 1.024-7.973a32.216 32.216 0 013.07-7.462 30.115 30.115 0 014.946-6.481 31.575 31.575 0 016.694-5.16c2.53-1.45 5.302-2.572 8.315-3.368 3.041-.824 6.324-1.237 9.849-1.237 5.487 0 10.575.839 15.265 2.516l2.9 7.888zm18.633 48.012c3.354 0 6.438-.142 9.252-.427 2.815-.284 5.273-.61 7.377-.98 2.445-.398 4.676-.867 6.694-1.407l-1.236 6.907a40.71 40.71 0 00-1.535-.085 616.446 616.446 0 00-4.946-.17c-.91 0-1.777-.015-2.601-.043-.825 0-1.564-.015-2.218-.043H163.439v-.17c.17-.597.327-1.337.469-2.218.17-.881.313-1.975.426-3.283.114-1.308.199-2.857.256-4.648.057-1.819.085-3.937.085-6.353V18.57c0-2.416-.028-4.52-.085-6.31a86.175 86.175 0 00-.256-4.69c-.113-1.337-.256-2.445-.426-3.326a19.711 19.711 0 00-.469-2.218v-.17h10.233v.17a26.82 26.82 0 00-.511 2.218c-.143.88-.27 1.99-.384 3.325a261.982 261.982 0 00-.256 4.69c-.057 1.791-.085 3.895-.085 6.311v40.678zm74.916-40.678c0-2.416-.028-4.52-.085-6.31a86.175 86.175 0 00-.256-4.69 45.138 45.138 0 00-.384-3.326 19.49 19.49 0 00-.469-2.218v-.17h7.59v.17a26.82 26.82 0 00-.511 2.218c-.143.88-.271 1.99-.384 3.325a252.927 252.927 0 00-.256 4.69c-.057 1.791-.085 3.895-.085 6.311v23.025c0 4.065-.583 7.533-1.749 10.404-1.165 2.871-2.785 5.23-4.86 7.078-2.075 1.82-4.563 3.141-7.462 3.966-2.9.852-6.069 1.279-9.509 1.279-3.439 0-6.651-.398-9.636-1.194-2.956-.796-5.543-2.075-7.76-3.838-2.189-1.79-3.909-4.093-5.16-6.907-1.25-2.843-1.876-6.296-1.876-10.361V18.57c0-2.416-.028-4.52-.085-6.31a86.175 86.175 0 00-.256-4.69c-.114-1.337-.256-2.445-.426-3.326a19.711 19.711 0 00-.469-2.218v-.17h10.233v.17a26.775 26.775 0 00-.512 2.218c-.142.88-.27 1.99-.383 3.325a86.175 86.175 0 00-.256 4.69 201.54 201.54 0 00-.086 6.311v23.92c0 3.383.498 6.183 1.493 8.4 1.023 2.19 2.359 3.938 4.008 5.245 1.649 1.28 3.525 2.175 5.628 2.686 2.104.512 4.25.768 6.439.768s4.335-.256 6.438-.768c2.104-.511 3.966-1.407 5.586-2.686 1.649-1.307 2.97-3.056 3.965-5.244 1.024-2.218 1.535-5.018 1.535-8.4V18.57zm43.748-6.993h-.938c-.228-.653-.597-1.392-1.109-2.217-.483-.824-1.137-1.592-1.961-2.302-.796-.74-1.777-1.35-2.942-1.834-1.137-.483-2.488-.725-4.051-.725-1.393 0-2.629.214-3.71.64-1.08.426-1.989 1.023-2.728 1.79a7.741 7.741 0 00-1.621 2.73c-.369 1.051-.554 2.217-.554 3.496 0 2.047.569 4.008 1.706 5.884 1.165 1.848 2.615 3.681 4.349 5.5 1.734 1.82 3.61 3.64 5.628 5.458a70.566 70.566 0 015.628 5.671c1.734 1.962 3.17 4.023 4.307 6.183 1.165 2.132 1.748 4.434 1.748 6.908 0 1.847-.327 3.71-.981 5.585a14.124 14.124 0 01-2.942 4.99c-1.336 1.477-3.055 2.685-5.159 3.623-2.103.91-4.605 1.365-7.504 1.365-1.621 0-3.17-.157-4.648-.47-1.45-.283-2.8-.639-4.051-1.065a30.716 30.716 0 01-3.326-1.45c-.966-.512-1.762-.98-2.387-1.407l.98-9.423h1.066a13.936 13.936 0 001.535 3.837 14.112 14.112 0 002.601 3.198 13.54 13.54 0 003.582 2.217c1.336.54 2.8.81 4.392.81 1.449 0 2.743-.213 3.88-.639 1.165-.455 2.16-1.066 2.985-1.834a7.905 7.905 0 001.876-2.814c.455-1.08.682-2.26.682-3.539 0-1.79-.327-3.44-.981-4.946a18.975 18.975 0 00-2.601-4.349 33.38 33.38 0 00-3.624-3.965 183.536 183.536 0 00-4.136-3.838 140.02 140.02 0 01-4.179-4.008 34.981 34.981 0 01-3.624-4.35 23.632 23.632 0 01-2.558-4.988c-.654-1.79-.981-3.752-.981-5.884 0-2.246.426-4.264 1.279-6.055.881-1.82 2.033-3.368 3.454-4.647a15.663 15.663 0 014.903-2.943 15.91 15.91 0 015.629-1.023c1.421 0 2.729.114 3.923.341 1.193.228 2.259.498 3.197.81.967.313 1.806.626 2.516.938l1.748.768-.298 7.973zm14.625 51.252c.171-.596.327-1.336.469-2.217.142-.881.27-1.975.384-3.283.114-1.308.199-2.857.256-4.648.057-1.819.085-3.937.085-6.353V18.57c0-2.416-.028-4.52-.085-6.31a86.175 86.175 0 00-.256-4.69 46.258 46.258 0 00-.384-3.326 19.49 19.49 0 00-.469-2.218v-.17h10.191v.17a26.775 26.775 0 00-.512 2.218c-.142.88-.27 1.99-.384 3.325a263 263 0 00-.255 4.69 201.54 201.54 0 00-.086 6.311v27.758c0 2.416.029 4.534.086 6.353.085 1.791.17 3.34.255 4.648.114 1.308.242 2.402.384 3.283.171.881.341 1.62.512 2.217V63h-10.191v-.17zm26.649-60.973v.17a2.557 2.557 0 00-.128.64c-.028.284-.042.54-.042.767 0 .882.114 1.862.341 2.942.256 1.052.725 2.374 1.407 3.966l18.889 42.596 18.25-42.255a228.52 228.52 0 001.364-3.454 10.46 10.46 0 00.725-3.795c0-.34-.029-.625-.085-.852a2.603 2.603 0 00-.171-.555v-.17h8.741v.17c-.54.54-1.194 1.507-1.961 2.9-.768 1.393-1.606 3.112-2.516 5.16l-24.432 54.236h-3.411l-23.153-52.148a58.235 58.235 0 00-1.706-3.539 70.796 70.796 0 00-1.62-3.07 41.429 41.429 0 00-1.365-2.345c-.398-.625-.668-1.023-.81-1.194v-.17h11.683zm54.024 60.973c.171-.596.327-1.336.469-2.217.142-.881.27-1.975.384-3.283.113-1.308.199-2.857.256-4.648.056-1.819.085-3.937.085-6.353V18.57c0-2.416-.029-4.52-.085-6.31a87.201 87.201 0 00-.256-4.69 46.258 46.258 0 00-.384-3.326 19.49 19.49 0 00-.469-2.218v-.17h10.191v.17a26.775 26.775 0 00-.512 2.218c-.142.88-.27 1.99-.384 3.325a271.71 271.71 0 00-.256 4.69c-.056 1.791-.085 3.895-.085 6.311v27.758c0 2.416.029 4.534.085 6.353.086 1.791.171 3.34.256 4.648.114 1.308.242 2.402.384 3.283.171.881.341 1.62.512 2.217V63h-10.191v-.17zm38.887-57.221c-3.355 0-6.382.156-9.082.469-2.701.284-5.032.597-6.993.938-2.274.426-4.307.895-6.098 1.407l1.237-6.907c.341.028.853.056 1.535.085.682.028 1.435.057 2.26.085.853.029 1.734.057 2.643.085.938 0 1.82.015 2.644.043.824 0 1.549.014 2.175.043H442.724a51.565 51.565 0 012.217-.043 75.673 75.673 0 012.601-.043 639.765 639.765 0 004.946-.17 40.379 40.379 0 001.535-.085l1.237 6.907c-1.819-.512-3.866-.98-6.14-1.407-1.962-.341-4.292-.654-6.993-.938-2.7-.313-5.728-.469-9.082-.469v40.72c0 2.416.028 4.534.085 6.353.086 1.791.171 3.34.256 4.648.114 1.308.242 2.402.384 3.283.17.881.341 1.62.511 2.217V63h-10.19v-.17c.17-.597.327-1.337.469-2.218.142-.881.27-1.975.384-3.283.113-1.308.199-2.857.255-4.648.057-1.819.086-3.937.086-6.353V5.608zm61.016 28.056v12.664c0 2.416.028 4.534.085 6.353.057 1.791.142 3.34.256 4.648.114 1.308.242 2.402.384 3.283.17.881.341 1.62.512 2.217V63h-10.234v-.17c.171-.597.327-1.337.469-2.218.171-.881.299-1.975.384-3.283.114-1.308.199-2.857.256-4.648.085-1.819.128-3.937.128-6.353v-11.81l-19.06-25.925a36.418 36.418 0 00-1.961-2.43 24.544 24.544 0 00-1.791-1.92 20.635 20.635 0 00-1.535-1.407c-.455-.37-.81-.64-1.066-.81v-.17h12.92c0 .654.27 1.734.81 3.24.568 1.478 1.577 3.227 3.027 5.245l13.986 19.145 13.687-19.998c.483-.71.966-1.435 1.449-2.174.484-.74.924-1.45 1.322-2.132.398-.683.711-1.308.938-1.877.256-.568.384-1.051.384-1.45h8.315v.171c-.626.54-1.464 1.35-2.516 2.43-1.052 1.052-2.189 2.46-3.411 4.222l-17.738 24.986z" fill="#fff"/></svg>