<svg width="366" height="65" viewBox="0 0 366 65" fill="none" xmlns="http://www.w3.org/2000/svg"><path d="M9.1 59.248c3.353 0 6.438-.142 9.252-.427 2.814-.284 5.273-.61 7.376-.98 2.445-.398 4.676-.867 6.695-1.407l-1.237 6.907a40.684 40.684 0 00-1.535-.085 617.92 617.92 0 00-4.946-.17c-.91 0-1.777-.015-2.601-.043-.824 0-1.563-.015-2.217-.043H.102v-.17c.17-.597.327-1.337.47-2.218.17-.881.312-1.975.426-3.283.113-1.308.199-2.857.256-4.648.056-1.819.085-3.937.085-6.353V18.57c0-2.416-.029-4.52-.085-6.31a86.346 86.346 0 00-.256-4.69C.884 6.232.742 5.124.57 4.243a19.616 19.616 0 00-.469-2.218v-.17h10.234v.17c-.171.597-.342 1.336-.512 2.218-.142.88-.27 1.99-.384 3.325-.085 1.308-.17 2.871-.256 4.69-.056 1.791-.085 3.895-.085 6.311v40.678zm31.552 3.581c.17-.596.327-1.336.469-2.217.142-.881.27-1.975.384-3.283.113-1.308.199-2.857.255-4.648.057-1.819.086-3.937.086-6.353V18.57c0-2.416-.029-4.52-.085-6.31a86.298 86.298 0 00-.256-4.69 45.987 45.987 0 00-.384-3.326 19.6 19.6 0 00-.47-2.218v-.17h10.192v.17c-.171.597-.342 1.336-.512 2.218-.142.88-.27 1.99-.384 3.325-.085 1.308-.17 2.871-.256 4.69-.056 1.791-.085 3.895-.085 6.311v27.758c0 2.416.029 4.534.085 6.353.086 1.791.17 3.34.256 4.648.114 1.308.242 2.402.384 3.283.17.881.341 1.62.512 2.217V63H40.652v-.17zm31.809-16.5c0 2.415.028 4.533.085 6.352.085 1.791.17 3.34.256 4.648.113 1.308.241 2.402.383 3.283.171.881.341 1.62.512 2.217V63H63.464v-.17c.17-.597.327-1.337.469-2.218.17-.881.312-1.975.426-3.283.114-1.308.2-2.857.256-4.648.057-1.819.085-3.937.085-6.353V18.57c0-2.416-.028-4.52-.085-6.31a86.4 86.4 0 00-.256-4.69c-.114-1.337-.256-2.445-.426-3.326a19.62 19.62 0 00-.47-2.218v-.17h7.164c2.416-.029 4.761-.043 7.035-.043 2.275-.028 4.435-.057 6.482-.085 2.046-.057 3.894-.1 5.543-.128 1.648-.057 3.041-.114 4.178-.17 1.137-.086 1.948-.171 2.43-.256l-2.089 5.67a31.305 31.305 0 00-3.283-.682 62.057 62.057 0 00-3.965-.469c-1.535-.17-3.312-.256-5.33-.256-.682 0-1.535.029-2.558.086-1.024.028-2.033.07-3.028.128-1.137.056-2.33.113-3.581.17v21.533c2.927-.029 5.614-.114 8.058-.256 2.445-.142 4.548-.284 6.31-.426 2.047-.17 3.895-.37 5.544-.597l-1.28 6.182a410.603 410.603 0 00-6.48-.724c-1.876-.2-3.895-.37-6.055-.512a77.672 77.672 0 00-6.097-.256v15.563zm31.68-44.473c3.554 0 7.078-.014 10.575-.043 3.525-.028 6.751-.057 9.679-.085 2.928-.057 5.429-.128 7.504-.213 2.075-.086 3.482-.2 4.221-.341l-2.089 5.67a31.29 31.29 0 00-3.283-.682 62.058 62.058 0 00-3.965-.469c-1.535-.17-3.312-.256-5.33-.256-.683 0-1.507.029-2.473.086-.938.028-1.848.07-2.729.128l-3.113.17v23.281c2.928-.028 5.572-.114 7.931-.256a239.2 239.2 0 006.012-.426c1.933-.17 3.639-.37 5.117-.597l-1.322 6.182a318.538 318.538 0 00-6.012-.724c-1.763-.2-3.681-.37-5.756-.512a72.958 72.958 0 00-5.97-.256v26.735c3.354 0 6.439-.142 9.253-.427 2.814-.284 5.273-.61 7.376-.98 2.445-.398 4.676-.867 6.695-1.407l-1.237 6.907a40.71 40.71 0 00-1.535-.085 622.466 622.466 0 00-4.946-.17c-.91 0-1.777-.015-2.601-.043-.824 0-1.563-.015-2.217-.043h-19.785v-.17c.171-.597.327-1.337.469-2.218.171-.881.313-1.975.427-3.283.113-1.308.199-2.857.256-4.648.056-1.819.085-3.937.085-6.353V18.57c0-2.416-.029-4.52-.085-6.31a87.201 87.201 0 00-.256-4.69c-.114-1.337-.256-2.445-.427-3.326a19.49 19.49 0 00-.469-2.218v-.17zm68.308 9.721h-.938c-.228-.653-.597-1.392-1.109-2.217-.483-.824-1.137-1.592-1.961-2.302-.796-.74-1.777-1.35-2.942-1.834-1.137-.483-2.488-.725-4.051-.725-1.393 0-2.629.214-3.71.64-1.08.426-1.989 1.023-2.728 1.79a7.741 7.741 0 00-1.621 2.73c-.369 1.051-.554 2.217-.554 3.496 0 2.047.568 4.008 1.706 5.884 1.165 1.848 2.615 3.681 4.349 5.5 1.734 1.82 3.61 3.64 5.628 5.458a70.566 70.566 0 015.628 5.671c1.734 1.962 3.17 4.023 4.307 6.183 1.165 2.132 1.748 4.434 1.748 6.908 0 1.847-.327 3.71-.981 5.585a14.124 14.124 0 01-2.942 4.99c-1.336 1.477-3.055 2.685-5.159 3.623-2.104.91-4.605 1.365-7.504 1.365-1.621 0-3.17-.157-4.648-.47-1.45-.283-2.8-.639-4.051-1.065a30.716 30.716 0 01-3.326-1.45c-.966-.512-1.762-.98-2.387-1.407l.98-9.423h1.066a13.936 13.936 0 001.535 3.837 14.112 14.112 0 002.601 3.198 13.54 13.54 0 003.582 2.217c1.336.54 2.8.81 4.392.81 1.449 0 2.743-.213 3.88-.639 1.165-.455 2.16-1.066 2.985-1.834a7.905 7.905 0 001.876-2.814c.455-1.08.682-2.26.682-3.539 0-1.79-.327-3.44-.981-4.946a18.975 18.975 0 00-2.601-4.349 33.465 33.465 0 00-3.624-3.965 183.536 183.536 0 00-4.136-3.838 140.02 140.02 0 01-4.179-4.008 34.981 34.981 0 01-3.624-4.35 23.586 23.586 0 01-2.558-4.988c-.654-1.79-.981-3.752-.981-5.884 0-2.246.426-4.264 1.279-6.055.881-1.82 2.033-3.368 3.454-4.647a15.663 15.663 0 014.903-2.943 15.91 15.91 0 015.629-1.023c1.421 0 2.729.114 3.923.341 1.193.228 2.259.498 3.197.81a26.77 26.77 0 012.516.938l1.748.768-.298 7.973zm30.316-5.969c-3.354 0-6.381.156-9.082.469-2.7.284-5.031.597-6.993.938-2.274.426-4.306.895-6.097 1.407l1.236-6.907c.342.028.853.056 1.535.085.683.028 1.436.057 2.26.085.853.029 1.734.057 2.644.085.938 0 1.819.015 2.644.043.824 0 1.549.014 2.174.043H220.204a51.58 51.58 0 012.218-.043 75.588 75.588 0 012.601-.043 633.423 633.423 0 004.946-.17 40.504 40.504 0 001.535-.085l1.236 6.907c-1.819-.512-3.866-.98-6.14-1.407-1.961-.341-4.292-.654-6.992-.938-2.701-.313-5.728-.469-9.083-.469v40.72c0 2.416.029 4.534.086 6.353.085 1.791.17 3.34.256 4.648.113 1.308.241 2.402.383 3.283.171.881.341 1.62.512 2.217V63h-10.191v-.17c.171-.597.327-1.337.469-2.218.142-.881.27-1.975.384-3.283.114-1.308.199-2.857.256-4.648.057-1.819.085-3.937.085-6.353V5.608zm61.017 28.056v12.664c0 2.416.028 4.534.085 6.353.057 1.791.142 3.34.256 4.648.113 1.308.241 2.402.383 3.283.171.881.341 1.62.512 2.217V63h-10.233v-.17c.17-.597.327-1.337.469-2.218.17-.881.298-1.975.383-3.283.114-1.308.199-2.857.256-4.648.086-1.819.128-3.937.128-6.353v-11.81L236.962 8.592A36.421 36.421 0 00235 6.163a24.167 24.167 0 00-1.791-1.92 20.438 20.438 0 00-1.535-1.407c-.454-.37-.81-.64-1.066-.81v-.17h12.92c0 .654.27 1.734.81 3.24.569 1.478 1.578 3.227 3.028 5.245l13.985 19.145 13.687-19.998c.483-.71.967-1.435 1.45-2.174.483-.74.924-1.45 1.322-2.132.398-.683.71-1.308.938-1.877.256-.568.384-1.051.384-1.45h8.314v.171c-.625.54-1.464 1.35-2.516 2.43-1.051 1.052-2.188 2.46-3.411 4.222l-17.737 24.986zm38.332 25.584c3.354 0 6.438-.142 9.253-.427 2.814-.284 5.273-.61 7.376-.98 2.445-.398 4.676-.867 6.694-1.407l-1.236 6.907a40.71 40.71 0 00-1.535-.085 616.446 616.446 0 00-4.946-.17c-.91 0-1.777-.015-2.601-.043-.825 0-1.564-.015-2.217-.043h-19.785v-.17c.171-.597.327-1.337.469-2.218.171-.881.313-1.975.427-3.283.113-1.308.198-2.857.255-4.648.057-1.819.086-3.937.086-6.353V18.57c0-2.416-.029-4.52-.086-6.31a87.312 87.312 0 00-.255-4.69c-.114-1.337-.256-2.445-.427-3.326a19.49 19.49 0 00-.469-2.218v-.17h10.233v.17a26.82 26.82 0 00-.511 2.218c-.142.88-.27 1.99-.384 3.325a261.982 261.982 0 00-.256 4.69c-.057 1.791-.085 3.895-.085 6.311v40.678zm31.169-57.392c3.553 0 7.078-.014 10.574-.043 3.525-.028 6.752-.057 9.679-.085 2.928-.057 5.43-.128 7.505-.213 2.075-.086 3.482-.2 4.221-.341l-2.089 5.67a31.344 31.344 0 00-3.283-.682 62.1 62.1 0 00-3.966-.469c-1.535-.17-3.311-.256-5.33-.256-.682 0-1.506.029-2.473.086-.938.028-1.847.07-2.729.128l-3.112.17v23.281c2.928-.028 5.571-.114 7.931-.256a239.2 239.2 0 006.012-.426c1.933-.17 3.638-.37 5.116-.597l-1.321 6.182a319.536 319.536 0 00-6.012-.724c-1.763-.2-3.682-.37-5.757-.512a72.934 72.934 0 00-5.969-.256v26.735c3.354 0 6.438-.142 9.252-.427 2.815-.284 5.273-.61 7.377-.98 2.445-.398 4.676-.867 6.694-1.407l-1.236 6.907a40.71 40.71 0 00-1.535-.085 616.446 616.446 0 00-4.946-.17c-.91 0-1.777-.015-2.601-.043-.825 0-1.564-.015-2.218-.043H333.283v-.17c.171-.597.327-1.337.469-2.218.171-.881.313-1.975.426-3.283.114-1.308.199-2.857.256-4.648.057-1.819.086-3.937.086-6.353V18.57c0-2.416-.029-4.52-.086-6.31a86.175 86.175 0 00-.256-4.69c-.113-1.337-.255-2.445-.426-3.326a19.49 19.49 0 00-.469-2.218v-.17z" fill="#fff"/></svg>