<svg width="119" height="119" viewBox="0 0 119 119" fill="none" xmlns="http://www.w3.org/2000/svg"><path d="M73.168 94.158a.684.684 0 00.887.372.676.676 0 00.363-.886l-1.707-4.111c-.413.186-.828.354-1.25.523l1.707 4.11v-.008zM60.07 26.597a.63.63 0 00.11-.354v-3.047a.678.678 0 00-.676-.676.678.678 0 00-.676.676v3.047c0 .135.05.245.11.354h1.132zM59.52 96.919a.678.678 0 00-.675.675v8.112c0 .371.312.126.684.126v.549a.678.678 0 00.676-.675v-8.112a.685.685 0 00-.684-.675zM43.179 16.544c-.152-.346-.55-.498-.896-.346a.674.674 0 00-.346.895l5.205 11.918c.414-.168.836-.337 1.267-.49l-5.23-11.968v-.009zM76.624 98.953a.678.678 0 00-1.25.523l2.467 5.951a.684.684 0 00.888.371.676.676 0 00.363-.886l-2.468-5.95v-.01zM95.23 45.387a.677.677 0 10-.524-1.25L89.62 46.24c.186.414.355.828.524 1.25l5.087-2.102zM93.786 74.348a.685.685 0 00.887-.371.676.676 0 00-.364-.887l-4.157-1.722c-.16.422-.338.836-.515 1.25l4.157 1.721-.008.009zM92.383 59.998c.101.068.22.11.355.11h15.674a.677.677 0 00.676-.675.678.678 0 00-.676-.676H92.738a.7.7 0 00-.347.11v1.131h-.008zM78.999 14.198a.677.677 0 00-1.25-.523l-6.28 15.142c.423.16.837.338 1.251.515L79 14.19v.009zM20.677 58.757H18.16c.372 0 .676.304.676.675a.678.678 0 01-.676.676h2.518a.678.678 0 00.676-.675.678.678 0 00-.676-.676zM15.083 40.322a.677.677 0 10-.524 1.25l14.306 5.917c.17-.422.338-.836.516-1.25l-14.306-5.917h.008zM39.004 10.374a.682.682 0 00.896.346c.346-.152.498-.549.346-.895l-2.239-5.132c-.152-.346-.55-.498-.896-.346a.674.674 0 00-.346.895l2.24 5.132zM79.928 10.171a.684.684 0 00.887-.371L82.395 6a.677.677 0 00-1.25-.523l-1.58 3.799a.676.676 0 00.363.886v.008zM59.504 19.093a.678.678 0 00.676-.675V.675A.678.678 0 0059.504 0a.678.678 0 00-.676.675v17.743c0 .372.304.675.676.675zM97.36 43.775a.684.684 0 00.887.371l15.878-6.567a.677.677 0 10-.524-1.25l-15.877 6.568a.676.676 0 00-.364.886v-.008zM96.667 22.993a.673.673 0 00.481-.202l4.437-4.432a.677.677 0 000-.954.679.679 0 00-.955 0l-4.436 4.432a.677.677 0 00.481 1.156h-.008zM17.483 59.432c0-.37.304-.675.676-.675h-8.086a.678.678 0 00-.677.675c0 .372.305.676.676.676h8.087a.678.678 0 01-.676-.675zM9.024 37.815l-3.253-1.35a.677.677 0 10-.524 1.249l3.253 1.35a.685.685 0 00.887-.371.676.676 0 00-.363-.886v.008zM23.296 24.225a.663.663 0 00.482.195.7.7 0 00.482-.195.677.677 0 000-.953l-5.865-5.858a.679.679 0 00-.954 0 .677.677 0 000 .953l5.864 5.858h-.009z" fill="#fff"/><path d="M18.158 60.108a.676.676 0 10.001-1.352.676.676 0 000 1.352zM4.732 58.757H.676a.678.678 0 00-.676.675c0 .372.304.676.676.676h4.056a.678.678 0 00.676-.675.678.678 0 00-.676-.676zM83.231 36.693l8.966-8.956a.677.677 0 000-.954.679.679 0 00-.955 0l-8.966 8.956c.322.312.643.633.955.962v-.008zM106.224 78.028l-9.059-3.748a.677.677 0 10-.524 1.25l9.059 3.747a.684.684 0 00.887-.371.676.676 0 00-.363-.887v.009zM92.982 91.922a.679.679 0 00-.954 0 .677.677 0 000 .953l3.32 3.318a.672.672 0 00.964 0 .677.677 0 000-.954l-3.321-3.317h-.009zM83.232 82.18c-.313.321-.634.642-.963.955l6.988 6.98a.664.664 0 00.481.194.7.7 0 00.482-.194.677.677 0 000-.954l-6.988-6.98zM36.75 35.747l-7.58-7.571a.679.679 0 00-.955 0 .677.677 0 000 .954l7.58 7.571c.312-.33.633-.641.954-.954zM26.634 58.757H25.13a.678.678 0 00-.676.675c0 .372.304.676.676.676h1.504a36.196 36.196 0 010-1.35zM110.718 79.893l-2.061-.852a.678.678 0 10-.524 1.249l2.061.852a.686.686 0 00.888-.371.677.677 0 00-.364-.886v.008zM118.325 58.757h-5.4a.678.678 0 00-.676.675c0 .372.304.676.676.676h5.4a.677.677 0 00.675-.675.677.677 0 00-.675-.676zM88.64 47.38s.017.025.025.042c-.008-.025-.026-.051-.034-.077v.035h.008zM27.462 56.157a32.045 32.045 0 012.036-8.407l-.625-.253a32.858 32.858 0 00-2.087 8.601 31.133 31.133 0 00-.152 2.668h.676c.017-.861.059-1.722.152-2.6v-.009zM36.258 37.174l-.464-.465a32.91 32.91 0 00-6.405 9.539l.617.253a31.996 31.996 0 016.252-9.327zM62.782 27.424A32.139 32.139 0 0171.2 29.46l.262-.633a33.18 33.18 0 00-8.61-2.077 34.3 34.3 0 00-2.781-.16.653.653 0 01-.566.32.66.66 0 01-.566-.329 32.67 32.67 0 00-10.529 1.917l.27.616a32.115 32.115 0 0114.103-1.697v.008zM72.449 88.891l.262.633a33.1 33.1 0 007.554-4.617 33.524 33.524 0 001.994-1.772l-.481-.482a32.354 32.354 0 01-9.338 6.238h.009zM89.51 47.75a32 32 0 012.036 14.958 32.046 32.046 0 01-2.036 8.407l.633.261a33.085 33.085 0 002.08-8.6c.092-.93.143-1.858.16-2.778a.66.66 0 01-.33-.566.66.66 0 01.33-.565 32.536 32.536 0 00-2.231-11.378l-.625.261h-.017zM82.75 81.7l.481.48a32.43 32.43 0 006.397-9.546l-.634-.262a32.165 32.165 0 01-6.253 9.328h.009zM81.786 36.22l.482-.481a32.469 32.469 0 00-9.557-6.39l-.262.633a32.037 32.037 0 019.337 6.246v-.008zM88.995 46.501l.016-.008.617-.254a33.05 33.05 0 00-4.622-7.546 33.51 33.51 0 00-1.774-1.992l-.482.481a32.144 32.144 0 016.245 9.327v-.008z" fill="#fff"/><path d="M47.413 29.61l-.27-.607a33.152 33.152 0 00-10.394 6.744l.465.465a32.327 32.327 0 0110.19-6.601h.009zM27.31 60.116h-.676c.017.861.059 1.722.143 2.575a.682.682 0 00.744.607.64.64 0 00.304-.118l-.372-.557a30.722 30.722 0 01-.135-2.507h-.008zM56.226 91.44a31.927 31.927 0 01-11.99-3.671l-.372-.558a.681.681 0 00-.228.237.681.681 0 00.279.92 32.822 32.822 0 0012.244 3.748c1.14.118 2.273.177 3.405.177 4.107 0 8.129-.768 11.898-2.245l-.262-.642a32.205 32.205 0 01-14.974 2.034zM27.31 58.757h-.676c-.008.448-.008.903 0 1.35h.676c-.008-.447 0-.902 0-1.35zM30.014 46.501l-.617-.253c-.177.413-.355.827-.515 1.249l.625.253c.16-.422.338-.835.516-1.249h-.009zM83.231 82.18l-.481-.48c-.313.329-.634.641-.955.953l.482.482c.33-.313.65-.634.963-.954h-.009zM37.221 36.22l-.464-.464c-.33.312-.643.633-.955.953l.465.465c.312-.33.633-.642.954-.954z" fill="#fff"/><path d="M71.198 89.406l.262.642c.423-.16.837-.338 1.25-.524l-.261-.633c-.414.186-.828.355-1.25.515zM59.504 26.918a.672.672 0 00.566-.32h-1.133a.66.66 0 00.567.329v-.009zM88.994 72.372l.634.262c.177-.413.355-.827.515-1.25l-.633-.26c-.161.421-.338.835-.516 1.248zM82.75 37.174l.481-.481c-.312-.33-.633-.65-.954-.963l-.482.482c.33.312.642.633.955.953v.009zM88.994 46.501c.178.414.355.827.516 1.25h.016l.626-.262c-.16-.422-.338-.836-.524-1.25l-.617.254-.017.008zM72.458 29.974l.262-.633c-.414-.178-.829-.355-1.251-.515l-.262.633c.422.16.845.337 1.25.515zM48.68 29.13l-.27-.617c-.422.152-.845.321-1.267.49l.27.608c.423-.17.837-.338 1.268-.49v.009zM92.054 59.433a.66.66 0 00.328.565v-1.131a.66.66 0 00-.328.566zM28.122 62.556c-.076-.81-.119-1.621-.136-2.44h-.675c.016.844.059 1.68.135 2.507l.371.557a.666.666 0 00.305-.624z" fill="#fff"/><path d="M88.995 46.501a32.141 32.141 0 00-6.245-9.327l-.481.48c.583.609 1.149 1.233 1.681 1.892a31.524 31.524 0 014.681 7.807.672.672 0 01.364-.844v-.008zM30.015 46.501l.633.262a31.479 31.479 0 016.11-9.1l-.49-.49a32.165 32.165 0 00-6.253 9.328zM56.225 91.44A31.99 31.99 0 0071.2 89.406l-.254-.616c-4.596 1.798-9.59 2.49-14.652 1.975a31.347 31.347 0 01-11.737-3.587.66.66 0 00-.693.042l.372.557a32.237 32.237 0 0011.99 3.672v-.009zM79.412 83.86a31.728 31.728 0 01-7.216 4.415l.254.616a32.182 32.182 0 009.337-6.238l-.482-.48a29.839 29.839 0 01-1.893 1.679v.008zM91.546 62.708A31.892 31.892 0 0089.51 47.75a.639.639 0 01-.245.05.686.686 0 01-.6-.37 31.28 31.28 0 012.206 15.21 31.95 31.95 0 01-1.978 8.222l.626.253a32.127 32.127 0 002.036-8.407h-.009zM88.377 72.11a31.22 31.22 0 01-6.1 9.109l.473.472a32.168 32.168 0 006.252-9.327l-.625-.253zM37.222 36.22l.49.49a31.61 31.61 0 019.98-6.458l-.28-.633a32.281 32.281 0 00-10.19 6.601zM27.463 56.157c-.093.87-.136 1.74-.152 2.6h.675c.017-.844.06-1.688.153-2.532.295-2.887.98-5.639 1.985-8.221l-.633-.262a32.127 32.127 0 00-2.037 8.407l.009.008zM72.458 29.974l-.254.624a31.256 31.256 0 019.118 6.095l.473-.473a32.2 32.2 0 00-9.337-6.246zM62.784 27.424a32.117 32.117 0 00-14.103 1.697l.279.633A31.223 31.223 0 0162.715 28.1c2.864.295 5.62.97 8.23 1.975l.254-.625a32.223 32.223 0 00-8.416-2.034v.008zM81.314 82.172l.481.481c.33-.312.642-.633.955-.953l-.473-.473a34.3 34.3 0 01-.963.954v-.009z" fill="#fff"/><path d="M29.498 47.75l.634.262c.16-.422.338-.836.515-1.25l-.633-.261c-.178.414-.355.827-.516 1.25zM27.31 60.116h.676a36.196 36.196 0 010-1.35h-.676c-.008.456-.008.903 0 1.35zM47.412 29.61l.279.634c.422-.169.837-.338 1.267-.49l-.278-.633c-.423.152-.845.32-1.268.49zM71.199 29.459l-.254.624c.423.16.837.338 1.25.515l.254-.624a32.326 32.326 0 00-1.25-.515zM70.945 88.79l.254.616c.422-.16.836-.338 1.25-.515l-.253-.616c-.414.186-.828.355-1.25.523v-.008zM36.258 37.174l.49.49c.313-.33.634-.642.955-.955l-.49-.489c-.33.312-.642.633-.955.954zM81.787 36.22l-.474.473c.322.312.643.633.955.962l.482-.481c-.313-.33-.634-.642-.955-.954h-.008zM89.264 47.8c.085 0 .161-.016.246-.05-.161-.422-.339-.835-.516-1.249a.672.672 0 00-.363.844c.008.025.025.05.034.076a.676.676 0 00.6.371v.009zM89.51 71.123l-.625-.253c-.16.422-.338.836-.516 1.25l.626.252c.177-.413.354-.827.515-1.249z" fill="#fff"/><path d="M59.505 118.873C26.694 118.873.009 92.208.009 59.441.009 26.673 26.702 0 59.505 0 92.307 0 119 26.665 119 59.432c0 32.768-26.693 59.433-59.495 59.433v.008zm0-117.522C27.445 1.35 1.36 27.408 1.36 59.432c0 32.025 26.085 58.082 58.144 58.082s58.143-26.057 58.143-58.081c0-32.025-26.084-58.082-58.143-58.082z" fill="#fff"/><path d="M118.341 60.142a.679.679 0 00-.71.641c-.102 1.925-.904 5.436-2.332 10.154-1.073 3.554-2.451 6.913-4.098 9.986-12.903 24.141-30.192 25.686-39.478 26.218-12.126.7-26.77-5.141-28.105-22.36-.54-7.006.794-12.375 3.988-15.945a17.455 17.455 0 014.986-3.85c.634-.329 2.526-1.164.118-2.304-.887-.422-2.628-.802-3.59-1.004a49.722 49.722 0 00-2.764-.507c-.93-.143-1.791-.27-2.696-.371a58.577 58.577 0 00-2.636-.236 44.275 44.275 0 00-2.569-.093c-.853-.009-1.673 0-2.51.042-.836.042-1.63.093-2.441.177a38.668 38.668 0 00-4.698.76 33.97 33.97 0 00-2.257.582c-.743.22-1.47.456-2.188.718a32.94 32.94 0 00-2.13.852c-.7.313-1.385.633-2.061.98-.676.346-1.344.725-2.003 1.114-.66.388-1.31.81-1.935 1.249-.625.439-1.268.903-1.876 1.376-.617.48-1.225.987-1.808 1.51a52.832 52.832 0 00-1.75 1.638 41.706 41.706 0 00-1.68 1.773c-.542.608-1.1 1.25-1.623 1.899a51.508 51.508 0 00-1.555 2.026 60.257 60.257 0 00-1.496 2.152c-.093.135-.177.279-.27.414a.68.68 0 00.203.937c.312.202.735.11.938-.203 3.997-6.187 8.99-10.922 14.838-14.08 8.695-4.684 19.004-5.781 30.698-3.274-20.406.658-28.983 9.859-32.363 15.599-3.49 5.933-4.656 13.201-3.21 19.937.067.32.346.532.658.532.05 0 .093 0 .144-.017a.681.681 0 00.524-.802c-1.378-6.407-.262-13.32 3.05-18.967 3.05-5.2 10.596-13.345 28.122-14.754-7.175 2.827-12.692 9.15-15.49 15.514-4.097 9.31-4.841 22.377 2.739 30.573a19.951 19.951 0 003.684 3.115C44.522 117.675 51.502 119 58.38 119c6.059 0 12.041-1.03 17.069-2.279a.672.672 0 00.49-.819.672.672 0 00-.82-.489c-18.944 4.71-29.853 1.139-35.667-2.693a18.407 18.407 0 01-3.43-2.904c-5.163-5.588-7.935-16.755-2.493-29.112 2.84-6.45 8.568-12.856 16.013-15.253a14.657 14.657 0 00-2.924 2.482c-3.456 3.857-4.918 9.563-4.343 16.966.608 7.858 4.047 14.155 9.928 18.215 4.64 3.199 10.757 5.293 17.382 5.293.743 0 1.495-.026 2.247-.068 8.873-.515 27.31-1.958 40.568-26.775a56.51 56.51 0 004.2-10.23c1.014-3.36 2.256-7.909 2.383-10.475a.679.679 0 00-.642-.709v-.008z" fill="#fff"/><path d="M71.292 36.676c-2.982 2.43-5.458 5.317-7.773 8.348l.042.059c.067-.034.135-.06.194-.093.777-.506 1.555-1.013 2.442-1.275 1.699-.506 3.397-.953 5.171-.928 1.15.017 2.273.203 3.372.566 1.217.405 2.273 1.072 3.262 1.865.126.101.262.203.372.354-.068 0-.144.009-.212 0-.574-.1-1.132-.278-1.715-.278-1.808-.008-3.625.042-5.408.388-1.115.22-2.23.44-3.338.71-.769.185-1.512.438-2.273.658-.025 0-.05.025-.135.076.127.042.211.084.296.1a15.44 15.44 0 014.014 1.267 12.87 12.87 0 014.005 3.014c.82.911 1.495 1.924 1.884 3.08.177.54.27 1.098.397 1.655.043.202.068.413.093.624-.017.009-.034.026-.05.034-.077-.076-.153-.143-.22-.228-.609-.768-1.276-1.494-2.037-2.118-1.098-.912-2.306-1.663-3.582-2.296a24.478 24.478 0 00-3.854-1.545c-.828-.253-1.673-.447-2.51-.667-.092-.025-.202-.008-.303-.017 0 .017-.009.034-.017.06.152.126.304.244.456.37 1.445 1.157 2.434 2.626 2.983 4.398.524 1.697.515 3.42.346 5.158-.017.143-.034.287-.05.439-.017 0-.043 0-.06.008-.101-.287-.21-.574-.304-.86-.236-.718-.498-1.419-.845-2.086-.853-1.62-1.825-3.157-3.185-4.389a6.903 6.903 0 00-1.902-1.24c-.228-.102-.262-.077-.262.185 0 .608-.017 1.224-.008 1.832.017 3.258.017 6.516.076 9.774.042 2.372.144 4.736.245 7.1.085 1.932.186 3.865.313 5.798.11 1.638.253 3.275.388 4.913.076.936.16 1.873.262 2.802.127 1.14.262 2.27.406 3.41.101.785.228 1.562.33 2.347.025.202.126.953.312.953 1.411 0 2.822-.7 4.225-.7h.296c.211.017.338.152.338.337 0 .195-.135.338-.355.347H51.072c-.186-.017-.296-.127-.296-.33 0-.202.101-.329.296-.354.076-.009.16 0 .236 0 1.606 0 1.8.7 3.397.7.203 0 1.783-.151 1.809-.354.126-.895.253-2.49.363-3.385.135-1.106.27-2.22.389-3.326.101-.953.194-1.907.262-2.87.135-1.704.253-3.418.371-5.123.085-1.266.17-2.524.212-3.79.126-3.46.262-6.922.338-10.382.067-3.2.042-6.399.059-9.606 0-.355-.068-.38-.397-.22-1.268.608-2.257 1.545-3.11 2.642a17.405 17.405 0 00-2.636 4.803c-.119.33-.229.659-.338.988-.017.042-.051.076-.093.152-.017-.076-.034-.11-.034-.152-.034-1.005-.144-2.017-.093-3.022.101-2.06.735-3.942 2.062-5.554a9.328 9.328 0 011.622-1.536.399.399 0 00.152-.203c-.084 0-.169-.017-.245 0-.896.236-1.791.439-2.67.726-.921.304-1.842.642-2.73 1.03-2.061.886-3.954 2.034-5.542 3.646-.38.38-.71.81-1.065 1.224-.068.076-.144.152-.245.262-.009-.093-.026-.144-.026-.186.161-1.688.744-3.216 1.792-4.558 1.276-1.63 2.839-2.912 4.732-3.756 1.217-.549 2.476-.962 3.794-1.173.101-.017.194-.051.295-.085v-.067c-.135-.051-.27-.11-.405-.152-1.048-.287-2.096-.6-3.152-.844-.972-.22-1.952-.372-2.94-.532a18.072 18.072 0 00-3.507-.253c-.87.025-1.74.126-2.611.202-.11.009-.22.05-.33.068a.383.383 0 01-.093-.026c.051-.059.085-.1.127-.135.71-.532 1.403-1.089 2.197-1.502.735-.38 1.513-.659 2.315-.853 1.302-.312 2.62-.354 3.946-.194.474.06.938.152 1.403.253 1.099.245 2.189.524 3.194 1.039.516.27 1.014.582 1.513.869.033.017.067.042.11.068.017-.27-1.86-2.6-3.558-4.457-1.293-1.41-2.662-2.752-4.157-3.984.025-.06 0 .008.025-.051 1.775.405 3.448 1.038 5.02 1.958 1.858 1.09 3.413 2.49 4.647 4.255.093.126.169.261.253.388.034.05.093.084.178.169.017-.135.034-.22.034-.296.084-1.266.135-2.54.27-3.807.16-1.519.414-3.03.836-4.499.11-.388.237-.776.355-1.156a.42.42 0 01.153-.177c1.157 3.199 1.428 6.541 1.63 9.91a14.825 14.825 0 014.386-4.373c1.757-1.14 3.65-1.933 5.712-2.321l.008-.017z" fill="#fff"/></svg>