<svg width="408" height="65" viewBox="0 0 408 65" fill="none" xmlns="http://www.w3.org/2000/svg"><path d="M.508 1.856c3.553 0 7.078-.014 10.574-.043 3.525-.028 6.751-.057 9.68-.085 2.927-.057 5.428-.128 7.504-.213 2.075-.086 3.482-.2 4.22-.341l-2.088 5.67a31.308 31.308 0 00-3.284-.682 62.052 62.052 0 00-3.965-.469c-1.535-.17-3.312-.256-5.33-.256-.682 0-1.506.029-2.473.086a80.1 80.1 0 00-2.729.128l-3.113.17v23.281c2.928-.028 5.572-.114 7.931-.256 2.36-.142 4.364-.284 6.012-.426 1.933-.17 3.639-.37 5.117-.597l-1.322 6.182a318.351 318.351 0 00-6.012-.724c-1.762-.2-3.681-.37-5.756-.512a72.936 72.936 0 00-5.97-.256v26.735c3.355 0 6.439-.142 9.253-.427 2.814-.284 5.273-.61 7.377-.98 2.444-.398 4.676-.867 6.694-1.407l-1.237 6.907a40.684 40.684 0 00-1.535-.085 617.92 617.92 0 00-4.946-.17c-.91 0-1.776-.015-2.6-.043-.825 0-1.564-.015-2.218-.043H.508v-.17c.17-.597.327-1.337.469-2.218.17-.881.312-1.975.426-3.283.114-1.308.199-2.857.256-4.648.057-1.819.085-3.937.085-6.353V18.57c0-2.416-.028-4.52-.085-6.31a86.346 86.346 0 00-.256-4.69C1.29 6.232 1.147 5.124.977 4.243a19.616 19.616 0 00-.47-2.218v-.17zm51.806 57.392c3.354 0 6.438-.142 9.253-.427 2.814-.284 5.273-.61 7.376-.98 2.445-.398 4.676-.867 6.695-1.407L74.4 63.34a40.684 40.684 0 00-1.535-.085 617.92 617.92 0 00-4.946-.17c-.91 0-1.777-.015-2.601-.043-.825 0-1.564-.015-2.217-.043H43.317v-.17c.17-.597.327-1.337.47-2.218.17-.881.312-1.975.426-3.283.113-1.308.199-2.857.255-4.648.057-1.819.086-3.937.086-6.353V18.57c0-2.416-.029-4.52-.086-6.31a86.298 86.298 0 00-.255-4.69c-.114-1.337-.256-2.445-.427-3.326a19.622 19.622 0 00-.469-2.218v-.17H53.55v.17c-.17.597-.34 1.336-.511 2.218-.142.88-.27 1.99-.384 3.325-.085 1.308-.17 2.871-.256 4.69-.057 1.791-.085 3.895-.085 6.311v40.678zM83.483 1.856c3.553 0 7.078-.014 10.575-.043 3.524-.028 6.751-.057 9.679-.085 2.927-.057 5.429-.128 7.504-.213 2.075-.086 3.482-.2 4.221-.341l-2.089 5.67a31.344 31.344 0 00-3.283-.682 62.012 62.012 0 00-3.966-.469c-1.535-.17-3.311-.256-5.33-.256-.682 0-1.506.029-2.473.086a80.1 80.1 0 00-2.728.128l-3.113.17v23.281c2.928-.028 5.571-.114 7.931-.256a239.2 239.2 0 006.012-.426c1.933-.17 3.638-.37 5.116-.597l-1.321 6.182a319.536 319.536 0 00-6.012-.724c-1.763-.2-3.682-.37-5.757-.512a72.936 72.936 0 00-5.97-.256v26.735c3.355 0 6.44-.142 9.254-.427 2.814-.284 5.273-.61 7.376-.98 2.445-.398 4.676-.867 6.694-1.407l-1.236 6.907a40.71 40.71 0 00-1.535-.085 616.446 616.446 0 00-4.946-.17c-.91 0-1.777-.015-2.601-.043-.825 0-1.564-.015-2.217-.043H83.483v-.17c.17-.597.327-1.337.47-2.218.17-.881.312-1.975.425-3.283.114-1.308.2-2.857.256-4.648.057-1.819.086-3.937.086-6.353V18.57c0-2.416-.029-4.52-.086-6.31a86.4 86.4 0 00-.255-4.69c-.114-1.337-.256-2.445-.427-3.326a19.62 19.62 0 00-.469-2.218v-.17zm96.62 53.98c0 .313-.043.64-.128.981a1.42 1.42 0 01-.469.853 33.915 33.915 0 01-4.179 2.686 32.369 32.369 0 01-4.818 2.09c-1.734.597-3.61 1.052-5.628 1.364-1.99.341-4.136.512-6.439.512-5.173 0-9.892-.754-14.156-2.26-4.264-1.535-7.931-3.695-11.001-6.481-3.041-2.786-5.401-6.126-7.078-10.02-1.677-3.923-2.515-8.272-2.515-13.048 0-2.7.341-5.358 1.023-7.973a32.26 32.26 0 013.07-7.462 30.147 30.147 0 014.946-6.481 31.575 31.575 0 016.694-5.16c2.53-1.45 5.302-2.572 8.315-3.368 3.041-.824 6.325-1.237 9.85-1.237 1.364 0 2.757.071 4.178.214 1.421.113 2.829.298 4.221.554 1.393.227 2.729.512 4.008.853 1.308.34 2.545.725 3.71 1.151l2.899 7.888-.341.17c-1.108-.994-2.387-1.918-3.837-2.77a30.435 30.435 0 00-9.85-3.668 26.937 26.937 0 00-5.458-.554c-3.581 0-6.864.568-9.849 1.705-2.985 1.11-5.557 2.73-7.718 4.861-2.132 2.132-3.795 4.747-4.989 7.846-1.193 3.098-1.79 6.623-1.79 10.574 0 4.35.568 8.386 1.705 12.11s2.829 6.95 5.074 9.679c2.246 2.729 5.046 4.875 8.4 6.438 3.383 1.535 7.32 2.303 11.811 2.303 1.99 0 3.767-.157 5.33-.47 1.563-.312 2.885-.696 3.965-1.15 1.081-.484 1.891-.995 2.431-1.535.568-.569.853-1.08.853-1.535v-1.663c0-1.99-.029-3.71-.086-5.16-.057-1.45-.142-2.7-.256-3.752a36.245 36.245 0 00-.383-2.771 19.543 19.543 0 00-.512-2.132v-.17h10.233v.17c-.17.597-.341 1.307-.511 2.132-.142.796-.27 1.748-.384 2.856a61.882 61.882 0 00-.256 3.923 135.99 135.99 0 00-.085 5.16v1.748zM234.254 63v-.17c.057-.143.1-.356.128-.64.029-.284.043-.54.043-.768 0-.88-.128-1.847-.384-2.9-.227-1.08-.682-2.415-1.364-4.007l-5.16-11.598c-1.591-.057-3.709-.085-6.353-.085H206.07c-2.075 0-3.951.028-5.628.085l-4.904 11.257a228.917 228.917 0 00-1.364 3.453 10.438 10.438 0 00-.725 3.795c0 .37.028.683.085.938.057.228.114.384.171.47V63h-8.699v-.17c.512-.54 1.152-1.493 1.919-2.857.768-1.393 1.606-3.127 2.516-5.202L213.873.577h3.411l23.153 52.104a103.41 103.41 0 001.663 3.582 120.74 120.74 0 001.663 3.07c.511.91.966 1.677 1.364 2.303.398.625.668 1.023.81 1.193V63h-11.683zm-27.63-23.835h5.074c1.734-.029 3.426-.043 5.074-.043 1.677-.028 3.284-.042 4.819-.042 1.535-.029 2.927-.057 4.178-.086L213.788 11.92l-11.769 27.246h4.605zm46.988-37.31l43.919 46.733V18.57c0-2.416-.029-4.52-.086-6.31a86.175 86.175 0 00-.256-4.69c-.113-1.337-.255-2.445-.426-3.326a19.49 19.49 0 00-.469-2.218v-.17h7.59v.17a19.49 19.49 0 00-.469 2.218c-.142.88-.27 1.99-.384 3.325a86.175 86.175 0 00-.256 4.69c-.057 1.791-.085 3.895-.085 6.311v45.283h-1.492l-43.919-46.69v29.165c0 2.416.029 4.534.086 6.353.057 1.791.142 3.34.256 4.648.113 1.308.241 2.402.383 3.283.142.881.299 1.62.469 2.217V63h-7.589v-.17c.17-.597.326-1.337.469-2.218.17-.881.312-1.975.426-3.283.114-1.308.199-2.857.256-4.648.057-1.819.085-3.937.085-6.353V18.57c0-2.416-.028-4.52-.085-6.31a86.175 86.175 0 00-.256-4.69c-.114-1.337-.256-2.445-.426-3.326a19.937 19.937 0 00-.469-2.218v-.17h2.728zm111.629 9.381l-.384.17c-2.217-2.046-4.889-3.68-8.016-4.903-3.098-1.222-6.509-1.833-10.233-1.833-3.582 0-6.865.568-9.85 1.705-2.984 1.11-5.557 2.73-7.717 4.861-2.132 2.132-3.795 4.747-4.989 7.846-1.194 3.098-1.791 6.623-1.791 10.574 0 4.35.569 8.414 1.706 12.195 1.137 3.752 2.828 7.007 5.074 9.764 2.245 2.758 5.045 4.932 8.4 6.524 3.382 1.564 7.319 2.345 11.811 2.345 1.62 0 3.24-.17 4.86-.511a23.328 23.328 0 004.648-1.493 24.664 24.664 0 004.221-2.43 22.168 22.168 0 003.625-3.283l.469.298-3.411 8.699c-2.132.824-4.492 1.45-7.079 1.876a44.247 44.247 0 01-7.76.682c-5.259 0-10.077-.754-14.454-2.26-4.35-1.535-8.102-3.695-11.257-6.481-3.127-2.786-5.572-6.126-7.334-10.02-1.734-3.923-2.601-8.272-2.601-13.048 0-2.7.341-5.358 1.023-7.973a32.26 32.26 0 013.07-7.462 30.147 30.147 0 014.946-6.481 31.582 31.582 0 016.695-5.16c2.53-1.45 5.301-2.572 8.314-3.368 3.042-.824 6.325-1.237 9.85-1.237 5.486 0 10.574.839 15.265 2.516l2.899 7.888zm9.637-9.38c3.553 0 7.078-.014 10.574-.043 3.525-.028 6.751-.057 9.679-.085 2.928-.057 5.429-.128 7.505-.213 2.075-.086 3.482-.2 4.221-.341l-2.09 5.67a31.29 31.29 0 00-3.283-.682 62.058 62.058 0 00-3.965-.469c-1.535-.17-3.312-.256-5.33-.256-.682 0-1.507.029-2.473.086-.938.028-1.848.07-2.729.128l-3.113.17v23.281c2.928-.028 5.572-.114 7.931-.256 2.36-.142 4.364-.284 6.012-.426 1.933-.17 3.639-.37 5.117-.597l-1.322 6.182a317.547 317.547 0 00-6.012-.724c-1.762-.2-3.681-.37-5.756-.512a72.94 72.94 0 00-5.97-.256v26.735c3.355 0 6.439-.142 9.253-.427 2.814-.284 5.273-.61 7.377-.98 2.444-.398 4.676-.867 6.694-1.407l-1.237 6.907a40.583 40.583 0 00-1.535-.085 617.14 617.14 0 00-4.946-.17c-.909 0-1.776-.015-2.601-.043-.824 0-1.563-.015-2.217-.043H374.878v-.17c.17-.597.326-1.337.469-2.218.17-.881.312-1.975.426-3.283.114-1.308.199-2.857.256-4.648.057-1.819.085-3.937.085-6.353V18.57c0-2.416-.028-4.52-.085-6.31a86.175 86.175 0 00-.256-4.69c-.114-1.337-.256-2.445-.426-3.326a19.937 19.937 0 00-.469-2.218v-.17z" fill="#fff"/></svg>