<svg width="560" height="26" viewBox="0 0 560 26" fill="none" xmlns="http://www.w3.org/2000/svg"><path d="M12.24 1.053c2.892 0 5.28.718 7.164 2.153 1.883 1.412 3.184 3.352 3.901 5.818h-3.229c-.605-1.57-1.58-2.814-2.926-3.733-1.345-.942-2.993-1.413-4.944-1.413-1.547 0-2.937.382-4.17 1.144-1.211.74-2.175 1.816-2.893 3.229-.695 1.39-1.042 3.027-1.042 4.91 0 1.861.347 3.487 1.042 4.877.718 1.39 1.682 2.466 2.893 3.229 1.233.74 2.623 1.11 4.17 1.11 1.95 0 3.599-.46 4.944-1.38 1.346-.941 2.32-2.197 2.926-3.766h3.23c-.718 2.466-2.019 4.417-3.902 5.852-1.884 1.413-4.272 2.119-7.164 2.119-2.22 0-4.182-.505-5.886-1.514-1.704-1.031-3.038-2.455-4.002-4.271C1.41 17.578.939 15.493.939 13.16c0-2.354.47-4.45 1.413-6.29.964-1.838 2.298-3.262 4.002-4.27 1.704-1.032 3.666-1.548 5.886-1.548zM38.262.986c2.197 0 4.17.516 5.919 1.547 1.771 1.031 3.162 2.478 4.17 4.339 1.01 1.838 1.514 3.924 1.514 6.255 0 2.332-.504 4.429-1.513 6.29-1.01 1.838-2.4 3.273-4.171 4.305-1.749 1.031-3.722 1.547-5.92 1.547-2.197 0-4.192-.516-5.986-1.547-1.771-1.032-3.162-2.466-4.17-4.305-1.01-1.861-1.514-3.958-1.514-6.29 0-2.331.504-4.417 1.513-6.255 1.01-1.861 2.4-3.308 4.17-4.339C34.07 1.502 36.065.986 38.263.986zm0 2.859c-1.637 0-3.106.38-4.406 1.143-1.278.74-2.287 1.816-3.027 3.229-.718 1.39-1.077 3.027-1.077 4.91 0 1.861.36 3.498 1.077 4.91.74 1.414 1.749 2.501 3.027 3.263 1.3.74 2.769 1.11 4.406 1.11 1.614 0 3.06-.38 4.338-1.143 1.3-.763 2.31-1.839 3.027-3.23.74-1.412 1.11-3.048 1.11-4.91 0-1.883-.37-3.52-1.11-4.91-.717-1.413-1.726-2.489-3.027-3.229-1.278-.762-2.724-1.143-4.338-1.143zm29.631 15.673H57.467L55.482 25h-3.296l8.779-23.274h3.464L73.173 25h-3.296l-1.984-5.482zm-.874-2.388l-4.34-11.974-4.338 11.974h8.678zm24.253 1.715c0 1.121-.27 2.164-.808 3.128s-1.356 1.749-2.455 2.354c-1.098.606-2.455.908-4.07.908-1.569 0-2.97-.28-4.203-.84-1.211-.583-2.187-1.368-2.927-2.355-.717-1.009-1.132-2.152-1.244-3.43h3.262c.068.672.292 1.334.673 1.984.404.628.964 1.155 1.682 1.58.74.404 1.625.606 2.657.606 1.345 0 2.377-.358 3.094-1.076.717-.718 1.076-1.637 1.076-2.758 0-.964-.258-1.749-.773-2.354a5.035 5.035 0 00-1.85-1.413c-.74-.359-1.749-.74-3.027-1.143-1.502-.494-2.713-.953-3.632-1.38-.897-.448-1.67-1.11-2.321-1.984-.628-.874-.942-2.029-.942-3.464 0-1.233.292-2.32.875-3.262.605-.942 1.457-1.67 2.556-2.187 1.12-.515 2.433-.773 3.935-.773 2.332 0 4.181.572 5.55 1.715 1.367 1.121 2.163 2.556 2.387 4.305h-3.296c-.18-.941-.661-1.771-1.446-2.489-.785-.717-1.85-1.076-3.195-1.076-1.233 0-2.22.325-2.96.975-.74.628-1.11 1.525-1.11 2.691 0 .92.236 1.67.706 2.254a5.485 5.485 0 001.817 1.345c.717.314 1.704.673 2.96 1.076 1.524.493 2.746.964 3.665 1.413.942.448 1.738 1.132 2.388 2.051.65.897.976 2.097.976 3.6zM109.917 1.29v2.488h-6.693V25h-3.061V3.777H93.47V1.29h16.447zm16.933 18.229h-10.427L114.439 25h-3.296l8.778-23.274h3.464L132.13 25h-3.296l-1.984-5.482zm-.875-2.388l-4.339-11.974-4.338 11.974h8.677zm12.314 5.482h8.408V25h-11.469V1.289h3.061v21.323zm22.892 0h8.409V25h-11.469V1.289h3.06v21.323zm14.415-21.323v14.226c0 2.332.516 4.059 1.548 5.18 1.031 1.099 2.455 1.648 4.271 1.648 1.794 0 3.195-.56 4.204-1.682 1.009-1.12 1.514-2.836 1.514-5.146V1.29h3.06v14.226c0 3.23-.807 5.662-2.421 7.299-1.592 1.614-3.734 2.421-6.424 2.421-2.669 0-4.81-.807-6.424-2.421-1.592-1.637-2.388-4.07-2.388-7.299V1.29h3.06zM208.158 25l-5.953-9.384L196.79 25h-3.532l7.231-12.074-7.365-11.637h3.666l5.818 9.215 5.449-9.215h3.531l-7.264 11.872L211.79 25h-3.632zm9.644-23.711v14.226c0 2.332.516 4.059 1.547 5.18 1.032 1.099 2.455 1.648 4.272 1.648 1.793 0 3.195-.56 4.204-1.682 1.009-1.12 1.513-2.836 1.513-5.146V1.29h3.061v14.226c0 3.23-.807 5.662-2.422 7.299-1.592 1.614-3.733 2.421-6.424 2.421-2.668 0-4.809-.807-6.424-2.421-1.592-1.637-2.388-4.07-2.388-7.299V1.29h3.061zM249.724 25l-6.188-9.686h-3.33V25h-3.06V1.289h7.803c2.69 0 4.708.65 6.054 1.95 1.345 1.278 2.018 2.982 2.018 5.113 0 1.928-.539 3.486-1.615 4.675-1.076 1.166-2.634 1.894-4.675 2.186L253.189 25h-3.465zm-9.518-11.906h4.474c3.475 0 5.213-1.525 5.213-4.574 0-3.05-1.738-4.574-5.213-4.574h-4.474v9.148zm33.398-11.805l-7.769 14.73V25h-3.094v-8.98l-7.803-14.731h3.565l5.819 11.469 5.784-11.47h3.498zm14.457 21.323h8.409V25h-11.469V1.289h3.06v21.323zm14.583-21.323V25h-3.06V1.289h3.06zm6.468 0l7.231 20.314 7.332-20.314h3.33L318.294 25h-3.868l-8.677-23.711h3.363zm24.045 0V25h-3.06V1.289h3.06zM356.509 25h-3.061L341.139 6.266V25h-3.061V1.289h3.061l12.309 18.767V1.289h3.061V25zm15.684-23.947c2.758 0 5.068.684 6.929 2.052 1.883 1.368 3.15 3.229 3.8 5.583h-3.228c-.561-1.435-1.503-2.59-2.826-3.464-1.3-.875-2.847-1.312-4.641-1.312-1.614 0-3.061.381-4.339 1.144-1.278.74-2.287 1.804-3.027 3.195-.717 1.39-1.076 3.027-1.076 4.91 0 1.928.37 3.599 1.11 5.011.74 1.39 1.76 2.467 3.061 3.23 1.323.74 2.836 1.11 4.54 1.11 1.458 0 2.792-.315 4.002-.943 1.211-.627 2.198-1.535 2.96-2.724.785-1.21 1.256-2.623 1.413-4.238h-9.317V12.32h11.907v2.825c-.202 1.884-.785 3.588-1.749 5.113-.965 1.524-2.265 2.735-3.902 3.632-1.637.897-3.498 1.345-5.583 1.345-2.287 0-4.305-.504-6.054-1.513-1.749-1.032-3.117-2.455-4.103-4.271-.964-1.84-1.446-3.936-1.446-6.29s.482-4.44 1.446-6.256c.986-1.838 2.354-3.273 4.103-4.305 1.749-1.031 3.756-1.547 6.02-1.547zM408.497 25l-6.189-9.686h-3.329V25h-3.061V1.289h7.803c2.691 0 4.709.65 6.054 1.95 1.345 1.278 2.018 2.982 2.018 5.113 0 1.928-.538 3.486-1.615 4.675-1.076 1.166-2.634 1.894-4.675 2.186L411.961 25h-3.464zm-9.518-11.906h4.473c3.475 0 5.213-1.525 5.213-4.574 0-3.05-1.738-4.574-5.213-4.574h-4.473v9.148zm19.608-9.317v8.106h9.014v2.354h-9.014v8.274h10.023V25h-13.084V1.289h13.084v2.488h-10.023zm33.931 9.35c0 2.4-.482 4.496-1.446 6.29-.964 1.771-2.388 3.15-4.271 4.137-1.862.964-4.104 1.446-6.727 1.446h-7.534V1.289h7.534c2.623 0 4.865.482 6.727 1.446 1.883.942 3.307 2.31 4.271 4.103.964 1.771 1.446 3.868 1.446 6.29zm-12.68 9.115c3.095 0 5.46-.796 7.097-2.388 1.637-1.592 2.455-3.834 2.455-6.726 0-2.893-.818-5.135-2.455-6.727-1.614-1.615-3.98-2.422-7.097-2.422h-4.237v18.263h4.237zm19.871-18.465v8.106h9.013v2.354h-9.013v8.274h10.022V25h-13.083V1.289h13.083v2.488h-10.022zm27.372-2.488v2.488h-10.359v8.207h8.779v2.388h-8.779V25h-3.06V1.289h13.419zm6.688 0V25h-3.061V1.289h3.061zM517.121 25h-3.061L501.75 6.266V25h-3.06V1.289h3.06l12.31 18.767V1.289h3.061V25zm7.982-21.223v8.106h9.014v2.354h-9.014v8.274h10.023V25h-13.084V1.289h13.084v2.488h-10.023zm33.931 9.35c0 2.4-.482 4.496-1.446 6.29-.964 1.771-2.388 3.15-4.271 4.137-1.862.964-4.104 1.446-6.727 1.446h-7.534V1.289h7.534c2.623 0 4.865.482 6.727 1.446 1.883.942 3.307 2.31 4.271 4.103.964 1.771 1.446 3.868 1.446 6.29zm-12.68 9.115c3.095 0 5.46-.796 7.097-2.388 1.637-1.592 2.455-3.834 2.455-6.726 0-2.893-.818-5.135-2.455-6.727-1.614-1.615-3.98-2.422-7.097-2.422h-4.237v18.263h4.237z" fill="#fff"/></svg>