<svg width="102" height="17" viewBox="0 0 102 17" fill="none" xmlns="http://www.w3.org/2000/svg"><path d="M2.54 15.055c.845 0 1.622-.036 2.331-.108A25.968 25.968 0 006.73 14.7c.616-.1 1.178-.218 1.686-.354l-.311 1.74a10.24 10.24 0 00-.387-.021 144.344 144.344 0 00-1.246-.043c-.23 0-.448-.004-.655-.011-.208 0-.394-.004-.559-.011H.274v-.043c.043-.15.082-.337.118-.559.043-.222.079-.497.107-.827.03-.33.05-.72.065-1.17.014-.459.021-.992.021-1.601V4.807c0-.61-.007-1.139-.021-1.59a21.753 21.753 0 00-.065-1.182 8.19 8.19 0 00-.107-.838A4.942 4.942 0 00.274.64V.596h2.578v.043c-.043.15-.086.336-.129.558-.036.222-.068.502-.097.838-.021.33-.043.723-.064 1.182-.014.451-.022.98-.022 1.59v10.248zm9.05.902c.043-.15.082-.337.118-.559.036-.222.068-.497.097-.827.028-.33.05-.72.064-1.17.014-.459.021-.992.021-1.601V4.807c0-.61-.007-1.139-.021-1.59a21.781 21.781 0 00-.064-1.182 11.63 11.63 0 00-.097-.838A4.933 4.933 0 0011.59.64V.596h2.567v.043a6.79 6.79 0 00-.129.558 11.63 11.63 0 00-.097.838c-.021.33-.042.723-.064 1.182-.014.451-.022.98-.022 1.59V11.8c0 .608.008 1.142.022 1.6.021.452.043.842.064 1.171.03.33.061.605.097.827.043.222.086.409.129.559V16H11.59v-.043zm9.113-4.157c0 .608.008 1.142.022 1.6.021.452.043.842.064 1.171.029.33.061.605.097.827.043.222.086.409.129.559V16h-2.578v-.043c.043-.15.082-.337.118-.559.043-.222.079-.497.107-.827.029-.33.05-.72.065-1.17.014-.459.021-.992.021-1.601V4.807c0-.61-.007-1.139-.021-1.59a21.873 21.873 0 00-.065-1.182 8.169 8.169 0 00-.107-.838 4.933 4.933 0 00-.118-.558V.596h1.804c.61-.007 1.2-.011 1.773-.011.573-.007 1.117-.014 1.633-.022.515-.014.98-.025 1.396-.032.416-.014.766-.028 1.053-.043.286-.021.49-.043.612-.064l-.526 1.429a7.887 7.887 0 00-.827-.172 15.644 15.644 0 00-1-.119 12.31 12.31 0 00-1.987-.042c-.258.007-.512.017-.762.032l-.903.043V7.02a42.247 42.247 0 002.03-.065 72.62 72.62 0 001.59-.107 26.25 26.25 0 001.397-.15l-.322 1.557c-.538-.065-1.082-.125-1.633-.183-.473-.05-.981-.093-1.526-.129a19.576 19.576 0 00-1.536-.064v3.92zM29.785.596c.895 0 1.783-.004 2.664-.011.888-.007 1.7-.014 2.438-.022a89.291 89.291 0 001.89-.053c.524-.022.878-.05 1.064-.086l-.526 1.429a7.887 7.887 0 00-.827-.172 15.644 15.644 0 00-1-.119 12.31 12.31 0 00-1.965-.042c-.236.007-.466.017-.688.032l-.784.043V7.46a39.952 39.952 0 001.998-.064c.595-.036 1.1-.072 1.515-.108.487-.043.917-.093 1.29-.15l-.334 1.557a80.12 80.12 0 00-1.515-.182c-.444-.05-.927-.093-1.45-.13a18.38 18.38 0 00-1.504-.064v6.736c.845 0 1.622-.036 2.331-.108a25.963 25.963 0 001.859-.247c.616-.1 1.178-.218 1.686-.354l-.311 1.74a10.232 10.232 0 00-.387-.021 144.566 144.566 0 00-1.246-.043c-.23 0-.448-.004-.655-.011-.208 0-.394-.004-.559-.011h-4.984v-.043c.043-.15.082-.337.118-.559.043-.222.079-.497.107-.827.029-.33.05-.72.065-1.17.014-.459.021-.992.021-1.601V4.807c0-.61-.007-1.139-.021-1.59a21.669 21.669 0 00-.065-1.182 8.169 8.169 0 00-.107-.838 4.957 4.957 0 00-.118-.558V.596zm18.309 2.449h-.237a2.888 2.888 0 00-.279-.559 2.316 2.316 0 00-.494-.58c-.2-.186-.448-.34-.741-.462a2.599 2.599 0 00-1.02-.182c-.352 0-.663.053-.935.16a1.916 1.916 0 00-.688.452 1.95 1.95 0 00-.408.688c-.093.264-.14.558-.14.88 0 .516.144 1.01.43 1.483.294.465.659.927 1.096 1.386.437.458.91.916 1.418 1.375.508.458.98.934 1.418 1.428a7.924 7.924 0 011.085 1.558 3.57 3.57 0 01.44 1.74c0 .466-.082.935-.247 1.407a3.56 3.56 0 01-.741 1.257c-.337.373-.77.677-1.3.913-.53.23-1.16.344-1.89.344-.409 0-.8-.04-1.171-.118a7.836 7.836 0 01-1.021-.269 7.728 7.728 0 01-.838-.365 6.439 6.439 0 01-.602-.354l.248-2.375h.268c.079.337.208.66.387.967.179.301.397.57.655.806.265.23.566.415.903.559.336.136.705.204 1.106.204.365 0 .691-.054.977-.161.294-.115.545-.269.752-.462.208-.2.366-.437.473-.71.115-.271.172-.569.172-.89 0-.452-.082-.867-.247-1.247a4.778 4.778 0 00-.655-1.096 8.418 8.418 0 00-.913-.999 46.055 46.055 0 00-1.042-.967c-.359-.329-.71-.666-1.053-1.01a8.814 8.814 0 01-.913-1.095 5.957 5.957 0 01-.645-1.257 4.293 4.293 0 01-.247-1.482c0-.566.108-1.074.322-1.526a3.76 3.76 0 01.87-1.17A4.007 4.007 0 0145.3.316c.359 0 .688.028.99.085.3.058.568.126.805.204.243.08.455.158.633.237l.44.193-.074 2.009zM56.83 1.54c-.845 0-1.607.04-2.288.118-.68.072-1.267.15-1.761.237-.573.107-1.085.225-1.536.354l.311-1.74c.086.007.215.014.387.021a80.001 80.001 0 001.235.043c.236 0 .458.004.666.011.208 0 .39.004.548.01h6.832c.165-.006.35-.01.559-.01.207-.007.426-.01.655-.01A160.335 160.335 0 0063.685.53c.172-.007.3-.014.387-.021l.311 1.74a18 18 0 00-1.547-.354 26.879 26.879 0 00-1.761-.237 20.033 20.033 0 00-2.289-.118V11.8c0 .608.008 1.142.022 1.6.022.452.043.842.065 1.171.028.33.06.605.096.827.043.222.086.409.129.559V16h-2.567v-.043c.043-.15.082-.337.118-.559.036-.222.068-.497.096-.827.03-.33.05-.72.065-1.17.014-.459.021-.992.021-1.601V1.54zm16.472 7.068v3.19c0 .61.008 1.143.022 1.601.014.452.036.842.064 1.171.03.33.061.605.097.827.043.222.086.409.129.559V16h-2.578v-.043c.043-.15.082-.337.118-.559a6.8 6.8 0 00.097-.827c.028-.33.05-.72.064-1.17.022-.459.032-.992.032-1.601V8.824l-4.801-6.531a9.174 9.174 0 00-.495-.612 6.124 6.124 0 00-.45-.484 5.195 5.195 0 00-.387-.354 3.86 3.86 0 00-.269-.204V.596h3.255c0 .164.068.437.204.816.143.373.397.813.763 1.321l3.523 4.824 3.448-5.038c.122-.18.244-.362.366-.548.121-.186.232-.366.333-.537.1-.172.179-.33.236-.473a.924.924 0 00.097-.365h2.094v.043c-.157.136-.368.34-.633.612a7.83 7.83 0 00-.86 1.063L73.303 8.61zm10.758 6.446c.845 0 1.622-.036 2.33-.108a25.971 25.971 0 001.86-.247c.615-.1 1.177-.218 1.686-.354l-.312 1.74a10.244 10.244 0 00-.386-.021 144.566 144.566 0 00-1.246-.043c-.23 0-.448-.004-.656-.011-.208 0-.394-.004-.559-.011h-4.983v-.043c.042-.15.081-.337.117-.559.043-.222.08-.497.108-.827.028-.33.05-.72.064-1.17.014-.459.022-.992.022-1.601V4.807c0-.61-.007-1.139-.022-1.59a21.669 21.669 0 00-.064-1.182 8.169 8.169 0 00-.108-.838 4.933 4.933 0 00-.118-.558V.596h2.578v.043c-.043.15-.086.336-.129.558-.035.222-.068.502-.096.838-.022.33-.043.723-.065 1.182-.014.451-.021.98-.021 1.59v10.248zM93.013.595c.895 0 1.783-.003 2.664-.01.888-.007 1.701-.014 2.439-.022a89.126 89.126 0 001.89-.053c.523-.022.878-.05 1.064-.086l-.526 1.429a7.909 7.909 0 00-.828-.172 15.635 15.635 0 00-.999-.119 12.31 12.31 0 00-1.965-.042c-.237.007-.466.017-.688.032l-.784.043V7.46a39.952 39.952 0 001.998-.064c.594-.036 1.1-.072 1.515-.108a20.38 20.38 0 001.289-.15l-.333 1.557a80.12 80.12 0 00-1.515-.182c-.444-.05-.927-.093-1.45-.13a18.38 18.38 0 00-1.504-.064v6.736c.845 0 1.622-.036 2.33-.108a25.963 25.963 0 001.86-.247c.615-.1 1.177-.218 1.686-.354l-.312 1.74a10.302 10.302 0 00-.386-.021 143.657 143.657 0 00-1.246-.043c-.23 0-.448-.004-.656-.011-.207 0-.394-.004-.558-.011h-4.984v-.043c.042-.15.082-.337.117-.559.043-.222.08-.497.108-.827.028-.33.05-.72.064-1.17.015-.459.022-.992.022-1.601V4.807c0-.61-.007-1.139-.022-1.59a21.781 21.781 0 00-.064-1.182 8.193 8.193 0 00-.108-.838 4.935 4.935 0 00-.118-.558V.596z" fill="#fff"/></svg>