<svg width="126" height="80" viewBox="0 0 126 80" fill="none" xmlns="http://www.w3.org/2000/svg"><path d="M68.86 40.733a.295.295 0 00.27.182.296.296 0 00.27-.406l-.73-1.78a12.76 12.76 0 01-.537.225l.73 1.779h-.002zM63.244 11.505a.286.286 0 00.048-.151v-1.32A.293.293 0 0063 9.74a.293.293 0 00-.292.294v1.32c0 .056.02.106.047.151h.489zM63.009 41.929a.29.29 0 00-.29.294v3.51c0 .163.134.056.292.056v.235a.29.29 0 00.29-.294v-3.51a.292.292 0 00-.292-.291zM56.006 7.157a.29.29 0 00-.383-.15.295.295 0 00-.15.386l2.231 5.154c.18-.072.359-.145.542-.213l-2.243-5.177h.003zM70.34 42.806a.292.292 0 10-.54.224l1.059 2.577a.295.295 0 00.27.182.296.296 0 00.27-.406l-1.06-2.577zM78.318 19.635a.296.296 0 00.158-.384.292.292 0 00-.38-.16l-2.182.911c.078.18.153.359.222.54l2.18-.91.002.003zM77.695 32.166a.291.291 0 00.38-.16.296.296 0 00-.157-.384l-1.782-.745c-.07.182-.144.362-.222.54l1.781.743v.006zM77.096 25.958a.28.28 0 00.15.048h6.72a.293.293 0 00.291-.295.293.293 0 00-.291-.294h-6.72a.28.28 0 00-.15.048v.493zM71.356 6.144a.292.292 0 10-.54-.224l-2.692 6.552c.18.07.361.146.536.224l2.693-6.55.003-.002zM46.357 25.42h-1.08c.16 0 .291.132.291.294 0 .163-.13.294-.292.294h1.081a.293.293 0 00.292-.294.293.293 0 00-.292-.294zM43.959 17.445a.291.291 0 00-.381.16.295.295 0 00.158.383l6.134 2.56c.07-.181.144-.363.222-.54l-6.133-2.56v-.003zM54.214 4.49c.048.11.156.177.267.177a.295.295 0 00.267-.412l-.962-2.218a.29.29 0 00-.383-.151.295.295 0 00-.15.386l.961 2.219zM71.76 4.4a.291.291 0 00.38-.16l.676-1.643a.291.291 0 10-.54-.224l-.675 1.644a.294.294 0 00.159.384zM63.003 8.261a.293.293 0 00.291-.294V.294A.297.297 0 0063.004 0a.295.295 0 00-.292.294V7.97c0 .163.13.294.292.294v-.003zM79.23 18.937a.295.295 0 00.27.182.314.314 0 00.11-.022l6.806-2.843a.296.296 0 00.159-.384.292.292 0 00-.38-.16l-6.807 2.844a.296.296 0 00-.158.383zM78.933 9.948a.285.285 0 00.205-.087l1.901-1.916a.294.294 0 000-.415.289.289 0 00-.411 0l-1.9 1.916a.294.294 0 00.205.502z" fill="#fff"/><path d="M44.985 25.711c0-.162.13-.294.292-.294h-3.469a.293.293 0 00-.291.294c0 .163.13.295.291.295h3.469a.293.293 0 01-.292-.295zM41.361 16.36l-1.395-.582a.291.291 0 00-.38.16.296.296 0 00.158.383l1.395.583a.291.291 0 00.38-.16.295.295 0 00-.157-.384zM47.477 10.477a.285.285 0 00.411 0 .294.294 0 000-.415L45.376 7.53a.289.289 0 00-.412 0 .294.294 0 000 .415l2.513 2.532z" fill="#fff"/><path d="M45.276 26.006a.293.293 0 00.292-.295.293.293 0 00-.292-.294.293.293 0 00-.292.294c0 .163.131.295.292.295zM39.52 25.42h-1.736a.293.293 0 00-.292.294c0 .163.13.294.292.294h1.737a.293.293 0 00.292-.294.293.293 0 00-.292-.294zM73.171 15.876L77.014 12a.294.294 0 000-.414.289.289 0 00-.41 0L72.76 15.46c.139.134.275.274.411.415zM83.028 33.757l-3.885-1.622a.291.291 0 00-.38.16.295.295 0 00.158.383l3.885 1.622a.291.291 0 00.38-.16.295.295 0 00-.158-.383zM77.353 39.767a.288.288 0 00-.411 0 .294.294 0 000 .414l1.423 1.434a.285.285 0 00.411 0 .294.294 0 000-.414l-1.423-1.434zM73.171 35.55c-.133.14-.272.277-.411.414l2.996 3.02a.285.285 0 00.411 0 .294.294 0 000-.414l-2.993-3.017-.003-.003zM53.246 15.466l-3.248-3.274a.289.289 0 00-.412 0 .294.294 0 000 .414l3.25 3.275c.133-.14.272-.28.41-.415zM48.908 25.42h-.645a.293.293 0 00-.291.294c0 .163.13.294.291.294h.645c-.003-.196-.003-.39 0-.585v-.003zM84.958 34.564l-.881-.367a.291.291 0 00-.381.16.294.294 0 00.158.383l.881.367a.291.291 0 00.38-.16.295.295 0 00-.157-.383zM88.217 25.42h-2.315a.293.293 0 00-.292.294c0 .163.131.294.292.294h2.315a.293.293 0 00.292-.294.293.293 0 00-.292-.294zM75.491 20.498l.012.02c-.006-.011-.012-.022-.015-.034v.014h.003zM49.265 24.297c.13-1.278.43-2.496.873-3.64l-.267-.111a14.27 14.27 0 00-.895 3.72c-.039.384-.059.768-.067 1.154h.292c.008-.373.028-.748.064-1.123zM53.035 16.083l-.2-.202a14.197 14.197 0 00-2.746 4.127l.267.112a13.883 13.883 0 012.679-4.034v-.003zM64.406 11.867a13.74 13.74 0 013.61.88l.112-.272a14.01 14.01 0 00-3.691-.897c-.4-.042-.798-.061-1.192-.067a.287.287 0 01-.242.14.287.287 0 01-.242-.14c-1.57.025-3.093.314-4.513.83l.114.265a13.674 13.674 0 016.047-.736l-.003-.003z" fill="#fff"/><path d="M68.553 38.455l.114.275c1.15-.51 2.24-1.177 3.24-1.998.297-.243.58-.501.856-.767l-.206-.208a13.867 13.867 0 01-4.002 2.698h-.002zM75.865 20.658a13.967 13.967 0 01.873 6.471 14.038 14.038 0 01-.873 3.639l.27.112a14.31 14.31 0 00.959-4.922.284.284 0 01-.14-.244c0-.103.059-.193.142-.243a14.12 14.12 0 00-.958-4.925l-.267.112h-.006zM72.966 35.343l.206.207a14.061 14.061 0 002.742-4.13l-.27-.111a13.885 13.885 0 01-2.678 4.034zM72.555 15.669l.205-.208a13.933 13.933 0 00-4.096-2.765l-.111.272a13.763 13.763 0 014.002 2.7zM75.645 20.117s.003 0 .005-.003l.267-.112a14.28 14.28 0 00-1.981-3.266c-.242-.3-.498-.586-.762-.863l-.205.207a13.967 13.967 0 012.676 4.037zM57.815 12.81l-.114-.262a14.2 14.2 0 00-4.455 2.919l.2.201a13.841 13.841 0 014.369-2.854v-.003zM49.198 26.005h-.289c.008.373.025.745.061 1.113.017.16.159.28.317.263a.296.296 0 00.13-.05l-.158-.241c-.036-.36-.053-.72-.058-1.085h-.003zM61.596 39.559a13.668 13.668 0 01-5.141-1.586l-.158-.24a.306.306 0 00-.098.1.298.298 0 00.117.398 13.948 13.948 0 005.25 1.619 13.893 13.893 0 006.561-.894l-.114-.274a13.649 13.649 0 01-6.42.88l.003-.003z" fill="#fff"/><path d="M49.202 25.42h-.292c-.006.196-.006.39 0 .585h.29c-.004-.193-.004-.389 0-.585h.002zM50.356 20.117l-.267-.112c-.077.18-.15.358-.222.54l.267.113c.07-.183.145-.365.222-.541zM73.173 35.55l-.206-.207c-.133.14-.27.28-.411.414l.205.207c.14-.134.278-.274.412-.414zM53.447 15.668l-.2-.201c-.139.134-.275.274-.411.414l.2.202c.133-.14.27-.28.411-.415zM68.016 38.68l.114.274c.18-.07.358-.146.536-.224l-.114-.275c-.178.078-.356.154-.536.224zM63.004 11.645a.287.287 0 00.241-.14 13.922 13.922 0 00-.483 0c.05.084.139.14.242.14zM75.644 31.308l.27.113c.078-.18.15-.359.222-.541l-.27-.112c-.069.182-.144.364-.222.54zM72.967 16.083l.206-.207a14.23 14.23 0 00-.412-.415l-.205.207c.139.135.278.275.411.415zM75.644 20.117c.078.177.15.359.223.538h.005l.267-.112c-.07-.182-.144-.361-.222-.54l-.267.111s-.003 0-.006.003zM68.552 12.968l.111-.272a18.3 18.3 0 00-.536-.224l-.111.272c.18.07.36.145.536.224zM58.362 12.6l-.114-.265c-.183.067-.364.137-.542.213l.114.263c.18-.073.361-.146.542-.21zM76.957 25.711a.29.29 0 00.14.244c.002-.163.002-.328 0-.49a.287.287 0 00-.143.243l.003.003z" fill="#fff"/><path d="M49.55 27.061c-.034-.35-.051-.703-.06-1.056h-.292c.009.365.025.726.059 1.085l.159.24a.29.29 0 00.13-.268h.003zM75.645 20.117a14.008 14.008 0 00-2.677-4.037l-.205.207c.25.264.492.536.722.818a13.66 13.66 0 012.007 3.376.29.29 0 01.155-.364h-.002zM50.357 20.117l.27.112a13.658 13.658 0 012.618-3.936l-.209-.21a13.89 13.89 0 00-2.679 4.034zM61.597 39.559c2.257.232 4.441-.101 6.42-.88l-.108-.266a13.357 13.357 0 01-6.28.855 13.372 13.372 0 01-5.034-1.553.29.29 0 00-.297.017l.158.241a13.666 13.666 0 005.141 1.586zM71.538 36.278a13.643 13.643 0 01-3.096 1.91l.112.267a13.828 13.828 0 004.001-2.698l-.205-.207c-.261.252-.531.496-.812.728zM76.737 27.129c.23-2.275-.1-4.48-.873-6.472a.275.275 0 01-.105.023.288.288 0 01-.256-.163 13.656 13.656 0 01.945 6.584 13.788 13.788 0 01-.848 3.557l.267.112c.442-1.142.742-2.358.873-3.639l-.003-.002zM75.378 31.197a13.505 13.505 0 01-2.618 3.938l.205.208a13.885 13.885 0 002.68-4.034l-.267-.113zM53.447 15.668l.209.21a13.587 13.587 0 014.277-2.796l-.117-.271a13.84 13.84 0 00-4.369 2.854v.003zM49.264 24.297c-.039.378-.058.75-.064 1.123h.292a13.621 13.621 0 01.917-4.648l-.27-.111a14.007 14.007 0 00-.872 3.639l-.003-.003zM68.553 12.968l-.11.269c1.439.636 2.759 1.527 3.907 2.639l.205-.207a13.762 13.762 0 00-4.002-2.701zM64.407 11.867a13.639 13.639 0 00-6.048.736l.12.272a13.347 13.347 0 015.897-.717c1.226.126 2.41.418 3.53.854l.11-.268a13.712 13.712 0 00-3.61-.88v.003z" fill="#fff"/><path d="M72.352 35.55l.205.207c.14-.134.278-.274.412-.414l-.206-.208c-.134.14-.273.278-.411.415zM50.137 20.658l.27.112c.069-.182.144-.364.222-.541l-.27-.112c-.078.18-.15.358-.222.54zM49.197 26.005h.293c-.003-.196-.003-.389 0-.585h-.293a10.39 10.39 0 000 .585zM57.817 12.81l.117.272c.18-.072.361-.145.542-.21l-.12-.271c-.183.067-.364.137-.541.21h.002zM68.016 12.743l-.11.27c.18.07.36.145.536.223l.11-.269a18.035 18.035 0 00-.536-.224zM67.906 38.413l.108.266c.181-.07.359-.146.537-.224l-.111-.266c-.178.078-.356.154-.537.224h.003zM53.036 16.083l.209.21c.133-.14.272-.28.41-.415l-.208-.21c-.139.135-.278.275-.41.415zM72.554 15.668l-.205.208c.139.134.275.274.41.414l.207-.207c-.134-.14-.273-.28-.412-.415zM75.762 20.677c.036 0 .07-.008.106-.022-.07-.182-.145-.362-.223-.538a.293.293 0 00-.156.364c.006.011.011.022.014.034.05.1.15.162.256.162h.003zM75.867 30.768l-.267-.112c-.07.182-.144.364-.222.54l.267.112c.078-.179.15-.358.222-.54z" fill="#fff"/><path d="M63.001 51.425c-14.064 0-25.506-11.533-25.506-25.71C37.495 11.535 48.937 0 63.001 0c14.065 0 25.507 11.533 25.507 25.711 0 14.178-11.442 25.712-25.507 25.712v.002zm0-50.84c-13.745 0-24.925 11.273-24.925 25.126 0 13.853 11.183 25.126 24.925 25.126 13.743 0 24.926-11.273 24.926-25.126C87.927 11.858 76.744.585 63 .585z" fill="#fff"/><path d="M88.223 26.017a.29.29 0 00-.306.277c-.041.832-.386 2.35-.997 4.393a23.85 23.85 0 01-1.757 4.32C79.63 45.45 72.221 46.117 68.24 46.349c-5.2.303-11.475-2.224-12.047-9.673-.234-3.031.341-5.353 1.709-6.897a7.406 7.406 0 012.14-1.664c.272-.14 1.08-.504.05-.997-.381-.182-1.129-.348-1.54-.434a27.595 27.595 0 00-1.184-.222 23.08 23.08 0 00-2.284-.26 23.914 23.914 0 00-1.103-.042c-.37-.006-.717 0-1.076.016-.359.017-.7.043-1.048.076a16.946 16.946 0 00-2.015.328 15.3 15.3 0 00-2.818.93 15.232 15.232 0 00-2.576 1.448 16.6 16.6 0 00-1.578 1.25 18.892 18.892 0 00-2.168 2.294c-.225.28-.453.58-.667.877-.22.305-.433.616-.639.933-.039.059-.078.117-.117.179a.298.298 0 00.086.406.29.29 0 00.4-.087c1.712-2.675 3.855-4.723 6.362-6.09 3.727-2.028 8.145-2.502 13.162-1.417-8.749.285-12.426 4.263-13.874 6.745a12.25 12.25 0 00-1.375 8.623c.03.137.15.233.283.233.02 0 .042 0 .061-.006a.294.294 0 00.223-.347 11.66 11.66 0 011.309-8.206c1.309-2.246 4.543-5.773 12.055-6.384-3.076 1.224-5.438 3.958-6.639 6.71-1.756 4.028-2.076 9.678 1.173 13.228.461.504.992.955 1.578 1.347 2.493 1.656 5.486 2.23 8.432 2.23 2.598 0 5.163-.445 7.317-.986a.294.294 0 00-.141-.569c-8.124 2.037-12.798.493-15.288-1.165a7.89 7.89 0 01-1.47-1.255c-2.212-2.418-3.399-7.247-1.067-12.595 1.217-2.788 3.674-5.561 6.864-6.598a6.139 6.139 0 00-1.253 1.073c-1.482 1.667-2.11 4.138-1.862 7.34.26 3.4 1.734 6.124 4.257 7.88 1.99 1.384 4.613 2.292 7.45 2.292.32 0 .64-.008.965-.028 3.805-.221 11.708-.849 17.394-11.581a24.413 24.413 0 001.798-4.426c.437-1.454.968-3.424 1.023-4.533a.291.291 0 00-.275-.308h-.003z" fill="#fff"/><path d="M68.053 15.867c-1.281 1.053-2.34 2.3-3.332 3.611l.02.028c.027-.014.058-.025.083-.042.333-.218.667-.437 1.047-.552.729-.218 1.457-.412 2.215-.4a4.7 4.7 0 011.445.246c.52.177.973.465 1.398.807.056.045.111.09.159.154-.03 0-.061.006-.092 0-.245-.045-.486-.12-.736-.12-.776-.003-1.554.02-2.318.168-.478.092-.956.19-1.431.305-.328.079-.65.188-.973.286-.011.003-.02.011-.056.033.056.02.092.04.128.045.6.104 1.176.286 1.72.547.65.313 1.234.761 1.718 1.302.35.395.64.832.806 1.334.078.232.117.476.17.717.019.09.027.18.041.269-.008.005-.017.011-.022.017-.03-.034-.067-.062-.095-.099a6.029 6.029 0 00-.872-.916 8.031 8.031 0 00-1.537-.994 10.712 10.712 0 00-1.654-.67c-.355-.109-.717-.196-1.078-.288-.042-.011-.086-.006-.128-.009 0 .009-.005.017-.005.026l.194.16a3.85 3.85 0 011.279 1.901c.222.735.222 1.48.15 2.23l-.02.188c-.008 0-.017 0-.025.003a14.428 14.428 0 01-.13-.373 5.77 5.77 0 00-.365-.902c-.366-.7-.78-1.367-1.364-1.896a3.001 3.001 0 00-.817-.538c-.1-.042-.111-.034-.114.081 0 .263-.006.53-.006.793.009 1.409.009 2.818.034 4.227.017 1.026.06 2.048.105 3.073.037.835.078 1.673.134 2.508.044.708.108 1.417.167 2.123.033.404.069.81.11 1.213.053.493.115.983.176 1.474.041.339.097.675.139 1.014.01.087.053.412.133.412.603 0 1.209-.306 1.812-.306h.128c.089.006.144.065.144.146 0 .084-.058.146-.15.151-.064.003-.128 0-.191 0h-6.64c-.058 0-.116 0-.175-.003-.08-.008-.125-.056-.127-.14 0-.087.044-.143.127-.154.034-.003.067 0 .1 0 .687 0 .77.303 1.46.303.086 0 .764-.065.775-.151.055-.387.108-1.079.155-1.466.059-.479.114-.958.167-1.44.045-.411.08-.826.114-1.24.056-.74.108-1.48.159-2.22.036-.546.072-1.092.091-1.638.053-1.499.114-2.995.145-4.494.027-1.383.02-2.77.025-4.154 0-.154-.028-.165-.173-.095-.541.263-.967.67-1.33 1.143a7.569 7.569 0 00-1.13 2.078c-.05.143-.096.286-.144.426-.005.02-.019.034-.038.064-.006-.033-.014-.05-.014-.067-.017-.437-.062-.874-.042-1.308.042-.89.317-1.706.887-2.404.202-.252.439-.467.694-.666a.207.207 0 00.067-.087c-.036 0-.072-.009-.106 0-.383.1-.77.19-1.145.314-.397.129-.789.277-1.17.442-.883.384-1.695.883-2.376 1.577-.16.166-.305.353-.458.527-.028.034-.061.064-.106.112-.005-.042-.011-.061-.008-.078.07-.732.32-1.393.767-1.973a5.348 5.348 0 012.026-1.627 6.482 6.482 0 011.628-.51c.042-.006.084-.022.125-.036v-.028c-.058-.023-.114-.048-.172-.065-.45-.123-.898-.26-1.35-.364-.415-.095-.84-.16-1.26-.23-.497-.084-1-.123-1.503-.109-.375.011-.748.056-1.12.09-.047.003-.094.022-.142.03-.008 0-.016-.005-.039-.01.023-.026.036-.046.056-.06.306-.23.6-.473.942-.65a4.5 4.5 0 01.992-.366 4.718 4.718 0 011.693-.084c.203.022.403.064.6.109.47.106.94.227 1.37.448.222.115.434.25.65.378l.048.031c.008-.115-.798-1.126-1.526-1.927-.556-.611-1.14-1.191-1.782-1.723l.012-.023a7.486 7.486 0 012.153.85 6.254 6.254 0 011.993 1.84c.039.056.072.114.111.17.017.023.039.04.078.073.008-.058.014-.092.017-.128.036-.55.058-1.101.114-1.648a11.013 11.013 0 01.514-2.448c.008-.028.033-.053.064-.076.494 1.384.611 2.83.7 4.286a6.465 6.465 0 011.879-1.893 6.73 6.73 0 012.448-1.003l-.014.008zM5.339 58.337l.152.134L.22 70.657H0l5.339-12.323v.003zm-2.257 5.395h5.202v.205H3.082v-.205zm1.817-6.042h1.548l5.659 12.967h-1.548L4.899 57.69zM12.864 64.175c0-3.768 2.83-6.603 6.584-6.603 3.754 0 6.567 2.92 6.567 6.586 0 3.667-2.746 6.62-6.567 6.62s-6.584-2.835-6.584-6.603zm11.703 0c0-3.852-1.904-6.398-5.12-6.398-3.214 0-5.151 2.53-5.151 6.398 0 3.869 1.92 6.399 5.152 6.399s5.119-2.53 5.119-6.399zm-3.452 6.348l.187-.084c.705 1.238 1.584 2.785 3.57 2.785 1.112 0 2.324-.678 2.324-2.07h.203c0 1.526-1.348 2.274-2.526 2.274-2.157 0-3.032-1.63-3.755-2.902l-.003-.003zM28.624 65.464V57.69h1.398v8.113c0 2.731 1.331 4.717 3.99 4.717 2.66 0 4.194-1.815 4.194-5.006V57.69h.203v7.79c0 3.412-1.817 5.295-4.563 5.295-3.485 0-5.22-1.765-5.22-5.311h-.002zM45.263 58.337l.152.134-5.269 12.186h-.22l5.34-12.323-.003.003zm-2.257 5.395h5.202v.205h-5.202v-.205zm1.818-6.042h1.547l5.659 12.967h-1.548L44.824 57.69zM57.115 57.69h3.502c2.037 0 3.704.832 3.721 2.784.017 2.19-1.515 3.258-5.405 3.258h-.386l-.034 6.925h-1.398V57.69zm1.851 5.84c3.082 0 4.09-1.154 4.074-3.056-.017-1.68-.858-2.58-2.745-2.58H58.51l.034 5.636h.422zm3.84 2.544c-.775-1.543-.975-2.342-2.675-2.342h-1.212v-.204h1.331c2.913 0 3.232.983 3.94 2.392l2.407 4.734h-1.48l-2.308-4.583-.002.003zM67.96 57.69h1.398v12.967H67.96V57.69zm.522 0h6.684v.204h-6.684v-.204zm0 4.955h5.842v.205h-5.842v-.205zm0 7.81h6.854v.205h-6.854v-.204zM76.21 66.856h.203c0 2.154 1.564 3.7 3.974 3.717 1.92 0 3.704-1.087 3.704-3.412 0-4.14-7.089-1.885-7.089-6.381 0-1.903 1.548-3.208 3.907-3.208 2.207 0 3.402 1.308 3.402 2.597h-.203c0-1.137-1.045-2.359-3.182-2.392-1.904-.034-3.249.899-3.249 2.224 0 3.667 7.14 1.577 7.14 6.264 0 2.902-2.004 4.516-4.41 4.516-2.543 0-4.194-1.597-4.194-3.922l-.003-.003zm8.098-6.687c0 .493-.133.882-.286 1.12l-.17-.1c.153-.239.253-.56.253-1.02h.203zM86.734 57.69h1.398v12.967h-1.398V57.69zm.523 0h6.683v.204h-6.683v-.204zm0 4.955h5.841v.205h-5.841v-.205zm0 7.81h6.853v.205h-6.853v-.204zM96.214 57.69h3.502c2.037 0 3.704.832 3.721 2.784.016 2.19-1.515 3.258-5.406 3.258h-.386l-.033 6.925h-1.398V57.69zm1.85 5.84c3.083 0 4.092-1.154 4.075-3.056-.017-1.68-.859-2.58-2.746-2.58H97.61l.033 5.636h.423zm3.841 2.544c-.775-1.543-.975-2.342-2.676-2.342h-1.212v-.204h1.332c2.912 0 3.232.983 3.94 2.392l2.407 4.734h-1.481l-2.307-4.583-.003.003zM105.913 57.69h1.515l4.966 11.662h-.203l4.833-11.663h.219l-5.388 12.968h-.42l-5.522-12.967zM118.627 57.69h1.398v12.967h-1.398V57.69zm.52 0h6.683v.204h-6.683v-.204zm0 4.955h5.841v.205h-5.841v-.205zm0 7.81H126v.205h-6.853v-.204zM13.424 76.596v3.037h1.87v.216H13.19v-3.253h.237-.003zM16.902 79.238a.8.8 0 00.333.32c.142.075.303.112.484.112.18 0 .345-.037.49-.112a.842.842 0 00.335-.32.96.96 0 00.123-.487v-2.152h.23v2.166c0 .232-.05.431-.153.6a1.02 1.02 0 01-.42.386 1.32 1.32 0 01-.602.134c-.225 0-.42-.044-.598-.134a1.021 1.021 0 01-.42-.387 1.124 1.124 0 01-.152-.6V76.6h.236v2.152c0 .188.039.35.12.487h-.006zM22.369 79.849l-1.01-1.485-.967 1.485h-.288l1.125-1.673-1.075-1.58h.291l.962 1.407.917-1.407h.278l-1.073 1.594 1.134 1.659h-.297.003zM24.24 79.238a.8.8 0 00.333.32c.142.075.303.112.484.112.18 0 .345-.037.489-.112a.843.843 0 00.336-.32.96.96 0 00.122-.487v-2.152h.231v2.166c0 .232-.05.431-.153.6a1.02 1.02 0 01-.42.386 1.32 1.32 0 01-.602.134c-.226 0-.42-.044-.598-.134a1.021 1.021 0 01-.42-.387 1.124 1.124 0 01-.152-.6V76.6h.236v2.152c0 .188.039.35.12.487h-.006zM29.691 79.849l-.895-1.384a1.56 1.56 0 01-.255.02h-.528v1.364h-.237v-3.253h.779c.18 0 .352.034.516.101a.92.92 0 01.403.308.832.832 0 01.156.513.999.999 0 01-.145.538.83.83 0 01-.447.35l.923 1.443h-.275.005zm-.497-1.799a.745.745 0 00.103-.88.705.705 0 00-.281-.26.895.895 0 00-.423-.095h-.575v1.457h.514c.311 0 .534-.073.665-.219l-.003-.003zM33.652 76.596l-1.273 2.093v1.16h-.236v-1.16l-1.273-2.093h.29l1.108 1.841 1.1-1.84h.284zM39.451 79.994l-.783-1.955L37.865 80l-1.346-3.395h.27l1.1 2.868.665-1.711-.462-1.154h.237l1.134 2.84 1.108-2.84h.25l-1.37 3.39v-.004zM43.578 78.773h-1.503l-.453 1.076h-.236l1.442-3.395h.02l1.442 3.395h-.264l-.448-1.076zm-.086-.21l-.658-1.6-.673 1.6h1.331zM47.264 76.596v.216H46.26v3.037h-.236v-3.037h-.995v-.216h2.235zM50.662 76.596v.216h-1.87v1.291h1.681v.216h-1.681v1.314h1.937v.216h-2.173v-3.253H50.662zM54.02 79.849l-.895-1.384a1.56 1.56 0 01-.255.02h-.528v1.364h-.236v-3.253h.778c.18 0 .352.034.517.101a.92.92 0 01.402.308.832.832 0 01.156.513.998.998 0 01-.144.538.83.83 0 01-.448.35l.923 1.443h-.275.005zm-.497-1.799a.745.745 0 00.103-.88.705.705 0 00-.281-.26.895.895 0 00-.422-.095h-.576v1.456h.514c.312 0 .534-.072.665-.218l-.003-.003zM57.54 76.596v.216h-1.676v1.342h1.484v.21h-1.484v1.485h-.236v-3.253h1.912zM60.8 79.849l-.894-1.384a1.56 1.56 0 01-.256.02h-.528v1.364h-.236v-3.253h.778c.18 0 .353.034.517.101.164.067.3.168.403.308a.832.832 0 01.155.513 1 1 0 01-.144.538.83.83 0 01-.448.35l.923 1.443h-.275.005zm-.497-1.799a.745.745 0 00.103-.88.705.705 0 00-.28-.26.895.895 0 00-.423-.095h-.576v1.456h.515c.31 0 .533-.072.664-.218l-.003-.003zM62.395 77.398c.156-.255.37-.457.634-.608.267-.152.556-.227.87-.227.314 0 .606.075.875.227.27.15.481.353.64.608.155.255.236.532.236.832 0 .3-.078.577-.237.832a1.71 1.71 0 01-.639.605c-.27.148-.561.221-.875.221-.314 0-.609-.073-.876-.216a1.604 1.604 0 01-.63-.596 1.613 1.613 0 01-.234-.846c0-.311.078-.578.236-.832zm.206 1.554a1.5 1.5 0 001.292.718c.273 0 .528-.065.762-.194a1.44 1.44 0 00.55-.524 1.38 1.38 0 00.203-.725c0-.264-.067-.505-.203-.726a1.517 1.517 0 00-1.303-.725c-.273 0-.528.067-.759.199a1.46 1.46 0 00-.542.532c-.13.224-.197.465-.197.723 0 .257.066.498.203.72l-.006.002zM69.863 76.596v3.331h-.008l-2.629-2.82.006 2.742H67v-3.32h.014l2.629 2.844-.006-2.777h.225zM73.39 76.596v.216h-1.003v3.037h-.236v-3.037h-.995v-.216h2.235zM78.599 76.596v.216h-1.004v3.037h-.236v-3.037h-.995v-.216H78.6zM79.74 77.397c.155-.255.369-.457.633-.608a1.73 1.73 0 01.87-.227c.314 0 .606.076.875.227.27.151.48.353.64.608.155.255.235.532.235.832 0 .3-.077.577-.236.832-.158.255-.37.456-.639.605-.27.148-.561.221-.875.221-.314 0-.609-.073-.876-.215a1.604 1.604 0 01-.63-.597 1.613 1.613 0 01-.234-.846c0-.311.078-.577.236-.832zm.205 1.555a1.502 1.502 0 001.292.717c.272 0 .528-.065.762-.194a1.44 1.44 0 00.55-.523 1.38 1.38 0 00.203-.726c0-.263-.067-.504-.203-.725a1.519 1.519 0 00-1.304-.726c-.272 0-.528.067-.758.199a1.46 1.46 0 00-.542.532c-.13.224-.197.465-.197.723 0 .258.066.499.202.72l-.005.003zM86.745 79.994l-.783-1.956L85.159 80l-1.346-3.395h.27l1.1 2.869.665-1.712-.462-1.154h.237l1.133 2.84 1.11-2.84h.25l-1.37 3.39v-.003zM92.237 76.596v3.33h-.008l-2.629-2.82.006 2.742h-.231v-3.32h.014l2.629 2.844-.006-2.776h.225zM96.33 79.848h-.236v-1.53h-2.057v1.53h-.236v-3.252h.236v1.513h2.056v-1.513h.237v3.252zM97.917 77.397c.156-.255.37-.457.633-.608.267-.151.556-.227.87-.227.314 0 .606.076.876.227.269.151.481.353.639.608.156.255.236.532.236.832 0 .3-.078.577-.236.832a1.71 1.71 0 01-.639.605c-.27.148-.562.221-.876.221-.314 0-.608-.073-.875-.215a1.605 1.605 0 01-.63-.597 1.613 1.613 0 01-.234-.846c0-.311.078-.577.236-.832zm.206 1.555a1.502 1.502 0 001.292.717c.272 0 .528-.065.761-.194.234-.128.417-.302.551-.523.133-.222.202-.463.202-.726 0-.263-.066-.504-.202-.725a1.525 1.525 0 00-1.304-.726c-.272 0-.528.067-.759.199-.23.132-.41.31-.541.532-.131.224-.198.465-.198.723 0 .258.067.499.203.72l-.005.003zM105.787 76.523v3.325h-.231v-2.67l-1.403 1.883h-.009l-1.392-1.86v2.647h-.231v-3.325h.006l1.623 2.202 1.634-2.202h.006-.003zM109.459 76.596v.215h-1.87v1.292h1.681v.216h-1.681v1.313h1.937v.216h-2.173v-3.252H109.459zM112.226 76.831a1.65 1.65 0 00-.414-.056c-.225 0-.403.053-.539.157a.5.5 0 00-.203.406.42.42 0 00.109.294.857.857 0 00.275.202c.111.053.255.112.433.176.192.068.353.138.478.208.128.07.234.165.32.285a.78.78 0 01.131.466.848.848 0 01-.512.8 1.296 1.296 0 01-.556.116c-.361 0-.719-.112-1.075-.334l.111-.182c.12.087.264.16.436.224.173.065.342.096.506.096.145 0 .281-.028.411-.082a.72.72 0 00.317-.243.637.637 0 00.123-.393.578.578 0 00-.114-.361.832.832 0 00-.284-.235 3.409 3.409 0 00-.431-.182 4.439 4.439 0 01-.475-.194.919.919 0 01-.314-.249.587.587 0 01-.128-.39c0-.156.042-.288.123-.406a.78.78 0 01.341-.274c.145-.065.309-.101.487-.104.153 0 .314.02.478.059.164.04.311.09.439.151l-.092.174a2.366 2.366 0 00-.383-.132l.002.003z" fill="#fff"/></svg>