<svg width="81" height="52" viewBox="0 0 81 52" fill="none" xmlns="http://www.w3.org/2000/svg"><path d="M10.481.608c1.376 0 2.512.341 3.408 1.024.896.672 1.515 1.595 1.856 2.768H14.21a3.715 3.715 0 00-1.392-1.776c-.64-.448-1.424-.672-2.352-.672-.736 0-1.397.181-1.984.544-.576.352-1.034.864-1.376 1.536-.33.661-.496 1.44-.496 2.336 0 .885.166 1.659.496 2.32.342.661.8 1.173 1.376 1.536.587.352 1.248.528 1.984.528.928 0 1.712-.219 2.352-.656a3.808 3.808 0 001.392-1.792h1.536c-.341 1.173-.96 2.101-1.856 2.784-.896.672-2.032 1.008-3.408 1.008-1.056 0-1.99-.24-2.8-.72a5.143 5.143 0 01-1.904-2.032c-.448-.875-.672-1.867-.672-2.976 0-1.12.224-2.117.672-2.992.459-.875 1.094-1.552 1.904-2.032.81-.49 1.744-.736 2.8-.736zm12.7-.032c1.045 0 1.983.245 2.815.736a5.208 5.208 0 011.984 2.064c.48.875.72 1.867.72 2.976 0 1.11-.24 2.107-.72 2.992a5.235 5.235 0 01-1.984 2.048c-.832.49-1.77.736-2.816.736-1.045 0-1.994-.245-2.848-.736a5.235 5.235 0 01-1.984-2.048c-.48-.885-.72-1.883-.72-2.992 0-1.11.24-2.101.72-2.976a5.207 5.207 0 011.984-2.064c.854-.49 1.803-.736 2.848-.736zm0 1.36c-.78 0-1.478.181-2.097.544-.608.352-1.088.864-1.44 1.536-.341.661-.512 1.44-.512 2.336 0 .885.171 1.664.512 2.336.352.672.832 1.19 1.44 1.552.619.352 1.318.528 2.096.528.768 0 1.456-.181 2.064-.544a3.71 3.71 0 001.44-1.536c.352-.672.528-1.45.528-2.336 0-.896-.176-1.675-.528-2.336a3.587 3.587 0 00-1.44-1.536c-.608-.363-1.296-.544-2.064-.544zm14.416 7.456h-4.96L31.693 12h-1.568L34.3.928h1.648L40.109 12H38.54l-.944-2.608zm-.416-1.136L35.117 2.56l-2.064 5.696h4.128zm11.857.816c0 .533-.128 1.03-.384 1.488-.256.459-.645.832-1.168 1.12-.522.288-1.168.432-1.936.432-.746 0-1.413-.133-2-.4a3.721 3.721 0 01-1.392-1.12 3.253 3.253 0 01-.592-1.632h1.552c.032.32.139.635.32.944.192.299.459.55.8.752.352.192.774.288 1.264.288.64 0 1.131-.17 1.472-.512.342-.341.512-.779.512-1.312 0-.459-.122-.832-.368-1.12a2.395 2.395 0 00-.88-.672c-.352-.17-.832-.352-1.44-.544a16.428 16.428 0 01-1.728-.656 3.095 3.095 0 01-1.104-.944c-.298-.416-.448-.965-.448-1.648 0-.587.139-1.104.416-1.552A2.84 2.84 0 0143.15.944c.534-.245 1.158-.368 1.872-.368 1.11 0 1.99.272 2.64.816a3.063 3.063 0 011.136 2.048H47.23c-.085-.448-.314-.843-.688-1.184-.373-.341-.88-.512-1.52-.512-.586 0-1.056.155-1.408.464-.352.299-.528.725-.528 1.28 0 .437.112.795.336 1.072.235.267.523.48.864.64.342.15.811.32 1.408.512.726.235 1.307.459 1.744.672a2.92 2.92 0 011.136.976c.31.427.464.997.464 1.712zM58.228.72v1.184h-3.184V12h-1.456V1.904h-3.184V.72h7.824zm8.375 8.672h-4.96L60.7 12h-1.567L63.306.928h1.648L69.115 12h-1.567l-.945-2.608zm-.415-1.136L64.124 2.56 62.06 8.256h4.127zm6.177 2.608h4V12H70.91V.72h1.456v10.144zm-54.447 20h4V32h-5.456V20.72h1.456v10.144zm7.257-10.144V32H23.72V20.72h1.456zm3.397 0l3.44 9.664L35.5 20.72h1.584L32.94 32H31.1l-4.128-11.28h1.6zm11.759 0V32h-1.456V20.72h1.456zM51.76 32h-1.456l-5.856-8.912V32h-1.456V20.72h1.456l5.856 8.928V20.72h1.456V32zm7.781-11.392c1.312 0 2.41.325 3.296.976.896.65 1.499 1.536 1.808 2.656H63.11a3.437 3.437 0 00-1.344-1.648c-.619-.416-1.355-.624-2.208-.624-.768 0-1.456.181-2.064.544a3.74 3.74 0 00-1.44 1.52c-.341.661-.512 1.44-.512 2.336 0 .917.176 1.712.528 2.384a3.817 3.817 0 001.456 1.536c.63.352 1.35.528 2.16.528.693 0 1.328-.15 1.904-.448a3.647 3.647 0 001.408-1.296c.373-.576.597-1.248.672-2.016h-4.432v-1.088h5.664v1.344a5.601 5.601 0 01-.832 2.432 4.991 4.991 0 01-1.856 1.728c-.779.427-1.664.64-2.656.64-1.088 0-2.048-.24-2.88-.72a5.185 5.185 0 01-1.952-2.032c-.459-.875-.688-1.872-.688-2.992 0-1.12.23-2.112.688-2.976a5.157 5.157 0 011.952-2.048c.832-.49 1.787-.736 2.864-.736zM6.591 52l-2.944-4.608H2.063V52H.607V40.72h3.712c1.28 0 2.24.31 2.88.928.64.608.96 1.419.96 2.432 0 .917-.256 1.659-.768 2.224-.512.555-1.254.901-2.224 1.04L8.239 52H6.59zm-4.528-5.664H4.19c1.653 0 2.48-.725 2.48-2.176 0-1.45-.827-2.176-2.48-2.176H2.063v4.352zm9.648-4.432v3.856h4.288v1.12H11.71v3.936h4.768V52h-6.224V40.72h6.224v1.184H11.71zm16.462 4.448c0 1.141-.23 2.139-.688 2.992-.459.843-1.136 1.499-2.032 1.968-.886.459-1.952.688-3.2.688h-3.584V40.72h3.584c1.248 0 2.314.23 3.2.688.896.448 1.573 1.099 2.032 1.952.458.843.688 1.84.688 2.992zm-6.032 4.336c1.472 0 2.597-.379 3.376-1.136.778-.757 1.168-1.824 1.168-3.2 0-1.376-.39-2.443-1.168-3.2C24.749 42.384 23.623 42 22.14 42h-2.016v8.688h2.016zm9.772-8.784v3.856h4.288v1.12h-4.288v3.936h4.768V52h-6.224V40.72h6.224v1.184h-4.768zm13.342-1.184v1.184h-4.928v3.904h4.176v1.136h-4.176V52h-1.456V40.72h6.384zm3.502 0V52H47.3V40.72h1.456zM60.184 52H58.73l-5.856-8.912V52h-1.456V40.72h1.456l5.856 8.928V40.72h1.456V52zm4.118-10.096v3.856h4.288v1.12h-4.288v3.936h4.768V52h-6.224V40.72h6.224v1.184h-4.768zm16.462 4.448c0 1.141-.23 2.139-.689 2.992-.458.843-1.135 1.499-2.031 1.968-.886.459-1.953.688-3.2.688H71.26V40.72h3.584c1.249 0 2.315.23 3.2.688.897.448 1.574 1.099 2.032 1.952.46.843.689 1.84.689 2.992zm-6.032 4.336c1.471 0 2.597-.379 3.376-1.136.778-.757 1.168-1.824 1.168-3.2 0-1.376-.39-2.443-1.168-3.2C77.34 42.384 76.215 42 74.733 42h-2.017v8.688h2.017z" fill="#fff"/></svg>