<svg width="111" height="17" viewBox="0 0 111 17" fill="none" xmlns="http://www.w3.org/2000/svg"><path d="M.635.596C1.531.596 2.42.592 3.3.585 4.187.578 5 .571 5.738.563A89.287 89.287 0 007.628.51c.523-.022.878-.05 1.064-.086l-.526 1.429a7.89 7.89 0 00-.828-.172 15.642 15.642 0 00-.999-.119 12.31 12.31 0 00-1.965-.042c-.237.007-.466.017-.688.032l-.784.043V7.46A39.953 39.953 0 004.9 7.396c.594-.036 1.1-.072 1.515-.108.487-.043.916-.093 1.289-.15L7.37 8.695a80.144 80.144 0 00-1.515-.182c-.444-.05-.927-.093-1.45-.13a18.38 18.38 0 00-1.504-.064v6.736c.845 0 1.622-.036 2.331-.108a25.969 25.969 0 001.858-.247c.616-.1 1.178-.218 1.687-.354l-.312 1.74a10.242 10.242 0 00-.386-.021 144.39 144.39 0 00-1.246-.043c-.23 0-.448-.004-.656-.011-.207 0-.394-.004-.558-.011H.636v-.043c.042-.15.082-.337.118-.559.042-.222.078-.497.107-.827.029-.33.05-.72.064-1.17.015-.459.022-.992.022-1.601V4.807c0-.61-.007-1.139-.022-1.59a21.752 21.752 0 00-.064-1.182 8.19 8.19 0 00-.107-.838A4.942 4.942 0 00.635.64V.596zm14.152 14.459c.845 0 1.622-.036 2.331-.108a25.979 25.979 0 001.859-.247c.615-.1 1.178-.218 1.686-.354l-.311 1.74a10.252 10.252 0 00-.387-.021 144.566 144.566 0 00-1.246-.043c-.23 0-.448-.004-.655-.011-.208 0-.394-.004-.56-.011h-4.983v-.043c.042-.15.082-.337.118-.559a8.24 8.24 0 00.107-.827c.029-.33.05-.72.064-1.17.015-.459.022-.992.022-1.601V4.807c0-.61-.007-1.139-.022-1.59a21.781 21.781 0 00-.064-1.182 8.225 8.225 0 00-.107-.838A4.933 4.933 0 0012.52.64V.596h2.578v.043a6.79 6.79 0 00-.13.558 11.63 11.63 0 00-.096.838c-.021.33-.043.723-.064 1.182-.015.451-.022.98-.022 1.59v10.248zM23.74.595c.895 0 1.783-.003 2.664-.01.888-.007 1.7-.014 2.438-.022a89.291 89.291 0 001.89-.053c.524-.022.878-.05 1.064-.086l-.526 1.429a7.887 7.887 0 00-.827-.172 15.653 15.653 0 00-1-.119 12.312 12.312 0 00-1.965-.042c-.236.007-.466.017-.688.032l-.784.043V7.46a39.952 39.952 0 001.998-.064c.595-.036 1.1-.072 1.515-.108.487-.043.917-.093 1.289-.15l-.333 1.557a80.12 80.12 0 00-1.515-.182c-.444-.05-.927-.093-1.45-.13a18.38 18.38 0 00-1.504-.064v6.736c.845 0 1.622-.036 2.331-.108a25.963 25.963 0 001.859-.247c.616-.1 1.178-.218 1.686-.354l-.311 1.74a10.232 10.232 0 00-.387-.021 144.566 144.566 0 00-1.246-.043c-.23 0-.448-.004-.655-.011-.208 0-.394-.004-.559-.011H23.74v-.043c.043-.15.082-.337.118-.559.043-.222.079-.497.107-.827.029-.33.05-.72.065-1.17.014-.459.021-.992.021-1.601V4.807c0-.61-.007-1.139-.021-1.59a21.669 21.669 0 00-.065-1.182 8.169 8.169 0 00-.107-.838A4.957 4.957 0 0023.74.64V.596zm25.441 13.6c0 .08-.01.161-.032.247a.358.358 0 01-.118.215c-.322.244-.673.47-1.053.677a8.16 8.16 0 01-2.632.87 9.614 9.614 0 01-1.622.129c-1.303 0-2.492-.19-3.566-.57-1.074-.386-1.998-.93-2.772-1.632a7.288 7.288 0 01-1.783-2.525c-.422-.988-.634-2.084-.634-3.287 0-.68.087-1.35.258-2.008.18-.66.437-1.286.774-1.88a7.59 7.59 0 011.246-1.633 7.953 7.953 0 011.686-1.3A8.618 8.618 0 0141.028.65 9.459 9.459 0 0143.51.338c.343 0 .694.018 1.052.054.358.028.713.075 1.064.14.35.057.687.128 1.01.214.329.086.64.183.934.29l.73 1.987-.085.043a5.981 5.981 0 00-.967-.698 7.673 7.673 0 00-2.482-.924 6.786 6.786 0 00-1.375-.14c-.902 0-1.73.144-2.481.43-.752.28-1.4.688-1.944 1.225-.538.537-.956 1.196-1.257 1.977-.301.78-.451 1.668-.451 2.664 0 1.095.143 2.112.43 3.05.286.938.712 1.751 1.278 2.439a5.956 5.956 0 002.116 1.622c.852.387 1.844.58 2.975.58.502 0 .95-.04 1.343-.118a5.26 5.26 0 001-.29c.271-.122.476-.25.611-.387.144-.143.215-.272.215-.387v-.419c0-.5-.007-.934-.021-1.3-.014-.365-.036-.68-.065-.945a9.177 9.177 0 00-.096-.698 4.934 4.934 0 00-.13-.537v-.043h2.579v.043a7.51 7.51 0 00-.129.537c-.036.2-.068.44-.097.72-.028.28-.05.608-.064.988-.014.373-.022.806-.022 1.3v.44zM63.924 16v-.043a.63.63 0 00.032-.161 1.98 1.98 0 00.011-.194c0-.222-.032-.465-.097-.73a5.612 5.612 0 00-.343-1.01l-1.3-2.922a47.1 47.1 0 00-1.6-.021H56.822c-.522 0-.995.007-1.417.021l-1.236 2.836c-.107.265-.222.555-.344.87a2.633 2.633 0 00-.182.956c0 .094.007.172.021.237a.418.418 0 00.043.118V16h-2.191v-.043c.129-.136.29-.376.483-.72.194-.35.405-.787.634-1.31L58.789.273h.86L65.482 13.4c.136.308.275.61.419.903.15.286.29.544.419.773.128.23.243.423.343.58.1.158.169.258.204.301V16h-2.943zm-6.96-6.005h1.277c.437-.007.863-.01 1.279-.01.422-.008.827-.011 1.214-.011l1.052-.022-3.018-6.821-2.965 6.864h1.16zM69.9.595L80.965 12.37V4.807c0-.61-.007-1.139-.021-1.59a21.781 21.781 0 00-.065-1.182 8.225 8.225 0 00-.107-.838 4.933 4.933 0 00-.118-.558V.596h1.912v.043c-.043.15-.082.336-.118.558-.036.222-.068.502-.097.838-.028.33-.05.723-.064 1.182-.015.451-.022.98-.022 1.59v11.408h-.376L70.825 4.452V11.8c0 .608.007 1.142.021 1.6.015.452.036.842.065 1.171.028.33.06.605.096.827.036.222.076.409.119.559V16h-1.913v-.043c.043-.15.083-.337.119-.559.043-.222.078-.497.107-.827.029-.33.05-.72.065-1.17.014-.459.021-.992.021-1.601V4.807c0-.61-.007-1.139-.022-1.59a21.781 21.781 0 00-.064-1.182 8.193 8.193 0 00-.107-.838 4.957 4.957 0 00-.118-.558V.596h.687zM99.124 2.96l-.097.043a6.345 6.345 0 00-2.02-1.235c-.78-.308-1.64-.462-2.577-.462-.903 0-1.73.143-2.482.43-.752.279-1.4.687-1.944 1.224-.537.537-.956 1.196-1.257 1.977-.3.78-.451 1.668-.451 2.664 0 1.095.143 2.12.43 3.072.286.945.712 1.765 1.278 2.46a6.011 6.011 0 002.116 1.643c.852.394 1.844.591 2.976.591a5.932 5.932 0 003.459-1.117c.336-.244.64-.52.913-.827l.118.075-.86 2.191a8.994 8.994 0 01-1.783.473c-.644.115-1.296.172-1.955.172-1.325 0-2.538-.19-3.641-.57-1.096-.386-2.041-.93-2.836-1.632a7.458 7.458 0 01-1.848-2.525c-.437-.988-.655-2.084-.655-3.287 0-.68.086-1.35.258-2.008.179-.66.436-1.286.773-1.88a7.59 7.59 0 011.246-1.633 7.953 7.953 0 011.687-1.3A8.617 8.617 0 0192.066.65a9.458 9.458 0 012.482-.311c1.382 0 2.664.211 3.846.634l.73 1.987zm3.528-2.363c.895 0 1.783-.004 2.664-.011.888-.007 1.701-.014 2.438-.022a89.298 89.298 0 001.891-.053c.523-.022.877-.05 1.063-.086l-.526 1.429a7.873 7.873 0 00-.827-.172 15.618 15.618 0 00-.999-.119 12.31 12.31 0 00-1.966-.042c-.236.007-.465.017-.687.032l-.785.043V7.46a39.92 39.92 0 001.998-.064c.595-.036 1.1-.072 1.515-.108.487-.043.917-.093 1.289-.15l-.333 1.557a79.674 79.674 0 00-1.515-.182c-.444-.05-.927-.093-1.45-.13a18.383 18.383 0 00-1.504-.064v6.736c.845 0 1.622-.036 2.331-.108a25.992 25.992 0 001.859-.247 17.26 17.26 0 001.686-.354l-.311 1.74a10.256 10.256 0 00-.387-.021 147.361 147.361 0 00-1.246-.043c-.229 0-.448-.004-.655-.011-.208 0-.394-.004-.559-.011h-4.984v-.043c.043-.15.082-.337.118-.559.043-.222.079-.497.107-.827.029-.33.05-.72.065-1.17.014-.459.021-.992.021-1.601V4.807c0-.61-.007-1.139-.021-1.59a22.025 22.025 0 00-.065-1.182 8.017 8.017 0 00-.107-.838 4.982 4.982 0 00-.118-.558V.596z" fill="#fff"/></svg>