<svg width="140" height="17" viewBox="0 0 140 17" fill="none" xmlns="http://www.w3.org/2000/svg"><path d="M.653.596c.895 0 1.784-.004 2.664-.011A1494 1494 0 005.756.563 89.284 89.284 0 007.646.51C8.17.488 8.524.46 8.71.424l-.526 1.429a7.889 7.889 0 00-.828-.172 15.642 15.642 0 00-.999-.119 12.31 12.31 0 00-1.965-.042c-.237.007-.466.017-.688.032l-.784.043V7.46a39.953 39.953 0 001.998-.064c.594-.036 1.1-.072 1.515-.108.487-.043.916-.093 1.289-.15l-.333 1.557a80.136 80.136 0 00-1.515-.182 33.22 33.22 0 00-1.45-.13A18.38 18.38 0 002.92 8.32v6.736c.845 0 1.622-.036 2.331-.108a25.969 25.969 0 001.858-.247c.616-.1 1.178-.218 1.687-.354l-.312 1.74a10.242 10.242 0 00-.386-.021 144.35 144.35 0 00-1.246-.043c-.23 0-.448-.004-.656-.011-.207 0-.394-.004-.558-.011H.654v-.043c.042-.15.082-.337.117-.559.043-.222.08-.497.108-.827.029-.33.05-.72.064-1.17.015-.459.022-.992.022-1.601V4.807c0-.61-.007-1.139-.022-1.59A21.752 21.752 0 00.88 2.035a8.19 8.19 0 00-.108-.838A4.942 4.942 0 00.653.64V.596zm17.632 8.669l-3.802 4.823c-.143.172-.283.35-.42.537a7.035 7.035 0 00-.364.526 4.868 4.868 0 00-.269.484.924.924 0 00-.097.365H11.25v-.043c.158-.136.38-.344.666-.623.294-.28.606-.63.935-1.053l4.727-5.94L12.72 1.96a6.266 6.266 0 00-.784-.86c-.258-.236-.451-.39-.58-.461V.596h3.362c0 .086.01.197.032.333.029.136.08.297.15.483.072.18.17.38.29.602.13.222.294.462.495.72l3.104 4.07 3.427-4.285c.13-.158.254-.33.376-.516.13-.186.24-.365.333-.537.1-.18.18-.344.237-.494a1 1 0 00.096-.376h2.084v.043c-.072.057-.15.125-.236.204a9.772 9.772 0 00-.3.29c-.108.114-.23.25-.366.408-.136.158-.29.344-.462.559l-4.48 5.65 5.006 6.553c.344.444.663.813.956 1.106.301.287.52.47.656.548V16h-3.341c0-.165-.068-.437-.204-.816-.136-.38-.39-.82-.763-1.322l-3.524-4.597zm23.176-6.306l-.097.043a6.347 6.347 0 00-2.02-1.235c-.78-.308-1.64-.462-2.578-.462-.902 0-1.73.143-2.481.43-.752.279-1.4.687-1.944 1.224-.538.537-.956 1.196-1.257 1.977-.301.78-.451 1.668-.451 2.664 0 1.095.143 2.12.43 3.072.286.945.712 1.765 1.278 2.46a6.011 6.011 0 002.116 1.643c.852.394 1.844.591 2.975.591a5.932 5.932 0 003.46-1.117c.336-.244.64-.52.912-.827l.119.075-.86 2.191a8.994 8.994 0 01-1.783.473c-.645.115-1.296.172-1.955.172-1.325 0-2.539-.19-3.642-.57-1.095-.386-2.04-.93-2.835-1.632A7.457 7.457 0 0129 11.606c-.437-.988-.655-2.084-.655-3.287 0-.68.085-1.35.257-2.008.18-.66.437-1.286.774-1.88a7.59 7.59 0 011.246-1.633 7.953 7.953 0 011.686-1.3A8.618 8.618 0 0134.403.65a9.459 9.459 0 012.482-.311c1.382 0 2.664.211 3.845.634l.73 1.987zm5.794 12.096c.845 0 1.622-.036 2.331-.108a25.963 25.963 0 001.858-.247c.616-.1 1.179-.218 1.687-.354l-.312 1.74a10.232 10.232 0 00-.386-.021 144.11 144.11 0 00-1.246-.043c-.23 0-.448-.004-.656-.011-.207 0-.393-.004-.558-.011h-4.984v-.043c.042-.15.082-.337.118-.559.043-.222.078-.497.107-.827.029-.33.05-.72.065-1.17.014-.459.021-.992.021-1.601V4.807c0-.61-.007-1.139-.021-1.59a21.781 21.781 0 00-.065-1.182 8.193 8.193 0 00-.107-.838 4.957 4.957 0 00-.118-.558V.596h2.578v.043a6.75 6.75 0 00-.13.558 11.63 11.63 0 00-.096.838c-.022.33-.043.723-.064 1.182-.015.451-.022.98-.022 1.59v10.248zM67.23 4.807c0-.61-.007-1.139-.021-1.59a21.781 21.781 0 00-.065-1.182 11.63 11.63 0 00-.097-.838 4.933 4.933 0 00-.118-.558V.596h1.912v.043a6.79 6.79 0 00-.129.558 11.63 11.63 0 00-.096.838c-.022.33-.043.723-.065 1.182-.014.451-.021.98-.021 1.59v5.8c0 1.025-.147 1.898-.44 2.622-.294.723-.702 1.317-1.225 1.783a4.794 4.794 0 01-1.88.999 8.46 8.46 0 01-2.395.322c-.867 0-1.676-.1-2.428-.3a5.326 5.326 0 01-1.955-.968c-.552-.45-.985-1.03-1.3-1.74-.315-.716-.473-1.586-.473-2.61V4.807c0-.61-.007-1.139-.021-1.59a21.781 21.781 0 00-.065-1.182 8.193 8.193 0 00-.107-.838 4.957 4.957 0 00-.118-.558V.596H58.7v.043a6.75 6.75 0 00-.13.558 11.63 11.63 0 00-.096.838c-.028.33-.05.723-.064 1.182-.015.451-.022.98-.022 1.59v6.026c0 .852.126 1.558.376 2.116.258.552.595.992 1.01 1.322.415.322.888.547 1.418.676.53.13 1.07.194 1.622.194.551 0 1.092-.065 1.622-.194s1-.354 1.407-.676c.416-.33.749-.77 1-1.322.257-.558.386-1.264.386-2.116V4.807zm12.122-1.762h-.237a2.888 2.888 0 00-.279-.559 2.319 2.319 0 00-.494-.58c-.2-.186-.448-.34-.741-.462-.287-.121-.627-.182-1.02-.182-.352 0-.663.053-.936.16a1.916 1.916 0 00-.687.452 1.95 1.95 0 00-.408.688c-.093.264-.14.558-.14.88 0 .516.143 1.01.43 1.483.293.465.659.927 1.096 1.386.436.458.91.916 1.418 1.375.508.458.98.934 1.418 1.428a7.924 7.924 0 011.085 1.558 3.57 3.57 0 01.44 1.74c0 .466-.083.935-.247 1.407a3.559 3.559 0 01-.741 1.257c-.337.373-.77.677-1.3.913-.53.23-1.16.344-1.89.344-.409 0-.8-.04-1.172-.118a7.838 7.838 0 01-1.02-.269 7.722 7.722 0 01-.838-.365 6.452 6.452 0 01-.602-.354l.247-2.375h.269c.079.337.208.66.387.967.179.301.397.57.655.806.265.23.566.415.902.559.337.136.706.204 1.107.204.365 0 .69-.054.977-.161.294-.115.544-.269.752-.462.208-.2.365-.437.473-.71.115-.271.172-.569.172-.89 0-.452-.083-.867-.247-1.247a4.775 4.775 0 00-.656-1.096 8.41 8.41 0 00-.913-.999 46.055 46.055 0 00-1.042-.967c-.358-.329-.709-.666-1.052-1.01a8.823 8.823 0 01-.913-1.095 5.952 5.952 0 01-.645-1.257 4.293 4.293 0 01-.247-1.482c0-.566.107-1.074.322-1.526a3.76 3.76 0 01.87-1.17 4.007 4.007 0 012.653-.999c.359 0 .688.028.989.085a6.753 6.753 0 011.44.44c.178.08.325.144.44.194l-.075 2.009zm4.784 12.912c.043-.15.082-.337.118-.559.036-.222.068-.497.097-.827.029-.33.05-.72.065-1.17.014-.459.02-.992.02-1.601V4.807c0-.61-.006-1.139-.02-1.59a21.873 21.873 0 00-.065-1.182c-.029-.336-.06-.616-.097-.838a4.957 4.957 0 00-.118-.558V.596h2.567v.043a6.79 6.79 0 00-.128.558 11.58 11.58 0 00-.097.838c-.022.33-.043.723-.065 1.182-.014.451-.021.98-.021 1.59V11.8c0 .608.007 1.142.021 1.6.022.452.043.842.065 1.171.029.33.06.605.097.827.043.222.086.409.129.559V16h-2.568v-.043zM91.95.596v.043a.631.631 0 00-.032.16c-.007.072-.01.137-.01.194 0 .222.028.47.085.741.064.265.183.598.355 1l4.758 10.73 4.598-10.645c.107-.265.222-.555.344-.87.121-.315.182-.634.182-.956a.924.924 0 00-.064-.354V.596h2.202v.043c-.136.136-.301.38-.494.73-.194.351-.405.784-.634 1.3l-6.155 13.664h-.86L90.391 3.195c-.136-.308-.279-.605-.43-.891-.142-.287-.279-.545-.407-.774a10.44 10.44 0 00-.344-.59 3.725 3.725 0 00-.204-.301V.596h2.943zm14.71 15.361a4.96 4.96 0 00.119-.559c.035-.222.068-.497.096-.827.029-.33.05-.72.065-1.17.014-.459.021-.992.021-1.601V4.807c0-.61-.007-1.139-.021-1.59a22.025 22.025 0 00-.065-1.182 11.74 11.74 0 00-.096-.838 4.958 4.958 0 00-.119-.558V.596h2.568v.043c-.043.15-.086.336-.129.558-.036.222-.068.502-.097.838-.021.33-.043.723-.064 1.182-.015.451-.022.98-.022 1.59V11.8c0 .608.007 1.142.022 1.6.021.452.043.842.064 1.171.029.33.061.605.097.827.043.222.086.409.129.559V16h-2.568v-.043zm10.897-14.416c-.845 0-1.607.04-2.288.118-.68.072-1.267.15-1.762.237-.572.107-1.085.225-1.536.354l.312-1.74c.086.007.215.014.387.021a77.232 77.232 0 001.235.043c.236 0 .458.004.666.011.208 0 .39.004.548.01H121.95c.165-.006.351-.01.558-.01.208-.007.427-.01.656-.01A163.778 163.778 0 00124.41.53c.172-.007.301-.014.386-.021l.312 1.74a17.967 17.967 0 00-1.547-.354 26.816 26.816 0 00-1.762-.237 20.029 20.029 0 00-2.288-.118V11.8c0 .608.007 1.142.022 1.6.021.452.043.842.064 1.171.029.33.061.605.097.827.043.222.086.409.129.559V16h-2.568v-.043a4.96 4.96 0 00.119-.559c.035-.222.068-.497.096-.827.029-.33.05-.72.065-1.17.014-.459.021-.992.021-1.601V1.54zm16.472 7.068v3.19c0 .61.007 1.143.022 1.601.014.452.036.842.064 1.171.029.33.061.605.097.827.043.222.086.409.129.559V16h-2.578v-.043c.043-.15.082-.337.118-.559.043-.222.075-.497.097-.827.028-.33.05-.72.064-1.17.021-.459.032-.992.032-1.601V8.824l-4.802-6.531a8.867 8.867 0 00-.494-.612 6.068 6.068 0 00-.451-.484 5.058 5.058 0 00-.655-.558V.596h3.255c0 .164.068.437.204.816.143.373.397.813.763 1.321l3.523 4.824 3.448-5.038c.122-.18.244-.362.365-.548.122-.186.233-.366.333-.537.101-.172.18-.33.237-.473a.934.934 0 00.097-.365h2.094v.043c-.157.136-.369.34-.634.612a7.83 7.83 0 00-.859 1.063l-4.469 6.295z" fill="#fff"/></svg>